<svg viewBox="0 0 128 74" fill="none" xmlns="http://www.w3.org/2000/svg"><path d="M26 25.3l-2.2-2.7-1 1.4a241.2 241.2 0 0 0-14 32.4c-.3 1-.8 2-1.3 2.8-1 1.6-2.4 2-4.2 1.8-1.8-.1-2.5-1.4-3-3C0 57.5 0 56.7 0 56c.2-4.7.5-9.4.5-14.1 0-3.6-.1-7.1-.3-10.7-.3-3.6 0-7.1.7-10.6.2-1.2.7-2.3 2-3 2-.7 3.9 0 4.5 2 .4 1.2.5 2.4.5 3.7V36c1.2-.8 1.4-1.8 1.8-2.6 3.5-8.3 8-16 12.9-23.5C24.7 6.7 27 3.7 29.9 1c.9-.8 1.7-1.2 2.8-1 1.2.3 2 1.3 1.4 2.6-1.2 3-2.6 5.9-4 8.9l-1.7 3c.2.4.3.6.5.7 3.5 1.3 4 2.2 2.8 5.7l-.3.8c-.3 2.3-1.4 3.8-3.8 4l1.7 4 1-1.5c1.2-1.6 2.3-3.3 3.6-4.7a9.2 9.2 0 0 1 12.1-.8c1.4 1 2.1 2.4 2.7 4l.7 3.3c2-1.7 3.9-3.7 6.1-5.2 2.7-1.9 5.6-3 9-2.7 2.7.1 4.6 1.5 6 3.6 1.1 1.6 1 3.9 0 5.3-.9 1.1-2 1.4-3.3 1.2-1.2 0-1.6-.9-1.9-1.8-.4-1.9-.5-2.3-3-1.6-1.2.4-2.5.9-3.5 1.7a22.8 22.8 0 0 0-7.5 10.7c-.3 1-.3 2.1-.5 3.5 6-4.7 13.4-7.8 21.5-4l.7-2.4c.8-4.6 1.4-9.4 2.3-14 .5-2.7.8-3 3-4.2-2-2.2-2.4-4.2-1.4-6.3 1.2-2.3 4-2.5 5.6-.6.7.7.8 1.5.5 2.4-.5 1.8-1 3.6-2.8 4.4l2.4 3.6c.5 0 1.2-.3 2-.3 1.2-.1 2 .6 2.5 1.8l2.4 5.7 3.8 8.5.9 1.5c.7-3.4 1.3-6.5 2.1-9.6.7-2 1.7-4 2.6-6 .4-.7 1-1.3 1.6-2 .6-.8 1.6-1.4 2.7-1 1 .5 1.6 1.4 1.5 2.6l.1 1.2c1.1-1.1 2-2.2 3-3 2.8-2.4 6-3.4 9.5-3.5 2.7-.2 5.4.2 7.4 2.5 2.4 2.6 2.1 6-.7 8.1-.8.7-1.8 1.1-2.7 1.5-.9.4-1.8.6-3.1 1l2.3 1.4c1.6 1.1 3.4 2 4.8 3.4a10.2 10.2 0 0 1-.2 14c-3.9 3.9-13.3 7-19.7 4-1.6-.9-3.1-2.2-4.8-3.5l-1 1.1a4.5 4.5 0 0 1-6.1.4c-2.1-1.7-3.4-4-4.5-6.4-.7-1.8-1.4-3.6-2.7-5.4 0 .6-.1 1.2-.3 1.7l-1.1 9-1 2.3c-1.5 2.7-3.8 2.8-5.6 0l-1.6 6.1c-.2.7-.5 1.3-.8 1.8-.7 1-1.7 1.1-2.8.9-1-.2-1.2-1-1.2-2V53v-2.6l-7.4 4.4a18.6 18.6 0 0 1-8.6 2.4c-7.2.2-12.2-5-12.1-11.6V43l-3.6 3c-.2.2-.2 1 0 1.4.8 1.3 1.7 2.5 2.7 3.6l4.4 4.4c.6.6 1.2 1.2 1.6 2 1 1.5 0 3.1-1.8 3-1.2 0-2.4-.4-3.5-.9-3.3-1.5-6-3.8-8.4-6.5-1-1-1.8-2-3-3.5l-1 5.6c0 .8-.3 1.7-.7 2.4-1.3 2.3-4 2.2-5.3-.1a11 11 0 0 1-.4-.8c0-.3-.2-.5-.5-.8l-2.6 12c-.4 1.5-1 2.8-1.5 4.3-.2.5-.5 1-1 1.3-.6.4-1.4.6-2 .5-1-.1-1.2-1-1.2-1.7 0-2.9-.1-5.7.2-8.5.3-3.6 1-7 1.5-10.6.9-6.9 2.2-13.7 3.8-20.5l.3-1.3c.3-2.8 1-5.3 4.2-6.1zM32 2c-.7.6-1.2.8-1.4 1.1-1.8 2-3.7 4-5.4 6.2C19 18 14.5 27.8 10.1 37.6l-4 9c-.3-.7-.3-1.3-.3-2V23.6c0-1.1-.3-2.3-.8-3.3-.4-1-1.5-1-1.9 0-.4 1-.8 2.3-.8 3.4V44L2 46.5l-.3 9.9c0 .4-.1 1 .1 1.3.5.7 1 1.4 1.8 1.7.8.4 1.7-.2 2.1-1 .5-.8.9-1.6 1.2-2.5.6-1.8 1-3.6 1.8-5.4 1.8-4.7 3.6-9.5 5.7-14 2.4-5.1 4.8-10 7.4-15 2.3-4.2 5-8.2 7.3-12.4 1.1-2 2.2-4.2 3-7zM47 58.4c-1.4-1.5-2.8-3-4.4-4.3-2.1-2-3.7-4.3-5.1-6.7-.9-1.5-.8-1.6.6-2.4 3.9-2 6-5.4 7.7-9.1.7-1.7 1-3.6 1.3-5.5.2-2.6-.7-4.8-3.1-6.2-2.5-1.5-5-1.2-7.5.2a12 12 0 0 0-4.5 5.2 59 59 0 0 0-5.8 24.2c0 .8.3 1.7.5 2.5.1.4.6 1.1.7 1 .5 0 1.2-.4 1.3-.9.4-1.3.6-2.7.8-4 .6-4 1-7.9 1.8-11.8a29 29 0 0 1 5-12.2c.6-.8 1.5-1.6 2.4-2.1 2.1-1 4.6.2 4.9 2.3.3 2.3.6 4.7-1 6.8-1.4 1.9-2.8 3.7-4.4 5.5a7.5 7.5 0 0 1-3.8 2.3c-2.4.7-2.5 1-1.5 3.3l.7 1.6c1.6 3 4 5.4 6.7 7.5 1.9 1.5 4 2.8 6.7 2.8zm61.4-17.5l-.5-.5c-2.3.8-4.2 2.1-5.2 4.3-1.9 3.8.1 8.2 4.4 9.5a17 17 0 0 0 16-3.1c4.7-3.8 4.4-9.6-.4-13.4-2.4-1.9-5-2.9-7.8-3.8-1.9-.6-3.8-1.4-5.4-2.4-1.5-.8-1.5-1.7-.5-3 2.4-3.3 5.7-5 9.8-4.7.6 0 1.3.3 1.9.6 1.1.6 1.3 1.4.1 2a14 14 0 0 1-3.7 1.2c-.4.1-1.3-.3-1.5-.8-.5-.8-1-1-1.8-.7-.8.4-1 1.6-.6 2.5.6 1.3 1.7 1.8 3 2a9 9 0 0 0 6.4-1.5c2.7-1.8 2.9-4.6 0-6.3l-1.7-.8c-3.5-1.2-6.7 0-9.8 1.5-2.1 1-3.7 2.9-4.7 5-.7 1.6-.5 3 .9 4 1 .9 2.3 1.4 3.5 2 2.6 1.2 5.3 2.2 8 3.6 1.5.9 2.9 2 4 3.4 1.9 2.2 1.7 4.2-.4 6.2-4 4-9 4.7-14.2 3.4-4-1-4.5-3.4-2-6.8l2.2-3.4zm-43.2.2c-4.2-.1-7.5 2-10.9 3.7l-.6.6c-.2.4-.3.7-.2 1 0 .2.6.4 1 .3l2.8-.8c1.9-.7 3.6-1.4 5.4-1.8 1.5-.4 3.1-.5 4.7-.3 1.9.1 2.2 1.3 1 2.6-3 3.5-7 5.6-11.5 6.1-4.4.5-8.1-1.7-8-7 0-4.5 1.8-8.2 4.3-11.7a17 17 0 0 1 8.7-6.7 5 5 0 0 1 3.9.1c1.1.6 1.7 1.4 1.8 2.7 0 .1.3.5.5.5.3 0 .8-.3.9-.5.1-.8.3-1.7 0-2.5-.6-1.8-2-2.8-4-3-2.8-.4-5.4.5-7.7 2-5.4 3.6-9 8.6-10.8 14.8-.4 1.6-.6 3.4-.6 5 0 6 5.2 10 11.1 9a28 28 0 0 0 10-3.8 14 14 0 0 0 3.8-3.7c2-2.8 1.1-4.8-1.6-5.8-1.3-.5-2.7-.6-4-.8zm31 7.7l-.6.1-2.7-6-7-15.2c-.4-.7-.8-2-1.2-2-1.2 0-1.2 1.3-1.4 2.1-1.6 6.7-1.4 13.7-2.2 20.4l-.4 3.6-.1 2.3c0 .2.3.6.5.6.3 0 .8 0 1-.3.4-1.1 1-2.3 1.2-3.4.5-4 .8-8.2 1.1-12.3l.6-6 .7 1.2c2 4.4 3.7 8.9 5.7 13.2.7 1.6 1.8 3.1 2.8 4.5.7.9 1.7 1.6 3 1.2 1.3-.4 1.7-1.6 1.8-2.7.2-1.2.2-2.4.2-3.7-.1-4.6.5-9.1 1.9-13.6.5-1.6 1-3.2 1.3-5 .2-.8.2-1.7.2-2.6-.2 0-.3-.1-.5-.3l-1.5 2.2c-3.6 6.9-4 14.3-4.4 21.7zm5.3-6.8l1.6-1.5 4.1-2.4c1-.4 1.9-.2 2.6.5.7.8.7 1.5.2 2.3-.3.7-.5 1.4-1 2-.4.8-1 1.4-1.4 2.1-1.8 2.4-1.4 3.5 1.6 4 3.3.5 6.5.4 9.5-1.4.8-.5 1.4-1 2-1.6 1.4-1.4 1.5-2.6.2-4.1-.4-.6-1-1-1.5-1.3-2.6-1.3-5.1-2.7-7.8-3.8-2.9-1.3-6-2.1-7.6-5.4h-.6c-1 3.3-2.3 6.5-2 10.6zM17.7 71.5l.3.1c.3-.5.6-.9.7-1.4.6-2.1 1.3-4.3 1.7-6.5l2.5-14.4 3.6-18.2c.3-1.8 0-3.2-1-3.2-1.3.2-1.5 1.5-1.7 2.6-1 4.4-2 8.8-2.8 13.2a372.2 372.2 0 0 0-3.3 23c-.2 1.6 0 3.2 0 4.8zm56-10.2l.7.1.9-2.5 2.3-14.7L79 32.5l.8-7.6c0-.9.4-2.2-1-2.2-1.2 0-1.2 1.1-1.5 2-1.8 7.9-2.8 16-3.2 24l-.5 6.4v6.2zM33.4 40.8c.4 0 .7.1.8 0 4.4-2 6.6-5.8 7.7-10.4.2-1 0-2.1-1.2-2.6s-1.9.4-2.5 1.3a26.8 26.8 0 0 0-4.8 11.7zm18.4 7.8c1.3 1.7 3.2 2 5.1 1.6 2-.5 4-1.4 6-2.4 1-.5 2.1-1 2.7-2.4-.8 0-1.4-.2-2 0-2.3.7-4.6 1.7-7 2.3-1.4.5-3 .7-4.8 1zM26 20.8c.2.7.2 1.5.6 2.1.2.3.7.7 1 .7.5 0 1-.4 1.1-.7.5-1 1-2 1.3-3.1a2 2 0 0 0-1.2-2.5c-1-.4-1.6.3-2 1-.4.8-.6 1.6-.8 2.5zm52.4-4.6c.3.8.6 1.2.9 1.7.4-.3 1-.5 1.3-.9.6-.8.7-1.7.2-2.5-.2-.2-.9-.4-1-.3l-1.4 2z" fill="#fff"/></svg>