<svg id="84ef57d9-f069-44f2-a9a1-0543e9d1c729" data-name="Слой 1" xmlns="http://www.w3.org/2000/svg" viewBox="0 0 914 828.92"><title>circletransparent_res</title><g opacity="0.3"><path d="M213.87,18.92A11.53,11.53,0,0,0,212,2.56a11.67,11.67,0,0,0-16.44,1.85,11.53,11.53,0,0,0,1.86,16.36A11.69,11.69,0,0,0,213.87,18.92ZM196.81,5.34a10.17,10.17,0,0,1,14.27-1.54A10,10,0,0,1,212.63,18a10.17,10.17,0,0,1-14.27,1.54A10,10,0,0,1,196.81,5.34Z" fill="#3fffc0"/><path d="M15.95,315.64a3.88,3.88,0,1,0,4.65,2.93A4,4,0,0,0,15.95,315.64Zm1.4,5.86a2.3,2.3,0,1,1,1.71-2.78A2.43,2.43,0,0,1,17.35,321.5Z" fill="#c2fbff"/><path d="M14.24,357.3a11.63,11.63,0,1,0-14-8.8A11.62,11.62,0,0,0,14.24,357.3ZM9.44,336.16a10.05,10.05,0,1,1-7.6,12A10.12,10.12,0,0,1,9.44,336.16Z" fill="#3fffc0"/><path d="M137.87,680.41a3.83,3.83,0,1,0,1.86,5.09A3.79,3.79,0,0,0,137.87,680.41Zm.47,4.47a2.48,2.48,0,0,1-3.1,1.08,2.45,2.45,0,0,1-1.09-3.09,2.28,2.28,0,0,1,3.1-1.08A2.51,2.51,0,0,1,138.33,684.89Z" fill="#c2fbff"/><path d="M159.12,694a11.67,11.67,0,1,0,5.43,15.58A11.71,11.71,0,0,0,159.12,694Zm4,14.81a10.12,10.12,0,1,1-4.81-13.42A10,10,0,0,1,163.15,708.81Z" fill="#3fffc0"/><path d="M495.7,814.81a3.83,3.83,0,1,0,5.12,1.85A4,4,0,0,0,495.7,814.81Zm2.64,5.55a2.38,2.38,0,0,1-3.1-1.08,2.35,2.35,0,0,1,1.09-3.09,2.38,2.38,0,0,1,3.1,1.08A2.45,2.45,0,0,1,498.34,820.37Z" fill="#c2fbff"/><path d="M519.43,806.79a11.67,11.67,0,1,0,15.67,5.4A11.71,11.71,0,0,0,519.43,806.79Zm9.46,19.6A10.09,10.09,0,1,1,533.7,813,10,10,0,0,1,528.89,826.39Z" fill="#3fffc0"/><path d="M828.87,617.61a3.88,3.88,0,1,0-1.71,7.56,4,4,0,0,0,4.65-2.93A3.9,3.9,0,0,0,828.87,617.61Zm1.4,4.17a2.31,2.31,0,1,1-1.71-2.78A2.31,2.31,0,0,1,830.27,621.78Z" fill="#c2fbff"/><path d="M832.9,596.94a11.68,11.68,0,1,0,14-8.8A11.55,11.55,0,0,0,832.9,596.94Zm13.65-7.25a10.05,10.05,0,1,1-12.1,7.56A10.06,10.06,0,0,1,846.55,589.68Z" fill="#3fffc0"/><path d="M881.76,244.2a3.86,3.86,0,0,0,.62-5.4,3.91,3.91,0,0,0-5.43-.62,3.86,3.86,0,0,0-.62,5.4A3.94,3.94,0,0,0,881.76,244.2ZM878,239.41a2.41,2.41,0,0,1,3.26.31A2.38,2.38,0,0,1,881,243a2.41,2.41,0,0,1-3.26-.31A2.12,2.12,0,0,1,878,239.41Z" fill="#c2fbff"/><path d="M879.75,224.14a11.55,11.55,0,0,0,1.86-16.36,11.69,11.69,0,0,0-16.44-1.85,11.55,11.55,0,0,0-1.86,16.36A11.8,11.8,0,0,0,879.75,224.14Zm-13.65-17a10.17,10.17,0,0,1,14.27,1.54,10,10,0,0,1-1.55,14.2,10.17,10.17,0,0,1-14.27-1.54A9.88,9.88,0,0,1,866.1,207.17Z" fill="#3fffc0"/><path d="M716.73,20.77a11.55,11.55,0,0,0,1.86-16.36,11.69,11.69,0,0,0-16.44-1.85,11.55,11.55,0,0,0-1.86,16.36A11.67,11.67,0,0,0,716.73,20.77Zm-13.65-17a10.17,10.17,0,0,1,14.27,1.54,10,10,0,0,1-1.55,14.2A10.17,10.17,0,0,1,701.53,18,10,10,0,0,1,703.08,3.79Z" fill="#3fffc0"/><path d="M896.5,323a4,4,0,0,0,4.65-2.93,3.89,3.89,0,0,0-7.6-1.7A4,4,0,0,0,896.5,323Zm-1.4-4.32a2.31,2.31,0,1,1,1.71,2.78A2.31,2.31,0,0,1,895.1,318.73Z" fill="#c2fbff"/><path d="M899.76,357.3a11.63,11.63,0,1,0-8.84-13.89A11.74,11.74,0,0,0,899.76,357.3Zm-7.29-13.58a10.1,10.1,0,1,1,7.6,12A10.12,10.12,0,0,1,892.47,343.72Z" fill="#3fffc0"/><path d="M776.13,680.41a3.83,3.83,0,1,0,5.12,1.85A3.87,3.87,0,0,0,776.13,680.41Zm2.64,5.55a2.38,2.38,0,0,1-3.1-1.08,2.35,2.35,0,0,1,1.09-3.09,2.38,2.38,0,0,1,3.1,1.08A2.22,2.22,0,0,1,778.77,686Z" fill="#c2fbff"/><path d="M755,694a11.67,11.67,0,1,0,15.67,5.4A11.92,11.92,0,0,0,755,694Zm9.46,19.6a10.09,10.09,0,1,1,4.81-13.42A10.25,10.25,0,0,1,764.5,713.59Z" fill="#3fffc0"/><path d="M418.46,814.81a3.83,3.83,0,1,0,1.86,5.09A4,4,0,0,0,418.46,814.81Zm.47,4.47a2.48,2.48,0,0,1-3.1,1.08,2.45,2.45,0,0,1-1.09-3.09,2.48,2.48,0,0,1,3.1-1.08A2.51,2.51,0,0,1,418.92,819.29Z" fill="#c2fbff"/><path d="M394.57,806.79A11.67,11.67,0,1,0,400,822.37,11.45,11.45,0,0,0,394.57,806.79Zm4.19,15a10.12,10.12,0,1,1-4.81-13.42A10,10,0,0,1,398.76,821.76Z" fill="#3fffc0"/><path d="M85.28,617.61a3.88,3.88,0,1,0,4.65,2.93A4,4,0,0,0,85.28,617.61Zm1.24,5.86a2.3,2.3,0,1,1,1.71-2.78A2.31,2.31,0,0,1,86.52,623.48Z" fill="#c2fbff"/><path d="M67.29,588.14a11.63,11.63,0,1,0,14,8.8A11.62,11.62,0,0,0,67.29,588.14Zm4.81,21.14a10.05,10.05,0,1,1,7.6-12A10.12,10.12,0,0,1,72.1,609.28Z" fill="#3fffc0"/><path d="M31.77,238.8a3.88,3.88,0,0,0,.62,5.4,3.93,3.93,0,0,0,5.43-.62,3.88,3.88,0,0,0-.62-5.4A4.06,4.06,0,0,0,31.77,238.8Zm4.65,3.86a2.4,2.4,0,0,1-3.26.31,2.37,2.37,0,0,1-.31-3.24,2.4,2.4,0,0,1,3.26-.31A2.37,2.37,0,0,1,36.42,242.66Z" fill="#c2fbff"/><path d="M50.85,222.29A11.53,11.53,0,0,0,49,205.93a11.67,11.67,0,0,0-16.44,1.85,11.53,11.53,0,0,0,1.86,16.36A11.81,11.81,0,0,0,50.85,222.29Zm-15.51.62a10,10,0,0,1-1.55-14.2,10.17,10.17,0,0,1,14.27-1.54,10,10,0,0,1,1.55,14.2A10.28,10.28,0,0,1,35.34,222.9Z" fill="#3fffc0"/></g></svg>