<svg viewBox="0 0 916 840" fill="none" xmlns="http://www.w3.org/2000/svg"><path d="M218.6 141.7a20.4 20.4 0 0 0-8.15 16.68c.19 5.6-1.7 11.05-5.2 15.35l-4.34 5.33-4.34 5.32a23.11 23.11 0 0 1-13.97 8.2 19.74 19.74 0 0 0-14.69 11.38l-9.03 19.22-1.18-.63 9.03-19.21a21.44 21.44 0 0 1 15.74-12.05 22.05 22.05 0 0 0 13.17-7.84l4.33-5.33 4.34-5.32a22.05 22.05 0 0 0 5-14.48c-.23-7 3.03-13.72 8.61-17.86L234.84 128l.85 1.03-17.08 12.66zM281.66 233.32l.26-.4-17.83-14.2-.66.79 17.96 14.2.27-.4z" fill="#C2FBFF"/><path d="M283.24 214.12a3.68 3.68 0 0 0 5.28-.66 3.65 3.65 0 0 0-.66-5.26l.53.4 29.19-36.43-1.85-16.18-1.32.13 1.71 15.65-28.78 35.9.52.4a3.68 3.68 0 0 0-5.28.66 3.9 3.9 0 0 0 .66 5.39z" fill="#3FFFC0"/><path d="M120.26 413.71a20.4 20.4 0 0 0 8.2 16.67c4.54 3.28 7.7 8.1 8.95 13.5l1.56 6.7 1.56 6.68c1.26 5.4.56 11.12-2.06 16.07a19.74 19.74 0 0 0 0 18.58l9.67 18.9-1.22.55-9.67-18.9a21.44 21.44 0 0 1 .11-19.82 22.05 22.05 0 0 0 1.86-15.21l-1.56-6.69-1.56-6.69a22.05 22.05 0 0 0-8.39-12.82c-5.68-4.1-9-10.79-8.85-17.73l.5-21 1.35-.05-.45 21.26zM232.13 422.16l-.13-.4-22.32 5 .27 1.05 22.32-5.12-.14-.53z" fill="#C2FBFF"/><path d="M216.42 401.65a3.93 3.93 0 0 0-2.9 4.47A3.95 3.95 0 0 0 218 409a3.93 3.93 0 0 0 2.91-4.47c-.4-2.1-2.5-3.29-4.49-2.9l.66-.13-10.43-45.37-13.87-8.68-.66 1.06 13.34 8.41 10.3 44.85.66-.13z" fill="#3FFFC0"/><path d="M272.66 659.93a20.4 20.4 0 0 0 18.13 4.04 23.11 23.11 0 0 1 16.13 1.48l6.2 2.97 6.18 2.98c5 2.4 9.03 6.52 11.24 11.67a19.74 19.74 0 0 0 14.49 11.63l20.79 4.3-.33 1.3-20.8-4.3a21.44 21.44 0 0 1-15.38-12.5 22.05 22.05 0 0 0-10.7-10.97l-6.18-2.98-6.2-2.97a22.05 22.05 0 0 0-15.25-1.5 21.44 21.44 0 0 1-19.37-4.2l-16.05-13.55.8-1.07 16.3 13.67zM349.14 578.26l-9.9 20.64.79.4 10.03-20.52-.53-.26-.4-.26z" fill="#C2FBFF"/><path d="M328.67 576.15a3.76 3.76 0 0 0-5.02 1.71l.27-.52-42.13-20.26-15.45 5.4.4 1.18 14.92-5.13 41.6 19.99.26-.53a3.73 3.73 0 0 0 1.72 5c1.84.92 4.09.13 5.01-1.7a3.5 3.5 0 0 0-1.58-5.14zM599.82 680.8a9.98 9.98 0 0 0-4.62 13.28 10.06 10.06 0 0 0 13.34 4.6 9.98 9.98 0 0 0 4.62-13.28 10.06 10.06 0 0 0-13.34-4.6zm8.06 16.7a8.5 8.5 0 0 1-11.5-4.08 8.44 8.44 0 0 1 4.1-11.44 8.5 8.5 0 0 1 11.5 4.08 8.47 8.47 0 0 1-4.1 11.44z" fill="#3FFFC0"/><path d="M545.51 584.57l-.4.26 9.9 20.52.93-.53-9.9-20.51-.53.26z" fill="#C2FBFF"/><path d="M530.72 599.3a3.73 3.73 0 0 0-1.72 5l-.26-.53-42.13 20.25-5.41 15.39 1.19.4 5.28-14.87 41.6-19.99-.27-.52a3.76 3.76 0 0 0 5.02 1.7 3.73 3.73 0 0 0 1.72-5 3.7 3.7 0 0 0-5.02-1.83zM453.15 45.73a9.87 9.87 0 1 0 0-19.73 9.87 9.87 0 0 0-9.9 9.86c0 5.4 4.49 9.87 9.9 9.87zm0-18.55a8.55 8.55 0 1 1 0 17.1 8.55 8.55 0 1 1 0-17.1zM712.13 162.5a9.84 9.84 0 0 0 7.53 11.84 9.89 9.89 0 0 0 11.89-7.5 9.84 9.84 0 0 0-7.53-11.83 9.89 9.89 0 0 0-11.89 7.5zm11.62-6.18a8.58 8.58 0 0 1 6.48 10.26 8.61 8.61 0 0 1-10.3 6.44 8.58 8.58 0 0 1-6.48-10.25c.93-4.6 5.68-7.5 10.3-6.45z" fill="#3FFFC0"/><path d="M672.42 435.7l-.13.53 22.31 5.13.27-1.05-22.32-5-.13.4z" fill="#C2FBFF"/><path d="M679.28 453.72a3.67 3.67 0 0 0-4.49 2.9 3.66 3.66 0 0 0 2.91 4.47l-.66-.14-10.43 45.37 8.71 13.81 1.06-.66-8.45-13.28 10.3-44.84-.66-.13c1.98.52 4.1-.8 4.49-2.9.66-2.1-.66-4.2-2.78-4.6z" fill="#3FFFC0"/><path d="M634.78 244.1l.27.4L653 230.3l-.66-.8-17.97 14.34.4.26z" fill="#C2FBFF"/><path d="M652.48 255.28a3.93 3.93 0 0 0 5.28.66l-.53.4 29.19 36.42 16.24 1.84.13-1.32-15.71-1.7-28.8-35.9-.52.39a3.89 3.89 0 0 0 .66-5.26 3.93 3.93 0 0 0-5.28-.66 3.48 3.48 0 0 0-.66 5.13z" fill="#3FFFC0"/><path d="M461.26 154.02v-22.75h-.93v22.75h.93z" fill="#C2FBFF"/><path d="M480.67 147.18a3.82 3.82 0 0 0 3.83-3.81v.66h46.75l11.49-11.44-.93-.92-11.22 11.17h-46.22v.66a3.82 3.82 0 0 0-7.66 0 4.01 4.01 0 0 0 3.96 3.68z" fill="#3FFFC0"/><path d="M688.04 141.7a20.4 20.4 0 0 1 8.16 16.68 23.11 23.11 0 0 0 5.2 15.35l4.34 5.33 4.33 5.32c3.5 4.3 8.45 7.26 13.98 8.2a19.74 19.74 0 0 1 14.68 11.38l9.03 19.22 1.19-.63-9.03-19.21a21.44 21.44 0 0 0-15.74-12.05 22.05 22.05 0 0 1-13.17-7.84l-4.34-5.33-4.33-5.32a22.05 22.05 0 0 1-5.01-14.48c.23-7-3.03-13.72-8.6-17.86L671.8 128l-.86 1.03 17.09 12.66zM626.07 233.32l.26.4 17.96-14.21-.66-.79-17.96 14.2.4.4z" fill="#C2FBFF"/><path d="M619.73 208.2a3.89 3.89 0 0 0-.66 5.26 3.93 3.93 0 0 0 5.28.66 3.89 3.89 0 0 0 .66-5.26 3.93 3.93 0 0 0-5.28-.66l.52-.4-28.78-35.9 1.71-15.64-1.32-.13-1.85 16.17 29.19 36.43.53-.53z" fill="#3FFFC0"/><path d="M787.17 412.71c.1 6.53-3 12.86-8.2 16.67a23.11 23.11 0 0 0-8.96 13.5l-1.56 6.7-1.56 6.68a23.11 23.11 0 0 0 2.06 16.07 19.74 19.74 0 0 1 0 18.58l-9.67 18.9 1.22.55 9.67-18.9a21.44 21.44 0 0 0-.1-19.82 22.05 22.05 0 0 1-1.87-15.21l1.56-6.69 1.56-6.69a22.05 22.05 0 0 1 8.39-12.82c5.68-4.1 9-10.79 8.86-17.73l-.51-21-1.34-.05.45 21.26zM675.59 422.16l-.13.53 22.31 5.12.27-1.05-22.32-5-.13.4z" fill="#C2FBFF"/><path d="M690.64 401.51l.66.14a3.67 3.67 0 0 0-4.49 2.89 3.66 3.66 0 0 0 2.9 4.47c1.99.53 4.1-.79 4.5-2.9a3.66 3.66 0 0 0-2.9-4.46l.65.13 10.3-44.85 13.34-8.41-.66-1.06-13.87 8.68-10.43 45.37z" fill="#3FFFC0"/><path d="M634.38 659.41a20.4 20.4 0 0 1-18.13 4.04 23.11 23.11 0 0 0-16.13 1.49l-6.2 2.97-6.18 2.97c-5 2.4-9.03 6.53-11.24 11.68A19.74 19.74 0 0 1 562 694.19l-20.79 4.3.33 1.3 20.8-4.3a21.44 21.44 0 0 0 15.38-12.5 22.05 22.05 0 0 1 10.7-10.98l6.18-2.97 6.2-2.98a22.05 22.05 0 0 1 15.25-1.49 21.44 21.44 0 0 0 19.37-4.2l16.05-13.55-.8-1.07-16.3 13.66z" fill="#C2FBFF"/><path d="M784.1 445.46a9.98 9.98 0 0 0-4.62 13.29 10.06 10.06 0 0 0 13.33 4.6 9.98 9.98 0 0 0 4.63-13.28 10.14 10.14 0 0 0-13.34-4.6zm8.05 16.7a8.5 8.5 0 0 1-11.49-4.07 8.44 8.44 0 0 1 4.1-11.44 8.5 8.5 0 0 1 11.49 4.07 8.74 8.74 0 0 1-4.1 11.45z" fill="#3FFFC0"/><path d="M558.06 578.52l-.4.26 9.9 20.52.93-.4-9.9-20.64-.53.26z" fill="#C2FBFF"/><path d="M583.8 577.34l.27.52a3.76 3.76 0 0 0-5.02-1.7 3.73 3.73 0 1 0 3.3 6.7 3.73 3.73 0 0 0 1.72-5l.27.53 41.6-20 14.92 5.14.4-1.19-15.46-5.39-42 20.39zM307.7 680.8a10.1 10.1 0 0 0-13.34 4.6 10.02 10.02 0 0 0 4.63 13.28 10.1 10.1 0 0 0 13.33-4.6c2.51-5 .4-10.92-4.62-13.28zm3.57 12.75a8.7 8.7 0 0 1-11.5 4.08 8.62 8.62 0 0 1-4.09-11.44 8.7 8.7 0 0 1 11.5-4.08c4.35 1.97 6.07 7.1 4.09 11.44zM122.32 445.46a10.1 10.1 0 0 0-13.34 4.6 10.02 10.02 0 0 0 4.62 13.29 10.1 10.1 0 0 0 13.34-4.6c2.5-5 .4-10.92-4.62-13.29zm3.56 12.76a8.7 8.7 0 0 1-11.49 4.08 8.62 8.62 0 0 1-4.1-11.44 8.7 8.7 0 0 1 11.5-4.08c4.36 1.97 6.07 7.1 4.1 11.44zM190.03 155.74a10.1 10.1 0 0 0-13.34 4.6 10.02 10.02 0 0 0 4.63 13.28 10.1 10.1 0 0 0 13.33-4.6c2.51-5 .4-10.91-4.62-13.28zm3.57 12.76a8.7 8.7 0 0 1-11.5 4.07 8.62 8.62 0 0 1-4.09-11.44 8.7 8.7 0 0 1 11.5-4.07c4.35 1.97 6.07 7.1 4.09 11.44z" fill="#3FFFC0"/><path d="M361.68 584.3l-9.9 20.52.92.53 9.9-20.52-.39-.26-.53-.26z" fill="#C2FBFF"/><path d="M378.98 603.77l-.26.52a3.73 3.73 0 0 0-1.72-5 3.73 3.73 0 1 0-3.3 6.7c1.85.93 4.1.14 5.02-1.7l-.26.53 41.6 19.99 5.28 14.86 1.18-.4-5.41-15.38-42.13-20.12z" fill="#3FFFC0"/><path d="M235.17 435.7v-.39l-22.32 5 .14 1.05 22.31-5.13-.13-.53z" fill="#C2FBFF"/><path d="M230.02 461.09a3.93 3.93 0 0 0 2.9-4.48 3.95 3.95 0 0 0-4.48-2.89 3.93 3.93 0 0 0-2.9 4.47c.39 2.1 2.5 3.29 4.48 2.9l-.66.13 10.3 44.84-8.45 13.28 1.06.66 8.71-13.8-10.43-45.38-.53.27z" fill="#3FFFC0"/><path d="M272.94 244.1l.26-.26-17.82-14.34-.66.8 17.96 14.2.26-.4z" fill="#C2FBFF"/><path d="M221.17 292.63l29.19-36.43-.53-.4a3.68 3.68 0 0 0 5.28-.65 3.65 3.65 0 0 0-.66-5.26 3.68 3.68 0 0 0-5.28.66 3.65 3.65 0 0 0 .66 5.26l-.53-.4-28.79 36.03-15.71 1.71.13 1.32 16.24-1.84z" fill="#3FFFC0"/><path d="M413.58 47.76a20.4 20.4 0 0 1 18.1 4.21 23.11 23.11 0 0 0 15.18 5.66h13.74c5.54 0 10.96-1.98 15.18-5.66a19.74 19.74 0 0 1 18.1-4.2l20.6 5.12.26-1.31-20.6-5.13c-6.74-1.71-14 0-19.28 4.6a22.05 22.05 0 0 1-14.4 5.26h-13.73a22.05 22.05 0 0 1-14.4-5.26 21.44 21.44 0 0 0-19.28-4.6l-20.33 5.26.26 1.31 20.6-5.26zM447.39 154.02v-22.75h-1.06v22.75h1.06z" fill="#C2FBFF"/><path d="M423.22 144.03v-.66a3.82 3.82 0 0 0 7.66 0 3.82 3.82 0 0 0-7.66 0v-.66H377l-11.22-11.18-.93.92 11.5 11.44h46.87v.14z" fill="#3FFFC0"/></svg>