<svg viewBox="0 0 1193 848" fill="none" xmlns="http://www.w3.org/2000/svg"><g opacity=".3"><path d="M353.87 15A11.53 11.53 0 0 0 352-1.36 11.67 11.67 0 0 0 335.57.5a11.53 11.53 0 0 0 1.86 16.36A11.69 11.69 0 0 0 353.87 15zM336.8 1.42a10.17 10.17 0 0 1 14.27-1.54 10.04 10.04 0 0 1 1.55 14.2 10.17 10.17 0 0 1-14.27 1.53 10.01 10.01 0 0 1-1.55-14.2zM154.24 353.39a11.62 11.62 0 1 0-5.11-22.69 11.62 11.62 0 1 0 5.11 22.69zm-4.8-21.14a10.12 10.12 0 0 1 12.1 7.56 10.06 10.06 0 0 1-7.6 12.03 10.12 10.12 0 0 1-12.1-7.56 10.06 10.06 0 0 1 7.6-12.03zM299.12 690.08a11.87 11.87 0 0 0-15.67 5.4c-2.8 5.7-.31 12.8 5.43 15.58 5.74 2.78 12.87.31 15.66-5.4a11.7 11.7 0 0 0-5.42-15.58zm4.03 14.8a10.21 10.21 0 0 1-13.5 4.8 10.11 10.11 0 0 1-4.8-13.43c2.48-5.1 8.53-7.1 13.49-4.79 5.12 2.47 7.29 8.5 4.8 13.43zM659.43 802.87a11.7 11.7 0 0 0-5.43 15.59c2.8 5.7 9.77 8.17 15.67 5.4a11.7 11.7 0 0 0 5.43-15.59 11.82 11.82 0 0 0-15.67-5.4zm9.46 19.6a9.99 9.99 0 0 1-13.5-4.79 9.9 9.9 0 0 1 4.82-13.42 9.99 9.99 0 0 1 13.5 4.78 9.94 9.94 0 0 1-4.82 13.43zM972.9 593.02a11.55 11.55 0 0 0 8.85 13.89 11.61 11.61 0 0 0 13.95-8.8 11.55 11.55 0 0 0-8.84-13.89 11.61 11.61 0 0 0-13.96 8.8zm13.65-7.25a10.06 10.06 0 0 1 7.6 12.03 10.12 10.12 0 0 1-12.1 7.56 10.06 10.06 0 0 1-7.6-12.03c1.1-5.4 6.67-8.8 12.1-7.56zM1019.74 220.22a11.55 11.55 0 0 0 1.86-16.35 11.69 11.69 0 0 0-16.44-1.86 11.55 11.55 0 0 0-1.86 16.36 11.8 11.8 0 0 0 16.44 1.85zm-13.65-16.97a10.17 10.17 0 0 1 14.27 1.54 10.04 10.04 0 0 1-1.55 14.2 10.17 10.17 0 0 1-14.27-1.55c-3.56-4.47-2.94-10.8 1.55-14.2zM856.73 16.85A11.55 11.55 0 0 0 858.59.49a11.69 11.69 0 0 0-16.44-1.85A11.55 11.55 0 0 0 840.29 15a11.67 11.67 0 0 0 16.44 1.85zM843.08-.12a10.17 10.17 0 0 1 14.27 1.54 10.04 10.04 0 0 1-1.55 14.2 10.17 10.17 0 0 1-14.27-1.55 10.03 10.03 0 0 1 1.55-14.2zM1039.76 353.39a11.61 11.61 0 0 0 13.96-8.8 11.55 11.55 0 0 0-8.84-13.89 11.61 11.61 0 0 0-13.96 8.8 11.74 11.74 0 0 0 8.84 13.89zm-7.3-13.58c1.25-5.4 6.68-8.8 12.1-7.56a10.06 10.06 0 0 1 7.6 12.03 10.12 10.12 0 0 1-12.1 7.56 10.06 10.06 0 0 1-7.6-12.03zM895.04 690.08a11.7 11.7 0 0 0-5.43 15.58c2.8 5.71 9.77 8.18 15.67 5.4a11.7 11.7 0 0 0 5.43-15.58c-2.95-5.71-9.93-8.18-15.67-5.4zm9.46 19.6a9.99 9.99 0 0 1-13.5-4.8 9.9 9.9 0 0 1 4.82-13.42 9.99 9.99 0 0 1 13.49 4.79 10.25 10.25 0 0 1-4.8 13.42zM534.57 802.87a11.87 11.87 0 0 0-15.67 5.4c-2.79 5.71-.3 12.8 5.43 15.59 5.74 2.77 12.88.3 15.67-5.4 2.94-5.87.46-12.81-5.43-15.59zm4.19 14.97a10.21 10.21 0 0 1-13.5 4.78 10.11 10.11 0 0 1-4.8-13.42c2.48-5.1 8.53-7.1 13.49-4.79 5.12 2.32 7.13 8.34 4.8 13.43zM207.3 584.22a11.62 11.62 0 1 0 5.11 22.69 11.62 11.62 0 1 0-5.12-22.69zm4.8 21.14a10.12 10.12 0 0 1-12.1-7.56 10.06 10.06 0 0 1 7.6-12.03 10.12 10.12 0 0 1 12.1 7.56 10.06 10.06 0 0 1-7.6 12.03zM190.85 218.37a11.53 11.53 0 0 0-1.86-16.36 11.67 11.67 0 0 0-16.44 1.86 11.53 11.53 0 0 0 1.86 16.35 11.81 11.81 0 0 0 16.44-1.85zm-15.51.62a10.04 10.04 0 0 1-1.55-14.2 10.17 10.17 0 0 1 14.27-1.54 10.04 10.04 0 0 1 1.55 14.2c-3.41 4.31-9.77 4.93-14.27 1.54z" fill="#3FFFC0"/></g><path d="M155.95 311.72a3.9 3.9 0 0 0-2.95 4.63 3.9 3.9 0 0 0 7.6-1.7c-.62-2.16-2.63-3.39-4.65-2.93zm1.4 5.87a2.3 2.3 0 1 1-1.09-4.47c1.24-.32 2.48.45 2.8 1.69.3 1.23-.63 2.47-1.71 2.78zM277.87 676.5a3.79 3.79 0 0 0-5.12 1.85 3.75 3.75 0 0 0 1.86 5.09c1.86.93 4.19.15 5.12-1.85a3.75 3.75 0 0 0-1.86-5.1zm.46 4.47a2.48 2.48 0 0 1-3.1 1.08 2.45 2.45 0 0 1-1.09-3.08c.47-1.24 1.86-1.55 3.1-1.08 1.1.61 1.56 2 1.1 3.08zM635.7 810.9a4.03 4.03 0 0 0-1.86 5.09 4.07 4.07 0 0 0 5.12 1.85 4.03 4.03 0 0 0 1.86-5.1 4.07 4.07 0 0 0-5.12-1.84zm2.64 5.55c-1.09.62-2.49 0-3.1-1.08-.63-1.08 0-2.47 1.08-3.09 1.09-.61 2.48 0 3.1 1.08.47 1.24 0 2.47-1.08 3.1zM968.87 613.7a3.88 3.88 0 1 0-1.7 7.56c2.01.46 4.03-.77 4.65-2.94a3.9 3.9 0 0 0-2.95-4.62zm1.4 4.16a2.31 2.31 0 0 1-4.5-1.08 2.31 2.31 0 0 1 4.5 1.08zM1021.76 240.28c1.7-1.23 1.86-3.7.62-5.4-1.24-1.7-3.72-1.85-5.43-.62-1.7 1.24-1.86 3.7-.62 5.4a3.94 3.94 0 0 0 5.43.62zm-3.72-4.78a2.41 2.41 0 0 1 3.26.3c.77.93.62 2.47-.31 3.25-.93.77-2.48.61-3.26-.31-.93-1.08-.78-2.47.31-3.24zM1036.5 319.13c2.01.46 4.03-.77 4.65-2.93.47-2-.78-4.17-2.95-4.63a3.88 3.88 0 0 0-4.65 2.93c-.47 2 .93 4.17 2.95 4.63zm-1.4-4.32a2.31 2.31 0 0 1 4.5 1.08 2.31 2.31 0 0 1-4.5-1.08zM916.13 676.5a4.03 4.03 0 0 0-1.86 5.09 4.07 4.07 0 0 0 5.12 1.85 4.03 4.03 0 0 0 1.86-5.1 3.87 3.87 0 0 0-5.12-1.84zm2.64 5.55c-1.08.62-2.48 0-3.1-1.08-.62-1.08 0-2.47 1.09-3.08 1.08-.62 2.48 0 3.1 1.08.62 1.08.15 2.46-1.09 3.08zM558.46 810.9a3.79 3.79 0 0 0-5.12 1.85 3.75 3.75 0 0 0 1.86 5.09c1.86.93 4.19.15 5.12-1.85.77-1.85 0-4.17-1.86-5.1zm.46 4.47a2.48 2.48 0 0 1-3.1 1.08 2.45 2.45 0 0 1-1.09-3.09 2.48 2.48 0 0 1 3.1-1.08 2.5 2.5 0 0 1 1.1 3.1zM225.28 613.7a3.9 3.9 0 0 0-2.94 4.62c.46 2.01 2.48 3.4 4.65 2.94a3.9 3.9 0 0 0 2.95-4.63c-.62-2.16-2.64-3.4-4.66-2.93zm1.24 5.86a2.3 2.3 0 1 1-1.09-4.47 2.3 2.3 0 1 1 1.09 4.47zM171.77 234.88a3.88 3.88 0 0 0 .62 5.4 3.93 3.93 0 0 0 5.43-.62 3.88 3.88 0 0 0-.62-5.4 4.06 4.06 0 0 0-5.43.62zm4.65 3.86c-.77.92-2.17 1.08-3.25.3-.93-.77-1.09-2.15-.31-3.23.77-.93 2.17-1.08 3.25-.31.93.77 1.09 2.16.31 3.24z" fill="#C2FBFF" fill-opacity=".3"/><g filter="url(#filter0_f)"><path d="M80.84 24.48a12.97 12.97 0 1 0-.01-25.95 12.97 12.97 0 0 0 .01 25.95zM145.49 99.25a5.03 5.03 0 1 0 0-10.07 5.03 5.03 0 0 0 0 10.07zM16.39 168.21a12.4 12.4 0 1 0-.01-24.78 12.4 12.4 0 0 0 0 24.78zM1111.97 24.48a12.97 12.97 0 1 0-.01-25.95 12.97 12.97 0 0 0 0 25.95zM1047.51 99.25a5.03 5.03 0 1 0 0-10.07 5.03 5.03 0 0 0 0 10.07zM1176.62 168.21a12.4 12.4 0 1 0-.01-24.78 12.4 12.4 0 0 0 0 24.78zM1111.9 780.31a12.97 12.97 0 1 0-.01-25.94 12.97 12.97 0 0 0 0 25.94zM1047.44 689.85a5.03 5.03 0 1 0 0-10.07 5.03 5.03 0 0 0 0 10.07zM1176.54 635.6a12.4 12.4 0 1 0-.01-24.78 12.4 12.4 0 0 0 0 24.79zM80.84 780.31a12.97 12.97 0 1 0-.01-25.94 12.97 12.97 0 0 0 .01 25.94zM145.49 689.85a5.03 5.03 0 1 0 0-10.07 5.03 5.03 0 0 0 0 10.07zM16.39 635.6a12.4 12.4 0 1 0-.01-24.78 12.4 12.4 0 0 0 0 24.79z" fill="#54C3E9" fill-opacity=".2"/></g><path d="M315.52 36.26a9.64 9.64 0 0 0-1.45-13.5 9.64 9.64 0 0 0-13.5 1.44 9.64 9.64 0 0 0 1.45 13.5 9.66 9.66 0 0 0 13.5-1.44zM378.05 69.54a6.4 6.4 0 1 0-8.04 9.96 6.4 6.4 0 1 0 8.04-9.96zM412.48 205.43a6.43 6.43 0 1 0-4.51-12.04 6.43 6.43 0 0 0 4.51 12.04zM325.16 135.77a3.26 3.26 0 0 0-4.5.48c-1.12 1.29-.8 3.38.49 4.5 1.28 1.13 3.37.8 4.5-.48 1.12-1.45.96-3.38-.49-4.5zM134.5 380.92a9.61 9.61 0 0 0-7.23 11.58 9.61 9.61 0 0 0 11.58 7.23 9.61 9.61 0 0 0 7.23-11.57c-1.28-5.3-6.43-8.52-11.57-7.24zM211.03 360.03a6.34 6.34 0 0 0-4.82 7.71 6.34 6.34 0 0 0 7.71 4.82 6.34 6.34 0 0 0 4.82-7.71 6.46 6.46 0 0 0-7.71-4.82zM338.83 414.52a6.34 6.34 0 0 0-7.72-4.82 6.34 6.34 0 0 0-4.82 7.71 6.34 6.34 0 0 0 7.72 4.83 6.42 6.42 0 0 0 4.82-7.72zM229.84 442.65a3.08 3.08 0 0 0-2.41 3.86 3.08 3.08 0 0 0 3.85 2.41 3.08 3.08 0 0 0 2.41-3.85 3.08 3.08 0 0 0-3.85-2.42zM314.54 757.83a9.65 9.65 0 1 0-6.38-18.21 9.65 9.65 0 0 0 6.38 18.2zM339.95 680.9a6.43 6.43 0 1 0 0-12.86 6.43 6.43 0 0 0 0 12.86zM459.23 614.34a6.28 6.28 0 0 0-3.05-8.52 6.28 6.28 0 0 0-8.52 3.06 6.28 6.28 0 0 0 3.05 8.52 6.41 6.41 0 0 0 8.52-3.06zM414.7 706.94a3.22 3.22 0 0 0-4.34 1.45 3.22 3.22 0 0 0 1.45 4.34c1.6.8 3.54.16 4.34-1.45.8-1.6.16-3.54-1.45-4.34zM709.6 838.86a9.65 9.65 0 1 0-18.21-6.37 9.65 9.65 0 0 0 18.2 6.37zM664.42 771.91a6.43 6.43 0 1 0-8.3-9.83 6.43 6.43 0 0 0 8.3 9.83zM685.7 644.06a6.43 6.43 0 1 0-7.6-10.37 6.43 6.43 0 0 0 7.6 10.37zM732.2 728.8a3.22 3.22 0 0 0-1.45 4.34 3.22 3.22 0 0 0 4.34 1.45 3.22 3.22 0 0 0 1.45-4.34 3.22 3.22 0 0 0-4.34-1.45zM1013.2 576.24a9.82 9.82 0 0 0-11.58 7.24 9.82 9.82 0 0 0 7.24 11.57 9.82 9.82 0 0 0 11.57-7.23 9.5 9.5 0 0 0-7.23-11.58zM933.78 568.04a6.46 6.46 0 0 0-7.71 4.83 6.54 6.54 0 0 0 4.82 7.71 6.46 6.46 0 0 0 7.72-4.82 6.42 6.42 0 0 0-4.83-7.72zM851.96 478.99a6.46 6.46 0 0 0-4.82-7.72 6.54 6.54 0 0 0-7.72 4.82 6.46 6.46 0 0 0 4.82 7.72 6.54 6.54 0 0 0 7.72-4.82zM951.14 491.69a3.27 3.27 0 0 0-3.85 2.4 3.27 3.27 0 0 0 2.4 3.86 3.27 3.27 0 0 0 3.87-2.4c.48-1.77-.65-3.38-2.42-3.86zM1015.29 194.45a9.68 9.68 0 0 0 1.6-13.5 9.68 9.68 0 0 0-13.5-1.62c-4.18 3.22-4.82 9.33-1.6 13.5 3.2 4.19 9.32 4.83 13.5 1.62zM947.29 236.24a6.4 6.4 0 1 0 8.03 9.97 6.4 6.4 0 0 0 .97-9 6.55 6.55 0 0 0-9-.97zM817.56 243.8a6.4 6.4 0 1 0 8.04 9.96 6.4 6.4 0 1 0-8.04-9.96zM898.58 175.15c-1.45 1.13-1.61 3.06-.48 4.5 1.12 1.45 3.05 1.61 4.5.49 1.44-1.13 1.6-3.06.48-4.5a3.14 3.14 0 0 0-4.5-.49zM702.78 25.33a6.43 6.43 0 1 0 0-12.86 6.43 6.43 0 0 0 0 12.86zM627.7 131.43a6.43 6.43 0 1 0 0-12.86 6.43 6.43 0 0 0 0 12.86zM621.28 22.11a3.22 3.22 0 1 0 0-6.43 3.22 3.22 0 0 0 0 6.43zM878.32 22.6a9.52 9.52 0 0 0-1.44 13.5 9.52 9.52 0 0 0 13.5 1.45 9.52 9.52 0 0 0 1.45-13.5c-3.22-4.03-9.33-4.67-13.5-1.45zM822.38 79.66a6.4 6.4 0 1 0-8.04-9.96 6.4 6.4 0 0 0-.96 9c2.09 2.73 6.1 3.05 9 .96zM788.6 199.84a6.43 6.43 0 1 0-12.83-.94 6.43 6.43 0 0 0 12.82.94zM871.57 136.25c-1.12-1.45-3.05-1.6-4.5-.48-1.45 1.12-1.6 3.05-.48 4.5 1.12 1.45 3.05 1.6 4.5.48 1.45-1.12 1.6-3.05.48-4.5zM1057.89 380.92a9.82 9.82 0 0 0-11.58 7.24 9.82 9.82 0 0 0 7.24 11.57 9.82 9.82 0 0 0 11.57-7.23 9.66 9.66 0 0 0-7.23-11.58zM981.2 360.03a6.46 6.46 0 0 0-7.71 4.82 6.46 6.46 0 0 0 4.82 7.71 6.46 6.46 0 0 0 7.72-4.82 6.42 6.42 0 0 0-4.82-7.71zM861.12 409.54a6.46 6.46 0 0 0-7.71 4.82 6.54 6.54 0 0 0 4.82 7.72 6.46 6.46 0 0 0 7.71-4.83 6.42 6.42 0 0 0-4.82-7.71zM961.75 448.92a3.22 3.22 0 1 0 0-6.43 3.22 3.22 0 0 0 0 6.43zM890.15 751.95a9.65 9.65 0 1 0-18.2-6.37 9.65 9.65 0 0 0 18.2 6.37zM852.44 680.9a6.43 6.43 0 1 0 0-12.86 6.43 6.43 0 0 0 0 12.86zM736.05 605.66a6.46 6.46 0 0 0-3.05 8.52 6.46 6.46 0 0 0 8.52 3.06 6.41 6.41 0 0 0 3.05-8.52 6.41 6.41 0 0 0-8.52-3.06zM777.69 706.94a3.22 3.22 0 0 0-1.45 4.34 3.22 3.22 0 0 0 4.34 1.45 3.22 3.22 0 0 0 1.45-4.34c-.8-1.45-2.73-2.26-4.34-1.45zM495.06 844.81a9.65 9.65 0 1 0-6.37-18.2 9.65 9.65 0 0 0 6.37 18.2zM536.91 771.2a6.43 6.43 0 1 0-9.82-8.3 6.43 6.43 0 0 0 9.82 8.3zM515.7 642.75a6.43 6.43 0 1 0-10.36-7.61 6.43 6.43 0 0 0 10.36 7.61zM460.04 728.8a3.22 3.22 0 0 0-4.34 1.45 3.22 3.22 0 0 0 1.44 4.34c1.61.8 3.54.16 4.34-1.45.8-1.6.16-3.53-1.44-4.34zM179.04 576.24a9.61 9.61 0 0 0-7.24 11.58c1.29 5.14 6.43 8.52 11.58 7.23a9.61 9.61 0 0 0 7.23-11.57c-1.12-5.15-6.43-8.36-11.57-7.24zM258.45 568.04a6.34 6.34 0 0 0-4.82 7.72 6.34 6.34 0 0 0 7.71 4.82 6.34 6.34 0 0 0 4.83-7.71 6.34 6.34 0 0 0-7.72-4.83zM345.26 471.27a6.34 6.34 0 0 0-4.82 7.71 6.34 6.34 0 0 0 7.71 4.83 6.34 6.34 0 0 0 4.82-7.72 6.34 6.34 0 0 0-7.71-4.82zM241.09 491.68a3.08 3.08 0 0 0-2.41 3.86 3.08 3.08 0 0 0 3.86 2.41 3.08 3.08 0 0 0 2.4-3.85c-.31-1.61-2.08-2.74-3.85-2.42zM192.6 188.3a9.65 9.65 0 1 0-19.07-2.95 9.65 9.65 0 0 0 19.07 2.95zM245.1 236.24a6.4 6.4 0 1 0-8.03 9.97 6.4 6.4 0 1 0 8.04-9.97zM374.68 243.8a6.4 6.4 0 1 0-8.04 9.96 6.4 6.4 0 0 0 9-.96 6.13 6.13 0 0 0-.96-9zM293.82 175.15a3.26 3.26 0 0 0-4.5.49c-1.13 1.28-.8 3.37.48 4.5 1.28 1.12 3.37.8 4.5-.48 1.12-1.45.96-3.38-.48-4.5zM489.46 25.33a6.43 6.43 0 1 0 0-12.86 6.43 6.43 0 0 0 0 12.86zM564.53 131.43a6.43 6.43 0 1 0 0-12.86 6.43 6.43 0 0 0 0 12.86zM570.96 22.11a3.22 3.22 0 1 0 0-6.43 3.22 3.22 0 0 0 0 6.43z" fill="#3FFFC0" fill-opacity=".3"/><defs><filter id="filter0_f" x="0" y="-5.48" width="1193" height="789.79" filterUnits="userSpaceOnUse" colorInterpolationFilters="sRGB"><feFlood floodOpacity="0" result="BackgroundImageFix"/><feBlend in="SourceGraphic" in2="BackgroundImageFix" result="shape"/><feGaussianBlur stdDeviation="2" result="effect1_foregroundBlur"/></filter></defs></svg>