<svg viewBox="0 0 111 26" fill="none" xmlns="http://www.w3.org/2000/svg"><path d="M1.57 15.64a5.57 5.57 0 0 1 2.4-2.54 7.02 7.02 0 0 1 3.34-.98l-.07 1.56c-1.02 0-1.96.22-2.82.67a5.12 5.12 0 0 0-2.05 1.83 4.64 4.64 0 0 0-.73 2.54v7H0V12.5h1.43l.14 3.15zm8.46 3.39A6.73 6.73 0 0 1 13.62 13a7.35 7.35 0 0 1 3.69-.95c1.34 0 2.57.32 3.69.95a6.63 6.63 0 0 1 2.6 2.54c.64 1.06.95 2.22.95 3.49a6.95 6.95 0 0 1-3.59 6.06c-1.09.6-2.32.91-3.69.91s-2.6-.3-3.72-.88a6.77 6.77 0 0 1-3.52-6.1zm1.64.03c0 1.02.24 1.95.73 2.81a5.64 5.64 0 0 0 10.48-2.81 5.4 5.4 0 0 0-.77-2.81 5.53 5.53 0 0 0-7.7-2 5.63 5.63 0 0 0-2.74 4.81zm28.25 5.38a7.46 7.46 0 0 1-4.6 1.56c-1.36 0-2.6-.3-3.72-.88a6.85 6.85 0 0 1-2.58-2.47 6.86 6.86 0 0 1-.94-3.56 6.68 6.68 0 0 1 3.56-5.99c1.09-.6 2.27-.91 3.55-.91a7.4 7.4 0 0 1 4.77 1.55l-.87 1.09a6.15 6.15 0 0 0-3.8-1.32 5.53 5.53 0 0 0-5.57 5.58c0 1.02.24 1.96.73 2.81a5.73 5.73 0 0 0 4.98 2.75c1.3 0 2.5-.4 3.59-1.19l.9.98zm8.48-5.96l-2.3 1.97v5.28h-1.63V0h1.63v18.72l7.63-6.5 1 .85-5.21 4.47 6.05 8.19h-1.91l-5.26-7.25zM63.38 26c-.88 0-1.74-.15-2.58-.44a4.54 4.54 0 0 1-1.98-1.35l.76-1.05a5.2 5.2 0 0 0 3.69 1.56c.88 0 1.63-.2 2.23-.58.6-.4.9-1.03.9-1.86 0-.6-.16-1.05-.48-1.4-.33-.35-.7-.61-1.11-.77a23.4 23.4 0 0 0-2.02-.71 7.13 7.13 0 0 1-2.55-1.36 2.98 2.98 0 0 1-.87-2.23c0-1.08.39-1.95 1.15-2.6a4.43 4.43 0 0 1 3-1.02c1.67 0 3.03.5 4.07 1.49l-.73 1.11a2.94 2.94 0 0 0-1.4-.98 5.58 5.58 0 0 0-1.7-.34c-.7 0-1.33.2-1.91.58-.56.36-.84.88-.84 1.56 0 .7.26 1.23.77 1.59.5.34 1.28.69 2.33 1.05 1.28.4 2.25.87 2.92 1.39.68.5 1.01 1.26 1.01 2.3 0 1.22-.4 2.2-1.22 2.94-.78.75-1.93 1.12-3.44 1.12zM76.02 6.67v6h4.21v1.28h-4.2v11.78h-1.68V13.95h-2.89v-1.29h2.89v-6h1.67zm21.56 5.82v13.24h-1.64v-2.81a6.53 6.53 0 0 1-2.44 2.2c-1.09.59-2.27.88-3.55.88a6.74 6.74 0 0 1-6.06-3.28 7.2 7.2 0 0 1-.9-3.63 6.47 6.47 0 0 1 3.59-6.16 8.5 8.5 0 0 1 3.82-.84c1.12 0 2.19.3 3.2.91 1.03.6 1.8 1.4 2.34 2.37l.17-2.88h1.47zM90.3 24.65c1.53 0 2.83-.47 3.9-1.4a4.94 4.94 0 0 0 1.74-3.55v-1.9a5.36 5.36 0 0 0-2.02-3.1 5.77 5.77 0 0 0-3.65-1.26c-1.05 0-2 .24-2.86.71a5.14 5.14 0 0 0-2.05 1.96c-.49.84-.73 1.81-.73 2.92 0 1.01.25 1.95.76 2.8.51.86 1.2 1.55 2.06 2.07.88.5 1.83.75 2.85.75zm16.49-17.98v6H111v1.28h-4.21v11.78h-1.67V13.95h-2.9v-1.29h2.9v-6h1.67z" fill="#fff"/></svg>