<svg viewBox="0 0 644 631" fill="none" xmlns="http://www.w3.org/2000/svg"><path d="M103.96 112.08a13.64 13.64 0 0 0 19.02-2.1c4.75-5.79 3.7-14.2-2.11-18.94a13.64 13.64 0 0 0-19.02 2.1 13.48 13.48 0 0 0 2.11 18.94zM44.58 347.64a13.38 13.38 0 0 0-4.24-18.5 13.5 13.5 0 0 0-18.57 4.22 13.38 13.38 0 0 0 4.24 18.5 13.5 13.5 0 0 0 18.57-4.22zM171.31 564.46c7.44 0 13.47-6 13.47-13.42 0-7.4-6.03-13.4-13.47-13.4s-13.47 6-13.47 13.4c0 7.41 6.03 13.42 13.47 13.42z" fill="#EAFEFF"/><path d="M438.86 543.55l115.95-55.63L583.47 363l.13-.4.27-.91 28.65-124.93-80.29-99.95-81.08-101.12H192.58L111.49 136.8 31.33 237.01 60 361.94l.26.92.13.4 28.66 124.93L205 543.8l117.13 56.15 116.74-56.41zM211.33 532.9l-111.6-53.53-27.6-120.32-27.2-119.02 76.47-95.47 77.25-96.52h246.42l77.26 96.52 76.46 95.47-27.34 119.02-27.6 120.32-111.59 53.53-110.4 53-110.53-53z" fill="#DFFDFF"/><path d="M434.22 582.08a13.38 13.38 0 0 0-4.02-18.54 13.5 13.5 0 0 0-18.62 4 13.38 13.38 0 0 0 4.02 18.54 13.5 13.5 0 0 0 18.62-4zM598.26 407.18c7.44 0 13.47-6 13.47-13.42 0-7.4-6.03-13.4-13.47-13.4s-13.47 6-13.47 13.4c0 7.41 6.03 13.42 13.47 13.42zM578.99 145.92c.83-7.36-4.49-14-11.88-14.83a13.46 13.46 0 0 0-14.9 11.82c-.83 7.37 4.49 14 11.88 14.84 7.4.83 14.06-4.47 14.9-11.83zM349.33 27.79c7.44 0 13.47-6.01 13.47-13.42 0-7.4-6.03-13.41-13.47-13.41s-13.47 6-13.47 13.41 6.03 13.42 13.47 13.42zM520.74 109.98a13.62 13.62 0 0 0 19.02 2.1c5.94-4.6 6.73-13.02 2.11-18.94-4.62-5.91-13.07-6.7-19.02-2.1a13.5 13.5 0 0 0-2.1 18.94zM617.67 351.85a13.38 13.38 0 0 0 4.24-18.5 13.5 13.5 0 0 0-18.57-4.21 13.38 13.38 0 0 0-4.24 18.49 13.5 13.5 0 0 0 18.57 4.22zM472.28 564.46c7.44 0 13.47-6 13.47-13.42 0-7.4-6.03-13.4-13.47-13.4s-13.47 6-13.47 13.4c0 7.41 6.03 13.42 13.47 13.42zM223.44 588a13.42 13.42 0 1 0-5.24-26.32 13.42 13.42 0 1 0 5.24 26.32zM45.46 407.18c7.44 0 13.47-6 13.47-13.42 0-7.4-6.03-13.4-13.47-13.4s-13.47 6-13.47 13.4c0 7.41 6.03 13.42 13.47 13.42zM79.73 157.74a13.43 13.43 0 0 0 11.88-14.83 13.46 13.46 0 0 0-14.9-11.82 13.43 13.43 0 0 0-11.87 14.83 13.46 13.46 0 0 0 14.9 11.82zM294.4 27.79c7.43 0 13.46-6.01 13.46-13.42 0-7.4-6.03-13.41-13.47-13.41s-13.47 6-13.47 13.41 6.03 13.42 13.47 13.42z" fill="#EAFEFF"/><path d="M23.67 271.46l-8.71-38.26 24.56-30.78 5.41-6.7 26.02-32.48-2.64-1.98-25.89 32.35-7.79-6.18L.7 229.91l12.15 53 9.64-2.24 9.25 40.5 3.17-.79-9.25-40.37-1.98-8.55zM156.65 537.24l-37.5-18.02-7.8-3.81-35.65-16.97-8.71-38.4-1.98-8.41-9.25-40.37-3.3.65 9.38 40.37-9.78 2.24 12.15 53 49.26 23.54 4.23-8.95 37.5 18.02 1.45-2.9zM365.3 595.63l-7.92 3.68-35.52 17.1-35.66-17.1-7.79-3.68-37.5-18.02-1.45 2.9 37.5 18-4.23 8.95L321.86 631 371 607.46l-4.36-8.94 37.5-18.02-1.32-2.9-37.5 18.03zM581.88 452.28l9.25-40.37-3.17-.65-9.25 40.37-1.98 8.41-8.84 38.4-35.53 16.97-7.79 3.81-37.5 18.02 1.45 2.89 37.5-18.02 4.23 8.95 49.12-23.54 12.15-53-9.64-2.24zM368.61 20.55H458.41l24.7 30.77 5.4 6.71 25.9 32.35 2.63-1.97-26.01-32.48 7.79-6.05L464.75 7.4H410.2v9.86h-41.6v3.3zM643.03 229.9l-34.07-42.47-7.66 6.18-26.02-32.35-2.5 1.98 25.88 32.48 5.41 6.7 24.7 30.78-8.85 38.26-1.85 8.55-9.38 40.37 3.3.8 9.25-40.51 9.64 2.23 12.15-53zM178.84 7.4L144.9 49.88l7.8 6.05-26.02 32.48 2.64 1.97 25.88-32.35 5.42-6.7 24.7-30.78H275.1v-3.29h-41.73V7.4h-54.54zM321.6 547.76l.26-.14.27.14v-.13l95.2-45.64 96.41-46.29.13.14v-.27l.27-.13-.13-.13 23.77-103.89 23.5-102.7h.14l-.14-.14v-.26h-.13l-66.69-83.37-65.9-82.33.14-.13h-.27l-.13-.13-.13.13H215.29l-.13-.13-.13.13h-.27l.13.13-65.9 82.33-66.68 83.37h-.14v.26l-.13.13h.13l23.51 102.71 23.77 103.89-.13.13.26.13v.27l.14-.14 96.4 46.3 95.21 45.63.27.13zm0-6.84l-92.7-44.45-93.77-44.98-.26-.39-22.98-100.47L88.9 250.3l.13-.52 64.97-81.01 64.05-80.09.53-.26h206.67l.53.26 64.05 80.09 64.97 81 .13.53-22.97 100.34-22.98 100.47-.27.4-94.02 44.97-92.57 44.45h-.53z" fill="#C2FBFF"/></svg>