<svg xmlns="http://www.w3.org/2000/svg" xmlns:xlink="http://www.w3.org/1999/xlink" viewBox="0 0 544.4 800"><defs><linearGradient id="a" x1="-477.05" y1="784.4" x2="-476.05" y2="784.4" gradientTransform="matrix(0, 355.18, 531.79, 0, -417009.74, 169883.11)" gradientUnits="userSpaceOnUse"><stop offset="0" stop-color="#3fffc0"/><stop offset="1" stop-color="#8c00ff"/></linearGradient><linearGradient id="b" x1="-473.44" y1="783.62" x2="-472.44" y2="783.62" gradientTransform="matrix(133.84, 0, 0, -134.2, 63507.78, 105558.83)" gradientUnits="userSpaceOnUse"><stop offset="0" stop-color="#8c00ff"/><stop offset="1" stop-color="#8c00ff"/></linearGradient><linearGradient id="c" x1="-473.44" y1="783.62" x2="-472.44" y2="783.62" gradientTransform="matrix(133.84, 0, 0, -134.2, 63507.78, 105479.89)" gradientUnits="userSpaceOnUse"><stop offset="0" stop-color="aqua" stop-opacity="0"/><stop offset="1" stop-color="#8c00ff"/></linearGradient><linearGradient id="d" x1="-469.87" y1="783.74" x2="-468.87" y2="783.74" gradientTransform="matrix(66.92, 0, 0, -67.1, 31653.34, 52922.65)" xlink:href="#c"/><linearGradient id="e" x1="-469.87" y1="783.74" x2="-468.87" y2="783.74" gradientTransform="matrix(66.92, 0, 0, -67.1, 31586.42, 52922.65)" xlink:href="#c"/><linearGradient id="f" x1="-476.82" y1="778.15" x2="-475.82" y2="778.15" gradientTransform="matrix(0, -89.47, -89.23, 0, 69642.13, -42301.16)" xlink:href="#b"/><linearGradient id="g" x1="-476.87" y1="779.63" x2="-475.87" y2="779.63" gradientTransform="matrix(0, -123.67, -123.34, 0, 96401.64, -58537.29)" xlink:href="#c"/><linearGradient id="h" x1="-476.87" y1="779.63" x2="-475.87" y2="779.63" gradientTransform="matrix(0, -123.67, -123.34, 0, 96334.72, -58537.29)" xlink:href="#c"/><linearGradient id="i" x1="-472.28" y1="783.66" x2="-471.28" y2="783.66" gradientTransform="matrix(101.01, 0, 0, -101.32, 47762.49, 79996.95)" xlink:href="#b"/><linearGradient id="j" x1="-472.28" y1="783.66" x2="-471.28" y2="783.66" gradientTransform="matrix(101.01, 0, 0, -101.32, 47762.49, 79937.35)" xlink:href="#c"/><linearGradient id="k" x1="-467.56" y1="783.82" x2="-466.56" y2="783.82" gradientTransform="matrix(50.51, 0, 0, -50.66, 23721.3, 40256.67)" xlink:href="#c"/><linearGradient id="l" x1="-467.56" y1="783.82" x2="-466.56" y2="783.82" gradientTransform="matrix(50.51, 0, 0, -50.66, 23670.8, 40256.67)" xlink:href="#c"/><linearGradient id="m" x1="-476.76" y1="776.42" x2="-475.76" y2="776.42" gradientTransform="matrix(0, -67.55, -67.34, 0, 52392.1, -31637.33)" xlink:href="#b"/><linearGradient id="n" x1="-476.83" y1="778.38" x2="-475.83" y2="778.38" gradientTransform="matrix(0, -93.37, -93.09, 0, 72587.93, -43895.59)" xlink:href="#c"/><linearGradient id="o" x1="-476.83" y1="778.38" x2="-475.83" y2="778.38" gradientTransform="matrix(0, -93.37, -93.09, 0, 72537.42, -43895.59)" xlink:href="#c"/><linearGradient id="p" x1="-472.07" y1="783.67" x2="-471.07" y2="783.67" gradientTransform="matrix(96.8, 0, 0, -96.63, 45757.23, 76181.92)" gradientUnits="userSpaceOnUse"><stop offset="0" stop-color="aqua" stop-opacity="0"/><stop offset="1" stop-color="aqua"/></linearGradient><linearGradient id="q" x1="-472.07" y1="783.67" x2="-471.07" y2="783.67" gradientTransform="matrix(96.8, 0, 0, -96.63, 45757.23, 76125.08)" xlink:href="#p"/><linearGradient id="r" x1="-467.15" y1="783.83" x2="-466.15" y2="783.83" gradientTransform="matrix(48.4, 0, 0, -48.31, 22717.92, 38283.84)" xlink:href="#p"/><linearGradient id="s" x1="-467.15" y1="783.83" x2="-466.15" y2="783.83" gradientTransform="matrix(48.4, 0, 0, -48.31, 22669.52, 38283.84)" xlink:href="#p"/><linearGradient id="t" x1="-476.75" y1="776.11" x2="-475.75" y2="776.11" gradientTransform="matrix(0, -64.42, -64.54, 0, 50194.09, -30277.22)" xlink:href="#p"/><linearGradient id="u" x1="-476.82" y1="778.15" x2="-475.82" y2="778.15" gradientTransform="matrix(0, -89.04, -89.21, 0, 69548.41, -41967.28)" xlink:href="#p"/><linearGradient id="v" x1="-476.82" y1="778.15" x2="-475.82" y2="778.15" gradientTransform="matrix(0, -89.04, -89.21, 0, 69500.01, -41967.28)" xlink:href="#p"/><linearGradient id="w" x1="-473.48" y1="783.62" x2="-472.48" y2="783.62" gradientTransform="matrix(135.52, 0, 0, -135.55, 64329.09, 106741.22)" xlink:href="#p"/><linearGradient id="x" x1="-473.48" y1="783.62" x2="-472.48" y2="783.62" gradientTransform="matrix(135.52, 0, 0, -135.55, 64329.09, 106661.49)" xlink:href="#p"/><linearGradient id="y" x1="-469.96" y1="783.74" x2="-468.96" y2="783.74" gradientTransform="matrix(67.76, 0, 0, -67.77, 32074.24, 53578.62)" xlink:href="#p"/><linearGradient id="z" x1="-469.96" y1="783.74" x2="-468.96" y2="783.74" gradientTransform="matrix(67.76, 0, 0, -67.77, 32006.48, 53578.62)" xlink:href="#p"/><linearGradient id="aa" x1="-476.82" y1="778.22" x2="-475.82" y2="778.22" gradientTransform="matrix(0, -90.36, -90.35, 0, 70540.81, -42597.3)" xlink:href="#p"/><linearGradient id="ab" x1="-476.87" y1="779.68" x2="-475.87" y2="779.68" gradientTransform="matrix(0, -124.91, -124.89, 0, 97636.63, -58995.97)" xlink:href="#p"/><linearGradient id="ac" x1="-476.87" y1="779.68" x2="-475.87" y2="779.68" gradientTransform="matrix(0, -124.91, -124.89, 0, 97568.87, -58995.97)" xlink:href="#p"/><linearGradient id="ad" x1="-475.15" y1="783.56" x2="-474.15" y2="783.56" gradientTransform="matrix(257.58, 0, 0, -258.34, 122306.17, 202665.8)" gradientUnits="userSpaceOnUse"><stop offset="0" stop-color="aqua" stop-opacity="0"/><stop offset="1" stop-color="#3fffc0"/></linearGradient><linearGradient id="ae" x1="-475.15" y1="783.56" x2="-474.15" y2="783.56" gradientTransform="matrix(257.58, 0, 0, -258.34, 122306.17, 202513.84)" xlink:href="#ad"/><linearGradient id="af" x1="-473.3" y1="783.62" x2="-472.3" y2="783.62" gradientTransform="matrix(128.79, 0, 0, -129.17, 61001.66, 101340.52)" xlink:href="#ad"/><linearGradient id="ag" x1="-473.3" y1="783.62" x2="-472.3" y2="783.62" gradientTransform="matrix(128.79, 0, 0, -129.17, 60872.86, 101340.52)" xlink:href="#ad"/><linearGradient id="ah" x1="-476.91" y1="780.72" x2="-475.91" y2="780.72" gradientTransform="matrix(0, -172.23, -171.72, 0, 134112.54, -81965.01)" xlink:href="#ad"/><linearGradient id="ai" x1="-476.93" y1="781.49" x2="-475.93" y2="781.49" gradientTransform="matrix(0, -238.07, -237.37, 0, 185611.36, -113219.21)" xlink:href="#ad"/><linearGradient id="aj" x1="-476.93" y1="781.49" x2="-475.93" y2="781.49" gradientTransform="matrix(0, -238.07, -237.37, 0, 185482.57, -113219.21)" xlink:href="#ad"/><linearGradient id="ak" x1="-472.35" y1="783.66" x2="-471.35" y2="783.66" gradientTransform="matrix(102.52, 0, 0, -102.32, 48701.71, 80644.39)" gradientUnits="userSpaceOnUse"><stop offset="0" stop-color="#80ff81"/><stop offset="1" stop-color="aqua"/></linearGradient><linearGradient id="al" x1="-472.35" y1="783.66" x2="-471.35" y2="783.66" gradientTransform="matrix(102.52, 0, 0, -102.32, 48701.71, 80584.21)" gradientUnits="userSpaceOnUse"><stop offset="0" stop-color="aqua" stop-opacity="0"/><stop offset="1" stop-color="#80ff81"/></linearGradient><linearGradient id="am" x1="-467.69" y1="783.81" x2="-466.69" y2="783.81" gradientTransform="matrix(51.26, 0, 0, -51.16, 24301.56, 40514.79)" xlink:href="#al"/><linearGradient id="an" x1="-467.69" y1="783.81" x2="-466.69" y2="783.81" gradientTransform="matrix(51.26, 0, 0, -51.16, 24250.3, 40514.79)" xlink:href="#al"/><linearGradient id="ao" x1="-476.77" y1="776.52" x2="-475.77" y2="776.52" gradientTransform="matrix(0, -68.21, -68.35, 0, 53400.79, -32082.64)" xlink:href="#al"/><linearGradient id="ap" x1="-476.83" y1="778.45" x2="-475.83" y2="778.45" gradientTransform="matrix(0, -94.29, -94.48, 0, 73898.49, -44460.9)" xlink:href="#al"/><linearGradient id="aq" x1="-476.83" y1="778.45" x2="-475.83" y2="778.45" gradientTransform="matrix(0, -94.29, -94.48, 0, 73847.23, -44460.9)" xlink:href="#al"/><linearGradient id="ar" x1="-473.82" y1="783.61" x2="-472.82" y2="783.61" gradientTransform="matrix(149.84, 0, 0, -149.64, 70859.51, 117655.49)" xlink:href="#ad"/><linearGradient id="as" x1="-473.82" y1="783.61" x2="-472.82" y2="783.61" gradientTransform="matrix(149.84, 0, 0, -149.64, 70859.51, 117567.47)" xlink:href="#ad"/><linearGradient id="at" x1="-470.63" y1="783.71" x2="-469.63" y2="783.71" gradientTransform="matrix(74.92, 0, 0, -74.82, 35198.87, 58965.7)" xlink:href="#ad"/><linearGradient id="au" x1="-476.84" y1="778.72" x2="-475.84" y2="778.72" gradientTransform="matrix(0, -99.76, -99.89, 0, 77727.17, -47208.78)" xlink:href="#ad"/><linearGradient id="av" x1="-476.88" y1="780.05" x2="-475.88" y2="780.05" gradientTransform="matrix(0, -137.9, -138.08, 0, 107684.7, -65311.92)" xlink:href="#ad"/><linearGradient id="aw" x1="-469.54" y1="783.75" x2="-468.54" y2="783.75" gradientTransform="matrix(63.97, 0, 0, -63.75, 30021.15, 50511.48)" xlink:href="#ak"/><linearGradient id="ax" x1="-469.54" y1="783.75" x2="-468.54" y2="783.75" gradientTransform="matrix(63.97, 0, 0, -63.75, 30021.15, 50473.99)" xlink:href="#al"/><linearGradient id="ay" x1="-462.09" y1="784" x2="-461.09" y2="784" gradientTransform="matrix(31.99, 0, 0, -31.87, 14795.15, 25509.22)" xlink:href="#al"/><linearGradient id="az" x1="-462.09" y1="784" x2="-461.09" y2="784" gradientTransform="matrix(31.99, 0, 0, -31.87, 14763.16, 25509.22)" xlink:href="#al"/><linearGradient id="ba" x1="-476.62" y1="772.32" x2="-475.62" y2="772.32" gradientTransform="matrix(0, -42.5, -42.65, 0, 32953.32, -19722.09)" xlink:href="#al"/><linearGradient id="bb" x1="-476.73" y1="775.41" x2="-475.73" y2="775.41" gradientTransform="matrix(0, -58.74, -58.95, 0, 45744.05, -27434.27)" xlink:href="#al"/><linearGradient id="bc" x1="-476.73" y1="775.41" x2="-475.73" y2="775.41" gradientTransform="matrix(0, -58.74, -58.95, 0, 45712.06, -27434.27)" xlink:href="#al"/></defs><title>side</title><g style="opacity:0.6000000238418579"><g style="opacity:0.20000000298023224"><path d="M176.6,447,52.2,364.1-71.9,447,52.2,529.9Z" transform="translate(151.4)" style="fill:#d900ff"/><path d="M393,622.4,127.1,444.8-138.8,622.4,127.1,800Z" transform="translate(151.4)" style="fill:url(#a)"/></g><g style="opacity:0.949999988079071"><path d="M242.9,645.7l-75.8-50.6L91.2,645.7l75.9,50.7Z" transform="translate(151.4)" style="fill:none;stroke:#8c00ff;stroke-linecap:round;stroke-miterlimit:10;stroke-opacity:0.4000000059604645;opacity:0.949999988079071;isolation:isolate"/></g><g style="opacity:0.949999988079071"><path d="M384.6,422.9l-38-25.3-37.9,25.3,37.9,25.3Z" transform="translate(151.4)" style="fill:none;stroke:#8c00ff;stroke-linecap:round;stroke-miterlimit:10;stroke-opacity:0.4000000059604645;opacity:0.949999988079071;isolation:isolate"/></g><g style="opacity:0.949999988079071"><path d="M188.6,371l-40-26.6L108.9,371l39.7,26.6Z" transform="translate(151.4)" style="fill:none;stroke:#8c00ff;stroke-linecap:round;stroke-miterlimit:10;stroke-opacity:0.4000000059604645;opacity:0.949999988079071;isolation:isolate"/></g><g style="opacity:0.949999988079071"><path d="M74,660.2,29.5,630.5-15,660.2,29.5,690Z" transform="translate(151.4)" style="fill:none;stroke:#8c00ff;stroke-linecap:round;stroke-miterlimit:10;stroke-opacity:0.4000000059604645;opacity:0.949999988079071;isolation:isolate"/></g><g style="opacity:0.949999988079071"><path d="M126.6,704l-22.8-15.2L81.1,704l22.7,15.2Z" transform="translate(151.4)" style="fill:none;stroke:#8c00ff;stroke-linecap:round;stroke-miterlimit:10;stroke-opacity:0.4000000059604645;opacity:0.949999988079071;isolation:isolate"/></g><path d="M45.2,493l145.3-97.1L45.2,298.8l-145.4,97.1Z" transform="translate(151.4)" style="fill:none;stroke:#3fffc0;stroke-linecap:round;stroke-miterlimit:10;opacity:0.25;isolation:isolate"/><path d="M45.2,444.4l145.3-97L45.2,250.3l-145.4,97.1Z" transform="translate(151.4)" style="fill:none;stroke:#3fffc0;stroke-linecap:round;stroke-miterlimit:10;opacity:0.5;isolation:isolate"/><path d="M45.2,395.9l145.3-97.1-145.3-97-145.4,97Z" transform="translate(151.4)" style="fill:none;stroke:#3fffc0;stroke-linecap:round;stroke-miterlimit:10;opacity:0.75;isolation:isolate"/><path d="M190.5,250.3,45.2,153.2l-145.4,97.1L45.2,347.4Z" transform="translate(151.4)" style="fill:none;stroke:#3fffc0;stroke-linecap:round;stroke-miterlimit:10"/><path d="M208.5,538l78.9-52.9-78.9-52.8-79.1,52.8Z" transform="translate(151.4)" style="fill:none;stroke:#8c00ff;stroke-linecap:round;stroke-miterlimit:10;opacity:0.25;isolation:isolate"/><path d="M208.5,511.6l78.9-52.9-78.9-52.8-79.1,52.8Z" transform="translate(151.4)" style="fill:none;stroke:#8c00ff;stroke-linecap:round;stroke-miterlimit:10;opacity:0.5;isolation:isolate"/><path d="M208.5,485.1l78.9-52.8-78.9-52.9-79.1,52.9Z" transform="translate(151.4)" style="fill:none;stroke:#8c00ff;stroke-linecap:round;stroke-miterlimit:10;opacity:0.75;isolation:isolate"/><path d="M287.4,405.9,208.5,353l-79.1,52.9,79.1,52.8Z" transform="translate(151.4)" style="fill:none;stroke:#8c00ff;stroke-linecap:round;stroke-miterlimit:10"/><path d="M107.1,569.5l59.2-39.6-59.2-39.6L47.6,529.9Z" transform="translate(151.4)" style="fill:none;stroke:#00f0ff;stroke-linecap:round;stroke-miterlimit:10;opacity:0.25;isolation:isolate"/><path d="M107.1,549.8l59.2-39.6-59.2-39.6L47.6,510.2Z" transform="translate(151.4)" style="fill:none;stroke:#00f0ff;stroke-linecap:round;stroke-miterlimit:10;opacity:0.5;isolation:isolate"/><path d="M107.1,529.9l59.2-39.6-59.2-39.7L47.6,490.3Z" transform="translate(151.4)" style="fill:none;stroke:#00f0ff;stroke-linecap:round;stroke-miterlimit:10;opacity:0.75;isolation:isolate"/><path d="M166.3,470.6l-59.2-39.7L47.6,470.6l59.5,39.6Z" transform="translate(151.4)" style="fill:none;stroke:#00f0ff;stroke-linecap:round;stroke-miterlimit:10"/><path d="M-59.8,560.9l91-60.7-91-60.6-90.7,60.6Z" transform="translate(151.4)" style="fill:none;stroke:#3fffc0;stroke-linecap:round;stroke-miterlimit:10;opacity:0.25;isolation:isolate"/><path d="M-59.8,530.7l91-60.7-91-60.6L-150.5,470Z" transform="translate(151.4)" style="fill:none;stroke:#3fffc0;stroke-linecap:round;stroke-miterlimit:10;opacity:0.5;isolation:isolate"/><path d="M-59.8,500.2l91-60.6-91-60.7-90.7,60.7Z" transform="translate(151.4)" style="fill:none;stroke:#3fffc0;stroke-linecap:round;stroke-miterlimit:10;opacity:0.75;isolation:isolate"/><path d="M31.2,409.4l-91-60.7-90.7,60.7L-59.8,470Z" transform="translate(151.4)" style="fill:none;stroke:#3fffc0;stroke-linecap:round;stroke-miterlimit:10"/><path d="M14.2,625.3l39-26.1L14.2,573l-39.3,26.2Z" transform="translate(151.4)" style="fill:none;stroke:#80ff81;stroke-linecap:round;stroke-miterlimit:10;opacity:0.25;isolation:isolate"/><path d="M14.2,612.1l39-26.1-39-26.2L-25.1,586Z" transform="translate(151.4)" style="fill:none;stroke:#80ff81;stroke-linecap:round;stroke-miterlimit:10;opacity:0.5;isolation:isolate"/><path d="M14.2,599.2l39-26.2-39-26.1L-25.1,573Z" transform="translate(151.4)" style="fill:none;stroke:#80ff81;stroke-linecap:round;stroke-miterlimit:10;opacity:0.75;isolation:isolate"/><path d="M53.2,559.8l-39-26.1-39.3,26.1L14.2,586Z" transform="translate(151.4)" style="fill:none;stroke:#80ff81;stroke-linecap:round;stroke-miterlimit:10"/><path d="M326.4,579.5l63.2-42.3-63.2-42.4-63.5,42.4Z" transform="translate(151.4)" style="fill:none;stroke:#80ff81;stroke-linecap:round;stroke-miterlimit:10;opacity:0.25;isolation:isolate"/><path d="M326.4,558.2l63.2-42.3-63.2-42.4-63.5,42.4Z" transform="translate(151.4)" style="fill:none;stroke:#80ff81;stroke-linecap:round;stroke-miterlimit:10;opacity:0.5;isolation:isolate"/><path d="M326.4,537.2l63.2-42.4-63.2-42.3-63.5,42.3Z" transform="translate(151.4)" style="fill:none;stroke:#80ff81;stroke-linecap:round;stroke-miterlimit:10;opacity:0.75;isolation:isolate"/><path d="M389.6,473.5l-63.2-42.3-63.5,42.3,63.5,42.4Z" transform="translate(151.4)" style="fill:none;stroke:#80ff81;stroke-linecap:round;stroke-miterlimit:10"/><path d="M228.2,670.9,308.9,617l-80.7-53.9L147.4,617Z" transform="translate(151.4)" style="fill:none;stroke:#00f0ff;stroke-linecap:round;stroke-miterlimit:10;opacity:0.25;isolation:isolate"/><path d="M228.2,643.9,308.9,590l-80.7-53.9L147.4,590Z" transform="translate(151.4)" style="fill:none;stroke:#00f0ff;stroke-linecap:round;stroke-miterlimit:10;opacity:0.5;isolation:isolate"/><path d="M228.2,617l80.7-53.9-80.7-54-80.8,54Z" transform="translate(151.4)" style="fill:none;stroke:#00f0ff;stroke-linecap:round;stroke-miterlimit:10;opacity:0.75;isolation:isolate"/><path d="M308.9,536.1l-80.7-53.9-80.8,53.9L228.2,590Z" transform="translate(151.4)" style="fill:none;stroke:#00f0ff;stroke-linecap:round;stroke-miterlimit:10"/><path d="M107.1,700.3l56.2-37.8-56.2-37.4L50.5,662.5Z" transform="translate(151.4)" style="fill:none;stroke:#8c00ff;stroke-linecap:round;stroke-miterlimit:10;opacity:0.25;isolation:isolate"/><path d="M107.1,681.4l56.2-37.5-56.2-37.7L50.5,643.9Z" transform="translate(151.4)" style="fill:none;stroke:#8c00ff;stroke-linecap:round;stroke-miterlimit:10;opacity:0.5;isolation:isolate"/><path d="M107.1,662.5l56.2-37.4-56.2-37.8L50.5,625.1Z" transform="translate(151.4)" style="fill:none;stroke:#8c00ff;stroke-linecap:round;stroke-miterlimit:10;opacity:0.75;isolation:isolate"/><path d="M163.3,606.2l-56.2-37.8L50.5,606.2l56.6,37.7Z" transform="translate(151.4)" style="fill:none;stroke:#8c00ff;stroke-linecap:round;stroke-miterlimit:10"/></g><path d="M276,394l-66.9-44.7L142.2,394l66.9,44.8Z" transform="translate(151.4)" style="opacity:0.4000000059604645;isolation:isolate;fill:url(#b)"/><path d="M276,315.1l-66.9-44.8-66.9,44.8,66.9,44.7Z" transform="translate(151.4)" style="opacity:0.4000000059604645;isolation:isolate;fill:url(#c)"/><path d="M209.1,270.3v79L276,394V315.1Z" transform="translate(151.4)" style="opacity:0.4000000059604645;isolation:isolate;fill:url(#d)"/><path d="M209.1,270.3v79L142.2,394V315.1Z" transform="translate(151.4)" style="opacity:0.4000000059604645;isolation:isolate;fill:url(#e)"/><path d="M142.2,315.1l66.9,44.7L276,315.1l-66.9-44.8Z" transform="translate(151.4)" style="opacity:0.699999988079071;isolation:isolate;fill:url(#f)"/><ellipse cx="360.1" cy="354.9" rx="30.8" ry="30.8" style="fill:#d900ff"/><path d="M276,315.1V394l-66.9,44.8v-79Z" transform="translate(151.4)" style="opacity:0.4000000059604645;isolation:isolate;fill:url(#g)"/><path d="M142.2,315.1V394l66.9,44.8v-79Z" transform="translate(151.4)" style="opacity:0.4000000059604645;isolation:isolate;fill:url(#h)"/><path d="M157.3,593.6l-50.5-33.8L56.3,593.6l50.5,33.8Z" transform="translate(151.4)" style="opacity:0.4000000059604645;isolation:isolate;fill:url(#i)"/><path d="M157.3,534l-50.5-33.8L56.3,534l50.5,33.8Z" transform="translate(151.4)" style="opacity:0.4000000059604645;isolation:isolate;fill:url(#j)"/><path d="M106.8,500.2v59.6l50.5,33.8V534Z" transform="translate(151.4)" style="opacity:0.4000000059604645;isolation:isolate;fill:url(#k)"/><path d="M106.8,500.2v59.6L56.3,593.6V534Z" transform="translate(151.4)" style="opacity:0.4000000059604645;isolation:isolate;fill:url(#l)"/><path d="M56.3,534l50.5,33.8L157.3,534l-50.5-33.8Z" transform="translate(151.4)" style="opacity:0.699999988079071;isolation:isolate;fill:url(#m)"/><ellipse cx="257.9" cy="564.1" rx="23.2" ry="23.3" style="fill:#d900ff"/><path d="M157.3,534v59.6l-50.5,33.8V567.8Z" transform="translate(151.4)" style="opacity:0.4000000059604645;isolation:isolate;fill:url(#n)"/><path d="M56.3,534v59.6l50.5,33.8V567.8Z" transform="translate(151.4)" style="opacity:0.4000000059604645;isolation:isolate;fill:url(#o)"/><path d="M155.6,458.8l-48.4-32.3L58.8,458.8,107.2,491Z" transform="translate(151.4)" style="opacity:0.4000000059604645;isolation:isolate;fill:url(#p)"/><path d="M155.6,401.9l-48.4-32.2L58.8,401.9l48.4,32.2Z" transform="translate(151.4)" style="opacity:0.4000000059604645;isolation:isolate;fill:url(#q)"/><path d="M107.2,369.7v56.8l48.4,32.3V401.9Z" transform="translate(151.4)" style="opacity:0.4000000059604645;isolation:isolate;fill:url(#r)"/><path d="M107.2,369.7v56.8L58.8,458.8V401.9Z" transform="translate(151.4)" style="opacity:0.4000000059604645;isolation:isolate;fill:url(#s)"/><path d="M58.8,401.9l48.4,32.2,48.4-32.2-48.4-32.2Z" transform="translate(151.4)" style="opacity:0.699999988079071;isolation:isolate;fill:url(#t)"/><ellipse cx="258.4" cy="430.6" rx="22.3" ry="22.2" style="fill:#00f0ff"/><path d="M155.6,401.9v56.9L107.2,491V434.1Z" transform="translate(151.4)" style="opacity:0.4000000059604645;isolation:isolate;fill:url(#u)"/><path d="M58.8,401.9v56.9L107.2,491V434.1Z" transform="translate(151.4)" style="opacity:0.4000000059604645;isolation:isolate;fill:url(#v)"/><path d="M296.2,524.9l-67.8-45.1-67.7,45.1,67.7,45.2Z" transform="translate(151.4)" style="opacity:0.4000000059604645;isolation:isolate;fill:url(#w)"/><path d="M296.2,445.2,228.4,400l-67.7,45.2,67.7,45.2Z" transform="translate(151.4)" style="opacity:0.4000000059604645;isolation:isolate;fill:url(#x)"/><path d="M228.4,400v79.8l67.8,45.1V445.2Z" transform="translate(151.4)" style="opacity:0.4000000059604645;isolation:isolate;fill:url(#y)"/><path d="M228.4,400v79.8l-67.7,45.1V445.2Z" transform="translate(151.4)" style="opacity:0.4000000059604645;isolation:isolate;fill:url(#z)"/><path d="M160.7,445.2l67.7,45.2,67.8-45.2L228.4,400Z" transform="translate(151.4)" style="opacity:0.699999988079071;isolation:isolate;fill:url(#aa)"/><ellipse cx="379.5" cy="485.4" rx="31.2" ry="31.1" style="fill:#00f0ff"/><path d="M296.2,445.2v79.7l-67.8,45.2V490.4Z" transform="translate(151.4)" style="opacity:0.4000000059604645;isolation:isolate;fill:url(#ab)"/><path d="M160.7,445.2v79.7l67.7,45.2V490.4Z" transform="translate(151.4)" style="opacity:0.4000000059604645;isolation:isolate;fill:url(#ac)"/><path d="M174.1,238.1,45.3,152-83.4,238.1,45.3,324.2Z" transform="translate(151.4)" style="opacity:0.4000000059604645;isolation:isolate;fill:url(#ad)"/><path d="M174.1,86.1,45.3,0-83.4,86.1,45.3,172.2Z" transform="translate(151.4)" style="opacity:0.4000000059604645;isolation:isolate;fill:url(#ae)"/><path d="M45.3,0V152l128.8,86.1V86.1Z" transform="translate(151.4)" style="opacity:0.4000000059604645;isolation:isolate;fill:url(#af)"/><path d="M45.3,0V152L-83.4,238.1V86.1Z" transform="translate(151.4)" style="opacity:0.4000000059604645;isolation:isolate;fill:url(#ag)"/><path d="M-83.4,86.1,45.3,172.2,174.1,86.1,45.3,0Z" transform="translate(151.4)" style="opacity:0.699999988079071;isolation:isolate;fill:url(#ah)"/><ellipse cx="196.1" cy="162.8" rx="59.2" ry="59.3" style="fill:#3fffc0"/><path d="M174.1,86.1v152L45.3,324.2v-152Z" transform="translate(151.4)" style="opacity:0.4000000059604645;isolation:isolate;fill:url(#ai)"/><path d="M-83.4,86.1v152L45.3,324.2v-152Z" transform="translate(151.4)" style="opacity:0.4000000059604645;isolation:isolate;fill:url(#aj)"/><path d="M378.2,463.8,327,429.7l-51.3,34.1L327,497.9Z" transform="translate(151.4)" style="opacity:0.4000000059604645;isolation:isolate;fill:url(#ak)"/><path d="M378.2,403.6,327,369.5l-51.3,34.1L327,437.7Z" transform="translate(151.4)" style="opacity:0.4000000059604645;isolation:isolate;fill:url(#al)"/><path d="M327,369.5v60.2l51.2,34.1V403.6Z" transform="translate(151.4)" style="opacity:0.4000000059604645;isolation:isolate;fill:url(#am)"/><path d="M327,369.5v60.2l-51.3,34.1V403.6Z" transform="translate(151.4)" style="opacity:0.4000000059604645;isolation:isolate;fill:url(#an)"/><path d="M275.7,403.6,327,437.7l51.2-34.1L327,369.5Z" transform="translate(151.4)" style="opacity:0.699999988079071;isolation:isolate;fill:url(#ao)"/><ellipse cx="478.1" cy="434" rx="23.6" ry="23.5" style="fill:#80ff81"/><path d="M378.2,403.6v60.2L327,497.9V437.7Z" transform="translate(151.4)" style="opacity:0.4000000059604645;isolation:isolate;fill:url(#ap)"/><path d="M275.7,403.6v60.2L327,497.9V437.7Z" transform="translate(151.4)" style="opacity:0.4000000059604645;isolation:isolate;fill:url(#aq)"/><path d="M15,398.1l-74.9-49.8-74.9,49.8L-59.9,448Z" transform="translate(151.4)" style="opacity:0.4000000059604645;isolation:isolate;fill:url(#ar)"/><path d="M15,310.1l-74.9-49.9-74.9,49.9L-59.9,360Z" transform="translate(151.4)" style="opacity:0.4000000059604645;isolation:isolate;fill:url(#as)"/><path d="M-59.9,260.2v88.1L15,398.1v-88Z" transform="translate(151.4)" style="opacity:0.4000000059604645;isolation:isolate;fill:url(#at)"/><path d="M-134.8,310.1-59.9,360,15,310.1l-74.9-49.9Z" transform="translate(151.4)" style="opacity:0.699999988079071;isolation:isolate;fill:url(#au)"/><ellipse cx="91.1" cy="354.5" rx="34.5" ry="34.4" style="fill:#3fffc0"/><path d="M15,310.1v88L-59.9,448V360Z" transform="translate(151.4)" style="opacity:0.4000000059604645;isolation:isolate;fill:url(#av)"/><path d="M46.2,549.7l-32-21.2-32,21.2,32,21.3Z" transform="translate(151.4)" style="opacity:0.4000000059604645;isolation:isolate;fill:url(#aw)"/><path d="M46.2,512.2,14.2,491l-32,21.2,32,21.3Z" transform="translate(151.4)" style="opacity:0.4000000059604645;isolation:isolate;fill:url(#ax)"/><path d="M14.2,491v37.5l32,21.2V512.2Z" transform="translate(151.4)" style="opacity:0.4000000059604645;isolation:isolate;fill:url(#ay)"/><path d="M14.2,491v37.5l-32,21.2V512.2Z" transform="translate(151.4)" style="opacity:0.4000000059604645;isolation:isolate;fill:url(#az)"/><path d="M-17.8,512.2l32,21.3,32-21.3L14.2,491Z" transform="translate(151.4)" style="opacity:0.699999988079071;isolation:isolate;fill:url(#ba)"/><ellipse cx="165.4" cy="531.1" rx="14.7" ry="14.6" style="fill:#80ff81"/><path d="M46.2,512.2v37.5L14.2,571V533.5Z" transform="translate(151.4)" style="opacity:0.4000000059604645;isolation:isolate;fill:url(#bb)"/><path d="M-17.8,512.2v37.5l32,21.3V533.5Z" transform="translate(151.4)" style="opacity:0.4000000059604645;isolation:isolate;fill:url(#bc)"/></svg>