<svg xmlns="http://www.w3.org/2000/svg" xmlns:xlink="http://www.w3.org/1999/xlink" viewBox="0 0 677 589.9"><defs><linearGradient id="a" x1="-341.61" y1="678.93" x2="-340.61" y2="678.93" gradientTransform="matrix(144.09, 0, 0, -154.23, 49602.15, 105098.26)" gradientUnits="userSpaceOnUse"><stop offset="0" stop-color="aqua" stopOpacity="0"/><stop offset="1" stop-color="aqua"/></linearGradient><linearGradient id="b" x1="-341.61" y1="678.93" x2="-340.61" y2="678.93" gradientTransform="matrix(144.09, 0, 0, -154.23, 49602.15, 105007.54)" xlink:href="#a"/><linearGradient id="c" x1="-339.23" y1="678.36" x2="-338.23" y2="678.36" gradientTransform="matrix(72.05, 0, 0, -77.12, 24889.96, 52626.4)" xlink:href="#a"/><linearGradient id="d" x1="-339.23" y1="678.36" x2="-338.23" y2="678.36" gradientTransform="matrix(72.05, 0, 0, -77.12, 24817.92, 52626.4)" xlink:href="#a"/><linearGradient id="e" x1="-344.62" y1="676.91" x2="-343.62" y2="676.91" gradientTransform="matrix(0, -142.13, -132.79, 0, 90369.97, -48544.38)" xlink:href="#a"/><linearGradient id="f" x1="-344.62" y1="676.91" x2="-343.62" y2="676.91" gradientTransform="matrix(0, -142.13, -132.79, 0, 90297.93, -48544.38)" xlink:href="#a"/><linearGradient id="g" x1="-344.86" y1="675.92" x2="-343.86" y2="675.92" gradientTransform="matrix(0, -102.82, -96.06, 0, 65380.27, -35113.14)" xlink:href="#a"/><linearGradient id="h" x1="-341.61" y1="678.93" x2="-340.61" y2="678.93" gradientTransform="matrix(144.09, 0, 0, -154.23, 49446.86, 105018.97)" xlink:href="#a"/><linearGradient id="i" x1="-341.61" y1="678.93" x2="-340.61" y2="678.93" gradientTransform="matrix(144.09, 0, 0, -154.23, 49446.86, 104928.25)" xlink:href="#a"/><linearGradient id="j" x1="-339.23" y1="678.36" x2="-338.23" y2="678.36" gradientTransform="matrix(72.05, 0, 0, -77.12, 24734.67, 52547.11)" xlink:href="#a"/><linearGradient id="k" x1="-339.23" y1="678.36" x2="-338.23" y2="678.36" gradientTransform="matrix(72.05, 0, 0, -77.12, 24662.62, 52547.11)" xlink:href="#a"/><linearGradient id="l" x1="-344.62" y1="676.91" x2="-343.62" y2="676.91" gradientTransform="matrix(0, -142.13, -132.79, 0, 90214.68, -48623.66)" xlink:href="#a"/><linearGradient id="m" x1="-344.62" y1="676.91" x2="-343.62" y2="676.91" gradientTransform="matrix(0, -142.13, -132.79, 0, 90142.63, -48623.66)" xlink:href="#a"/><linearGradient id="n" x1="-344.86" y1="675.92" x2="-343.86" y2="675.92" gradientTransform="matrix(0, -102.82, -96.06, 0, 65224.97, -35192.43)" xlink:href="#a"/><linearGradient id="o" x1="-340.75" y1="678.72" x2="-339.75" y2="678.72" gradientTransform="matrix(105.82, 0, 0, -113.26, 36329.39, 77348.19)" xlink:href="#a"/><linearGradient id="p" x1="-340.75" y1="678.72" x2="-339.75" y2="678.72" gradientTransform="matrix(105.82, 0, 0, -113.26, 36329.39, 77281.57)" xlink:href="#a"/><linearGradient id="q" x1="-337.5" y1="677.94" x2="-336.5" y2="677.94" gradientTransform="matrix(52.91, 0, 0, -56.63, 18181.54, 38814.97)" xlink:href="#a"/><linearGradient id="r" x1="-337.5" y1="677.94" x2="-336.5" y2="677.94" gradientTransform="matrix(52.91, 0, 0, -56.63, 18128.63, 38814.97)" xlink:href="#a"/><linearGradient id="s" x1="-344.84" y1="675.97" x2="-343.84" y2="675.97" gradientTransform="matrix(0, -104.38, -97.51, 0, 66267.92, -35481.26)" xlink:href="#a"/><linearGradient id="t" x1="-344.84" y1="675.97" x2="-343.84" y2="675.97" gradientTransform="matrix(0, -104.38, -97.51, 0, 66215.02, -35481.26)" xlink:href="#a"/><linearGradient id="u" x1="-345.17" y1="674.62" x2="-344.17" y2="674.62" gradientTransform="matrix(0, -75.51, -70.54, 0, 47916.17, -25617.88)" xlink:href="#a"/><linearGradient id="v" x1="-340.12" y1="678.57" x2="-339.12" y2="678.57" gradientTransform="matrix(88.74, 0, 0, -94.99, 30319.96, 64857.18)" xlink:href="#a"/><linearGradient id="w" x1="-340.12" y1="678.57" x2="-339.12" y2="678.57" gradientTransform="matrix(88.74, 0, 0, -94.99, 30319.96, 64801.31)" xlink:href="#a"/><linearGradient id="x" x1="-336.25" y1="677.65" x2="-335.25" y2="677.65" gradientTransform="matrix(44.37, 0, 0, -47.49, 15100.36, 32541.17)" xlink:href="#a"/><linearGradient id="y" x1="-336.25" y1="677.65" x2="-335.25" y2="677.65" gradientTransform="matrix(44.37, 0, 0, -47.49, 15056.09, 32541.3)" xlink:href="#a"/><linearGradient id="z" x1="-345.01" y1="675.29" x2="-344.01" y2="675.29" gradientTransform="matrix(0, -87.53, -81.78, 0, 55428.12, -29767.27)" xlink:href="#a"/><linearGradient id="aa" x1="-345.01" y1="675.29" x2="-344.01" y2="675.29" gradientTransform="matrix(0, -87.53, -81.78, 0, 55383.75, -29767.27)" xlink:href="#a"/><linearGradient id="ab" x1="-345.39" y1="673.69" x2="-344.39" y2="673.69" gradientTransform="matrix(0, -63.33, -59.16, 0, 40037.35, -21495.28)" xlink:href="#a"/><linearGradient id="ac" x1="-341.81" y1="678.98" x2="-340.81" y2="678.98" gradientTransform="matrix(156.86, 0, 0, -167.9, 53615.15, 114234.89)" xlink:href="#a"/><linearGradient id="ad" x1="-341.81" y1="678.98" x2="-340.81" y2="678.98" gradientTransform="matrix(156.86, 0, 0, -167.9, 53615.15, 114136.13)" xlink:href="#a"/><linearGradient id="ae" x1="-339.61" y1="678.45" x2="-338.61" y2="678.45" gradientTransform="matrix(78.43, 0, 0, -83.95, 26713.9, 57114.99)" xlink:href="#a"/><linearGradient id="af" x1="-339.61" y1="678.45" x2="-338.61" y2="678.45" gradientTransform="matrix(78.43, 0, 0, -83.95, 26635.58, 57115.2)" xlink:href="#a"/><linearGradient id="ag" x1="-344.57" y1="677.12" x2="-343.57" y2="677.12" gradientTransform="matrix(0, -154.72, -144.55, 0, 97994.69, -53017.48)" xlink:href="#a"/><linearGradient id="ah" x1="-344.57" y1="677.12" x2="-343.57" y2="677.12" gradientTransform="matrix(0, -154.72, -144.55, 0, 97916.26, -53017.48)" xlink:href="#a"/><linearGradient id="ai" x1="-344.79" y1="676.21" x2="-343.79" y2="676.21" gradientTransform="matrix(0, -111.93, -104.57, 0, 70791.1, -38396.48)" xlink:href="#a"/><linearGradient id="aj" x1="-340.45" y1="678.65" x2="-339.45" y2="678.65" gradientTransform="matrix(96.89, 0, 0, -103.71, 32990.14, 70815.61)" xlink:href="#a"/><linearGradient id="ak" x1="-340.45" y1="678.65" x2="-339.45" y2="678.65" gradientTransform="matrix(96.89, 0, 0, -103.71, 32990.14, 70763.15)" xlink:href="#a"/><linearGradient id="al" x1="-336.9" y1="677.8" x2="-335.9" y2="677.8" gradientTransform="matrix(48.45, 0, 0, -51.86, 16373.09, 35539.11)" xlink:href="#a"/><linearGradient id="am" x1="-336.9" y1="677.8" x2="-335.9" y2="677.8" gradientTransform="matrix(48.45, 0, 0, -51.86, 16324.64, 35539.11)" xlink:href="#a"/><linearGradient id="an" x1="-345.07" y1="675.02" x2="-344.07" y2="675.02" gradientTransform="matrix(0, -82.2, -76.79, 0, 51913.34, -27901.54)" xlink:href="#a"/><linearGradient id="ao" x1="-345.07" y1="675.02" x2="-344.07" y2="675.02" gradientTransform="matrix(0, -82.2, -76.79, 0, 51864.9, -27901.54)" xlink:href="#a"/><linearGradient id="ap" x1="-345.48" y1="673.31" x2="-344.48" y2="673.31" gradientTransform="matrix(0, -59.46, -55.56, 0, 37457.56, -20133.88)" xlink:href="#a"/><linearGradient id="aq" x1="-341.97" y1="679.01" x2="-340.97" y2="679.01" gradientTransform="matrix(169.35, 0, 0, -181.27, 58239.8, 123251.2)" xlink:href="#a"/><linearGradient id="ar" x1="-341.97" y1="679.01" x2="-340.97" y2="679.01" gradientTransform="matrix(169.35, 0, 0, -181.27, 58239.8, 123144.58)" xlink:href="#a"/><linearGradient id="as" x1="-339.94" y1="678.53" x2="-338.94" y2="678.53" gradientTransform="matrix(84.68, 0, 0, -90.63, 29195.9, 61581.87)" xlink:href="#a"/><linearGradient id="at" x1="-339.94" y1="678.53" x2="-338.94" y2="678.53" gradientTransform="matrix(84.68, 0, 0, -90.63, 29111.22, 61581.87)" xlink:href="#a"/><linearGradient id="au" x1="-344.53" y1="677.3" x2="-343.53" y2="677.3" gradientTransform="matrix(0, -167.04, -156.06, 0, 106154.54, -57323.13)" xlink:href="#a"/><linearGradient id="av" x1="-344.53" y1="677.3" x2="-343.53" y2="677.3" gradientTransform="matrix(0, -167.04, -156.06, 0, 106069.86, -57323.13)" xlink:href="#a"/><linearGradient id="aw" x1="-344.73" y1="676.45" x2="-343.73" y2="676.45" gradientTransform="matrix(0, -120.85, -112.9, 0, 76783.62, -41537.29)" xlink:href="#a"/><linearGradient id="ax" x1="-342.44" y1="679.13" x2="-341.44" y2="679.13" gradientTransform="matrix(220.53, 0, 0, -236.04, 75973.37, 160814.95)" xlink:href="#a"/><linearGradient id="ay" x1="-342.44" y1="679.13" x2="-341.44" y2="679.13" gradientTransform="matrix(220.53, 0, 0, -236.04, 75973.37, 160676.11)" xlink:href="#a"/><linearGradient id="az" x1="-340.88" y1="678.75" x2="-339.88" y2="678.75" gradientTransform="matrix(110.26, 0, 0, -118.02, 38153.16, 80510.93)" xlink:href="#a"/><linearGradient id="ba" x1="-340.88" y1="678.75" x2="-339.88" y2="678.75" gradientTransform="matrix(110.26, 0, 0, -118.02, 38042.89, 80510.93)" xlink:href="#a"/><linearGradient id="bb" x1="-344.4" y1="677.81" x2="-343.41" y2="677.81" gradientTransform="matrix(0, -217.52, -203.22, 0, 138366.48, -74324.81)" xlink:href="#a"/><linearGradient id="bc" x1="-344.4" y1="677.81" x2="-343.41" y2="677.81" gradientTransform="matrix(0, -217.52, -203.22, 0, 138256.22, -74324.81)" xlink:href="#a"/><linearGradient id="bd" x1="-344.56" y1="677.16" x2="-343.56" y2="677.16" gradientTransform="matrix(0, -157.36, -147.02, 0, 100121.42, -53768.95)" xlink:href="#a"/></defs><title>left-bg</title><g style="opacity:0.10000000149011612"><g style="opacity:0.4000000059604645"><path d="M521.9,384.8l-72.1-51.4-72,51.4,72,51.5Z" transform="translate(0 -0.5)" style="opacity:0.4000000059604645;isolation:isolate;fill:url(#a)"/></g><g style="opacity:0.4000000059604645"><path d="M521.9,294.1l-72.1-51.4-72,51.4,72,51.4Z" transform="translate(0 -0.5)" style="opacity:0.4000000059604645;isolation:isolate;fill:url(#b)"/></g><path d="M449.8,242.7v90.7l72.1,51.4V294.1Z" transform="translate(0 -0.5)" style="opacity:0.4000000059604645;isolation:isolate;fill:url(#c)"/><path d="M449.8,242.7v90.7l-72,51.4V294.1Z" transform="translate(0 -0.5)" style="opacity:0.4000000059604645;isolation:isolate;fill:url(#d)"/><path d="M521.9,294.1v90.7l-72.1,51.5V345.5Z" transform="translate(0 -0.5)" style="opacity:0.4000000059604645;isolation:isolate;fill:url(#e)"/><path d="M377.8,294.1v90.7l72,51.5V345.5Z" transform="translate(0 -0.5)" style="opacity:0.4000000059604645;isolation:isolate;fill:url(#f)"/><path d="M377.8,294.1l72,51.4,72.1-51.4-72.1-51.4Z" transform="translate(0 -0.5)" style="opacity:0.699999988079071;isolation:isolate;fill:url(#g)"/><g style="opacity:0.4000000059604645"><path d="M366.7,305.7l-72-51.4-72.1,51.4,72.1,51.4Z" transform="translate(0 -0.5)" style="opacity:0.4000000059604645;isolation:isolate;fill:url(#h)"/></g><g style="opacity:0.4000000059604645"><path d="M366.7,214.9l-72-51.4-72.1,51.4,72.1,51.4Z" transform="translate(0 -0.5)" style="opacity:0.4000000059604645;isolation:isolate;fill:url(#i)"/></g><path d="M294.7,163.5v90.8l72,51.4V214.9Z" transform="translate(0 -0.5)" style="opacity:0.4000000059604645;isolation:isolate;fill:url(#j)"/><path d="M294.7,163.5v90.8l-72.1,51.4V214.9Z" transform="translate(0 -0.5)" style="opacity:0.4000000059604645;isolation:isolate;fill:url(#k)"/><path d="M366.7,214.9v90.8l-72,51.4V266.3Z" transform="translate(0 -0.5)" style="opacity:0.4000000059604645;isolation:isolate;fill:url(#l)"/><path d="M222.6,214.9v90.8l72.1,51.4V266.3Z" transform="translate(0 -0.5)" style="opacity:0.4000000059604645;isolation:isolate;fill:url(#m)"/><path d="M222.6,214.9l72.1,51.4,72-51.4-72-51.4Z" transform="translate(0 -0.5)" style="opacity:0.699999988079071;isolation:isolate;fill:url(#n)"/><g style="opacity:0.4000000059604645"><path d="M377.8,474l-52.9-37.7L272.1,474l52.8,37.8Z" transform="translate(0 -0.5)" style="opacity:0.4000000059604645;isolation:isolate;fill:url(#o)"/></g><g style="opacity:0.4000000059604645"><path d="M377.8,407.5l-52.9-37.8-52.8,37.8L324.9,445Z" transform="translate(0 -0.5)" style="opacity:0.4000000059604645;isolation:isolate;fill:url(#p)"/></g><path d="M324.9,369.7v66.6L377.8,474V407.5Z" transform="translate(0 -0.5)" style="opacity:0.4000000059604645;isolation:isolate;fill:url(#q)"/><path d="M324.9,369.7v66.6L272.1,474V407.5Z" transform="translate(0 -0.5)" style="opacity:0.4000000059604645;isolation:isolate;fill:url(#r)"/><path d="M377.8,407.5V474l-52.9,37.8V445Z" transform="translate(0 -0.5)" style="opacity:0.4000000059604645;isolation:isolate;fill:url(#s)"/><path d="M272.1,407.5V474l52.8,37.8V445Z" transform="translate(0 -0.5)" style="opacity:0.4000000059604645;isolation:isolate;fill:url(#t)"/><path d="M272.1,407.5,324.9,445l52.9-37.5-52.9-37.8Z" transform="translate(0 -0.5)" style="opacity:0.699999988079071;isolation:isolate;fill:url(#u)"/><g style="opacity:0.4000000059604645"><path d="M224.8,400.8l-44.2-31.6-44.4,31.6,44.4,31.6Z" transform="translate(0 -0.5)" style="opacity:0.4000000059604645;isolation:isolate;fill:url(#v)"/></g><g style="opacity:0.4000000059604645"><path d="M224.8,345l-44.2-31.6L136.2,345l44.4,31.6Z" transform="translate(0 -0.5)" style="opacity:0.4000000059604645;isolation:isolate;fill:url(#w)"/></g><path d="M180.6,313.4v55.8l44.2,31.6V345Z" transform="translate(0 -0.5)" style="opacity:0.4000000059604645;isolation:isolate;fill:url(#x)"/><path d="M180.6,313.4v55.8l-44.4,31.6V345Z" transform="translate(0 -0.5)" style="opacity:0.4000000059604645;isolation:isolate;fill:url(#y)"/><path d="M224.8,345v55.8l-44.2,31.6V376.6Z" transform="translate(0 -0.5)" style="opacity:0.4000000059604645;isolation:isolate;fill:url(#z)"/><path d="M136.2,345v55.8l44.4,31.6V376.6Z" transform="translate(0 -0.5)" style="opacity:0.4000000059604645;isolation:isolate;fill:url(#aa)"/><path d="M136.2,345l44.4,31.6L224.8,345l-44.2-31.6Z" transform="translate(0 -0.5)" style="opacity:0.699999988079071;isolation:isolate;fill:url(#ab)"/><g style="opacity:0.4000000059604645"><path d="M156.8,238.3l-78.3-56L0,238.3l78.5,55.8Z" transform="translate(0 -0.5)" style="opacity:0.4000000059604645;isolation:isolate;fill:url(#ac)"/></g><g style="opacity:0.4000000059604645"><path d="M156.8,139.4,78.5,83.6,0,139.4l78.5,56Z" transform="translate(0 -0.5)" style="opacity:0.4000000059604645;isolation:isolate;fill:url(#ad)"/></g><path d="M78.5,83.6v98.7l78.3,56V139.4Z" transform="translate(0 -0.5)" style="opacity:0.4000000059604645;isolation:isolate;fill:url(#ae)"/><path d="M78.5,83.6v98.7L0,238.3V139.4Z" transform="translate(0 -0.5)" style="opacity:0.4000000059604645;isolation:isolate;fill:url(#af)"/><path d="M156.8,139.4v98.9L78.5,294.1V195.4Z" transform="translate(0 -0.5)" style="opacity:0.4000000059604645;isolation:isolate;fill:url(#ag)"/><path d="M0,139.4v98.9l78.5,55.8V195.4Z" transform="translate(0 -0.5)" style="opacity:0.4000000059604645;isolation:isolate;fill:url(#ah)"/><path d="M0,139.4l78.5,56,78.3-56L78.5,83.6Z" transform="translate(0 -0.5)" style="opacity:0.699999988079071;isolation:isolate;fill:url(#ai)"/><g style="opacity:0.4000000059604645"><path d="M100.1,432.7,51.6,402.8,3.1,432.7l48.5,29.8Z" transform="translate(0 -0.5)" style="opacity:0.4000000059604645;isolation:isolate;fill:url(#aj)"/></g><g style="opacity:0.4000000059604645"><path d="M100.1,380.2,51.6,350.4,3.1,380.2,51.6,410Z" transform="translate(0 -0.5)" style="opacity:0.4000000059604645;isolation:isolate;fill:url(#ak)"/></g><path d="M51.6,350.4v52.4l48.5,29.9V380.2Z" transform="translate(0 -0.5)" style="opacity:0.4000000059604645;isolation:isolate;fill:url(#al)"/><path d="M51.6,350.4v52.4L3.1,432.7V380.2Z" transform="translate(0 -0.5)" style="opacity:0.4000000059604645;isolation:isolate;fill:url(#am)"/><path d="M100.1,380.2v52.5L51.6,462.5V410Z" transform="translate(0 -0.5)" style="opacity:0.4000000059604645;isolation:isolate;fill:url(#an)"/><path d="M3.1,380.2v52.5l48.5,29.8V410Z" transform="translate(0 -0.5)" style="opacity:0.4000000059604645;isolation:isolate;fill:url(#ao)"/><path d="M3.1,380.2,51.6,410l48.5-29.8L51.6,350.4Z" transform="translate(0 -0.5)" style="opacity:0.699999988079071;isolation:isolate;fill:url(#ap)"/><g style="opacity:0.4000000059604645"><path d="M496.2,167.6l-84.8-60.4-84.8,60.4L411.4,228Z" transform="translate(0 -0.5)" style="opacity:0.4000000059604645;isolation:isolate;fill:url(#aq)"/></g><g style="opacity:0.4000000059604645"><path d="M496.2,61,411.4.5,326.6,61l84.8,60.4Z" transform="translate(0 -0.5)" style="opacity:0.4000000059604645;isolation:isolate;fill:url(#ar)"/></g><path d="M411.4.5V107.2l84.8,60.4V61Z" transform="translate(0 -0.5)" style="opacity:0.4000000059604645;isolation:isolate;fill:url(#as)"/><path d="M411.4.5V107.2l-84.8,60.4V61Z" transform="translate(0 -0.5)" style="opacity:0.4000000059604645;isolation:isolate;fill:url(#at)"/><path d="M496.2,61V167.6L411.4,228V121.4Z" transform="translate(0 -0.5)" style="opacity:0.4000000059604645;isolation:isolate;fill:url(#au)"/><path d="M326.6,61V167.6L411.4,228V121.4Z" transform="translate(0 -0.5)" style="opacity:0.4000000059604645;isolation:isolate;fill:url(#av)"/><path d="M326.6,61l84.8,60.4L496.2,61,411.4.5Z" transform="translate(0 -0.5)" style="opacity:0.699999988079071;isolation:isolate;fill:url(#aw)"/><g style="opacity:0.4000000059604645"><path d="M677,511.8,566.8,433.2,456.5,511.8l110.3,78.7Z" transform="translate(0 -0.5)" style="opacity:0.4000000059604645;isolation:isolate;fill:url(#ax)"/></g><g style="opacity:0.4000000059604645"><path d="M677,373,566.8,294.1,456.5,373l110.3,78.7Z" transform="translate(0 -0.5)" style="opacity:0.4000000059604645;isolation:isolate;fill:url(#ay)"/></g><path d="M566.8,294.1V433.2L677,511.8V373Z" transform="translate(0 -0.5)" style="opacity:0.4000000059604645;isolation:isolate;fill:url(#az)"/><path d="M566.8,294.1V433.2L456.5,511.8V373Z" transform="translate(0 -0.5)" style="opacity:0.4000000059604645;isolation:isolate;fill:url(#ba)"/><path d="M677,373V511.8L566.8,590.5V451.7Z" transform="translate(0 -0.5)" style="opacity:0.4000000059604645;isolation:isolate;fill:url(#bb)"/><path d="M456.5,373V511.8l110.3,78.7V451.7Z" transform="translate(0 -0.5)" style="opacity:0.4000000059604645;isolation:isolate;fill:url(#bc)"/><path d="M456.5,373l110.3,78.7L677,373,566.8,294.1Z" transform="translate(0 -0.5)" style="opacity:0.699999988079071;isolation:isolate;fill:url(#bd)"/></g></svg>