<svg viewBox="0 0 410 800" fill="none" xmlns="http://www.w3.org/2000/svg"><g opacity=".6"><g opacity=".2"><path d="M176.55 447l-124.4-82.88L-71.92 447l124.09 82.88L176.56 447z" fill="#D900FF"/><path d="M531.8 177.6L265.9 0 0 177.6l265.9 177.58L531.8 177.6z" transform="translate(-138.8 444.82)" fill="url(#paint0_linear)"/></g><g filter="url(#filter0_d)"><g opacity=".95"><path opacity=".95" d="M242.94 645.72l-75.87-50.64-75.88 50.64 75.88 50.65 75.87-50.65z" stroke="#8C00FF" strokeOpacity=".4" strokeMiterlimit="10" stroke-linecap="round"/></g><g opacity=".95"><path opacity=".95" d="M384.58 422.9l-37.94-25.32-37.94 25.32 37.94 25.32 37.94-25.32z" stroke="#8C00FF" strokeOpacity=".4" strokeMiterlimit="10" stroke-linecap="round"/></g><g opacity=".95"><path opacity=".95" d="M188.57 371l-39.97-26.6-39.7 26.6 39.7 26.58 39.97-26.59z" stroke="#8C00FF" strokeOpacity=".4" strokeMiterlimit="10" stroke-linecap="round"/></g><g opacity=".95"><path opacity=".95" d="M73.99 660.16l-44.51-29.63-44.52 29.63 44.52 29.88 44.51-29.88z" stroke="#8C00FF" strokeOpacity=".4" strokeMiterlimit="10" stroke-linecap="round"/></g><g opacity=".95"><path opacity=".95" d="M126.6 703.96l-22.76-15.19-22.77 15.2 22.77 15.18 22.76-15.19z" stroke="#8C00FF" strokeOpacity=".4" strokeMiterlimit="10" stroke-linecap="round"/></g></g><path opacity=".25" d="M45.15 492.95l145.33-97.06-145.33-97.06-145.32 97.06 145.32 97.06z" stroke="#3FFFC0" strokeMiterlimit="10" stroke-linecap="round"/><path opacity=".5" d="M45.15 444.42l145.33-97.06L45.15 250.3l-145.32 97.06 145.32 97.06z" stroke="#3FFFC0" strokeMiterlimit="10" stroke-linecap="round"/><path opacity=".75" d="M45.15 395.9l145.33-97.07-145.33-97.06-145.32 97.06L45.15 395.9z" stroke="#3FFFC0" strokeMiterlimit="10" stroke-linecap="round"/><path d="M190.48 250.3L45.15 153.24l-145.32 97.06 145.32 97.06 145.33-97.06z" stroke="#3FFFC0" strokeMiterlimit="10" stroke-linecap="round"/><path opacity=".25" d="M208.51 537.98l78.86-52.85-78.86-52.84-79.12 52.84 79.12 52.85z" stroke="#8C00FF" strokeMiterlimit="10" stroke-linecap="round"/><path opacity=".5" d="M208.51 511.56l78.86-52.85-78.86-52.84-79.12 52.84 79.12 52.85z" stroke="#8C00FF" strokeMiterlimit="10" stroke-linecap="round"/><path opacity=".75" d="M208.51 485.13l78.86-52.84-78.86-52.84-79.12 52.84 79.12 52.84z" stroke="#8C00FF" strokeMiterlimit="10" stroke-linecap="round"/><path d="M287.37 405.87l-78.86-52.85-79.12 52.85 79.12 52.84 78.86-52.84z" stroke="#8C00FF" strokeMiterlimit="10" stroke-linecap="round"/><path opacity=".25" d="M107.05 569.52l59.2-39.63-59.2-39.63-59.48 39.63 59.48 39.63z" stroke="#00F0FF" strokeMiterlimit="10" stroke-linecap="round"/><path opacity=".5" d="M107.05 549.84l59.2-39.63-59.2-39.64-59.48 39.64 59.48 39.63z" stroke="#00F0FF" strokeMiterlimit="10" stroke-linecap="round"/><path opacity=".75" d="M107.05 529.89l59.2-39.63-59.2-39.64-59.48 39.64 59.48 39.63z" stroke="#00F0FF" strokeMiterlimit="10" stroke-linecap="round"/><path d="M166.26 470.57l-59.2-39.63-59.49 39.63 59.48 39.64 59.2-39.64z" stroke="#00F0FF" strokeMiterlimit="10" stroke-linecap="round"/><path opacity=".25" d="M-59.8 560.9l90.96-60.67-90.97-60.66-90.7 60.66 90.7 60.66z" stroke="#3FFFC0" strokeMiterlimit="10" stroke-linecap="round"/><path opacity=".5" d="M-59.8 530.7l90.96-60.66-90.97-60.67-90.7 60.67 90.7 60.66z" stroke="#3FFFC0" strokeMiterlimit="10" stroke-linecap="round"/><path opacity=".75" d="M-59.8 500.23l90.96-60.66-90.97-60.66-90.7 60.66 90.7 60.66z" stroke="#3FFFC0" strokeMiterlimit="10" stroke-linecap="round"/><path d="M31.16 409.37l-90.97-60.66-90.7 60.66 90.7 60.66 90.97-60.66z" stroke="#3FFFC0" strokeMiterlimit="10" stroke-linecap="round"/><path opacity=".25" d="M14.2 625.33l39.03-26.15-39.03-26.15-39.29 26.15 39.3 26.15z" stroke="#80FF81" strokeMiterlimit="10" stroke-linecap="round"/><path opacity=".5" d="M14.2 612.12l39.03-26.15-39.03-26.15-39.29 26.15 39.3 26.15z" stroke="#80FF81" strokeMiterlimit="10" stroke-linecap="round"/><path opacity=".75" d="M14.2 599.18l39.03-26.15-39.03-26.16-39.29 26.16 39.3 26.15z" stroke="#80FF81" strokeMiterlimit="10" stroke-linecap="round"/><path d="M53.23 559.82L14.2 533.66l-39.29 26.16 39.3 26.15 39.02-26.15z" stroke="#80FF81" strokeMiterlimit="10" stroke-linecap="round"/><path opacity=".25" d="M326.39 579.5l63.24-42.33-63.24-42.33-63.51 42.33 63.5 42.33z" stroke="#80FF81" strokeMiterlimit="10" stroke-linecap="round"/><path opacity=".5" d="M326.39 558.2l63.24-42.33-63.24-42.33-63.51 42.33 63.5 42.33z" stroke="#80FF81" strokeMiterlimit="10" stroke-linecap="round"/><path opacity=".75" d="M326.39 537.17l63.24-42.33-63.24-42.33-63.51 42.33 63.5 42.33z" stroke="#80FF81" strokeMiterlimit="10" stroke-linecap="round"/><path d="M389.63 473.54l-63.24-42.33-63.51 42.33 63.5 42.33 63.25-42.33z" stroke="#80FF81" strokeMiterlimit="10" stroke-linecap="round"/><path opacity=".25" d="M228.16 670.9l80.73-53.93-80.73-53.92-80.74 53.92 80.74 53.92z" stroke="#00F0FF" strokeMiterlimit="10" stroke-linecap="round"/><path opacity=".5" d="M228.16 643.93l80.73-53.92-80.73-53.92-80.74 53.92 80.74 53.92z" stroke="#00F0FF" strokeMiterlimit="10" stroke-linecap="round"/><path opacity=".75" d="M228.16 616.97l80.73-53.92-80.73-53.92-80.74 53.92 80.74 53.92z" stroke="#00F0FF" strokeMiterlimit="10" stroke-linecap="round"/><path d="M308.9 536.09l-80.74-53.92-80.74 53.92L228.16 590l80.73-53.92z" stroke="#00F0FF" strokeMiterlimit="10" stroke-linecap="round"/><path opacity=".25" d="M107.05 700.28l56.25-37.74-56.25-37.48-56.51 37.48 56.51 37.74z" stroke="#8C00FF" strokeMiterlimit="10" stroke-linecap="round"/><path opacity=".5" d="M107.05 681.4l56.25-37.47-56.25-37.74-56.51 37.74 56.51 37.48z" stroke="#8C00FF" strokeMiterlimit="10" stroke-linecap="round"/><path opacity=".75" d="M107.05 662.54l56.25-37.48-56.25-37.74-56.51 37.74 56.51 37.48z" stroke="#8C00FF" strokeMiterlimit="10" stroke-linecap="round"/><path d="M163.3 606.19l-56.25-37.75-56.51 37.75 56.51 37.74 56.25-37.74z" stroke="#8C00FF" strokeMiterlimit="10" stroke-linecap="round"/></g><path opacity=".4" d="M133.84 44.73L66.92 0 0 44.73l66.92 44.74 66.92-44.74z" transform="translate(142.15 349.28)" fill="url(#paint1_linear)"/><path opacity=".4" d="M133.84 44.73L66.92 0 0 44.73l66.92 44.74 66.92-44.74z" transform="translate(142.15 270.32)" fill="url(#paint2_linear)"/><path opacity=".4" d="M0 0v78.96l66.92 44.73V44.73L0 0z" transform="translate(209.07 270.32)" fill="url(#paint3_linear)"/><path opacity=".4" d="M66.92 0v78.96L0 123.69V44.73L66.92 0z" transform="translate(142.15 270.32)" fill="url(#paint4_linear)"/><path opacity=".7" d="M0 44.73l66.92 44.74 66.92-44.74L66.92 0 0 44.73z" transform="translate(142.15 270.32)" fill="url(#paint5_linear)"/><g filter="url(#filter1_f)"><ellipse cx="30.78" cy="30.82" rx="30.78" ry="30.82" transform="translate(177.94 324.08)" fill="#D900FF"/></g><path opacity=".4" d="M66.92 0v78.96L0 123.69V44.73L66.92 0z" transform="translate(209.07 315.06)" fill="url(#paint6_linear)"/><path opacity=".4" d="M0 0v78.96l66.92 44.73V44.73L0 0z" transform="translate(142.15 315.06)" fill="url(#paint7_linear)"/><path opacity=".4" d="M101.01 33.77L50.51 0 0 33.77l50.5 33.78 50.51-33.78z" transform="translate(56.3 559.84)" fill="url(#paint8_linear)"/><path opacity=".4" d="M101.01 33.77L50.51 0 0 33.77l50.5 33.78 50.51-33.78z" transform="translate(56.3 500.23)" fill="url(#paint9_linear)"/><path opacity=".4" d="M0 0v59.61L50.5 93.4V33.77L0 0z" transform="translate(106.8 500.23)" fill="url(#paint10_linear)"/><path opacity=".4" d="M50.5 0v59.61L0 93.4V33.77L50.5 0z" transform="translate(56.3 500.23)" fill="url(#paint11_linear)"/><path opacity=".7" d="M0 33.77l50.5 33.78 50.51-33.78L50.51 0 0 33.77z" transform="translate(56.3 500.23)" fill="url(#paint12_linear)"/><g filter="url(#filter2_f)"><ellipse cx="23.23" cy="23.27" rx="23.23" ry="23.27" transform="translate(83.3 540.81)" fill="#D900FF"/></g><path opacity=".4" d="M50.5 0v59.61L0 93.4V33.77L50.5 0z" transform="translate(106.8 534)" fill="url(#paint13_linear)"/><path opacity=".4" d="M0 0v59.61L50.5 93.4V33.77L0 0z" transform="translate(56.3 534)" fill="url(#paint14_linear)"/><path opacity=".4" d="M96.8 32.2L48.4 0 0 32.2l48.4 32.22L96.8 32.2z" transform="translate(58.82 426.55)" fill="url(#paint15_linear)"/><path opacity=".4" d="M96.8 32.2L48.4 0 0 32.2l48.4 32.22L96.8 32.2z" transform="translate(58.82 369.7)" fill="url(#paint16_linear)"/><path opacity=".4" d="M0 0v56.85l48.4 32.2V32.22L0 0z" transform="translate(107.22 369.7)" fill="url(#paint17_linear)"/><path opacity=".4" d="M48.4 0v56.85L0 89.05V32.22L48.4 0z" transform="translate(58.82 369.7)" fill="url(#paint18_linear)"/><path opacity=".7" d="M0 32.2l48.4 32.22L96.8 32.2 48.4 0 0 32.2z" transform="translate(58.82 369.7)" fill="url(#paint19_linear)"/><g filter="url(#filter3_f)"><ellipse cx="22.26" cy="22.19" rx="22.26" ry="22.19" transform="translate(84.7 408.4)" fill="#00F0FF"/></g><path opacity=".4" d="M48.4 0v56.85L0 89.05V32.22L48.4 0z" transform="translate(107.22 401.9)" fill="url(#paint20_linear)"/><path opacity=".4" d="M0 0v56.85l48.4 32.2V32.22L0 0z" transform="translate(58.82 401.9)" fill="url(#paint21_linear)"/><path opacity=".4" d="M135.53 45.18L67.76 0 0 45.18l67.76 45.18 67.77-45.18z" transform="translate(160.67 479.76)" fill="url(#paint22_linear)"/><path opacity=".4" d="M135.53 45.18L67.76 0 0 45.18l67.76 45.18 67.77-45.18z" transform="translate(160.67 400.01)" fill="url(#paint23_linear)"/><path opacity=".4" d="M0 0v79.75l67.76 45.18V45.18L0 0z" transform="translate(228.43 400.01)" fill="url(#paint24_linear)"/><path opacity=".4" d="M67.76 0v79.75L0 124.93V45.18L67.76 0z" transform="translate(160.67 400.01)" fill="url(#paint25_linear)"/><path opacity=".7" d="M0 45.18l67.76 45.18 67.77-45.18L67.76 0 0 45.18z" transform="translate(160.67 400.01)" fill="url(#paint26_linear)"/><g filter="url(#filter4_f)"><ellipse cx="31.16" cy="31.13" rx="31.16" ry="31.13" transform="translate(196.9 454.3)" fill="#00F0FF"/></g><path opacity=".4" d="M67.76 0v79.75L0 124.93V45.18L67.76 0z" transform="translate(228.43 445.2)" fill="url(#paint27_linear)"/><path opacity=".4" d="M0 0v79.75l67.76 45.18V45.18L0 0z" transform="translate(160.67 445.2)" fill="url(#paint28_linear)"/><path opacity=".4" d="M257.58 86.11L128.8 0 0 86.11l128.8 86.12L257.57 86.1z" transform="translate(-83.44 152)" fill="url(#paint29_linear)"/><path opacity=".4" d="M257.58 86.11L128.8 0 0 86.11l128.8 86.12L257.57 86.1z" transform="translate(-83.44)" fill="url(#paint30_linear)"/><path opacity=".4" d="M0 0v152l128.8 86.1V86.12L0 0z" transform="translate(45.35)" fill="url(#paint31_linear)"/><path opacity=".4" d="M128.8 0v152L0 238.1V86.12L128.8 0z" transform="translate(-83.44)" fill="url(#paint32_linear)"/><path opacity=".7" d="M0 86.11l128.8 86.12L257.57 86.1 128.8 0 0 86.11z" transform="translate(-83.44)" fill="url(#paint33_linear)"/><g filter="url(#filter5_f)"><ellipse cx="59.23" cy="59.33" rx="59.23" ry="59.33" transform="translate(-14.57 103.47)" fill="#3FFFC0"/></g><path opacity=".4" d="M128.8 0v152L0 238.1V86.12L128.8 0z" transform="translate(45.35 86.11)" fill="url(#paint34_linear)"/><path opacity=".4" d="M0 0v152l128.8 86.1V86.12L0 0z" transform="translate(-83.44 86.11)" fill="url(#paint35_linear)"/><path opacity=".4" d="M102.52 34.1L51.26 0 0 34.1l51.26 34.11 51.26-34.1z" transform="translate(275.71 429.71)" fill="url(#paint36_linear)"/><path opacity=".4" d="M102.52 34.1L51.26 0 0 34.1l51.26 34.11 51.26-34.1z" transform="translate(275.71 369.51)" fill="url(#paint37_linear)"/><path opacity=".4" d="M0 0v60.2l51.26 34.1V34.1L0 0z" transform="translate(326.97 369.51)" fill="url(#paint38_linear)"/><path opacity=".4" d="M51.26 0v60.2L0 94.3V34.1L51.26 0z" transform="translate(275.71 369.51)" fill="url(#paint39_linear)"/><path opacity=".7" d="M0 34.1l51.26 34.11 51.26-34.1L51.26 0 0 34.1z" transform="translate(275.71 369.51)" fill="url(#paint40_linear)"/><g filter="url(#filter6_f)"><ellipse cx="23.57" cy="23.5" rx="23.57" ry="23.5" transform="translate(303.12 410.5)" fill="#80FF81"/></g><path opacity=".4" d="M51.26 0v60.2L0 94.3V34.1L51.26 0z" transform="translate(326.97 403.62)" fill="url(#paint41_linear)"/><path opacity=".4" d="M0 0v60.2l51.26 34.1V34.1L0 0z" transform="translate(275.71 403.62)" fill="url(#paint42_linear)"/><path opacity=".4" d="M149.84 49.88L74.92 0 0 49.88l74.92 49.88 74.92-49.88z" transform="translate(-134.8 348.26)" fill="url(#paint43_linear)"/><path opacity=".4" d="M149.84 49.88L74.92 0 0 49.88l74.92 49.88 74.92-49.88z" transform="translate(-134.8 260.22)" fill="url(#paint44_linear)"/><path opacity=".4" d="M0 0v88.04l74.92 49.88V49.88L0 0z" transform="translate(-59.87 260.22)" fill="url(#paint45_linear)"/><path opacity=".7" d="M0 49.88l74.92 49.88 74.92-49.88L74.92 0 0 49.88z" transform="translate(-134.8 260.22)" fill="url(#paint46_linear)"/><g filter="url(#filter7_f)"><ellipse cx="34.45" cy="34.36" rx="34.45" ry="34.36" transform="translate(-94.73 320.15)" fill="#3FFFC0"/></g><path opacity=".4" d="M74.92 0v88.04L0 137.92V49.88L74.92 0z" transform="translate(-59.87 310.1)" fill="url(#paint47_linear)"/><path opacity=".4" d="M63.97 21.25L32 0 0 21.25 31.99 42.5l31.98-21.25z" transform="translate(-17.78 528.47)" fill="url(#paint48_linear)"/><path opacity=".4" d="M63.97 21.25L32 0 0 21.25 31.99 42.5l31.98-21.25z" transform="translate(-17.78 490.96)" fill="url(#paint49_linear)"/><path opacity=".4" d="M0 0v37.5l31.99 21.25v-37.5L0 0z" transform="translate(14.2 490.96)" fill="url(#paint50_linear)"/><path opacity=".4" d="M31.99 0v37.5L0 58.75v-37.5L31.99 0z" transform="translate(-17.78 490.96)" fill="url(#paint51_linear)"/><path opacity=".7" d="M0 21.25L31.99 42.5l31.98-21.25L32 0 0 21.25z" transform="translate(-17.78 490.96)" fill="url(#paint52_linear)"/><g filter="url(#filter8_f)"><ellipse cx="14.71" cy="14.64" rx="14.71" ry="14.64" transform="translate(-.68 516.5)" fill="#80FF81"/></g><path opacity=".4" d="M31.99 0v37.5L0 58.75v-37.5L31.99 0z" transform="translate(14.2 512.21)" fill="url(#paint53_linear)"/><path opacity=".4" d="M0 0v37.5l31.99 21.25v-37.5L0 0z" transform="translate(-17.78 512.21)" fill="url(#paint54_linear)"/><defs><filter id="filter0_d" x="-181.58" y="319.81" width="591.06" height="423.95" filterUnits="userSpaceOnUse" colorInterpolationFilters="sRGB"><feFlood floodOpacity="0" result="BackgroundImageFix"/><feColorMatrix in="SourceAlpha" values="0 0 0 0 0 0 0 0 0 0 0 0 0 0 0 0 0 0 255 0"/><feOffset/><feGaussianBlur stdDeviation="12"/><feColorMatrix values="0 0 0 0 1 0 0 0 0 1 0 0 0 0 1 0 0 0 1 0"/><feBlend in2="BackgroundImageFix" result="effect1_dropShadow"/><feBlend in="SourceGraphic" in2="effect1_dropShadow" result="shape"/></filter><filter id="filter1_f" x="123.94" y="270.08" width="169.55" height="169.64" filterUnits="userSpaceOnUse" colorInterpolationFilters="sRGB"><feFlood floodOpacity="0" result="BackgroundImageFix"/><feBlend in="SourceGraphic" in2="BackgroundImageFix" result="shape"/><feGaussianBlur stdDeviation="27" result="effect1_foregroundBlur"/></filter><filter id="filter2_f" x="29.3" y="486.81" width="154.46" height="154.54" filterUnits="userSpaceOnUse" colorInterpolationFilters="sRGB"><feFlood floodOpacity="0" result="BackgroundImageFix"/><feBlend in="SourceGraphic" in2="BackgroundImageFix" result="shape"/><feGaussianBlur stdDeviation="27" result="effect1_foregroundBlur"/></filter><filter id="filter3_f" x="30.7" y="354.4" width="152.52" height="152.38" filterUnits="userSpaceOnUse" colorInterpolationFilters="sRGB"><feFlood floodOpacity="0" result="BackgroundImageFix"/><feBlend in="SourceGraphic" in2="BackgroundImageFix" result="shape"/><feGaussianBlur stdDeviation="27" result="effect1_foregroundBlur"/></filter><filter id="filter4_f" x="142.91" y="400.3" width="170.33" height="170.25" filterUnits="userSpaceOnUse" colorInterpolationFilters="sRGB"><feFlood floodOpacity="0" result="BackgroundImageFix"/><feBlend in="SourceGraphic" in2="BackgroundImageFix" result="shape"/><feGaussianBlur stdDeviation="27" result="effect1_foregroundBlur"/></filter><filter id="filter5_f" x="-68.57" y="49.48" width="226.46" height="226.65" filterUnits="userSpaceOnUse" colorInterpolationFilters="sRGB"><feFlood floodOpacity="0" result="BackgroundImageFix"/><feBlend in="SourceGraphic" in2="BackgroundImageFix" result="shape"/><feGaussianBlur stdDeviation="27" result="effect1_foregroundBlur"/></filter><filter id="filter6_f" x="249.12" y="356.5" width="155.15" height="154.99" filterUnits="userSpaceOnUse" colorInterpolationFilters="sRGB"><feFlood floodOpacity="0" result="BackgroundImageFix"/><feBlend in="SourceGraphic" in2="BackgroundImageFix" result="shape"/><feGaussianBlur stdDeviation="27" result="effect1_foregroundBlur"/></filter><filter id="filter7_f" x="-148.73" y="266.15" width="176.91" height="176.72" filterUnits="userSpaceOnUse" colorInterpolationFilters="sRGB"><feFlood floodOpacity="0" result="BackgroundImageFix"/><feBlend in="SourceGraphic" in2="BackgroundImageFix" result="shape"/><feGaussianBlur stdDeviation="27" result="effect1_foregroundBlur"/></filter><filter id="filter8_f" x="-54.68" y="462.5" width="137.42" height="137.28" filterUnits="userSpaceOnUse" colorInterpolationFilters="sRGB"><feFlood floodOpacity="0" result="BackgroundImageFix"/><feBlend in="SourceGraphic" in2="BackgroundImageFix" result="shape"/><feGaussianBlur stdDeviation="27" result="effect1_foregroundBlur"/></filter><linearGradient id="paint0_linear" x2="1" gradientUnits="userSpaceOnUse" gradientTransform="matrix(0 355.183 -531.793 0 531.8 0)"><stop stopColor="#3FFFC0"/><stop offset="1" stopColor="#8C00FF"/></linearGradient><linearGradient id="paint1_linear" x2="1" gradientUnits="userSpaceOnUse" gradientTransform="matrix(133.842 0 0 134.204 0 -22.39)"><stop stopColor="#8C00FF"/><stop offset="1" stopColor="#8C00FF"/></linearGradient><linearGradient id="paint2_linear" x2="1" gradientUnits="userSpaceOnUse" gradientTransform="matrix(133.842 0 0 134.204 0 -22.37)"><stop stopColor="#0FF" stop-opacity="0"/><stop offset="1" stopColor="#8C00FF"/></linearGradient><linearGradient id="paint3_linear" x2="1" gradientUnits="userSpaceOnUse" gradientTransform="matrix(66.9209 0 0 67.1021 0 28.29)"><stop stopColor="#0FF" stop-opacity="0"/><stop offset="1" stopColor="#8C00FF"/></linearGradient><linearGradient id="paint4_linear" x2="1" gradientUnits="userSpaceOnUse" gradientTransform="matrix(66.9209 0 0 67.1021 0 28.29)"><stop stopColor="#0FF" stop-opacity="0"/><stop offset="1" stopColor="#8C00FF"/></linearGradient><linearGradient id="paint5_linear" x2="1" gradientUnits="userSpaceOnUse" gradientTransform="matrix(0 -89.4695 89.2279 0 22.3 89.47)"><stop stopColor="#8C00FF"/><stop offset="1" stopColor="#8C00FF"/></linearGradient><linearGradient id="paint6_linear" x2="1" gradientUnits="userSpaceOnUse" gradientTransform="matrix(0 -123.673 123.339 0 -28.2 123.67)"><stop stopColor="#0FF" stop-opacity="0"/><stop offset="1" stopColor="#8C00FF"/></linearGradient><linearGradient id="paint7_linear" x2="1" gradientUnits="userSpaceOnUse" gradientTransform="matrix(0 -123.673 123.339 0 -28.2 123.67)"><stop stopColor="#0FF" stop-opacity="0"/><stop offset="1" stopColor="#8C00FF"/></linearGradient><linearGradient id="paint8_linear" x2="1" gradientUnits="userSpaceOnUse" gradientTransform="matrix(101.013 0 0 101.324 0 -16.9)"><stop stopColor="#8C00FF"/><stop offset="1" stopColor="#8C00FF"/></linearGradient><linearGradient id="paint9_linear" x2="1" gradientUnits="userSpaceOnUse" gradientTransform="matrix(101.013 0 0 101.324 0 -16.89)"><stop stopColor="#0FF" stop-opacity="0"/><stop offset="1" stopColor="#8C00FF"/></linearGradient><linearGradient id="paint10_linear" x2="1" gradientUnits="userSpaceOnUse" gradientTransform="matrix(50.5063 0 0 50.6621 0 21.36)"><stop stopColor="#0FF" stop-opacity="0"/><stop offset="1" stopColor="#8C00FF"/></linearGradient><linearGradient id="paint11_linear" x2="1" gradientUnits="userSpaceOnUse" gradientTransform="matrix(50.5063 0 0 50.6621 0 21.36)"><stop stopColor="#0FF" stop-opacity="0"/><stop offset="1" stopColor="#8C00FF"/></linearGradient><linearGradient id="paint12_linear" x2="1" gradientUnits="userSpaceOnUse" gradientTransform="matrix(0 -67.5495 67.3418 0 16.84 67.55)"><stop stopColor="#8C00FF"/><stop offset="1" stopColor="#8C00FF"/></linearGradient><linearGradient id="paint13_linear" x2="1" gradientUnits="userSpaceOnUse" gradientTransform="matrix(0 -93.3731 93.086 0 -21.29 93.37)"><stop stopColor="#0FF" stop-opacity="0"/><stop offset="1" stopColor="#8C00FF"/></linearGradient><linearGradient id="paint14_linear" x2="1" gradientUnits="userSpaceOnUse" gradientTransform="matrix(0 -93.3731 93.086 0 -21.29 93.37)"><stop stopColor="#0FF" stop-opacity="0"/><stop offset="1" stopColor="#8C00FF"/></linearGradient><linearGradient id="paint15_linear" x2="1" gradientUnits="userSpaceOnUse" gradientTransform="matrix(96.8038 0 0 96.6269 0 -16.12)"><stop stopColor="#0FF" stop-opacity="0"/><stop offset="1" stopColor="#0FF"/></linearGradient><linearGradient id="paint16_linear" x2="1" gradientUnits="userSpaceOnUse" gradientTransform="matrix(96.8038 0 0 96.6269 0 -16.1)"><stop stopColor="#0FF" stop-opacity="0"/><stop offset="1" stopColor="#0FF"/></linearGradient><linearGradient id="paint17_linear" x2="1" gradientUnits="userSpaceOnUse" gradientTransform="matrix(48.4019 0 0 48.3135 0 20.37)"><stop stopColor="#0FF" stop-opacity="0"/><stop offset="1" stopColor="#0FF"/></linearGradient><linearGradient id="paint18_linear" x2="1" gradientUnits="userSpaceOnUse" gradientTransform="matrix(48.4019 0 0 48.3135 0 20.37)"><stop stopColor="#0FF" stop-opacity="0"/><stop offset="1" stopColor="#0FF"/></linearGradient><linearGradient id="paint19_linear" x2="1" gradientUnits="userSpaceOnUse" gradientTransform="matrix(0 -64.4179 64.5359 0 16.13 64.42)"><stop stopColor="#0FF" stop-opacity="0"/><stop offset="1" stopColor="#0FF"/></linearGradient><linearGradient id="paint20_linear" x2="1" gradientUnits="userSpaceOnUse" gradientTransform="matrix(0 -89.0445 89.2074 0 -20.4 89.04)"><stop stopColor="#0FF" stop-opacity="0"/><stop offset="1" stopColor="#0FF"/></linearGradient><linearGradient id="paint21_linear" x2="1" gradientUnits="userSpaceOnUse" gradientTransform="matrix(0 -89.0445 89.2074 0 -20.4 89.04)"><stop stopColor="#0FF" stop-opacity="0"/><stop offset="1" stopColor="#0FF"/></linearGradient><linearGradient id="paint22_linear" x2="1" gradientUnits="userSpaceOnUse" gradientTransform="matrix(135.525 0 0 135.546 0 -22.61)"><stop stopColor="#0FF" stop-opacity="0"/><stop offset="1" stopColor="#0FF"/></linearGradient><linearGradient id="paint23_linear" x2="1" gradientUnits="userSpaceOnUse" gradientTransform="matrix(135.525 0 0 135.546 0 -22.6)"><stop stopColor="#0FF" stop-opacity="0"/><stop offset="1" stopColor="#0FF"/></linearGradient><linearGradient id="paint24_linear" x2="1" gradientUnits="userSpaceOnUse" gradientTransform="matrix(67.7627 0 0 67.773 0 28.57)"><stop stopColor="#0FF" stop-opacity="0"/><stop offset="1" stopColor="#0FF"/></linearGradient><linearGradient id="paint25_linear" x2="1" gradientUnits="userSpaceOnUse" gradientTransform="matrix(67.7627 0 0 67.773 0 28.57)"><stop stopColor="#0FF" stop-opacity="0"/><stop offset="1" stopColor="#0FF"/></linearGradient><linearGradient id="paint26_linear" x2="1" gradientUnits="userSpaceOnUse" gradientTransform="matrix(0 -90.3641 90.3502 0 22.59 90.36)"><stop stopColor="#0FF" stop-opacity="0"/><stop offset="1" stopColor="#0FF"/></linearGradient><linearGradient id="paint27_linear" x2="1" gradientUnits="userSpaceOnUse" gradientTransform="matrix(0 -124.91 124.89 0 -28.56 124.91)"><stop stopColor="#0FF" stop-opacity="0"/><stop offset="1" stopColor="#0FF"/></linearGradient><linearGradient id="paint28_linear" x2="1" gradientUnits="userSpaceOnUse" gradientTransform="matrix(0 -124.91 124.89 0 -28.56 124.91)"><stop stopColor="#0FF" stop-opacity="0"/><stop offset="1" stopColor="#0FF"/></linearGradient><linearGradient id="paint29_linear" x2="1" gradientUnits="userSpaceOnUse" gradientTransform="matrix(257.582 0 0 258.343 0 -43.1)"><stop stopColor="#0FF" stop-opacity="0"/><stop offset="1" stopColor="#3FFFC0"/></linearGradient><linearGradient id="paint30_linear" x2="1" gradientUnits="userSpaceOnUse" gradientTransform="matrix(257.582 0 0 258.343 0 -43.06)"><stop stopColor="#0FF" stop-opacity="0"/><stop offset="1" stopColor="#3FFFC0"/></linearGradient><linearGradient id="paint31_linear" x2="1" gradientUnits="userSpaceOnUse" gradientTransform="matrix(128.791 0 0 129.171 0 54.45)"><stop stopColor="#0FF" stop-opacity="0"/><stop offset="1" stopColor="#3FFFC0"/></linearGradient><linearGradient id="paint32_linear" x2="1" gradientUnits="userSpaceOnUse" gradientTransform="matrix(128.791 0 0 129.171 0 54.45)"><stop stopColor="#0FF" stop-opacity="0"/><stop offset="1" stopColor="#3FFFC0"/></linearGradient><linearGradient id="paint33_linear" x2="1" gradientUnits="userSpaceOnUse" gradientTransform="matrix(0 -172.229 171.722 0 42.93 172.23)"><stop stopColor="#0FF" stop-opacity="0"/><stop offset="1" stopColor="#3FFFC0"/></linearGradient><linearGradient id="paint34_linear" x2="1" gradientUnits="userSpaceOnUse" gradientTransform="matrix(0 -238.07 237.369 0 -54.29 238.07)"><stop stopColor="#0FF" stop-opacity="0"/><stop offset="1" stopColor="#3FFFC0"/></linearGradient><linearGradient id="paint35_linear" x2="1" gradientUnits="userSpaceOnUse" gradientTransform="matrix(0 -238.07 237.369 0 -54.29 238.07)"><stop stopColor="#0FF" stop-opacity="0"/><stop offset="1" stopColor="#3FFFC0"/></linearGradient><linearGradient id="paint36_linear" x2="1" gradientUnits="userSpaceOnUse" gradientTransform="matrix(102.522 0 0 102.316 0 -17.07)"><stop stopColor="#80FF81"/><stop offset="1" stopColor="#0FF"/></linearGradient><linearGradient id="paint37_linear" x2="1" gradientUnits="userSpaceOnUse" gradientTransform="matrix(102.522 0 0 102.316 0 -17.05)"><stop stopColor="#0FF" stop-opacity="0"/><stop offset="1" stopColor="#80FF81"/></linearGradient><linearGradient id="paint38_linear" x2="1" gradientUnits="userSpaceOnUse" gradientTransform="matrix(51.2612 0 0 51.1578 0 21.56)"><stop stopColor="#0FF" stop-opacity="0"/><stop offset="1" stopColor="#80FF81"/></linearGradient><linearGradient id="paint39_linear" x2="1" gradientUnits="userSpaceOnUse" gradientTransform="matrix(51.2612 0 0 51.1578 0 21.56)"><stop stopColor="#0FF" stop-opacity="0"/><stop offset="1" stopColor="#80FF81"/></linearGradient><linearGradient id="paint40_linear" x2="1" gradientUnits="userSpaceOnUse" gradientTransform="matrix(0 -68.2104 68.3482 0 17.09 68.21)"><stop stopColor="#0FF" stop-opacity="0"/><stop offset="1" stopColor="#80FF81"/></linearGradient><linearGradient id="paint41_linear" x2="1" gradientUnits="userSpaceOnUse" gradientTransform="matrix(0 -94.2868 94.4772 0 -21.6 94.29)"><stop stopColor="#0FF" stop-opacity="0"/><stop offset="1" stopColor="#80FF81"/></linearGradient><linearGradient id="paint42_linear" x2="1" gradientUnits="userSpaceOnUse" gradientTransform="matrix(0 -94.2868 94.4772 0 -21.6 94.29)"><stop stopColor="#0FF" stop-opacity="0"/><stop offset="1" stopColor="#80FF81"/></linearGradient><linearGradient id="paint43_linear" x2="1" gradientUnits="userSpaceOnUse" gradientTransform="matrix(149.835 0 0 149.638 0 -24.96)"><stop stopColor="#0FF" stop-opacity="0"/><stop offset="1" stopColor="#3FFFC0"/></linearGradient><linearGradient id="paint44_linear" x2="1" gradientUnits="userSpaceOnUse" gradientTransform="matrix(149.835 0 0 149.638 0 -24.94)"><stop stopColor="#0FF" stop-opacity="0"/><stop offset="1" stopColor="#3FFFC0"/></linearGradient><linearGradient id="paint45_linear" x2="1" gradientUnits="userSpaceOnUse" gradientTransform="matrix(74.9177 0 0 74.8188 0 31.54)"><stop stopColor="#0FF" stop-opacity="0"/><stop offset="1" stopColor="#3FFFC0"/></linearGradient><linearGradient id="paint46_linear" x2="1" gradientUnits="userSpaceOnUse" gradientTransform="matrix(0 -99.7584 99.8903 0 24.97 99.76)"><stop stopColor="#0FF" stop-opacity="0"/><stop offset="1" stopColor="#3FFFC0"/></linearGradient><linearGradient id="paint47_linear" x2="1" gradientUnits="userSpaceOnUse" gradientTransform="matrix(0 -137.895 138.078 0 -31.58 137.9)"><stop stopColor="#0FF" stop-opacity="0"/><stop offset="1" stopColor="#3FFFC0"/></linearGradient><linearGradient id="paint48_linear" x2="1" gradientUnits="userSpaceOnUse" gradientTransform="matrix(63.9747 0 0 63.747 0 -10.63)"><stop stopColor="#80FF81"/><stop offset="1" stopColor="#0FF"/></linearGradient><linearGradient id="paint49_linear" x2="1" gradientUnits="userSpaceOnUse" gradientTransform="matrix(63.9747 0 0 63.747 0 -10.62)"><stop stopColor="#0FF" stop-opacity="0"/><stop offset="1" stopColor="#80FF81"/></linearGradient><linearGradient id="paint50_linear" x2="1" gradientUnits="userSpaceOnUse" gradientTransform="matrix(31.9873 0 0 31.8735 0 13.44)"><stop stopColor="#0FF" stop-opacity="0"/><stop offset="1" stopColor="#80FF81"/></linearGradient><linearGradient id="paint51_linear" x2="1" gradientUnits="userSpaceOnUse" gradientTransform="matrix(31.9873 0 0 31.8735 0 13.44)"><stop stopColor="#0FF" stop-opacity="0"/><stop offset="1" stopColor="#80FF81"/></linearGradient><linearGradient id="paint52_linear" x2="1" gradientUnits="userSpaceOnUse" gradientTransform="matrix(0 -42.498 42.6498 0 10.66 42.5)"><stop stopColor="#0FF" stop-opacity="0"/><stop offset="1" stopColor="#80FF81"/></linearGradient><linearGradient id="paint53_linear" x2="1" gradientUnits="userSpaceOnUse" gradientTransform="matrix(0 -58.7447 58.9545 0 -13.48 58.74)"><stop stopColor="#0FF" stop-opacity="0"/><stop offset="1" stopColor="#80FF81"/></linearGradient><linearGradient id="paint54_linear" x2="1" gradientUnits="userSpaceOnUse" gradientTransform="matrix(0 -58.7447 58.9545 0 -13.48 58.74)"><stop stopColor="#0FF" stop-opacity="0"/><stop offset="1" stopColor="#80FF81"/></linearGradient></defs></svg>