<svg width="677" height="591" viewBox="0 0 677 591" fill="none" xmlns="http://www.w3.org/2000/svg">
<g opacity="0.1">
<g opacity="0.4">
<path opacity="0.4" d="M144.094 51.4109L72.0468 0L7.32898e-06 51.4109L72.0468 102.822L144.094 51.4109Z" transform="translate(377.765 333.429)" fill="url(#paint0_linear)"/>
</g>
<g opacity="0.4">
<path opacity="0.4" d="M144.094 51.4109L72.0468 -7.84467e-06L7.32898e-06 51.4109L72.0468 102.822L144.094 51.4109Z" transform="translate(377.765 242.689)" fill="url(#paint1_linear)"/>
</g>
<path opacity="0.4" d="M7.32898e-06 -7.84467e-06V90.7402L72.0468 142.151V51.4109L7.32898e-06 -7.84467e-06Z" transform="translate(449.812 242.689)" fill="url(#paint2_linear)"/>
<path opacity="0.4" d="M72.0468 -7.84467e-06V90.7402L7.32898e-06 142.151V51.4109L72.0468 -7.84467e-06Z" transform="translate(377.765 242.689)" fill="url(#paint3_linear)"/>
<path opacity="0.4" d="M72.0468 -7.84467e-06V90.7402L7.32898e-06 142.151V51.4109L72.0468 -7.84467e-06Z" transform="translate(449.812 294.1)" fill="url(#paint4_linear)"/>
<path opacity="0.4" d="M7.32898e-06 -7.84467e-06V90.7402L72.0468 142.151V51.4109L7.32898e-06 -7.84467e-06Z" transform="translate(377.765 294.1)" fill="url(#paint5_linear)"/>
<path opacity="0.7" d="M7.32898e-06 51.4109L72.0468 102.822L144.094 51.4109L72.0468 -7.84467e-06L7.32898e-06 51.4109Z" transform="translate(377.765 242.689)" fill="url(#paint6_linear)"/>
<g opacity="0.4">
<path opacity="0.4" d="M144.094 51.4109L72.0468 -7.84467e-06L-7.32898e-06 51.4109L72.0468 102.822L144.094 51.4109Z" transform="translate(222.625 254.257)" fill="url(#paint7_linear)"/>
</g>
<g opacity="0.4">
<path opacity="0.4" d="M144.094 51.4109L72.0468 3.92234e-06L-7.32898e-06 51.4109L72.0468 102.822L144.094 51.4109Z" transform="translate(222.625 163.516)" fill="url(#paint8_linear)"/>
</g>
<path opacity="0.4" d="M-7.32898e-06 3.92234e-06V90.7402L72.0468 142.151V51.4109L-7.32898e-06 3.92234e-06Z" transform="translate(294.672 163.516)" fill="url(#paint9_linear)"/>
<path opacity="0.4" d="M72.0468 3.92234e-06V90.7402L-7.32898e-06 142.151V51.4109L72.0468 3.92234e-06Z" transform="translate(222.625 163.516)" fill="url(#paint10_linear)"/>
<path opacity="0.4" d="M72.0468 3.92234e-06V90.7402L-7.32898e-06 142.151V51.4109L72.0468 3.92234e-06Z" transform="translate(294.672 214.927)" fill="url(#paint11_linear)"/>
<path opacity="0.4" d="M-7.32898e-06 3.92234e-06V90.7402L72.0468 142.151V51.4109L-7.32898e-06 3.92234e-06Z" transform="translate(222.625 214.927)" fill="url(#paint12_linear)"/>
<path opacity="0.7" d="M-7.32898e-06 51.4109L72.0468 102.822L144.094 51.4109L72.0468 3.92234e-06L-7.32898e-06 51.4109Z" transform="translate(222.625 163.516)" fill="url(#paint13_linear)"/>
<g opacity="0.4">
<path opacity="0.4" d="M105.669 37.787L52.8343 0L7.32898e-06 37.787L52.8343 75.574L105.669 37.787Z" transform="translate(272.097 436.251)" fill="url(#paint14_linear)"/>
</g>
<g opacity="0.4">
<path opacity="0.4" d="M105.669 37.787L52.8343 1.56893e-05L7.32898e-06 37.787L52.8343 75.3169L105.669 37.787Z" transform="translate(272.097 369.674)" fill="url(#paint15_linear)"/>
</g>
<path opacity="0.4" d="M7.32898e-06 1.56893e-05V66.5771L52.8343 104.364V37.787L7.32898e-06 1.56893e-05Z" transform="translate(324.931 369.674)" fill="url(#paint16_linear)"/>
<path opacity="0.4" d="M52.8343 1.56893e-05V66.5771L7.32898e-06 104.364V37.787L52.8343 1.56893e-05Z" transform="translate(272.097 369.674)" fill="url(#paint17_linear)"/>
<path opacity="0.4" d="M52.8343 7.84467e-06V66.5771L7.32898e-06 104.364V37.5299L52.8343 7.84467e-06Z" transform="translate(324.931 407.461)" fill="url(#paint18_linear)"/>
<path opacity="0.4" d="M7.32898e-06 7.84467e-06V66.5771L52.8343 104.364V37.5299L7.32898e-06 7.84467e-06Z" transform="translate(272.097 407.461)" fill="url(#paint19_linear)"/>
<path opacity="0.7" d="M7.32898e-06 37.787L52.8343 75.3169L105.669 37.787L52.8343 1.56893e-05L7.32898e-06 37.787Z" transform="translate(272.097 369.674)" fill="url(#paint20_linear)"/>
<g opacity="0.4">
<path opacity="0.4" d="M88.6176 31.6177L44.4289 -1.56893e-05L1.83225e-06 31.6177L44.4289 63.2354L88.6176 31.6177Z" transform="translate(136.169 369.159)" fill="url(#paint21_linear)"/>
</g>
<g opacity="0.4">
<path opacity="0.4" d="M88.6176 31.6177L44.4289 -7.84467e-06L1.83225e-06 31.6177L44.4289 63.2354L88.6176 31.6177Z" transform="translate(136.169 313.379)" fill="url(#paint22_linear)"/>
</g>
<path opacity="0.4" d="M-7.32898e-06 -7.84467e-06V55.7808L44.1887 87.3985V31.6177L-7.32898e-06 -7.84467e-06Z" transform="translate(180.597 313.379)" fill="url(#paint23_linear)"/>
<path opacity="0.4" d="M44.4289 -7.84467e-06V55.7808L1.83225e-06 87.3985V31.6177L44.4289 -7.84467e-06Z" transform="translate(136.169 313.379)" fill="url(#paint24_linear)"/>
<path opacity="0.4" d="M44.1887 0V55.7808L-7.32898e-06 87.3985V31.6177L44.1887 0Z" transform="translate(180.597 344.997)" fill="url(#paint25_linear)"/>
<path opacity="0.4" d="M1.83225e-06 0V55.7808L44.4289 87.3985V31.6177L1.83225e-06 0Z" transform="translate(136.169 344.997)" fill="url(#paint26_linear)"/>
<path opacity="0.7" d="M1.83225e-06 31.6177L44.4289 63.2354L88.6176 31.6177L44.4289 -7.84467e-06L1.83225e-06 31.6177Z" transform="translate(136.169 313.379)" fill="url(#paint27_linear)"/>
<g opacity="0.4">
<path opacity="0.4" d="M156.822 56.0378L78.531 -7.84468e-06L0 56.0378L78.531 111.819L156.822 56.0378Z" transform="translate(0 182.281)" fill="url(#paint28_linear)"/>
</g>
<g opacity="0.4">
<path opacity="0.4" d="M156.822 55.7808L78.531 -1.96117e-06L0 55.7808L78.531 111.819L156.822 55.7808Z" transform="translate(0 83.5728)" fill="url(#paint29_linear)"/>
</g>
<path opacity="0.4" d="M1.83225e-06 -1.96117e-06V98.7088L78.2909 154.747V55.7808L1.83225e-06 -1.96117e-06Z" transform="translate(78.531 83.5728)" fill="url(#paint30_linear)"/>
<path opacity="0.4" d="M78.531 -1.96117e-06V98.7088L0 154.747V55.7808L78.531 -1.96117e-06Z" transform="translate(0 83.5728)" fill="url(#paint31_linear)"/>
<path opacity="0.4" d="M78.2909 0V98.9659L1.83225e-06 154.747V56.0378L78.2909 0Z" transform="translate(78.531 139.354)" fill="url(#paint32_linear)"/>
<path opacity="0.4" d="M0 0V98.9659L78.531 154.747V56.0378L0 0Z" transform="translate(0 139.354)" fill="url(#paint33_linear)"/>
<path opacity="0.7" d="M0 55.7808L78.531 111.819L156.822 55.7808L78.531 -1.96117e-06L0 55.7808Z" transform="translate(0 83.5728)" fill="url(#paint34_linear)"/>
<g opacity="0.4">
<path opacity="0.4" d="M97.0231 29.8183L48.5115 0L-1.14515e-07 29.8183L48.5115 59.6366L97.0231 29.8183Z" transform="translate(3.12207 402.834)" fill="url(#paint35_linear)"/>
</g>
<g opacity="0.4">
<path opacity="0.4" d="M97.0231 29.8183L48.5115 1.56893e-05L-1.14515e-07 29.8183L48.5115 59.6366L97.0231 29.8183Z" transform="translate(3.12207 350.396)" fill="url(#paint36_linear)"/>
</g>
<path opacity="0.4" d="M0 1.56893e-05V52.4391L48.5115 82.2574V29.8183L0 1.56893e-05Z" transform="translate(51.6335 350.396)" fill="url(#paint37_linear)"/>
<path opacity="0.4" d="M48.5115 1.56893e-05V52.4391L-1.14515e-07 82.2574V29.8183L48.5115 1.56893e-05Z" transform="translate(3.12207 350.396)" fill="url(#paint38_linear)"/>
<path opacity="0.4" d="M48.5115 -7.84467e-06V52.4391L0 82.2574V29.8183L48.5115 -7.84467e-06Z" transform="translate(51.6335 380.214)" fill="url(#paint39_linear)"/>
<path opacity="0.4" d="M-1.14515e-07 -7.84467e-06V52.4391L48.5115 82.2574V29.8183L-1.14515e-07 -7.84467e-06Z" transform="translate(3.12207 380.214)" fill="url(#paint40_linear)"/>
<path opacity="0.7" d="M-1.14515e-07 29.8183L48.5115 59.6366L97.0231 29.8183L48.5115 1.56893e-05L-1.14515e-07 29.8183Z" transform="translate(3.12207 350.396)" fill="url(#paint41_linear)"/>
<g opacity="0.4">
<path opacity="0.4" d="M169.55 60.4078L84.7751 0L0 60.4078L84.7751 120.816L169.55 60.4078Z" transform="translate(326.612 107.222)" fill="url(#paint42_linear)"/>
</g>
<g opacity="0.4">
<path opacity="0.4" d="M169.55 60.4078L84.7751 0L0 60.4078L84.7751 120.816L169.55 60.4078Z" transform="translate(326.612 0.544189)" fill="url(#paint43_linear)"/>
</g>
<path opacity="0.4" d="M7.32898e-06 0V106.678L84.7751 167.085V60.4078L7.32898e-06 0Z" transform="translate(411.387 0.544189)" fill="url(#paint44_linear)"/>
<path opacity="0.4" d="M84.7751 0V106.678L0 167.085V60.4078L84.7751 0Z" transform="translate(326.612 0.544189)" fill="url(#paint45_linear)"/>
<path opacity="0.4" d="M84.7751 0V106.678L7.32898e-06 167.085V60.4078L84.7751 0Z" transform="translate(411.387 60.9519)" fill="url(#paint46_linear)"/>
<path opacity="0.4" d="M0 0V106.678L84.7751 167.085V60.4078L0 0Z" transform="translate(326.612 60.9519)" fill="url(#paint47_linear)"/>
<path opacity="0.7" d="M0 60.4078L84.7751 120.816L169.55 60.4078L84.7751 0L0 60.4078Z" transform="translate(326.612 0.544189)" fill="url(#paint48_linear)"/>
<g opacity="0.4">
<path opacity="0.4" d="M220.463 78.6586L110.232 7.84468e-06L1.4658e-05 78.6586L110.232 157.317L220.463 78.6586Z" transform="translate(456.537 433.167)" fill="url(#paint49_linear)"/>
</g>
<g opacity="0.4">
<path opacity="0.4" d="M220.463 78.9156L110.232 -7.84467e-06L1.4658e-05 78.9156L110.232 157.574L220.463 78.9156Z" transform="translate(456.537 294.1)" fill="url(#paint50_linear)"/>
</g>
<path opacity="0.4" d="M0 -7.84467e-06V139.066L110.232 217.725V78.9157L0 -7.84467e-06Z" transform="translate(566.768 294.1)" fill="url(#paint51_linear)"/>
<path opacity="0.4" d="M110.232 -7.84467e-06V139.066L1.4658e-05 217.725V78.9157L110.232 -7.84467e-06Z" transform="translate(456.537 294.1)" fill="url(#paint52_linear)"/>
<path opacity="0.4" d="M110.232 -1.56893e-05V138.809L0 217.468V78.6586L110.232 -1.56893e-05Z" transform="translate(566.768 373.015)" fill="url(#paint53_linear)"/>
<path opacity="0.4" d="M1.4658e-05 -1.56893e-05V138.809L110.232 217.468V78.6586L1.4658e-05 -1.56893e-05Z" transform="translate(456.537 373.015)" fill="url(#paint54_linear)"/>
<path opacity="0.7" d="M1.4658e-05 78.9156L110.232 157.574L220.463 78.9156L110.232 -7.84467e-06L1.4658e-05 78.9156Z" transform="translate(456.537 294.1)" fill="url(#paint55_linear)"/>
</g>
<defs>
<linearGradient id="paint0_linear" x2="1" gradientUnits="userSpaceOnUse" gradientTransform="translate(0.0530745 -25.6116) scale(144.094 154.233)">
<stop stop-color="#00FFFF" stopOpacity="0"/>
<stop offset="1" stop-color="#00FFFF"/>
</linearGradient>
<linearGradient id="paint1_linear" x2="1" gradientUnits="userSpaceOnUse" gradientTransform="translate(0.0530745 -25.5903) scale(144.094 154.233)">
<stop stop-color="#00FFFF" stopOpacity="0"/>
<stop offset="1" stop-color="#00FFFF"/>
</linearGradient>
<linearGradient id="paint2_linear" x2="1" gradientUnits="userSpaceOnUse" gradientTransform="translate(0.0530745 32.6217) scale(72.0468 77.1163)">
<stop stop-color="#00FFFF" stopOpacity="0"/>
<stop offset="1" stop-color="#00FFFF"/>
</linearGradient>
<linearGradient id="paint3_linear" x2="1" gradientUnits="userSpaceOnUse" gradientTransform="translate(0.0530745 32.6217) scale(72.0468 77.1163)">
<stop stop-color="#00FFFF" stopOpacity="0"/>
<stop offset="1" stop-color="#00FFFF"/>
</linearGradient>
<linearGradient id="paint4_linear" x2="1" gradientUnits="userSpaceOnUse" gradientTransform="translate(-30.3167 142.245) scale(132.786 142.13) rotate(-90)">
<stop stop-color="#00FFFF" stopOpacity="0"/>
<stop offset="1" stop-color="#00FFFF"/>
</linearGradient>
<linearGradient id="paint5_linear" x2="1" gradientUnits="userSpaceOnUse" gradientTransform="translate(-30.3167 142.245) scale(132.786 142.13) rotate(-90)">
<stop stop-color="#00FFFF" stopOpacity="0"/>
<stop offset="1" stop-color="#00FFFF"/>
</linearGradient>
<linearGradient id="paint6_linear" x2="1" gradientUnits="userSpaceOnUse" gradientTransform="translate(24.0687 102.937) scale(96.0624 102.822) rotate(-90)">
<stop stop-color="#00FFFF" stopOpacity="0"/>
<stop offset="1" stop-color="#00FFFF"/>
</linearGradient>
<linearGradient id="paint7_linear" x2="1" gradientUnits="userSpaceOnUse" gradientTransform="translate(-0.102066 -25.7242) scale(144.094 154.233)">
<stop stop-color="#00FFFF" stopOpacity="0"/>
<stop offset="1" stop-color="#00FFFF"/>
</linearGradient>
<linearGradient id="paint8_linear" x2="1" gradientUnits="userSpaceOnUse" gradientTransform="translate(-0.102066 -25.7029) scale(144.094 154.233)">
<stop stop-color="#00FFFF" stopOpacity="0"/>
<stop offset="1" stop-color="#00FFFF"/>
</linearGradient>
<linearGradient id="paint9_linear" x2="1" gradientUnits="userSpaceOnUse" gradientTransform="translate(-0.102066 32.5094) scale(72.0468 77.1163)">
<stop stop-color="#00FFFF" stopOpacity="0"/>
<stop offset="1" stop-color="#00FFFF"/>
</linearGradient>
<linearGradient id="paint10_linear" x2="1" gradientUnits="userSpaceOnUse" gradientTransform="translate(-0.102066 32.5094) scale(72.0468 77.1163)">
<stop stop-color="#00FFFF" stopOpacity="0"/>
<stop offset="1" stop-color="#00FFFF"/>
</linearGradient>
<linearGradient id="paint11_linear" x2="1" gradientUnits="userSpaceOnUse" gradientTransform="translate(-30.4718 142.132) scale(132.786 142.13) rotate(-90)">
<stop stop-color="#00FFFF" stopOpacity="0"/>
<stop offset="1" stop-color="#00FFFF"/>
</linearGradient>
<linearGradient id="paint12_linear" x2="1" gradientUnits="userSpaceOnUse" gradientTransform="translate(-30.4718 142.132) scale(132.786 142.13) rotate(-90)">
<stop stop-color="#00FFFF" stopOpacity="0"/>
<stop offset="1" stop-color="#00FFFF"/>
</linearGradient>
<linearGradient id="paint13_linear" x2="1" gradientUnits="userSpaceOnUse" gradientTransform="translate(23.9135 102.824) scale(96.0624 102.822) rotate(-90)">
<stop stop-color="#00FFFF" stopOpacity="0"/>
<stop offset="1" stop-color="#00FFFF"/>
</linearGradient>
<linearGradient id="paint14_linear" x2="1" gradientUnits="userSpaceOnUse" gradientTransform="translate(-0.0958223 -18.9015) scale(105.818 113.263)">
<stop stop-color="#00FFFF" stopOpacity="0"/>
<stop offset="1" stop-color="#00FFFF"/>
</linearGradient>
<linearGradient id="paint15_linear" x2="1" gradientUnits="userSpaceOnUse" gradientTransform="translate(-0.0958223 -18.9452) scale(105.818 113.263)">
<stop stop-color="#00FFFF" stopOpacity="0"/>
<stop offset="1" stop-color="#00FFFF"/>
</linearGradient>
<linearGradient id="paint16_linear" x2="1" gradientUnits="userSpaceOnUse" gradientTransform="translate(-0.0213739 23.8037) scale(52.9088 56.6316)">
<stop stop-color="#00FFFF" stopOpacity="0"/>
<stop offset="1" stop-color="#00FFFF"/>
</linearGradient>
<linearGradient id="paint17_linear" x2="1" gradientUnits="userSpaceOnUse" gradientTransform="translate(-0.0958223 23.8037) scale(52.9088 56.6316)">
<stop stop-color="#00FFFF" stopOpacity="0"/>
<stop offset="1" stop-color="#00FFFF"/>
</linearGradient>
<linearGradient id="paint18_linear" x2="1" gradientUnits="userSpaceOnUse" gradientTransform="translate(-22.3241 104.275) scale(97.5137 104.375) rotate(-90)">
<stop stop-color="#00FFFF" stopOpacity="0"/>
<stop offset="1" stop-color="#00FFFF"/>
</linearGradient>
<linearGradient id="paint19_linear" x2="1" gradientUnits="userSpaceOnUse" gradientTransform="translate(-22.3983 104.275) scale(97.5137 104.375) rotate(-90)">
<stop stop-color="#00FFFF" stopOpacity="0"/>
<stop offset="1" stop-color="#00FFFF"/>
</linearGradient>
<linearGradient id="paint20_linear" x2="1" gradientUnits="userSpaceOnUse" gradientTransform="translate(17.5405 75.4408) scale(70.5449 75.5087) rotate(-90)">
<stop stop-color="#00FFFF" stopOpacity="0"/>
<stop offset="1" stop-color="#00FFFF"/>
</linearGradient>
<linearGradient id="paint21_linear" x2="1" gradientUnits="userSpaceOnUse" gradientTransform="translate(-0.0451493 -15.8218) scale(88.7437 94.988)">
<stop stop-color="#00FFFF" stopOpacity="0"/>
<stop offset="1" stop-color="#00FFFF"/>
</linearGradient>
<linearGradient id="paint22_linear" x2="1" gradientUnits="userSpaceOnUse" gradientTransform="translate(-0.0451493 -15.9126) scale(88.7437 94.988)">
<stop stop-color="#00FFFF" stopOpacity="0"/>
<stop offset="1" stop-color="#00FFFF"/>
</linearGradient>
<linearGradient id="paint23_linear" x2="1" gradientUnits="userSpaceOnUse" gradientTransform="translate(-0.102066 19.9389) scale(44.3717 47.4939)">
<stop stop-color="#00FFFF" stopOpacity="0"/>
<stop offset="1" stop-color="#00FFFF"/>
</linearGradient>
<linearGradient id="paint24_linear" x2="1" gradientUnits="userSpaceOnUse" gradientTransform="translate(-0.0451493 19.9388) scale(44.372 47.4941)">
<stop stop-color="#00FFFF" stopOpacity="0"/>
<stop offset="1" stop-color="#00FFFF"/>
</linearGradient>
<linearGradient id="paint25_linear" x2="1" gradientUnits="userSpaceOnUse" gradientTransform="translate(-18.8061 87.4979) scale(81.7799 87.5342) rotate(-90)">
<stop stop-color="#00FFFF" stopOpacity="0"/>
<stop offset="1" stop-color="#00FFFF"/>
</linearGradient>
<linearGradient id="paint26_linear" x2="1" gradientUnits="userSpaceOnUse" gradientTransform="translate(-18.7492 87.4979) scale(81.7799 87.5342) rotate(-90)">
<stop stop-color="#00FFFF" stopOpacity="0"/>
<stop offset="1" stop-color="#00FFFF"/>
</linearGradient>
<linearGradient id="paint27_linear" x2="1" gradientUnits="userSpaceOnUse" gradientTransform="translate(14.7456 63.2441) scale(59.1624 63.3253) rotate(-90)">
<stop stop-color="#00FFFF" stopOpacity="0"/>
<stop offset="1" stop-color="#00FFFF"/>
</linearGradient>
<linearGradient id="paint28_linear" x2="1" gradientUnits="userSpaceOnUse" gradientTransform="translate(0 -27.9975) scale(156.858 167.895)">
<stop stop-color="#00FFFF" stopOpacity="0"/>
<stop offset="1" stop-color="#00FFFF"/>
</linearGradient>
<linearGradient id="paint29_linear" x2="1" gradientUnits="userSpaceOnUse" gradientTransform="translate(0 -28.0435) scale(156.858 167.895)">
<stop stop-color="#00FFFF" stopOpacity="0"/>
<stop offset="1" stop-color="#00FFFF"/>
</linearGradient>
<linearGradient id="paint30_linear" x2="1" gradientUnits="userSpaceOnUse" gradientTransform="translate(-0.102066 35.3252) scale(78.4287 83.9472)">
<stop stop-color="#00FFFF" stopOpacity="0"/>
<stop offset="1" stop-color="#00FFFF"/>
</linearGradient>
<linearGradient id="paint31_linear" x2="1" gradientUnits="userSpaceOnUse" gradientTransform="translate(0 35.325) scale(78.429 83.9475)">
<stop stop-color="#00FFFF" stopOpacity="0"/>
<stop offset="1" stop-color="#00FFFF"/>
</linearGradient>
<linearGradient id="paint32_linear" x2="1" gradientUnits="userSpaceOnUse" gradientTransform="translate(-33.1621 154.843) scale(144.549 154.72) rotate(-90)">
<stop stop-color="#00FFFF" stopOpacity="0"/>
<stop offset="1" stop-color="#00FFFF"/>
</linearGradient>
<linearGradient id="paint33_linear" x2="1" gradientUnits="userSpaceOnUse" gradientTransform="translate(-33.06 154.843) scale(144.549 154.72) rotate(-90)">
<stop stop-color="#00FFFF" stopOpacity="0"/>
<stop offset="1" stop-color="#00FFFF"/>
</linearGradient>
<linearGradient id="paint34_linear" x2="1" gradientUnits="userSpaceOnUse" gradientTransform="translate(26.1431 111.869) scale(104.572 111.93) rotate(-90)">
<stop stop-color="#00FFFF" stopOpacity="0"/>
<stop offset="1" stop-color="#00FFFF"/>
</linearGradient>
<linearGradient id="paint35_linear" x2="1" gradientUnits="userSpaceOnUse" gradientTransform="translate(0.0285786 -22.0195) scale(96.8924 103.71)">
<stop stop-color="#00FFFF" stopOpacity="0"/>
<stop offset="1" stop-color="#00FFFF"/>
</linearGradient>
<linearGradient id="paint36_linear" x2="1" gradientUnits="userSpaceOnUse" gradientTransform="translate(0.0285786 -22.0455) scale(96.8924 103.71)">
<stop stop-color="#00FFFF" stopOpacity="0"/>
<stop offset="1" stop-color="#00FFFF"/>
</linearGradient>
<linearGradient id="paint37_linear" x2="1" gradientUnits="userSpaceOnUse" gradientTransform="translate(-0.0367439 15.2485) scale(48.4462 51.8551)">
<stop stop-color="#00FFFF" stopOpacity="0"/>
<stop offset="1" stop-color="#00FFFF"/>
</linearGradient>
<linearGradient id="paint38_linear" x2="1" gradientUnits="userSpaceOnUse" gradientTransform="translate(0.0285786 15.2485) scale(48.4462 51.8551)">
<stop stop-color="#00FFFF" stopOpacity="0"/>
<stop offset="1" stop-color="#00FFFF"/>
</linearGradient>
<linearGradient id="paint39_linear" x2="1" gradientUnits="userSpaceOnUse" gradientTransform="translate(-14.2106 82.1887) scale(76.794 82.1975) rotate(-90)">
<stop stop-color="#00FFFF" stopOpacity="0"/>
<stop offset="1" stop-color="#00FFFF"/>
</linearGradient>
<linearGradient id="paint40_linear" x2="1" gradientUnits="userSpaceOnUse" gradientTransform="translate(-14.1453 82.1887) scale(76.794 82.1975) rotate(-90)">
<stop stop-color="#00FFFF" stopOpacity="0"/>
<stop offset="1" stop-color="#00FFFF"/>
</linearGradient>
<linearGradient id="paint41_linear" x2="1" gradientUnits="userSpaceOnUse" gradientTransform="translate(20.697 59.5417) scale(55.5555 59.4646) rotate(-90)">
<stop stop-color="#00FFFF" stopOpacity="0"/>
<stop offset="1" stop-color="#00FFFF"/>
</linearGradient>
<linearGradient id="paint42_linear" x2="1" gradientUnits="userSpaceOnUse" gradientTransform="translate(0.102066 -30.2679) scale(169.352 181.268)">
<stop stop-color="#00FFFF" stopOpacity="0"/>
<stop offset="1" stop-color="#00FFFF"/>
</linearGradient>
<linearGradient id="paint43_linear" x2="1" gradientUnits="userSpaceOnUse" gradientTransform="translate(0.102066 -30.2113) scale(169.352 181.268)">
<stop stop-color="#00FFFF" stopOpacity="0"/>
<stop offset="1" stop-color="#00FFFF"/>
</linearGradient>
<linearGradient id="paint44_linear" x2="1" gradientUnits="userSpaceOnUse" gradientTransform="translate(0.00288187 38.2048) scale(84.6759 90.634)">
<stop stop-color="#00FFFF" stopOpacity="0"/>
<stop offset="1" stop-color="#00FFFF"/>
</linearGradient>
<linearGradient id="paint45_linear" x2="1" gradientUnits="userSpaceOnUse" gradientTransform="translate(0.102066 38.2048) scale(84.6759 90.634)">
<stop stop-color="#00FFFF" stopOpacity="0"/>
<stop offset="1" stop-color="#00FFFF"/>
</linearGradient>
<linearGradient id="paint46_linear" x2="1" gradientUnits="userSpaceOnUse" gradientTransform="translate(-35.6903 167.059) scale(156.063 167.044) rotate(-90)">
<stop stop-color="#00FFFF" stopOpacity="0"/>
<stop offset="1" stop-color="#00FFFF"/>
</linearGradient>
<linearGradient id="paint47_linear" x2="1" gradientUnits="userSpaceOnUse" gradientTransform="translate(-35.5911 167.059) scale(156.063 167.044) rotate(-90)">
<stop stop-color="#00FFFF" stopOpacity="0"/>
<stop offset="1" stop-color="#00FFFF"/>
</linearGradient>
<linearGradient id="paint48_linear" x2="1" gradientUnits="userSpaceOnUse" gradientTransform="translate(28.3274 120.845) scale(112.901 120.845) rotate(-90)">
<stop stop-color="#00FFFF" stopOpacity="0"/>
<stop offset="1" stop-color="#00FFFF"/>
</linearGradient>
<linearGradient id="paint49_linear" x2="1" gradientUnits="userSpaceOnUse" gradientTransform="translate(-0.115995 -39.4526) scale(220.526 236.043)">
<stop stop-color="#00FFFF" stopOpacity="0"/>
<stop offset="1" stop-color="#00FFFF"/>
</linearGradient>
<linearGradient id="paint50_linear" x2="1" gradientUnits="userSpaceOnUse" gradientTransform="translate(-0.115995 -39.2256) scale(220.526 236.043)">
<stop stop-color="#00FFFF" stopOpacity="0"/>
<stop offset="1" stop-color="#00FFFF"/>
</linearGradient>
<linearGradient id="paint51_linear" x2="1" gradientUnits="userSpaceOnUse" gradientTransform="translate(-0.0842948 49.8645) scale(110.263 118.022)">
<stop stop-color="#00FFFF" stopOpacity="0"/>
<stop offset="1" stop-color="#00FFFF"/>
</linearGradient>
<linearGradient id="paint52_linear" x2="1" gradientUnits="userSpaceOnUse" gradientTransform="translate(-0.115995 49.8644) scale(110.263 118.022)">
<stop stop-color="#00FFFF" stopOpacity="0"/>
<stop offset="1" stop-color="#00FFFF"/>
</linearGradient>
<linearGradient id="paint53_linear" x2="1" gradientUnits="userSpaceOnUse" gradientTransform="translate(-46.5635 217.401) scale(203.221 217.521) rotate(-90)">
<stop stop-color="#00FFFF" stopOpacity="0"/>
<stop offset="1" stop-color="#00FFFF"/>
</linearGradient>
<linearGradient id="paint54_linear" x2="1" gradientUnits="userSpaceOnUse" gradientTransform="translate(-46.595 217.401) scale(203.221 217.521) rotate(-90)">
<stop stop-color="#00FFFF" stopOpacity="0"/>
<stop offset="1" stop-color="#00FFFF"/>
</linearGradient>
<linearGradient id="paint55_linear" x2="1" gradientUnits="userSpaceOnUse" gradientTransform="translate(36.6386 157.477) scale(147.018 157.362) rotate(-90)">
<stop stop-color="#00FFFF" stopOpacity="0"/>
<stop offset="1" stop-color="#00FFFF"/>
</linearGradient>
</defs>
</svg>
