<svg viewBox="0 0 171 285" fill="none" xmlns="http://www.w3.org/2000/svg"><path opacity=".25" d="M87 259.75l-76-50.5 76-50.5 76 50.5-76 50.5z" stroke="#3FFFC0" stroke-opacity=".4" stroke-miterlimit="10" stroke-linecap="round"/><path opacity=".5" d="M87 234.5L11 184l76-50.5 76 50.5-76 50.5z" stroke="#3FFFC0" stroke-opacity=".4" stroke-miterlimit="10" stroke-linecap="round"/><path opacity=".75" d="M87 209.25l-76-50.5 76-50.5 76 50.5-76 50.5z" stroke="#3FFFC0" stroke-opacity=".4" stroke-miterlimit="10" stroke-linecap="round"/><path d="M11 133.5L87 83l76 50.5L87 184l-76-50.5z" stroke="#3FFFC0" stroke-opacity=".4" stroke-miterlimit="10" stroke-linecap="round"/><path opacity=".4" d="M135 44.89L67.5 0 0 44.89l67.5 44.88L135 44.9z" transform="matrix(-1 0 0 1 153 80.23)" fill="url(#paint0_linear)"/><path opacity=".4" d="M135 44.89L67.5 0 0 44.89l67.5 44.88L135 44.9z" transform="matrix(-1 0 0 1 153 1)" fill="url(#paint1_linear)"/><path opacity=".4" d="M0 0v79.23l67.5 44.88V44.9L0 0z" transform="matrix(-1 0 0 1 85.5 1)" fill="url(#paint2_linear)"/><path opacity=".4" d="M67.5 0v79.23L0 124.1V44.9L67.5 0z" transform="matrix(-1 0 0 1 153 1)" fill="url(#paint3_linear)"/><path opacity=".7" d="M0 44.89l67.5 44.88L135 44.9 67.5 0 0 44.89z" transform="matrix(-1 0 0 1 153 1)" fill="url(#paint4_linear)"/><g filter="url(#filter0_f)"><ellipse cx="31.04" cy="30.92" rx="31.04" ry="30.92" transform="matrix(-1 0 0 1 116.9 54.94)" fill="#3FFFC0"/></g><path opacity=".4" d="M67.5 0v79.23L0 124.1V44.9L67.5 0z" transform="matrix(-1 0 0 1 85.5 45.89)" fill="url(#paint5_linear)"/><path opacity=".4" d="M0 0v79.23l67.5 44.88V44.9L0 0z" transform="matrix(-1 0 0 1 153 45.89)" fill="url(#paint6_linear)"/><defs><filter id="filter0_f" x=".82" y=".94" width="170.09" height="169.85" filterUnits="userSpaceOnUse" color-interpolation-filters="sRGB"><feFlood flood-opacity="0" result="BackgroundImageFix"/><feBlend in="SourceGraphic" in2="BackgroundImageFix" result="shape"/><feGaussianBlur stdDeviation="27" result="effect1_foregroundBlur"/></filter><linearGradient id="paint0_linear" x2="1" gradientUnits="userSpaceOnUse" gradientTransform="matrix(135 0 0 48.702 0 20.53)"><stop stop-color="#80FF81"/><stop offset="1" stop-color="#8C00FF"/></linearGradient><linearGradient id="paint1_linear" x2="1" gradientUnits="userSpaceOnUse" gradientTransform="matrix(135 0 0 48.702 0 20.53)"><stop stop-color="#80FF81"/><stop offset="1" stop-color="#8C00FF"/></linearGradient><linearGradient id="paint2_linear" x2="1" gradientUnits="userSpaceOnUse" gradientTransform="matrix(67.5 0 0 67.3305 0 28.38)"><stop stop-color="#80FF81"/><stop offset="1" stop-color="#8C00FF"/></linearGradient><linearGradient id="paint3_linear" x2="1" gradientUnits="userSpaceOnUse" gradientTransform="matrix(67.5 0 0 67.3305 0 28.38)"><stop stop-color="#80FF81"/><stop offset="1" stop-color="#8C00FF"/></linearGradient><linearGradient id="paint4_linear" x2="1" gradientUnits="userSpaceOnUse" gradientTransform="matrix(0 -135.084 49.0217 0 43.34 117.47)"><stop stop-color="#80FF81"/><stop offset="1" stop-color="#8C00FF"/></linearGradient><linearGradient id="paint5_linear" x2="1" gradientUnits="userSpaceOnUse" gradientTransform="matrix(0 -62.2149 62.4272 0 36.29 124.26)"><stop stop-color="#80FF81"/><stop offset="1" stop-color="#8C00FF"/></linearGradient><linearGradient id="paint6_linear" x2="1" gradientUnits="userSpaceOnUse" gradientTransform="matrix(0 -62.2149 62.4272 0 36.29 124.26)"><stop stop-color="#80FF81"/><stop offset="1" stop-color="#8C00FF"/></linearGradient></defs></svg>