<svg xmlns="http://www.w3.org/2000/svg" viewBox="0 0 512 505.8"><title>3_lustra</title><path d="M94.4,77.4a15.7,15.7,0,0,0,9.7,3.4h1.8a15.8,15.8,0,0,0,10.5-5.9,15.5,15.5,0,0,0,3.2-7.7l16.5,2.4a10.9,10.9,0,0,0,3.9,9.7,10.6,10.6,0,0,0,14.9-1.7,10.3,10.3,0,0,0,2.2-7.9,8.3,8.3,0,0,0-1-3.5l8.5-4,.3-.2.4-.2,8.3-4.2a10.6,10.6,0,0,0,20.2-4.5,10.4,10.4,0,0,0-5.1-9.1l8.5-14.5a16,16,0,0,0,7.9,2.1,15.7,15.7,0,0,0,15.6-15.8,15.6,15.6,0,1,0-31.2.1,15.6,15.6,0,0,0,7,13.2l-8.4,14.5a11.1,11.1,0,0,0-4.9-1.2,10.7,10.7,0,0,0-10.5,10.7,9.2,9.2,0,0,0,.7,3.8l-8.8,4.5-8.8,4.1a8.9,8.9,0,0,0-2.6-2.9,10.3,10.3,0,0,0-14.8,1.7,8.9,8.9,0,0,0-2.1,4.5l-16.5-2.3a17.1,17.1,0,0,0,0-3.2A15.7,15.7,0,0,0,114,52.7a15,15,0,0,0-11.5-3.4A15.6,15.6,0,0,0,92,55.2a15.3,15.3,0,0,0-3.4,11.6A15.7,15.7,0,0,0,94.4,77.4Zm95.9-61.5a14.9,14.9,0,1,1,29.7,0,14.9,14.9,0,1,1-29.7,0Zm-7.1,27.3a9.9,9.9,0,1,1-9.7,9.9A9.8,9.8,0,0,1,183.2,43.2ZM138.9,64.8a9.9,9.9,0,0,1,6.6-3.7,9.9,9.9,0,0,1,8.9,16,9.8,9.8,0,0,1-13.8,1.6A10,10,0,0,1,138.9,64.8ZM92.5,55.6a14.6,14.6,0,0,1,10-5.5h1.6a14.9,14.9,0,0,1,14.8,13.4,15,15,0,0,1-3.2,11,14.8,14.8,0,0,1-10,5.6,14.4,14.4,0,0,1-10.9-3.3A15.1,15.1,0,0,1,92.5,55.6Z" transform="translate(0 0)" style="fill:#8000ff"/><path d="M15.7,272a22.1,22.1,0,0,0,3.5-.4,16,16,0,0,0,11.8-19,16.2,16.2,0,0,0-3.9-7.3l12.1-11.6a10.7,10.7,0,0,0,7.5,3.2,9.7,9.7,0,0,0,2.4-.2,10.3,10.3,0,0,0,6.6-4.7,11.3,11.3,0,0,0,1.4-8.2,10.5,10.5,0,0,0-8.1-8l2.2-9.2V206l1.9-9.3a9.9,9.9,0,0,0,2.4.3,10.7,10.7,0,0,0,6.6-19.1,10.4,10.4,0,0,0-10.1-1.7l-6-15.7a14.2,14.2,0,0,0,6.6-4.9,16.1,16.1,0,0,0-2.5-22.3A15.3,15.3,0,0,0,38.8,130a15.1,15.1,0,0,0-10.5,5.8A15.9,15.9,0,0,0,30.7,158a15.1,15.1,0,0,0,9.8,3.5,13.1,13.1,0,0,0,4.8-.8l6,15.8a10.6,10.6,0,0,0-4,3A10.8,10.8,0,0,0,49,194.6a14.1,14.1,0,0,0,3.4,1.9l-2,9.6-2.3,9.6a8.1,8.1,0,0,0-3.8.2,10.6,10.6,0,0,0-8,12.8,11.2,11.2,0,0,0,2.2,4.5l-12,11.6a15.5,15.5,0,0,0-14.3-4.1,16,16,0,0,0-9.8,7,16.2,16.2,0,0,0-2,12A15.8,15.8,0,0,0,15.7,272ZM31.4,157.3A15.1,15.1,0,0,1,29,136.2a14.6,14.6,0,0,1,9.9-5.5h1.7a14,14,0,0,1,9.2,3.3,14.9,14.9,0,1,1-18.4,23.4Zm16.7,22.6a9.9,9.9,0,0,1,15.4,12.4A9.7,9.7,0,0,1,49.8,194,10.1,10.1,0,0,1,48.1,179.9Zm-3.5,36.7a7.8,7.8,0,0,1,2.2-.3,9.1,9.1,0,0,1,5.2,1.6A10,10,0,0,1,49,236a9.9,9.9,0,0,1-4.4-19.4ZM3.1,248.1a14.9,14.9,0,0,1,9.3-6.6,13.2,13.2,0,0,1,3.4-.4,15,15,0,0,1,14.5,11.6,15.2,15.2,0,0,1-11.2,18.1,14.7,14.7,0,0,1-11.2-2,15,15,0,0,1-6.6-9.4A14.5,14.5,0,0,1,3.1,248.1Z" transform="translate(0 0)" style="fill:#8000ff"/><path d="M48.6,275.3a7.9,7.9,0,0,0-4.1,2.5L27.6,266.3l-.4.7L44,278.3a7.8,7.8,0,0,0-1.4,6.6,8.9,8.9,0,0,0,3.5,5,8.1,8.1,0,0,0,4.2,1.2h1.5l2.1,9.5,2,8.7a7.8,7.8,0,0,0-4.6,3.4,8.8,8.8,0,0,0-1.1,6.1,8.6,8.6,0,0,0,4,5.4L44,341.7l.7.4L55,324.4a8,8,0,0,0,3,.6l1.8-.2a8.3,8.3,0,0,0,5-3.6,8.1,8.1,0,0,0,1-6.1,8.1,8.1,0,0,0-9.1-6.2l-2.2-9.5-2-8.7a7.8,7.8,0,0,0,4.7-3.4,8.5,8.5,0,0,0,1-6.2A8,8,0,0,0,48.6,275.3Zm9.5,34.4a6.6,6.6,0,0,1,3.8,1.2,7.1,7.1,0,0,1,3.2,4.5,7.3,7.3,0,0,1-.9,5.4,7.8,7.8,0,0,1-4.5,3.3,7.3,7.3,0,0,1-8.6-5.5,7.4,7.4,0,0,1,5.4-8.7Zm-.6-28.2a7.6,7.6,0,0,1-5.4,8.7,7.3,7.3,0,0,1-8.6-5.5,7.2,7.2,0,0,1,5.4-8.7,4.1,4.1,0,0,1,1.6-.2A7.4,7.4,0,0,1,57.5,281.5Z" transform="translate(0 0)" style="fill:#8000ff"/><path d="M115,431a16.2,16.2,0,0,0-8-1.6l-1.4-16.7a7.6,7.6,0,0,0,2.5-.6,10.5,10.5,0,0,0,6.1-5.4,11.1,11.1,0,0,0,.4-8.2,10.1,10.1,0,0,0-5.4-6.2,11.3,11.3,0,0,0-8.1-.5,16.5,16.5,0,0,0-3.2,1.8l-5.7-7.5-.2-.2-.3-.3-6-7.3a11,11,0,0,0,3.9-10.8,10.6,10.6,0,0,0-20.4-1.1l-15.9-5.1a15.7,15.7,0,0,0-6.6-18.2,15.5,15.5,0,0,0-11.7-2A15.8,15.8,0,0,0,23.2,360a15.7,15.7,0,0,0,15.3,12.4A22.1,22.1,0,0,0,42,372a16.6,16.6,0,0,0,9.8-7l1.4-2.9,15.9,5a10.9,10.9,0,0,0-.1,5.1,10.7,10.7,0,0,0,10.4,8.4,9.9,9.9,0,0,0,2.4-.3,11.9,11.9,0,0,0,3.5-1.5l6.2,7.7,5.9,7.8a14.7,14.7,0,0,0-2.3,3.1,11.1,11.1,0,0,0-.4,8.2,9.9,9.9,0,0,0,5.4,6.1,9.2,9.2,0,0,0,4.6,1.1h.3l1.4,16.8a15.7,15.7,0,0,0-12.1,8.8,16.1,16.1,0,0,0,7.4,21.2,15.7,15.7,0,0,0,6.7,1.6,18.3,18.3,0,0,0,5.2-.9,15.4,15.4,0,0,0,8.9-8.1,15.6,15.6,0,0,0,.7-12A16.2,16.2,0,0,0,115,431ZM51,364.6a15.1,15.1,0,0,1-9.4,6.6A14.9,14.9,0,0,1,23.8,360,15.2,15.2,0,0,1,35,341.9a18.6,18.6,0,0,1,3.3-.4,14.1,14.1,0,0,1,7.9,2.4,15,15,0,0,1,6.6,9.4A15.5,15.5,0,0,1,51,364.6Zm30.4,14.9A9.8,9.8,0,0,1,69.6,372,10,10,0,0,1,77,360.1a10.1,10.1,0,0,1,7.4,1.3,10.7,10.7,0,0,1,4.4,6.2A10,10,0,0,1,81.4,379.5Zm18.8,31.4a9.5,9.5,0,0,1-5-5.6,10,10,0,0,1,.4-7.6,9.2,9.2,0,0,1,5.6-5,8.7,8.7,0,0,1,3.2-.6,9.4,9.4,0,0,1,4.3,1,9.5,9.5,0,0,1,5,5.6,10,10,0,0,1-.4,7.6A9.6,9.6,0,0,1,100.2,410.9Zm21.4,40.8a14.3,14.3,0,0,1-8.5,7.7,14.9,14.9,0,0,1-18.3-20.7,14.9,14.9,0,0,1,13.4-8.5,16.1,16.1,0,0,1,6.4,1.4,15,15,0,0,1,7.6,8.6A15.3,15.3,0,0,1,121.6,451.7Z" transform="translate(0 0)" style="fill:#8000ff"/><path d="M317.3,475a15.6,15.6,0,0,0-12,.7,16.1,16.1,0,0,0-6.2,5.4l-13.8-9.4a9.1,9.1,0,0,0,1.1-2.2,10.8,10.8,0,0,0-6.5-13.7,9.9,9.9,0,0,0-8.1.5,10.4,10.4,0,0,0-5.5,6.1,9,9,0,0,0-.5,3.6l-9.4-.2h-.6l-9.4.2a11.3,11.3,0,0,0-.6-3.6,10.2,10.2,0,0,0-5.4-6.1,10.4,10.4,0,0,0-8.1-.5,10.5,10.5,0,0,0-6.1,5.4,11.3,11.3,0,0,0-.4,8.3,9.1,9.1,0,0,0,1.1,2.2L213,481.1a14.2,14.2,0,0,0-6.2-5.4,14.9,14.9,0,0,0-11.9-.7,15.4,15.4,0,0,0-8.9,8.1,15.2,15.2,0,0,0-.7,12,16.3,16.3,0,0,0,8,9.1,15.7,15.7,0,0,0,6.7,1.6,18.3,18.3,0,0,0,5.2-.9,15.4,15.4,0,0,0,8.9-8.1,15.2,15.2,0,0,0,.7-12,11.2,11.2,0,0,0-1.4-2.9l13.9-9.4a10.2,10.2,0,0,0,3.9,3.2,9.2,9.2,0,0,0,4.6,1.1,11.1,11.1,0,0,0,9.5-6.1,12.7,12.7,0,0,0,1.1-3.8l9.7-.2,9.7.2a12.6,12.6,0,0,0,1,3.8,10.5,10.5,0,0,0,6.1,5.4,10.4,10.4,0,0,0,3.5.7,9.5,9.5,0,0,0,4.6-1.1,10,10,0,0,0,3.9-3.2l13.8,9.4a12.8,12.8,0,0,0-1.3,2.9,15.8,15.8,0,0,0,9.5,20.1,18.9,18.9,0,0,0,5.2.9,16.5,16.5,0,0,0,6.8-1.6,15.9,15.9,0,0,0-1.6-29.2ZM213.4,496.4a14.6,14.6,0,0,1-19.8,7,14.4,14.4,0,0,1-7.6-8.6,15.3,15.3,0,0,1,.7-11.5,15.2,15.2,0,0,1,13.4-8.5,14.7,14.7,0,0,1,6.5,1.5A15.3,15.3,0,0,1,213.4,496.4Zm31.2-26.1a9.8,9.8,0,0,1-13.1,4.6,9.2,9.2,0,0,1-5-5.6,10,10,0,0,1,.4-7.6,9.7,9.7,0,0,1,8.8-5.6,9,9,0,0,1,4.2,1,9.2,9.2,0,0,1,5,5.6A9.6,9.6,0,0,1,244.6,470.3Zm36.1,4.6a10.2,10.2,0,0,1-7.5.4,9.7,9.7,0,0,1-5.6-5.1,10,10,0,0,1-.4-7.6,9.5,9.5,0,0,1,5-5.6,9.4,9.4,0,0,1,4.3-1,8.7,8.7,0,0,1,3.2.6,9.4,9.4,0,0,1,5.6,5.1,9.8,9.8,0,0,1,.4,7.5A10.4,10.4,0,0,1,280.7,474.9Zm37.9,28.6a14.8,14.8,0,0,1-19.9-7,15.1,15.1,0,0,1,7-20,14.4,14.4,0,0,1,6.4-1.6,17,17,0,0,1,5,.9,14.9,14.9,0,0,1,8.5,7.7A15.1,15.1,0,0,1,318.6,503.5Z" transform="translate(0 0)" style="fill:#8000ff"/><path d="M477.3,341.1a15.7,15.7,0,0,0-11.8,2,15.9,15.9,0,0,0-6.9,9.9,15.5,15.5,0,0,0,.3,8.3l-15.8,5.1a10.6,10.6,0,1,0-16.6,11.9l-6,7.3-.2.3-.2.2-5.8,7.5a10.6,10.6,0,0,0-16.7,4.8,10.2,10.2,0,0,0,.5,8.2,10.5,10.5,0,0,0,6,5.5,10.1,10.1,0,0,0,2.5.5l-1.4,16.8a14.2,14.2,0,0,0-8,1.5,16.1,16.1,0,0,0-8,9,16.3,16.3,0,0,0,.7,12.1,15.7,15.7,0,0,0,14.1,8.9,14.4,14.4,0,0,0,6.7-1.6,16.1,16.1,0,0,0,7.4-21.2,16.4,16.4,0,0,0-9-8,10.8,10.8,0,0,0-3.1-.7l1.4-16.9h.3a10.6,10.6,0,0,0,4.6-1,10.2,10.2,0,0,0,5.4-6.1,10.6,10.6,0,0,0-.4-8.2A12.4,12.4,0,0,0,415,394l5.9-7.8,6.2-7.6a11.9,11.9,0,0,0,3.5,1.5,9.7,9.7,0,0,0,2.4.2,10.6,10.6,0,0,0,10.4-8.3,11,11,0,0,0-.1-5.1l15.9-5.1a25.9,25.9,0,0,0,1.4,2.9,15.8,15.8,0,0,0,9.8,7,13.9,13.9,0,0,0,3.5.4,15.8,15.8,0,0,0,15.3-12.3A16,16,0,0,0,477.3,341.1Zm-60,97.6a15.2,15.2,0,0,1-7,20.1,15,15,0,0,1-19.9-7.1,15.1,15.1,0,0,1,7-20,15.1,15.1,0,0,1,19.9,7Zm-.8-41a10.5,10.5,0,0,1,.4,7.6,9.9,9.9,0,0,1-5,5.6,9.4,9.4,0,0,1-7.5.4,9.5,9.5,0,0,1-5.6-5,10,10,0,0,1-.4-7.6,9.5,9.5,0,0,1,5-5.6,9.2,9.2,0,0,1,4.2-1A9.9,9.9,0,0,1,416.5,397.7Zm26-25.6a9.9,9.9,0,0,1-11.8,7.5,10.1,10.1,0,0,1-6.1-4.4,10.4,10.4,0,0,1-1.3-7.5,10,10,0,0,1,4.4-6.2,9.5,9.5,0,0,1,5.2-1.5,8.6,8.6,0,0,1,2.2.2A9.8,9.8,0,0,1,442.5,372.1ZM488.3,360a14.9,14.9,0,0,1-17.9,11.2,14.5,14.5,0,0,1-9.3-6.6,15.2,15.2,0,0,1,4.7-20.8,14.9,14.9,0,0,1,7.9-2.4,12.6,12.6,0,0,1,3.3.5,14.7,14.7,0,0,1,9.4,6.6A15.9,15.9,0,0,1,488.3,360Z" transform="translate(0 0)" style="fill:#8000ff"/><path d="M459.3,155.5a16.8,16.8,0,0,0,6.6,4.9l-6,15.7-2.4-.6a10.7,10.7,0,0,0-9.4,17.3,10.1,10.1,0,0,0,7.1,4h1.1a7.3,7.3,0,0,0,2.5-.4l1.9,9.3v.7l2.2,9.2a10.7,10.7,0,0,0-8.1,8,11.2,11.2,0,0,0,1.3,8.2,10.7,10.7,0,0,0,6.7,4.7,8.5,8.5,0,0,0,2.3.3,10.4,10.4,0,0,0,7.6-3.3L485,245.2a16.5,16.5,0,0,0-3.9,7.4,15.7,15.7,0,0,0,11.8,18.9,20.9,20.9,0,0,0,3.5.4,15.4,15.4,0,0,0,8.3-2.4,16.3,16.3,0,0,0,6.9-9.9,16,16,0,0,0-2-11.9,15.6,15.6,0,0,0-24.1-3l-12.1-11.6a11.8,11.8,0,0,0,2.2-4.5,10.8,10.8,0,0,0-8-12.9,12.2,12.2,0,0,0-3.8-.2l-2.3-9.5-2-9.7a10.9,10.9,0,0,0,3.5-1.9,10.7,10.7,0,0,0,1.6-15,9.4,9.4,0,0,0-4-3.1l6-15.7a17.3,17.3,0,0,0,3.1.7h1.8a15.7,15.7,0,0,0,9.7-3.4,16,16,0,0,0,2.4-22.3,15.4,15.4,0,0,0-21.9-2.4A15.9,15.9,0,0,0,459.3,155.5Zm29.3,87.9a14.8,14.8,0,0,1,7.9-2.3,12.4,12.4,0,0,1,3.3.4,14.3,14.3,0,0,1,9.3,6.6,15.2,15.2,0,0,1-4.7,20.8,14.2,14.2,0,0,1-11.2,1.9,14.9,14.9,0,0,1-11.1-18A14.6,14.6,0,0,1,488.6,243.4Zm-21-26.8a9.7,9.7,0,0,1,6.1,4.4,10.4,10.4,0,0,1,1.3,7.5,9.9,9.9,0,0,1-11.8,7.5,9.8,9.8,0,0,1-6.1-4.4,9.6,9.6,0,0,1-1.3-7.5,9.3,9.3,0,0,1,4.4-6.2,8.8,8.8,0,0,1,5.1-1.6A8.5,8.5,0,0,1,467.6,216.6ZM464,179.9a10.1,10.1,0,0,1-1.6,14,9.5,9.5,0,0,1-7.2,2.1,10.3,10.3,0,0,1-6.7-3.7,10.1,10.1,0,0,1,1.6-14,9.7,9.7,0,0,1,7.3-2.1A10.5,10.5,0,0,1,464,179.9Zm-1.8-46.1a14.7,14.7,0,0,1,9.3-3.3,15,15,0,1,1-1.7,30,15.2,15.2,0,0,1-10-5.6A15.4,15.4,0,0,1,462.2,133.8Z" transform="translate(0 0)" style="fill:#8000ff"/><path d="M418,122.4l-5.5-7a8,8,0,0,0,.9-11.1,7.6,7.6,0,0,0-5.3-3h-.5l1.7-20.4h-.8l-1.7,20.5a8,8,0,0,0-4.6,1.8,7.7,7.7,0,0,0-2.9,5.4,7.9,7.9,0,0,0,7,8.9h.9a8,8,0,0,0,4.6-1.6l5.9,7.6,5.5,7a7.9,7.9,0,0,0-2.6,5.2,8.4,8.4,0,0,0,1.7,5.9,7.6,7.6,0,0,0,5.3,3h.9a8,8,0,0,0,4.9-1.8,7.6,7.6,0,0,0,2.7-4.1l20.2,2.8v-.8l-20-2.8c0-.2.1-.4.1-.6a8.4,8.4,0,0,0-1.7-5.9,8,8,0,0,0-5.3-3,8.6,8.6,0,0,0-5.6,1.4Zm-11.6-5.8a7.3,7.3,0,0,1-4.8-2.7,6.7,6.7,0,0,1-1.5-5.3,7.4,7.4,0,0,1,2.6-4.8,6.9,6.9,0,0,1,4.5-1.6h.8a7.2,7.2,0,0,1,4.7,2.6,7.3,7.3,0,0,1-1.1,10.2A6.9,6.9,0,0,1,406.4,116.6Zm23,12.7a6.9,6.9,0,0,1,4.7,2.7,7.2,7.2,0,0,1,1.6,5.3,7.5,7.5,0,0,1-2.7,4.8,6.6,6.6,0,0,1-5.2,1.5A7.4,7.4,0,0,1,423,141a6.8,6.8,0,0,1-1.5-5.3,7.1,7.1,0,0,1,7.1-6.5Z" transform="translate(0 0)" style="fill:#8000ff"/><path d="M307,31.6a16,16,0,0,0,7.9-2.1L323.3,44a10.7,10.7,0,1,0,15.2,13.6l8.3,4.2.3.2.4.2,8.5,4a10.7,10.7,0,0,0,8.3,15.4h1.1a11.1,11.1,0,0,0,6.7-2.3,10.8,10.8,0,0,0,3.9-9.7l16.4-2.4a16.5,16.5,0,0,0,3.3,7.7,15.8,15.8,0,0,0,10.5,5.9H408a15.7,15.7,0,0,0,9.7-3.4,16.6,16.6,0,0,0,5.8-10.7,15.8,15.8,0,0,0-3.4-11.6,15.6,15.6,0,0,0-10.5-5.9,15,15,0,0,0-11.5,3.4,15.6,15.6,0,0,0-5.8,13.8l-16.5,2.4a10.2,10.2,0,0,0-2.1-4.6,10.5,10.5,0,0,0-14.9-1.7,9.1,9.1,0,0,0-2.5,3l-8.8-4.1-8.8-4.5a9.9,9.9,0,0,0,.7-3.8,10.7,10.7,0,0,0-10.6-10.7,9.8,9.8,0,0,0-4.8,1.2l-8.5-14.5a15.8,15.8,0,1,0-24.2-13.2A15.7,15.7,0,0,0,307,31.6Zm91.7,21.7A14.3,14.3,0,0,1,408,50h1.6a15,15,0,0,1,10,5.5,15.8,15.8,0,0,1,3.2,11.1A15.1,15.1,0,0,1,406.4,80a15.1,15.1,0,0,1-7.7-26.7Zm-39.3,9.9a10.1,10.1,0,0,1,6.1-2.2,9.9,9.9,0,0,1,7.7,3.7,10,10,0,0,1-1.5,14,9.7,9.7,0,0,1-7.3,2.1,10.7,10.7,0,0,1-6.6-3.7A10.1,10.1,0,0,1,359.4,63.2ZM338.7,53.1a9.8,9.8,0,1,1-9.8-9.9A9.8,9.8,0,0,1,338.7,53.1ZM307,.8a15.1,15.1,0,1,1-14.9,15.1A15,15,0,0,1,307,.8Z" transform="translate(0 0)" style="fill:#8000ff"/><path d="M484.9,267l-.5-.7-16.8,11.5a8.2,8.2,0,0,0-4.2-2.5,8,8,0,0,0-6,1,7.8,7.8,0,0,0-3.5,5.1,8.1,8.1,0,0,0,5.6,9.6l-2,8.7-2.1,9.5a8,8,0,0,0-9.2,6.1,8.7,8.7,0,0,0,1.1,6.1,7,7,0,0,0,5,3.5,5.1,5.1,0,0,0,1.7.3,8.2,8.2,0,0,0,3.1-.7l10.3,17.8.7-.4-10.2-17.7a7.7,7.7,0,0,0,3.9-5.3,8.1,8.1,0,0,0-5.6-9.6l2-8.7,2.1-9.5,1.4.2a8.2,8.2,0,0,0,7.8-6.3,7.9,7.9,0,0,0-1.4-6.5Zm-24.8,46.1a7.5,7.5,0,0,1,.9,5.5,7.2,7.2,0,0,1-8.6,5.5,6.8,6.8,0,0,1-4.4-3.3,7.2,7.2,0,0,1,6-11.1l1.6.2A7.4,7.4,0,0,1,460.1,313.1Zm8.6-28.3a7.2,7.2,0,0,1-8.6,5.4,7.1,7.1,0,0,1-4.5-3.2,7.8,7.8,0,0,1-.9-5.4,7,7,0,0,1,3.2-4.6,7.3,7.3,0,0,1,3.8-1.1l1.6.2A7.3,7.3,0,0,1,468.7,284.8Z" transform="translate(0 0)" style="fill:#8000ff"/><path d="M388.3,442.9l.2-.8-19.3-6.3a8.8,8.8,0,0,0-.6-4.8,8.1,8.1,0,0,0-10.7-3.8,8.4,8.4,0,0,0-4.1,4.6,8.9,8.9,0,0,0,.2,5.8l-8,3.8-8.7,4.2a8.5,8.5,0,0,0-4.3-3.8,8.4,8.4,0,0,0-6.2.4,7.6,7.6,0,0,0-4,4.6,8.4,8.4,0,0,0,.3,6.2,8,8,0,0,0,3.3,3.5l-7.2,19.2.7.4,7.2-19.2a7.9,7.9,0,0,0,3.2.6,6.8,6.8,0,0,0,3.4-.8,8.1,8.1,0,0,0,3.9-10.3l7.9-3.9,8.7-4.2a8,8,0,0,0,7,4.2,8.9,8.9,0,0,0,3.5-.8,8.4,8.4,0,0,0,4.2-5.2Zm-54.8,13.3a7.2,7.2,0,0,1-9.9-9,7,7,0,0,1,3.6-4.1,7.1,7.1,0,0,1,3.1-.8,10,10,0,0,1,2.4.4,7.7,7.7,0,0,1,4.2,3.7A7.4,7.4,0,0,1,333.5,456.2Zm31-15.1a7,7,0,0,1-9.6-3.4,7.5,7.5,0,0,1-.4-5.5,7.7,7.7,0,0,1,3.7-4.2,7,7,0,0,1,3.1-.7,7.1,7.1,0,0,1,6.5,4.1A7.4,7.4,0,0,1,364.5,441.1Z" transform="translate(0 0)" style="fill:#8000ff"/><path d="M192.1,476.1l.7-.3-7.2-19.2a8.3,8.3,0,0,0,3.3-3.6,8.3,8.3,0,0,0-3.7-10.8,8.3,8.3,0,0,0-6.2-.3,7.7,7.7,0,0,0-4.3,3.8l-8.7-4.2-8-3.8a7.8,7.8,0,0,0,.2-5.8,8.1,8.1,0,0,0-4.1-4.6,7.9,7.9,0,0,0-11.3,8.6l-19.3,6.3.2.8,19.3-6.2a7.6,7.6,0,0,0,4.2,5.1,7.1,7.1,0,0,0,3.4.8,5.8,5.8,0,0,0,2.6-.5,7.7,7.7,0,0,0,4.4-3.7l8.7,4.2,8,3.8a8,8,0,0,0,3.9,10.4,7.1,7.1,0,0,0,3.4.8,9.1,9.1,0,0,0,3.2-.6Zm-38.9-34.7a6.6,6.6,0,0,1-5.5-.3,7.3,7.3,0,0,1-3.4-9.7,7.2,7.2,0,0,1,9.6-3.4,6.9,6.9,0,0,1,3.6,4.2,6.6,6.6,0,0,1-.3,5.5A6.9,6.9,0,0,1,153.2,441.4Zm25.4,14.8a7.3,7.3,0,0,1-3.3-9.8,7.5,7.5,0,0,1,4.1-3.7,10,10,0,0,1,2.4-.4,6.8,6.8,0,0,1,3.1.8,7.1,7.1,0,0,1,3.7,4.1,7.7,7.7,0,0,1-.3,5.6A7.3,7.3,0,0,1,178.6,456.2Z" transform="translate(0 0)" style="fill:#8000ff"/><path d="M55.7,141.6l20.2-2.8a7.8,7.8,0,0,0,2.7,4.1,7.6,7.6,0,0,0,4.9,1.8,8.1,8.1,0,0,0,5.3-14.2l5.5-7,6-7.6a7.4,7.4,0,0,0,4.6,1.6,8.2,8.2,0,0,0,6.3-3.1,8.1,8.1,0,0,0-1.3-11.3,7.2,7.2,0,0,0-4.5-1.8l-1.7-20.5h-.8l1.7,20.4H104a7.8,7.8,0,0,0-5.3,3,8.4,8.4,0,0,0-1.7,5.9,8.8,8.8,0,0,0,2.7,5.2l-5.5,7-6,7.5A8,8,0,0,0,75.7,138l-20,2.8Zm43.7-36.8a7.2,7.2,0,0,1,10.1-1.1,7.4,7.4,0,0,1,1.1,10.2,7.1,7.1,0,0,1-10.1,1.2A7.4,7.4,0,0,1,99.4,104.8ZM77.9,132a7.6,7.6,0,0,1,5.7-2.7,6.5,6.5,0,0,1,4.4,1.6,7.3,7.3,0,0,1,1.2,10.2,7.1,7.1,0,0,1-10.1,1.2A7.5,7.5,0,0,1,77.9,132Z" transform="translate(0 0)" style="fill:#8000ff"/><path d="M218.2,24.8l-.6.6,14.8,14.1a7.3,7.3,0,0,0-1.6,4.6,8,8,0,0,0,16,.4h18.4a8,8,0,0,0,16-.4,7.6,7.6,0,0,0-1.6-4.6l14.9-14.1-.5-.6L279.2,38.9a7.7,7.7,0,0,0-6-2.8,8.1,8.1,0,0,0-8,7.6H246.8a8.1,8.1,0,0,0-8-7.6,7.6,7.6,0,0,0-6,2.8Zm55.1,12.1a7.1,7.1,0,0,1,7.1,7.2,7.2,7.2,0,1,1-7.1-7.2Zm-34.4,0a7.2,7.2,0,0,1,7.2,7.2,7.2,7.2,0,1,1-14.4,0A7.2,7.2,0,0,1,238.9,36.9Z" transform="translate(0 0)" style="fill:#8000ff"/></svg>