<svg viewBox="0 0 442 437" fill="none" xmlns="http://www.w3.org/2000/svg"><g filter="url(#filter0_d)"><path fill-rule="evenodd" clip-rule="evenodd" d="M243.5 2.51a2.97 2.97 0 0 1 3.19-2.5 2.96 2.96 0 0 1 2.62 3.39l-9.39 64.57a2.97 2.97 0 0 1-3.18 2.5 2.96 2.96 0 0 1-2.63-3.39l9.4-64.57zm-23.8 21.9l-.63 42.35c0 1.69-1.36 2.98-2.95 2.9a2.94 2.94 0 0 1-2.87-2.98l.64-42.35c0-1.61 1.36-2.9 2.95-2.9s2.86 1.37 2.86 2.98zM79.13 36.89a2.84 2.84 0 0 1 0-4.03 2.9 2.9 0 0 1 4.22 0l44.1 47.67a2.84 2.84 0 0 1 0 4.02 2.84 2.84 0 0 1-4.22 0L79.13 36.9zm30.65 64L77.46 74c-1.27-.96-1.43-2.9-.4-4.18a2.9 2.9 0 0 1 4.14-.4l32.32 26.89a2.98 2.98 0 0 1 .4 4.18 2.9 2.9 0 0 1-4.14.4zm-29.3-11.75a2.9 2.9 0 0 1 4.15-.48l21.33 17.23a2.99 2.99 0 0 1 .48 4.18 2.9 2.9 0 0 1-4.14.49L80.96 93.33a2.99 2.99 0 0 1-.47-4.19zm20.94-14.65a2.95 2.95 0 0 0 .32 4.1l14.88 13.53c1.2 1.13 3.1.96 4.14-.32a2.95 2.95 0 0 0-.32-4.1l-14.88-13.53a2.9 2.9 0 0 0-4.14.32zm4.7-34.3a2.9 2.9 0 0 0-.56 4.1l24.2 32.77a2.82 2.82 0 0 0 4.06.57 2.9 2.9 0 0 0 .55-4.1l-24.2-32.78a2.89 2.89 0 0 0-4.05-.56zM47.93 222.14c-1.59.33-3.1-.64-3.5-2.25a2.95 2.95 0 0 1 2.23-3.54l26.58-6.12c1.6-.32 3.19.64 3.5 2.25a3 3 0 0 1-2.22 3.54l-26.59 6.12zm-20.61-11.51a2.93 2.93 0 0 0 3.5 2.25l41-8.77a2.97 2.97 0 0 0 2.22-3.54 2.93 2.93 0 0 0-3.5-2.26l-40.92 8.78a3.06 3.06 0 0 0-2.3 3.54zm21.17-19.89l19.74-3.38a2.93 2.93 0 0 1 3.34 2.34 2.95 2.95 0 0 1-2.39 3.46l-19.74 3.38a3 3 0 0 1-3.34-2.33 2.95 2.95 0 0 1 2.39-3.47zM0 185.91a3.03 3.03 0 0 0 3.1 2.58l64.32-5.15a2.88 2.88 0 0 0 2.63-3.3 3.03 3.03 0 0 0-3.1-2.58l-64.24 5.15a3.04 3.04 0 0 0-2.7 3.3zm25.48-19.64l40.43 1.29a3.01 3.01 0 0 1 2.87 3.06 2.95 2.95 0 0 1-3.03 2.9l-40.43-1.3a2.96 2.96 0 0 1-2.87-3.05 2.95 2.95 0 0 1 3.03-2.9zm97.5 163.68c1.44.72 3.19.08 3.9-1.37l11.86-24.88a2.98 2.98 0 0 0-1.35-3.94 2.92 2.92 0 0 0-3.9 1.36L121.64 326c-.72 1.53-.16 3.3 1.35 3.95zm-13.93 6.44a2.89 2.89 0 0 1-3.9 1.29 2.88 2.88 0 0 1-1.27-3.95l18.7-37.84a2.89 2.89 0 0 1 3.9-1.29 2.95 2.95 0 0 1 1.28 3.95l-18.7 37.84zm-4.93-23.75c1.43.72 3.1.24 3.9-1.21l9.7-17.71c.8-1.45.25-3.3-1.19-4.03a2.88 2.88 0 0 0-3.9 1.2l-9.7 17.72a2.97 2.97 0 0 0 1.19 4.03zm-31.2 30.35a2.89 2.89 0 0 1-3.9.88c-1.44-.8-1.84-2.73-.88-4.18l36.14-54.02a2.89 2.89 0 0 1 3.9-.89 2.96 2.96 0 0 1 .87 4.19l-36.13 54.02zm23-62.64l-26.19 31.16a3.05 3.05 0 0 0 .32 4.19c1.2 1.04 3.1.88 4.14-.33l26.19-31.15a3.05 3.05 0 0 0-.32-4.19c-1.28-1.05-3.1-.97-4.14.32zm162.46 52.17a2.98 2.98 0 0 1-1.36 3.95 2.89 2.89 0 0 1-3.9-1.3l-11.86-24.87a2.98 2.98 0 0 1 1.36-3.94 2.92 2.92 0 0 1 3.9 1.37l11.86 24.8zm-6.53 22.87c1.43-.73 2.07-2.42 1.43-3.95l-17.59-38.4a3 3 0 0 0-3.9-1.45 3.06 3.06 0 0 0-1.43 3.95l17.59 38.4a2.88 2.88 0 0 0 3.9 1.45zm-31.52-35.02a2.97 2.97 0 0 1 1.51-3.87c1.51-.72 3.27 0 3.9 1.53l7.64 18.68a2.97 2.97 0 0 1-1.5 3.86c-1.52.73-3.27 0-3.9-1.53l-7.65-18.67zm13.85 67.46a2.96 2.96 0 0 0 1.75-3.62l-19.26-62.31a2.86 2.86 0 0 0-3.82-1.86 2.96 2.96 0 0 0-1.75 3.63l19.26 62.31a2.92 2.92 0 0 0 3.82 1.85zm-21.25-18.43a2.9 2.9 0 0 1-3.43-2.34l-7.8-40.17a2.94 2.94 0 0 1 2.31-3.46 2.9 2.9 0 0 1 3.42 2.33l7.8 40.17a2.94 2.94 0 0 1-2.3 3.47zM343.48 231l-26.59-6.12c-1.6-.4-3.1.64-3.5 2.25a2.94 2.94 0 0 0 2.23 3.55l26.58 6.12c1.6.4 3.1-.65 3.5-2.26a3.07 3.07 0 0 0-2.22-3.54zm11.38 15.86a2.86 2.86 0 0 1 2.15 3.54 2.82 2.82 0 0 1-3.5 2.18l-40.68-10.07a2.86 2.86 0 0 1-2.15-3.54 2.82 2.82 0 0 1 3.5-2.17l40.68 10.06zm-42.98.88a2.91 2.91 0 0 0-3.67 2.1 2.9 2.9 0 0 0 2 3.54l19.18 5.64c1.59.48 3.26-.49 3.66-2.1a2.9 2.9 0 0 0-2-3.54l-19.17-5.63zm57.47 33.18a2.94 2.94 0 0 1 1.75 3.7 2.98 2.98 0 0 1-3.82 1.85l-60.18-23.59a2.94 2.94 0 0 1-1.75-3.7c.56-1.61 2.23-2.5 3.82-1.85l60.18 23.59zm-25.71 9.01a2.95 2.95 0 0 0-1.28-3.94l-35.9-18.84a2.89 2.89 0 0 0-3.9 1.29 2.95 2.95 0 0 0 1.28 3.94l35.9 18.84c1.43.72 3.18.16 3.9-1.29zm-46.97-172.29L318 100.41c1.28-.96 3.19-.8 4.14.48.96 1.3.8 3.14-.47 4.2l-21.34 17.22c-1.27.97-3.1.8-4.13-.48a3.06 3.06 0 0 1 .47-4.19zm40.68-16.42l-33.12 25.92a2.96 2.96 0 0 0-.55 4.1 2.89 2.89 0 0 0 4.06.57l33.11-25.92a2.96 2.96 0 0 0 .56-4.11 2.89 2.89 0 0 0-4.06-.56zm-6.37 27.77l-16.32 11.68c-1.35.96-3.1.64-4.06-.65a2.92 2.92 0 0 1 .64-4.18l16.32-11.68a2.96 2.96 0 0 1 3.42 4.83zm41.79-17.87l-55.72 32.85a2.96 2.96 0 0 0 2.94 5.15l55.72-32.85a2.96 2.96 0 0 0 .96-4.18 2.84 2.84 0 0 0-3.9-.97zm-49.9 40.98l36.92-16.59c1.44-.64 3.19 0 3.82 1.53.64 1.45 0 3.22-1.5 3.87l-36.94 16.58c-1.43.65-3.19 0-3.82-1.53a2.93 2.93 0 0 1 1.51-3.86zM207.04 66.76V39.14a2.96 2.96 0 0 0-2.95-2.98 2.9 2.9 0 0 0-2.94 2.98v27.62a2.96 2.96 0 0 0 2.94 2.98 2.96 2.96 0 0 0 2.95-2.98zm23.16.16l1.11-20.2a2.98 2.98 0 0 0-2.86-3.15 2.94 2.94 0 0 0-3.03 2.82l-1.11 20.2a2.98 2.98 0 0 0 2.87 3.15 3 3 0 0 0 3.02-2.82zm27.7-41.06c-1.6-.4-3.18.56-3.58 2.1l-10.2 39.6a3 3 0 0 0 2.08 3.63c1.6.4 3.18-.57 3.58-2.1l10.19-39.6a2.93 2.93 0 0 0-2.07-3.63zm50.78 62.8c1.28-.97 3.1-.8 4.14.48a2.99 2.99 0 0 1-.48 4.19l-21.33 17.23c-1.27.96-3.18.8-4.14-.49a3.06 3.06 0 0 1 .48-4.18l21.33-17.23zm3.5-19.16l-32.31 26.89a2.98 2.98 0 0 0-.4 4.18 2.9 2.9 0 0 0 4.14.4l32.32-26.89a2.98 2.98 0 0 0 .4-4.18 2.9 2.9 0 0 0-4.14-.4zm-24.43 4.67a2.9 2.9 0 0 1 4.14.32 2.88 2.88 0 0 1-.32 4.1l-14.89 13.53a2.9 2.9 0 0 1-4.13-.32 3.03 3.03 0 0 1 .31-4.1l14.89-13.53zm22.29-41.23l-44.1 47.67a3 3 0 0 0 0 4.02 2.9 2.9 0 0 0 4.22 0l44.1-47.66a3 3 0 0 0 0-4.03 2.78 2.78 0 0 0-4.22 0zm-26.83 7.81a2.89 2.89 0 0 1 4.06-.56 2.9 2.9 0 0 1 .56 4.1l-24.2 32.77a2.89 2.89 0 0 1-4.06.57 2.96 2.96 0 0 1-.56-4.1l24.2-32.78zm33.43 171.73a2.94 2.94 0 0 0 2.23 3.54l26.59 6.12c1.59.4 3.1-.64 3.5-2.25a2.95 2.95 0 0 0-2.23-3.54l-26.59-6.12c-1.59-.4-3.1.64-3.5 2.25zm4.94-8.3a3 3 0 0 1-2.23-3.53 2.88 2.88 0 0 1 3.5-2.26l41 8.78a3 3 0 0 1 2.22 3.54 2.97 2.97 0 0 1-3.5 2.25l-41-8.77zm2.62-11.02l19.74 3.38c1.6.24 3.03-.8 3.35-2.33a2.9 2.9 0 0 0-2.4-3.47l-19.73-3.38c-1.6-.24-3.03.8-3.34 2.34a2.9 2.9 0 0 0 2.38 3.46zm66.47-10.55a2.9 2.9 0 0 1 2.62 3.3 2.8 2.8 0 0 1-3.1 2.58l-64.31-5.15a2.9 2.9 0 0 1-2.63-3.3 2.85 2.85 0 0 1 3.1-2.58l64.32 5.15zm-66.07-12a3.06 3.06 0 0 0 3.03 2.9l40.43-1.28a3.07 3.07 0 0 0 2.87-3.06 3.06 3.06 0 0 0-3.03-2.9l-40.43 1.29a2.9 2.9 0 0 0-2.87 3.06zm-52.85 155.4a2.98 2.98 0 0 1-1.35 3.94 2.85 2.85 0 0 1-3.9-1.37l-11.86-24.88a2.98 2.98 0 0 1 1.35-3.94 2.92 2.92 0 0 1 3.9 1.36L271.76 326zm16.48 11.67a2.95 2.95 0 0 0 1.27-3.95l-18.7-37.84a2.89 2.89 0 0 0-3.9-1.29 2.95 2.95 0 0 0-1.28 3.95l18.7 37.84a2.89 2.89 0 0 0 3.9 1.29zm-7.57-46.78l9.71 17.71a2.9 2.9 0 0 1-1.19 4.03c-1.43.72-3.1.16-3.9-1.21l-9.71-17.71a2.95 2.95 0 0 1 1.2-4.03 2.95 2.95 0 0 1 3.9 1.2zm43.62 52.97a2.96 2.96 0 0 0 .88-4.18l-36.14-54.02a2.9 2.9 0 0 0-3.9-.89 2.96 2.96 0 0 0-.87 4.19l36.13 54.02a2.83 2.83 0 0 0 3.9.88zm-5.1-28.58l-26.18-31.15a2.95 2.95 0 0 1 .32-4.11 2.96 2.96 0 0 1 4.14.32l26.19 31.08a3.04 3.04 0 0 1-.32 4.19 2.96 2.96 0 0 1-4.14-.33zm-182.83 21.18c1.44.72 3.19.08 3.9-1.37l11.87-24.88a2.98 2.98 0 0 0-1.36-3.94 2.92 2.92 0 0 0-3.9 1.37l-11.86 24.87a2.93 2.93 0 0 0 1.35 3.95zm26.59-20.94l-17.6 38.4a2.84 2.84 0 0 1-3.9 1.46 2.95 2.95 0 0 1-1.42-3.95l17.59-38.4a2.88 2.88 0 0 1 3.9-1.45 2.95 2.95 0 0 1 1.43 3.95zm4.7 2.5L160 336.71c-.63 1.45.08 3.14 1.52 3.86 1.5.65 3.26 0 3.9-1.53l7.64-18.67c.63-1.45-.08-3.14-1.51-3.87a2.87 2.87 0 0 0-3.9 1.53zm-4.62 67.95a2.95 2.95 0 0 1-3.82 1.85 2.96 2.96 0 0 1-1.75-3.62l19.26-62.31a2.95 2.95 0 0 1 3.82-1.86 2.89 2.89 0 0 1 1.75 3.63l-19.26 62.31zm17.35-16.58a2.9 2.9 0 0 0 3.42-2.34l7.8-40.17a2.94 2.94 0 0 0-2.3-3.46 2.9 2.9 0 0 0-3.43 2.33l-7.8 40.17c-.31 1.62.72 3.22 2.31 3.47zM77.78 230.68L51.2 236.8a3.01 3.01 0 0 1-3.5-2.26 3 3 0 0 1 2.22-3.54l26.59-6.12c1.59-.32 3.1.64 3.5 2.25a3 3 0 0 1-2.23 3.55zM36.31 250.4a2.9 2.9 0 0 0 3.5 2.18L80.5 242.5a2.93 2.93 0 0 0 2.15-3.54 2.9 2.9 0 0 0-3.5-2.17l-40.68 10.06a2.9 2.9 0 0 0-2.15 3.54zm46.8 2.98l-19.18 5.64a2.91 2.91 0 0 1-3.66-2.1 2.93 2.93 0 0 1 1.99-3.54l19.18-5.63c1.6-.49 3.27.48 3.66 2.09a2.94 2.94 0 0 1-1.99 3.54zm-56.99 33.1l60.18-23.6a3.02 3.02 0 0 0 1.75-3.7 2.98 2.98 0 0 0-3.82-1.85l-60.18 23.59a3.02 3.02 0 0 0-1.75 3.7 2.98 2.98 0 0 0 3.82 1.85zm63.44-14.18l-35.9 18.84c-1.43.8-3.18.24-3.9-1.29a2.97 2.97 0 0 1 1.28-3.94l35.9-18.84a2.9 2.9 0 0 1 3.9 1.29 2.97 2.97 0 0 1-1.28 3.94zm-18.3-171.4a2.99 2.99 0 0 0 .47 4.18l21.33 17.23a2.9 2.9 0 0 0 4.14-.48 2.98 2.98 0 0 0-.48-4.19L75.4 100.41a2.98 2.98 0 0 0-4.14.48zm-18.8 4.99a2.96 2.96 0 0 1-.55-4.11 2.89 2.89 0 0 1 4.06-.56l33.11 25.92a2.96 2.96 0 0 1 .56 4.1 2.89 2.89 0 0 1-4.06.57L52.47 105.9zm30.34 34.13a3 3 0 0 0-.64-4.18l-16.4-11.68a2.97 2.97 0 0 0-4.06.65 3 3 0 0 0 .64 4.18l16.32 11.68c1.35.96 3.18.64 4.14-.65zM17.68 116.2a3.03 3.03 0 0 1-.95-4.19 2.99 2.99 0 0 1 3.9-.96l55.72 32.85a3.03 3.03 0 0 1 .95 4.18 2.84 2.84 0 0 1-3.9.97l-55.72-32.85zm54.37 39.85a2.9 2.9 0 0 0-1.51-3.86L33.6 135.59a2.85 2.85 0 0 0-3.82 1.53A2.9 2.9 0 0 0 31.3 141l36.93 16.58a2.94 2.94 0 0 0 3.82-1.53zm120.11-116.9v27.62a3 3 0 0 1-2.94 2.98 2.96 2.96 0 0 1-2.95-2.98V39.14c0-1.69 1.35-2.98 2.95-2.98a2.96 2.96 0 0 1 2.94 2.98zm-14.88 30.52c1.59 0 2.86-1.37 2.86-2.98l-.63-42.35c0-1.61-1.36-2.9-2.95-2.9a2.94 2.94 0 0 0-2.87 2.98l.64 42.35a2.8 2.8 0 0 0 2.95 2.9zM169 66.52a2.98 2.98 0 0 1-2.87 3.14c-1.5.08-2.86-1.13-3.02-2.82l-1.12-20.2a2.98 2.98 0 0 1 2.87-3.15 3 3 0 0 1 3.02 2.82L169 66.5zm-12.42 3.94a2.96 2.96 0 0 0 2.63-3.38l-9.4-64.57a2.93 2.93 0 0 0-3.18-2.5 2.96 2.96 0 0 0-2.62 3.39l9.39 64.57a2.93 2.93 0 0 0 3.18 2.5zm-23.16-40.98a2.93 2.93 0 0 1 2.07-3.62c1.51-.4 3.1.56 3.58 2.1l10.19 39.6a2.93 2.93 0 1 1-5.65 1.53l-10.2-39.6z" transform="translate(24.38 24.02)" fill="url(#paint0_radial)"/></g><defs><filter id="filter0_d" x=".38" y=".02" width="441.33" height="436.01" filterUnits="userSpaceOnUse" color-interpolation-filters="sRGB"><feFlood flood-opacity="0" result="BackgroundImageFix"/><feColorMatrix in="SourceAlpha" values="0 0 0 0 0 0 0 0 0 0 0 0 0 0 0 0 0 0 255 0"/><feOffset/><feGaussianBlur stdDeviation="12"/><feColorMatrix values="0 0 0 0 0.54902 0 0 0 0 0 0 0 0 0 1 0 0 0 1 0"/><feBlend in2="BackgroundImageFix" result="effect1_dropShadow"/><feBlend in="SourceGraphic" in2="effect1_dropShadow" result="shape"/></filter><radialGradient id="paint0_radial" cx=".5" cy=".5" r=".5" gradientUnits="userSpaceOnUse" gradientTransform="scale(363.751 351) rotate(-90 .55 .5)"><stop offset=".67" stop-color="#00F0FF"/><stop offset="1" stop-color="#D900FF"/></radialGradient></defs></svg>