<svg viewBox="0 0 426 420" fill="none" xmlns="http://www.w3.org/2000/svg"><path d="M1.2 0H0v.7h1.2V0z" transform="rotate(-50 315 -180.9) skewX(-.1)" stroke="#fff" stroke-opacity=".3" stroke-width=".3" stroke-miterlimit="10"/><path d="M1.2 0H0v.7h1.2V0z" transform="rotate(-50 300.1 -190.5) skewX(-.1)" stroke="#fff" stroke-opacity=".3" stroke-width=".3" stroke-miterlimit="10"/><path d="M3.9 0H0v.7h3.9V0z" transform="rotate(-50 301.8 -208.4) skewX(-.1)" stroke="#fff" stroke-opacity=".3" stroke-width=".3" stroke-miterlimit="10"/><path d="M3.9 0H0v.7h3.9V0z" transform="rotate(-50 305.7 -238.4) skewX(-.1)" stroke="#fff" stroke-opacity=".3" stroke-width=".3" stroke-miterlimit="10"/><path d="M3.9 0H0v.7h3.9V0z" transform="rotate(-50 281.5 -252) skewX(-.1)" stroke="#fff" stroke-opacity=".3" stroke-width=".3" stroke-miterlimit="10"/><path d="M5.7 0H0v.7h5.7V0z" transform="rotate(-50 290.4 -291.2) skewX(-.1)" stroke="#fff" stroke-opacity=".3" stroke-width=".3" stroke-miterlimit="10"/><path d="M5.7 0H0v.7h5.7V0z" transform="rotate(-50 267 -300.2) skewX(-.1)" stroke="#fff" stroke-opacity=".3" stroke-width=".3" stroke-miterlimit="10"/><path d="M7 0H0v.7h7V0z" transform="rotate(-50 246.6 -344) skewX(-.1)" stroke="#fff" stroke-opacity=".3" stroke-width=".3" stroke-miterlimit="10"/><path d="M5.7 0H0v.7h5.7V0z" transform="rotate(-50 297.4 -320) skewX(-.1)" stroke="#fff" stroke-opacity=".3" stroke-width=".3" stroke-miterlimit="10"/><path d="M1.2 0H0v.7h1.2V0z" transform="rotate(-50 322.3 -164.4) skewX(-.1)" stroke="#fff" stroke-opacity=".3" stroke-width=".3" stroke-miterlimit="10"/><path d="M1.2 0H0v.7h1.2V0z" transform="rotate(-50 309.7 -170) skewX(-.1)" stroke="#fff" stroke-opacity=".3" stroke-width=".3" stroke-miterlimit="10"/><path d="M315.8 111.8l-.3-3 3-.3.2 3-3 .3zm.5-2.4l.1 1.6 1.6-.1-.1-1.6-1.6.1zM353.5 78.7l-.3-3 3-.2.2 2.9-3 .3zm.5-2.4l.1 1.6 1.6-.1-.1-1.6-1.6.1zM384.6 89.8l-.3-4 4-.3.3 4-4 .3zm.4-3.3l.2 2.6 2.7-.2-.2-2.7-2.7.3zM311.2 131.6l-.3-3 3-.2.2 3-3 .2zm.5-2.3v1.6l1.7-.1-.2-1.6h-1.5z" stroke="#fff" stroke-opacity=".3" stroke-width=".3" stroke-miterlimit="10"/><path d="M1.2 0H0v.7h1.2V0z" transform="rotate(-50 293 -170.5) skewX(-.1)" stroke="#fff" stroke-opacity=".3" stroke-width=".3" stroke-miterlimit="10"/><path d="M1.2 0H0v.7h1.2V0z" transform="rotate(-50 294.8 -188) skewX(-.1)" stroke="#fff" stroke-opacity=".3" stroke-width=".3" stroke-miterlimit="10"/><path d="M3.9 0H0v.7h3.9V0z" transform="rotate(-50 280 -198.2) skewX(-.1)" stroke="#fff" stroke-opacity=".3" stroke-width=".3" stroke-miterlimit="10"/><path d="M3.9 0H0v.7h3.9V0z" transform="rotate(-50 254.5 -214.6) skewX(-.1)" stroke="#fff" stroke-opacity=".3" stroke-width=".3" stroke-miterlimit="10"/><path d="M3.9 0H0v.7h3.9V0z" transform="rotate(-50 259.7 -241.9) skewX(-.1)" stroke="#fff" stroke-opacity=".3" stroke-width=".3" stroke-miterlimit="10"/><path d="M5.7 0H0v.7h5.7V0z" transform="rotate(-50 223.9 -260.3) skewX(-.1)" stroke="#fff" stroke-opacity=".3" stroke-width=".3" stroke-miterlimit="10"/><path d="M5.7 0H0v.7h5.7V0z" transform="rotate(-50 232 -284) skewX(-.1)" stroke="#fff" stroke-opacity=".3" stroke-width=".3" stroke-miterlimit="10"/><path d="M7 0H0v.7h7V0z" transform="rotate(-50 211.7 -327.7) skewX(-.1)" stroke="#fff" stroke-opacity=".3" stroke-width=".3" stroke-miterlimit="10"/><path d="M5.7 0H0v.7h5.7V0z" transform="rotate(-50 197.4 -273.4) skewX(-.1)" stroke="#fff" stroke-opacity=".3" stroke-width=".3" stroke-miterlimit="10"/><path d="M1.2 0H0v.7h1.2V0z" transform="rotate(-50 300.5 -154.3) skewX(-.1)" stroke="#fff" stroke-opacity=".3" stroke-width=".3" stroke-miterlimit="10"/><path d="M1.2 0H0v.7h1.2V0z" transform="rotate(-50 304.4 -167.5) skewX(-.1)" stroke="#fff" stroke-opacity=".3" stroke-width=".3" stroke-miterlimit="10"/><path d="M288.4 88.8l-.2-3 3-.2.2 3-3 .2zm.5-2.4l.2 1.6 1.6-.1-.2-1.6-1.6.1zM314.5 45.9l-.3-3 3-.2.2 3-3 .2zm.5-2.4v1.6l1.7-.1-.1-1.6-1.6.1zM298 17.1l-.3-4 4-.3.4 4-4 .3zm.5-3.4l.2 2.7 2.7-.2-.3-2.7-2.6.2zM269.7 96.8l-.3-3 3-.2.2 3-3 .2zm.5-2.4l.1 1.6 1.6-.1-.1-1.6-1.6.1z" stroke="#fff" stroke-opacity=".3" stroke-width=".3" stroke-miterlimit="10"/><path d="M1.2 0H0v.7h1.2V0z" transform="rotate(-10 1317.1 -1386)" stroke="#fff" stroke-opacity=".3" stroke-width=".3" stroke-miterlimit="10"/><path d="M1.2 0H0v.7h1.2V0z" transform="rotate(-10 1266.9 -1454.9)" stroke="#fff" stroke-opacity=".3" stroke-width=".3" stroke-miterlimit="10"/><path d="M3.9 0H0v.7h3.9V0z" transform="rotate(-10 1304.2 -1533.4)" stroke="#fff" stroke-opacity=".3" stroke-width=".3" stroke-miterlimit="10"/><path d="M3.9 0H0v.7h3.9V0z" transform="rotate(-10 1371.8 -1663.6)" stroke="#fff" stroke-opacity=".3" stroke-width=".3" stroke-miterlimit="10"/><path d="M3.9 0H0v.7h3.9V0z" transform="rotate(-10 1284 -1765.7)" stroke="#fff" stroke-opacity=".3" stroke-width=".3" stroke-miterlimit="10"/><path d="M5.7 0H0v.7h5.7V0z" transform="rotate(-10 1389.7 -1929.1)" stroke="#fff" stroke-opacity=".3" stroke-width=".3" stroke-miterlimit="10"/><path d="M5.7 0H0v.7h5.7V0z" transform="rotate(-10 1297.8 -2009)" stroke="#fff" stroke-opacity=".3" stroke-width=".3" stroke-miterlimit="10"/><path d="M7 0H0v.7h7V0z" transform="rotate(-10 1277.5 -2241.2)" stroke="#fff" stroke-opacity=".3" stroke-width=".3" stroke-miterlimit="10"/><path d="M5.7 0H0v.7h5.7V0z" transform="rotate(-10 1469 -2048.2)" stroke="#fff" stroke-opacity=".3" stroke-width=".3" stroke-miterlimit="10"/><path d="M1.2 0H0v.7h1.2V0z" transform="rotate(-10 1324.7 -1299.7)" stroke="#fff" stroke-opacity=".3" stroke-width=".3" stroke-miterlimit="10"/><path d="M1.2 0H0v.7h1.2V0z" transform="rotate(-10 1276.4 -1345.8)" stroke="#fff" stroke-opacity=".3" stroke-width=".3" stroke-miterlimit="10"/><path d="M355 201.8l-2.4-1.7 1.7-2.5 2.4 1.7-1.7 2.5zm-1.5-2l1.4 1 .9-1.3-1.3-1-1 1.4zM405.1 200.7l-2.4-1.7 1.7-2.5 2.5 1.7-1.8 2.5zm-1.4-1.9l1.3 1 .9-1.4-1.3-1-1 1.4zM422.7 229.9l-3.3-2.3 2.3-3.3 3.3 2.3-2.3 3.3zm-2.4-2.5l2.2 1.5 1.6-2.2-2.2-1.5-1.6 2.2zM338.7 214l-2.4-1.7 1.7-2.4 2.4 1.7-1.7 2.4zm-1.5-1.8l1.4.9.9-1.3-1.3-1-1 1.4z" stroke="#fff" stroke-opacity=".3" stroke-width=".3" stroke-miterlimit="10"/><path d="M1.2 0H0v.7h1.2V0z" transform="rotate(-10 1201.1 -1376)" stroke="#fff" stroke-opacity=".3" stroke-width=".3" stroke-miterlimit="10"/><path d="M1.2 0H0v.7h1.2V0z" transform="rotate(-10 1238.7 -1452.4)" stroke="#fff" stroke-opacity=".3" stroke-width=".3" stroke-miterlimit="10"/><path d="M3.9 0H0v.7h3.9V0z" transform="rotate(-10 1188.3 -1523.4)" stroke="#fff" stroke-opacity=".3" stroke-width=".3" stroke-miterlimit="10"/><path d="M3.9 0H0v.7h3.9V0z" transform="rotate(-10 1099.2 -1640)" stroke="#fff" stroke-opacity=".3" stroke-width=".3" stroke-miterlimit="10"/><path d="M3.9 0H0v.7h3.9V0z" transform="rotate(-10 1168 -1755.7)" stroke="#fff" stroke-opacity=".3" stroke-width=".3" stroke-miterlimit="10"/><path d="M5.7 0H0v.7h5.7V0z" transform="rotate(-10 1035.6 -1898.4)" stroke="#fff" stroke-opacity=".3" stroke-width=".3" stroke-miterlimit="10"/><path d="M5.7 0H0v.7h5.7V0z" transform="rotate(-10 1112.4 -1992.9)" stroke="#fff" stroke-opacity=".3" stroke-width=".3" stroke-miterlimit="10"/><path d="M7 0H0v.7h7V0z" transform="rotate(-10 1092.1 -2225.2)" stroke="#fff" stroke-opacity=".3" stroke-width=".3" stroke-miterlimit="10"/><path d="M5.7 0H0v.7h5.7V0z" transform="rotate(-10 937 -2002)" stroke="#fff" stroke-opacity=".3" stroke-width=".3" stroke-miterlimit="10"/><path d="M1.2 0H0v.7h1.2V0z" transform="rotate(-10 1208.6 -1289.6)" stroke="#fff" stroke-opacity=".3" stroke-width=".3" stroke-miterlimit="10"/><path d="M1.2 0H0v.7h1.2V0z" transform="rotate(-10 1248.2 -1343.4)" stroke="#fff" stroke-opacity=".3" stroke-width=".3" stroke-miterlimit="10"/><path d="M348.8 166.6l-2.4-1.7 1.7-2.4 2.4 1.7-1.7 2.4zm-1.5-1.9l1.4 1 .9-1.4-1.3-.9-1 1.3zM396.3 150.5l-2.4-1.7 1.7-2.5 2.4 1.7-1.7 2.5zm-1.5-2l1.3 1 1-1.3-1.3-1-1 1.4zM403.1 118.5l-3.3-2.4 2.3-3.3 3.3 2.4-2.3 3.3zm-2.4-2.5l2.2 1.5 1.6-2.2-2.2-1.5-1.6 2.2zM329.3 160.6L327 159l1.7-2.4 2.4 1.7-1.7 2.4zm-1.5-1.8l1.4.9.9-1.3-1.3-1-1 1.4z" stroke="#fff" stroke-opacity=".3" stroke-width=".3" stroke-miterlimit="10"/><path d="M.7 0H0v1.2h.7V0z" transform="rotate(-60 331.6 -95.7) skewX(-.1)" stroke="#fff" stroke-opacity=".3" stroke-width=".3" stroke-miterlimit="10"/><path d="M.7 0H0v1.2h.7V0z" transform="rotate(-60 338.5 -108.5) skewX(-.1)" stroke="#fff" stroke-opacity=".3" stroke-width=".3" stroke-miterlimit="10"/><path d="M.7 0H0v3.9h.7V0z" transform="rotate(-60 354 -108.6) skewX(-.1)" stroke="#fff" stroke-opacity=".3" stroke-width=".3" stroke-miterlimit="10"/><path d="M.7 0H0v3.9h.7V0z" transform="rotate(-60 379.5 -107.5) skewX(-.1)" stroke="#fff" stroke-opacity=".3" stroke-width=".3" stroke-miterlimit="10"/><path d="M.7 0H0v3.9h.7V0z" transform="rotate(-60 389.3 -129) skewX(-.1)" stroke="#fff" stroke-opacity=".3" stroke-width=".3" stroke-miterlimit="10"/><path d="M.7 0H0v5.7h.7V0z" transform="rotate(-60 422.8 -124.2) skewX(-.1)" stroke="#fff" stroke-opacity=".3" stroke-width=".3" stroke-miterlimit="10"/><path d="M.7 0H0v5.7h.7V0z" transform="rotate(-60 428.7 -144.7) skewX(-.1)" stroke="#fff" stroke-opacity=".3" stroke-width=".3" stroke-miterlimit="10"/><path d="M.7 0H0v7h.7V0z" transform="rotate(-60 464 -165) skewX(-.1)" stroke="#fff" stroke-opacity=".3" stroke-width=".3" stroke-miterlimit="10"/><path d="M.7 0H0v5.7h.7V0z" transform="rotate(-60 447.5 -120.5) skewX(-.1)" stroke="#fff" stroke-opacity=".3" stroke-width=".3" stroke-miterlimit="10"/><path d="M.7 0H0v1.2h.7V0z" transform="rotate(-60 318.2 -88) skewX(-.1)" stroke="#fff" stroke-opacity=".3" stroke-width=".3" stroke-miterlimit="10"/><path d="M.7 0H0v1.2h.7V0z" transform="rotate(-60 322.2 -99.2) skewX(-.1)" stroke="#fff" stroke-opacity=".3" stroke-width=".3" stroke-miterlimit="10"/><path d="M324.9 294.3l-.8-3 2.9-.7.7 2.9-2.8.8zm0-2.4l.4 1.5 1.6-.4-.4-1.5-1.6.4zM364 325.7l-.8-2.9 2.9-.8.7 2.9-2.8.8zm0-2.4l.4 1.5 1.6-.4-.4-1.5-1.6.4zM358.6 359.3l-1-3.9 3.9-1 1 3.9-3.9 1zm-.2-3.4l.7 2.6 2.6-.6-.7-2.6-2.6.6zM304.5 293.2l-.8-3 2.9-.7.8 2.9-2.9.8zm0-2.4l.5 1.5 1.5-.4-.4-1.5-1.5.4z" stroke="#fff" stroke-opacity=".3" stroke-width=".3" stroke-miterlimit="10"/><path d="M.7 0H0v1.2h.7V0z" transform="rotate(-60 321.2 -113.1) skewX(-.1)" stroke="#fff" stroke-opacity=".3" stroke-width=".3" stroke-miterlimit="10"/><path d="M.7 0H0v1.2h.7V0z" transform="rotate(-60 336.3 -113) skewX(-.1)" stroke="#fff" stroke-opacity=".3" stroke-width=".3" stroke-miterlimit="10"/><path d="M.7 0H0v3.9h.7V0z" transform="rotate(-60 343.8 -126.2) skewX(-.1)" stroke="#fff" stroke-opacity=".3" stroke-width=".3" stroke-miterlimit="10"/><path d="M.7 0H0v3.9h.7V0z" transform="rotate(-60 355.6 -148.9) skewX(-.1)" stroke="#fff" stroke-opacity=".3" stroke-width=".3" stroke-miterlimit="10"/><path d="M.7 0H0v3.9h.7V0z" transform="rotate(-60 379 -146.5) skewX(-.1)" stroke="#fff" stroke-opacity=".3" stroke-width=".3" stroke-miterlimit="10"/><path d="M.7 0H0v5.7h.7V0z" transform="rotate(-60 391.8 -178) skewX(-.1)" stroke="#fff" stroke-opacity=".3" stroke-width=".3" stroke-miterlimit="10"/><path d="M.7 0H0v5.7h.7V0z" transform="rotate(-60 412.5 -172.8) skewX(-.1)" stroke="#fff" stroke-opacity=".3" stroke-width=".3" stroke-miterlimit="10"/><path d="M.7 0H0v7h.7V0z" transform="rotate(-60 447.7 -193.1) skewX(-.1)" stroke="#fff" stroke-opacity=".3" stroke-width=".3" stroke-miterlimit="10"/><path d="M.7 0H0v5.7h.7V0z" transform="matrix(.4996 -.87023 .86977 .5004 376 244.5)" stroke="#fff" stroke-opacity=".3" stroke-width=".3" stroke-miterlimit="10"/><path d="M.7 0H0v1.2h.7V0z" transform="rotate(-60 308.2 -105.7) skewX(-.1)" stroke="#fff" stroke-opacity=".3" stroke-width=".3" stroke-miterlimit="10"/><path d="M.7 0H0v1.2h.7V0z" transform="rotate(-60 319.5 -103.3) skewX(-.1)" stroke="#fff" stroke-opacity=".3" stroke-width=".3" stroke-miterlimit="10"/><path d="M342.7 263.3l-.8-2.9 2.9-.7.8 2.8-2.9.8zm0-2.4l.5 1.6 1.5-.4-.4-1.6-1.5.4zM389.4 281.5l-.7-2.8 2.8-.8.8 2.9-2.9.7zm.1-2.4l.4 1.6 1.6-.4-.5-1.6-1.5.4zM415.1 261.4l-1-3.9 3.9-1 1 3.9-3.9 1zm-.2-3.4l.7 2.6 2.6-.7-.7-2.6-2.6.7zM331.6 246.2l-.8-2.9 2.9-.7.7 2.8-2.8.8zm0-2.3l.4 1.5 1.6-.4-.4-1.6-1.6.5z" stroke="#fff" stroke-opacity=".3" stroke-width=".3" stroke-miterlimit="10"/><path d="M.7 0H0v1.2h.7V0z" transform="rotate(-20 831.6 -494.6)" stroke="#fff" stroke-opacity=".3" stroke-width=".3" stroke-miterlimit="10"/><path d="M.7 0H0v1.2h.7V0z" transform="rotate(-20 864 -522.8)" stroke="#fff" stroke-opacity=".3" stroke-width=".3" stroke-miterlimit="10"/><path d="M.7 0H0v3.9h.7V0z" transform="rotate(-20 904.5 -507.2)" stroke="#fff" stroke-opacity=".3" stroke-width=".3" stroke-miterlimit="10"/><path d="M.7 0H0v3.9h.7V0z" transform="rotate(-20 973 -479)" stroke="#fff" stroke-opacity=".3" stroke-width=".3" stroke-miterlimit="10"/><path d="M.7 0H0v3.9h.7V0z" transform="rotate(-20 1020 -527.5)" stroke="#fff" stroke-opacity=".3" stroke-width=".3" stroke-miterlimit="10"/><path d="M.7 0H0v5.7h.7V0z" transform="rotate(-20 1106 -481.5)" stroke="#fff" stroke-opacity=".3" stroke-width=".3" stroke-miterlimit="10"/><path d="M.7 0H0v5.7h.7V0z" transform="rotate(-20 1142 -531)" stroke="#fff" stroke-opacity=".3" stroke-width=".3" stroke-miterlimit="10"/><path d="M.7 0H0v7h.7V0z" transform="rotate(-20 1258.3 -551.5)" stroke="#fff" stroke-opacity=".3" stroke-width=".3" stroke-miterlimit="10"/><path d="M.7 0H0v5.7h.7V0z" transform="rotate(-20 1169.8 -447.4)" stroke="#fff" stroke-opacity=".3" stroke-width=".3" stroke-miterlimit="10"/><path d="M.7 0H0v1.2h.7V0z" transform="rotate(-20 788.3 -486.7)" stroke="#fff" stroke-opacity=".3" stroke-width=".3" stroke-miterlimit="10"/><path d="M.7 0H0v1.2h.7V0z" transform="rotate(-20 809.7 -513.2)" stroke="#fff" stroke-opacity=".3" stroke-width=".3" stroke-miterlimit="10"/><path d="M245 347l-2.7-1.3 1.3-2.7 2.7 1.2-1.3 2.7zm-1.7-1.6l1.4.6.7-1.4-1.5-.7-.6 1.5zM254.8 396.2l-2.7-1.3 1.3-2.7 2.7 1.3-1.3 2.7zm-1.8-1.6l1.5.7.7-1.5-1.5-.7-.7 1.5zM230.1 419l-3.6-1.7 1.7-3.7 3.6 1.7-1.7 3.7zm-2.7-2l2.4 1.1 1.1-2.4-2.4-1.2-1.1 2.5zM230.2 333l-2.8-1.2 1.3-2.7 2.7 1.2-1.2 2.7zm-1.8-1.6l1.4.7.7-1.4-1.4-.7-.7 1.4z" stroke="#fff" stroke-opacity=".3" stroke-width=".3" stroke-miterlimit="10"/><path d="M.7 0H0v1.2h.7V0z" transform="rotate(-20 821.5 -552.2)" stroke="#fff" stroke-opacity=".3" stroke-width=".3" stroke-miterlimit="10"/><path d="M.7 0H0v1.2h.7V0z" transform="rotate(-20 860.4 -535.7)" stroke="#fff" stroke-opacity=".3" stroke-width=".3" stroke-miterlimit="10"/><path d="M.7 0H0v3.9h.7V0z" transform="rotate(-20 894.4 -564.7)" stroke="#fff" stroke-opacity=".3" stroke-width=".3" stroke-miterlimit="10"/><path d="M.7 0H0v3.9h.7V0z" transform="rotate(-20 948.8 -614.5)" stroke="#fff" stroke-opacity=".3" stroke-width=".3" stroke-miterlimit="10"/><path d="M.7 0H0v3.9h.7V0z" transform="rotate(-20 1010 -585)" stroke="#fff" stroke-opacity=".3" stroke-width=".3" stroke-miterlimit="10"/><path d="M.7 0H0v5.7h.7V0z" transform="rotate(-20 1075.7 -657.5)" stroke="#fff" stroke-opacity=".3" stroke-width=".3" stroke-miterlimit="10"/><path d="M.7 0H0v5.7h.7V0z" transform="rotate(-20 1126.4 -623.3)" stroke="#fff" stroke-opacity=".3" stroke-width=".3" stroke-miterlimit="10"/><path d="M.7 0H0v7h.7V0z" transform="rotate(-20 1242 -643.5)" stroke="#fff" stroke-opacity=".3" stroke-width=".3" stroke-miterlimit="10"/><path d="M.7 0H0v5.7h.7V0z" transform="rotate(-20 1123.2 -711.5)" stroke="#fff" stroke-opacity=".3" stroke-width=".3" stroke-miterlimit="10"/><path d="M.7 0H0v1.2h.7V0z" transform="rotate(-20 778.5 -544.6)" stroke="#fff" stroke-opacity=".3" stroke-width=".3" stroke-miterlimit="10"/><path d="M.7 0H0v1.2h.7V0z" transform="rotate(-20 807.2 -527.2)" stroke="#fff" stroke-opacity=".3" stroke-width=".3" stroke-miterlimit="10"/><path d="M278.6 334.7l-2.7-1.2 1.2-2.7 2.7 1.2-1.2 2.7zm-1.8-1.5l1.4.6.7-1.4-1.4-.7-.7 1.5zM302.7 378.7l-2.7-1.2 1.2-2.7 2.7 1.2-1.2 2.7zm-1.8-1.5l1.5.6.6-1.4-1.4-.7-.7 1.5zM336.3 380.3l-3.7-1.7 1.7-3.6 3.7 1.7-1.7 3.6zm-2.8-2l2.5 1.1 1-2.4-2.3-1.1-1.2 2.4zM281 314.5l-2.6-1.3 1.2-2.7 2.7 1.3-1.3 2.7zm-1.7-1.6l1.4.7.7-1.5-1.5-.7-.6 1.5z" stroke="#fff" stroke-opacity=".3" stroke-width=".3" stroke-miterlimit="10"/><path d="M1.2 0H0v.7h1.2V0z" transform="rotate(-70 270.6 -9)" stroke="#fff" stroke-opacity=".3" stroke-width=".3" stroke-miterlimit="10"/><path d="M1.2 0H0v.7h1.2V0z" transform="rotate(-70 282.5 -3.6)" stroke="#fff" stroke-opacity=".3" stroke-width=".3" stroke-miterlimit="10"/><path d="M3.9 0H0v.7h3.9V0z" transform="rotate(-70 284.9 11.5)" stroke="#fff" stroke-opacity=".3" stroke-width=".3" stroke-miterlimit="10"/><path d="M3.9 0H0v.7h3.9V0z" transform="rotate(-70 286 33.8)" stroke="#fff" stroke-opacity=".3" stroke-width=".3" stroke-miterlimit="10"/><path d="M3.9 0H0v.7h3.9V0z" transform="rotate(-70 305.3 40.6)" stroke="#fff" stroke-opacity=".3" stroke-width=".3" stroke-miterlimit="10"/><path d="M5.7 0H0v.7h5.7V0z" transform="rotate(-70 304.7 71.5)" stroke="#fff" stroke-opacity=".3" stroke-width=".3" stroke-miterlimit="10"/><path d="M5.7 0H0v.7h5.7V0z" transform="rotate(-70 323 75)" stroke="#fff" stroke-opacity=".3" stroke-width=".3" stroke-miterlimit="10"/><path d="M7 0H0v.7h7V0z" transform="rotate(-70 344 105.1)" stroke="#fff" stroke-opacity=".3" stroke-width=".3" stroke-miterlimit="10"/><path d="M5.7 0H0v.7h5.7V0z" transform="rotate(-70 303.4 93.2)" stroke="#fff" stroke-opacity=".3" stroke-width=".3" stroke-miterlimit="10"/><path d="M1.2 0H0v.7h1.2V0z" transform="rotate(-70 263 -19.7)" stroke="#fff" stroke-opacity=".3" stroke-width=".3" stroke-miterlimit="10"/><path d="M1.2 0H0v.7h1.2V0z" transform="rotate(-70 273 -17.3)" stroke="#fff" stroke-opacity=".3" stroke-width=".3" stroke-miterlimit="10"/><path d="M147.4 334.7L146 332l2.7-1.2 1.3 2.7-2.7 1.2zm-.4-2.3l.7 1.4 1.5-.7-.7-1.4-1.5.7zM123.3 378.7L122 376l2.7-1.2 1.3 2.7-2.7 1.2zm-.4-2.3l.7 1.4 1.4-.6-.6-1.5-1.5.7zM89.7 380.3l-1.7-3.7 3.6-1.7 1.7 3.7-3.6 1.7zm-.8-3.3l1.1 2.4 2.4-1.1-1.1-2.5-2.4 1.2zM145 314.5l-1.3-2.7 2.7-1.3 1.2 2.7-2.7 1.3zm-.4-2.4l.7 1.5 1.4-.7-.7-1.5-1.4.7z" stroke="#fff" stroke-opacity=".3" stroke-width=".3" stroke-miterlimit="10"/><path d="M1.2 0H0v.7h1.2V0z" transform="rotate(-70 285.1 -19)" stroke="#fff" stroke-opacity=".3" stroke-width=".3" stroke-miterlimit="10"/><path d="M1.2 0H0v.7h1.2V0z" transform="rotate(-70 286 -6.1)" stroke="#fff" stroke-opacity=".3" stroke-width=".3" stroke-miterlimit="10"/><path d="M3.9 0H0v.7h3.9V0z" transform="rotate(-70 299.4 1.3)" stroke="#fff" stroke-opacity=".3" stroke-width=".3" stroke-miterlimit="10"/><path d="M3.9 0H0v.7h3.9V0z" transform="rotate(-70 320 10)" stroke="#fff" stroke-opacity=".3" stroke-width=".3" stroke-miterlimit="10"/><path d="M3.9 0H0v.7h3.9V0z" transform="rotate(-70 319.8 30.5)" stroke="#fff" stroke-opacity=".3" stroke-width=".3" stroke-miterlimit="10"/><path d="M5.7 0H0v.7h5.7V0z" transform="rotate(-70 349 40.5)" stroke="#fff" stroke-opacity=".3" stroke-width=".3" stroke-miterlimit="10"/><path d="M5.7 0H0v.7h5.7V0z" transform="rotate(-70 346.1 58.8)" stroke="#fff" stroke-opacity=".3" stroke-width=".3" stroke-miterlimit="10"/><path d="M7 0H0v.7h7V0z" transform="rotate(-70 367.2 88.9)" stroke="#fff" stroke-opacity=".3" stroke-width=".3" stroke-miterlimit="10"/><path d="M5.7 0H0v.7h5.7V0z" transform="rotate(-70 370 46.7)" stroke="#fff" stroke-opacity=".3" stroke-width=".3" stroke-miterlimit="10"/><path d="M1.2 0H0v.7h1.2V0z" transform="rotate(-70 277.5 -29.9)" stroke="#fff" stroke-opacity=".3" stroke-width=".3" stroke-miterlimit="10"/><path d="M1.2 0H0v.7h1.2V0z" transform="rotate(-70 276.4 -19.8)" stroke="#fff" stroke-opacity=".3" stroke-width=".3" stroke-miterlimit="10"/><path d="M181 347l-1.3-2.8 2.7-1.2 1.2 2.7-2.7 1.2zm-.4-2.4l.6 1.4 1.5-.6-.7-1.5-1.4.7zM171.2 396.2l-1.3-2.7 2.7-1.3 1.3 2.7-2.7 1.3zm-.4-2.4l.7 1.5 1.4-.7-.6-1.5-1.5.7zM195.8 419l-1.7-3.7 3.7-1.7 1.7 3.7-3.7 1.7zm-.8-3.3l1.2 2.4 2.4-1.1-1.1-2.5-2.5 1.2zM195.8 333l-1.2-2.7 2.7-1.2 1.2 2.7-2.7 1.2zm-.3-2.3l.6 1.4 1.5-.7-.7-1.4-1.4.7z" stroke="#fff" stroke-opacity=".3" stroke-width=".3" stroke-miterlimit="10"/><path d="M1.2 0H0v.7h1.2V0z" transform="rotate(-30 495.9 -198) skewX(-.1)" stroke="#fff" stroke-opacity=".3" stroke-width=".3" stroke-miterlimit="10"/><path d="M1.2 0H0v.7h1.2V0z" transform="rotate(-30 516.6 -178.1) skewX(-.1)" stroke="#fff" stroke-opacity=".3" stroke-width=".3" stroke-miterlimit="10"/><path d="M3.9 0H0v.7h3.9V0z" transform="rotate(-30 510.2 -144.8) skewX(-.1)" stroke="#fff" stroke-opacity=".3" stroke-width=".3" stroke-miterlimit="10"/><path d="M3.9 0H0v.7h3.9V0z" transform="rotate(-30 495.4 -97.7) skewX(-.1)" stroke="#fff" stroke-opacity=".3" stroke-width=".3" stroke-miterlimit="10"/><path d="M3.9 0H0v.7h3.9V0z" transform="rotate(-30 530.5 -69) skewX(-.1)" stroke="#fff" stroke-opacity=".3" stroke-width=".3" stroke-miterlimit="10"/><path d="M5.7 0H0v.7h5.7V0z" transform="rotate(-30 506 -5) skewX(-.1)" stroke="#fff" stroke-opacity=".3" stroke-width=".3" stroke-miterlimit="10"/><path d="M5.7 0H0v.7h5.7V0z" transform="rotate(-30 541.1 16) skewX(-.1)" stroke="#fff" stroke-opacity=".3" stroke-width=".3" stroke-miterlimit="10"/><path d="M7 0H0v.7h7V0z" transform="rotate(-30 562.1 94.5) skewX(-.1)" stroke="#fff" stroke-opacity=".3" stroke-width=".3" stroke-miterlimit="10"/><path d="M5.7 0H0v.7h5.7V0z" transform="rotate(-30 486.6 39) skewX(-.1)" stroke="#fff" stroke-opacity=".3" stroke-width=".3" stroke-miterlimit="10"/><path d="M1.2 0H0v.7h1.2V0z" transform="rotate(-30 488.4 -226.3) skewX(-.1)" stroke="#fff" stroke-opacity=".3" stroke-width=".3" stroke-miterlimit="10"/><path d="M1.2 0H0v.7h1.2V0z" transform="rotate(-30 507 -213.8) skewX(-.1)" stroke="#fff" stroke-opacity=".3" stroke-width=".3" stroke-miterlimit="10"/><path d="M83.3 263.3l-2.9-.8.8-2.9 2.8.8-.7 2.9zm-2-1.3l1.5.4.4-1.5-1.5-.4-.4 1.5zM36.5 281.5l-2.8-.8.8-2.9 2.8.8-.8 2.9zm-2-1.3l1.6.4.4-1.5-1.6-.4-.4 1.5zM10.8 261.3l-3.9-1 1-3.9 4 1-1 4zm-3-1.5l2.6.7.6-2.6-2.5-.7-.7 2.6zM94.4 246.2l-2.9-.8.8-2.9 2.9.8-.8 2.9zm-2-1.3l1.5.4.4-1.5-1.5-.4-.4 1.5z" stroke="#fff" stroke-opacity=".3" stroke-width=".3" stroke-miterlimit="10"/><path d="M1.2 0H0v.7h1.2V0z" transform="rotate(-30 533.8 -208.2) skewX(-.1)" stroke="#fff" stroke-opacity=".3" stroke-width=".3" stroke-miterlimit="10"/><path d="M1.2 0H0v.7h1.2V0z" transform="rotate(-30 525.8 -180.6) skewX(-.1)" stroke="#fff" stroke-opacity=".3" stroke-width=".3" stroke-miterlimit="10"/><path d="M3.9 0H0v.7h3.9V0z" transform="rotate(-30 548 -155) skewX(-.1)" stroke="#fff" stroke-opacity=".3" stroke-width=".3" stroke-miterlimit="10"/><path d="M3.9 0H0v.7h3.9V0z" transform="rotate(-30 584.4 -121.5) skewX(-.1)" stroke="#fff" stroke-opacity=".3" stroke-width=".3" stroke-miterlimit="10"/><path d="M3.9 0H0v.7h3.9V0z" transform="rotate(-30 568.4 -79) skewX(-.1)" stroke="#fff" stroke-opacity=".3" stroke-width=".3" stroke-miterlimit="10"/><path d="M5.7 0H0v.7h5.7V0z" transform="rotate(-30 621.6 -36) skewX(-.1)" stroke="#fff" stroke-opacity=".3" stroke-width=".3" stroke-miterlimit="10"/><path d="M5.7 0H0v.7h5.7V0z" transform="rotate(-30 601.7 0) skewX(-.1)" stroke="#fff" stroke-opacity=".3" stroke-width=".3" stroke-miterlimit="10"/><path d="M7 0H0v.7h7V0z" transform="rotate(-30 622.7 78.3) skewX(-.1)" stroke="#fff" stroke-opacity=".3" stroke-width=".3" stroke-miterlimit="10"/><path d="M5.7 0H0v.7h5.7V0z" transform="rotate(-30 660.4 -7.3) skewX(-.1)" stroke="#fff" stroke-opacity=".3" stroke-width=".3" stroke-miterlimit="10"/><path d="M1.2 0H0v.7h1.2V0z" transform="rotate(-30 526.3 -236.4) skewX(-.1)" stroke="#fff" stroke-opacity=".3" stroke-width=".3" stroke-miterlimit="10"/><path d="M1.2 0H0v.7h1.2V0z" transform="rotate(-30 516.3 -216.2) skewX(-.1)" stroke="#fff" stroke-opacity=".3" stroke-width=".3" stroke-miterlimit="10"/><path d="M101.1 294.2l-2.8-.7.7-3 2.9.9-.8 2.8zm-2-1.2l1.5.4.5-1.6-1.6-.4-.4 1.6zM62 325.6l-2.8-.7.7-2.9 2.9.8-.8 2.8zm-2-1.2l1.5.4.4-1.6-1.5-.4-.4 1.6zM67.3 359.3l-3.9-1 1-4 4 1.1-1 3.9zm-3-1.5l2.5.7.7-2.6-2.6-.7-.6 2.6zM121.5 293.1l-2.9-.7.8-2.9 2.8.8-.7 2.8zm-2-1.2l1.5.4.4-1.6-1.5-.4-.5 1.6z" stroke="#fff" stroke-opacity=".3" stroke-width=".3" stroke-miterlimit="10"/><path d="M.7 0H0v1.2h.7V0z" transform="rotate(-80 195.7 -5.3)" stroke="#fff" stroke-opacity=".3" stroke-width=".3" stroke-miterlimit="10"/><path d="M.7 0H0v1.2h.7V0z" transform="rotate(-80 192 5.7)" stroke="#fff" stroke-opacity=".3" stroke-width=".3" stroke-miterlimit="10"/><path d="M.7 0H0v3.9h.7V0z" transform="rotate(-80 178.7 9)" stroke="#fff" stroke-opacity=".3" stroke-width=".3" stroke-miterlimit="10"/><path d="M.7 0H0v3.9h.7V0z" transform="rotate(-80 159 11.6)" stroke="#fff" stroke-opacity=".3" stroke-width=".3" stroke-miterlimit="10"/><path d="M.7 0H0v3.9h.7V0z" transform="rotate(-80 154.5 29.3)" stroke="#fff" stroke-opacity=".3" stroke-width=".3" stroke-miterlimit="10"/><path d="M.7 0H0v5.7h.7V0z" transform="rotate(-80 127 31.2)" stroke="#fff" stroke-opacity=".3" stroke-width=".3" stroke-miterlimit="10"/><path d="M.7 0H0v5.7h.7V0z" transform="rotate(-80 125.2 47.7)" stroke="#fff" stroke-opacity=".3" stroke-width=".3" stroke-miterlimit="10"/><path d="M.7 0H0v7h.7V0z" transform="rotate(-80 100.1 68.7)" stroke="#fff" stroke-opacity=".3" stroke-width=".3" stroke-miterlimit="10"/><path d="M.7 0H0v5.7h.7V0z" transform="rotate(-80 107.5 31.7)" stroke="#fff" stroke-opacity=".3" stroke-width=".3" stroke-miterlimit="10"/><path d="M.7 0H0v1.2h.7V0z" transform="rotate(-80 204.8 -12.9)" stroke="#fff" stroke-opacity=".3" stroke-width=".3" stroke-miterlimit="10"/><path d="M.7 0H0v1.2h.7V0z" transform="rotate(-80 203.4 -4)" stroke="#fff" stroke-opacity=".3" stroke-width=".3" stroke-miterlimit="10"/><path d="M77.2 166.5l-1.7-2.4 2.4-1.7 1.7 2.4-2.4 1.7zm-.8-2.2l1 1.3 1.3-1-1-1.2-1.3.9zM29.7 150.4L28 148l2.4-1.7 1.7 2.4-2.4 1.7zm-.7-2.3l.9 1.4 1.3-1-1-1.3-1.2 1zM23 118.5l-2.4-3.3 3.3-2.4 2.3 3.3-3.3 2.4zm-1.4-3.2l1.5 2.2 2.2-1.5-1.5-2.2-2.2 1.5zM96.7 160.6l-1.7-2.4 2.4-1.7 1.7 2.4-2.4 1.7zm-.8-2.3l1 1.3 1.3-.9-1-1.3-1.3 1z" stroke="#fff" stroke-opacity=".3" stroke-width=".3" stroke-miterlimit="10"/><path d="M.7 0H0v1.2h.7V0z" transform="rotate(-80 206 6.8)" stroke="#fff" stroke-opacity=".3" stroke-width=".3" stroke-miterlimit="10"/><path d="M.7 0H0v1.2h.7V0z" transform="rotate(-80 194.5 8.6)" stroke="#fff" stroke-opacity=".3" stroke-width=".3" stroke-miterlimit="10"/><path d="M.7 0H0v3.9h.7V0z" transform="rotate(-80 188.9 21.1)" stroke="#fff" stroke-opacity=".3" stroke-width=".3" stroke-miterlimit="10"/><path d="M.7 0H0v3.9h.7V0z" transform="rotate(-80 182.9 40)" stroke="#fff" stroke-opacity=".3" stroke-width=".3" stroke-miterlimit="10"/><path d="M.7 0H0v3.9h.7V0z" transform="rotate(-80 164.6 41.5)" stroke="#fff" stroke-opacity=".3" stroke-width=".3" stroke-miterlimit="10"/><path d="M.7 0H0v5.7h.7V0z" transform="rotate(-80 158 68.2)" stroke="#fff" stroke-opacity=".3" stroke-width=".3" stroke-miterlimit="10"/><path d="M.7 0H0v5.7h.7V0z" transform="rotate(-80 141.5 67)" stroke="#fff" stroke-opacity=".3" stroke-width=".3" stroke-miterlimit="10"/><path d="M.7 0H0v7h.7V0z" transform="matrix(.16983 -.98003 .97997 .17017 7.7 187.2)" stroke="#fff" stroke-opacity=".3" stroke-width=".3" stroke-miterlimit="10"/><path d="M.7 0H0v5.7h.7V0z" transform="matrix(.16983 -.98003 .97997 .17017 39.4 223.7)" stroke="#fff" stroke-opacity=".3" stroke-width=".3" stroke-miterlimit="10"/><path d="M.7 0H0v1.2h.7V0z" transform="rotate(-80 215 -.8)" stroke="#fff" stroke-opacity=".3" stroke-width=".3" stroke-miterlimit="10"/><path d="M.7 0H0v1.2h.7V0z" transform="rotate(-80 205.9 -1)" stroke="#fff" stroke-opacity=".3" stroke-width=".3" stroke-miterlimit="10"/><path d="M71 201.7l-1.7-2.4 2.4-1.7 1.7 2.4-2.4 1.7zm-.7-2.2l.9 1.3 1.3-1-1-1.3-1.2 1zM20.8 200.6l-1.7-2.4 2.5-1.7 1.7 2.4-2.5 1.7zm-.7-2.3l.9 1.4 1.3-1-.9-1.3-1.3 1zM3.3 229.8L1 226.5l3.3-2.3 2.3 3.3-3.3 2.3zM2 226.7l1.5 2.2 2.2-1.6-1.6-2.2-2.1 1.6zM87.3 214l-1.7-2.4 2.4-1.7 1.7 2.4-2.4 1.7zm-.8-2.3l1 1.3 1.3-.9-1-1.3-1.3 1z" stroke="#fff" stroke-opacity=".3" stroke-width=".3" stroke-miterlimit="10"/><path d="M.7 0H0v1.2h.7V0z" transform="rotate(-40 318.4 -178.4) skewX(-.1)" stroke="#fff" stroke-opacity=".3" stroke-width=".3" stroke-miterlimit="10"/><path d="M.7 0H0v1.2h.7V0z" transform="rotate(-40 304.8 -161.5) skewX(-.1)" stroke="#fff" stroke-opacity=".3" stroke-width=".3" stroke-miterlimit="10"/><path d="M.7 0H0v3.9h.7V0z" transform="rotate(-40 279.3 -164.2) skewX(-.1)" stroke="#fff" stroke-opacity=".3" stroke-width=".3" stroke-miterlimit="10"/><path d="M.7 0H0v3.9h.7V0z" transform="rotate(-40 242.7 -172.2) skewX(-.1)" stroke="#fff" stroke-opacity=".3" stroke-width=".3" stroke-miterlimit="10"/><path d="M.7 0H0v3.9h.7V0z" transform="rotate(-40 223.3 -143.9) skewX(-.1)" stroke="#fff" stroke-opacity=".3" stroke-width=".3" stroke-miterlimit="10"/><path d="M.7 0H0v5.7h.7V0z" transform="rotate(-40 173.5 -158.2) skewX(-.1)" stroke="#fff" stroke-opacity=".3" stroke-width=".3" stroke-miterlimit="10"/><path d="M.7 0H0v5.7h.7V0z" transform="rotate(-40 159.8 -130.3) skewX(-.1)" stroke="#fff" stroke-opacity=".3" stroke-width=".3" stroke-miterlimit="10"/><path d="M.7 0H0v7h.7V0z" transform="rotate(-40 102 -109.3) skewX(-.1)" stroke="#fff" stroke-opacity=".3" stroke-width=".3" stroke-miterlimit="10"/><path d="M.7 0H0v5.7h.7V0z" transform="rotate(-40 138.9 -169.8) skewX(-.1)" stroke="#fff" stroke-opacity=".3" stroke-width=".3" stroke-miterlimit="10"/><path d="M.7 0H0v1.2h.7V0z" transform="rotate(-40 339.3 -186) skewX(-.1)" stroke="#fff" stroke-opacity=".3" stroke-width=".3" stroke-miterlimit="10"/><path d="M.7 0H0v1.2h.7V0z" transform="rotate(-40 331 -171) skewX(-.1)" stroke="#fff" stroke-opacity=".3" stroke-width=".3" stroke-miterlimit="10"/><path d="M137.6 88.8l-3-.3.3-3 3 .3-.3 3zm-2.2-1l1.6.2.1-1.6-1.6-.1-.1 1.6zM111.6 45.8l-3-.2.3-3 3 .3-.3 3zm-2.2-.8l1.6.1v-1.6l-1.5-.1-.1 1.6zM128 17.1l-4-.4.3-4 4 .4-.3 4zm-3.3-1l2.7.2.2-2.6-2.7-.3-.2 2.7zM156.3 96.8l-2.9-.3.3-3 2.9.3-.3 3zm-2.2-.9l1.6.1.2-1.6-1.6-.1-.2 1.6z" stroke="#fff" stroke-opacity=".3" stroke-width=".3" stroke-miterlimit="10"/><path d="M.7 0H0v1.2h.7V0z" transform="rotate(-40 328.6 -150.5) skewX(-.1)" stroke="#fff" stroke-opacity=".3" stroke-width=".3" stroke-miterlimit="10"/><path d="M.7 0H0v1.2h.7V0z" transform="rotate(-40 307.4 -154.8) skewX(-.1)" stroke="#fff" stroke-opacity=".3" stroke-width=".3" stroke-miterlimit="10"/><path d="M.7 0H0v3.9h.7V0z" transform="rotate(-40 289.4 -136.3) skewX(-.1)" stroke="#fff" stroke-opacity=".3" stroke-width=".3" stroke-miterlimit="10"/><path d="M.7 0H0v3.9h.7V0z" transform="rotate(-40 266.6 -106.7) skewX(-.1)" stroke="#fff" stroke-opacity=".3" stroke-width=".3" stroke-miterlimit="10"/><path d="M.7 0H0v3.9h.7V0z" transform="rotate(-40 233.5 -116) skewX(-.1)" stroke="#fff" stroke-opacity=".3" stroke-width=".3" stroke-miterlimit="10"/><path d="M.7 0H0v5.7h.7V0z" transform="rotate(-40 204.5 -73) skewX(-.1)" stroke="#fff" stroke-opacity=".3" stroke-width=".3" stroke-miterlimit="10"/><path d="M.7 0H0v5.7h.7V0z" transform="rotate(-40 176 -85.7) skewX(-.1)" stroke="#fff" stroke-opacity=".3" stroke-width=".3" stroke-miterlimit="10"/><path d="M.7 0H0v7h.7V0z" transform="rotate(-40 118.3 -64.7) skewX(-.1)" stroke="#fff" stroke-opacity=".3" stroke-width=".3" stroke-miterlimit="10"/><path d="M.7 0H0v5.7h.7V0z" transform="rotate(-40 185.4 -42) skewX(-.1)" stroke="#fff" stroke-opacity=".3" stroke-width=".3" stroke-miterlimit="10"/><path d="M.7 0H0v1.2h.7V0z" transform="rotate(-40 349.4 -158) skewX(-.1)" stroke="#fff" stroke-opacity=".3" stroke-width=".3" stroke-miterlimit="10"/><path d="M.7 0H0v1.2h.7V0z" transform="rotate(-40 333.8 -164.4) skewX(-.1)" stroke="#fff" stroke-opacity=".3" stroke-width=".3" stroke-miterlimit="10"/><path d="M110.2 111.7l-3-.2.3-3 3 .3-.3 3zm-2.2-.9l1.6.2.1-1.6-1.6-.2-.1 1.6zM72.6 78.6l-3-.2.3-3 3 .3-.3 3zm-2.3-.9l1.6.2.2-1.6-1.6-.2-.2 1.6zM41.4 89.8l-4-.4.4-4 4 .4-.4 4zm-3.3-1l2.7.3.2-2.7-2.6-.2-.3 2.6zM114.8 131.6l-2.9-.3.3-3 3 .3-.4 3zm-2.2-.9l1.6.2.2-1.6-1.6-.2-.2 1.6zM223.5 158h-.7v1.2h.7V158zM215.8 145.3h-.7v1.1h.7v-1.1zM223.5 129.5h-.7v3.8h.7v-3.8zM237.2 107.8h-.7v3.9h.7v-3.9zM223.5 88.7h-.7v3.9h.7v-4zM244.3 60h-.6v5.7h.6V60zM229.6 44.7h-.7v5.7h.7v-5.7zM229.6 2.5h-.7v7.1h.7v-7zM260 40.4h-.8v5.8h.7v-5.8zM223.5 173.2h-.7v1.2h.7v-1.2zM215.8 164.4h-.7v1.2h.7v-1.2zM230.8 67.8l-2-2.1 2-2.1 2.1 2-2 2.2zm-1-2.1l1 1.1 1.2-1.1-1.2-1.1-1 1zM238.5 18.1l-2.1-2 2-2 2.2 2-2.1 2zm-1.2-2l1.2 1.1 1.1-1-1.1-1.2-1.2 1.1zM269.5 6.7l-2.9-2.9 2.9-2.8 2.8 2.8-2.8 2.9zm-1.9-2.9l1.9 2 1.9-2-1.9-1.8-1.9 1.8zM240 86l-2-2.1 2-2.1 2.2 2L240 86zm-1-2.1l1 1.1 1.2-1.1-1.1-1.1-1.2 1zM203.2 158h-.7v1.2h.7V158zM210.9 145.3h-.7v1.1h.7v-1.1zM203.2 129.5h-.7v3.8h.7v-3.8zM189.5 107.8h-.7v3.9h.7v-3.9zM203.2 88.7h-.7v3.9h.7v-4zM182.3 60h-.6v5.7h.6V60zM197.1 44.7h-.7v5.7h.7v-5.7zM197.1 2.5h-.7v7.1h.7v-7zM166.8 40.4h-.7v5.8h.7v-5.8zM203.2 173.2h-.7v1.2h.7v-1.2zM210.9 164.4h-.7v1.2h.7v-1.2zM195.2 67.8l-2.1-2.1 2-2.1 2.1 2-2 2.2zm-1.2-2.1l1.2 1.1 1-1.1-1-1.1-1.2 1zM187.5 18.1l-2-2 2-2 2.1 2-2 2zm-1.1-2l1.1 1.1 1.2-1-1.2-1.2-1.1 1.1zM156.5 6.7l-2.8-2.9 2.8-2.8 2.9 2.8-2.9 2.9zm-1.9-2.9l2 2 1.8-2-1.9-1.8-1.9 1.8zM186 86l-2.2-2.1 2.1-2.1 2.1 2-2 2.2zm-1.2-2.1l1.1 1.1 1.2-1.1-1.2-1.1-1.1 1z" stroke="#fff" stroke-opacity=".3" stroke-width=".3" stroke-miterlimit="10"/></svg>