<svg viewBox="0 0 425 419" fill="none" xmlns="http://www.w3.org/2000/svg"><path d="M251.1 174.7l-.7 1 .5.4.7-1-.5-.4zM253.4 160l-.7 1 .5.4.7-1-.5-.3zM269.5 152.9l-2.5 3 .5.4 2.5-3-.5-.4zM294 145.1l-2.6 3 .5.4 2.5-3-.5-.4zM295.7 121.7l-2.5 3 .5.4 2.5-3-.5-.4zM330 113l-3.6 4.5.5.4 3.7-4.4-.5-.4zM328.6 91.8l-3.7 4.4.5.5 3.7-4.4-.5-.5zM355.7 59.6L351 65l.5.5 4.6-5.5-.5-.4zM354.6 108.1l-3.7 4.4.5.5 3.7-4.4-.5-.5zM241.4 186.4l-.7.9.5.4.7-.9-.5-.4zM241.1 174.7l-.7.9.5.4.8-.9-.6-.4zM315.2 110.8l-.2-3 3-.2.2 3-3 .2zm.5-2.3l.1 1.6 1.6-.2v-1.6l-1.7.2zM353 77.7l-.3-3 3-.2.2 3-3 .2zm.4-2.3l.1 1.6 1.6-.2v-1.6l-1.7.2zM384 88.9l-.3-4 4-.4.4 4-4 .4zm.5-3.4l.2 2.7 2.6-.3-.2-2.6-2.6.2zM310.6 130.7l-.2-3 3-.2.2 3-3 .2zm.5-2.4l.1 1.6 1.6-.1-.1-1.6-1.6.1zM235.6 161.7l-.8.9.5.4.8-.9-.5-.4zM249.6 156.9l-.7.9.5.4.8-.9-.6-.4zM254 139.8l-2.6 3 .6.4 2.4-3-.5-.4zM257.3 114.4l-2.5 3 .6.4 2.4-3-.5-.4zM280.1 108.6l-2.5 3 .5.4 2.5-3-.5-.4zM282.6 73.2l-3.7 4.3.5.5 3.7-4.4-.5-.4zM303.7 71l-3.6 4.3.5.5 3.7-4.4-.6-.5zM330.8 38.7l-4.6 5.4.6.5 4.5-5.5-.5-.4zM283.2 48.2l-3.7 4.4.6.4 3.6-4.4-.5-.4zM225.8 173.3l-.7.9.5.4.8-.9-.6-.4zM237.4 171.5l-.8 1 .5.4.8-1-.5-.4zM287.9 87.8l-.3-3 3-.2.2 3-2.9.2zm.5-2.3l.1 1.6 1.6-.2-.1-1.6-1.6.2zM314 45l-.3-3 3-.3.2 3-3 .2zm.4-2.4l.1 1.6 1.6-.2-.1-1.6-1.6.2zM297.5 16.2l-.3-4 4-.4.3 4-4 .4zm.4-3.4l.2 2.6 2.7-.2-.2-2.7-2.7.3zM269.1 95.8l-.2-3 3-.2.2 3-3 .2zm.5-2.3l.2 1.6 1.6-.2-.2-1.6-1.6.2zM261.8 206.9l-1.1.2.1.6 1.2-.2-.2-.6zM273 197l-1 .3v.6l1.2-.2-.1-.6zM290 202l-3.8.6v.6l3.9-.6-.1-.7zM313.6 211.7l-3.8.7.2.6 3.8-.7-.2-.6zM330 194.8l-3.7.7v.7l3.9-.7-.1-.7zM362 210.4l-5.7 1 .1.7 5.7-1-.1-.7zM374.4 193.2l-5.6 1 .1.7 5.7-1-.2-.7zM415.9 185.9l-7 1.2.1.7 7-1.2-.1-.7zM383.9 222.4l-5.7 1 .1.7 5.7-1-.1-.7zM247 209.5l-1.2.2.1.7 1.2-.2-.2-.7zM254.2 200.4l-1.1.2.1.7 1.1-.2v-.7zM354.5 200.8L352 199l1.7-2.4 2.4 1.7-1.7 2.4zm-1.5-1.9l1.3 1 1-1.4-1.4-.9-1 1.3zM404.6 199.7l-2.4-1.7 1.7-2.4 2.4 1.7-1.7 2.4zm-1.5-1.9l1.3 1 1-1.4-1.4-.9-.9 1.3zM422.1 229l-3.3-2.4 2.4-3.3 3.2 2.3-2.3 3.3zm-2.3-2.6l2.2 1.6 1.5-2.2-2.2-1.6-1.5 2.2zM338.2 213l-2.5-1.6 1.7-2.5 2.5 1.7-1.7 2.5zm-1.5-1.8l1.3 1 1-1.4-1.4-1-1 1.4zM258.3 186.8l-1.1.2.1.7 1.1-.2v-.7zM272.2 192.2l-1.1.2v.7l1.2-.2-.1-.7zM286.4 181.9l-3.8.7.2.6 3.8-.7-.2-.6zM305.4 164.6l-3.8.7v.6l3.9-.6-.1-.7zM326.6 174.8l-3.9.7.2.7 3.8-.7-.1-.7zM351.2 149.3l-5.6 1v.6l5.7-1-.1-.6zM368.8 161.2l-5.6 1v.7l5.7-1v-.7zM410.3 153.9l-7 1.2.1.7 7-1.2-.1-.7zM367.7 130.5l-5.6 1 .1.7 5.6-1v-.7zM243.4 189.5l-1.1.2v.6l1.2-.2v-.6zM253.4 195.5l-1.2.2.2.7 1-.2v-.7zM348.3 165.6l-2.5-1.7 1.7-2.4 2.5 1.7-1.7 2.4zm-1.5-1.9l1.3 1 1-1.3-1.4-1-1 1.3zM395.8 149.5l-2.5-1.7 1.7-2.4 2.5 1.7-1.7 2.4zm-1.5-1.9l1.3 1 1-1.4-1.4-.9-1 1.3zM402.5 117.5l-3.3-2.3 2.4-3.3 3.3 2.3-2.4 3.3zm-2.3-2.5l2.2 1.6 1.5-2.2-2.2-1.6-1.5 2.2zM328.8 159.7l-2.5-1.7 1.7-2.5 2.5 1.7-1.7 2.5zm-1.5-2l1.3 1 1-1.3-1.4-1-.9 1.4zM248.5 237.8l-.4.5 1 .6.4-.6-1-.5zM263.3 237.4l-.3.6 1 .6.3-.6-1-.6zM270.9 250.7l-.4.6 3.4 2 .3-.6-3.3-2zM282.7 273.4l-.3.6 3.3 2 .4-.7-3.4-1.9zM306.1 271l-.3.7 3.3 2 .4-.7-3.4-2zM319 302.6l-.4.5 5 3 .3-.7-5-2.8zM339.5 297.4l-.3.6 5 2.9.3-.6-5-2.9zM374.8 317.8l-.3.6 6.1 3.5.3-.6-6-3.5zM328 325.8l-.3.6 5 2.9.3-.6-5-2.9zM235.4 230.1l-.4.6 1 .6.4-.6-1-.6zM246.8 227.9l-.3.6 1 .6.3-.6-1-.6zM324.3 293.3l-.8-2.9 2.9-.7.8 2.8-2.9.8zm0-2.4l.5 1.6 1.5-.5-.4-1.5-1.5.4zM363.4 324.7l-.8-2.9 2.9-.7.8 2.8-2.9.8zm0-2.4l.5 1.6 1.5-.4-.4-1.6-1.5.4zM358 358.4l-1-4 4-1 1 4-4 1zm-.1-3.4l.7 2.6 2.5-.7-.6-2.6-2.6.7zM304 292.2l-.8-2.9 2.8-.7.8 2.8-2.8.8zm0-2.4l.4 1.6 1.6-.5-.4-1.5-1.6.4zM258.6 220.1l-.3.6 1 .6.3-.6-1-.6zM265.8 233.2l-.3.6 1 .6.3-.6-1-.6zM281 233l-.3.7 3.3 1.9.4-.6-3.4-2zM306.6 232l-.3.6 3.3 1.9.3-.6-3.3-2zM316.3 253.5l-.3.6 3.3 2 .4-.7-3.4-1.9zM350 248.8l-.4.6 5 2.9.3-.6-5-2.9zM355.8 269.3l-.4.5 5 3 .3-.7-5-2.8zM391 289.7l-.3.5 6.1 3.6.4-.6-6.2-3.5zM375.8 243l-.3.6 5 2.8.3-.5-5-3zM245.5 212.5l-.3.6 1 .6.3-.6-1-.6zM249.3 223.6l-.4.6 1 .5.4-.6-1-.5zM342.2 262.3l-.8-2.8 2.8-.8.8 2.9-2.8.7zm0-2.3l.4 1.5 1.6-.4-.4-1.6-1.6.5zM388.9 280.6l-.8-3 2.9-.7.7 2.9-2.8.8zm0-2.4l.5 1.5 1.5-.4-.4-1.5-1.6.4zM414.6 260.4l-1-3.9 3.8-1 1 3.9-3.8 1zm-.2-3.4l.7 2.6 2.6-.7-.7-2.5-2.6.6zM331 245.2l-.7-2.8 2.8-.8.8 2.9-2.9.7zm0-2.3l.5 1.5 1.5-.4-.4-1.5-1.5.4zM219.4 253.4l-.7.2.4 1.1.7-.2-.4-1.1zM231 262.8l-.7.2.4 1 .7-.1-.4-1.1zM228.2 277.7l-.6.2 1.3 3.6.7-.2-1.4-3.6zM222.7 302.8l-.6.2 1.3 3.7.6-.3-1.3-3.6zM242.2 316l-.7.2 1.3 3.7.7-.3-1.3-3.6zM231.7 348.4l-.6.2 2 5.4.6-.2-2-5.4zM250.9 357.7l-.7.2 2 5.4.6-.2-2-5.4zM264.7 396l-.6.3 2.4 6.7.7-.3-2.5-6.6zM223.8 372l-.7.3 2 5.4.6-.2-2-5.4zM214.2 239.2l-.6.2.4 1 .6-.1-.4-1.1zM224.4 244.8l-.6.2.4 1 .6-.1-.4-1.1zM244.5 346l-2.7-1.3 1.2-2.7 2.7 1.3-1.2 2.7zm-1.8-1.6l1.5.7.6-1.5-1.4-.7-.7 1.5zM254.3 395.2l-2.7-1.2 1.2-2.7 2.7 1.2-1.2 2.7zm-1.8-1.6l1.4.7.7-1.4-1.4-.7-.7 1.4zM229.5 418l-3.6-1.7 1.7-3.6 3.7 1.7-1.8 3.6zm-2.7-2l2.4 1.1 1.2-2.4-2.5-1.1-1.1 2.4zM229.6 332l-2.7-1.2 1.2-2.7 2.8 1.2-1.3 2.8zm-1.8-1.5l1.5.7.7-1.5-1.5-.7-.7 1.5zM238.5 246.4l-.7.3.4 1 .7-.2-.4-1zM235.6 261l-.6.3.4 1.1.6-.2-.4-1.1zM247.3 270.8l-.6.2 1.3 3.6.6-.2-1.3-3.6zM267.6 286.4l-.6.2 1.3 3.6.6-.2-1.3-3.6zM261.2 309.1l-.6.2 1.3 3.7.6-.2-1.3-3.7zM290 327.2l-.6.2 2 5.4.5-.2-2-5.4zM281.4 346.6l-.7.2 2 5.4.6-.2-2-5.4zM295.2 385l-.6.2 2.4 6.6.7-.2-2.5-6.6zM311.3 340.2l-.6.2 2 5.4.6-.2-2-5.4zM233.3 232.2l-.6.2.4 1.1.6-.2-.4-1.1zM229 243l-.6.3.4 1.1.7-.2-.4-1.1zM278 333.8l-2.7-1.3 1.3-2.7 2.7 1.3-1.3 2.7zm-1.8-1.6l1.5.7.7-1.5-1.5-.7-.7 1.5zM302.1 377.8l-2.7-1.3 1.3-2.7 2.7 1.3-1.3 2.7zm-1.7-1.6l1.4.7.7-1.5-1.5-.7-.6 1.5zM335.7 379.4l-3.6-1.7 1.7-3.7 3.6 1.7-1.7 3.7zm-2.7-2l2.4 1 1.1-2.4-2.4-1-1.1 2.3zM280.5 313.5l-2.7-1.2 1.3-2.7 2.7 1.2-1.3 2.7zm-1.8-1.6l1.5.7.6-1.4-1.4-.7-.7 1.4zM186.4 246.4l-.4 1.1.6.2.4-1-.6-.3zM189.3 261l-.4 1.1.6.3.4-1.1-.6-.3zM177.6 270.7l-1.4 3.7.7.2 1.3-3.6-.6-.3zM157.3 286.4l-1.4 3.6.7.2 1.3-3.6-.6-.2zM163.6 309l-1.3 3.7.6.2 1.4-3.6-.7-.3zM134.9 327.1l-2 5.4.6.3 2-5.4-.6-.3zM143.5 346.6l-2 5.4.7.2 2-5.4-.7-.2zM129.6 384.9l-2.4 6.6.6.3 2.4-6.7-.6-.2zM113.5 340.2l-2 5.3.7.3 2-5.4-.7-.2zM191.6 232.2l-.4 1 .6.3.4-1-.6-.3zM195.8 243l-.4 1.1.6.3.4-1.1-.6-.3zM146.8 333.8l-1.2-2.8 2.7-1.2 1.2 2.7-2.7 1.3zm-.3-2.4l.7 1.5 1.4-.7-.7-1.5-1.4.7zM122.7 377.8l-1.2-2.7 2.7-1.3 1.2 2.7-2.7 1.3zm-.3-2.4l.6 1.5 1.5-.7-.7-1.4-1.4.6zM89.1 379.3l-1.7-3.6 3.7-1.7 1.7 3.6-3.7 1.7zm-.8-3.3l1.1 2.4 2.5-1.1-1.2-2.4-2.4 1.1zM144.4 313.5l-1.3-2.7 2.7-1.3 1.3 2.7-2.7 1.3zm-.4-2.4l.7 1.5 1.4-.7-.6-1.4-1.5.6zM205.5 253.4l-.4 1 .6.3.4-1.1-.6-.2zM194 262.7l-.5 1.1.6.3.4-1.1-.6-.3zM196.7 277.7l-1.4 3.6.7.3 1.3-3.7-.6-.2zM202.1 302.7l-1.3 3.7.7.2 1.3-3.6-.7-.3zM182.7 316l-1.3 3.6.6.3 1.4-3.7-.7-.2zM193.1 348.4l-2 5.4.7.2 2-5.4-.7-.2zM174 357.7l-2 5.4.7.2 2-5.4-.7-.2zM160 396l-2.3 6.7.6.2 2.4-6.7-.6-.2zM201 372l-1.9 5.5.7.2 2-5.4-.7-.2zM210.7 239.1l-.4 1.1.6.3.4-1.1-.6-.3zM200.5 244.7l-.4 1.1.6.3.4-1.1-.6-.3zM180.4 346l-1.3-2.7 2.7-1.3 1.3 2.7-2.7 1.3zm-.4-2.4l.7 1.5 1.5-.7-.7-1.5-1.5.7zM170.6 395.2l-1.2-2.7 2.7-1.3 1.2 2.8-2.7 1.2zm-.3-2.4l.6 1.5 1.5-.7-.7-1.4-1.4.6zM195.3 418l-1.7-3.6 3.6-1.7 1.7 3.6-3.6 1.7zm-.8-3.3l1.1 2.4 2.4-1.1-1-2.4-2.5 1.1zM195.3 332l-1.3-2.7 2.7-1.2 1.3 2.7-2.7 1.2zm-.4-2.3l.7 1.4 1.4-.6-.6-1.5-1.5.7zM166.3 220.1l-1 .6.3.6 1-.6-.3-.6zM159 233.2l-1 .6.4.5 1-.5-.3-.6zM143.9 233l-3.4 2 .4.6 3.3-2-.3-.5zM118.3 232l-3.4 2 .4.5 3.3-2-.3-.5zM108.6 253.4l-3.4 2 .4.6 3.3-2-.3-.6zM75 248.8l-5 2.9.3.6 5-3-.4-.5zM69 269.3l-4.9 2.8.3.6 5-2.9-.3-.5zM33.8 289.6l-6.1 3.6.3.6 6.1-3.6-.3-.6zM50.2 245l-5 3 .4.5 5-2.8-.4-.6zM179.4 212.6l-1 .5.3.6 1-.5-.3-.6zM175.6 223.6l-1 .6.4.6 1-.6-.4-.6zM82.7 262.3l-2.8-.8.7-2.8 2.9.7-.8 2.9zm-2-1.2l1.6.4.4-1.6-1.6-.4-.4 1.6zM36 280.5l-2.8-.8.7-2.8 2.9.7-.8 2.9zm-2-1.2l1.5.4.4-1.6-1.5-.4-.4 1.6zM10.3 260.4l-4-1 1.1-4 4 1-1.1 4zm-3-1.6l2.5.7.7-2.6-2.6-.6-.7 2.5zM93.8 245.2l-2.8-.8.8-2.8 2.8.7-.8 3zm-2-1.2l1.6.4.4-1.6-1.6-.4-.4 1.6zM176.4 237.8l-1 .5.3.6 1-.6-.3-.5zM161.5 237.5l-1 .5.4.6 1-.5-.4-.6zM154 250.7l-3.3 2 .3.5 3.4-2-.4-.5zM142.1 273.4l-3.3 2 .3.5 3.4-2-.4-.5zM118.7 271l-3.3 2 .3.6 3.4-2-.4-.5zM106 302.6l-5 2.8.3.6 5-2.8-.4-.6zM85.3 297.4l-5 2.9.4.6 5-3-.4-.5zM50 317.8l-6.1 3.5.3.6 6.2-3.5-.4-.6zM96.8 325.8l-5 3 .4.5 5-2.9-.4-.6zM189.5 230.2l-1 .6.4.5 1-.5-.4-.6zM178 227.9l-1 .6.4.6 1-.6-.3-.6zM100.6 293.3l-2.9-.8.8-2.9 2.8.8-.7 2.9zm-2-1.3l1.5.4.4-1.5-1.5-.4-.5 1.5zM61.5 324.7l-2.9-.8.8-2.9 2.8.8-.7 2.9zm-2-1.3l1.5.4.4-1.5-1.6-.4-.4 1.5zM66.8 358.3l-4-1 1.1-4 4 1.1-1.1 4zm-3.1-1.5l2.6.7.7-2.6-2.6-.7-.7 2.6zM121 292.2l-3-.8.8-2.9 2.9.8-.8 2.9zm-2.1-1.3l1.5.4.5-1.5-1.6-.4-.4 1.5zM166.6 186.8l-.2.6 1.2.2.1-.6-1.1-.2zM152.7 192.1l-.1.7 1 .2.2-.7-1.1-.2zM138.5 181.8l-.2.7 3.8.7.2-.7-3.8-.7zM119.5 164.5v.7l3.7.7.1-.7-3.8-.7zM98.3 174.7v.7l3.7.7.1-.7-3.8-.7zM73.7 149.2l-.1.6 5.6 1 .1-.6-5.6-1zM56 161v.8l5.6 1 .1-.7-5.6-1zM14.6 153.8v.6l7 1.3v-.7l-7-1.2zM57.2 130.4l-.1.7 5.6 1 .1-.7-5.6-1zM181.5 189.4l-.1.7 1.1.2.1-.7-1.1-.2zM171.5 195.5v.7l1 .2.2-.7-1.2-.2zM76.6 165.6L75 163l2.5-1.7L79 164l-2.5 1.7zm-.7-2.3l1 1.3 1.2-.9-.9-1.3-1.3.9zM29.2 149.4l-1.7-2.4 2.4-1.7 1.7 2.4-2.4 1.7zm-.8-2.2l1 1.3 1.2-1-.9-1.2-1.3.9zM22.4 117.5l-2.3-3.3 3.3-2.3 2.3 3.3-3.3 2.3zm-1.4-3.1l1.6 2.2 2.2-1.6-1.6-2.2-2.2 1.6zM96.1 159.6l-1.7-2.4 2.4-1.7 1.7 2.4-2.4 1.7zm-.7-2.2l.9 1.3 1.3-1-1-1.3-1.2 1zM163 206.8v.7l1 .2.2-.7-1.2-.2zM151.8 197v.7l1 .2.2-.7-1.2-.2zM135 201.8l-.2.7 3.8.7.1-.7-3.8-.7zM111.2 211.6v.7l3.7.6.1-.6-3.8-.7zM94.8 194.8l-.1.6 3.8.7.1-.7-3.8-.6zM63 210.3l-.2.7 5.6 1 .2-.7-5.7-1zM50.4 193.1v.7l5.6 1v-.7l-5.6-1zM7.3 185.6l-.1.6 6.9 1.2.1-.6-7-1.2zM39 222.1l-.1.7 5.6 1v-.7l-5.5-1zM178 209.4l-.2.7 1.2.2v-.7l-1-.2zM170.6 200.3v.7l1 .2.2-.7-1.2-.2zM70.4 200.8l-1.7-2.5 2.5-1.7 1.7 2.4-2.5 1.8zm-.7-2.3l1 1.3 1.3-1-1-1.2-1.3.9zM20.3 199.6l-1.7-2.4 2.4-1.7 1.7 2.4-2.4 1.7zm-.8-2.2l1 1.3 1.3-1-1-1.2-1.3.9zM2.8 228.9l-2.4-3.4 3.3-2.3 2.4 3.3-3.3 2.4zm-1.4-3.2l1.5 2.2 2.2-1.5-1.5-2.2-2.2 1.5zM86.7 213l-1.7-2.4 2.5-1.7 1.7 2.4-2.5 1.7zm-.7-2.2l.9 1.3 1.3-1-.9-1.3-1.3 1zM189.4 161.6l-.6.5.8.9.5-.5-.7-.9zM175.3 156.8l-.5.5.7.8.5-.4-.7-.9zM171 139.7l-.5.5 2.5 3 .5-.5-2.5-3zM167.6 114.3l-.5.5 2.5 3 .5-.5-2.5-3zM144.8 108.5l-.5.5 2.5 3 .5-.5-2.5-3zM142.4 73.1l-.6.4 3.7 4.4.5-.4-3.6-4.4zM121.2 70.9l-.5.4 3.7 4.4.5-.4-3.7-4.4zM94.2 38.6l-.6.5 4.6 5.4.5-.4-4.5-5.5zM141.7 48.1l-.5.5 3.7 4.3.5-.4-3.7-4.4zM199 173.2l-.4.5.7.9.5-.5-.7-.9zM187.6 171.5l-.6.4.8.9.5-.4-.7-1zM137 87.8l-3-.3.3-3 3 .3-.3 3zm-2.2-.9l1.6.2.2-1.6-1.6-.2-.2 1.6zM111 44.9l-3-.3.3-3 3 .3-.3 3zm-2.2-.9l1.6.1.1-1.6H109V44zM127.4 16.1l-4-.3.4-4 4 .3-.4 4zm-3.3-1l2.7.3.2-2.7-2.6-.2-.3 2.6zM155.8 95.8l-3-.3.3-2.9 3 .3-.3 2.9zm-2.2-.9l1.6.2.1-1.6-1.6-.2-.1 1.6zM173.8 174.7l-.5.5.7.8.5-.4-.7-.9zM171.5 160l-.5.5.7.9.5-.5-.7-.9zM155.4 152.8l-.5.5 2.5 3 .5-.5-2.5-3zM131 145l-.5.5 2.5 3 .5-.5-2.5-3zM129.3 121.6l-.6.4 2.5 3 .5-.4-2.4-3zM94.8 113l-.5.4 3.7 4.4.5-.4-3.7-4.4zM96.3 91.8l-.5.4 3.7 4.4.5-.4-3.7-4.4zM69.3 59.5l-.5.4 4.5 5.5.5-.5-4.5-5.4zM70.4 108l-.5.5 3.6 4.4.6-.4-3.7-4.4zM183.5 186.3l-.5.5.7.8.6-.4-.8-.9zM183.8 174.7l-.5.4.7 1 .5-.5-.7-.9zM109.7 110.8l-3-.3.3-3 3 .3-.3 3zm-2.2-1l1.6.2v-1.6l-1.5-.1-.1 1.6zM72 77.7l-3-.3.3-3 3 .3-.3 3zm-2.2-1l1.6.2.1-1.6-1.6-.1-.1 1.6zM40.9 88.8l-4-.3.3-4 4 .3-.3 4zm-3.3-1l2.7.3.2-2.7-2.7-.2-.2 2.7zM114.3 130.6l-3-.2.3-3 3 .3-.3 3zm-2.2-.8l1.6.1.1-1.6-1.6-.1-.1 1.6zM223 157h-.7v1.2h.6v-1.1zM215.3 144.3h-.7v1.2h.7v-1.2zM223 128.5h-.7v3.9h.6v-4zM236.7 106.8h-.7v4h.7v-4zM223 87.7h-.7v3.9h.6v-3.9zM243.8 59h-.7v5.7h.7V59zM229 43.7h-.7v5.7h.7v-5.7zM229 1.6h-.7v7h.7v-7zM259.4 39.5h-.7v5.7h.7v-5.7zM223 172.2h-.7v1.2h.6v-1.2zM215.3 163.5h-.7v1.1h.7v-1.1zM230.3 66.8l-2.1-2 2-2.2 2.2 2.1-2.1 2.1zm-1.1-2l1 1 1.2-1-1.1-1.2-1.1 1.1zM238 17.2l-2.2-2L238 13l2.1 2.1-2 2zm-1.2-2l1.1 1 1.1-1-1-1.2-1.2 1.1zM269 5.7L266 3l3-2.9 2.8 2.9-2.9 2.8zM267 3l2 1.9 1.8-2L269 1l-1.8 1.9zM239.5 85l-2-2 2-2.2 2.1 2.1-2 2.1zm-1.1-2l1.1 1 1.2-1-1.2-1.2-1.1 1.1zM202.6 157h-.7v1.2h.7v-1.1zM210.3 144.3h-.7v1.2h.7v-1.2zM202.6 128.5h-.7v3.9h.7v-4zM189 106.8h-.8v4h.7v-4zM202.6 87.7h-.7v3.9h.7v-3.9zM181.8 59h-.7v5.7h.7V59zM196.6 43.7h-.7v5.7h.7v-5.7zM196.6 1.6h-.7v7h.7v-7zM166.2 39.5h-.7v5.7h.7v-5.7zM202.6 172.2h-.7v1.2h.7v-1.2zM210.3 163.5h-.7v1.1h.7v-1.1zM194.6 66.8l-2-2 2-2.2 2.1 2.1-2.1 2.1zm-1.1-2l1.1 1 1.1-1-1.1-1.2-1.1 1.1zM187 17.2l-2.1-2 2-2.2 2.2 2.1-2.1 2zm-1.2-2l1.2 1 1.1-1L187 14l-1.2 1.1zM156 5.7L153 3 156 0l2.8 2.9-2.8 2.8zM154 3l2 1.9 1.8-2L156 1l-2 1.9zM185.4 85l-2.1-2 2-2.2 2.2 2.1-2.1 2.1zm-1.2-2l1.2 1 1.1-1-1.1-1.2-1.2 1.1z" fill="#C4C4C4" fill-opacity=".3"/></svg>