<svg width="602" height="570" fill="none" xmlns="http://www.w3.org/2000/svg"><path d="M601.2 26c-20.8 11.6-64-35.9-84.7-24.1-20.7 11.7-19.3 13.3-39.9 25-20.6 11.7 14.2 50.1-6.4 61.8-20.6 11.7 3.1 37.9-17.5 49.6-20.7 11.6-44.1-14.2-65-2.4-20.6 11.7-49.8-20.3-70.4-8.6-20.6 11.6-7.8 25.8-28.5 37.5-20.6 11.7-7 26.7-27.7 38.4s-13.1 20-33.9 31.7c-20.6 11.7-4 30-24.6 41.8-20.7 11.6-37-6.3-57.7 5.3-20.6 11.7-54.2-25.1-74.9-13.4-20.6 11.7 25.7 62.6 5 74.3-20.6 11.7-54.4-25.2-75-13.6" transform="matrix(-1 0 0 1 601 1.2)" stroke="url(#paint0_linear)" stroke-opacity=".7" stroke-miterlimit="10"/><path d="M601 25C580.4 36.7 538-9.8 517.3 2c-20.6 11.7-15 17.7-35.7 29.5-20.7 11.7 8.1 43.3-12.7 55-20.6 11.7-.6 33.8-21.2 45.5-20.6 11.6-40.6-10.1-61.2 1.5-20.7 11.7-46.6-16.6-67.2-4.9-20.6 11.7-7.7 26-28.5 37.6-20.6 11.7-7 26.6-27.7 38.3-20.7 11.7-16.5 16.3-37.2 28-20.6 11.7-7.5 26-28.2 37.7-20.6 11.7-33.4-2.2-54 9.5-20.7 11.7-48-18.3-68.8-6.6-20.7 11.7 21.6 58.3 1 70-20.7 11.6-55.3-26.2-75.9-14.6" transform="matrix(-1 0 0 1 585.3 21.4)" stroke="url(#paint1_linear)" stroke-opacity=".7" stroke-miterlimit="10"/><path d="M600.9 24.1C580.2 35.8 538.7-9.9 518 2c-20.6 11.6-11 22.2-31.7 34-20.7 11.7 1.8 36.4-18.8 48-20.7 11.8-4.3 29.8-25 41.6-20.6 11.7-36.8-6-57.4 5.7-20.7 11.6-43.2-13-63.8-1.4-20.6 11.7-7.7 26-28.3 37.8-20.7 11.6-7.2 26.5-28 38.1-20.6 11.7-19.7 12.7-40.4 24.4-20.6 11.7-11.2 22-31.9 33.8-20.6 11.7-29.7 1.7-50.3 13.5-20.7 11.7-41.9-11.4-62.5.2-20.7 11.7 17.5 53.7-3.2 65.4-20.6 11.7-56-27.2-76.7-15.5" transform="matrix(-1 0 0 1 569.7 41.6)" stroke="url(#paint2_linear)" stroke-opacity=".7" stroke-miterlimit="10"/><path d="M601 23.2c-20.6 11.7-61.3-33-82-21.2-20.6 11.7-7 26.7-27.6 38.4s-4.4 29.5-25 41.2c-20.7 11.7-7.9 25.8-28.5 37.5-20.7 11.7-33.2-2-53.8 9.7-20.7 11.7-39.9-9.3-60.5 2.3-20.7 11.7-7.6 26.1-28.4 37.8-20.6 11.7-7.2 26.5-27.9 38.2-20.6 11.7-23.2 9-43.8 20.7-20.6 11.6-15 18-35.6 29.7s-26 5.8-46.8 17.4c-20.7 11.7-35.6-4.7-56.3 7.1-20.6 11.7 13.4 49.2-7.2 60.9-20.7 11.7-57-28-77.6-16.4" transform="matrix(-1 0 0 1 554.3 61.8)" stroke="url(#paint3_linear)" stroke-opacity=".7" stroke-miterlimit="10"/><path d="M601 22.3C580.4 33.9 540.7-9.7 520 2c-20.7 11.7-2.9 31.3-23.5 43-20.7 11.6-10.7 22.6-31.3 34.4-20.7 11.7-11.6 21.8-32.2 33.5s-29.6 2-50.3 13.7c-20.6 11.7-36.4-5.7-57.2 6-20.6 11.8-7.5 26.3-28.2 38-20.6 11.6-7.2 26.3-28 38-20.6 11.7-26.5 5.3-47.1 17-20.7 11.8-18.5 14.1-39.3 25.8-20.7 11.7-22.5 9.8-43.2 21.5-20.6 11.7-29.3 2.1-50 13.9-20.6 11.7 9.5 44.7-11.2 56.4C57.8 354.9 20.6 314 0 325.8" transform="matrix(-1 0 0 1 538.8 82)" stroke="url(#paint4_linear)" stroke-opacity=".7" stroke-miterlimit="10"/><path d="M601.2 21.4C580.5 33 541.7-9.6 520.9 2c-20.7 11.7 1.1 35.8-19.5 47.4-20.7 11.7-17 15.9-37.6 27.7-20.7 11.7-15.1 17.7-35.9 29.5-20.6 11.7-25.9 6-46.5 17.8-20.7 11.7-33.2-2-53.8 9.6-20.7 11.7-7.4 26.2-28.2 38-20.7 11.7-7.4 26.3-28 38-20.7 11.7-30 1.7-50.6 13.3-20.7 11.7-22.2 10-42.9 21.7-20.6 11.7-18.7 13.8-39.4 25.5-20.6 11.7-23 9-43.8 20.8-20.7 11.7 5.2 40.2-15.4 51.9C58.6 354.9 20.6 313 0 324.9" transform="matrix(-1 0 0 1 523.4 102.1)" stroke="url(#paint5_linear)" stroke-opacity=".7" stroke-miterlimit="10"/><path d="M601.2 20.4c-20.7 11.7-58.7-30-79.3-18.3-20.7 11.7 5.2 40.2-15.4 52-20.6 11.6-23 8.9-43.9 20.7-20.6 11.7-18.7 13.8-39.4 25.5-20.6 11.7-22.2 10-42.8 21.7-20.7 11.7-30 1.7-50.6 13.3-20.6 11.7-7.4 26.3-28 38-20.7 11.7-7.4 26.2-28.2 38-20.6 11.7-33.2-2-53.8 9.6-20.6 11.7-26 6-46.6 17.8-20.6 11.7-15 17.7-35.8 29.5-20.7 11.7-17 15.9-37.6 27.7-20.7 11.6 1.1 35.7-19.5 47.4-20.7 11.6-59.5-31-80.3-19.4" transform="matrix(-1 0 0 1 507.9 122.4)" stroke="url(#paint6_linear)" stroke-opacity=".7" stroke-miterlimit="10"/><path d="M601 19.5c-20.6 11.7-57.8-29-78.4-17.4-20.7 11.7 9.4 44.7-11.3 56.4-20.6 11.7-29.3 2.2-50 14-20.6 11.6-22.4 9.7-43 21.4-20.7 11.7-18.6 14-39.4 25.7-20.6 11.7-26.4 5.3-47 17.1-20.7 11.7-7.3 26.4-28.1 38-20.7 11.8-7.6 26.3-28.2 38-20.6 11.6-36.4-5.8-57.2 6-20.7 11.7-29.6 2-50.3 13.7-20.6 11.7-11.5 21.8-32.2 33.5-20.6 11.7-10.6 22.7-31.3 34.5-20.6 11.6-2.8 31.2-23.5 42.9C60.5 355 20.8 311.3 0 323" transform="matrix(-1 0 0 1 492.2 142.6)" stroke="url(#paint7_linear)" stroke-opacity=".7" stroke-miterlimit="10"/><path d="M601 18.6c-20.6 11.7-57-28.1-77.6-16.4-20.6 11.7 13.4 49.2-7.2 60.9-20.7 11.6-35.6-4.8-56.3 7-20.6 11.7-26 5.8-46.8 17.4-20.6 11.7-15 18.1-35.6 29.8s-23.2 9-43.8 20.7c-20.7 11.7-7.3 26.5-28 38.2-20.6 11.7-7.5 26-28.3 37.7-20.6 11.7-39.8-9.3-60.5 2.4-20.6 11.7-33.1-2-53.8 9.6-20.6 11.7-7.8 25.9-28.4 37.6-20.7 11.6-4.4 29.5-25 41.2-20.7 11.7-7 26.7-27.7 38.4-20.6 11.7-61.4-33-82-21.2" transform="matrix(-1 0 0 1 476.7 162.8)" stroke="url(#paint8_linear)" stroke-opacity=".7" stroke-miterlimit="10"/><path d="M600.9 17.7C580.2 29.4 544.8-9.5 524 2.2c-20.6 11.7 17.6 53.7-3 65.4-20.7 11.7-42-11.5-62.6.2s-29.7 1.7-50.4 13.5c-20.6 11.7-11.2 22-31.9 33.8-20.6 11.7-19.7 12.7-40.4 24.4-20.6 11.7-7.1 26.5-27.9 38.2-20.6 11.7-7.7 26-28.3 37.7-20.7 11.7-43.2-13-63.8-1.3-20.6 11.7-36.9-6-57.5 5.6-20.6 11.7-4.3 29.8-25 41.6-20.6 11.6 2 36.3-18.7 48-20.6 11.7-11.1 22.3-31.8 34-20.6 11.7-62.2-33.9-82.8-22" transform="matrix(-1 0 0 1 461 183)" stroke="url(#paint9_linear)" stroke-opacity=".7" stroke-miterlimit="10"/><path d="M601 16.8c-20.6 11.6-55.2-26.2-75.9-14.5-20.6 11.6 21.7 58.2 1 69.8-20.6 11.7-48-18.3-68.7-6.6-20.7 11.7-33.5-2.2-54.1 9.4-20.7 11.7-7.6 26.1-28.2 37.8-20.6 11.7-16.5 16.3-37.2 28-20.6 11.6-7 26.6-27.7 38.3-20.7 11.6-7.7 26-28.5 37.6-20.6 11.7-46.5-16.6-67.2-5-20.6 11.7-40.5-10-61.2 1.6-20.6 11.7-.6 33.8-21.2 45.5-20.6 11.7 8.1 43.3-12.7 55-20.6 11.6-15 17.7-35.7 29.5-20.6 11.7-63-34.8-83.7-23.2" transform="matrix(-1 0 0 1 445.7 203.2)" stroke="url(#paint10_linear)" stroke-opacity=".7" stroke-miterlimit="10"/><path d="M0 319.3c20.6-11.7 64 35.8 84.6 24 20.6-11.6 19.2-13.2 39.8-25 20.7-11.7-14.2-50.1 6.4-61.8 20.7-11.7-3.1-37.8 17.5-49.5 20.7-11.7 44.2 14.1 65 2.3 20.6-11.6 49.8 20.4 70.4 8.7 20.7-11.7 7.8-25.8 28.5-37.5 20.6-11.7 7-26.8 27.7-38.4 20.7-11.7 13.1-20 34-31.7 20.6-11.7 4-30.1 24.5-41.8 20.7-11.7 37 6.3 57.7-5.4 20.6-11.7 54.2 25.2 74.9 13.5C551.6 65 505.4 14 526 2.3c20.6-11.7 54.4 25.3 75 13.6" transform="matrix(-1 0 0 1 430 223.4)" stroke="url(#paint11_linear)" stroke-opacity=".7" stroke-miterlimit="10"/><defs><linearGradient id="paint0_linear" x2="1" gradientUnits="userSpaceOnUse" gradientTransform="matrix(0 345.246 -601.16 0 601.2 0)"><stop stop-color="#BB6BD9"/><stop offset="1"/></linearGradient><linearGradient id="paint1_linear" x2="1" gradientUnits="userSpaceOnUse" gradientTransform="matrix(0 345.201 -601.018 0 601 0)"><stop stop-color="#BB6BD9"/><stop offset="1"/></linearGradient><linearGradient id="paint2_linear" x2="1" gradientUnits="userSpaceOnUse" gradientTransform="matrix(0 345.33 -600.875 0 600.9 0)"><stop stop-color="#BB6BD9"/><stop offset="1"/></linearGradient><linearGradient id="paint3_linear" x2="1" gradientUnits="userSpaceOnUse" gradientTransform="matrix(0 345.066 -601.018 0 601 0)"><stop stop-color="#BB6BD9"/><stop offset="1"/></linearGradient><linearGradient id="paint4_linear" x2="1" gradientUnits="userSpaceOnUse" gradientTransform="matrix(0 345.315 -601.018 0 601 0)"><stop stop-color="#BB6BD9"/><stop offset="1"/></linearGradient><linearGradient id="paint5_linear" x2="1" gradientUnits="userSpaceOnUse" gradientTransform="matrix(0 345.276 -601.16 0 601.2 0)"><stop stop-color="#BB6BD9"/><stop offset="1"/></linearGradient><linearGradient id="paint6_linear" x2="1" gradientUnits="userSpaceOnUse" gradientTransform="matrix(0 345.313 -601.16 0 601.2 0)"><stop stop-color="#BB6BD9"/><stop offset="1"/></linearGradient><linearGradient id="paint7_linear" x2="1" gradientUnits="userSpaceOnUse" gradientTransform="matrix(0 345.28 -601.018 0 601 0)"><stop stop-color="#BB6BD9"/><stop offset="1"/></linearGradient><linearGradient id="paint8_linear" x2="1" gradientUnits="userSpaceOnUse" gradientTransform="matrix(0 345.066 -601.018 0 601 0)"><stop stop-color="#BB6BD9"/><stop offset="1"/></linearGradient><linearGradient id="paint9_linear" x2="1" gradientUnits="userSpaceOnUse" gradientTransform="matrix(0 345.296 -600.875 0 600.9 0)"><stop stop-color="#BB6BD9"/><stop offset="1"/></linearGradient><linearGradient id="paint10_linear" x2="1" gradientUnits="userSpaceOnUse" gradientTransform="matrix(0 345.089 -601.018 0 601 0)"><stop stop-color="#BB6BD9"/><stop offset="1"/></linearGradient><linearGradient id="paint11_linear" x2="1" gradientUnits="userSpaceOnUse" gradientTransform="matrix(0 345.246 -601.018 0 601 0)"><stop stop-color="#BB6BD9"/><stop offset="1"/></linearGradient></defs></svg>
