<svg width="594" height="570" fill="none" xmlns="http://www.w3.org/2000/svg"><g opacity=".7"><path opacity=".7" d="M535.9 346.22c-3.4 0-6.6-.7-9.6-2.4-10.7-6.1-4.1-22.2 2.3-37.8 6.2-15.2 12.6-30.9 2.7-36.6-10.1-5.7-23.8.6-37 6.8-13.4 6.2-27.4 12.7-37.9 6.7-10.2-5.8-19.5-4.2-28.5-2.6-9.2 1.6-18.7 3.2-29.2-2.8s-11.6-13.7-12.6-21.3c-1-7.6-2-14.8-12.1-20.5-10.5-5.9-13.9-11.1-17.2-16-3.2-4.9-6.5-9.9-16.7-15.6-10.6-6-12.4-12.9-14.2-19.6-1.8-6.8-3.5-13.1-13.6-18.9-10.5-5.9-12.5-12.6-14.5-19-2-6.5-3.9-12.7-14-18.5-10.1-5.7-22.7-.6-34.8 4.4-12.4 5-25.1 10.3-35.7 4.3-10.2-5.8-21.4-2.2-32.2 1.2-10.9 3.5-22.2 7.1-32.7 1.2-10.6-6-9.8-15.8-9-25.2.8-9.6 1.5-18.6-8.5-24.3-10.7-6-7-19-3.4-31.5 3.6-12.7 7-24.7-3-30.3a214.3 214.3 0 0 1-19.8-12.5c-5-3.4-9.6-6.7-20-12.6-10.2-5.8-26.3 3.3-41.9 12-15.8 8.9-32.2 18-42.8 12l.5-.9c10.1 5.7 26.2-3.3 41.8-12 16.1-8.8 32.5-18 43.1-12 10.5 5.9 15.4 9.3 20.1 12.6 4.7 3.3 9.5 6.6 19.7 12.4 10.7 6 7 19 3.4 31.5-3.6 12.7-7 24.7 3 30.3 10.6 6 9.8 15.8 9 25.2-.8 9.6-1.5 18.6 8.5 24.3 10.1 5.7 21.2 2.2 31.9-1.2 11-3.5 22.4-7.1 33-1.1 10.1 5.7 22.7.6 34.8-4.4 12.4-5 25.1-10.3 35.7-4.3 10.5 5.9 12.5 12.6 14.5 19 2 6.5 3.9 12.7 14 18.5 10.5 5.9 12.3 12.8 14.1 19.5 1.8 6.8 3.5 13.2 13.7 18.9 10.4 5.9 13.8 11 17 16 3.2 4.9 6.5 9.9 16.8 15.7 10.5 6 11.6 13.7 12.6 21.3 1 7.6 2 14.8 12.1 20.5 10.2 5.8 19.5 4.2 28.5 2.6 9.2-1.6 18.7-3.2 29.2 2.8 10.1 5.7 23.8-.6 37-6.8 13.4-6.2 27.4-12.7 37.9-6.7 10.7 6.1 4.1 22.2-2.3 37.8-6.2 15.2-12.6 30.9-2.7 36.6 10.1 5.7 23.8-.7 37.1-6.8 13.5-6.3 27.4-12.7 38-6.8l-.5.9c-10.1-5.7-23.8.7-37.1 6.8-9.8 4.6-19.7 9.2-28.5 9.2z" transform="translate(-8.4 .98)" fill="url(#paint0_linear)"/><path opacity=".7" d="M534.5 346c-3.3 0-6.5-.7-9.4-2.3-10.7-6-5.1-21 .3-35.5 5.3-14.1 10.7-28.8.7-34.4-10.2-5.7-22.3-1.1-34 3.4-11.9 4.5-24.2 9.2-34.7 3.3-10.2-5.8-18.6-5.2-26.8-4.7-8.3.6-16.9 1.1-27.3-4.8-10.5-5.9-12.4-12.7-14.3-19.2-1.9-6.6-3.7-12.8-13.9-18.6-10.4-5.9-14.6-10-18.7-14.1-4-4-8.2-8.1-18.5-13.9-10.5-5.9-12.3-12.8-14.1-19.5-1.8-6.7-3.5-13.1-13.6-18.8-10.6-6-12.6-12.7-14.5-19.1-2-6.6-3.8-12.8-13.9-18.5-10.1-5.7-21.8-1.5-33.2 2.5-11.5 4.1-23.5 8.4-34 2.4-10.1-5.7-20.4-3.2-30.2-.7-10.1 2.5-20.5 5.1-31-.8-10.6-6-10.7-14.7-10.9-23.2-.1-8.5-.3-16.6-10.4-22.3-10.7-6-8.6-17.2-6.6-28 2-10.9 3.9-21.2-6-26.9-10.4-5.9-14.2-10.5-18-14.9-3.7-4.3-7.5-8.8-17.8-14.6-10.1-5.7-26 3.1-41.4 11.6C26.7 23 10.5 31.9 0 26l.5-.9c10.1 5.7 26-3.1 41.4-11.6C57.5 4.9 73.7-4 84.2 1.9c10.4 5.9 14.3 10.5 18 14.9 3.7 4.3 7.5 8.8 17.7 14.7 10.6 6 8.5 17.2 6.5 27.9-2 11-4 21.3 6.1 27 10.6 6 10.7 14.7 10.9 23.2.1 8.5.3 16.6 10.4 22.3 10.1 5.7 20.4 3.2 30.2.7 10.1-2.5 20.5-5.1 31 .8 10.1 5.7 21.8 1.5 33.2-2.5 11.5-4.1 23.5-8.4 34-2.4 10.5 5.9 12.5 12.6 14.4 19.1 2 6.6 3.8 12.8 14.1 18.6 10.5 5.9 12.3 12.8 14.1 19.5 1.8 6.7 3.5 13.1 13.6 18.8 10.4 5.9 14.6 10 18.7 14.1 4 4 8.2 8.1 18.5 13.9 10.5 5.9 12.4 12.7 14.3 19.2 1.9 6.6 3.7 12.8 13.9 18.6 10.2 5.8 18.6 5.2 26.8 4.7 8.3-.6 16.9-1.1 27.3 4.8 10.1 5.7 22.2 1.1 33.9-3.3 11.9-4.5 24.3-9.3 34.9-3.3 10.7 6.1 5.1 21.1-.3 35.7-5.5 14.8-10.7 28.7-.7 34.3 10.1 5.7 24-.9 37.5-7.3 13.7-6.5 27.9-13.2 38.4-7.2l-.5.9c-10.1-5.7-24 .9-37.5 7.3-10 4.3-20.2 9.1-29.1 9.1z" transform="translate(-23.7 21.4)" fill="url(#paint1_linear)"/><path opacity=".7" d="M533.3 346.64c-3.3 0-6.4-.7-9.2-2.3-10.7-6-6.2-19.9-1.8-33.3 4.4-13.6 8.6-26.5-1.3-32.1-10.1-5.7-20.7-2.9-30.9-.1-10.4 2.8-21.1 5.8-31.6-.2-10.2-5.9-17.8-6.3-25-6.7-7.4-.4-15-.9-25.4-6.8-10.4-6-13.3-11.6-16.1-17.1-2.9-5.6-5.6-10.9-15.8-16.7-10.3-5.8-15.4-9.1-20.2-12.2-4.9-3.1-9.9-6.3-20.2-12.2-10.6-6-12.5-12.8-14.3-19.4-1.8-6.7-3.5-13-13.6-18.8-10.5-6-12.5-12.7-14.4-19.2-1.9-6.6-3.8-12.8-13.9-18.5-10.1-5.7-21-2.5-31.5.7-10.7 3.2-21.8 6.6-32.3.6-10.2-5.8-19.5-4.2-28.4-2.8-9.2 1.5-18.6 3.1-29.1-2.9s-11.6-13.7-12.7-21.2c-1.1-7.5-2.1-14.7-12.2-20.4-10.6-6-10.1-15.4-9.6-24.5.5-9.2.9-17.9-9.1-23.6-10.4-6-13.3-11.7-16.1-17.3-2.8-5.7-5.5-11-15.7-16.8-10.1-5.8-25.8 2.8-41 11.1-15.4 8.4-31.3 17-41.9 11.1l.5-.9c10.1 5.7 25.7-2.8 40.9-11.1 15.4-8.4 31.4-17.1 42-11 10.5 5.9 13.3 11.7 16.1 17.2 2.8 5.7 5.5 11 15.7 16.8 10.6 6 10.1 15.4 9.6 24.5-.5 9.2-.9 17.9 9.1 23.6 10.5 6 11.6 13.7 12.7 21.1 1.1 7.5 2.1 14.7 12.2 20.5 10.2 5.8 19.4 4.2 28.4 2.7 9.1-1.5 18.6-3.1 29.1 2.9 10.1 5.7 21 2.5 31.5-.7 10.7-3.2 21.8-6.6 32.3-.6 10.5 5.9 12.5 12.6 14.4 19.1 1.9 6.6 3.8 12.8 13.9 18.6 10.5 5.9 12.3 12.8 14.1 19.4 1.8 6.7 3.5 13.1 13.8 18.8 10.3 5.8 15.4 9.1 20.2 12.2 4.9 3.1 9.9 6.3 20.2 12.2 10.5 5.9 13.4 11.6 16.2 17.1 2.7 5.4 5.6 10.9 15.7 16.7 10.2 5.8 17.7 6.2 24.9 6.6 7.4.4 15 .9 25.5 6.9 10.1 5.7 20.7 2.9 30.9.1 10.4-2.8 21.1-5.8 31.6.2 10.7 6 6.2 19.9 1.8 33.3-4.4 13.6-8.6 26.5 1.3 32.1 10.1 5.7 24.2-1.1 37.9-7.8 13.9-6.7 28.3-13.7 38.8-7.7l-.5.9c-10.1-5.7-24.2 1.1-37.9 7.8-10.1 5-20.6 10.1-29.6 10.1z" transform="translate(-39.2 41.06)" fill="url(#paint2_linear)"/><path opacity=".7" d="M532.7 346.13c-3.2 0-6.3-.7-9-2.2-10.7-6-7.2-18.7-3.9-31 3.4-12.5 6.6-24.2-3.4-29.9-10.2-5.8-18.8-4.7-27.9-3.5-8.8 1.2-17.9 2.3-28.4-3.6-10.3-5.8-16.9-7.2-23.3-8.6-6.5-1.4-13.1-2.9-23.5-8.8s-14.2-10.5-17.9-15c-3.6-4.4-7.4-9-17.7-14.8-10.3-5.8-16.2-8.1-21.9-10.3-5.7-2.2-11.6-4.5-22-10.4-10.5-5.9-12.4-12.8-14.2-19.4-1.8-6.7-3.6-13.1-13.7-18.8-10.6-6-12.6-12.7-14.5-19.2-1.9-6.6-3.7-12.8-13.9-18.5-10.1-5.7-20.2-3.4-29.9-1.1-9.9 2.3-20.1 4.7-30.6-1.2-10.2-5.8-18.5-5.3-26.6-4.8-8.2.5-16.7 1-27.2-4.9s-12.5-12.6-14.5-19c-2-6.5-3.9-12.7-14-18.5-10.5-6-11.7-13.6-12.8-21-1.1-7.5-2.2-14.5-12.3-20.3-10.5-5.9-12.3-12.8-14-19.5-1.8-6.8-3.4-13.2-13.6-18.9-10.1-5.7-25.6 2.6-40.5 10.6-15.2 8.2-30.9 16.6-41.5 10.6l.5-.9c10.1 5.7 25.6-2.6 40.5-10.6 15.2-8.2 30.9-16.6 41.5-10.6 10.5 5.9 12.3 12.8 14 19.5 1.8 6.8 3.4 13.2 13.6 18.9 10.5 6 11.7 13.6 12.8 21 1.1 7.5 2.2 14.5 12.3 20.3 10.5 5.9 12.5 12.6 14.5 19 2 6.5 3.9 12.7 14 18.5 10.2 5.8 18.5 5.3 26.6 4.8 8.2-.5 16.7-1 27.2 4.9 10.2 5.7 20.2 3.4 29.9 1.1 9.9-2.3 20.1-4.7 30.6 1.2s12.4 12.6 14.3 19.1c1.9 6.6 3.8 12.9 14 18.6 10.5 5.9 12.4 12.8 14.2 19.4 1.8 6.7 3.6 13.1 13.7 18.8 10.3 5.8 16.2 8.1 21.9 10.3 5.7 2.2 11.6 4.5 22 10.4s14.2 10.5 17.9 15c3.6 4.4 7.4 9 17.7 14.8 10.3 5.8 16.9 7.3 23.2 8.7 6.5 1.4 13.1 2.9 23.6 8.8 10.2 5.7 19.1 4.6 27.8 3.4 8.8-1.2 18-2.4 28.5 3.6 10.7 6 7.2 18.7 3.9 31-3.4 12.5-6.6 24.2 3.4 29.9 10.1 5.7 24.4-1.4 38.3-8.2 14.1-7 28.7-14.2 39.3-8.2l-.5.9c-10.1-5.7-24.4 1.4-38.3 8.2-10.4 5.1-21 10.4-30.2 10.4z" transform="translate(-55 61.47)" fill="url(#paint3_linear)"/><path opacity=".7" d="M531.3 346.3c-3.2 0-6.2-.6-8.8-2.2-10.6-6-8.2-17.6-5.9-28.7 2.4-11.3 4.6-22-5.4-27.7-10.3-5.9-17.7-6.4-24.8-6.9-7.2-.5-14.7-1.1-25.1-7-10.3-5.8-16-8.3-21.5-10.7-5.5-2.4-11.3-4.9-21.6-10.8-10.5-5.9-15.2-9.5-19.8-13-4.5-3.4-9.2-7-19.4-12.8-10.3-5.9-17-7.2-23.5-8.5-6.5-1.3-13.3-2.7-23.6-8.5-10.6-6-12.5-12.8-14.3-19.4-1.9-6.7-3.6-13-13.7-18.7-10.5-5.9-12.4-12.7-14.3-19.2-1.9-6.6-3.7-12.9-13.9-18.6-10.3-5.8-19.5-4.4-28.4-3-9 1.4-18.4 2.9-28.8-3.1-10.3-5.9-17.7-6.4-25-6.8-7.3-.5-14.9-1-25.3-6.9s-13.4-11.5-16.3-16.9c-2.9-5.5-5.7-10.8-15.9-16.5-10.5-6-13.2-11.8-15.9-17.5-2.7-5.8-5.3-11.2-15.5-17-10.5-6-11.3-14-12-21.8-.7-7.9-1.4-15.4-11.5-21.1-10.2-5.8-25.5 2.3-40.2 10.1C26 21 10.5 29.2 0 23.2l.5-.9C10.6 28 25.8 20 40.4 12.2 55.4 4.3 70.9-4 81.6 2.1c10.5 6 11.3 14 12 21.8.7 7.9 1.4 15.4 11.5 21.1 10.5 5.9 13.2 11.8 15.9 17.4 2.7 5.8 5.3 11.2 15.4 17 10.4 5.9 13.4 11.5 16.3 16.9 2.9 5.5 5.7 10.8 15.9 16.5 10.2 5.8 17.6 6.3 24.9 6.7 7.4.5 15 1 25.4 7 10.1 5.7 18.9 4.4 28.2 2.9 9.1-1.4 18.5-2.9 29.1 3.1 10.5 5.9 12.4 12.7 14.3 19.2 1.9 6.6 3.7 12.9 13.9 18.6 10.5 5.9 12.4 12.7 14.2 19.3 1.9 6.7 3.6 13 13.8 18.8 10.2 5.8 16.9 7.1 23.3 8.4 6.6 1.3 13.4 2.7 23.8 8.6 10.3 5.8 15 9.4 19.5 12.8 4.6 3.5 9.3 7 19.7 12.9 10.3 5.8 16 8.3 21.5 10.7 5.5 2.4 11.3 4.9 21.6 10.8 10.2 5.8 17.6 6.3 24.7 6.9 7.3.5 14.8 1.1 25.3 7.1 10.6 6 8.2 17.6 5.9 28.7-2.4 11.3-4.6 22 5.4 27.7 10.1 5.7 24.7-1.6 38.7-8.7 14.3-7.2 29.1-14.7 39.7-8.7l-.5.9c-10.1-5.7-24.7 1.6-38.7 8.7-10.8 5.6-21.8 11.1-31 11.1z" transform="translate(-70.1 81.8)" fill="url(#paint4_linear)"/><path opacity=".7" d="M530.5 346.3c-3.1 0-6-.6-8.7-2.1-10.6-6-9.3-16.4-7.9-26.4 1.3-10.2 2.6-19.8-7.4-25.4a143.2 143.2 0 0 0-22-10.4c-5.7-2.2-11.6-4.5-21.9-10.4-10.3-5.9-15.1-9.4-19.8-12.8-4.6-3.4-9.4-6.9-19.7-12.7-10.3-5.8-15.9-8.4-21.4-10.8-5.5-2.5-11.1-5-21.5-10.9-10.2-5.8-17.8-6.2-25-6.6-7.4-.4-15.1-.8-25.5-6.7-10.5-5.9-12.4-12.7-14.3-19.3-1.9-6.7-3.6-12.9-13.8-18.7-10.6-6-12.5-12.8-14.4-19.4-1.9-6.6-3.7-12.9-13.8-18.6-10.2-5.8-18.5-5.3-26.6-4.8-8.2.5-16.7 1-27.2-4.9-10.3-5.9-16.9-7.4-23.2-8.9-6.4-1.5-13-3-23.3-8.9-10.5-5.9-14.4-10.5-18.1-14.9-3.7-4.3-7.5-8.8-17.7-14.6-10.3-5.9-14.7-10-18.8-13.9-4.1-3.9-8.4-7.9-18.7-13.7-10.6-6-10.3-15.2-10-24.2.3-9 .6-17.6-9.5-23.3-10.2-5.7-25.2 2.1-39.8 9.7-14.7 7.7-30 15.6-40.5 9.6l.5-.9c10.1 5.7 25.1-2.1 39.6-9.6C54.9 4.1 70.2-3.9 80.8 2.1c10.6 6 10.3 15.2 10 24.2-.3 9-.6 17.6 9.5 23.3 10.4 5.9 14.7 10 18.9 13.9 4.1 3.9 8.4 7.9 18.7 13.7 10.4 5.9 14.3 10.4 18 14.8 3.7 4.4 7.5 8.9 17.9 14.7 10.2 5.8 16.7 7.3 23.1 8.8 6.4 1.5 13.1 3 23.5 9 10.2 5.8 18.5 5.3 26.6 4.8 8.2-.5 16.7-1 27.2 4.9s12.4 12.7 14.3 19.2c1.9 6.7 3.7 13 13.9 18.8 10.5 5.9 12.4 12.7 14.3 19.3 1.9 6.7 3.6 12.9 13.8 18.7 10.2 5.8 17.8 6.2 25 6.6 7.4.4 15.1.8 25.5 6.7 10.3 5.8 15.9 8.4 21.4 10.8 5.5 2.5 11.1 5 21.5 10.9 10.3 5.9 15.1 9.4 19.8 12.8 4.6 3.4 9.4 6.9 19.7 12.7 10.2 5.8 16.1 8.1 21.7 10.3 5.7 2.2 11.6 4.6 22.1 10.5 10.6 6 9.3 16.4 7.9 26.4-1.3 10.2-2.6 19.8 7.4 25.4 10.1 5.7 24.8-1.9 39.1-9.2 14.6-7.5 29.6-15.2 40.2-9.1l-.5.9c-10.1-5.8-24.9 1.8-39.2 9.2-11.1 5.5-22.3 11.2-31.6 11.2z" transform="translate(-85.7 101.9)" fill="url(#paint5_linear)"/><path opacity=".7" d="M529.3 346.3c-3.1 0-5.9-.6-8.5-2.1-10.6-6-10.3-15.2-10-24.2.3-9 .6-17.6-9.5-23.3-10.3-5.9-14.7-10-18.8-13.9-4.1-3.9-8.4-7.9-18.7-13.7-10.5-5.9-14.4-10.5-18.1-14.9-3.7-4.3-7.5-8.8-17.7-14.6-10.3-5.9-16.9-7.4-23.2-8.9-6.4-1.5-13-3-23.3-8.9-10.2-5.8-18.5-5.3-26.6-4.8-8.2.5-16.7 1-27.2-4.9-10.6-6-12.5-12.8-14.4-19.4-1.9-6.6-3.7-12.9-13.8-18.6-10.5-5.9-12.4-12.7-14.3-19.3-1.9-6.7-3.6-12.9-13.8-18.7-10.2-5.8-17.8-6.2-25-6.6-7.4-.4-15.1-.8-25.5-6.7-10.3-5.8-15.9-8.4-21.4-10.8-5.5-2.5-11.1-5-21.5-10.9-10.3-5.9-15.1-9.4-19.8-12.8-4.6-3.4-9.4-6.9-19.7-12.7a143.2 143.2 0 0 0-22-10.4c-5.7-2.2-11.6-4.5-21.9-10.4-10.6-6-9.3-16.4-7.9-26.4C88 18.2 89.3 8.6 79.3 3c-10.1-5.8-24.9 1.8-39.2 9.2C25.6 19.6 10.6 27.3 0 21.4l.5-.9c10.1 5.7 24.8-1.9 39.1-9.2C54.2 3.8 69.2-3.9 79.8 2.2c10.6 6 9.3 16.4 7.9 26.4-1.3 10.2-2.6 19.8 7.4 25.4 10.2 5.8 16.1 8.1 21.7 10.3 5.7 2.2 11.6 4.6 22.1 10.5 10.3 5.9 15.1 9.4 19.8 12.8 4.6 3.4 9.4 6.9 19.7 12.7 10.3 5.8 15.9 8.4 21.4 10.8 5.5 2.5 11.1 5 21.5 10.9 10.2 5.8 17.8 6.2 25 6.6 7.4.4 15.1.8 25.5 6.7 10.5 5.9 12.4 12.7 14.3 19.3 1.9 6.7 3.6 12.9 13.8 18.7 10.5 5.9 12.4 12.7 14.3 19.2 1.9 6.7 3.7 13 13.9 18.8 10.2 5.8 18.5 5.3 26.6 4.8 8.2-.5 16.7-1 27.2 4.9 10.2 5.8 16.7 7.3 23.1 8.8 6.4 1.5 13.1 3 23.5 9 10.4 5.9 14.3 10.4 18 14.8 3.7 4.4 7.5 8.9 17.9 14.7 10.4 5.9 14.7 10 18.9 13.9 4.1 3.9 8.4 7.9 18.6 13.7 10.6 6 10.3 15.2 10 24.2-.3 9-.6 17.6 9.5 23.2 10.1 5.7 25.1-2.1 39.6-9.6 14.8-7.7 30.1-15.7 40.7-9.7l-.5.9c-10.2-5.7-25.2 2.1-39.8 9.7-11.2 5.7-22.6 11.7-32.1 11.7z" transform="translate(-101.2 122.2)" fill="url(#paint6_linear)"/><path opacity=".7" d="M528.2 346.29c-3 0-5.8-.6-8.4-2.1-10.5-6-11.3-14-12-21.8-.7-7.9-1.4-15.4-11.5-21.1-10.5-6-13.2-11.8-15.9-17.5-2.7-5.8-5.3-11.2-15.5-17-10.4-5.9-13.4-11.5-16.3-16.9-2.9-5.5-5.7-10.8-15.9-16.5-10.2-5.9-17.7-6.4-25-6.8-7.3-.5-14.9-1-25.3-6.9-10.3-5.8-19.5-4.4-28.4-3-9 1.4-18.4 2.9-28.8-3.1-10.5-5.9-12.4-12.7-14.3-19.2-1.9-6.6-3.7-12.9-13.9-18.6-10.6-6-12.5-12.8-14.3-19.4-1.9-6.7-3.6-13-13.7-18.7-10.3-5.9-17-7.2-23.5-8.5-6.5-1.3-13.3-2.7-23.6-8.5-10.5-5.9-15.2-9.5-19.8-13-4.5-3.4-9.2-7-19.4-12.8-10.3-5.8-16-8.3-21.5-10.7-5.5-2.4-11.3-4.9-21.6-10.8s-17.7-6.4-24.8-6.9c-7.2-.5-14.7-1.1-25.1-7-10.6-6-8.2-17.6-5.9-28.7 2.4-11.3 4.6-22-5.4-27.7-10.1-5.7-24.7 1.6-38.7 8.7-14.3 7.2-29.1 14.7-39.7 8.7l.5-.9c10.1 5.7 24.7-1.6 38.7-8.7 14.3-7.2 29.1-14.7 39.7-8.7 10.6 6 8.2 17.6 5.9 28.7-2.4 11.3-4.6 22 5.4 27.7 10.2 5.8 17.6 6.3 24.7 6.9 7.3.5 14.8 1.1 25.3 7.1 10.3 5.8 16 8.3 21.5 10.7 5.5 2.4 11.3 4.9 21.6 10.8 10.3 5.8 15 9.4 19.6 12.8 4.6 3.5 9.3 7 19.7 12.9 10.2 5.8 16.9 7.1 23.3 8.4 6.6 1.3 13.4 2.7 23.8 8.6 10.5 5.9 12.4 12.7 14.2 19.3 1.9 6.7 3.6 13 13.8 18.8 10.5 5.9 12.4 12.7 14.3 19.2 1.9 6.6 3.7 12.9 13.9 18.6 10.1 5.7 18.9 4.4 28.2 2.9 9.1-1.4 18.5-2.9 29.1 3.1 10.2 5.8 17.6 6.3 24.9 6.7 7.4.5 15 1 25.4 7 10.4 5.9 13.4 11.5 16.3 16.9 2.9 5.5 5.7 10.8 15.9 16.5 10.5 5.9 13.2 11.8 15.9 17.4 2.7 5.8 5.3 11.2 15.4 17 10.5 6 11.3 14 12 21.8.7 7.9 1.4 15.4 11.5 21.1 10.1 5.7 25.3-2.3 39.9-10.1 15-7.9 30.5-16.2 41.2-10.1l-.5.9c-10.2-5.8-25.5 2.3-40.2 10.1-11.5 6.2-23.2 12.4-32.7 12.4z" transform="translate(-116.7 142.41)" fill="url(#paint7_linear)"/><path opacity=".7" d="M527.6 346.14c-3 0-5.8-.6-8.3-2-10.5-5.9-12.3-12.8-14-19.5-1.8-6.8-3.4-13.2-13.6-18.9-10.5-6-11.7-13.6-12.8-21-1.1-7.5-2.2-14.5-12.3-20.3-10.5-5.9-12.5-12.6-14.5-19-2-6.5-3.9-12.7-14-18.5-10.2-5.8-18.5-5.3-26.6-4.8-8.2.5-16.7 1-27.2-4.9-10.2-5.7-20.2-3.4-29.9-1.1-9.9 2.3-20.1 4.7-30.6-1.2-10.6-6-12.6-12.7-14.5-19.2-1.9-6.6-3.7-12.8-13.9-18.5-10.5-5.9-12.4-12.8-14.2-19.4-1.8-6.7-3.6-13.1-13.7-18.8-10.3-5.8-16.2-8.1-21.9-10.3-5.7-2.2-11.6-4.5-22-10.4s-14.2-10.5-17.9-15c-3.6-4.4-7.4-9-17.7-14.8-10.3-5.8-16.9-7.2-23.3-8.6-6.5-1.4-13.1-2.9-23.5-8.8-10.2-5.8-18.8-4.7-27.9-3.5-8.8 1.2-17.9 2.3-28.4-3.6-10.7-6-7.2-18.7-3.9-31 3.4-12.5 6.6-24.2-3.4-29.9-10.1-5.7-24.4 1.4-38.3 8.2-14.1 7-28.7 14.2-39.3 8.2l.5-.9c10.1 5.7 24.4-1.4 38.3-8.2 14.1-7 28.7-14.2 39.3-8.2 10.7 6 7.2 18.7 3.9 31-3.4 12.5-6.6 24.2 3.4 29.9 10.2 5.7 19.1 4.6 27.8 3.4 8.8-1.2 18-2.4 28.5 3.6 10.3 5.8 16.9 7.3 23.2 8.7 6.5 1.4 13.1 2.9 23.6 8.8 10.4 5.9 14.2 10.5 17.9 15 3.6 4.4 7.4 9 17.7 14.8 10.3 5.8 16.2 8.1 21.9 10.3 5.7 2.2 11.6 4.5 22 10.4 10.5 5.9 12.4 12.8 14.2 19.4 1.8 6.7 3.6 13.1 13.7 18.8 10.5 5.9 12.4 12.6 14.3 19.1 1.9 6.6 3.8 12.9 14 18.6 10.2 5.7 20.2 3.4 29.9 1.1 9.9-2.3 20.1-4.7 30.6 1.2 10.2 5.8 18.5 5.3 26.6 4.8 8.2-.5 16.7-1 27.2 4.9s12.5 12.6 14.5 19c2 6.5 3.9 12.7 14 18.5 10.5 6 11.7 13.6 12.8 21 1.1 7.5 2.2 14.5 12.3 20.3 10.5 5.9 12.3 12.8 14 19.5 1.8 6.8 3.4 13.2 13.6 18.9 10.1 5.7 25.6-2.6 40.5-10.6 15.2-8.2 30.9-16.6 41.5-10.6l-.5.9c-10.1-5.7-25.6 2.6-40.5 10.6-11.5 6.2-23.4 12.6-33.1 12.6z" transform="translate(-132.6 162.46)" fill="url(#paint8_linear)"/><path opacity=".7" d="M526 346.68c-2.9 0-5.7-.6-8.1-2-10.4-6-13.3-11.7-16.1-17.3-2.8-5.7-5.5-11-15.7-16.8-10.6-6-10.1-15.4-9.6-24.5.5-9.2.9-17.9-9.1-23.6-10.5-6-11.6-13.7-12.7-21.2-1.1-7.5-2.1-14.7-12.2-20.4-10.2-5.8-19.5-4.2-28.4-2.8-9.1 1.5-18.6 3.1-29.1-2.9-10.1-5.7-21-2.5-31.5.7-10.7 3.2-21.8 6.6-32.3.6-10.5-6-12.5-12.7-14.4-19.2-1.9-6.6-3.8-12.8-13.9-18.5-10.6-6-12.5-12.8-14.3-19.4-1.8-6.7-3.5-13-13.6-18.8-10.3-5.8-15.4-9.1-20.2-12.2-4.9-3.1-9.9-6.3-20.2-12.2-10.4-6-13.3-11.6-16.1-17.1-2.9-5.6-5.6-10.9-15.8-16.7-10.2-5.9-17.8-6.3-25-6.7-7.4-.4-15-.9-25.4-6.8-10.1-5.7-20.7-2.9-30.9-.1-10.4 2.8-21.1 5.8-31.6-.2-10.7-6-6.2-19.9-1.8-33.3 4.4-13.6 8.6-26.5-1.3-32.1-10.1-5.7-24.2 1.1-37.9 7.8-13.9 6.7-28.3 13.7-38.8 7.7l.5-.9c10.1 5.7 24.2-1.1 37.9-7.8 13.9-6.7 28.3-13.7 38.8-7.7 10.7 6 6.2 19.9 1.8 33.3-4.4 13.6-8.6 26.5 1.3 32.1 10.1 5.7 20.7 2.9 30.9.1 10.4-2.8 21.1-5.8 31.6.2 10.2 5.8 17.7 6.2 24.9 6.6 7.4.4 15 .9 25.5 6.9 10.5 5.9 13.4 11.6 16.1 17.1 2.7 5.4 5.6 10.9 15.7 16.7 10.3 5.8 15.4 9.1 20.2 12.2 4.9 3.1 9.9 6.3 20.2 12.2 10.5 5.9 12.3 12.8 14.1 19.4 1.8 6.7 3.5 13.1 13.8 18.8 10.5 5.9 12.5 12.6 14.4 19.1 1.9 6.6 3.8 12.8 13.9 18.6 10.1 5.7 21 2.5 31.5-.7 10.7-3.2 21.8-6.6 32.3-.6 10.2 5.8 19.4 4.2 28.4 2.8 9.1-1.5 18.6-3.1 29.1 2.9s11.6 13.7 12.7 21.1c1.1 7.5 2.1 14.7 12.2 20.5 10.6 6 10.1 15.4 9.6 24.5-.5 9.2-.9 17.9 9.1 23.6 10.5 5.9 13.3 11.7 16.1 17.2 2.8 5.7 5.5 11 15.7 16.8 10.1 5.7 25.7-2.8 40.9-11.1 15.4-8.4 31.4-17.1 42-11l-.5.9c-10.1-5.8-25.8 2.8-41 11.1-11.8 6.5-23.9 13.1-33.7 13.1z" transform="translate(-147.7 182.32)" fill="url(#paint9_linear)"/><path opacity=".7" d="M525.3 345.94c-2.9 0-5.6-.6-8-1.9-10.4-5.9-14.2-10.5-18-14.9-3.7-4.3-7.5-8.8-17.8-14.6-10.7-6-8.6-17.2-6.6-28 2-10.9 3.9-21.2-6-26.9-10.6-6-10.7-14.7-10.9-23.2-.1-8.5-.3-16.6-10.4-22.3-10.1-5.7-20.4-3.2-30.2-.7-10.1 2.5-20.5 5.1-31-.8-10.1-5.7-21.8-1.5-33.2 2.5-11.5 4.1-23.5 8.4-34 2.4-10.6-6-12.6-12.7-14.5-19.1-2-6.6-3.8-12.8-13.9-18.5-10.5-5.9-12.3-12.8-14.1-19.5-1.8-6.7-3.5-13.1-13.6-18.8-10.4-5.9-14.6-10-18.7-14.1-4-4-8.2-8.1-18.5-13.9-10.5-5.9-12.4-12.7-14.3-19.2-1.9-6.6-3.7-12.8-13.9-18.6-10.2-5.8-18.6-5.2-26.8-4.7-8.3.6-16.9 1.1-27.3-4.8-10.2-5.7-22.3-1.1-34 3.4-11.9 4.5-24.2 9.2-34.7 3.3-10.7-6.1-5.1-21 .3-35.5 5.2-14.1 10.7-28.7.7-34.3-10.1-5.7-24 .9-37.5 7.3-13.7 6.5-27.9 13.2-38.4 7.2l.5-.9c10.1 5.7 24-.9 37.5-7.3 13.7-6.5 27.9-13.2 38.4-7.2 10.7 6.1 5.1 21-.3 35.5-5.2 14.1-10.7 28.7-.7 34.3 10.1 5.7 22.2 1.1 33.9-3.3 11.9-4.5 24.3-9.3 34.9-3.3 10.2 5.8 18.6 5.2 26.8 4.7 8.3-.6 16.9-1.1 27.3 4.8 10.5 5.9 12.4 12.7 14.3 19.2 1.9 6.6 3.7 12.8 13.9 18.6 10.4 5.9 14.6 10 18.7 14.1 4 4 8.2 8.1 18.5 13.9 10.5 5.9 12.3 12.8 14.1 19.5 1.8 6.7 3.5 13.1 13.6 18.8 10.5 5.9 12.5 12.6 14.4 19.1 2 6.6 3.8 12.8 14.1 18.6 10.1 5.7 21.8 1.5 33.2-2.5 11.5-4.1 23.5-8.4 34-2.4 10.1 5.7 20.4 3.2 30.2.7 10.1-2.5 20.5-5.1 31 .8 10.6 6 10.7 14.7 10.9 23.2.1 8.5.3 16.6 10.4 22.3 10.6 6 8.5 17.2 6.5 27.9-2 11-4 21.3 6.1 27 10.4 5.9 14.3 10.5 18 14.9 3.7 4.3 7.5 8.8 17.7 14.7 10.1 5.7 26-3.1 41.4-11.6 15.6-8.6 31.8-17.5 42.3-11.6l-.5.9c-10.1-5.7-26 3.1-41.4 11.6-12.2 6.4-24.6 13.2-34.4 13.2z" transform="translate(-163.3 203.16)" fill="url(#paint10_linear)"/><path opacity=".7" d="M524.4 346.24c-2.9 0-5.5-.6-7.9-1.9-10.5-5.9-15.4-9.3-20.1-12.6-4.7-3.3-9.5-6.6-19.7-12.4-10.7-6-7-19-3.4-31.5 3.6-12.7 7-24.7-3-30.3-10.6-6-9.8-15.8-9-25.2.8-9.6 1.5-18.6-8.5-24.3-10.1-5.7-21.2-2.2-31.9 1.2-11 3.5-22.4 7.1-33 1.1-10.1-5.7-22.7-.6-34.8 4.4-12.4 5-25.1 10.3-35.7 4.3-10.5-5.9-12.5-12.6-14.5-19-2-6.5-3.9-12.7-14-18.5-10.5-5.9-12.3-12.8-14.1-19.5-1.8-6.8-3.5-13.2-13.7-18.9-10.4-5.9-13.8-11-17-16-3.2-4.9-6.5-9.9-16.8-15.7-10.5-6-11.6-13.7-12.6-21.3-1-7.6-2-14.8-12.1-20.5-10.2-5.8-19.5-4.2-28.5-2.6-9.2 1.6-18.7 3.2-29.2-2.8-10.1-5.7-23.8.6-37 6.8-13.4 6.2-27.4 12.7-37.9 6.7-10.7-6.1-4.1-22.2 2.3-37.8 6.2-15.2 12.6-30.9 2.7-36.6-10.1-5.7-23.8.7-37.1 6.8-13.4 6.2-27.4 12.7-37.9 6.7l.5-.9c10.1 5.7 23.8-.7 37.1-6.8 13.5-6.3 27.4-12.7 38-6.8 10.7 6.1 4.1 22.2-2.3 37.8-6.2 15.2-12.6 30.9-2.7 36.6 10.1 5.7 23.8-.6 37-6.8 13.4-6.2 27.4-12.7 37.9-6.7 10.2 5.8 19.5 4.2 28.5 2.6 9.2-1.6 18.7-3.2 29.2 2.8s11.6 13.7 12.6 21.3c1 7.6 2 14.8 12.1 20.5 10.5 5.9 13.9 11.1 17.2 16 3.2 4.9 6.5 9.9 16.7 15.6 10.6 6 12.4 12.9 14.2 19.6 1.8 6.8 3.5 13.1 13.6 18.9 10.5 5.9 12.5 12.6 14.5 19.1 2 6.5 3.9 12.7 14 18.5 10.1 5.7 22.7.6 34.8-4.4 12.4-5 25.1-10.3 35.7-4.3 10.2 5.8 21.4 2.2 32.2-1.2 10.9-3.5 22.2-7.1 32.7-1.2 10.6 6 9.8 15.8 9 25.2-.8 9.6-1.5 18.6 8.5 24.3 10.7 6 7 19 3.4 31.5-3.6 12.7-7 24.7 3 30.3 10.2 5.8 15.1 9.2 19.8 12.5 5 3.4 9.6 6.7 20 12.6 10.1 5.8 26.2-3.3 41.8-12 15.8-8.9 32.2-18 42.7-12l-.5.9c-10.1-5.7-26.2 3.3-41.7 12-12.5 6.9-25.1 13.9-35.1 13.9z" transform="translate(-179 223.16)" fill="url(#paint11_linear)"/></g><defs><linearGradient id="paint0_linear" x2="1" gradientUnits="userSpaceOnUse" gradientTransform="matrix(0 173.064 -301.441 0 451.6 86.63)"><stop stop-color="#BA69D9"/><stop offset="1"/></linearGradient><linearGradient id="paint1_linear" x2="1" gradientUnits="userSpaceOnUse" gradientTransform="matrix(0 172.958 -301.24 0 451.3 86.57)"><stop stop-color="#BA69D9"/><stop offset="1"/></linearGradient><linearGradient id="paint2_linear" x2="1" gradientUnits="userSpaceOnUse" gradientTransform="scale(301.09 173.276) rotate(90 .5 1)"><stop stop-color="#BA69D9"/><stop offset="1"/></linearGradient><linearGradient id="paint3_linear" x2="1" gradientUnits="userSpaceOnUse" gradientTransform="matrix(0 173.021 -301.29 0 451.38 86.6)"><stop stop-color="#BA69D9"/><stop offset="1"/></linearGradient><linearGradient id="paint4_linear" x2="1" gradientUnits="userSpaceOnUse" gradientTransform="scale(301.19 173.108) rotate(90 .5 1)"><stop stop-color="#BA69D9"/><stop offset="1"/></linearGradient><linearGradient id="paint5_linear" x2="1" gradientUnits="userSpaceOnUse" gradientTransform="matrix(0 173.104 -301.34 0 451.45 86.65)"><stop stop-color="#BA69D9"/><stop offset="1"/></linearGradient><linearGradient id="paint6_linear" x2="1" gradientUnits="userSpaceOnUse" gradientTransform="matrix(0 173.108 -301.29 0 451.38 86.65)"><stop stop-color="#BA69D9"/><stop offset="1"/></linearGradient><linearGradient id="paint7_linear" x2="1" gradientUnits="userSpaceOnUse" gradientTransform="matrix(0 173.097 -301.24 0 451.3 86.64)"><stop stop-color="#BA69D9"/><stop offset="1"/></linearGradient><linearGradient id="paint8_linear" x2="1" gradientUnits="userSpaceOnUse" gradientTransform="matrix(0 173.024 -301.29 0 451.38 86.6)"><stop stop-color="#BA69D9"/><stop offset="1"/></linearGradient><linearGradient id="paint9_linear" x2="1" gradientUnits="userSpaceOnUse" gradientTransform="matrix(0 173.294 -301.04 0 451 86.74)"><stop stop-color="#BA69D9"/><stop offset="1"/></linearGradient><linearGradient id="paint10_linear" x2="1" gradientUnits="userSpaceOnUse" gradientTransform="scale(301.24 172.923) rotate(90 .5 1)"><stop stop-color="#BA69D9"/><stop offset="1"/></linearGradient><linearGradient id="paint11_linear" x2="1" gradientUnits="userSpaceOnUse" gradientTransform="matrix(0 173.072 -301.29 0 451.38 86.63)"><stop stop-color="#BA69D9"/><stop offset="1"/></linearGradient></defs></svg>