<svg xmlns="http://www.w3.org/2000/svg" xmlns:xlink="http://www.w3.org/1999/xlink" width="1000" height="711.3"><rect width="1000" height="711.3" rx="5" ry="5" class="a"></rect><svg y="0%" x="0%"><circle cx="20" cy="20" r="6" class="b"></circle><circle cx="40" cy="20" r="6" class="c"></circle><circle cx="60" cy="20" r="6" class="d"></circle></svg><svg height="651.3" viewBox="0 0 96 65.13" width="960" x="15" xmlns="http://www.w3.org/2000/svg" xmlns:xlink="http://www.w3.org/1999/xlink" y="50"><style>.a{fill:rgb(27,29,30)}.b{fill:#ff5f58}.c{fill:#ffbd2e}.d{fill:#18c132}.e{font-family:Monaco,Consolas,Menlo,'Bitstream Vera Sans Mono','Powerline Symbols',monospace}.f{fill:rgb(210,144,228)}.g{fill:rgb(248,248,242)}.h{fill:rgb(185,191,202)}.i{}.j{fill:transparent}.k{fill:rgb(249,38,114)}.l{fill:rgb(232,131,136)}.m{fill:rgb(204,204,198)}</style><g font-size="1.67" class="e"><defs><symbol id="1"><rect height="2.171" width="18" x="0" y="0" class="f"></rect><text x="0" y="1.67" class="g">                  </text><rect height="2.171" width="60" x="18.035999999999998" y="0" class="h"></rect><text x="18.035999999999998" y="1.67" class="i">│ -------------------------------------------------------- │</text>0<text x="78.15599999999999" y="1.67" class="g"> </text><rect height="2.171" width="17" x="79.158" y="0" class="f"></rect><text x="79.158" y="1.67" class="g">                 </text></symbol><symbol id="2"><rect height="2.171" width="18" x="0" y="0" class="f"></rect><text x="0" y="1.67" class="g">                  </text><rect height="2.171" width="60" x="18.035999999999998" y="0" class="h"></rect><text x="18.035999999999998" y="1.67" class="i">│                                                          │</text>0<text x="78.15599999999999" y="1.67" class="g"> </text><rect height="2.171" width="17" x="79.158" y="0" class="f"></rect><text x="79.158" y="1.67" class="g">                 </text></symbol><symbol id="a"><rect height="30" width="96" x="0" y="0" class="j"></rect></symbol></defs><rect height="65.13" width="96" class="a"></rect><svg x="0" y="0" width="96"><svg x="0"><use xlink:href="#a"></use><rect height="2.171" width="18" x="0" y="0" class="f"></rect><text x="0" y="1.67" class="g">                  </text><rect height="2.171" width="17" x="18.035999999999998" y="0" class="h"></rect><text x="18.035999999999998" y="1.67" class="i">┌──────────────┤ </text><rect height="2.171" width="26" x="35.06999999999999" y="0" class="h"></rect><text x="35.06999999999999" y="1.67" class="k">Rockstat Shell Script Menu</text><rect height="2.171" width="17" x="61.12199999999999" y="0" class="h"></rect><text x="61.12199999999999" y="1.67" class="i"> ├──────────────┐</text><rect height="2.171" width="18" x="78.15599999999999" y="0" class="f"></rect><text x="78.15599999999999" y="1.67" class="g">                  </text><rect height="2.171" width="18" x="0" y="2.171" class="f"></rect><text x="0" y="3.8409999999999997" class="g">                  </text><rect height="2.171" width="60" x="18.035999999999998" y="2.171" class="h"></rect><text x="18.035999999999998" y="3.8409999999999997" class="i">│ Choose your option:                                      │</text>0<text x="78.15599999999999" y="3.8409999999999997" class="g"> </text><rect height="2.171" width="17" x="79.158" y="2.171" class="f"></rect><text x="79.158" y="3.8409999999999997" class="g">                 </text><use xlink:href="#1" y="4.342"></use><rect height="2.171" width="18" x="0" y="6.513" class="f"></rect><text x="0" y="8.183" class="g">                  </text><rect height="2.171" width="60" x="18.035999999999998" y="6.513" class="h"></rect><text x="18.035999999999998" y="8.183" class="i">│ - New installation:       sequentially 1, 2, 3           │</text>0<text x="78.15599999999999" y="8.183" class="g"> </text><rect height="2.171" width="17" x="79.158" y="6.513" class="f"></rect><text x="79.158" y="8.183" class="g">                 </text><rect height="2.171" width="18" x="0" y="8.684" class="f"></rect><text x="0" y="10.354" class="g">                  </text><rect height="2.171" width="60" x="18.035999999999998" y="8.684" class="h"></rect><text x="18.035999999999998" y="10.354" class="i">│ - Upgrade system and                                     │</text>0<text x="78.15599999999999" y="10.354" class="g"> </text><rect height="2.171" width="17" x="79.158" y="8.684" class="f"></rect><text x="79.158" y="10.354" class="g">                 </text><rect height="2.171" width="18" x="0" y="10.855" class="f"></rect><text x="0" y="12.525" class="g">                  </text><rect height="2.171" width="60" x="18.035999999999998" y="10.855" class="h"></rect><text x="18.035999999999998" y="12.525" class="i">│   platform:               option 3                       │</text>0<text x="78.15599999999999" y="12.525" class="g"> </text><rect height="2.171" width="17" x="79.158" y="10.855" class="f"></rect><text x="79.158" y="12.525" class="g">                 </text><rect height="2.171" width="18" x="0" y="13.026" class="f"></rect><text x="0" y="14.696" class="g">                  </text><rect height="2.171" width="60" x="18.035999999999998" y="13.026" class="h"></rect><text x="18.035999999999998" y="14.696" class="i">│ - Upgrade platform:       option 4                       │</text>0<text x="78.15599999999999" y="14.696" class="g"> </text><rect height="2.171" width="17" x="79.158" y="13.026" class="f"></rect><text x="79.158" y="14.696" class="g">                 </text><rect height="2.171" width="18" x="0" y="15.196999999999997" class="f"></rect><text x="0" y="16.866999999999997" class="g">                  </text><rect height="2.171" width="60" x="18.035999999999998" y="15.196999999999997" class="h"></rect><text x="18.035999999999998" y="16.866999999999997" class="i">│ - Change admin password:  sequentially 11, 14 or 11, 3   │</text>0<text x="78.15599999999999" y="16.866999999999997" class="g"> </text><rect height="2.171" width="17" x="79.158" y="15.196999999999997" class="f"></rect><text x="79.158" y="16.866999999999997" class="g">                 </text><use xlink:href="#1" y="17.368"></use><use xlink:href="#2" y="19.539"></use><rect height="2.171" width="18" x="0" y="21.71" class="f"></rect><text x="0" y="23.380000000000003" class="g">                  </text><rect height="2.171" width="9" x="18.035999999999998" y="21.71" class="h"></rect><text x="18.035999999999998" y="23.380000000000003" class="i">│        </text><rect height="2.171" width="42" x="27.054" y="21.71" class="l"></rect><text x="27.054" y="23.380000000000003" class="m">1      Upgrade OS                         </text><rect height="2.171" width="9" x="69.13799999999999" y="21.71" class="h"></rect><text x="69.13799999999999" y="23.380000000000003" class="i">        │</text>0<text x="78.15599999999999" y="23.380000000000003" class="g"> </text><rect height="2.171" width="17" x="79.158" y="21.71" class="f"></rect><text x="79.158" y="23.380000000000003" class="g">                 </text><rect height="2.171" width="18" x="0" y="23.880999999999993" class="f"></rect><text x="0" y="25.550999999999995" class="g">                  </text><rect height="2.171" width="60" x="18.035999999999998" y="23.880999999999993" class="h"></rect><text x="18.035999999999998" y="25.550999999999995" class="i">│        2      Issue SSL certificate                      │</text>0<text x="78.15599999999999" y="25.550999999999995" class="g"> </text><rect height="2.171" width="17" x="79.158" y="23.880999999999993" class="f"></rect><text x="79.158" y="25.550999999999995" class="g">                 </text><rect height="2.171" width="18" x="0" y="26.052" class="f"></rect><text x="0" y="27.722" class="g">                  </text><rect height="2.171" width="60" x="18.035999999999998" y="26.052" class="h"></rect><text x="18.035999999999998" y="27.722" class="i">│        3      Install/upgrade system and platform        │</text>0<text x="78.15599999999999" y="27.722" class="g"> </text><rect height="2.171" width="17" x="79.158" y="26.052" class="f"></rect><text x="79.158" y="27.722" class="g">                 </text><rect height="2.171" width="18" x="0" y="28.223" class="f"></rect><text x="0" y="29.893" class="g">                  </text><rect height="2.171" width="60" x="18.035999999999998" y="28.223" class="h"></rect><text x="18.035999999999998" y="29.893" class="i">│        4      Upgrade only platform components           │</text>0<text x="78.15599999999999" y="29.893" class="g"> </text><rect height="2.171" width="17" x="79.158" y="28.223" class="f"></rect><text x="79.158" y="29.893" class="g">                 </text><rect height="2.171" width="18" x="0" y="30.394" class="f"></rect><text x="0" y="32.064" class="g">                  </text><rect height="2.171" width="60" x="18.035999999999998" y="30.394" class="h"></rect><text x="18.035999999999998" y="32.064" class="i">│        30     Setup OpenVPN server                       │</text>0<text x="78.15599999999999" y="32.064" class="g"> </text><rect height="2.171" width="17" x="79.158" y="30.394" class="f"></rect><text x="79.158" y="32.064" class="g">                 </text><rect height="2.171" width="18" x="0" y="32.565" class="f"></rect><text x="0" y="34.235" class="g">                  </text><rect height="2.171" width="60" x="18.035999999999998" y="32.565" class="h"></rect><text x="18.035999999999998" y="34.235" class="i">│        11     Change Admin Password                      │</text>0<text x="78.15599999999999" y="34.235" class="g"> </text><rect height="2.171" width="17" x="79.158" y="32.565" class="f"></rect><text x="79.158" y="34.235" class="g">                 </text><rect height="2.171" width="18" x="0" y="34.736" class="f"></rect><text x="0" y="36.406" class="g">                  </text><rect height="2.171" width="60" x="18.035999999999998" y="34.736" class="h"></rect><text x="18.035999999999998" y="36.406" class="i">│        12     Change Domain &#x27;stat.rstat.org&#x27;             │</text>0<text x="78.15599999999999" y="36.406" class="g"> </text><rect height="2.171" width="17" x="79.158" y="34.736" class="f"></rect><text x="79.158" y="36.406" class="g">                 </text><rect height="2.171" width="18" x="0" y="36.907000000000004" class="f"></rect><text x="0" y="38.577000000000005" class="g">                  </text><rect height="2.171" width="60" x="18.035999999999998" y="36.907000000000004" class="h"></rect><text x="18.035999999999998" y="38.577000000000005" class="i">│        13     Change Short hostname &#x27;rstat&#x27;              │</text>0<text x="78.15599999999999" y="38.577000000000005" class="g"> </text><rect height="2.171" width="17" x="79.158" y="36.907000000000004" class="f"></rect><text x="79.158" y="38.577000000000005" class="g">                 </text><rect height="2.171" width="18" x="0" y="39.078" class="f"></rect><text x="0" y="40.748000000000005" class="g">                  </text><rect height="2.171" width="60" x="18.035999999999998" y="39.078" class="h"></rect><text x="18.035999999999998" y="40.748000000000005" class="i">│        14     Change Email &#x27;none@rstat.org&#x27;              │</text>0<text x="78.15599999999999" y="40.748000000000005" class="g"> </text><rect height="2.171" width="17" x="79.158" y="39.078" class="f"></rect><text x="79.158" y="40.748000000000005" class="g">                 </text><rect height="2.171" width="18" x="0" y="41.248999999999995" class="f"></rect><text x="0" y="42.919" class="g">                  </text><rect height="2.171" width="60" x="18.035999999999998" y="41.248999999999995" class="h"></rect><text x="18.035999999999998" y="42.919" class="i">│        15     Change Name &#x27;Dmitry Rodin&#x27;                 │</text>0<text x="78.15599999999999" y="42.919" class="g"> </text><rect height="2.171" width="17" x="79.158" y="41.248999999999995" class="f"></rect><text x="79.158" y="42.919" class="g">                 </text><rect height="2.171" width="18" x="0" y="43.42" class="f"></rect><text x="0" y="45.09" class="g">                  </text><rect height="2.171" width="60" x="18.035999999999998" y="43.42" class="h"></rect><text x="18.035999999999998" y="45.09" class="i">│        20     Apply new admin password                   │</text>0<text x="78.15599999999999" y="45.09" class="g"> </text><rect height="2.171" width="17" x="79.158" y="43.42" class="f"></rect><text x="79.158" y="45.09" class="g">                 </text><rect height="2.171" width="18" x="0" y="45.591" class="f"></rect><text x="0" y="47.261" class="g">                  </text><rect height="2.171" width="60" x="18.035999999999998" y="45.591" class="h"></rect><text x="18.035999999999998" y="47.261" class="i">│        0      Exit                                       │</text>0<text x="78.15599999999999" y="47.261" class="g"> </text><rect height="2.171" width="17" x="79.158" y="45.591" class="f"></rect><text x="79.158" y="47.261" class="g">                 </text><use xlink:href="#2" y="47.76199999999999"></use><use xlink:href="#2" y="49.933"></use><use xlink:href="#2" y="52.104"></use><use xlink:href="#2" y="54.275"></use><use xlink:href="#2" y="56.446000000000005"></use><rect height="2.171" width="18" x="0" y="58.617" class="f"></rect><text x="0" y="60.287" class="g">                  </text><rect height="2.171" width="60" x="18.035999999999998" y="58.617" class="h"></rect><text x="18.035999999999998" y="60.287" class="i">│              &lt;Ok&gt;                  &lt;Cancel&gt;              │</text>0<text x="78.15599999999999" y="60.287" class="g"> </text><rect height="2.171" width="17" x="79.158" y="58.617" class="f"></rect><text x="79.158" y="60.287" class="g">                 </text><use xlink:href="#2" y="60.788"></use><rect height="2.171" width="18" x="0" y="62.959" class="f"></rect><text x="0" y="64.629" class="g">                  </text><rect height="2.171" width="60" x="18.035999999999998" y="62.959" class="h"></rect><text x="18.035999999999998" y="64.629" class="i">└──────────────────────────────────────────────────────────┘</text>0<text x="78.15599999999999" y="64.629" class="g"> </text><rect height="2.171" width="17" x="79.158" y="62.959" class="f"></rect><text x="79.158" y="64.629" class="g">                 </text></svg></svg></g></svg></svg>