<svg xmlns="http://www.w3.org/2000/svg" xmlns:xlink="http://www.w3.org/1999/xlink" width="940" height="624.46"><rect width="940" height="624.46" rx="5" ry="5" class="a"/><svg y="0%" x="0%"><circle cx="20" cy="20" r="6" fill="#ff5f58"/><circle cx="40" cy="20" r="6" fill="#ffbd2e"/><circle cx="60" cy="20" r="6" fill="#18c132"/></svg><svg height="564.46" viewBox="0 0 90 56.446" width="900" x="15" xmlns="http://www.w3.org/2000/svg" xmlns:xlink="http://www.w3.org/1999/xlink" y="50"><style>.a{fill:#000}.f{fill:#d290e4}.g{fill:#e9ebeb}.h{fill:#b9bfca}</style><g font-size="1.67" font-family="Monaco,Consolas,Menlo,'Bitstream Vera Sans Mono','Powerline Symbols',monospace"><defs><symbol id="1"><path class="f" d="M0 0h90v2.171H0z"/><text y="1.67" class="g"></text></symbol><symbol id="2"><path class="f" d="M0 0h6v2.171H0z"/><text y="1.67" class="g"></text><path class="h" d="M6.012 0h78v2.171h-78z"/><text x="6.012" y="1.67" class="i">│ │</text>0<text x="84.168" y="1.67" class="g"></text><path class="f" d="M85.17 0h5v2.171h-5z"/><text x="85.17" y="1.67" class="g"></text></symbol><symbol id="a"><path fill="transparent" d="M0 0h90v27H0z"/></symbol><symbol id="b"><path fill="#4d4d4d" d="M0 0h1.102v2.171H0z"/></symbol></defs><path class="a" d="M0 0h90v56.446H0z"/><svg width="90"><svg><use xlink:href="#a"/><use xlink:href="#b" x="7.996" y="32.54"/><use xlink:href="#1"/><use xlink:href="#1" y="2.171"/><use xlink:href="#1" y="4.342"/><use xlink:href="#1" y="6.513"/><use xlink:href="#1" y="8.684"/><use xlink:href="#1" y="10.855"/><use xlink:href="#1" y="13.026"/><use xlink:href="#1" y="15.197"/><use xlink:href="#1" y="17.368"/><use xlink:href="#1" y="19.539"/><use xlink:href="#1" y="21.71"/><use xlink:href="#1" y="23.881"/><path class="f" d="M0 26.052h6v2.171H0z"/><text y="27.722" class="g"></text><path class="h" d="M6.012 26.052h36v2.171h-36z"/><text x="6.012" y="27.722" class="i">┌─────────────────────────────────┤</text><path class="h" d="M42.084 26.052h5v2.171h-5z"/><text x="42.084" y="27.722" fill="#c23621">Email</text><path class="h" d="M47.094 26.052h37v2.171h-37z"/><text x="47.094" y="27.722" class="i">├──────────────────────────────────┐</text><path class="f" d="M84.168 26.052h6v2.171h-6z"/><text x="84.168" y="27.722" class="g"></text><path class="f" d="M0 28.223h6v2.171H0z"/><text y="29.893" class="g"></text><path class="h" d="M6.012 28.223h78v2.171h-78z"/><text x="6.012" y="29.893" class="i">│ Email required for issuing letsencrypt SSL and GIT. │</text>0<text x="84.168" y="29.893" class="g"></text><path class="f" d="M85.17 28.223h5v2.171h-5z"/><text x="85.17" y="29.893" class="g"></text><use xlink:href="#2" y="30.394"/><path class="f" d="M0 32.565h6v2.171H0z"/><text y="34.235" class="g"></text><path class="h" d="M6.012 32.565h2v2.171h-2z"/><text x="6.012" y="34.235" class="i">│</text><path class="f" d="M8.016 32.565h74v2.171h-74z"/><text x="8.016" y="34.235" fill="#cbcccd">__________________________________________________________________________</text><path class="h" d="M82.164 32.565h2v2.171h-2z"/><text x="82.164" y="34.235" class="i">│</text>0<text x="84.168" y="34.235" class="g"></text><path class="f" d="M85.17 32.565h5v2.171h-5z"/><text x="85.17" y="34.235" class="g"></text><use xlink:href="#2" y="34.736"/><path class="f" d="M0 36.907h6v2.171H0z"/><text y="38.577" class="g"></text><path class="h" d="M6.012 36.907h78v2.171h-78z"/><text x="6.012" y="38.577" class="i">│ &lt;Ok&gt; &lt;Cancel&gt; │</text>0<text x="84.168" y="38.577" class="g"></text><path class="f" d="M85.17 36.907h5v2.171h-5z"/><text x="85.17" y="38.577" class="g"></text><use xlink:href="#2" y="39.078"/><path class="f" d="M0 41.249h6v2.171H0z"/><text y="42.919" class="g"></text><path class="h" d="M6.012 41.249h78v2.171h-78z"/><text x="6.012" y="42.919" class="i">└────────────────────────────────────────────────────────────────────────────┘</text>0<text x="84.168" y="42.919" class="g"></text><path class="f" d="M85.17 41.249h5v2.171h-5z"/><text x="85.17" y="42.919" class="g"></text><path class="f" d="M0 43.42h7v2.171H0z"/><text y="45.09" class="g"></text>0<text x="7.014" y="45.09" class="g"></text><path class="f" d="M85.17 43.42h5v2.171h-5z"/><text x="85.17" y="45.09" class="g"></text><use xlink:href="#1" y="45.591"/><use xlink:href="#1" y="47.762"/><use xlink:href="#1" y="49.933"/><use xlink:href="#1" y="52.104"/><use xlink:href="#1" y="54.275"/><use xlink:href="#1" y="56.446"/></svg></svg></g></svg></svg>