<svg xmlns="http://www.w3.org/2000/svg" xmlns:xlink="http://www.w3.org/1999/xlink" width="940" height="624.46"><rect width="940" height="624.46" rx="5" ry="5" class="a"/><svg y="0%" x="0%"><circle cx="20" cy="20" r="6" fill="#ff5f58"/><circle cx="40" cy="20" r="6" fill="#ffbd2e"/><circle cx="60" cy="20" r="6" fill="#18c132"/></svg><svg height="564.46" viewBox="0 0 90 56.446" width="900" x="15" xmlns="http://www.w3.org/2000/svg" xmlns:xlink="http://www.w3.org/1999/xlink" y="50"><style>.a{fill:#282d35}.f{fill:#66c2cd;font-weight:700}.g{fill:#b9c0cb}.j{fill:#71bef2;font-weight:700}</style><g font-size="1.67" font-family="Monaco,Consolas,Menlo,'Bitstream Vera Sans Mono','Powerline Symbols',monospace"><defs><symbol id="1"><text y="1.67" class="f">##</text></symbol><symbol id="2"><text y="1.67" class="f">&gt;&gt;</text><text x="3.006" y="1.67" class="g">Ok</text></symbol><symbol id="a"><path fill="transparent" d="M0 0h90v27H0z"/></symbol><symbol id="b"><path fill="#6f7683" d="M0 0h1.102v2.171H0z"/></symbol></defs><path class="a" d="M0 0h90v56.446H0z"/><svg width="90"><svg><use xlink:href="#a"/><use xlink:href="#b" x="-.004" y="54.25"/><use xlink:href="#1" y="4.342"/><text y="8.183" class="f">##</text><text x="3.006" y="8.183" class="f">Rockstat</text><text x="12.024" y="8.183" class="f">Bootstrap</text><use xlink:href="#1" y="8.684"/><text y="12.525" class="f">##</text><text x="3.006" y="12.525" class="g">version</text><text x="11.022" y="12.525" class="g">3.3.0</text><text y="14.696" class="f">##</text><text x="3.006" y="14.696" class="g">branch</text><text x="10.02" y="14.696" class="g">master</text><text y="16.867" class="f">##</text><text x="3.006" y="16.867" class="g">logs</text><text x="8.016" y="16.867" class="g">output</text><text x="15.03" y="16.867" class="g">/tmp/platform-setup.FFHBsdLO</text><use xlink:href="#1" y="17.368"/><text y="25.551" class="f">&gt;&gt;</text><text x="3.006" y="25.551" class="j">Preparing</text><text x="13.026" y="25.551" class="j">system</text><text y="32.064" class="f">&gt;&gt;</text><text x="3.006" y="32.064" class="j">Exporting</text><text x="13.026" y="32.064" class="j">locale</text><text x="20.04" y="32.064" class="j">vars</text><text y="38.577" class="f">&gt;&gt;</text><text x="3.006" y="38.577" class="j">Updating</text><text x="12.024" y="38.577" class="j">packages</text><text x="21.042" y="38.577" class="j">registry</text><use xlink:href="#2" y="41.249"/><text y="47.261" class="f">&gt;&gt;</text><text x="3.006" y="47.261" class="j">Installing</text><text x="14.028" y="47.261" class="j">requirements</text><text y="51.603" class="g">Extracting</text><text x="11.022" y="51.603" class="g">templates</text><text x="21.042" y="51.603" class="g">from</text><text x="26.052" y="51.603" class="g">packages:</text><text x="36.072" y="51.603" class="g">100%</text><use xlink:href="#2" y="52.104"/></svg></svg></g></svg></svg>