<svg xmlns="http://www.w3.org/2000/svg" xmlns:xlink="http://www.w3.org/1999/xlink" width="940" height="385.65"><rect width="940" height="385.65" rx="5" ry="5" class="a"/><svg y="0%" x="0%"><circle cx="20" cy="20" r="6" fill="#ff5f58"/><circle cx="40" cy="20" r="6" fill="#ffbd2e"/><circle cx="60" cy="20" r="6" fill="#18c132"/></svg><svg height="325.65" viewBox="0 0 90 32.565" width="900" x="15" xmlns="http://www.w3.org/2000/svg" xmlns:xlink="http://www.w3.org/1999/xlink" y="50"><style>.a{fill:#282d35}.i{fill:#dbab79;font-weight:700}.l{fill:#b9c0cb}</style><g font-size="1.67" font-family="Monaco,Consolas,Menlo,'Bitstream Vera Sans Mono','Powerline Symbols',monospace"><defs><symbol id="a"><path fill="transparent" d="M0 0h90v16H0z"/></symbol><symbol id="b"><path fill="#6f7683" d="M0 0h1.102v2.171H0z"/></symbol></defs><path class="a" d="M0 0h90v32.565H0z"/><svg width="90"><svg><use xlink:href="#a"/><use xlink:href="#b" x="16.996" y="23.856"/><text y="1.67" fill="#e88388" font-weight="700">user</text><text x="4.008" y="1.67" class="i">@</text><text x="5.01" y="1.67" fill="#66c2cd" font-weight="700">DR</text><text x="8.016" y="1.67" class="i">~</text><text x="10.02" y="1.67" fill="#d290e4" font-weight="700">$</text><text x="12.024" y="1.67" class="l">ssh</text><text x="16.032" y="1.67" class="l">root@stat.rstat.org</text><text y="3.841" class="l">root@stat.rstat.org&apos;s</text><text x="22.044" y="3.841" class="l">password:</text><text y="6.012" class="l">Welcome</text><text x="8.016" y="6.012" class="l">to</text><text x="11.022" y="6.012" class="l">Ubuntu</text><text x="18.036" y="6.012" class="l">16.04.5</text><text x="26.052" y="6.012" class="l">LTS</text><text x="30.06" y="6.012" class="l">(GNU/Linux</text><text x="41.082" y="6.012" class="l">4.4.0-133-generic</text><text x="59.118" y="6.012" class="l">x86_64)</text><text x="1.002" y="10.354" class="l">*</text><text x="3.006" y="10.354" class="l">Documentation:</text><text x="19.038" y="10.354" class="l">https://help.ubuntu.com</text><text x="1.002" y="12.525" class="l">*</text><text x="3.006" y="12.525" class="l">Management:</text><text x="19.038" y="12.525" class="l">https://landscape.canonical.com</text><text x="1.002" y="14.696" class="l">*</text><text x="3.006" y="14.696" class="l">Support:</text><text x="19.038" y="14.696" class="l">https://ubuntu.com/advantage</text><text y="16.867" class="l">New</text><text x="4.008" y="16.867" class="l">release</text><text x="12.024" y="16.867" class="l">&apos;18.04.1</text><text x="21.042" y="16.867" class="l">LTS&apos;</text><text x="26.052" y="16.867" class="l">available.</text><text y="19.038" class="l">Run</text><text x="4.008" y="19.038" class="l">&apos;do-release-upgrade&apos;</text><text x="25.05" y="19.038" class="l">to</text><text x="28.056" y="19.038" class="l">upgrade</text><text x="36.072" y="19.038" class="l">to</text><text x="39.078" y="19.038" class="l">it.</text><text y="23.38" class="l">Last</text><text x="5.01" y="23.38" class="l">login:</text><text x="12.024" y="23.38" class="l">Wed</text><text x="16.032" y="23.38" class="l">Sep</text><text x="20.04" y="23.38" class="l">12</text><text x="23.046" y="23.38" class="l">02:15:25</text><text x="32.064" y="23.38" class="l">2018</text><text x="37.074" y="23.38" class="l">from</text><text x="42.084" y="23.38" class="l">109.252.93.150</text><text y="25.551" class="l">root@cs343281:~#</text></svg></svg></g></svg></svg>