<svg xmlns="http://www.w3.org/2000/svg" viewBox="0 0 504.5 492"><title>center-outer</title><path d="M218.2,198.2a1.3,1.3,0,0,0,1.3-1.3,1.3,1.3,0,0,0-1.3-1.4,1.4,1.4,0,0,0-1.4,1.4A1.3,1.3,0,0,0,218.2,198.2Z" transform="translate(-28 -28)" style="fill:#e3ffff"/><path d="M208.9,182.7a1.6,1.6,0,0,0,1.6-1.6,1.6,1.6,0,0,0-1.6-1.5,1.5,1.5,0,0,0-1.5,1.5A1.6,1.6,0,0,0,208.9,182.7Z" transform="translate(-28 -28)" style="fill:#e3ffff"/><path d="M221.2,167.6a.7.7,0,1,0,0-1.4.7.7,0,0,0,0,1.4Z" transform="translate(-28 -28)" style="fill:#e3ffff"/><path d="M204.7,171a.9.9,0,1,0-.9-.9A.9.9,0,0,0,204.7,171Z" transform="translate(-28 -28)" style="fill:#e3ffff"/><path d="M188.8,179.1a.9.9,0,1,0-.9-.9A.9.9,0,0,0,188.8,179.1Z" transform="translate(-28 -28)" style="fill:#e3ffff"/><path d="M200.9,190.7a.7.7,0,0,0,0-1.4.7.7,0,1,0,0,1.4Z" transform="translate(-28 -28)" style="fill:#e3ffff"/><path d="M223.4,183.1a1.2,1.2,0,0,0,1.2-1.2,1.1,1.1,0,0,0-1.2-1.1,1.2,1.2,0,0,0-1.2,1.1A1.2,1.2,0,0,0,223.4,183.1Z" transform="translate(-28 -28)" style="fill:#e3ffff"/><path d="M212,160.3a.7.7,0,1,0-.7-.7A.7.7,0,0,0,212,160.3Z" transform="translate(-28 -28)" style="fill:#e3ffff"/><path d="M191,168.4a1.5,1.5,0,0,0,1.5-1.6,1.5,1.5,0,0,0-1.5-1.5,1.5,1.5,0,0,0-1.5,1.5A1.6,1.6,0,0,0,191,168.4Z" transform="translate(-28 -28)" style="fill:#e3ffff"/><path d="M199.6,157.6a1.5,1.5,0,0,0,1.5-1.5,1.5,1.5,0,0,0-1.5-1.6,1.6,1.6,0,0,0-1.5,1.6A1.5,1.5,0,0,0,199.6,157.6Z" transform="translate(-28 -28)" style="fill:#e3ffff"/><path d="M197.7,140.8a2.8,2.8,0,0,0,2.8-2.8,2.7,2.7,0,0,0-2.8-2.8,2.8,2.8,0,0,0-2.8,2.8A2.9,2.9,0,0,0,197.7,140.8Z" transform="translate(-28 -28)" style="fill:#e3ffff"/><path d="M161.6,150.3a5.5,5.5,0,1,0-5.4-5.4A5.4,5.4,0,0,0,161.6,150.3Z" transform="translate(-28 -28)" style="fill:#e3ffff"/><path d="M176.5,125.5a8,8,0,0,0,8-8,7.9,7.9,0,0,0-8-7.9,7.9,7.9,0,0,0-7.9,7.9A7.9,7.9,0,0,0,176.5,125.5Z" transform="translate(-28 -28)" style="fill:#e3ffff"/><path d="M213.5,146.9a.5.5,0,0,0,.5-.4.5.5,0,0,0-.5-.5.5.5,0,0,0-.4.5A.4.4,0,0,0,213.5,146.9Z" transform="translate(-28 -28)" style="fill:#e3ffff"/><path d="M238.4,188.6a.7.7,0,1,0-.7-.7A.7.7,0,0,0,238.4,188.6Z" transform="translate(-28 -28)" style="fill:#e3ffff"/><path d="M230.8,212.6a.9.9,0,1,0-.9-.9A.9.9,0,0,0,230.8,212.6Z" transform="translate(-28 -28)" style="fill:#e3ffff"/><path d="M218.5,211.1a.7.7,0,0,0,.8-.8.8.8,0,0,0-.8-.8.9.9,0,0,0-.8.8A.8.8,0,0,0,218.5,211.1Z" transform="translate(-28 -28)" style="fill:#e3ffff"/><path d="M206,201.2a.8.8,0,0,0,.8-.8.7.7,0,0,0-.8-.8.8.8,0,0,0-.8.8A.9.9,0,0,0,206,201.2Z" transform="translate(-28 -28)" style="fill:#e3ffff"/><path d="M180.9,173a.5.5,0,0,0,.4-.5.4.4,0,0,0-.4-.4.5.5,0,0,0-.5.4A.5.5,0,0,0,180.9,173Z" transform="translate(-28 -28)" style="fill:#e3ffff"/><path d="M173.2,167.6a1.3,1.3,0,1,0-1.3-1.3A1.3,1.3,0,0,0,173.2,167.6Z" transform="translate(-28 -28)" style="fill:#e3ffff"/><path d="M234.2,197.5a1.1,1.1,0,0,0,1.1-1.2,1.2,1.2,0,0,0-1.1-1.2,1.2,1.2,0,0,0-1.2,1.2A1.2,1.2,0,0,0,234.2,197.5Z" transform="translate(-28 -28)" style="fill:#e3ffff"/><path d="M243.9,206.7a1.1,1.1,0,0,0,1.1-1.2,1.1,1.1,0,0,0-1.1-1.1,1.1,1.1,0,0,0-1.2,1.1A1.2,1.2,0,0,0,243.9,206.7Z" transform="translate(-28 -28)" style="fill:#e3ffff"/><path d="M187.6,272.6a1.3,1.3,0,0,0,1.3-1.3,1.3,1.3,0,0,0-1.3-1.4,1.4,1.4,0,0,0-1.4,1.4A1.3,1.3,0,0,0,187.6,272.6Z" transform="translate(-28 -28)" style="fill:#e3ffff"/><path d="M169.6,270.3a1.5,1.5,0,0,0,1.5-1.5,1.6,1.6,0,0,0-1.5-1.6,1.6,1.6,0,0,0-1.6,1.6A1.6,1.6,0,0,0,169.6,270.3Z" transform="translate(-28 -28)" style="fill:#e3ffff"/><path d="M166.1,250.9a.7.7,0,1,0-.7-.7A.7.7,0,0,0,166.1,250.9Z" transform="translate(-28 -28)" style="fill:#e3ffff"/><path d="M158.3,266.1a.9.9,0,0,0,0-1.8.9.9,0,1,0,0,1.8Z" transform="translate(-28 -28)" style="fill:#e3ffff"/><path d="M154.8,283.6a.9.9,0,1,0-.9-.9A.9.9,0,0,0,154.8,283.6Z" transform="translate(-28 -28)" style="fill:#e3ffff"/><path d="M171.5,281.3a.7.7,0,0,0,0-1.4.7.7,0,1,0,0,1.4Z" transform="translate(-28 -28)" style="fill:#e3ffff"/><path d="M179.2,259.1a1.1,1.1,0,0,0,1.1-1.2,1.2,1.2,0,0,0-1.1-1.2,1.2,1.2,0,0,0-1.2,1.2A1.2,1.2,0,0,0,179.2,259.1Z" transform="translate(-28 -28)" style="fill:#e3ffff"/><path d="M154.6,253.6a.9.9,0,0,0,.8-.8.8.8,0,0,0-.8-.7.7.7,0,0,0-.7.7A.8.8,0,0,0,154.6,253.6Z" transform="translate(-28 -28)" style="fill:#e3ffff"/><path d="M147.2,275.4a1.5,1.5,0,0,0,1.6-1.5,1.6,1.6,0,0,0-1.6-1.5,1.5,1.5,0,0,0-1.5,1.5A1.5,1.5,0,0,0,147.2,275.4Z" transform="translate(-28 -28)" style="fill:#e3ffff"/><path d="M144.1,261.9a1.6,1.6,0,0,0,1.6-1.6,1.6,1.6,0,0,0-1.6-1.5,1.5,1.5,0,0,0-1.5,1.5A1.6,1.6,0,0,0,144.1,261.9Z" transform="translate(-28 -28)" style="fill:#e3ffff"/><path d="M128.8,253.5a2.9,2.9,0,0,0,2.9-2.8,2.9,2.9,0,0,0-5.7,0A2.9,2.9,0,0,0,128.8,253.5Z" transform="translate(-28 -28)" style="fill:#e3ffff"/><path d="M111.7,288.6a5.5,5.5,0,0,0,5.4-5.5,5.4,5.4,0,0,0-5.4-5.4,5.5,5.5,0,0,0-5.5,5.4A5.5,5.5,0,0,0,111.7,288.6Z" transform="translate(-28 -28)" style="fill:#e3ffff"/><path d="M99.6,262.4a7.9,7.9,0,0,0,8-7.9,8,8,0,0,0-8-8,7.9,7.9,0,0,0-7.9,8A7.9,7.9,0,0,0,99.6,262.4Z" transform="translate(-28 -28)" style="fill:#e3ffff"/><path d="M145.4,244a.5.5,0,0,0,.5-.5.5.5,0,0,0-.5-.4.4.4,0,0,0-.4.4A.5.5,0,0,0,145.4,244Z" transform="translate(-28 -28)" style="fill:#e3ffff"/><path d="M193.3,250.7a.8.8,0,0,0,.7-.8.7.7,0,0,0-.7-.7.8.8,0,0,0-.8.7A.9.9,0,0,0,193.3,250.7Z" transform="translate(-28 -28)" style="fill:#e3ffff"/><path d="M207.1,271.6a.9.9,0,1,0-.9-.9A.9.9,0,0,0,207.1,271.6Z" transform="translate(-28 -28)" style="fill:#e3ffff"/><path d="M198.3,280.2a.8.8,0,0,0,.9-.8.9.9,0,0,0-.9-.8.9.9,0,0,0-.8.8A.8.8,0,0,0,198.3,280.2Z" transform="translate(-28 -28)" style="fill:#e3ffff"/><path d="M182.8,283.9a.9.9,0,0,0,.8-.9.9.9,0,0,0-.8-.8.8.8,0,0,0-.8.8A.8.8,0,0,0,182.8,283.9Z" transform="translate(-28 -28)" style="fill:#e3ffff"/><path d="M145.3,285.8a.5.5,0,0,0,.5-.5.5.5,0,0,0-.5-.4.4.4,0,0,0-.4.4A.5.5,0,0,0,145.3,285.8Z" transform="translate(-28 -28)" style="fill:#e3ffff"/><path d="M135.7,288.7a1.3,1.3,0,0,0,0-2.6,1.3,1.3,0,0,0,0,2.6Z" transform="translate(-28 -28)" style="fill:#e3ffff"/><path d="M197.3,259.6a1.1,1.1,0,0,0,1.1-1.2,1.1,1.1,0,0,0-1.1-1.1,1.1,1.1,0,0,0-1.2,1.1A1.2,1.2,0,0,0,197.3,259.6Z" transform="translate(-28 -28)" style="fill:#e3ffff"/><path d="M210.4,257.8a1.2,1.2,0,0,0,1.2-1.2,1.2,1.2,0,0,0-1.2-1.1,1.1,1.1,0,0,0-1.2,1.1A1.2,1.2,0,0,0,210.4,257.8Z" transform="translate(-28 -28)" style="fill:#e3ffff"/><path d="M226.8,343a1.4,1.4,0,0,0,1.4-1.4,1.3,1.3,0,0,0-1.4-1.3,1.3,1.3,0,0,0-1.3,1.3A1.3,1.3,0,0,0,226.8,343Z" transform="translate(-28 -28)" style="fill:#e3ffff"/><path d="M213.5,355.7a1.6,1.6,0,0,0,1.6-1.6,1.6,1.6,0,0,0-1.6-1.5,1.5,1.5,0,0,0-1.5,1.5A1.6,1.6,0,0,0,213.5,355.7Z" transform="translate(-28 -28)" style="fill:#e3ffff"/><path d="M196.9,346a.7.7,0,0,0,.7-.7.7.7,0,1,0-1.4,0A.7.7,0,0,0,196.9,346Z" transform="translate(-28 -28)" style="fill:#e3ffff"/><path d="M203.7,361.6a.9.9,0,1,0-.9-.9A.9.9,0,0,0,203.7,361.6Z" transform="translate(-28 -28)" style="fill:#e3ffff"/><path d="M215.3,375.3a.9.9,0,1,0-.9-.9A.9.9,0,0,0,215.3,375.3Z" transform="translate(-28 -28)" style="fill:#e3ffff"/><path d="M223.9,360.7a.7.7,0,1,0,0-1.4.7.7,0,0,0,0,1.4Z" transform="translate(-28 -28)" style="fill:#e3ffff"/><path d="M211.1,341.1a1.2,1.2,0,0,0,1.2-1.2,1.2,1.2,0,0,0-1.2-1.1,1.1,1.1,0,0,0-1.2,1.1A1.2,1.2,0,0,0,211.1,341.1Z" transform="translate(-28 -28)" style="fill:#e3ffff"/><path d="M191.8,356.7a.8.8,0,0,0,.7-.8.7.7,0,1,0-1.4,0A.8.8,0,0,0,191.8,356.7Z" transform="translate(-28 -28)" style="fill:#e3ffff"/><path d="M203.6,376.4a1.6,1.6,0,0,0,1.5-1.6,1.5,1.5,0,0,0-1.5-1.5,1.6,1.6,0,0,0-1.6,1.5A1.6,1.6,0,0,0,203.6,376.4Z" transform="translate(-28 -28)" style="fill:#e3ffff"/><path d="M191.1,370.3a1.5,1.5,0,0,0,1.5-1.5,1.5,1.5,0,1,0-3,0A1.5,1.5,0,0,0,191.1,370.3Z" transform="translate(-28 -28)" style="fill:#e3ffff"/><path d="M174,377.5a2.9,2.9,0,0,0,2.8-2.8,2.8,2.8,0,0,0-2.8-2.8,2.7,2.7,0,0,0-2.8,2.8A2.8,2.8,0,0,0,174,377.5Z" transform="translate(-28 -28)" style="fill:#e3ffff"/><path d="M188.7,413.7a5.4,5.4,0,0,0,0-10.8,5.4,5.4,0,1,0,0,10.8Z" transform="translate(-28 -28)" style="fill:#e3ffff"/><path d="M158.7,407.9a8,8,0,1,0-8-8A8,8,0,0,0,158.7,407.9Z" transform="translate(-28 -28)" style="fill:#e3ffff"/><path d="M178.7,357.7a.5.5,0,0,0,.5-.4.5.5,0,0,0-.5-.5.5.5,0,0,0-.4.5A.4.4,0,0,0,178.7,357.7Z" transform="translate(-28 -28)" style="fill:#e3ffff"/><path d="M213.6,324.6a.7.7,0,1,0,0-1.4.7.7,0,0,0,0,1.4Z" transform="translate(-28 -28)" style="fill:#e3ffff"/><path d="M238.5,326.9a.9.9,0,1,0-.9-.9A.9.9,0,0,0,238.5,326.9Z" transform="translate(-28 -28)" style="fill:#e3ffff"/><path d="M239.9,339.1a.8.8,0,0,0,.8-.8.9.9,0,0,0-.8-.8.8.8,0,0,0-.8.8A.7.7,0,0,0,239.9,339.1Z" transform="translate(-28 -28)" style="fill:#e3ffff"/><path d="M232.9,353.5a.8.8,0,0,0,.8-.8.7.7,0,0,0-.8-.8.8.8,0,0,0-.8.8A.9.9,0,0,0,232.9,353.5Z" transform="translate(-28 -28)" style="fill:#e3ffff"/><path d="M211.4,383.8a.5.5,0,0,0,.4-.5.4.4,0,0,0-.4-.4.5.5,0,0,0-.5.4A.5.5,0,0,0,211.4,383.8Z" transform="translate(-28 -28)" style="fill:#e3ffff"/><path d="M207,393.5a1.3,1.3,0,0,0,0-2.6,1.3,1.3,0,0,0,0,2.6Z" transform="translate(-28 -28)" style="fill:#e3ffff"/><path d="M222.8,327.3a1.2,1.2,0,0,0,1.1-1.2,1.1,1.1,0,0,0-1.1-1.2,1.2,1.2,0,0,0-1.2,1.2A1.2,1.2,0,0,0,222.8,327.3Z" transform="translate(-28 -28)" style="fill:#e3ffff"/><path d="M229.6,315.9a1.2,1.2,0,0,0,1.1-1.2,1.1,1.1,0,0,0-1.1-1.2,1.2,1.2,0,0,0-1.2,1.2A1.2,1.2,0,0,0,229.6,315.9Z" transform="translate(-28 -28)" style="fill:#e3ffff"/><path d="M306.3,356.2a1.3,1.3,0,0,0,1.3-1.3,1.3,1.3,0,0,0-1.3-1.4,1.4,1.4,0,0,0-1.4,1.4A1.3,1.3,0,0,0,306.3,356.2Z" transform="translate(-28 -28)" style="fill:#e3ffff"/><path d="M307.8,374.6a1.6,1.6,0,0,0,1.6-1.6,1.6,1.6,0,0,0-1.6-1.5,1.5,1.5,0,0,0-1.5,1.5A1.6,1.6,0,0,0,307.8,374.6Z" transform="translate(-28 -28)" style="fill:#e3ffff"/><path d="M290.5,381.2a.8.8,0,0,0,.7-.8.7.7,0,0,0-.7-.7.8.8,0,0,0-.8.7A.9.9,0,0,0,290.5,381.2Z" transform="translate(-28 -28)" style="fill:#e3ffff"/><path d="M306.8,385.8a.9.9,0,1,0-.9-.9A.9.9,0,0,0,306.8,385.8Z" transform="translate(-28 -28)" style="fill:#e3ffff"/><path d="M324.7,385.2a.9.9,0,1,0-.9-.9A.9.9,0,0,0,324.7,385.2Z" transform="translate(-28 -28)" style="fill:#e3ffff"/><path d="M318.9,369.2a.7.7,0,0,0,0-1.4.7.7,0,1,0,0,1.4Z" transform="translate(-28 -28)" style="fill:#e3ffff"/><path d="M295.1,367.2a1.1,1.1,0,0,0,1.1-1.1,1.1,1.1,0,0,0-1.1-1.2,1.2,1.2,0,0,0-1.2,1.2A1.1,1.1,0,0,0,295.1,367.2Z" transform="translate(-28 -28)" style="fill:#e3ffff"/><path d="M295.6,391.8a.7.7,0,1,0-.7-.7A.7.7,0,0,0,295.6,391.8Z" transform="translate(-28 -28)" style="fill:#e3ffff"/><path d="M317.8,395.2a1.5,1.5,0,0,0,1.5-1.5,1.6,1.6,0,0,0-1.5-1.6,1.6,1.6,0,0,0-1.6,1.6A1.6,1.6,0,0,0,317.8,395.2Z" transform="translate(-28 -28)" style="fill:#e3ffff"/><path d="M305.2,401.2a1.5,1.5,0,0,0,1.5-1.6,1.5,1.5,0,0,0-1.5-1.5,1.5,1.5,0,0,0-1.5,1.5A1.6,1.6,0,0,0,305.2,401.2Z" transform="translate(-28 -28)" style="fill:#e3ffff"/><path d="M299.1,419.5a2.7,2.7,0,0,0,2.8-2.8,2.8,2.8,0,0,0-2.8-2.8,2.9,2.9,0,0,0-2.8,2.8A2.8,2.8,0,0,0,299.1,419.5Z" transform="translate(-28 -28)" style="fill:#e3ffff"/><path d="M334.6,431.6a5.4,5.4,0,1,0-5.4-5.4A5.4,5.4,0,0,0,334.6,431.6Z" transform="translate(-28 -28)" style="fill:#e3ffff"/><path d="M309.4,452.3a8,8,0,0,0,0-16,8,8,0,0,0,0,16Z" transform="translate(-28 -28)" style="fill:#e3ffff"/><path d="M288.6,402.6a.4.4,0,0,0,.4-.4.5.5,0,0,0-.4-.5.5.5,0,0,0-.5.5A.5.5,0,0,0,288.6,402.6Z" transform="translate(-28 -28)" style="fill:#e3ffff"/><path d="M284.1,354.9a.8.8,0,0,0,.7-.8.7.7,0,0,0-1.4,0A.8.8,0,0,0,284.1,354.9Z" transform="translate(-28 -28)" style="fill:#e3ffff"/><path d="M301.3,336.9a.9.9,0,0,0,.9-.9.9.9,0,1,0-1.8,0A.9.9,0,0,0,301.3,336.9Z" transform="translate(-28 -28)" style="fill:#e3ffff"/><path d="M311.8,343.4a.8.8,0,0,0,.8-.8.8.8,0,0,0-.8-.9.9.9,0,0,0-.8.9A.9.9,0,0,0,311.8,343.4Z" transform="translate(-28 -28)" style="fill:#e3ffff"/><path d="M318.7,357.7a.8.8,0,0,0,.8-.8.9.9,0,0,0-.8-.8.8.8,0,0,0-.8.8A.7.7,0,0,0,318.7,357.7Z" transform="translate(-28 -28)" style="fill:#e3ffff"/><path d="M329.3,393.4a.5.5,0,0,0,.4-.5.4.4,0,0,0-.4-.4.5.5,0,0,0-.5.4A.5.5,0,0,0,329.3,393.4Z" transform="translate(-28 -28)" style="fill:#e3ffff"/><path d="M333.5,403.2a1.3,1.3,0,1,0,0-2.6,1.3,1.3,0,0,0,0,2.6Z" transform="translate(-28 -28)" style="fill:#e3ffff"/><path d="M291.5,349.5a1.2,1.2,0,0,0,1.2-1.2,1.1,1.1,0,0,0-1.2-1.1,1.1,1.1,0,0,0-1.1,1.1A1.1,1.1,0,0,0,291.5,349.5Z" transform="translate(-28 -28)" style="fill:#e3ffff"/><path d="M286.9,337a1.1,1.1,0,0,0,1.2-1.1,1.2,1.2,0,0,0-1.2-1.2,1.1,1.1,0,0,0-1.1,1.2A1.1,1.1,0,0,0,286.9,337Z" transform="translate(-28 -28)" style="fill:#e3ffff"/><path d="M366.1,302.3a1.3,1.3,0,0,0,1.4-1.3,1.4,1.4,0,0,0-1.4-1.4,1.4,1.4,0,0,0-1.4,1.4A1.4,1.4,0,0,0,366.1,302.3Z" transform="translate(-28 -28)" style="fill:#e3ffff"/><path d="M381.3,312.6a1.5,1.5,0,0,0,1.5-1.5,1.5,1.5,0,0,0-1.5-1.6,1.6,1.6,0,0,0-1.5,1.6A1.5,1.5,0,0,0,381.3,312.6Z" transform="translate(-28 -28)" style="fill:#e3ffff"/><path d="M376.3,330.1a.9.9,0,0,0,.8-.8.8.8,0,0,0-.8-.7.7.7,0,0,0-.7.7A.8.8,0,0,0,376.3,330.1Z" transform="translate(-28 -28)" style="fill:#e3ffff"/><path d="M389.9,320.1a.9.9,0,1,0-.9-.9A.9.9,0,0,0,389.9,320.1Z" transform="translate(-28 -28)" style="fill:#e3ffff"/><path d="M400.6,305.9a.9.9,0,1,0-.9-.9A.9.9,0,0,0,400.6,305.9Z" transform="translate(-28 -28)" style="fill:#e3ffff"/><path d="M384.7,300.4a.7.7,0,0,0,0-1.4.7.7,0,1,0,0,1.4Z" transform="translate(-28 -28)" style="fill:#e3ffff"/><path d="M367.9,317.9a1.2,1.2,0,0,0,1.2-1.2,1.2,1.2,0,0,0-1.2-1.2,1.2,1.2,0,0,0-1.2,1.2A1.3,1.3,0,0,0,367.9,317.9Z" transform="translate(-28 -28)" style="fill:#e3ffff"/><path d="M387.8,332.6a.7.7,0,1,0-.7-.7A.7.7,0,0,0,387.8,332.6Z" transform="translate(-28 -28)" style="fill:#e3ffff"/><path d="M403.7,317.8a1.6,1.6,0,0,0,1.5-1.6,1.5,1.5,0,0,0-1.5-1.5,1.6,1.6,0,0,0-1.6,1.5A1.6,1.6,0,0,0,403.7,317.8Z" transform="translate(-28 -28)" style="fill:#e3ffff"/><path d="M400.6,331.2a1.5,1.5,0,0,0,1.5-1.5,1.5,1.5,0,0,0-1.5-1.5,1.6,1.6,0,0,0-1.6,1.5A1.5,1.5,0,0,0,400.6,331.2Z" transform="translate(-28 -28)" style="fill:#e3ffff"/><path d="M410.1,347.9a2.9,2.9,0,0,0,2.8-2.8,2.8,2.8,0,0,0-2.8-2.8,2.7,2.7,0,0,0-2.8,2.8A2.8,2.8,0,0,0,410.1,347.9Z" transform="translate(-28 -28)" style="fill:#e3ffff"/><path d="M439.7,328.7a5.4,5.4,0,0,0,0-10.8,5.4,5.4,0,1,0,0,10.8Z" transform="translate(-28 -28)" style="fill:#e3ffff"/><path d="M438,362.4a8,8,0,0,0,0-16,8,8,0,0,0,0,16Z" transform="translate(-28 -28)" style="fill:#e3ffff"/><path d="M392.1,344.8a.4.4,0,0,0,.4-.4.5.5,0,0,0-.4-.5.5.5,0,0,0-.5.5A.5.5,0,0,0,392.1,344.8Z" transform="translate(-28 -28)" style="fill:#e3ffff"/><path d="M351.7,318.6a.7.7,0,0,0,.7-.7.7.7,0,1,0-1.4,0A.7.7,0,0,0,351.7,318.6Z" transform="translate(-28 -28)" style="fill:#e3ffff"/><path d="M348.3,294a.9.9,0,1,0-.9-.9A.9.9,0,0,0,348.3,294Z" transform="translate(-28 -28)" style="fill:#e3ffff"/><path d="M360,289.8a.8.8,0,0,0,.8-.8.9.9,0,0,0-.8-.8.9.9,0,0,0-.9.8A.8.8,0,0,0,360,289.8Z" transform="translate(-28 -28)" style="fill:#e3ffff"/><path d="M375.5,293.4a.8.8,0,0,0,.8-.9.8.8,0,0,0-.8-.8.9.9,0,0,0-.8.8A.9.9,0,0,0,375.5,293.4Z" transform="translate(-28 -28)" style="fill:#e3ffff"/><path d="M410.3,307.2a.5.5,0,0,0,.4-.5.4.4,0,0,0-.4-.4.5.5,0,0,0-.5.4A.5.5,0,0,0,410.3,307.2Z" transform="translate(-28 -28)" style="fill:#e3ffff"/><path d="M419.9,310.3a1.3,1.3,0,0,0,0-2.6,1.3,1.3,0,1,0,0,2.6Z" transform="translate(-28 -28)" style="fill:#e3ffff"/><path d="M351.9,309.6a1.2,1.2,0,0,0,1.2-1.1,1.2,1.2,0,0,0-1.2-1.2,1.2,1.2,0,0,0-1.2,1.2A1.1,1.1,0,0,0,351.9,309.6Z" transform="translate(-28 -28)" style="fill:#e3ffff"/><path d="M339.2,305.5a1.2,1.2,0,0,0,1.2-1.2,1.2,1.2,0,0,0-1.2-1.2,1.1,1.1,0,0,0-1.1,1.2A1.2,1.2,0,0,0,339.2,305.5Z" transform="translate(-28 -28)" style="fill:#e3ffff"/><path d="M361.3,222a1.4,1.4,0,0,0,1.4-1.4,1.3,1.3,0,0,0-1.4-1.3,1.3,1.3,0,0,0-1.3,1.3A1.3,1.3,0,0,0,361.3,222Z" transform="translate(-28 -28)" style="fill:#e3ffff"/><path d="M378.7,216.7a1.6,1.6,0,0,0,1.5-1.6,1.5,1.5,0,0,0-1.5-1.5,1.6,1.6,0,0,0-1.6,1.5A1.6,1.6,0,0,0,378.7,216.7Z" transform="translate(-28 -28)" style="fill:#e3ffff"/><path d="M389.8,231a.7.7,0,1,0-.7-.7A.7.7,0,0,0,389.8,231Z" transform="translate(-28 -28)" style="fill:#e3ffff"/><path d="M390.4,214.3a.9.9,0,1,0,0-1.8.9.9,0,1,0,0,1.8Z" transform="translate(-28 -28)" style="fill:#e3ffff"/><path d="M386,197.1a.9.9,0,1,0-.9-.9A.9.9,0,0,0,386,197.1Z" transform="translate(-28 -28)" style="fill:#e3ffff"/><path d="M371.8,206.1a.7.7,0,0,0,.7-.7.7.7,0,1,0-1.4,0A.7.7,0,0,0,371.8,206.1Z" transform="translate(-28 -28)" style="fill:#e3ffff"/><path d="M374.8,230.2a1.2,1.2,0,0,0,1.2-1.1,1.2,1.2,0,0,0-1.2-1.2,1.2,1.2,0,0,0-1.2,1.2A1.1,1.1,0,0,0,374.8,230.2Z" transform="translate(-28 -28)" style="fill:#e3ffff"/><path d="M399,223.7a.7.7,0,1,0,0-1.4.7.7,0,0,0,0,1.4Z" transform="translate(-28 -28)" style="fill:#e3ffff"/><path d="M396.6,202.4a1.6,1.6,0,0,0,1.5-1.6,1.5,1.5,0,0,0-3,0A1.6,1.6,0,0,0,396.6,202.4Z" transform="translate(-28 -28)" style="fill:#e3ffff"/><path d="M405.3,213.2a1.5,1.5,0,0,0,1.5-1.5,1.6,1.6,0,0,0-1.5-1.6,1.6,1.6,0,0,0-1.6,1.6A1.6,1.6,0,0,0,405.3,213.2Z" transform="translate(-28 -28)" style="fill:#e3ffff"/><path d="M423.3,216.6a2.9,2.9,0,0,0,2.8-2.8,2.8,2.8,0,0,0-2.8-2.8,2.7,2.7,0,0,0-2.8,2.8A2.8,2.8,0,0,0,423.3,216.6Z" transform="translate(-28 -28)" style="fill:#e3ffff"/><path d="M424.7,182.6a5.5,5.5,0,0,0,5.4-5.5,5.5,5.5,0,0,0-10.9,0A5.5,5.5,0,0,0,424.7,182.6Z" transform="translate(-28 -28)" style="fill:#e3ffff"/><path d="M447.9,205.6a7.9,7.9,0,0,0,8-7.9,8,8,0,1,0-16,0A7.9,7.9,0,0,0,447.9,205.6Z" transform="translate(-28 -28)" style="fill:#e3ffff"/><path d="M411.4,227.8a.5.5,0,0,0,.5-.5.5.5,0,0,0-.5-.4.4.4,0,0,0-.4.4A.5.5,0,0,0,411.4,227.8Z" transform="translate(-28 -28)" style="fill:#e3ffff"/><path d="M365.6,243.1a.8.8,0,0,0,.7-.8.7.7,0,0,0-.7-.7.8.8,0,0,0-.8.7A.9.9,0,0,0,365.6,243.1Z" transform="translate(-28 -28)" style="fill:#e3ffff"/><path d="M344,230.5a.9.9,0,1,0-.9-.9A.9.9,0,0,0,344,230.5Z" transform="translate(-28 -28)" style="fill:#e3ffff"/><path d="M348.1,218.8a.8.8,0,0,0,.8-.8.9.9,0,0,0-.8-.8.8.8,0,0,0-.8.8A.7.7,0,0,0,348.1,218.8Z" transform="translate(-28 -28)" style="fill:#e3ffff"/><path d="M360.6,208.8a.9.9,0,0,0,.8-.8.8.8,0,0,0-.8-.8.7.7,0,0,0-.8.8A.8.8,0,0,0,360.6,208.8Z" transform="translate(-28 -28)" style="fill:#e3ffff"/><path d="M393.3,190.2a.5.5,0,0,0,.5-.5.5.5,0,0,0-.5-.4.4.4,0,0,0-.4.4A.5.5,0,0,0,393.3,190.2Z" transform="translate(-28 -28)" style="fill:#e3ffff"/><path d="M401.1,184.9a1.3,1.3,0,0,0,1.3-1.3,1.2,1.2,0,0,0-1.3-1.2,1.2,1.2,0,0,0-1.2,1.2A1.2,1.2,0,0,0,401.1,184.9Z" transform="translate(-28 -28)" style="fill:#e3ffff"/><path d="M358.2,237.6a1.2,1.2,0,0,0,1.2-1.2,1.2,1.2,0,0,0-1.2-1.2,1.1,1.1,0,0,0-1.1,1.2A1.2,1.2,0,0,0,358.2,237.6Z" transform="translate(-28 -28)" style="fill:#e3ffff"/><path d="M347.1,244.9a1.2,1.2,0,0,0,1.2-1.2,1.2,1.2,0,0,0-1.2-1.2,1.3,1.3,0,0,0-1.2,1.2A1.2,1.2,0,0,0,347.1,244.9Z" transform="translate(-28 -28)" style="fill:#e3ffff"/><path d="M295.5,175.7a1.4,1.4,0,0,0,1.4-1.4,1.3,1.3,0,0,0-1.4-1.3,1.3,1.3,0,0,0-1.3,1.3A1.3,1.3,0,0,0,295.5,175.7Z" transform="translate(-28 -28)" style="fill:#e3ffff"/><path d="M301.9,158.8a1.6,1.6,0,0,0,1.6-1.6,1.6,1.6,0,0,0-1.6-1.5,1.5,1.5,0,0,0-1.5,1.5A1.6,1.6,0,0,0,301.9,158.8Z" transform="translate(-28 -28)" style="fill:#e3ffff"/><path d="M320.9,158.8a.7.7,0,0,0,.7-.7.8.8,0,0,0-.7-.8.9.9,0,0,0-.8.8A.8.8,0,0,0,320.9,158.8Z" transform="translate(-28 -28)" style="fill:#e3ffff"/><path d="M308,147.9a.9.9,0,1,0-.9-.9A.9.9,0,0,0,308,147.9Z" transform="translate(-28 -28)" style="fill:#e3ffff"/><path d="M291.7,140.7a.9.9,0,1,0-.9-.9A.9.9,0,0,0,291.7,140.7Z" transform="translate(-28 -28)" style="fill:#e3ffff"/><path d="M290.1,157.2a.7.7,0,1,0-.7-.7A.7.7,0,0,0,290.1,157.2Z" transform="translate(-28 -28)" style="fill:#e3ffff"/><path d="M310.5,170.2a1.2,1.2,0,0,0,1.1-1.2,1.1,1.1,0,0,0-1.1-1.2,1.2,1.2,0,0,0-1.2,1.2A1.2,1.2,0,0,0,310.5,170.2Z" transform="translate(-28 -28)" style="fill:#e3ffff"/><path d="M320.9,147a.7.7,0,0,0,0-1.4.7.7,0,1,0,0,1.4Z" transform="translate(-28 -28)" style="fill:#e3ffff"/><path d="M301.9,135.9a1.6,1.6,0,0,0,1.6-1.5,1.6,1.6,0,0,0-1.6-1.6,1.6,1.6,0,0,0-1.5,1.6A1.5,1.5,0,0,0,301.9,135.9Z" transform="translate(-28 -28)" style="fill:#e3ffff"/><path d="M315.9,135.9a1.5,1.5,0,0,0,1.5-1.5,1.6,1.6,0,0,0-1.5-1.6,1.6,1.6,0,0,0-1.6,1.6A1.6,1.6,0,0,0,315.9,135.9Z" transform="translate(-28 -28)" style="fill:#e3ffff"/><path d="M328.7,124.4a2.7,2.7,0,0,0,2.8-2.8,2.8,2.8,0,0,0-2.8-2.8,2.9,2.9,0,0,0-2.8,2.8A2.8,2.8,0,0,0,328.7,124.4Z" transform="translate(-28 -28)" style="fill:#e3ffff"/><path d="M300.9,103.2a5.5,5.5,0,0,0,5.4-5.5,5.4,5.4,0,0,0-5.4-5.4,5.5,5.5,0,0,0-5.5,5.4A5.5,5.5,0,0,0,300.9,103.2Z" transform="translate(-28 -28)" style="fill:#e3ffff"/><path d="M331.5,100.3a8,8,0,0,0,0-16,8,8,0,0,0,0,16Z" transform="translate(-28 -28)" style="fill:#e3ffff"/><path d="M332,139.8a.5.5,0,0,0,.4-.5.4.4,0,0,0-.4-.4.5.5,0,0,0-.5.4A.5.5,0,0,0,332,139.8Z" transform="translate(-28 -28)" style="fill:#e3ffff"/><path d="M315.1,185.3a.7.7,0,0,0,.7-.7.8.8,0,0,0-.7-.8.9.9,0,0,0-.8.8A.8.8,0,0,0,315.1,185.3Z" transform="translate(-28 -28)" style="fill:#e3ffff"/><path d="M291.7,194.3a.9.9,0,1,0-.9-.9A.9.9,0,0,0,291.7,194.3Z" transform="translate(-28 -28)" style="fill:#e3ffff"/><path d="M285.1,183.7a.7.7,0,0,0,.8-.8.8.8,0,0,0-.8-.8.9.9,0,0,0-.8.8A.8.8,0,0,0,285.1,183.7Z" transform="translate(-28 -28)" style="fill:#e3ffff"/><path d="M285.1,167.8a.7.7,0,0,0,.8-.8.8.8,0,0,0-.8-.8.9.9,0,0,0-.8.8A.8.8,0,0,0,285.1,167.8Z" transform="translate(-28 -28)" style="fill:#e3ffff"/><path d="M291.3,130.5a.5.5,0,0,0,.4-.5.4.4,0,0,0-.4-.4.5.5,0,0,0-.5.4A.5.5,0,0,0,291.3,130.5Z" transform="translate(-28 -28)" style="fill:#e3ffff"/><path d="M291.4,121.3a1.2,1.2,0,0,0,1.2-1.2,1.2,1.2,0,0,0-1.2-1.3,1.3,1.3,0,0,0-1.3,1.3A1.2,1.2,0,0,0,291.4,121.3Z" transform="translate(-28 -28)" style="fill:#e3ffff"/><path d="M305.9,187.7a1.2,1.2,0,0,0,1.2-1.2,1.1,1.1,0,0,0-1.2-1.1,1.1,1.1,0,0,0-1.1,1.1A1.1,1.1,0,0,0,305.9,187.7Z" transform="translate(-28 -28)" style="fill:#e3ffff"/><path d="M304.7,200.9a1.1,1.1,0,0,0,1.1-1.2,1.1,1.1,0,0,0-1.1-1.1,1.1,1.1,0,0,0-1.2,1.1A1.2,1.2,0,0,0,304.7,200.9Z" transform="translate(-28 -28)" style="fill:#e3ffff"/><path d="M342.3,198.2a1.3,1.3,0,0,0,1.4-1.3,1.4,1.4,0,0,0-1.4-1.4,1.3,1.3,0,0,0-1.3,1.4A1.3,1.3,0,0,0,342.3,198.2Z" transform="translate(-28 -28)" style="fill:#e3ffff"/><path d="M351.6,182.7a1.6,1.6,0,0,0,1.6-1.6,1.6,1.6,0,0,0-1.6-1.5,1.5,1.5,0,0,0-1.5,1.5A1.6,1.6,0,0,0,351.6,182.7Z" transform="translate(-28 -28)" style="fill:#e3ffff"/><path d="M339.2,167.6a.7.7,0,1,0,0-1.4.7.7,0,1,0,0,1.4Z" transform="translate(-28 -28)" style="fill:#e3ffff"/><path d="M355.9,171a.9.9,0,1,0-.9-.9A.9.9,0,0,0,355.9,171Z" transform="translate(-28 -28)" style="fill:#e3ffff"/><path d="M371.7,179.1a.9.9,0,1,0-.9-.9A.9.9,0,0,0,371.7,179.1Z" transform="translate(-28 -28)" style="fill:#e3ffff"/><path d="M359.6,190.7a.7.7,0,1,0-.7-.7A.7.7,0,0,0,359.6,190.7Z" transform="translate(-28 -28)" style="fill:#e3ffff"/><path d="M337.1,183.1a1.2,1.2,0,0,0,1.2-1.2,1.1,1.1,0,0,0-1.2-1.1,1.1,1.1,0,0,0-1.1,1.1A1.1,1.1,0,0,0,337.1,183.1Z" transform="translate(-28 -28)" style="fill:#e3ffff"/><path d="M348.5,160.3a.7.7,0,0,0,0-1.4.7.7,0,1,0,0,1.4Z" transform="translate(-28 -28)" style="fill:#e3ffff"/><path d="M369.5,168.4a1.6,1.6,0,0,0,1.6-1.6,1.6,1.6,0,0,0-1.6-1.5,1.5,1.5,0,0,0-1.5,1.5A1.6,1.6,0,0,0,369.5,168.4Z" transform="translate(-28 -28)" style="fill:#e3ffff"/><path d="M360.9,157.6a1.5,1.5,0,0,0,1.5-1.5,1.6,1.6,0,0,0-1.5-1.6,1.6,1.6,0,0,0-1.6,1.6A1.6,1.6,0,0,0,360.9,157.6Z" transform="translate(-28 -28)" style="fill:#e3ffff"/><path d="M362.8,140.8a2.9,2.9,0,0,0,2.8-2.8,2.8,2.8,0,0,0-2.8-2.8A2.7,2.7,0,0,0,360,138,2.8,2.8,0,0,0,362.8,140.8Z" transform="translate(-28 -28)" style="fill:#e3ffff"/><path d="M398.9,150.3a5.5,5.5,0,0,0,0-10.9,5.5,5.5,0,1,0,0,10.9Z" transform="translate(-28 -28)" style="fill:#e3ffff"/><path d="M384,125.5a8,8,0,0,0,8-8,7.9,7.9,0,0,0-8-7.9,7.9,7.9,0,0,0-7.9,7.9A7.9,7.9,0,0,0,384,125.5Z" transform="translate(-28 -28)" style="fill:#e3ffff"/><path d="M346.9,146.9a.5.5,0,0,0,.5-.4.5.5,0,0,0-.5-.5.5.5,0,0,0-.4.5A.4.4,0,0,0,346.9,146.9Z" transform="translate(-28 -28)" style="fill:#e3ffff"/><path d="M322.1,188.6a.7.7,0,1,0,0-1.4.7.7,0,0,0,0,1.4Z" transform="translate(-28 -28)" style="fill:#e3ffff"/><path d="M329.7,212.6a.9.9,0,1,0-.9-.9A.9.9,0,0,0,329.7,212.6Z" transform="translate(-28 -28)" style="fill:#e3ffff"/><path d="M341.9,211.1a.8.8,0,0,0,.9-.8.9.9,0,0,0-.9-.8.9.9,0,0,0-.8.8A.8.8,0,0,0,341.9,211.1Z" transform="translate(-28 -28)" style="fill:#e3ffff"/><path d="M354.5,201.2a.8.8,0,0,0,.8-.8.7.7,0,0,0-.8-.8.8.8,0,0,0-.8.8A.9.9,0,0,0,354.5,201.2Z" transform="translate(-28 -28)" style="fill:#e3ffff"/><path d="M379.6,173a.5.5,0,0,0,.4-.5.4.4,0,0,0-.4-.4.5.5,0,0,0-.5.4A.5.5,0,0,0,379.6,173Z" transform="translate(-28 -28)" style="fill:#e3ffff"/><path d="M387.3,167.6a1.3,1.3,0,0,0,0-2.6,1.3,1.3,0,0,0,0,2.6Z" transform="translate(-28 -28)" style="fill:#e3ffff"/><path d="M326.3,197.5a1.2,1.2,0,0,0,1.2-1.2,1.3,1.3,0,0,0-1.2-1.2,1.2,1.2,0,0,0-1.2,1.2A1.2,1.2,0,0,0,326.3,197.5Z" transform="translate(-28 -28)" style="fill:#e3ffff"/><path d="M316.7,206.7a1.2,1.2,0,0,0,1.2-1.2,1.2,1.2,0,0,0-1.2-1.1,1.1,1.1,0,0,0-1.2,1.1A1.2,1.2,0,0,0,316.7,206.7Z" transform="translate(-28 -28)" style="fill:#e3ffff"/><path d="M372.9,272.6a1.3,1.3,0,0,0,1.3-1.3,1.3,1.3,0,0,0-1.3-1.4,1.4,1.4,0,0,0-1.4,1.4A1.3,1.3,0,0,0,372.9,272.6Z" transform="translate(-28 -28)" style="fill:#e3ffff"/><path d="M391,270.3a1.5,1.5,0,0,0,1.5-1.5,1.6,1.6,0,0,0-1.5-1.6,1.5,1.5,0,0,0-1.5,1.6A1.5,1.5,0,0,0,391,270.3Z" transform="translate(-28 -28)" style="fill:#e3ffff"/><path d="M394.4,250.9a.7.7,0,1,0,0-1.4.7.7,0,1,0,0,1.4Z" transform="translate(-28 -28)" style="fill:#e3ffff"/><path d="M402.3,266.1a.9.9,0,1,0-.9-.9A.9.9,0,0,0,402.3,266.1Z" transform="translate(-28 -28)" style="fill:#e3ffff"/><path d="M405.7,283.6a.9.9,0,1,0-.9-.9A.9.9,0,0,0,405.7,283.6Z" transform="translate(-28 -28)" style="fill:#e3ffff"/><path d="M389,281.3a.7.7,0,1,0-.7-.7A.7.7,0,0,0,389,281.3Z" transform="translate(-28 -28)" style="fill:#e3ffff"/><path d="M381.4,259.1a1.2,1.2,0,0,0,1.2-1.2,1.3,1.3,0,0,0-1.2-1.2,1.2,1.2,0,0,0-1.2,1.2A1.2,1.2,0,0,0,381.4,259.1Z" transform="translate(-28 -28)" style="fill:#e3ffff"/><path d="M405.9,253.6a.8.8,0,0,0,.7-.8.7.7,0,0,0-1.4,0A.8.8,0,0,0,405.9,253.6Z" transform="translate(-28 -28)" style="fill:#e3ffff"/><path d="M413.3,275.4a1.5,1.5,0,0,0,1.6-1.5,1.6,1.6,0,0,0-1.6-1.5,1.5,1.5,0,0,0-1.5,1.5A1.5,1.5,0,0,0,413.3,275.4Z" transform="translate(-28 -28)" style="fill:#e3ffff"/><path d="M416.4,261.9a1.6,1.6,0,0,0,1.6-1.6,1.6,1.6,0,0,0-1.6-1.5,1.5,1.5,0,0,0-1.5,1.5A1.6,1.6,0,0,0,416.4,261.9Z" transform="translate(-28 -28)" style="fill:#e3ffff"/><path d="M431.7,253.5a2.8,2.8,0,0,0,2.8-2.8,2.7,2.7,0,0,0-2.8-2.8,2.8,2.8,0,0,0-2.8,2.8A2.9,2.9,0,0,0,431.7,253.5Z" transform="translate(-28 -28)" style="fill:#e3ffff"/><path d="M448.8,288.6a5.5,5.5,0,0,0,5.4-5.5,5.4,5.4,0,1,0-10.8,0A5.5,5.5,0,0,0,448.8,288.6Z" transform="translate(-28 -28)" style="fill:#e3ffff"/><path d="M460.9,262.4a7.9,7.9,0,0,0,8-7.9,8,8,0,0,0-8-8,7.9,7.9,0,0,0-7.9,8A7.9,7.9,0,0,0,460.9,262.4Z" transform="translate(-28 -28)" style="fill:#e3ffff"/><path d="M415.2,244a.5.5,0,0,0,.4-.5.4.4,0,0,0-.4-.4.5.5,0,0,0-.5.4A.5.5,0,0,0,415.2,244Z" transform="translate(-28 -28)" style="fill:#e3ffff"/><path d="M367.3,250.7a.8.8,0,0,0,.7-.8.7.7,0,1,0-1.4,0A.8.8,0,0,0,367.3,250.7Z" transform="translate(-28 -28)" style="fill:#e3ffff"/><path d="M353.3,271.6a.9.9,0,1,0,0-1.8.9.9,0,0,0,0,1.8Z" transform="translate(-28 -28)" style="fill:#e3ffff"/><path d="M362.1,280.2a.7.7,0,0,0,.8-.8.8.8,0,0,0-.8-.8.9.9,0,0,0-.8.8A.8.8,0,0,0,362.1,280.2Z" transform="translate(-28 -28)" style="fill:#e3ffff"/><path d="M377.7,283.9a.9.9,0,0,0,.8-.9.9.9,0,0,0-.8-.8.8.8,0,0,0-.8.8A.8.8,0,0,0,377.7,283.9Z" transform="translate(-28 -28)" style="fill:#e3ffff"/><path d="M415.2,285.8a.5.5,0,0,0,.4-.5.4.4,0,0,0-.4-.4.5.5,0,0,0-.5.4A.5.5,0,0,0,415.2,285.8Z" transform="translate(-28 -28)" style="fill:#e3ffff"/><path d="M424.8,288.7a1.3,1.3,0,1,0,0-2.6,1.3,1.3,0,0,0,0,2.6Z" transform="translate(-28 -28)" style="fill:#e3ffff"/><path d="M363.3,259.6a1.2,1.2,0,0,0,1.2-1.2,1.1,1.1,0,0,0-1.2-1.1,1.2,1.2,0,0,0-1.2,1.1A1.2,1.2,0,0,0,363.3,259.6Z" transform="translate(-28 -28)" style="fill:#e3ffff"/><path d="M350.1,257.8a1.2,1.2,0,0,0,1.2-1.2,1.2,1.2,0,0,0-1.2-1.1,1.1,1.1,0,0,0-1.2,1.1A1.2,1.2,0,0,0,350.1,257.8Z" transform="translate(-28 -28)" style="fill:#e3ffff"/><path d="M333.7,343a1.4,1.4,0,0,0,1.4-1.4,1.3,1.3,0,0,0-1.4-1.3,1.3,1.3,0,0,0-1.3,1.3A1.3,1.3,0,0,0,333.7,343Z" transform="translate(-28 -28)" style="fill:#e3ffff"/><path d="M346.9,355.7a1.6,1.6,0,0,0,1.6-1.6,1.6,1.6,0,0,0-1.6-1.5,1.5,1.5,0,0,0-1.5,1.5A1.6,1.6,0,0,0,346.9,355.7Z" transform="translate(-28 -28)" style="fill:#e3ffff"/><path d="M363.6,346a.7.7,0,0,0,.7-.7.8.8,0,0,0-.7-.8.9.9,0,0,0-.8.8A.8.8,0,0,0,363.6,346Z" transform="translate(-28 -28)" style="fill:#e3ffff"/><path d="M356.8,361.6a.9.9,0,1,0-.9-.9A.9.9,0,0,0,356.8,361.6Z" transform="translate(-28 -28)" style="fill:#e3ffff"/><path d="M345.3,375.3a.9.9,0,1,0-.9-.9A.9.9,0,0,0,345.3,375.3Z" transform="translate(-28 -28)" style="fill:#e3ffff"/><path d="M336.5,360.7a.7.7,0,1,0-.7-.7A.7.7,0,0,0,336.5,360.7Z" transform="translate(-28 -28)" style="fill:#e3ffff"/><path d="M349.5,341.1a1.1,1.1,0,0,0,1.1-1.2,1.1,1.1,0,0,0-1.1-1.1,1.1,1.1,0,0,0-1.2,1.1A1.2,1.2,0,0,0,349.5,341.1Z" transform="translate(-28 -28)" style="fill:#e3ffff"/><path d="M368.7,356.7a.9.9,0,0,0,.8-.8.8.8,0,0,0-.8-.7.7.7,0,0,0-.7.7A.8.8,0,0,0,368.7,356.7Z" transform="translate(-28 -28)" style="fill:#e3ffff"/><path d="M356.9,376.4a1.6,1.6,0,0,0,1.5-1.6,1.5,1.5,0,0,0-1.5-1.5,1.6,1.6,0,0,0-1.6,1.5A1.6,1.6,0,0,0,356.9,376.4Z" transform="translate(-28 -28)" style="fill:#e3ffff"/><path d="M369.4,370.3a1.5,1.5,0,0,0,1.5-1.5,1.6,1.6,0,0,0-1.5-1.6,1.6,1.6,0,0,0-1.6,1.6A1.6,1.6,0,0,0,369.4,370.3Z" transform="translate(-28 -28)" style="fill:#e3ffff"/><path d="M386.6,377.5a2.9,2.9,0,0,0,2.8-2.8,2.8,2.8,0,0,0-2.8-2.8,2.7,2.7,0,0,0-2.8,2.8A2.8,2.8,0,0,0,386.6,377.5Z" transform="translate(-28 -28)" style="fill:#e3ffff"/><path d="M371.8,413.7a5.4,5.4,0,1,0-5.4-5.4A5.4,5.4,0,0,0,371.8,413.7Z" transform="translate(-28 -28)" style="fill:#e3ffff"/><path d="M401.8,407.9a8,8,0,0,0,0-16,8,8,0,0,0,0,16Z" transform="translate(-28 -28)" style="fill:#e3ffff"/><path d="M381.8,357.7a.4.4,0,0,0,.4-.4.5.5,0,0,0-.4-.5.5.5,0,0,0-.5.5A.5.5,0,0,0,381.8,357.7Z" transform="translate(-28 -28)" style="fill:#e3ffff"/><path d="M346.9,324.6a.7.7,0,1,0-.7-.7A.7.7,0,0,0,346.9,324.6Z" transform="translate(-28 -28)" style="fill:#e3ffff"/><path d="M321.9,326.9a.9.9,0,1,0,0-1.8.9.9,0,0,0,0,1.8Z" transform="translate(-28 -28)" style="fill:#e3ffff"/><path d="M320.6,339.1a.8.8,0,0,0,.8-.8.9.9,0,0,0-.8-.8.8.8,0,0,0-.8.8A.7.7,0,0,0,320.6,339.1Z" transform="translate(-28 -28)" style="fill:#e3ffff"/><path d="M327.6,353.5a.9.9,0,0,0,.8-.8.8.8,0,0,0-.8-.8.8.8,0,0,0-.9.8A.9.9,0,0,0,327.6,353.5Z" transform="translate(-28 -28)" style="fill:#e3ffff"/><path d="M349.1,383.8a.5.5,0,0,0,.4-.5.4.4,0,0,0-.4-.4.5.5,0,0,0-.5.4A.5.5,0,0,0,349.1,383.8Z" transform="translate(-28 -28)" style="fill:#e3ffff"/><path d="M353.5,393.5a1.3,1.3,0,0,0,0-2.6,1.3,1.3,0,0,0,0,2.6Z" transform="translate(-28 -28)" style="fill:#e3ffff"/><path d="M337.8,327.3a1.3,1.3,0,0,0,1.2-1.2,1.2,1.2,0,0,0-1.2-1.2,1.2,1.2,0,0,0-1.2,1.2A1.2,1.2,0,0,0,337.8,327.3Z" transform="translate(-28 -28)" style="fill:#e3ffff"/><path d="M330.9,315.9a1.2,1.2,0,0,0,1.2-1.2,1.2,1.2,0,0,0-1.2-1.2,1.2,1.2,0,0,0-1.2,1.2A1.3,1.3,0,0,0,330.9,315.9Z" transform="translate(-28 -28)" style="fill:#e3ffff"/><path d="M254.3,356.2a1.3,1.3,0,0,0,1.3-1.3,1.3,1.3,0,0,0-1.3-1.4,1.4,1.4,0,0,0-1.4,1.4A1.3,1.3,0,0,0,254.3,356.2Z" transform="translate(-28 -28)" style="fill:#e3ffff"/><path d="M252.7,374.6a1.6,1.6,0,0,0,1.6-1.6,1.6,1.6,0,0,0-1.6-1.5,1.5,1.5,0,0,0-1.5,1.5A1.6,1.6,0,0,0,252.7,374.6Z" transform="translate(-28 -28)" style="fill:#e3ffff"/><path d="M270,381.2a.8.8,0,0,0,.7-.8.7.7,0,0,0-1.4,0A.8.8,0,0,0,270,381.2Z" transform="translate(-28 -28)" style="fill:#e3ffff"/><path d="M253.7,385.8a.9.9,0,1,0-.9-.9A.9.9,0,0,0,253.7,385.8Z" transform="translate(-28 -28)" style="fill:#e3ffff"/><path d="M235.9,385.2a.9.9,0,1,0-.9-.9A.9.9,0,0,0,235.9,385.2Z" transform="translate(-28 -28)" style="fill:#e3ffff"/><path d="M241.7,369.2a.7.7,0,1,0-.7-.7A.7.7,0,0,0,241.7,369.2Z" transform="translate(-28 -28)" style="fill:#e3ffff"/><path d="M265.4,367.2a1.2,1.2,0,0,0,1.2-1.1,1.2,1.2,0,0,0-1.2-1.2,1.2,1.2,0,0,0-1.2,1.2A1.1,1.1,0,0,0,265.4,367.2Z" transform="translate(-28 -28)" style="fill:#e3ffff"/><path d="M264.9,391.8a.7.7,0,1,0,0-1.4.7.7,0,0,0,0,1.4Z" transform="translate(-28 -28)" style="fill:#e3ffff"/><path d="M242.8,395.2a1.5,1.5,0,0,0,1.5-1.5,1.6,1.6,0,0,0-1.5-1.6,1.6,1.6,0,0,0-1.6,1.6A1.6,1.6,0,0,0,242.8,395.2Z" transform="translate(-28 -28)" style="fill:#e3ffff"/><path d="M255.3,401.2a1.6,1.6,0,0,0,1.5-1.6,1.5,1.5,0,0,0-1.5-1.5,1.6,1.6,0,0,0-1.6,1.5A1.6,1.6,0,0,0,255.3,401.2Z" transform="translate(-28 -28)" style="fill:#e3ffff"/><path d="M261.3,419.5a2.7,2.7,0,0,0,2.8-2.8,2.8,2.8,0,0,0-2.8-2.8,2.9,2.9,0,0,0-2.8,2.8A2.8,2.8,0,0,0,261.3,419.5Z" transform="translate(-28 -28)" style="fill:#e3ffff"/><path d="M225.8,431.6a5.4,5.4,0,1,0,0-10.8,5.4,5.4,0,0,0,0,10.8Z" transform="translate(-28 -28)" style="fill:#e3ffff"/><path d="M251.1,452.3a8,8,0,1,0-8-8A8,8,0,0,0,251.1,452.3Z" transform="translate(-28 -28)" style="fill:#e3ffff"/><path d="M272,402.6a.4.4,0,0,0,.4-.4.5.5,0,0,0-.4-.5.5.5,0,0,0-.5.5A.5.5,0,0,0,272,402.6Z" transform="translate(-28 -28)" style="fill:#e3ffff"/><path d="M276.3,354.9a.9.9,0,0,0,.8-.8.8.8,0,0,0-.8-.7.7.7,0,0,0-.7.7A.8.8,0,0,0,276.3,354.9Z" transform="translate(-28 -28)" style="fill:#e3ffff"/><path d="M259.1,336.9a1,1,0,0,0,1-.9,1.1,1.1,0,0,0-1-1,1,1,0,0,0-.9,1A.9.9,0,0,0,259.1,336.9Z" transform="translate(-28 -28)" style="fill:#e3ffff"/><path d="M248.7,343.4a.9.9,0,0,0,.9-.8.9.9,0,0,0-.9-.9.9.9,0,0,0-.8.9A.9.9,0,0,0,248.7,343.4Z" transform="translate(-28 -28)" style="fill:#e3ffff"/><path d="M241.8,357.7a.8.8,0,0,0,.8-.8.9.9,0,0,0-.8-.8.8.8,0,0,0-.8.8A.7.7,0,0,0,241.8,357.7Z" transform="translate(-28 -28)" style="fill:#e3ffff"/><path d="M231.2,393.4a.5.5,0,0,0,.4-.5.4.4,0,0,0-.4-.4.5.5,0,0,0-.5.4A.5.5,0,0,0,231.2,393.4Z" transform="translate(-28 -28)" style="fill:#e3ffff"/><path d="M227,403.2a1.3,1.3,0,1,0,0-2.6,1.3,1.3,0,0,0,0,2.6Z" transform="translate(-28 -28)" style="fill:#e3ffff"/><path d="M268.9,349.5a1.2,1.2,0,0,0,1.2-1.2,1.1,1.1,0,0,0-1.2-1.1,1.2,1.2,0,0,0-1.2,1.1A1.2,1.2,0,0,0,268.9,349.5Z" transform="translate(-28 -28)" style="fill:#e3ffff"/><path d="M273.6,337a1.1,1.1,0,0,0,1.2-1.1,1.2,1.2,0,0,0-1.2-1.2,1.1,1.1,0,0,0-1.1,1.2A1.1,1.1,0,0,0,273.6,337Z" transform="translate(-28 -28)" style="fill:#e3ffff"/><path d="M194.4,302.3a1.3,1.3,0,0,0,1.3-1.3,1.3,1.3,0,0,0-1.3-1.4A1.4,1.4,0,0,0,193,301,1.3,1.3,0,0,0,194.4,302.3Z" transform="translate(-28 -28)" style="fill:#e3ffff"/><path d="M179.2,312.6a1.6,1.6,0,0,0,1.6-1.5,1.6,1.6,0,0,0-1.6-1.6,1.6,1.6,0,0,0-1.5,1.6A1.5,1.5,0,0,0,179.2,312.6Z" transform="translate(-28 -28)" style="fill:#e3ffff"/><path d="M184.1,330.1a.9.9,0,0,0,.8-.8.8.8,0,0,0-.8-.7.7.7,0,0,0-.7.7A.8.8,0,0,0,184.1,330.1Z" transform="translate(-28 -28)" style="fill:#e3ffff"/><path d="M170.6,320.1a.9.9,0,1,0-.9-.9A.9.9,0,0,0,170.6,320.1Z" transform="translate(-28 -28)" style="fill:#e3ffff"/><path d="M159.9,305.9a.9.9,0,1,0-.9-.9A.9.9,0,0,0,159.9,305.9Z" transform="translate(-28 -28)" style="fill:#e3ffff"/><path d="M175.8,300.4a.7.7,0,1,0-.7-.7A.7.7,0,0,0,175.8,300.4Z" transform="translate(-28 -28)" style="fill:#e3ffff"/><path d="M192.5,317.9a1.2,1.2,0,0,0,1.2-1.2,1.2,1.2,0,0,0-1.2-1.2,1.1,1.1,0,0,0-1.1,1.2A1.2,1.2,0,0,0,192.5,317.9Z" transform="translate(-28 -28)" style="fill:#e3ffff"/><path d="M172.6,332.6a.7.7,0,1,0,0-1.4.7.7,0,1,0,0,1.4Z" transform="translate(-28 -28)" style="fill:#e3ffff"/><path d="M156.9,317.8a1.6,1.6,0,0,0,1.5-1.6,1.5,1.5,0,0,0-1.5-1.5,1.5,1.5,0,0,0-1.5,1.5A1.5,1.5,0,0,0,156.9,317.8Z" transform="translate(-28 -28)" style="fill:#e3ffff"/><path d="M160,331.2a1.5,1.5,0,0,0,1.5-1.5,1.5,1.5,0,0,0-1.5-1.5,1.6,1.6,0,0,0-1.6,1.5A1.5,1.5,0,0,0,160,331.2Z" transform="translate(-28 -28)" style="fill:#e3ffff"/><path d="M150.4,347.9a2.9,2.9,0,0,0,2.8-2.8,2.8,2.8,0,0,0-2.8-2.8,2.7,2.7,0,0,0-2.8,2.8A2.8,2.8,0,0,0,150.4,347.9Z" transform="translate(-28 -28)" style="fill:#e3ffff"/><path d="M120.9,328.7a5.4,5.4,0,1,0-5.4-5.4A5.4,5.4,0,0,0,120.9,328.7Z" transform="translate(-28 -28)" style="fill:#e3ffff"/><path d="M122.4,362.4a8,8,0,0,0,0-16,8,8,0,0,0,0,16Z" transform="translate(-28 -28)" style="fill:#e3ffff"/><path d="M168.4,344.8a.4.4,0,0,0,.4-.4.5.5,0,0,0-.4-.5.5.5,0,0,0-.5.5A.5.5,0,0,0,168.4,344.8Z" transform="translate(-28 -28)" style="fill:#e3ffff"/><path d="M208.7,318.6a.8.8,0,0,0,.8-.7.9.9,0,0,0-.8-.8.8.8,0,0,0-.7.8A.7.7,0,0,0,208.7,318.6Z" transform="translate(-28 -28)" style="fill:#e3ffff"/><path d="M212.2,294a.9.9,0,1,0-.9-.9A.9.9,0,0,0,212.2,294Z" transform="translate(-28 -28)" style="fill:#e3ffff"/><path d="M200.5,289.8a.7.7,0,0,0,.8-.8.8.8,0,0,0-.8-.8.9.9,0,0,0-.8.8A.8.8,0,0,0,200.5,289.8Z" transform="translate(-28 -28)" style="fill:#e3ffff"/><path d="M184.9,293.4a.9.9,0,0,0,.9-.9.9.9,0,0,0-.9-.8.9.9,0,0,0-.8.8A.9.9,0,0,0,184.9,293.4Z" transform="translate(-28 -28)" style="fill:#e3ffff"/><path d="M150.2,307.2a.5.5,0,0,0,.5-.5.5.5,0,0,0-.5-.4c-.2,0-.5.2-.5.4A.5.5,0,0,0,150.2,307.2Z" transform="translate(-28 -28)" style="fill:#e3ffff"/><path d="M140.6,310.3a1.3,1.3,0,1,0-1.3-1.3A1.3,1.3,0,0,0,140.6,310.3Z" transform="translate(-28 -28)" style="fill:#e3ffff"/><path d="M208.7,309.6a1.1,1.1,0,0,0,1.1-1.1,1.1,1.1,0,0,0-1.1-1.2,1.2,1.2,0,0,0-1.2,1.2A1.1,1.1,0,0,0,208.7,309.6Z" transform="translate(-28 -28)" style="fill:#e3ffff"/><path d="M221.3,305.5a1.2,1.2,0,0,0,1.2-1.2,1.2,1.2,0,0,0-1.2-1.2,1.2,1.2,0,0,0-1.2,1.2A1.3,1.3,0,0,0,221.3,305.5Z" transform="translate(-28 -28)" style="fill:#e3ffff"/><path d="M199.2,222a1.3,1.3,0,0,0,1.3-1.4,1.3,1.3,0,0,0-1.3-1.3,1.3,1.3,0,0,0-1.4,1.3A1.4,1.4,0,0,0,199.2,222Z" transform="translate(-28 -28)" style="fill:#e3ffff"/><path d="M181.8,216.7a1.6,1.6,0,0,0,1.5-1.6,1.5,1.5,0,0,0-1.5-1.5,1.6,1.6,0,0,0-1.6,1.5A1.6,1.6,0,0,0,181.8,216.7Z" transform="translate(-28 -28)" style="fill:#e3ffff"/><path d="M170.6,231a.7.7,0,1,0,0-1.4.7.7,0,0,0,0,1.4Z" transform="translate(-28 -28)" style="fill:#e3ffff"/><path d="M170,214.3a.9.9,0,1,0-.9-.9A.9.9,0,0,0,170,214.3Z" transform="translate(-28 -28)" style="fill:#e3ffff"/><path d="M174.5,197.1a.9.9,0,1,0-.9-.9A.9.9,0,0,0,174.5,197.1Z" transform="translate(-28 -28)" style="fill:#e3ffff"/><path d="M188.7,206.1a.7.7,0,0,0,.7-.7.8.8,0,0,0-.7-.8.9.9,0,0,0-.8.8A.8.8,0,0,0,188.7,206.1Z" transform="translate(-28 -28)" style="fill:#e3ffff"/><path d="M185.8,230.2a1.1,1.1,0,0,0,1.1-1.1,1.1,1.1,0,0,0-1.1-1.2,1.2,1.2,0,0,0-1.2,1.2A1.1,1.1,0,0,0,185.8,230.2Z" transform="translate(-28 -28)" style="fill:#e3ffff"/><path d="M161.4,223.7a.7.7,0,1,0-.7-.7A.7.7,0,0,0,161.4,223.7Z" transform="translate(-28 -28)" style="fill:#e3ffff"/><path d="M163.9,202.4a1.6,1.6,0,0,0,1.5-1.6,1.5,1.5,0,0,0-1.5-1.5,1.6,1.6,0,0,0-1.6,1.5A1.6,1.6,0,0,0,163.9,202.4Z" transform="translate(-28 -28)" style="fill:#e3ffff"/><path d="M155.3,213.2a1.5,1.5,0,0,0,1.5-1.5,1.6,1.6,0,0,0-1.5-1.6,1.6,1.6,0,0,0-1.6,1.6A1.6,1.6,0,0,0,155.3,213.2Z" transform="translate(-28 -28)" style="fill:#e3ffff"/><path d="M137.3,216.6a2.9,2.9,0,0,0,2.8-2.8,2.8,2.8,0,0,0-2.8-2.8,2.7,2.7,0,0,0-2.8,2.8A2.8,2.8,0,0,0,137.3,216.6Z" transform="translate(-28 -28)" style="fill:#e3ffff"/><path d="M135.9,182.6a5.5,5.5,0,0,0,5.4-5.5,5.4,5.4,0,0,0-10.8,0A5.5,5.5,0,0,0,135.9,182.6Z" transform="translate(-28 -28)" style="fill:#e3ffff"/><path d="M112.6,205.6a7.9,7.9,0,0,0,7.9-7.9,7.9,7.9,0,0,0-7.9-8,8,8,0,0,0-8,8A7.9,7.9,0,0,0,112.6,205.6Z" transform="translate(-28 -28)" style="fill:#e3ffff"/><path d="M149.1,227.8a.5.5,0,0,0,.5-.5.5.5,0,0,0-.5-.4.4.4,0,0,0-.4.4A.5.5,0,0,0,149.1,227.8Z" transform="translate(-28 -28)" style="fill:#e3ffff"/><path d="M195,243.1a.8.8,0,0,0,.7-.8.7.7,0,0,0-1.4,0A.8.8,0,0,0,195,243.1Z" transform="translate(-28 -28)" style="fill:#e3ffff"/><path d="M216.5,230.5a.9.9,0,1,0-.9-.9A.9.9,0,0,0,216.5,230.5Z" transform="translate(-28 -28)" style="fill:#e3ffff"/><path d="M212.4,218.8a.8.8,0,0,0,.8-.8.9.9,0,0,0-.8-.8.8.8,0,0,0-.8.8A.7.7,0,0,0,212.4,218.8Z" transform="translate(-28 -28)" style="fill:#e3ffff"/><path d="M199.9,208.8a.9.9,0,0,0,.8-.8.8.8,0,0,0-.8-.8.7.7,0,0,0-.8.8A.8.8,0,0,0,199.9,208.8Z" transform="translate(-28 -28)" style="fill:#e3ffff"/><path d="M167.1,190.2a.5.5,0,0,0,.5-.5.5.5,0,0,0-.5-.4.4.4,0,0,0-.4.4A.5.5,0,0,0,167.1,190.2Z" transform="translate(-28 -28)" style="fill:#e3ffff"/><path d="M159.3,184.9a1.3,1.3,0,0,0,1.3-1.3,1.2,1.2,0,0,0-1.3-1.2,1.2,1.2,0,0,0-1.2,1.2A1.2,1.2,0,0,0,159.3,184.9Z" transform="translate(-28 -28)" style="fill:#e3ffff"/><path d="M202.2,237.6a1.2,1.2,0,0,0,1.2-1.2,1.2,1.2,0,0,0-1.2-1.2,1.1,1.1,0,0,0-1.1,1.2A1.2,1.2,0,0,0,202.2,237.6Z" transform="translate(-28 -28)" style="fill:#e3ffff"/><path d="M213.4,244.9a1.1,1.1,0,0,0,1.1-1.2,1.2,1.2,0,0,0-1.1-1.2,1.2,1.2,0,0,0-1.2,1.2A1.2,1.2,0,0,0,213.4,244.9Z" transform="translate(-28 -28)" style="fill:#e3ffff"/><path d="M265,175.7a1.4,1.4,0,0,0,1.4-1.4A1.3,1.3,0,0,0,265,173a1.3,1.3,0,0,0-1.3,1.3A1.3,1.3,0,0,0,265,175.7Z" transform="translate(-28 -28)" style="fill:#e3ffff"/><path d="M258.5,158.8a1.6,1.6,0,0,0,1.6-1.6,1.6,1.6,0,0,0-1.6-1.5,1.5,1.5,0,0,0-1.5,1.5A1.6,1.6,0,0,0,258.5,158.8Z" transform="translate(-28 -28)" style="fill:#e3ffff"/><path d="M239.7,158.8a.7.7,0,0,0,.7-.7.7.7,0,1,0-1.4,0A.7.7,0,0,0,239.7,158.8Z" transform="translate(-28 -28)" style="fill:#e3ffff"/><path d="M252.5,147.9a.9.9,0,1,0-.9-.9A.9.9,0,0,0,252.5,147.9Z" transform="translate(-28 -28)" style="fill:#e3ffff"/><path d="M268.8,140.7a.9.9,0,1,0-.9-.9A.9.9,0,0,0,268.8,140.7Z" transform="translate(-28 -28)" style="fill:#e3ffff"/><path d="M270.5,157.2a.7.7,0,0,0,0-1.4.7.7,0,1,0,0,1.4Z" transform="translate(-28 -28)" style="fill:#e3ffff"/><path d="M250.1,170.2a1.3,1.3,0,0,0,1.2-1.2,1.2,1.2,0,0,0-1.2-1.2,1.2,1.2,0,0,0-1.2,1.2A1.2,1.2,0,0,0,250.1,170.2Z" transform="translate(-28 -28)" style="fill:#e3ffff"/><path d="M239.7,147a.7.7,0,1,0-.7-.7A.7.7,0,0,0,239.7,147Z" transform="translate(-28 -28)" style="fill:#e3ffff"/><path d="M258.5,135.9a1.6,1.6,0,0,0,1.6-1.5,1.6,1.6,0,0,0-1.6-1.6,1.6,1.6,0,0,0-1.5,1.6A1.5,1.5,0,0,0,258.5,135.9Z" transform="translate(-28 -28)" style="fill:#e3ffff"/><path d="M244.7,135.9a1.5,1.5,0,0,0,1.5-1.5,1.6,1.6,0,0,0-1.5-1.6,1.6,1.6,0,0,0-1.6,1.6A1.6,1.6,0,0,0,244.7,135.9Z" transform="translate(-28 -28)" style="fill:#e3ffff"/><path d="M231.7,124.4a2.7,2.7,0,0,0,2.8-2.8,2.8,2.8,0,0,0-2.8-2.8,2.9,2.9,0,0,0-2.8,2.8A2.8,2.8,0,0,0,231.7,124.4Z" transform="translate(-28 -28)" style="fill:#e3ffff"/><path d="M259.6,103.2a5.5,5.5,0,0,0,5.4-5.5,5.4,5.4,0,1,0-10.8,0A5.5,5.5,0,0,0,259.6,103.2Z" transform="translate(-28 -28)" style="fill:#e3ffff"/><path d="M229,100.3a8,8,0,0,0,0-16,8,8,0,0,0,0,16Z" transform="translate(-28 -28)" style="fill:#e3ffff"/><path d="M228.6,139.8a.5.5,0,0,0,.4-.5.4.4,0,0,0-.4-.4.5.5,0,0,0-.5.4A.5.5,0,0,0,228.6,139.8Z" transform="translate(-28 -28)" style="fill:#e3ffff"/><path d="M245.4,185.3a.7.7,0,0,0,.7-.7.7.7,0,1,0-1.4,0A.7.7,0,0,0,245.4,185.3Z" transform="translate(-28 -28)" style="fill:#e3ffff"/><path d="M268.8,194.3a.9.9,0,1,0-.9-.9A.9.9,0,0,0,268.8,194.3Z" transform="translate(-28 -28)" style="fill:#e3ffff"/><path d="M275.3,183.7a.8.8,0,0,0,.9-.8.9.9,0,0,0-.9-.8.9.9,0,0,0-.8.8A.8.8,0,0,0,275.3,183.7Z" transform="translate(-28 -28)" style="fill:#e3ffff"/><path d="M275.3,167.8a.8.8,0,0,0,.9-.8.9.9,0,0,0-.9-.8.9.9,0,0,0-.8.8A.8.8,0,0,0,275.3,167.8Z" transform="translate(-28 -28)" style="fill:#e3ffff"/><path d="M269.3,130.5a.5.5,0,0,0,.4-.5.4.4,0,0,0-.4-.4.5.5,0,0,0-.5.4A.5.5,0,0,0,269.3,130.5Z" transform="translate(-28 -28)" style="fill:#e3ffff"/><path d="M269.2,121.3a1.2,1.2,0,0,0,1.3-1.2,1.3,1.3,0,0,0-2.6,0A1.2,1.2,0,0,0,269.2,121.3Z" transform="translate(-28 -28)" style="fill:#e3ffff"/><path d="M254.6,187.7a1.2,1.2,0,0,0,1.2-1.2,1.1,1.1,0,0,0-1.2-1.1,1.2,1.2,0,0,0-1.2,1.1A1.2,1.2,0,0,0,254.6,187.7Z" transform="translate(-28 -28)" style="fill:#e3ffff"/><path d="M255.8,200.9a1.2,1.2,0,0,0,1.2-1.2,1.1,1.1,0,0,0-1.2-1.1,1.2,1.2,0,0,0-1.2,1.1A1.2,1.2,0,0,0,255.8,200.9Z" transform="translate(-28 -28)" style="fill:#e3ffff"/><path d="M159.6,94.6,143,87l.3-.8,16.3,7.4,31-15.5.5.8Z" transform="translate(-28 -28)" style="fill:#00f0ff"/><path d="M120,138.1l-.7-.6,21.9-27.4-5.3-18.2.9-.3,5.3,18.7Z" transform="translate(-28 -28)" style="fill:#00f0ff"/><path d="M161,81.1a3.8,3.8,0,0,1-2.1-.7,3.5,3.5,0,0,1-.6-4.7,3.4,3.4,0,0,1,5.3,4.1,4.1,4.1,0,0,1-2.3,1.3Zm.1-5.8h-.3a2.6,2.6,0,0,0-1.6.9,3,3,0,0,0-.6,1.8,2.6,2.6,0,0,0,.9,1.6,3.2,3.2,0,0,0,1.8.6,2.8,2.8,0,0,0,1.7-.9,2.5,2.5,0,0,0-.4-3.4A2.4,2.4,0,0,0,161.1,75.3Z" transform="translate(-28 -28)" style="fill:#00f0ff"/><path d="M126.3,110.9a3.5,3.5,0,0,1-2.1-.7,3.3,3.3,0,1,1,4.2-5.2,3.6,3.6,0,0,1,1.3,2.2,3.9,3.9,0,0,1-.8,2.5,3,3,0,0,1-2.2,1.2Zm0-5.7a2.5,2.5,0,0,0-1.9.9,2.5,2.5,0,0,0,.4,3.4,3.5,3.5,0,0,0,1.8.5,2.2,2.2,0,0,0,1.6-.9,2.4,2.4,0,0,0-.4-3.3A2,2,0,0,0,126.3,105.2Z" transform="translate(-28 -28)" style="fill:#00f0ff"/><path d="M165.8,44.1l-.8.4,20.5,37.2.7-.5Z" transform="translate(-28 -28)" style="fill:#00f0ff"/><path d="M177.6,66.1l-13.4-1.3-9-14.3.7-.4L164.8,64l12.9,1.2Z" transform="translate(-28 -28)" style="fill:#00f0ff"/><path d="M155.2,54.6a5.4,5.4,0,0,1-3.2-1.1,5.2,5.2,0,0,1-.8-7.2,5.1,5.1,0,1,1,8,6.4A5,5,0,0,1,155.2,54.6Zm-2.6-1.8a4.2,4.2,0,0,0,5.3-6.6,4.2,4.2,0,1,0-5.3,6.6Z" transform="translate(-28 -28)" style="fill:#00f0ff"/><path d="M126,107.4l-10.7,13.4.7.6,10.7-13.5Z" transform="translate(-28 -28)" style="fill:#00f0ff"/><path d="M101,109.8l-.5.7,24.9,19.9.6-.7Z" transform="translate(-28 -28)" style="fill:#00f0ff"/><path d="M104.2,120.9l-.6.7,17.7,14.1.5-.7Z" transform="translate(-28 -28)" style="fill:#00f0ff"/><path d="M54.8,261.6l-.4-.8,15.9-8.1,7.2-34,.9.2L71,253.3Z" transform="translate(-28 -28)" style="fill:#00f0ff"/><path d="M79.5,311.5l-7.8-34.1-17.5-7.3.4-.8,18,7.5,7.8,34.6Z" transform="translate(-28 -28)" style="fill:#00f0ff"/><path d="M58.8,245.1a2.5,2.5,0,0,1-1.7-.6,3.3,3.3,0,0,1-1.5-2.1,3.2,3.2,0,0,1,.5-2.5,2.9,2.9,0,0,1,2.1-1.4,3.2,3.2,0,0,1,2.5.4,3.6,3.6,0,0,1,1.5,2.1,3.7,3.7,0,0,1-.5,2.5,3.6,3.6,0,0,1-2.1,1.5Zm0-5.8h-.5a2.2,2.2,0,0,0-1.8,2.9,2.5,2.5,0,0,0,1,1.5,2.3,2.3,0,0,0,1.8.3,3.1,3.1,0,0,0,1.6-1.1,2.9,2.9,0,0,0,.3-1.8,3.1,3.1,0,0,0-1.1-1.6A5,5,0,0,0,58.8,239.3Z" transform="translate(-28 -28)" style="fill:#00f0ff"/><path d="M60.6,290.7a3.3,3.3,0,0,1-3.2-2.6,3.4,3.4,0,0,1,2.5-4,3.5,3.5,0,0,1,4,2.6,3.3,3.3,0,0,1-2.6,3.9Zm0-5.7h-.5a2.5,2.5,0,0,0-1.8,2.9,2.4,2.4,0,0,0,2.9,1.8,2.5,2.5,0,0,0,1.8-2.9A2.6,2.6,0,0,0,60.6,285Z" transform="translate(-28 -28)" style="fill:#00f0ff"/><path d="M35.4,217v.9L77.1,225l.2-.9Z" transform="translate(-28 -28)" style="fill:#00f0ff"/><path d="M50.8,231.1l-17-1.8v-.9l16.5,1.8,8.9-9.4.7.7Z" transform="translate(-28 -28)" style="fill:#00f0ff"/><path d="M33.1,233.8a5.2,5.2,0,1,1,2.8-9.5,5.1,5.1,0,0,1,2.3,3.1,5.3,5.3,0,0,1-3.9,6.2A2.7,2.7,0,0,1,33.1,233.8Zm0-9.4h-.9a4.2,4.2,0,0,0-2.6,1.9,4.1,4.1,0,0,0-.6,3.2,4.3,4.3,0,0,0,8.3-1.9,4.2,4.2,0,0,0-1.9-2.6A4.3,4.3,0,0,0,33.1,224.4Z" transform="translate(-28 -28)" style="fill:#00f0ff"/><path d="M61,287.3l-.8.2L64,304.3l.9-.2Z" transform="translate(-28 -28)" style="fill:#00f0ff"/><path d="M77.7,301.5l-31.2,7.1.2.9,31.2-7.1Z" transform="translate(-28 -28)" style="fill:#00f0ff"/><path d="M79.2,308l-22,5.1.2.8,22-5Z" transform="translate(-28 -28)" style="fill:#00f0ff"/><path d="M136.4,439.3l-.9-.2,3.6-17.4-22-26.9.7-.5,22.3,27.2Z" transform="translate(-28 -28)" style="fill:#00f0ff"/><path d="M190.9,451.2,159.3,436l-16.6,9.1-.5-.7,17.1-9.4h.2l31.8,15.3Z" transform="translate(-28 -28)" style="fill:#00f0ff"/><path d="M123.3,427.1a3.5,3.5,0,0,1-1.4-.3,3.4,3.4,0,0,1-1.6-4.5,3.4,3.4,0,0,1,4.5-1.5,3.5,3.5,0,0,1,1.7,1.9,2.8,2.8,0,0,1-.2,2.5,3.5,3.5,0,0,1-1.9,1.7A2,2,0,0,1,123.3,427.1Zm0-5.7a2.5,2.5,0,0,0-1.1,4.6,2.3,2.3,0,0,0,1.8.1,2.4,2.4,0,0,0,1.5-3.1,2.1,2.1,0,0,0-1.3-1.3A1.2,1.2,0,0,0,123.3,421.4Z" transform="translate(-28 -28)" style="fill:#00f0ff"/><path d="M160.2,454.2a2.4,2.4,0,0,1-1.4-.3,3.2,3.2,0,0,1-1.5-4.4,3.1,3.1,0,0,1,1.9-1.8,3.6,3.6,0,0,1,2.5.2,3.3,3.3,0,0,1,1.5,4.4,3.4,3.4,0,0,1-1.9,1.8Zm0-5.6h-.8a2.1,2.1,0,0,0-1.3,1.3,2.5,2.5,0,0,0,1.1,3.3,2.8,2.8,0,0,0,1.8,0,1.8,1.8,0,0,0,1.3-1.2,2.5,2.5,0,0,0-1.1-3.3A1.5,1.5,0,0,0,160.2,448.6Z" transform="translate(-28 -28)" style="fill:#00f0ff"/><path d="M121.1,398.5,89.4,426.7l.6.7,31.7-28.2Z" transform="translate(-28 -28)" style="fill:#00f0ff"/><path d="M98.2,435.6l-.8-.6,11.7-11.8-1.7-12.8h.9l1.7,13.3Z" transform="translate(-28 -28)" style="fill:#00f0ff"/><path d="M97.1,440.9a5.5,5.5,0,0,1-4.9-3.5,4.8,4.8,0,0,1,.2-3.9,5.3,5.3,0,0,1,2.9-2.6,5.8,5.8,0,0,1,3.9.2,5.1,5.1,0,0,1,2.4,6.8l-.4-.2.4.2a5,5,0,0,1-2.9,2.6A2.9,2.9,0,0,1,97.1,440.9Zm0-9.4a3.5,3.5,0,0,0-1.4.3,4.3,4.3,0,0,0-2.4,2.2,4,4,0,0,0-.2,3.2,4.9,4.9,0,0,0,2.2,2.5,5,5,0,0,0,3.2.2,4.9,4.9,0,0,0,2.5-2.2,5.3,5.3,0,0,0,.2-3.3A4.7,4.7,0,0,0,99,432,4.5,4.5,0,0,0,97.1,431.5Z" transform="translate(-28 -28)" style="fill:#00f0ff"/><path d="M160.5,450.5l-.4.8,15.5,7.5.4-.8Z" transform="translate(-28 -28)" style="fill:#00f0ff"/><path d="M181.9,446.4l-13.8,28.8.8.3,13.8-28.7Z" transform="translate(-28 -28)" style="fill:#00f0ff"/><path d="M187.9,449.2l-9.8,20.4.8.4,9.8-20.4Z" transform="translate(-28 -28)" style="fill:#00f0ff"/><path d="M325.7,487l-11.5-13.7-34.7.5v-.9l35.2-.5,11.7,14Z" transform="translate(-28 -28)" style="fill:#00f0ff"/><path d="M334.8,485.1h-.9l3.2-19.3h.3l31.8-15.2.3.8L338,466.4Z" transform="translate(-28 -28)" style="fill:#00f0ff"/><path d="M306,490.2a3.4,3.4,0,0,1-3-1.9,3.6,3.6,0,0,1-.1-2.5,3.2,3.2,0,0,1,1.7-1.9,3.3,3.3,0,0,1,4.4,1.6,3.3,3.3,0,0,1-1.5,4.4A2.5,2.5,0,0,1,306,490.2Zm0-5.7-1.1.3a2.4,2.4,0,0,0-1.2,1.4,2.3,2.3,0,0,0,.1,1.8,2.3,2.3,0,0,0,3.2,1.1,2.5,2.5,0,0,0,1.1-3.3A2.2,2.2,0,0,0,306,484.5Z" transform="translate(-28 -28)" style="fill:#00f0ff"/><path d="M350.3,478.3l-1.1-.2a2.9,2.9,0,0,1-1.9-1.7,3.1,3.1,0,0,1-.2-2.5,3.2,3.2,0,0,1,1.7-1.9,3.3,3.3,0,0,1,2.6-.2,3.5,3.5,0,0,1,1.9,1.7,3.6,3.6,0,0,1,.1,2.5,2.7,2.7,0,0,1-1.7,1.9A2.5,2.5,0,0,1,350.3,478.3Zm0-5.7a2,2,0,0,0-1.1.3,2.3,2.3,0,0,0-1.1,3.2,2.6,2.6,0,0,0,1.4,1.3,2.3,2.3,0,0,0,1.8-.1,2.4,2.4,0,0,0,1.1-3.2,2.9,2.9,0,0,0-1.4-1.3A1,1,0,0,0,350.3,472.6Z" transform="translate(-28 -28)" style="fill:#00f0ff"/><path d="M285.8,472.8h-.9l2.3,42.3h.9Z" transform="translate(-28 -28)" style="fill:#00f0ff"/><path d="M298.6,514.1l-1.9-16.4-11.1-6.6.4-.9,11.5,6.9,2,16.8Z" transform="translate(-28 -28)" style="fill:#00f0ff"/><path d="M299.1,520a5.3,5.3,0,0,1-4.7-2.9,4.8,4.8,0,0,1-.1-3.9,4.9,4.9,0,0,1,2.6-2.9,5.3,5.3,0,0,1,3.9-.2,5.4,5.4,0,0,1,2.9,2.7,4.8,4.8,0,0,1,.1,3.9,4.5,4.5,0,0,1-2.6,2.8A4.1,4.1,0,0,1,299.1,520Zm0-9.3a5.8,5.8,0,0,0-1.9.4,4,4,0,0,0-2.1,2.5,4,4,0,0,0,.2,3.2,4.2,4.2,0,0,0,5.6,2,3.6,3.6,0,0,0,2.1-2.4,4.7,4.7,0,0,0-.1-3.3,4,4,0,0,0-2.5-2.1A3.1,3.1,0,0,0,299.1,510.7Z" transform="translate(-28 -28)" style="fill:#00f0ff"/><path d="M365.6,467.1l-15.5,7.5.4.8,15.5-7.5Z" transform="translate(-28 -28)" style="fill:#00f0ff"/><path d="M361,454.8l-.9.4L374,484l.8-.4Z" transform="translate(-28 -28)" style="fill:#00f0ff"/><path d="M367.1,451.9l-.9.4,9.8,20.4.9-.4Z" transform="translate(-28 -28)" style="fill:#00f0ff"/><path d="M442.5,396.1l-.7-.5,21.5-27.8,18.3-.5v.9l-17.9.5Z" transform="translate(-28 -28)" style="fill:#00f0ff"/><path d="M485.1,360.6,472.2,346l7.8-34.6h.9l-7.7,34.2,12.6,14.2Z" transform="translate(-28 -28)" style="fill:#00f0ff"/><path d="M469.4,386.8h-.8a3.3,3.3,0,0,1-2.5-4,3.4,3.4,0,0,1,1.4-2.1,3.9,3.9,0,0,1,2.6-.4,3.4,3.4,0,0,1,2.1,1.4,3.8,3.8,0,0,1,.4,2.6A3.4,3.4,0,0,1,469.4,386.8Zm0-5.7a2.5,2.5,0,0,0-1.3.3A2.6,2.6,0,0,0,467,383a2.5,2.5,0,0,0,1.8,2.9,2.6,2.6,0,0,0,2.9-1.8,2.2,2.2,0,0,0-.3-1.8,2.4,2.4,0,0,0-1.5-1.1Z" transform="translate(-28 -28)" style="fill:#00f0ff"/><path d="M487.5,344.8h-.7a3.2,3.2,0,0,1-2.5-4,3.4,3.4,0,0,1,4-2.5,2.8,2.8,0,0,1,2,1.5,3.1,3.1,0,0,1,.5,2.5,3.4,3.4,0,0,1-1.4,2.1A3.2,3.2,0,0,1,487.5,344.8Zm0-5.7a2.4,2.4,0,0,0-.5,4.8,2.3,2.3,0,0,0,1.8-.3,2.4,2.4,0,0,0,1.1-1.5,2.3,2.3,0,0,0-.3-1.8,2.8,2.8,0,0,0-1.5-1.1Z" transform="translate(-28 -28)" style="fill:#00f0ff"/><path d="M445.7,390.6l-.6.7,34.6,24.6.5-.7Z" transform="translate(-28 -28)" style="fill:#00f0ff"/><path d="M485.9,406.2l-14-8.7-12.1,4.6-.3-.8,12.5-4.8,14.5,9Z" transform="translate(-28 -28)" style="fill:#00f0ff"/><path d="M486.8,411.6h-1.2a4.8,4.8,0,0,1-3.1-2.3,4.9,4.9,0,0,1-.7-3.9,5.2,5.2,0,0,1,2.3-3.1,4.9,4.9,0,0,1,3.9-.7,5,5,0,0,1,3.2,2.3,4.9,4.9,0,0,1,.6,3.9A5.2,5.2,0,0,1,486.8,411.6Zm0-9.4a4.3,4.3,0,0,0-4.1,3.3,4.4,4.4,0,0,0,.6,3.2,4.2,4.2,0,0,0,2.6,1.9,4.3,4.3,0,0,0,5.1-3.2,3.7,3.7,0,0,0-.6-3.2,4.2,4.2,0,0,0-2.6-1.9Z" transform="translate(-28 -28)" style="fill:#00f0ff"/><path d="M490.9,324.7l-3.8,16.8.9.2,3.8-16.8Z" transform="translate(-28 -28)" style="fill:#00f0ff"/><path d="M478.4,320.6l-.2.9,31.2,7.1.2-.9Z" transform="translate(-28 -28)" style="fill:#00f0ff"/><path d="M479.9,314l-.2.9,22.1,5,.2-.8Z" transform="translate(-28 -28)" style="fill:#00f0ff"/><path d="M482.4,220.5l-8.3-34.1,11.1-14.6.7.5-10.8,14.2,8.2,33.8Z" transform="translate(-28 -28)" style="fill:#00f0ff"/><path d="M462.7,165.8h-.2l-22-27.6.7-.6L463,164.9l19-1.1v.9Z" transform="translate(-28 -28)" style="fill:#00f0ff"/><path d="M490.3,194.8h-.4a3.9,3.9,0,0,1-2.3-1.3,3.4,3.4,0,0,1-.7-2.4,3.6,3.6,0,0,1,1.3-2.3,3.4,3.4,0,0,1,2.4-.7,3.7,3.7,0,0,1,2.3,1.2,3.8,3.8,0,0,1,.7,2.5,3.4,3.4,0,0,1-1.3,2.3A3.7,3.7,0,0,1,490.3,194.8Zm0-5.8a3,3,0,0,0-1.6.5,2.6,2.6,0,0,0-.9,1.7,2.2,2.2,0,0,0,.6,1.8,2.4,2.4,0,0,0,1.6.9,2.1,2.1,0,0,0,1.8-.6,2.4,2.4,0,0,0,.9-1.6,2.4,2.4,0,0,0-.5-1.8,2.2,2.2,0,0,0-1.7-.9Z" transform="translate(-28 -28)" style="fill:#00f0ff"/><path d="M468.8,154.3a3.3,3.3,0,0,1-2.1-5.9,3.3,3.3,0,0,1,4.7.5,3.8,3.8,0,0,1,.8,2.5,3.4,3.4,0,0,1-1.3,2.2A3.3,3.3,0,0,1,468.8,154.3Zm-.1-5.7a2.2,2.2,0,0,0-1.5.6,2.4,2.4,0,0,0-.4,3.3,2.5,2.5,0,0,0,3.4.4,2.6,2.6,0,0,0,.9-1.6,2.6,2.6,0,0,0-2.4-2.7Z" transform="translate(-28 -28)" style="fill:#00f0ff"/><path d="M521.8,202.7,481,214.4l.2.8L522,203.6Z" transform="translate(-28 -28)" style="fill:#00f0ff"/><path d="M498.8,210.5l-.9-.3,4.2-12.7,15.9-5.7.4.8-15.6,5.6Z" transform="translate(-28 -28)" style="fill:#00f0ff"/><path d="M519.1,197.2h-.5a5.3,5.3,0,0,1-3.5-1.9,5.1,5.1,0,0,1-1-3.8,4.7,4.7,0,0,1,1.9-3.4,5.1,5.1,0,0,1,7.2.8,5.2,5.2,0,0,1,1.1,3.8,5.1,5.1,0,0,1-1.9,3.4A5.2,5.2,0,0,1,519.1,197.2Zm-2.7-8.4a3.9,3.9,0,0,0-1.5,2.8,3.8,3.8,0,0,0,.9,3.1,4.3,4.3,0,0,0,2.8,1.5,4.4,4.4,0,0,0,3.1-.9,4.3,4.3,0,0,0,1.5-2.8,4.4,4.4,0,0,0-.9-3.1,4.3,4.3,0,0,0-2.8-1.5A3.9,3.9,0,0,0,516.4,188.8Z" transform="translate(-28 -28)" style="fill:#00f0ff"/><path d="M458.4,137.3l-.7.6,10.7,13.4.7-.6Z" transform="translate(-28 -28)" style="fill:#00f0ff"/><path d="M471.6,125.2l-25,19.9.6.7,25-19.9Z" transform="translate(-28 -28)" style="fill:#00f0ff"/><path d="M460.2,125.8l-17.7,14.1.6.7,17.7-14.1Z" transform="translate(-28 -28)" style="fill:#00f0ff"/><path d="M370.8,79.6,339,64.7,334.5,47l.9-.2,4.4,17.3,31.5,14.6Z" transform="translate(-28 -28)" style="fill:#00f0ff"/><path d="M315.8,60.9H280.2V60h35.1l11-15.4.8.5Z" transform="translate(-28 -28)" style="fill:#00f0ff"/><path d="M353,58.7a3.4,3.4,0,0,1-3.4-3.4A3.4,3.4,0,0,1,353,52a3.3,3.3,0,0,1,3.3,3.3A3.4,3.4,0,0,1,353,58.7Zm0-5.7a2.4,2.4,0,1,0,0,4.8,2.4,2.4,0,0,0,0-4.8Z" transform="translate(-28 -28)" style="fill:#00f0ff"/><path d="M308,50.2a3.3,3.3,0,0,1-3.3-3.3,3.2,3.2,0,0,1,3.3-3.3,3.3,3.3,0,1,1,0,6.6Zm0-5.6a2.4,2.4,0,0,0-2.4,2.4,2.5,2.5,0,0,0,4.9,0A2.4,2.4,0,0,0,308,44.6Z" transform="translate(-28 -28)" style="fill:#00f0ff"/><path d="M381.5,37.7,365.2,76.9l.8.3,16.3-39.1Z" transform="translate(-28 -28)" style="fill:#00f0ff"/><path d="M372.4,61l-7.3-11.1,5.5-16.1.8.3-5.3,15.6,7.2,10.9Z" transform="translate(-28 -28)" style="fill:#00f0ff"/><path d="M371.5,38.3a5.2,5.2,0,0,1,0-10.3,5.2,5.2,0,1,1,0,10.3Zm0-9.3a4.3,4.3,0,0,0,0,8.5,4.3,4.3,0,0,0,4.3-4.3A4.3,4.3,0,0,0,371.5,29Z" transform="translate(-28 -28)" style="fill:#00f0ff"/><path d="M308,46.5H290.8v.9H308Z" transform="translate(-28 -28)" style="fill:#00f0ff"/><path d="M290.5,28.5h-.9v32h.9Z" transform="translate(-28 -28)" style="fill:#00f0ff"/><path d="M283.8,37.9h-.9V60.5h.9Z" transform="translate(-28 -28)" style="fill:#00f0ff"/><path d="M400.9,94.6,369.5,78.9l.3-.8,31.1,15.5,16.2-7.4.4.8Z" transform="translate(-28 -28)" style="fill:#00f0ff"/><path d="M440.5,138.1l-22.2-27.8,5.4-18.7.9.3-5.3,18.2,21.9,27.4Z" transform="translate(-28 -28)" style="fill:#00f0ff"/><path d="M399.5,81.1a3.6,3.6,0,0,1-3.4-3.7,3.9,3.9,0,0,1,1.3-2.3,3.3,3.3,0,0,1,4.7.6,3,3,0,0,1,.7,2.4,3.3,3.3,0,0,1-1.2,2.3A4.4,4.4,0,0,1,399.5,81.1Zm0-5.8a2.7,2.7,0,0,0-1.5.5,2.5,2.5,0,0,0-.4,3.4,2.4,2.4,0,0,0,3.3.4,2,2,0,0,0,.9-1.7,2.1,2.1,0,0,0-.5-1.8A2.7,2.7,0,0,0,399.5,75.3Z" transform="translate(-28 -28)" style="fill:#00f0ff"/><path d="M434.2,110.9a3.7,3.7,0,0,1-2.7-1.2,3.3,3.3,0,0,1,.6-4.7,3.5,3.5,0,0,1,2.4-.8,3.9,3.9,0,0,1,2.3,1.3,3.3,3.3,0,0,1-.6,4.7A2.6,2.6,0,0,1,434.2,110.9Zm0-5.7a2.5,2.5,0,0,0-1.6.6,2.3,2.3,0,0,0-.3,3.3,2.4,2.4,0,0,0,3.3.4,2.5,2.5,0,0,0,.4-3.4,2.6,2.6,0,0,0-1.7-.9Z" transform="translate(-28 -28)" style="fill:#00f0ff"/><path d="M394.7,44.1,374.2,81.2l.8.4,20.5-37.1Z" transform="translate(-28 -28)" style="fill:#00f0ff"/><path d="M382.9,66.1v-.9L395.7,64l9-13.9.7.4-9.2,14.3Z" transform="translate(-28 -28)" style="fill:#00f0ff"/><path d="M405.3,54.6a4.8,4.8,0,0,1-4-1.9,5.2,5.2,0,0,1,.8-7.2,4.9,4.9,0,0,1,3.8-1.1,5.3,5.3,0,0,1,3.5,1.9,5.2,5.2,0,0,1-.9,7.2A5.4,5.4,0,0,1,405.3,54.6Zm0-9.3a3.9,3.9,0,0,0-2.6.9,4.2,4.2,0,1,0,5.9.6,3.9,3.9,0,0,0-2.8-1.5Z" transform="translate(-28 -28)" style="fill:#00f0ff"/><path d="M434.5,107.4l-.7.5,10.7,13.5.7-.6Z" transform="translate(-28 -28)" style="fill:#00f0ff"/><path d="M459.4,109.9l-25,19.9.6.7,25-19.9Z" transform="translate(-28 -28)" style="fill:#00f0ff"/><path d="M456.3,120.9,438.6,135l.5.7,17.7-14.1Z" transform="translate(-28 -28)" style="fill:#00f0ff"/><path d="M505.7,261.6l-16.3-8.3v-.2L482,218.9l.9-.2,7.4,34,15.8,8.1Z" transform="translate(-28 -28)" style="fill:#00f0ff"/><path d="M480.9,311.5H480l8-34.6h.2l17.8-7.4.3.8-17.6,7.3Z" transform="translate(-28 -28)" style="fill:#00f0ff"/><path d="M501.7,245.1H501a3.6,3.6,0,0,1-2.1-1.5,3.5,3.5,0,0,1-.4-2.5,3.4,3.4,0,0,1,1.4-2.1,3.9,3.9,0,0,1,2.6-.4,3.1,3.1,0,0,1,2.1,1.4,3.5,3.5,0,0,1,.4,2.5,3.2,3.2,0,0,1-1.4,2.1A3.8,3.8,0,0,1,501.7,245.1Zm0-5.8a2.8,2.8,0,0,0-1.3.3,2.6,2.6,0,0,0-1.1,1.6,2.3,2.3,0,0,0,.3,1.8,2.8,2.8,0,0,0,1.5,1.1,2.8,2.8,0,0,0,1.8-.3,2.7,2.7,0,0,0,1.1-1.5,2.5,2.5,0,0,0-.3-1.9,2.1,2.1,0,0,0-1.5-1Z" transform="translate(-28 -28)" style="fill:#00f0ff"/><path d="M499.9,290.7h-.7a3.1,3.1,0,0,1-2.1-1.4,3.5,3.5,0,0,1-.4-2.5,3.4,3.4,0,0,1,4-2.6,3.4,3.4,0,0,1,2.5,4A3.3,3.3,0,0,1,499.9,290.7Zm-.5-.9a2.4,2.4,0,0,0,2.9-1.8,2.5,2.5,0,0,0-1.8-2.9,2.6,2.6,0,0,0-2.9,1.8,2.2,2.2,0,0,0,.3,1.8A2.4,2.4,0,0,0,499.4,289.8Z" transform="translate(-28 -28)" style="fill:#00f0ff"/><path d="M525.1,217l-41.9,7.1.2.9,41.8-7.1Z" transform="translate(-28 -28)" style="fill:#00f0ff"/><path d="M509.8,231.1l-9.3-9.6.6-.7,9.1,9.4,16.3-1.8v.9Z" transform="translate(-28 -28)" style="fill:#00f0ff"/><path d="M527.4,233.8h-1.1a5.2,5.2,0,0,1-3.9-6.2,5.5,5.5,0,0,1,2.2-3.2,5.4,5.4,0,0,1,3.9-.6,4.8,4.8,0,0,1,3.2,2.3,4.9,4.9,0,0,1,.6,3.9,5.1,5.1,0,0,1-4.9,3.9Zm-.9-1a4.3,4.3,0,0,0,3.1-.6,4.2,4.2,0,0,0,1.9-2.6,4,4,0,0,0-.5-3.2,4.8,4.8,0,0,0-2.6-1.9,4,4,0,0,0-3.2.6,4.2,4.2,0,0,0-1.9,2.6A4.3,4.3,0,0,0,526.5,232.8Z" transform="translate(-28 -28)" style="fill:#00f0ff"/><path d="M499.5,287.3l-3.9,16.8.9.2,3.8-16.8Z" transform="translate(-28 -28)" style="fill:#00f0ff"/><path d="M482.7,301.5l-.2.8,31.2,7.1.2-.8Z" transform="translate(-28 -28)" style="fill:#00f0ff"/><path d="M481.3,308l-.2.9,22.1,5,.2-.8Z" transform="translate(-28 -28)" style="fill:#00f0ff"/><path d="M424.1,439.3l-3.6-17.8,22.2-27.2.7.5-22,26.9,3.6,17.4Z" transform="translate(-28 -28)" style="fill:#00f0ff"/><path d="M369.5,451.2l-.3-.8,32-15.4h.2l16.8,9.3-.4.7L401.1,436Z" transform="translate(-28 -28)" style="fill:#00f0ff"/><path d="M437.1,427.1l-1-.2a2.7,2.7,0,0,1-1.9-1.7,3.1,3.1,0,0,1-.2-2.5,2.9,2.9,0,0,1,1.7-1.9,3.3,3.3,0,0,1,4.4,1.5,3.4,3.4,0,0,1-1.5,4.5A3.7,3.7,0,0,1,437.1,427.1Zm0-5.7a1.9,1.9,0,0,0-1,.3,2.7,2.7,0,0,0-1.3,1.3,2.5,2.5,0,0,0,.1,1.9A2.3,2.3,0,0,0,438,426a2.3,2.3,0,0,0,1.1-3.2A2.1,2.1,0,0,0,437.1,421.4Z" transform="translate(-28 -28)" style="fill:#00f0ff"/><path d="M400.3,454.2h-1.1a3.5,3.5,0,0,1-1.9-1.7,3.4,3.4,0,0,1,1.6-4.5,4.3,4.3,0,0,1,2.5-.2,3.4,3.4,0,0,1,.4,6.2A2.9,2.9,0,0,1,400.3,454.2Zm0-5.6a2.2,2.2,0,0,0-1.1.2,2.5,2.5,0,0,0-1.1,3.3,2.8,2.8,0,0,0,1.4,1.2,2.3,2.3,0,0,0,1.8,0,2.5,2.5,0,0,0,1.1-3.3,3,3,0,0,0-1.4-1.3Z" transform="translate(-28 -28)" style="fill:#00f0ff"/><path d="M439.4,398.5l-.6.7,31.7,28.2.6-.7Z" transform="translate(-28 -28)" style="fill:#00f0ff"/><path d="M462.4,435.6l-12-12,1.9-13.3h.9l-1.8,12.8L463,435Z" transform="translate(-28 -28)" style="fill:#00f0ff"/><path d="M463.5,440.9a5.2,5.2,0,0,1-2.3-9.8,5.3,5.3,0,0,1,3.9-.2,5,5,0,0,1,2.9,2.6,5.3,5.3,0,0,1,.2,3.9,5,5,0,0,1-2.6,2.9A3.4,3.4,0,0,1,463.5,440.9Zm-3.9-3.3a4.2,4.2,0,0,0,5.6,2,4.7,4.7,0,0,0,2.2-2.4,5.3,5.3,0,0,0-.2-3.3,4.2,4.2,0,0,0-2.5-2.2,5.1,5.1,0,0,0-3.2.2A4.4,4.4,0,0,0,459.6,437.6Z" transform="translate(-28 -28)" style="fill:#00f0ff"/><path d="M400.1,450.6,384.6,458l.4.8,15.5-7.4Z" transform="translate(-28 -28)" style="fill:#00f0ff"/><path d="M378.6,446.4l-.8.3,13.8,28.8.8-.4Z" transform="translate(-28 -28)" style="fill:#00f0ff"/><path d="M372.6,449.2l-.9.4,9.8,20.4.9-.4Z" transform="translate(-28 -28)" style="fill:#00f0ff"/><path d="M234.9,487l-.7-.6,11.6-14,35.2.5v.9l-34.7-.5Z" transform="translate(-28 -28)" style="fill:#00f0ff"/><path d="M225.8,485.1l-3.3-18.7-31.6-15.2.4-.8,32,15.3,3.4,19.3Z" transform="translate(-28 -28)" style="fill:#00f0ff"/><path d="M254.4,490.2a2.4,2.4,0,0,1-1.4-.3,3.2,3.2,0,0,1-1.5-4.4,3.3,3.3,0,0,1,4.4-1.6,3.9,3.9,0,0,1,1.7,1.9,2.8,2.8,0,0,1-.2,2.5,3.4,3.4,0,0,1-1.9,1.8Zm-2.1-4.3a2.5,2.5,0,0,0,1.1,3.3,3.6,3.6,0,0,0,1.8.1,2.1,2.1,0,0,0,1.3-1.3,1.9,1.9,0,0,0,.1-1.8,2,2,0,0,0-1.3-1.4A2.2,2.2,0,0,0,252.3,485.9Z" transform="translate(-28 -28)" style="fill:#00f0ff"/><path d="M210.2,478.3a2.8,2.8,0,0,1-1.5-.4,3.3,3.3,0,0,1-1.5-4.4,3.9,3.9,0,0,1,1.9-1.7,2.5,2.5,0,0,1,2.5.2,3.3,3.3,0,0,1,1.6,4.4A3.1,3.1,0,0,1,210.2,478.3Zm.1-5.7-.8.2a2,2,0,0,0-1.4,1.3,2.4,2.4,0,0,0,4.4,2.1,2.6,2.6,0,0,0-1.1-3.2A2.1,2.1,0,0,0,210.3,472.6Z" transform="translate(-28 -28)" style="fill:#00f0ff"/><path d="M274.8,472.9l-2.3,42.3h.9l2.3-42.4Z" transform="translate(-28 -28)" style="fill:#00f0ff"/><path d="M261.9,514.1l-.9-.2,1.9-16.8,11.5-6.9.5.9-11,6.6Z" transform="translate(-28 -28)" style="fill:#00f0ff"/><path d="M261.5,520a6.8,6.8,0,0,1-2.3-.5,5.1,5.1,0,0,1-2.3-6.9,5.2,5.2,0,0,1,6.9-2.4,5.1,5.1,0,0,1,2.3,6.9,4.7,4.7,0,0,1-2.9,2.6A5.1,5.1,0,0,1,261.5,520Zm-4.3-7.1h.5a4.2,4.2,0,0,0,2,5.6,4,4,0,0,0,3.2.2,4.7,4.7,0,0,0,2.5-2.1,4.3,4.3,0,0,0-2-5.7,4.4,4.4,0,0,0-5.6,2Z" transform="translate(-28 -28)" style="fill:#00f0ff"/><path d="M194.9,467.1l-.4.8,15.5,7.5.4-.8Z" transform="translate(-28 -28)" style="fill:#00f0ff"/><path d="M199.6,454.8l-13.8,28.8.8.4,13.8-28.8Z" transform="translate(-28 -28)" style="fill:#00f0ff"/><path d="M193.5,451.9l-9.8,20.4.8.4,9.9-20.4Z" transform="translate(-28 -28)" style="fill:#00f0ff"/><path d="M78.1,220.5l-.8-.2,8.1-33.8L74.6,172.3l.7-.5,11,14.6h0Z" transform="translate(-28 -28)" style="fill:#00f0ff"/><path d="M97.9,165.8l-19.5-1.1v-.9l19,1.1,21.9-27.4.7.6Z" transform="translate(-28 -28)" style="fill:#00f0ff"/><path d="M70.3,194.8a4.4,4.4,0,0,1-2.1-.7,3.6,3.6,0,0,1-.5-4.8,3.4,3.4,0,0,1,4.7-.5,3.3,3.3,0,0,1,1.2,2.3,3,3,0,0,1-.7,2.4A3.5,3.5,0,0,1,70.3,194.8Zm0-5.7a2.2,2.2,0,0,0-1.9.9,2.9,2.9,0,0,0-.5,1.8,1.9,1.9,0,0,0,.9,1.6,2.4,2.4,0,0,0,3.3-.3,3.3,3.3,0,0,0,.6-1.9,2.2,2.2,0,0,0-1-1.6A1.7,1.7,0,0,0,70.3,189.1Z" transform="translate(-28 -28)" style="fill:#00f0ff"/><path d="M91.7,154.3a3.1,3.1,0,0,1-2-.7,3.4,3.4,0,0,1-.6-4.7,3.4,3.4,0,0,1,4.7-.5,3.6,3.6,0,0,1,1.3,2.2,3.7,3.7,0,0,1-.7,2.5A3.7,3.7,0,0,1,91.7,154.3Zm0-5.7a2.3,2.3,0,0,0-1.9,1,3.5,3.5,0,0,0-.5,1.8,2.9,2.9,0,0,0,.9,1.6,2.5,2.5,0,0,0,3.4-.4,3.5,3.5,0,0,0,.5-1.8,2.6,2.6,0,0,0-.9-1.6A1.7,1.7,0,0,0,91.7,148.6Z" transform="translate(-28 -28)" style="fill:#00f0ff"/><path d="M38.7,202.7l-.3.9,40.8,11.7.3-.9Z" transform="translate(-28 -28)" style="fill:#00f0ff"/><path d="M61.7,210.5l-4-12.3-15.5-5.6.2-.8,16,5.7,4.2,12.7Z" transform="translate(-28 -28)" style="fill:#00f0ff"/><path d="M41.4,197.2a4.5,4.5,0,0,1-3.1-1.1,4.7,4.7,0,0,1-1.9-3.4,4.8,4.8,0,0,1,1.1-3.8,5.2,5.2,0,0,1,7.2-.8,5.1,5.1,0,0,1,1.9,3.4,5.2,5.2,0,0,1-1.1,3.8,5.1,5.1,0,0,1-3.4,1.9Zm0-9.3a4.2,4.2,0,0,0-3.3,1.6,4.4,4.4,0,0,0-.9,3.1,4.3,4.3,0,0,0,1.5,2.8,4.3,4.3,0,0,0,6-.6,4.4,4.4,0,0,0,.9-3.1,4.3,4.3,0,0,0-4.2-3.8Z" transform="translate(-28 -28)" style="fill:#00f0ff"/><path d="M102.1,137.3,91.4,150.8l.7.5,10.7-13.4Z" transform="translate(-28 -28)" style="fill:#00f0ff"/><path d="M88.8,125.2l-.5.7,25,19.9.5-.7Z" transform="translate(-28 -28)" style="fill:#00f0ff"/><path d="M100.3,125.8l-.5.7,17.6,14.1.6-.7Z" transform="translate(-28 -28)" style="fill:#00f0ff"/><path d="M118.1,396.1,96.7,368.7l-17.8-.5v-.9l18.2.5,21.6,27.8Z" transform="translate(-28 -28)" style="fill:#00f0ff"/><path d="M75.4,360.6l-.7-.7,12.6-14.2-7.8-34.2h.9L88.3,346Z" transform="translate(-28 -28)" style="fill:#00f0ff"/><path d="M91.2,386.8a2.5,2.5,0,0,1-1.7-.6,3.1,3.1,0,0,1-1.5-2,3.4,3.4,0,0,1,.5-2.6,3.2,3.2,0,0,1,2.1-1.4,3.2,3.2,0,0,1,2.5.4,3.1,3.1,0,0,1,1.4,2.1,3.2,3.2,0,0,1-.4,2.5,3.2,3.2,0,0,1-2.1,1.5Zm0-5.7h-.5a2.6,2.6,0,0,0-1.6,1.1,2.7,2.7,0,0,0-.3,1.8,3.3,3.3,0,0,0,1.1,1.5,2,2,0,0,0,1.8.3,3.1,3.1,0,0,0,1.6-1.1,2.9,2.9,0,0,0,.3-1.8,3.1,3.1,0,0,0-1.1-1.6A5,5,0,0,0,91.2,381.1Z" transform="translate(-28 -28)" style="fill:#00f0ff"/><path d="M72.9,344.8a3.4,3.4,0,0,1-1.7-.5,3.1,3.1,0,0,1-1.4-2.1,3.4,3.4,0,0,1,2.5-4,3.5,3.5,0,0,1,4,2.5,3,3,0,0,1-.5,2.6,3.2,3.2,0,0,1-2.1,1.4Zm-.5-5.6a2.4,2.4,0,0,0-.7,4.4,1.9,1.9,0,0,0,1.8.3,2.7,2.7,0,0,0,1.5-1.1,1.9,1.9,0,0,0,.3-1.8A2.3,2.3,0,0,0,72.4,339.2Z" transform="translate(-28 -28)" style="fill:#00f0ff"/><path d="M114.9,390.6,80.3,415.2l.5.7,34.6-24.6Z" transform="translate(-28 -28)" style="fill:#00f0ff"/><path d="M74.6,406.2l-.5-.7,14.4-9,12.6,4.8-.4.8-12.1-4.6Z" transform="translate(-28 -28)" style="fill:#00f0ff"/><path d="M73.6,411.6a4.6,4.6,0,0,1-2.7-.9,4.9,4.9,0,0,1-2.2-3.1,5.3,5.3,0,0,1,.6-3.9,5,5,0,0,1,3.2-2.3,5.4,5.4,0,0,1,3.9.7,4.9,4.9,0,0,1,2.2,3.1,5.3,5.3,0,0,1-.6,3.9,5,5,0,0,1-3.2,2.3A2.2,2.2,0,0,1,73.6,411.6Zm-.9-9.3a4.8,4.8,0,0,0-2.6,1.9,4,4,0,0,0-.5,3.2,4.2,4.2,0,0,0,5,3.2,4.7,4.7,0,0,0,2.7-1.9,4,4,0,0,0,.5-3.2A4.3,4.3,0,0,0,72.7,402.3Z" transform="translate(-28 -28)" style="fill:#00f0ff"/><path d="M69.5,324.7l-.8.2,3.8,16.7.9-.2Z" transform="translate(-28 -28)" style="fill:#00f0ff"/><path d="M82,320.6l-31.1,7.1.2.9,31.1-7.1Z" transform="translate(-28 -28)" style="fill:#00f0ff"/><path d="M80.6,314.1l-22.1,5,.2.9,22.1-5Z" transform="translate(-28 -28)" style="fill:#00f0ff"/><path d="M189.7,79.6l-.4-.9,31.5-14.6,4.3-17.3.8.2-4.4,17.7Z" transform="translate(-28 -28)" style="fill:#00f0ff"/><path d="M280.2,60.9H244.8L233.4,45.1l.8-.5,11,15.4h35Z" transform="translate(-28 -28)" style="fill:#00f0ff"/><path d="M207.5,58.7a3.4,3.4,0,0,1-3.4-3.4,3.4,3.4,0,0,1,3.4-3.3,3.3,3.3,0,0,1,3.3,3.3A3.4,3.4,0,0,1,207.5,58.7Zm0-5.7a2.4,2.4,0,1,0,0,4.8,2.4,2.4,0,1,0,0-4.8Z" transform="translate(-28 -28)" style="fill:#00f0ff"/><path d="M252.5,50.2a3.3,3.3,0,0,1-3.3-3.3,3.2,3.2,0,0,1,3.3-3.3,3.3,3.3,0,1,1,0,6.6Zm0-5.6a2.4,2.4,0,0,0-2.4,2.4,2.5,2.5,0,1,0,2.4-2.4Z" transform="translate(-28 -28)" style="fill:#00f0ff"/><path d="M179,37.7l-.8.3,16.2,39.2.9-.3Z" transform="translate(-28 -28)" style="fill:#00f0ff"/><path d="M188,61l-.7-.4,7.1-10.9L189,34.1l.9-.3,5.5,16.1Z" transform="translate(-28 -28)" style="fill:#00f0ff"/><path d="M189,38.3A5.2,5.2,0,0,1,189,28a5.2,5.2,0,1,1,0,10.3Zm0-9.3a4.3,4.3,0,0,0,0,8.5,4.3,4.3,0,1,0,0-8.5Z" transform="translate(-28 -28)" style="fill:#00f0ff"/><path d="M269.7,46.5H252.5v.9h17.2Z" transform="translate(-28 -28)" style="fill:#00f0ff"/><path d="M270.9,28.5H270v32h.9Z" transform="translate(-28 -28)" style="fill:#00f0ff"/><path d="M277.6,37.9h-.9V60.5h.9Z" transform="translate(-28 -28)" style="fill:#00f0ff"/><ellipse cx="252.5" cy="237" rx="53.4" ry="53.4" style="fill:#fff"/><path d="M333.4,265a52.9,52.9,0,1,1-52.9-52.9A52.9,52.9,0,0,1,333.4,265Z" transform="translate(-28 -28)" style="fill:none;stroke:#fff"/></svg>