<svg xmlns="http://www.w3.org/2000/svg" viewBox="0 0 280.2 280.1"><title>center-inner</title><path d="M154.1,293A139.6,139.6,0,1,0,14.5,153.5,139.5,139.5,0,0,0,154.1,293Z" transform="translate(-14 -13.4)" style="fill:none;stroke:#fff;stroke-miterlimit:10;opacity:0.09090910106897354;isolation:isolate"/><path d="M154.1,279.4a125.9,125.9,0,1,0-126-125.9A126,126,0,0,0,154.1,279.4Z" transform="translate(-14 -13.4)" style="fill:none;stroke:#fff;stroke-miterlimit:10;opacity:0.1817999929189682;isolation:isolate"/><path d="M154.1,266.1A112.6,112.6,0,1,0,41.4,153.5,112.7,112.7,0,0,0,154.1,266.1Z" transform="translate(-14 -13.4)" style="fill:none;stroke:#fff;stroke-miterlimit:10;opacity:0.2727000117301941;isolation:isolate"/><path d="M154.1,253.2a99.7,99.7,0,1,0-99.7-99.7A99.7,99.7,0,0,0,154.1,253.2Z" transform="translate(-14 -13.4)" style="fill:none;stroke:#fff;stroke-miterlimit:10;opacity:0.3635999858379364;isolation:isolate"/><path d="M154.1,240.9a87.4,87.4,0,1,0-87.4-87.4A87.4,87.4,0,0,0,154.1,240.9Z" transform="translate(-14 -13.4)" style="fill:none;stroke:#fff;stroke-miterlimit:10;opacity:0.4544999897480011;isolation:isolate"/><path d="M154.1,229.6A76.1,76.1,0,1,0,78,153.5,76.1,76.1,0,0,0,154.1,229.6Z" transform="translate(-14 -13.4)" style="fill:none;stroke:#fff;stroke-miterlimit:10;opacity:0.5454999804496765;isolation:isolate"/><path d="M154.1,219.6A66.1,66.1,0,1,0,88,153.5,66.1,66.1,0,0,0,154.1,219.6Z" transform="translate(-14 -13.4)" style="fill:none;stroke:#fff;stroke-miterlimit:10;opacity:0.6363999843597412;isolation:isolate"/><path d="M154.1,211.7a58.2,58.2,0,1,0-58.3-58.2A58.2,58.2,0,0,0,154.1,211.7Z" transform="translate(-14 -13.4)" style="fill:none;stroke:#fff;stroke-miterlimit:10;opacity:0.7272999882698059;isolation:isolate"/><path d="M154.1,206.9a53.4,53.4,0,1,0-53.4-53.4A53.4,53.4,0,0,0,154.1,206.9Z" transform="translate(-14 -13.4)" style="fill:none;stroke:#fff;stroke-miterlimit:10;opacity:0.8181999921798706;isolation:isolate"/><path d="M154.1,206a52.5,52.5,0,1,0-52.5-52.5A52.5,52.5,0,0,0,154.1,206Z" transform="translate(-14 -13.4)" style="fill:none;stroke:#fff;stroke-miterlimit:10;opacity:0.9090999960899353;isolation:isolate"/><path d="M154.1,209.1a55.6,55.6,0,1,0-55.6-55.6A55.7,55.7,0,0,0,154.1,209.1Z" transform="translate(-14 -13.4)" style="fill:none;stroke:#fff;stroke-miterlimit:10"/></svg>