<svg width="185" height="183" viewBox="0 0 185 183" fill="none" xmlns="http://www.w3.org/2000/svg">
<g filter="url(#filter0_d)">
<path d="M4.98761 19.8727C5.61875 19.096 4.56685 17.1191 2.74355 14.0125C1.8319 12.3886 0.0787281 9.4232 0.499489 9.07017C0.920251 8.64655 3.58507 9.98803 5.19799 10.7647C8.00306 12.1768 9.82636 12.9534 10.5978 12.318C11.1588 11.8237 12.0003 11.8238 12.9821 11.8944C13.9638 11.8944 14.8755 11.8944 15.6469 11.4001C16.4884 10.8353 16.0677 8.85836 15.4365 5.68115C15.0859 3.91604 14.3846 1.02125 14.8755 0.738832C15.2963 0.527019 16.9092 2.22153 18.2416 3.70422L17.2598 1.58609C15.9975 0.315206 15.156 -0.24963 14.595 0.103393C13.6833 0.597625 14.1041 2.57455 14.8054 5.82236C15.2261 7.65808 15.8573 10.4823 15.3664 10.8353C14.8054 11.2589 13.9638 11.1883 13.1223 11.1883C12.0704 11.1883 11.0185 11.1883 10.3173 11.8238C9.89649 12.1768 7.37192 10.9765 5.68887 10.1292C2.74355 8.71715 0.92025 7.79929 0.218981 8.57594C-0.482288 9.35259 0.569614 11.2589 2.39291 14.3655C3.37469 16.06 5.05774 18.9548 4.7071 19.449C4.49672 19.7315 2.8838 19.3078 1.27088 18.8136L2.74355 20.0139C3.72532 20.2963 4.56684 20.2963 4.98761 19.8727Z" transform="translate(52.0226 38.1549)" fill="#00F0FF"/>
<path d="M1.05191 14.4739C0.981779 13.4149 0.911652 12.497 1.40254 12.0028C1.89343 11.5085 3.01545 11.8616 4.13748 12.2146C5.32964 12.5676 6.5218 12.9912 7.36333 12.4264C8.27497 11.8616 7.78408 9.53161 6.94256 5.78957C6.66205 4.5893 6.24129 2.68298 6.10104 1.34149L5.4699 1.07734e-06C5.18939 0.988465 5.61015 3.036 6.24129 5.93079C6.73218 7.97832 7.43345 11.5085 6.94256 11.8616C6.38154 12.2146 5.32964 11.8616 4.27774 11.5792C3.01546 11.1555 1.68305 10.7319 0.841523 11.5085C0.0701269 12.2146 0.140252 13.4149 0.280505 14.5445C0.350632 15.533 0.420763 16.5215 2.1401e-06 17.0863L0.561014 17.5099C1.26228 16.6627 1.12203 15.533 1.05191 14.4739Z" transform="translate(70.4044 53.9324)" fill="#00F0FF"/>
<path d="M0.841522 28.9583C0.771395 27.8286 0.771395 26.6283 1.19216 26.1341C1.61292 25.6398 3.57647 26.2753 5.04913 26.6989C7.08281 27.3344 8.76586 27.8286 9.53726 27.1225C9.95802 26.6989 11.7813 27.5462 13.1137 28.111C15.0072 28.9583 16.6201 29.6643 17.3915 29.0289C18.233 28.3228 17.6019 26.2753 16.8305 23.9453C16.3396 22.392 15.6383 19.9915 16.0591 19.6385C16.9006 19.0736 16.1292 16.7437 14.376 11.5189C13.4644 8.83596 11.9917 4.74089 12.4125 4.24666C13.0436 3.82304 13.815 3.2582 14.5864 2.69336C15.5682 1.91671 16.5499 1.14006 17.3213 0.716434C17.9525 0.575225 20.7576 3.82303 22.5809 5.94117C23.9834 7.56508 25.0353 8.76536 25.8768 9.61261L24.895 7.49447C24.2639 6.78843 23.6328 6.08238 23.1419 5.44694C19.5654 1.35188 17.9525 -0.413239 17.0408 0.0809927C16.1993 0.50462 15.1474 1.35188 14.1656 2.12853C13.3942 2.69336 12.693 3.2582 12.0618 3.68183C11.2203 4.24666 11.8514 6.4354 13.7449 11.8014C14.6565 14.4843 16.1292 18.65 15.7084 19.1442C14.7968 19.7797 15.4279 21.8272 16.1993 24.2278C16.6902 25.7811 17.3915 28.1816 16.9707 28.5346C16.4798 28.9583 14.7266 28.111 13.3942 27.5462C11.5008 26.6989 9.81776 25.9223 9.04637 26.6989C8.62561 27.1225 6.73218 26.5577 5.25952 26.1341C3.22584 25.4986 1.40254 24.9338 0.70127 25.7811C1.08677e-06 26.4871 0.0701258 27.8286 0.140253 29.1701C0.21038 30.0879 0.210382 31.0764 1.07005e-06 31.7118L0.561016 32.1355C0.981777 31.2176 0.911649 30.0879 0.841522 28.9583Z" transform="translate(33.3073 9.58246)" fill="#00F0FF"/>
<path d="M-5.29301e-07 0H0.0693775H-5.29301e-07Z" transform="translate(39.8992 76.5965)" fill="#00F0FF"/>
<path d="M11.9291 20.8989C11.7187 19.9105 9.54481 19.5575 5.96834 18.9926C4.14504 18.7102 0.778948 18.216 0.708821 17.7217C0.638694 17.1569 3.30352 15.8154 4.91643 15.1094C7.79164 13.7679 9.54481 12.85 9.47468 11.8616C9.47468 11.1555 10.0357 10.4495 10.5967 9.74343C11.2279 9.03738 11.7889 8.26073 11.859 7.34287C11.9291 6.35441 10.1759 5.36594 7.23062 3.95385C5.6177 3.1772 2.95288 1.83572 3.09314 1.27088C3.16326 0.847256 5.54758 0.635443 7.51113 0.494234L5.19694 -1.07734e-06C3.44377 0.211813 2.46199 0.494234 2.39187 1.20028C2.25161 2.25935 4.00479 3.1772 6.95011 4.5893C8.63316 5.43655 11.2279 6.70743 11.1577 7.27227C11.0876 7.97832 10.5967 8.61375 10.0357 9.2492C9.40455 10.0258 8.70329 10.8731 8.77341 11.8616C8.77341 12.4264 6.24885 13.6267 4.63593 14.4739C1.6906 15.886 -0.132702 16.8039 0.00755184 17.863C0.147806 18.922 2.32174 19.275 5.89821 19.7693C7.86176 20.0517 11.1577 20.5459 11.2279 21.1108C11.298 21.4638 10.0357 22.4522 8.56303 23.3701L10.3863 22.9465C11.5084 22.0286 12.0694 21.3932 11.9291 20.8989Z" transform="translate(34.6321 76.6671)" fill="#00F0FF"/>
<path d="M8.41522 12.497C7.5737 11.9322 6.73218 11.3673 6.73218 10.6613C6.66206 9.95524 7.64383 9.3198 8.62561 8.68436C9.67751 7.97832 10.7294 7.27227 10.7995 6.28381C10.8697 5.22474 8.83599 4.16567 5.39977 2.47116C4.27774 1.90632 2.52457 1.05907 1.47267 0.353023L-2.1401e-06 0C0.63114 0.847255 2.45444 1.76512 5.11926 3.1066C7.01269 4.02446 10.1684 5.57776 10.1684 6.2132C10.0983 6.84864 9.18662 7.48408 8.27497 8.11952C7.15294 8.89617 6.03091 9.67282 6.10104 10.7319C6.17117 11.791 7.15294 12.4264 8.13472 13.0618C8.90612 13.6267 9.74764 14.1209 9.88789 14.827L10.5892 14.6858C10.2385 13.6973 9.32687 13.0618 8.41522 12.497Z" transform="translate(55.257 80.1267)" fill="#00F0FF"/>
<path d="M2.6465e-07 -1.52588e-06H0.0693764H2.6465e-07Z" transform="translate(15.5652 71.0189)" fill="#00F0FF"/>
<path d="M12.6292 32.3369C11.7175 31.6308 10.7358 30.9954 10.6656 30.2894C10.5955 29.6539 12.2786 28.4536 13.5408 27.6064C15.294 26.4061 16.7667 25.4176 16.6966 24.3586C16.6264 23.7231 18.4497 22.8053 19.712 22.1698C21.5353 21.252 23.1482 20.4047 23.0781 19.3456C23.0781 18.2866 21.1145 17.5099 18.8004 16.5921C17.2576 16.0272 15.0135 15.1094 15.0135 14.4739C15.0836 13.4855 12.7694 12.5676 7.65018 10.7319C4.91523 9.81404 0.847875 8.40194 0.707621 7.7665C0.777748 6.98985 0.777748 6.07199 0.847875 5.08353C0.847875 3.88325 0.918001 2.61237 1.05826 1.69451C1.33876 1.12967 5.54638 0.917857 8.35145 0.776648C10.4553 0.706043 12.0682 0.564839 13.2603 0.494234L10.9461 -1.07734e-06C10.0345 0.0706035 9.05272 0.0706067 8.28132 0.141211C2.88155 0.353025 0.49724 0.564838 0.356986 1.62391C0.146606 2.61237 0.146606 3.88325 0.146606 5.15413C0.146606 6.1426 0.146606 7.06045 0.00635195 7.7665C-0.133902 8.75496 2.04003 9.67283 7.36968 11.5085C10.0345 12.4264 14.172 13.9091 14.3122 14.5445C14.2421 15.6742 16.2758 16.4509 18.5198 17.2981C20.0626 17.863 22.3067 18.7808 22.3768 19.4163C22.3768 20.0517 20.6237 20.8989 19.3614 21.605C17.4679 22.5935 15.855 23.4407 15.9252 24.4998C15.9953 25.1352 14.3824 26.1943 13.1201 27.1122C11.3669 28.3124 9.82412 29.3715 9.96437 30.5012C10.1046 31.4896 11.2267 32.2663 12.2084 33.0429C12.9798 33.6078 13.7512 34.1726 14.0317 34.7374L14.733 34.5962C14.4525 33.6784 13.5408 32.9723 12.6292 32.3369Z" transform="translate(4.61903 71.0189)" fill="#00F0FF"/>
<path d="M21.355 9.39041C21.2147 9.31981 21.1446 9.3198 21.0043 9.3198C20.0226 9.3198 18.4798 10.7319 16.2357 12.9206C14.9033 14.1915 12.3787 16.5215 11.958 16.2391C11.4671 15.9566 12.1683 12.9912 12.519 11.2261C13.2203 8.11952 13.641 6.2132 12.8696 5.57776C12.3086 5.15413 12.0982 4.23628 11.8878 3.38902C11.6775 2.47116 11.4671 1.4827 10.8359 0.847255C10.0645 0.141209 8.24125 0.988468 5.36604 2.32995C3.75313 3.10661 1.08831 4.37748 0.667545 3.95385C0.387038 3.60083 1.64932 1.62391 2.84148 2.15468e-06L1.01818 1.48269C0.10653 2.96539 -0.244108 3.95386 0.176654 4.44809C0.877923 5.22474 2.70122 4.37748 5.64655 2.96539C7.3296 2.18874 9.92429 0.917857 10.3451 1.34148C10.8359 1.83572 11.0463 2.61237 11.1866 3.45962C11.397 4.44809 11.6073 5.50715 12.3787 6.07199C12.8696 6.42501 12.2385 9.17859 11.7476 10.9437C10.9762 14.1209 10.5554 16.1684 11.4671 16.6627C12.3787 17.2275 13.9917 15.7448 16.5863 13.2031C18.059 11.8616 20.4433 9.60222 20.9342 9.81403C21.2848 9.95524 21.2147 11.5791 21.0745 13.3443L21.916 11.6498C22.0562 10.5201 21.8459 9.67283 21.355 9.39041Z" transform="translate(49.4001 120.936)" fill="#00F0FF"/>
<path d="M17.0408 5.60573C16.4097 5.60573 15.7084 5.81753 15.0071 6.02935C14.0254 6.31176 13.1137 6.66479 12.5527 6.24116C11.9917 5.81753 12.0618 4.68787 12.1319 3.48759C12.2021 2.21671 12.3423 0.94582 11.6411 0.239774C10.8697 -0.466271 8.76586 0.451586 5.32964 2.1461C4.20761 2.71093 2.45444 3.48758 1.19216 3.91121L-2.1401e-06 4.82907C1.0519 4.82907 2.8752 3.98182 5.61015 2.71093C7.50357 1.79307 10.7294 0.239772 11.1502 0.734004C11.6411 1.22824 11.5709 2.28731 11.4307 3.41698C11.2904 4.75847 11.2203 6.17056 12.1319 6.806C12.9735 7.44144 14.0955 7.01782 15.2175 6.66479C16.1292 6.38238 17.0408 6.09995 17.7421 6.38237L18.0226 5.74693C17.672 5.67633 17.3213 5.60573 17.0408 5.60573Z" transform="translate(62.6203 107.776)" fill="#00F0FF"/>
<path d="M31.78 20.4047C30.6579 20.6871 29.5359 21.0402 28.9048 20.6871C28.3437 20.4047 28.484 18.2866 28.6242 16.8039C28.7645 14.6857 28.9048 12.9206 28.0632 12.2852C27.5723 11.9322 27.923 9.95524 28.2035 8.54315C28.6242 6.49562 28.9749 4.7305 28.1334 4.09506C27.2918 3.45962 25.4685 4.51869 23.3647 5.71897C21.9622 6.56622 19.8584 7.76651 19.3675 7.41348C18.5961 6.77804 16.4923 7.97832 11.8639 10.8731C9.47961 12.4264 5.83302 14.6857 5.272 14.4033C4.71099 13.8385 4.00972 13.2737 3.23832 12.6382C2.32667 11.8616 1.34489 11.0849 0.713752 10.3789C0.433245 9.74343 2.95781 6.35441 4.57073 4.09506C5.83302 2.40055 6.74466 1.05907 7.37581 4.30936e-06L5.55251 1.48269C4.99149 2.25934 4.43048 3.036 4.00971 3.67144C0.854005 8.04892 -0.478404 10.0965 0.152738 10.8731C0.78388 11.5791 1.76566 12.4264 2.74743 13.2031C3.51883 13.8385 4.2201 14.4033 4.71098 14.8976C5.41225 15.6036 7.44593 14.4739 12.2146 11.4379C14.5989 9.88464 18.2455 7.62529 18.8766 7.90771C19.7181 8.61376 21.5414 7.55469 23.6452 6.28381C25.0478 5.43655 27.1516 4.23628 27.6425 4.5893C28.1334 4.94232 27.7126 6.91924 27.4321 8.33133C27.0113 10.4495 26.6607 12.2146 27.5723 12.85C28.0632 13.2031 27.923 15.1094 27.8529 16.6627C27.7126 18.8514 27.5723 20.6871 28.484 21.252C29.3255 21.7462 30.6579 21.3932 31.8501 21.0402C32.7617 20.7577 33.6734 20.5459 34.3045 20.6165L34.585 19.9811C33.8838 19.7693 32.8319 20.1223 31.78 20.4047Z" transform="translate(25.2302 136.681)" fill="#00F0FF"/>
<path d="M18.794 0.0871302C17.8824 0.510758 18.0226 2.77011 18.3031 6.37094C18.4434 8.20666 18.7239 11.6663 18.233 11.8075C17.672 12.0193 15.8487 9.61875 14.7266 8.20665C12.7631 5.73549 11.5008 4.18219 10.5892 4.46461C9.88789 4.67642 9.11649 4.2528 8.27497 3.82917C7.43345 3.40555 6.5218 2.98192 5.68028 3.12313C4.6985 3.26434 4.20761 5.24126 3.43622 8.41847C3.01546 10.1836 2.31419 13.0784 1.75317 13.0784C1.33241 13.0784 0.561016 10.819 1.07005e-06 8.9127V11.2427C0.561016 12.9372 1.12203 13.7844 1.75317 13.7844C2.80508 13.7138 3.29596 11.7369 4.06736 8.55968C4.48812 6.72396 5.11927 3.89978 5.75041 3.82917C6.45168 3.75857 7.15294 4.11159 7.92434 4.46461C8.83599 4.88824 9.74763 5.38247 10.7294 5.17066C11.2904 5.02945 13.0436 7.21819 14.1656 8.70088C16.1993 11.3133 17.4616 12.8666 18.4434 12.5135C19.4251 12.1605 19.2849 9.90117 19.0044 6.30033C18.8641 4.32341 18.5836 1.005 19.0745 0.722578C19.4251 0.581369 20.6173 1.64043 21.8796 2.77011L21.0381 1.0756C19.9862 0.228346 19.2849 -0.195288 18.794 0.0871302Z" transform="translate(92.5645 131.722)" fill="#00F0FF"/>
<path d="M10.3086 2.61237C9.95801 3.60083 9.60738 4.51869 8.90611 4.6599C8.20484 4.87171 7.36332 4.02446 6.5218 3.24781C5.61015 2.40055 4.6985 1.4827 3.71672 1.62391C2.66482 1.76512 2.10381 4.02446 1.19216 7.7665C0.911651 8.96678 0.490886 10.8731 -2.1401e-06 12.144V13.6267C0.701267 12.85 1.19216 10.8731 1.8233 7.90771C2.31419 5.86018 3.08558 2.40056 3.71672 2.25935C4.34787 2.18874 5.18939 2.96539 5.96078 3.67144C6.94256 4.5893 7.92434 5.57776 8.97624 5.22474C9.95802 4.94232 10.3788 3.81264 10.7995 2.75358C11.1502 1.83572 11.5008 0.917857 12.132 0.635439L11.8514 2.15468e-06C11.0801 0.494234 10.7294 1.5533 10.3086 2.61237Z" transform="translate(92.4242 113.523)" fill="#00F0FF"/>
<path d="M30.926 7.30853C30.5052 8.3676 30.0143 9.42666 29.3832 9.70908C28.8222 9.9209 27.2794 8.5088 26.1573 7.52034C24.6145 6.10824 23.2821 4.83737 22.3003 5.19039C21.7393 5.40221 20.4069 3.84891 19.4953 2.71923C18.1629 1.16593 17.0408 -0.246159 15.9889 0.0362592C14.937 0.318677 14.6565 2.43682 14.3059 4.83737C14.0955 6.46128 13.6747 8.93243 13.1137 9.00304C12.132 9.14425 11.7813 11.6154 11.1502 17.052C10.7995 19.8761 10.3788 24.183 9.74764 24.4654C8.97624 24.536 8.0646 24.7479 7.15295 24.9597C5.96079 25.2421 4.6985 25.4539 3.85697 25.5245C3.22583 25.3833 2.10381 21.2882 1.40254 18.5347C0.841524 16.4871 0.420762 14.9338 1.07005e-06 13.7335V16.0635C0.280509 16.9814 0.490889 17.8992 0.70127 18.6759C2.10381 23.9006 2.8752 26.1599 3.85697 26.1599C4.83875 26.0893 6.10104 25.8775 7.2932 25.5951C8.20485 25.3833 9.11649 25.1715 9.81776 25.1009C10.7995 24.9597 11.2203 22.7003 11.7813 17.052C12.1319 14.2278 12.5527 9.85029 13.1839 9.56787C14.2358 9.35606 14.5864 7.23792 14.937 4.76676C15.1474 3.14286 15.5682 0.671698 16.1292 0.530489C16.6902 0.38928 17.9525 1.87198 18.9343 3.00165C20.2667 4.62555 21.4588 6.03765 22.5107 5.68462C23.0717 5.47281 24.5444 6.81429 25.6664 7.87336C27.2794 9.35605 28.6118 10.6269 29.5935 10.2033C30.5052 9.85029 31.0662 8.57941 31.5571 7.44974C31.9077 6.60248 32.3285 5.68462 32.8194 5.26099L32.5389 4.62556C31.7675 5.261 31.3467 6.32007 30.926 7.30853Z" transform="translate(92.5645 151.966)" fill="#00F0FF"/>
<path d="M6.00105 1.12967C5.79067 2.11813 7.61397 3.38902 10.5593 5.43655C12.1021 6.49562 14.9072 8.40194 14.7669 8.89617C14.5565 9.46101 11.6112 9.46101 9.7879 9.46101C6.63219 9.46101 4.66864 9.46101 4.24788 10.3789C3.96737 11.0849 3.12585 11.4379 2.28432 11.791C1.4428 12.2146 0.531148 12.6382 0.110387 13.4149C-0.380501 14.3327 0.811658 15.886 2.77521 18.4278C3.89724 19.8399 5.72054 22.1698 5.3699 22.6641C5.0894 23.0171 2.91546 22.1698 1.02204 21.4638L2.84534 22.9465C4.45826 23.5113 5.51016 23.6525 5.93092 23.0877C6.56206 22.2404 5.29978 20.6165 3.33623 18.0042C2.14407 16.5215 0.390901 14.2621 0.741535 13.7679C1.09217 13.2031 1.79344 12.85 2.63496 12.4264C3.54661 12.0028 4.52839 11.5791 4.94915 10.6613C5.15953 10.0964 7.9646 10.1671 9.7879 10.1671C13.0839 10.1671 15.0474 10.1671 15.398 9.1786C15.7487 8.19013 13.9254 6.91925 10.9099 4.87172C9.29702 3.74204 6.56206 1.90632 6.63219 1.34149C6.70232 0.988464 8.31524 0.635439 9.99828 0.423625L8.17498 4.30936e-06C6.91269 0.211818 6.14131 0.564834 6.00105 1.12967Z" transform="translate(131.725 99.6137)" fill="#00F0FF"/>
<path d="M4.89188 3.03599C5.38276 3.95385 5.87365 4.73051 5.66326 5.43655C5.38276 6.07199 4.26073 6.2838 3.1387 6.42501C1.87642 6.63683 0.614133 6.77803 0.123245 7.62529C-0.43777 8.54315 0.964772 10.4495 3.34909 13.4149C4.12048 14.4033 5.31263 15.9566 6.0139 17.0157L7.20606 17.9336C6.99568 16.9451 5.80352 15.3212 3.91009 12.9206C2.57768 11.2261 0.403748 8.47255 0.754383 7.90771C1.10502 7.34288 2.22705 7.20167 3.27895 6.98985C4.61137 6.77804 5.94377 6.56622 6.36453 5.57776C6.7853 4.5893 6.15416 3.60083 5.59314 2.54176C5.10226 1.69451 4.61137 0.847257 4.75162 0.141211L4.05035 -1.07734e-06C3.76985 1.12967 4.33086 2.11813 4.89188 3.03599Z" transform="translate(115.303 94.6712)" fill="#00F0FF"/>
<path d="M4.2344e-06 6.10352e-06H0.0693744H4.2344e-06Z" transform="translate(152.313 136.681)" fill="#00F0FF"/>
<path d="M15.0825 2.75357C15.6436 3.74204 16.2046 4.80111 15.9942 5.50716C15.7838 6.1426 13.7501 6.42501 12.2775 6.63683C10.1737 6.98985 8.42049 7.20167 8.06985 8.19013C7.85947 8.75497 5.82579 8.82557 4.35313 8.89618C2.31945 8.96678 0.496146 8.96678 0.0753846 9.95525C-0.345377 10.9437 1.05716 12.497 2.74021 14.3327C3.86224 15.533 5.54529 17.3687 5.26478 17.863C4.77389 18.7102 6.45693 20.5459 10.3139 24.4292C12.3476 26.4767 15.363 29.5127 15.2228 30.1481C14.802 30.7836 14.3813 31.6308 13.9605 32.4781C13.3995 33.5372 12.8385 34.7374 12.3476 35.4435C11.8567 35.7965 7.9296 34.1726 5.40503 33.0429C3.51161 32.1957 1.96881 31.5602 0.846785 31.1366L2.67008 32.6193C3.5116 32.9723 4.42325 33.3254 5.12452 33.6784C10.1035 35.7965 12.3476 36.6438 12.9086 35.8671C13.4696 35.0905 14.0306 33.8902 14.5916 32.8311C15.0124 31.9839 15.4332 31.1366 15.7838 30.5012C16.3448 29.6539 14.7319 27.8888 10.8048 23.9349C8.77112 21.8874 5.75566 18.8514 5.89592 18.216C6.38681 17.2275 4.98427 15.6742 3.30123 13.8385C2.1792 12.6382 0.496146 10.8025 0.776653 10.2377C1.05716 9.67283 3.02071 9.60223 4.42325 9.60223C6.52706 9.53162 8.35036 9.53162 8.77112 8.47255C8.9815 7.90771 10.8749 7.62529 12.4177 7.34287C14.5215 6.98985 16.4149 6.70744 16.6955 5.71897C16.976 4.73051 16.3448 3.60083 15.7137 2.47116C15.2929 1.6239 14.802 0.776648 14.802 0.141207L14.1008 0C14.0306 0.77665 14.5215 1.76511 15.0825 2.75357Z" transform="translate(151.606 105.544)" fill="#00F0FF"/>
<path d="M0.168908 3.60084C0.80005 4.37749 2.90386 3.81265 6.34008 2.68297C8.09325 2.11814 11.3191 1.05907 11.6697 1.5533C12.0204 2.04753 10.1269 4.37748 9.0049 5.78958C7.04135 8.26074 5.84919 9.81404 6.26996 10.7319C6.62059 11.3673 6.4102 12.2146 6.19982 13.1325C5.98944 14.0503 5.77907 15.0388 6.05957 15.886C6.41021 16.8039 8.44389 16.8745 11.6697 16.9451C13.4229 16.9451 16.4384 17.0157 16.5786 17.5099C16.7189 17.9336 14.6852 19.1338 12.932 20.1223L15.2462 19.6281C16.7189 18.7102 17.4903 18.0042 17.2799 17.2981C16.9994 16.3097 14.9657 16.239 11.6697 16.239C9.7763 16.239 6.97122 16.1684 6.69071 15.6742C6.4102 15.0388 6.62058 14.2621 6.83096 13.3443C7.04134 12.3558 7.32185 11.2967 6.83096 10.4495C6.55045 9.95524 8.30363 7.7665 9.49579 6.28381C11.5295 3.74204 12.7918 2.11814 12.2307 1.20028C11.6697 0.353024 9.56591 0.917858 6.12969 2.04753C4.23627 2.68297 1.08056 3.67144 0.729925 3.1772C0.519545 2.89479 1.22081 1.41209 2.13246 -2.15468e-06L0.659805 1.20028C0.028663 2.40056 -0.181726 3.17721 0.168908 3.60084Z" transform="translate(129.913 56.9685)" fill="#00F0FF"/>
<path d="M2.8752 1.69451C3.85698 1.83572 4.83876 1.97693 5.18939 2.61237C5.54003 3.24781 4.97901 4.23627 4.34787 5.22473C3.71673 6.2838 3.08558 7.41348 3.43622 8.33134C3.78685 9.3198 6.17117 9.3904 9.95802 9.3904C11.2203 9.3904 13.1137 9.39041 14.4461 9.53162L15.9188 9.17859C15.0072 8.68436 12.9735 8.68436 9.95802 8.61376C7.85422 8.61376 4.27774 8.61376 4.06736 7.97831C3.85698 7.34287 4.41799 6.35441 4.90888 5.43655C5.61015 4.30688 6.31142 3.1066 5.75041 2.11814C5.25952 1.20028 4.06736 1.05907 2.94533 0.847255C2.03368 0.706046 1.0519 0.564839 0.561013 2.15468e-06L-4.28021e-06 0.423628C0.631138 1.41209 1.75317 1.5533 2.8752 1.69451Z" transform="translate(113.953 70.8069)" fill="#00F0FF"/>
<path d="M3.83988 1.12967C4.96191 1.34149 6.15407 1.5533 6.5047 2.11814C6.85534 2.61237 5.80343 4.44809 5.10216 5.78958C4.05026 7.62529 3.13861 9.17859 3.69963 10.0965C4.05026 10.6613 2.78798 12.2146 1.94645 13.4149C0.68417 15.0388 -0.367738 16.5215 0.12315 17.4393C0.614039 18.4278 2.71784 18.216 5.17228 18.0748C6.7852 17.9336 9.23965 17.7217 9.52016 18.2866C9.94092 19.2044 12.3252 19.0632 17.7951 18.4278C20.6002 18.0748 24.8779 17.6511 25.2987 18.1454C25.5091 18.8514 25.9298 19.6987 26.3506 20.6165C26.8415 21.7462 27.4025 22.8759 27.6129 23.7231C27.6129 24.3586 23.8962 26.4061 21.4417 27.7476C19.6184 28.7361 18.1458 29.5127 17.0939 30.2188L19.408 29.7245C20.2496 29.3009 21.021 28.8067 21.7924 28.4536C26.561 25.9119 28.5947 24.641 28.3142 23.6525C28.0336 22.7347 27.5428 21.5344 26.9817 20.4047C26.561 19.5575 26.2104 18.7102 25.9298 18.0042C25.5792 17.0157 23.265 17.2275 17.725 17.863C14.9199 18.216 10.5721 18.6396 10.2214 18.1454C9.80067 17.1569 7.69685 17.2981 5.17228 17.5099C3.55937 17.6511 1.10493 17.863 0.824419 17.2981C0.543912 16.7333 1.73607 15.18 2.57759 14.0503C3.83988 12.3558 4.96191 10.8731 4.40089 9.95525C4.05026 9.39041 5.03204 7.7665 5.80343 6.35441C6.85534 4.44809 7.83711 2.82418 7.20597 1.97693C6.64495 1.12967 5.31254 0.91786 4.05026 0.706046C3.13861 0.564837 2.15683 0.353023 1.66594 5.3867e-07L1.10493 0.423627C1.66595 0.706045 2.78797 0.917859 3.83988 1.12967Z" transform="translate(150.156 41.4354)" fill="#00F0FF"/>
<path d="M22.7912 6.07864C21.8095 5.65501 20.5472 7.20831 18.4434 9.82068C17.2512 11.3034 15.498 13.4921 14.937 13.3509C14.3059 13.1391 13.815 12.5037 13.254 11.7976C12.6228 11.021 11.9917 10.1737 11.0099 9.96189C10.4489 9.82068 9.81776 7.13771 9.46712 5.30199C8.76586 2.05418 8.27497 0.0772553 7.22307 0.00665073C6.17116 -0.134558 5.32964 1.98358 4.06736 5.3726C3.36609 7.20831 2.17393 10.3149 1.61292 10.3149C1.26228 10.3149 0.561016 8.83222 1.07005e-06 7.20831V9.11464C0.561016 10.3855 1.0519 11.021 1.61292 11.021C2.66482 11.021 3.50634 8.97343 4.76863 5.58441C5.39977 3.8899 6.66205 0.712696 7.22307 0.712696C7.78408 0.783301 8.48535 3.67809 8.83599 5.4432C9.53726 8.5498 9.95802 10.4561 10.9398 10.6679C11.6411 10.8091 12.2021 11.5152 12.7631 12.2212C13.3241 12.9979 13.9552 13.7745 14.7968 13.9864C15.7785 14.2688 17.0408 12.7155 19.0745 10.2443C20.1965 8.83222 22.09 6.50227 22.5809 6.71408C23.0016 6.85529 22.651 9.25585 22.3705 11.2328L23.3522 9.11464C23.5626 7.34952 23.4224 6.36106 22.7912 6.07864Z" transform="translate(92.5645 30.6263)" fill="#00F0FF"/>
<path d="M16.6201 1.07734e-06C15.7084 0.423629 14.376 1.97693 12.4826 4.30688C11.1502 5.93078 8.90611 8.75497 8.3451 8.54315C7.71395 8.33134 7.29319 7.27227 6.94256 6.28381C6.45167 5.01293 5.96078 3.74204 4.83875 3.53023C3.78685 3.38902 2.94533 4.16567 2.10381 5.01292C1.40254 5.64837 0.701271 6.35441 2.1401e-06 6.35441V7.06046C0.981778 7.06046 1.8233 6.2838 2.59469 5.50715C3.36609 4.80111 4.06736 4.09507 4.76863 4.23628C5.4699 4.37748 5.89066 5.43655 6.31142 6.49562C6.73218 7.62529 7.22307 8.89618 8.20485 9.17859C9.18662 9.53162 10.7294 7.6959 13.1137 4.7305C13.8851 3.74204 15.1474 2.25935 16.0591 1.34149L16.6201 1.07734e-06Z" transform="translate(92.4944 53.9324)" fill="#00F0FF"/>
<path d="M2.38431 6.96032C3.22583 6.18367 4.13748 5.40702 4.83875 5.47762C5.46989 5.54823 6.24129 7.45455 6.80231 8.86664C7.5737 10.8436 8.20484 12.5381 9.25675 12.6793C9.88789 12.7499 10.3788 14.7268 10.7294 16.1389C11.2203 18.1158 11.7112 19.881 12.693 20.0928C13.7449 20.3046 14.937 18.5395 16.3396 16.4919C17.2512 15.1504 18.6537 13.1029 19.2148 13.2441C20.1965 13.5265 21.5289 11.479 24.4743 6.81911C26.0171 4.41855 28.2611 0.747117 28.8923 0.747117C29.5935 1.02954 30.5052 1.24135 31.487 1.45316C32.6791 1.73558 33.8713 2.018 34.7128 2.37102C35.2037 2.79465 34.4323 6.96032 33.9414 9.7139C33.5908 11.7614 33.3103 13.3853 33.17 14.6562L34.2219 12.5381C34.3622 11.6202 34.5726 10.7024 34.7128 9.8551C35.6946 4.48916 35.9751 2.15921 35.0634 1.73558C34.1518 1.31195 32.8895 1.02954 31.6973 0.747117C30.7857 0.535304 29.8741 0.32349 29.1728 0.0410717C28.191 -0.311951 26.9287 1.59437 23.9133 6.39548C22.3705 8.79604 20.1264 12.5381 19.4251 12.5381C18.3732 12.2557 17.1811 14.0208 15.7785 16.0683C14.8669 17.4098 13.5345 19.4573 12.9033 19.3867C12.3423 19.2455 11.8514 17.3392 11.4307 15.9271C10.9398 13.8796 10.4489 12.1145 9.397 11.9026C8.76586 11.832 8.06459 9.99631 7.50357 8.58422C6.73218 6.53669 6.03092 4.84218 4.97901 4.77158C3.99724 4.70097 3.01545 5.54823 2.03368 6.46609C1.33241 7.10153 0.631142 7.73697 0 7.87818V8.58422C0.701269 8.44301 1.54279 7.66636 2.38431 6.96032Z" transform="translate(92.6346 4.53882)" fill="#00F0FF"/>
<path d="M13.5345 19.449C13.1839 18.9548 14.8669 16.1306 15.8487 14.3655C17.672 11.2589 18.7239 9.28199 18.0226 8.57594C17.3213 7.79929 15.4279 8.64655 12.5527 10.1292C10.8697 10.9765 8.41523 12.1768 7.92434 11.8238C7.15294 11.1883 6.10104 11.1883 5.11926 11.1883C4.27774 11.1883 3.43622 11.1883 2.87521 10.8353C2.38432 10.4823 3.01545 7.72868 3.43621 5.82236C4.13748 2.57455 4.55824 0.597625 3.6466 0.103393C3.01545 -0.24963 2.17393 0.315206 0.981772 1.58609L0 3.70422C1.33241 2.22153 2.94533 0.527019 3.36609 0.738832C3.85698 1.02125 3.22584 3.91604 2.80507 5.68115C2.10381 8.85836 1.75318 10.8353 2.52457 11.4001C3.29597 11.8944 4.27774 11.8944 5.18938 11.8944C6.10103 11.8944 7.01269 11.8944 7.5737 12.318C8.3451 12.9534 10.0983 12.1062 12.9735 10.7647C14.5864 9.98803 17.2512 8.64655 17.672 9.07017C18.0927 9.4938 16.3396 12.4592 15.4279 14.0125C13.6046 17.1191 12.5527 19.0254 13.1839 19.8727C13.5345 20.2963 14.376 20.2963 15.7084 19.9433L17.1811 18.8136C15.2877 19.3078 13.7449 19.7315 13.5345 19.449Z" transform="translate(115.075 38.1549)" fill="#00F0FF"/>
<path d="M1.0519 -5.3867e-07L-2.1401e-06 2.11814L1.0519 -5.3867e-07Z" transform="translate(114.865 39.7409)" fill="#00F0FF"/>
<path d="M7.54152 14.5445C7.61165 13.4149 7.7519 12.2146 6.9805 11.5085C6.13898 10.7319 4.8767 11.1555 3.54429 11.5792C2.49239 11.9322 1.44048 12.2146 0.879465 11.8616C0.388577 11.5085 1.08985 8.04892 1.58073 5.93079C2.21188 2.96539 2.63263 0.988465 2.35212 1.07734e-06L1.72099 1.34149C1.58073 2.61237 1.15997 4.51869 0.879465 5.78957C0.0379421 9.53161 -0.382823 11.8616 0.458699 12.4264C1.30022 12.9912 2.49238 12.5676 3.68454 12.2146C4.73644 11.8616 5.85847 11.5085 6.41948 12.0028C6.91037 12.497 6.84025 13.4855 6.77012 14.4739C6.69999 15.6036 6.55974 16.7333 7.19088 17.5099L7.7519 17.0863C7.40127 16.4509 7.47139 15.4624 7.54152 14.5445Z" transform="translate(106.692 53.9324)" fill="#00F0FF"/>
<path d="M0.631142 1.07734e-06L4.28021e-06 1.34149L0.631142 1.07734e-06Z" transform="translate(108.483 53.9324)" fill="#00F0FF"/>
<path d="M25.7366 29.1701C25.8067 27.8992 25.8768 26.5577 25.1755 25.7811C24.4743 25.0044 22.651 25.4986 20.6173 26.1341C19.1446 26.5577 17.2512 27.1931 16.8305 26.6989C16.0591 25.9223 14.376 26.6989 12.4826 27.5462C11.1502 28.111 9.397 28.9583 8.90611 28.5346C8.41523 28.111 9.18663 25.7811 9.67751 24.2278C10.3788 21.8272 11.08 19.7797 10.1684 19.1442C9.74764 18.65 11.1502 14.5549 12.132 11.8014C14.0254 6.4354 14.6565 4.24666 13.815 3.68183C13.1839 3.3288 12.4826 2.76397 11.7112 2.12852C10.7294 1.35187 9.67751 0.575225 8.83598 0.0809928C7.92433 -0.413239 6.31142 1.35188 2.73495 5.44694C2.17393 6.08238 1.61292 6.78843 0.981774 7.49447L2.1401e-06 9.61261C0.841525 8.69475 1.96355 7.49447 3.29596 5.94117C5.11926 3.82304 7.85421 0.645829 8.55548 0.716434C9.32688 1.14006 10.3788 1.91671 11.2904 2.69336C12.0618 3.3288 12.8332 3.89364 13.3942 4.24666C13.815 4.74089 12.4125 8.83596 11.4307 11.5189C9.60739 16.7437 8.90611 19.0736 9.74763 19.6385C10.2385 19.9915 9.46713 22.3214 8.97624 23.9453C8.27498 26.2753 7.64383 28.3228 8.41523 29.0289C9.18662 29.7349 10.8697 28.9583 12.693 28.111C14.0254 27.4756 15.8487 26.6989 16.2694 27.1225C17.0408 27.8286 18.7239 27.3344 20.7576 26.6989C22.2302 26.2753 24.1938 25.6398 24.6145 26.1341C25.1054 26.6283 25.0353 27.8286 24.9652 28.9583C24.895 30.0879 24.895 31.2176 25.2457 31.9943L25.8067 31.5706C25.6664 31.0764 25.6664 30.0879 25.7366 29.1701Z" transform="translate(125.805 9.44128)" fill="#00F0FF"/>
<path d="M-2.1401e-06 2.18874L0.981781 5.3867e-07L-2.1401e-06 2.18874Z" transform="translate(125.735 17.0768)" fill="#00F0FF"/>
<path d="M0.722524 21.1108C0.862778 20.5459 4.15873 20.0517 6.05216 19.7693C9.62863 19.275 11.8026 18.922 11.9428 17.863C12.0831 16.8039 10.2598 15.886 7.31445 14.4739C5.6314 13.6973 3.10684 12.497 3.17697 11.8616C3.17697 10.8731 2.54582 10.0258 1.91468 9.2492C1.35366 8.54315 0.862772 7.90771 0.792645 7.27227C0.722518 6.70744 3.31721 5.43655 5.00026 4.5893C7.94559 3.1066 9.69876 2.18874 9.55851 1.20028C9.41825 0.49423 8.43647 0.211814 6.75343 0L4.43925 0.49423C6.4028 0.635439 8.78711 0.847257 8.85724 1.27088C8.92736 1.83572 6.26255 3.1772 4.71975 3.95385C1.84455 5.36595 0.021249 6.28381 0.0913759 7.34288C0.161503 8.26073 0.792647 9.03739 1.35366 9.74343C1.91468 10.4495 2.4757 11.1555 2.4757 11.8616C2.4757 12.85 4.22887 13.7679 7.03394 15.1094C8.64686 15.886 11.3117 17.1569 11.2416 17.7217C11.1714 18.2866 7.80534 18.7808 5.98204 18.9926C2.4757 19.4869 0.301763 19.8399 0.0212555 20.899C-0.118998 21.4638 0.44201 22.0992 1.49391 22.9465L3.31722 23.3701C1.91468 22.4523 0.652397 21.4638 0.722524 21.1108Z" transform="translate(138.406 76.5965)" fill="#00F0FF"/>
<path d="M2.31419 0L0 0.493846L2.31419 0Z" transform="translate(142.775 76.5965)" fill="#00F0FF"/>
<path d="M2.66658 13.0618C3.64835 12.4264 4.63013 11.791 4.70025 10.7319C4.77038 9.60222 3.64836 8.82557 2.52633 8.11952C1.61468 7.48408 0.70303 6.91925 0.632903 6.2132C0.562776 5.57776 3.78861 4.02446 5.68204 3.1066C8.34686 1.76512 10.1702 0.847255 10.8013 0L9.32863 0.353023C8.2066 1.05907 6.52355 1.90632 5.40152 2.47116C1.9653 4.16567 -0.0683726 5.22474 0.00175429 6.28381C0.0718812 7.27227 1.12379 7.97832 2.17569 8.68436C3.08734 9.3198 4.06912 9.95524 4.06912 10.6613C3.99899 11.3673 3.2276 11.9322 2.38607 12.497C1.47443 13.1324 0.562776 13.7679 0.282268 14.6858L0.983537 14.827C1.05366 14.1209 1.89518 13.5561 2.66658 13.0618Z" transform="translate(119.071 80.1267)" fill="#00F0FF"/>
<path d="M1.47267 1.0765e-06L0 0.35275L1.47267 1.0765e-06Z" transform="translate(128.399 80.0562)" fill="#00F0FF"/>
<path d="M10.7995 33.0429C11.8514 32.2663 12.9033 31.4896 13.0436 30.5012C13.1839 29.4421 11.6411 28.383 9.88789 27.1122C8.6256 26.1943 7.01268 25.1352 7.08281 24.4998C7.15294 23.4407 5.54002 22.5935 3.6466 21.605C2.38431 20.9696 0.63114 20.0517 0.63114 19.4163C0.63114 18.7808 2.94533 17.9336 4.48812 17.2981C6.80231 16.3803 8.76586 15.6036 8.69573 14.5445C8.83599 13.9091 12.9034 12.4264 15.6383 11.5085C20.9679 9.67282 23.0718 8.75497 23.0016 7.7665C22.9315 7.06046 22.9315 6.14259 22.8614 5.15413C22.8614 3.88325 22.7912 2.61237 22.651 1.6239C22.4406 0.635439 20.0563 0.423626 14.7266 0.141208C13.8851 0.0706035 12.9735 0.0706056 12.0618 1.07734e-06L9.74763 0.494231C10.9398 0.63544 12.6228 0.706046 14.6565 0.77665C17.4616 0.917859 21.6692 1.05907 21.9497 1.6239C22.09 2.54176 22.1601 3.81265 22.1601 5.01292C22.1601 6.00139 22.1601 6.91925 22.3004 7.6959C22.1601 8.33134 18.0927 9.74343 15.4279 10.7319C10.2385 12.5676 7.99447 13.4855 8.06459 14.4739C8.06459 15.0388 5.82053 15.9566 4.27774 16.5921C1.96355 17.5099 2.1401e-06 18.2866 2.1401e-06 19.3457C2.1401e-06 20.4047 1.5428 21.252 3.36609 22.1698C4.69851 22.8759 6.45167 23.7937 6.38154 24.3586C6.31142 25.4176 7.78408 26.4061 9.53725 27.6064C10.7995 28.4536 12.4826 29.6539 12.4125 30.2894C12.2722 30.9954 11.3606 31.7014 10.4489 32.3369C9.53725 32.9723 8.62561 33.6784 8.27498 34.455L8.97625 34.5962C9.32688 34.1726 10.0983 33.6078 10.7995 33.0429Z" transform="translate(157.362 70.8775)" fill="#00F0FF"/>
<path d="M2.31419 -1.0765e-06L-2.1401e-06 0.49385L2.31419 -1.0765e-06Z" transform="translate(167.109 71.0189)" fill="#00F0FF"/>
<path d="M1.13518 9.81403C1.6962 9.53162 4.08051 11.8616 5.48305 13.2031C8.07774 15.6742 9.76079 17.1569 10.6023 16.6627C11.514 16.0978 11.0932 14.1209 10.3218 10.9437C9.90104 9.10799 9.2699 6.42501 9.69066 6.07199C10.4621 5.50715 10.6724 4.44809 10.8828 3.45962C11.0932 2.61237 11.2334 1.76511 11.7243 1.34149C12.1451 0.917859 14.7398 2.18874 16.4228 2.96539C19.3682 4.37749 21.1915 5.22473 21.8927 4.44808C22.3135 3.95385 21.9629 2.96539 21.0512 1.48269L19.2279 4.30936e-06C20.3499 1.62391 21.6824 3.60083 21.4018 3.95385C21.0512 4.37748 18.3163 3.1066 16.7033 2.32995C13.758 0.917855 11.9347 0.141211 11.2334 0.847257C10.5322 1.4827 10.3919 2.40055 10.1815 3.38901C9.97116 4.30687 9.83091 5.15413 9.19977 5.57776C8.42838 6.1426 8.77901 8.11952 9.55041 11.2261C9.97117 12.9912 10.6724 15.886 10.1114 16.2391C9.62054 16.5215 7.16609 14.1915 5.83368 12.9206C3.23899 10.4495 1.62607 8.96678 0.644295 9.3904C0.153407 9.60222 -0.0569802 10.4495 0.0131467 11.8616L0.854667 13.5561C0.854667 11.6498 0.784547 10.0258 1.13518 9.81403Z" transform="translate(113.449 121.148)" fill="#00F0FF"/>
<path d="M2.1401e-06 -4.30936e-06L1.82329 1.4827L2.1401e-06 -4.30936e-06Z" transform="translate(132.817 121.007)" fill="#00F0FF"/>
<path d="M2.80508 6.65631C3.92711 7.00933 5.04913 7.36235 5.89066 6.79751C6.8023 6.16207 6.66205 4.74999 6.59192 3.4085C6.5218 2.34944 6.45168 1.21976 6.87244 0.725529C7.2932 0.301902 10.519 1.7846 12.4125 2.70246C15.1474 3.97334 16.9707 4.8206 18.0226 4.8206L16.8305 3.90273C15.6383 3.47911 13.8851 2.63185 12.693 2.13762C9.25674 0.513715 7.08281 -0.474746 6.38154 0.231299C5.68027 0.937345 5.7504 2.20822 5.89066 3.4791C5.96078 4.60878 6.10104 5.80906 5.4699 6.23269C4.90889 6.65631 3.99724 6.37389 3.01546 6.02087C1.96356 5.66785 0.911651 5.31482 2.1401e-06 5.80905L0.280505 6.44449C0.981774 6.02086 1.89343 6.37389 2.80508 6.65631Z" transform="translate(104.416 107.855)" fill="#00F0FF"/>
<path d="M1.19216 0.91715L2.1401e-06 2.15301e-06L1.19216 0.91715Z" transform="translate(121.246 111.758)" fill="#00F0FF"/>
<path d="M0.0693744 6.10352e-06H4.2344e-06H0.0693744Z" transform="translate(152.313 136.681)" fill="#00F0FF"/>
<path d="M2.8752 21.0402C4.13748 21.3932 5.39977 21.7462 6.24129 21.252C7.15294 20.6871 7.01268 18.8514 6.87243 16.6627C6.73218 15.1094 6.59193 13.1325 7.15294 12.85C8.06459 12.2146 7.71396 10.4495 7.2932 8.33133C7.01269 6.91924 6.59192 4.94232 7.08281 4.5893C7.5737 4.23628 9.6775 5.43655 11.08 6.28381C13.1838 7.55469 15.0773 8.61376 15.8487 7.90771C16.4097 7.62529 20.1264 9.95525 22.5107 11.4379C27.2794 14.4739 29.313 15.6036 30.0143 14.8976C30.5052 14.4033 31.2065 13.7679 31.9779 13.2031C32.9596 12.4264 33.9414 11.5791 34.5725 10.8731C35.2037 10.0965 33.9414 8.11953 30.7156 3.67144C30.2247 3.036 29.6637 2.25934 29.1728 1.48269L27.3495 4.30936e-06C27.9806 1.05907 28.9624 2.40055 30.1546 4.09506C31.7675 6.35441 34.292 9.81404 34.0115 10.3789C33.4505 11.0849 32.4687 11.8616 31.487 12.6382C30.7156 13.2737 30.0143 13.8385 29.5234 14.4033C28.9624 14.6857 25.3158 12.3558 22.8614 10.8731C18.233 7.90771 16.1292 6.70744 15.3578 7.41348C14.937 7.76651 12.7631 6.56622 11.3606 5.71897C9.25675 4.44809 7.43345 3.38901 6.59193 4.09506C5.7504 4.7305 6.10103 6.49562 6.5218 8.54315C6.8023 9.95524 7.22307 11.9322 6.66206 12.2852C5.82054 12.85 5.96079 14.6857 6.10104 16.8039C6.24129 18.2866 6.38154 20.4047 5.82053 20.6871C5.18938 21.0402 4.06736 20.6871 2.94533 20.4047C1.89343 20.1223 0.7714 19.8399 4.28021e-06 20.0517L0.280508 20.6871C1.0519 20.5459 1.96355 20.8283 2.8752 21.0402Z" transform="translate(124.963 136.681)" fill="#00F0FF"/>
<path d="M0.0701247 4.30936e-06L1.89343 1.48269L0.0701247 4.30936e-06H4.28021e-06H0.0701247Z" transform="translate(152.313 136.681)" fill="#00F0FF"/>
<path d="M2.8752 0.722578C3.43622 1.005 3.15571 4.32341 2.94533 6.30033C2.66482 9.90117 2.52457 12.1605 3.50634 12.5135C4.48812 12.8666 5.7504 11.3133 7.78408 8.70088C8.90611 7.21819 10.6593 5.02945 11.2203 5.17066C12.2021 5.45307 13.1137 4.95884 14.0254 4.46461C14.7968 4.04098 15.5682 3.68796 16.1993 3.82917C16.7603 3.89978 17.4616 6.72396 17.8824 8.55968C18.6538 11.7369 19.1446 13.7138 20.1965 13.7844C20.8978 13.7844 21.3887 12.9372 21.9497 11.3133V8.98331C21.3887 10.8896 20.6874 13.149 20.1965 13.149C19.6355 13.149 18.9343 10.1836 18.5135 8.48908C17.7421 5.31187 17.2512 3.40555 16.2694 3.19374C15.3578 3.05253 14.5163 3.47616 13.6747 3.89978C12.8332 4.32341 12.0618 4.74703 11.3606 4.53522C10.3788 4.2528 9.18662 5.8061 7.22307 8.27726C6.10104 9.68935 4.27774 12.0899 3.71673 11.8075C3.22584 11.5957 3.50634 8.20666 3.6466 6.37094C3.9271 2.77011 4.06736 0.581362 3.15571 0.0871302C2.66482 -0.195288 1.89342 0.228346 0.84152 1.0756L0 2.77011C1.26228 1.56983 2.52457 0.510764 2.8752 0.722578Z" transform="translate(70.5447 131.722)" fill="#00F0FF"/>
<path d="M3.05176e-06 4.30936e-06V2.40056V4.30936e-06Z" transform="translate(92.4944 140.564)" fill="#00F0FF"/>
<path d="M1.47267 2.68298C1.89343 3.74204 2.31419 4.87172 3.29596 5.15413C4.34787 5.50716 5.32964 4.5187 6.31142 3.60084C7.08281 2.89479 7.92434 2.11814 8.55548 2.18875C9.18662 2.25935 9.95802 5.71897 10.4489 7.83711C11.1502 10.8025 11.6411 12.7794 12.2722 13.5561V12.0734C11.8514 10.8731 11.3606 8.96677 11.08 7.69589C10.2385 3.95385 9.60738 1.69451 8.55548 1.5533C8.48535 1.5533 8.41522 1.5533 8.3451 1.5533C7.43345 1.5533 6.59193 2.40055 5.75041 3.17721C4.90888 3.95386 4.06736 4.80111 3.36609 4.5893C2.66482 4.37748 2.31419 3.45963 1.96355 2.54177C1.54279 1.4827 1.19216 0.423627 0.280506 0L-2.1401e-06 0.635437C0.771394 0.84725 1.12203 1.76512 1.47267 2.68298Z" transform="translate(80.152 113.664)" fill="#00F0FF"/>
<path d="M3.05176e-06 1.48269V4.30936e-06V1.48269Z" transform="translate(92.4944 125.737)" fill="#00F0FF"/>
<path d="M1.19215 7.41348C1.68304 8.61376 2.24406 9.81403 3.15571 10.1671C4.13749 10.5907 5.54002 9.31981 7.08281 7.83711C8.20484 6.77804 9.67751 5.43655 10.2385 5.64837C11.2904 6.00139 12.4826 4.58929 13.815 2.96539C14.7266 1.83572 15.9889 0.353021 16.6201 0.49423C17.1811 0.635439 17.6018 3.1066 17.8122 4.7305C18.1629 7.20166 18.5135 9.3198 19.5654 9.53162C20.1965 9.81403 20.6173 14.1209 20.9679 17.0157C21.5991 22.6641 21.9497 24.9234 22.9315 25.0646C23.6328 25.1352 24.5444 25.347 25.4561 25.5589C26.6482 25.8413 27.9105 26.0531 28.8923 26.1237C29.874 26.1237 30.6454 23.7937 32.048 18.6396C32.2584 17.863 32.5389 16.9451 32.7492 16.0272V13.6973C32.3285 14.8976 31.9077 16.4509 31.3467 18.4984C30.5753 21.1814 29.5234 25.2764 28.8923 25.4883C27.9806 25.4883 26.7183 25.2058 25.5963 24.9234C24.6145 24.7116 23.7029 24.4998 23.0016 24.4292C22.4406 24.1468 21.9497 19.8399 21.5991 17.0157C20.9679 11.5085 20.6173 9.10799 19.6355 8.96678C19.0745 8.89617 18.7239 6.42502 18.4434 4.80111C18.0927 2.32995 17.7421 0.282418 16.7603 0C16.6902 0 16.6201 0 16.4798 0C15.498 0 14.4461 1.27088 13.254 2.75357C12.3423 3.88325 11.0099 5.43655 10.4489 5.22473C9.46713 4.87171 8.13472 6.1426 6.59193 7.55469C5.4699 8.61376 3.99723 10.0259 3.36609 9.74343C2.73495 9.46101 2.24406 8.40194 1.8233 7.34287C1.40254 6.35441 0.981777 5.29534 0.280509 4.7305L0 5.36595C0.490888 5.64837 0.84152 6.56622 1.19215 7.41348Z" transform="translate(59.675 152.143)" fill="#00F0FF"/>
<path d="M3.05176e-06 -2.15468e-06V2.40056V-2.15468e-06Z" transform="translate(92.4944 165.699)" fill="#00F0FF"/>
<path d="M8.79514 1.41209C8.93539 1.97692 6.20044 3.81264 4.5174 4.94232C1.50194 6.98985 -0.25123 8.26073 0.0292772 9.2492C0.379912 10.2377 2.41359 10.3083 5.63943 10.2377C7.46273 10.2377 10.2678 10.2377 10.4782 10.7319C10.8989 11.6498 11.8106 12.0734 12.7924 12.497C13.5638 12.85 14.3352 13.2031 14.6858 13.8385C14.9663 14.3327 13.2131 16.5921 12.0911 18.0748C10.0574 20.6871 8.86526 22.311 9.49641 23.1583C9.91717 23.7231 10.8989 23.5819 12.582 23.0171L14.4053 21.5344C12.582 22.311 10.3379 23.1583 10.0574 22.7347C9.70679 22.2404 11.6002 19.9105 12.6521 18.4984C14.6157 15.9566 15.8078 14.3327 15.3169 13.4855C14.8962 12.7088 13.9845 12.2852 13.143 11.8616C12.3015 11.4379 11.5301 11.0849 11.1795 10.4495C10.7587 9.53161 8.79514 9.53161 5.63943 9.53161C3.88626 9.53161 0.870798 9.53162 0.660418 8.96678C0.520164 8.47255 3.32524 6.49562 4.86803 5.50715C7.81336 3.53023 9.63666 2.18875 9.42628 1.20028C9.28603 0.635445 8.51463 0.282414 7.18222 -4.30936e-06L5.35892 0.423627C7.11209 0.77665 8.72501 1.05906 8.79514 1.41209Z" transform="translate(37.8362 99.4724)" fill="#00F0FF"/>
<path d="M1.8233 -4.30936e-06L-2.1401e-06 1.4827L1.8233 -4.30936e-06Z" transform="translate(50.3481 121.007)" fill="#00F0FF"/>
<path d="M1.61292 2.40055C1.0519 3.38901 0.420762 4.44808 0.841524 5.43655C1.26228 6.49562 2.5947 6.70743 3.92711 6.84864C4.97901 6.98985 6.10104 7.13106 6.45167 7.7665C6.80231 8.33134 4.55825 11.0849 3.29596 12.7794C1.47267 15.18 0.210379 16.8039 -2.1401e-06 17.7923L1.19216 16.8745C1.89343 15.7448 3.08558 14.2621 3.85698 13.2737C6.24129 10.2377 7.64383 8.40195 7.08282 7.48409C6.59193 6.63683 5.32964 6.42501 4.06736 6.2838C2.94533 6.14259 1.75317 5.93078 1.54279 5.29534C1.26228 4.6599 1.75317 3.81265 2.31419 2.89479C2.8752 1.97693 3.43622 0.988464 3.22584 0L2.52457 0.141207C2.5947 0.706043 2.10381 1.5533 1.61292 2.40055Z" transform="translate(62.6203 94.9537)" fill="#00F0FF"/>
<path d="M-1.07005e-06 0.91715L1.19216 2.15301e-06L-1.07005e-06 0.91715Z" transform="translate(62.5502 111.758)" fill="#00F0FF"/>
<path d="M1.05028 2.54176C0.419142 3.67143 -0.212001 4.87172 0.0685068 5.78957C0.349014 6.84864 2.24244 7.13106 4.34625 7.41348C5.88904 7.6253 7.78246 7.97831 7.99284 8.54315C8.34348 9.60222 10.1668 9.60222 12.3407 9.67283C13.7432 9.74343 15.7068 9.74343 15.9873 10.3083C16.2678 10.8731 14.5848 12.7088 13.4627 13.9091C11.7797 15.7448 10.307 17.2981 10.868 18.2866C11.0083 18.922 7.99284 22.0286 5.95917 24.0056C1.96193 28.03 0.419142 29.7245 0.980157 30.5718C1.33079 31.2072 1.75155 31.9839 2.17231 32.9017C2.73333 34.0314 3.29434 35.1611 3.85536 35.9377C4.4865 36.785 6.66043 35.9377 11.6394 33.749C12.4108 33.396 13.2524 33.0429 14.0939 32.6899L15.9172 31.2072C14.725 31.6308 13.2524 32.2663 11.3589 33.1135C8.76424 34.2432 4.90726 35.8671 4.41637 35.5141C3.85536 34.8081 3.29434 33.6078 2.80346 32.5487C2.38269 31.6308 1.96193 30.8542 1.54117 30.2188C1.40092 29.5833 4.41637 26.5473 6.45005 24.4998C10.307 20.6165 11.9901 18.7808 11.4992 17.9336C11.2187 17.4393 12.9017 15.6036 14.0238 14.4033C15.7068 12.5676 17.1093 11.0143 16.6886 10.0258C16.2678 9.03738 14.4445 9.03738 12.4108 8.96678C10.9382 8.89618 8.97462 8.89618 8.69411 8.26073C8.34348 7.27227 6.52018 6.98985 4.4865 6.70744C3.01384 6.49562 0.980156 6.14259 0.769776 5.57776C0.559395 4.87171 1.12041 3.88325 1.68143 2.82418C2.17231 1.83572 2.73333 0.847257 2.73333 2.15468e-06L2.03206 0.141209C1.96193 0.847255 1.47105 1.76511 1.05028 2.54176Z" transform="translate(16.6888 105.403)" fill="#00F0FF"/>
<path d="M1.8233 4.30936e-06L1.07005e-06 1.48269L1.8233 4.30936e-06Z" transform="translate(30.8528 136.681)" fill="#00F0FF"/>
<path d="M0.0693775 0H-5.29301e-07H0.0693775Z" transform="translate(39.8992 76.5965)" fill="#00F0FF"/>
<path d="M16.5841 3.1772C16.2335 3.67144 13.0778 2.61237 11.1843 2.04753C7.74812 0.988463 5.64431 0.353024 5.0833 1.20028C4.52228 2.11814 5.71444 3.67144 7.81825 6.28381C9.0104 7.6959 10.7636 9.88464 10.4831 10.4495C9.99218 11.3673 10.2727 12.3558 10.4831 13.3443C10.6934 14.1915 10.9038 15.0388 10.6233 15.6742C10.4129 16.239 7.53774 16.239 5.64432 16.239C2.34835 16.239 0.3848 16.3097 0.0341654 17.2981C-0.176215 17.9336 0.595179 18.6396 2.06784 19.6281L4.38203 20.1223C2.62886 19.1338 0.59518 17.9336 0.735434 17.5099C0.875688 16.9451 3.89114 16.9451 5.64432 16.9451C8.87015 16.9451 10.8337 16.8745 11.2545 15.886C11.6051 15.0388 11.3246 14.0503 11.1142 13.1325C10.9038 12.2146 10.6934 11.3673 11.0441 10.7319C11.4648 9.81404 10.2727 8.26074 8.30914 5.78958C7.18711 4.37748 5.29368 2.04753 5.64432 1.5533C5.92482 1.05907 9.22079 2.11814 10.974 2.68297C14.4102 3.74204 16.514 4.37749 17.1451 3.60084C17.4958 3.17721 17.2854 2.32995 16.6542 1.12968L15.1816 -2.15468e-06C16.0231 1.48269 16.7945 2.89479 16.5841 3.1772Z" transform="translate(37.8314 56.9685)" fill="#00F0FF"/>
<path d="M2.24406 0.493846L1.07005e-06 0L2.24406 0.493846Z" transform="translate(39.9693 76.5965)" fill="#00F0FF"/>
<path d="M15.3578 0C14.937 0.564836 13.9552 0.706043 12.9735 0.847253C11.8514 0.988462 10.6593 1.20028 10.1684 2.11814C9.60738 3.1066 10.3087 4.30688 11.0099 5.43655C11.5709 6.35441 12.132 7.34288 11.8514 7.97832C11.6411 8.54315 8.06459 8.61375 5.96078 8.61375C2.94533 8.61375 0.911649 8.68436 0 9.17859L1.47266 9.53162C2.73495 9.39041 4.6985 9.39041 5.96078 9.39041C9.74764 9.39041 12.132 9.3198 12.4826 8.33134C12.8332 7.41348 12.2021 6.28381 11.5709 5.22474C11.0099 4.23627 10.3788 3.24781 10.7294 2.61237C11.08 1.97693 12.0618 1.83572 13.0436 1.69451C14.0955 1.5533 15.2175 1.41209 15.8487 0.635442L15.3578 0Z" transform="translate(55.1167 70.9481)" fill="#00F0FF"/>
<path d="M-1.07005e-06 1.0765e-06L1.47266 0.35275L-1.07005e-06 1.0765e-06Z" transform="translate(55.1869 80.0562)" fill="#00F0FF"/>
<path d="M0.0693764 -1.52588e-06H2.6465e-07H0.0693764Z" transform="translate(15.5652 71.0189)" fill="#00F0FF"/>
<path d="M24.2185 0.988463C22.9562 1.20028 21.6238 1.48269 21.0628 2.25935C20.4316 3.1772 21.3433 4.80111 22.4653 6.63683C23.2367 7.97832 24.2185 9.67283 23.8678 10.2377C23.3068 11.1555 24.4289 12.6382 25.6911 14.3327C26.5327 15.4624 27.7248 17.0863 27.4443 17.5805C27.1638 18.1454 24.7094 17.9336 23.0965 17.7923C20.642 17.5805 18.5382 17.4393 18.1174 18.4278C17.6967 18.922 13.4189 18.4984 10.6139 18.1454C5.00372 17.5099 2.68953 17.3687 2.40902 18.2866C2.19864 18.9926 1.77788 19.7693 1.35712 20.6871C0.866231 21.8168 0.305216 23.0171 0.024708 23.9349C-0.2558 24.9234 1.84801 26.1237 6.54651 28.7361C7.24778 29.1597 8.0893 29.5833 8.93082 30.0069L11.245 30.5012C10.1931 29.8657 8.79057 29.0891 6.89714 28.03C4.4427 26.6885 0.725977 24.7116 0.725977 24.0762C0.936357 23.1583 1.49737 22.0286 1.98826 20.899C2.40902 19.9811 2.75966 19.1338 3.04016 18.4278C3.46093 17.9336 7.73867 18.4278 10.5437 18.7102C16.0136 19.3457 18.398 19.4869 18.8187 18.569C19.0291 18.0042 21.4835 18.216 23.1666 18.3572C25.621 18.569 27.7248 18.7102 28.2157 17.7217C28.7066 16.8039 27.5846 15.3212 26.3924 13.6973C25.4808 12.497 24.2886 10.9437 24.6392 10.3789C25.2003 9.46101 24.2886 7.90771 23.2367 6.07199C22.4653 4.73051 21.4835 2.96539 21.8342 2.40055C22.2549 1.83572 23.377 1.62391 24.499 1.41209C25.5509 1.20028 26.6729 0.988464 27.3742 0.423627L26.8132 1.07734e-06C26.0418 0.635442 25.1301 0.77665 24.2185 0.988463Z" transform="translate(6.70448 40.8706)" fill="#00F0FF"/>
<path d="M2.24406 0.49385L-1.33756e-07 -1.0765e-06L2.24406 0.49385Z" transform="translate(15.6353 71.0189)" fill="#00F0FF"/>
<path d="M0.807879 6.77981C1.36889 6.56799 3.19219 8.89794 4.31422 10.31C6.3479 12.8518 7.61019 14.3345 8.59196 14.0521C9.43349 13.7697 10.0646 12.993 10.6256 12.287C11.1867 11.5809 11.7477 10.8749 12.4489 10.7337C13.4307 10.5218 13.8515 8.61552 14.5527 5.50892C14.9034 3.74381 15.6047 0.849024 16.1657 0.77842C16.7267 0.77842 17.9188 3.95562 18.6201 5.65013C19.8824 9.03915 20.7239 11.0867 21.7758 11.0867C22.3368 11.0867 22.8277 10.4512 23.3887 9.18036V7.20343C22.7576 8.82734 22.1265 10.31 21.7758 10.31C21.2148 10.31 20.0226 7.20343 19.3214 5.36772C18.0591 1.9787 17.2176 -0.0688364 16.1657 0.00176819C15.1138 0.0723727 14.6229 2.0493 13.9216 5.29711C13.5008 7.13283 12.9398 9.88641 12.3788 9.95701C11.397 10.1688 10.7659 11.0161 10.1348 11.7927C9.57374 12.4988 9.08285 13.1342 8.45171 13.346C7.8907 13.4872 6.0674 11.2985 4.94537 9.8158C2.91169 7.27404 1.57928 5.72074 0.597501 6.07376C-0.0336406 6.35618 -0.103771 7.34464 0.10661 9.10976L1.08839 11.2279C0.667626 9.32157 0.387118 6.99162 0.807879 6.77981Z" transform="translate(69.1056 30.5605)" fill="#00F0FF"/>
<path d="M0.981777 2.11814L0 -5.3867e-07L0.981777 2.11814Z" transform="translate(69.1421 39.7409)" fill="#00F0FF"/>
<path d="M14.5163 5.01292C13.6747 4.23627 12.8332 3.38902 11.7813 3.53023C10.6593 3.67144 10.1684 5.01293 9.67751 6.28381C9.25675 7.27227 8.90611 8.33134 8.27497 8.54315C7.64383 8.75497 5.4699 6.00139 4.13749 4.30688C2.24406 1.97693 0.981775 0.353024 -1.07005e-06 1.07734e-06L0.631142 1.34149C1.54279 2.25935 2.73495 3.74204 3.57647 4.7305C5.96078 7.6959 7.50357 9.53162 8.48535 9.17859C9.46713 8.89618 9.88789 7.6959 10.3087 6.49562C10.7294 5.43655 11.1502 4.30688 11.8514 4.23628C12.5527 4.09507 13.254 4.80111 14.0254 5.50715C14.7968 6.2838 15.6383 7.06046 16.6201 7.06046V6.35441C15.9188 6.35441 15.2175 5.64837 14.5163 5.01292Z" transform="translate(75.8743 53.9324)" fill="#00F0FF"/>
<path d="M-1.07005e-06 1.07734e-06L0.701268 1.34149L-1.07005e-06 1.07734e-06Z" transform="translate(75.8743 53.9324)" fill="#00F0FF"/>
<path d="M2.41238 14.7268C2.27212 13.5265 1.99162 11.9026 1.64098 9.7845C1.07997 7.03092 0.308569 2.86525 0.799457 2.44163C1.64098 2.0886 2.83314 1.80619 4.0253 1.45316C5.00707 1.24135 5.91872 1.02954 6.61999 0.747117C7.25113 0.747117 9.56532 4.41855 11.038 6.81911C13.9132 11.479 15.3157 13.5265 16.2975 13.2441C16.8585 13.1029 18.2611 15.1504 19.1727 16.4919C20.5752 18.5395 21.7674 20.3046 22.8193 20.0928C23.8712 19.881 24.292 18.1158 24.7829 16.1389C25.1335 14.7268 25.6244 12.7499 26.2555 12.6793C27.3074 12.5381 27.9386 10.8436 28.71 8.86664C29.271 7.45455 30.0424 5.54823 30.6735 5.47762C31.3748 5.40702 32.2864 6.18367 33.1279 6.96032C33.9695 7.66636 34.811 8.44301 35.6525 8.58422V7.87818C35.0214 7.66636 34.3201 7.03092 33.6188 6.46609C32.6371 5.61883 31.6553 4.77158 30.6735 4.77158C29.6216 4.84218 28.9203 6.6073 28.1489 8.58422C27.5879 10.0669 26.8867 11.832 26.2555 11.9026C25.2036 12.0438 24.7127 13.809 24.2218 15.9271C23.8712 17.3392 23.3803 19.2455 22.7492 19.3867C22.118 19.5279 20.7856 17.4804 19.874 16.0683C18.4714 14.0208 17.2793 12.2557 16.2274 12.5381C15.5962 12.5381 13.282 8.86664 11.7393 6.39548C8.7238 1.59437 7.46151 -0.311951 6.47974 0.0410717C5.77847 0.252885 4.93694 0.535304 3.95517 0.747117C2.76301 1.02954 1.50073 1.38256 0.58908 1.73558C-0.392696 2.15921 -0.0420608 4.55976 0.869588 9.92571C1.00984 10.7024 1.15009 11.6908 1.36047 12.6087L2.41238 14.7268Z" transform="translate(56.912 4.53882)" fill="#00F0FF"/>
<path d="M1.0519 2.18874L0 5.3867e-07L1.0519 2.18874Z" transform="translate(58.2724 17.0768)" fill="#00F0FF"/>
</g>
<defs>
<filter id="filter0_d" x="0.619026" y="0.538818" width="183.746" height="181.728" filterUnits="userSpaceOnUse" color-interpolation-filters="sRGB">
<feFlood flood-opacity="0" result="BackgroundImageFix"/>
<feColorMatrix in="SourceAlpha" type="matrix" values="0 0 0 0 0 0 0 0 0 0 0 0 0 0 0 0 0 0 255 0"/>
<feOffset/>
<feGaussianBlur stdDeviation="2"/>
<feColorMatrix type="matrix" values="0 0 0 0 0.871799 0 0 0 0 0.139738 0 0 0 0 1 0 0 0 1 0"/>
<feBlend mode="normal" in2="BackgroundImageFix" result="effect1_dropShadow"/>
<feBlend mode="normal" in="SourceGraphic" in2="effect1_dropShadow" result="shape"/>
</filter>
</defs>
</svg>
