<svg width="394" height="389" viewBox="0 0 394 389" fill="none" xmlns="http://www.w3.org/2000/svg">
<path d="M4.78661 0.654983C3.51306 -0.391649 1.68232 -0.150114 0.647559 1.13805C-0.387206 2.42621 -0.148409 4.27795 1.12515 5.32458L22.4572 22.5538C23.7308 23.6004 25.5615 23.3589 26.5963 22.0707C27.631 20.7825 27.3922 18.9308 26.1187 17.8842L4.78661 0.654983Z" transform="translate(80.22 88.0199)" fill="url(#paint0_linear)"/>
<path d="M1.0772 5.27609L33.3937 32.1665C34.6673 33.2131 36.498 33.0521 37.5327 31.764C38.5675 30.4758 38.4083 28.6241 37.1348 27.5774L4.81828 0.687009C3.54472 -0.359624 1.71398 -0.198604 0.679213 1.08956C-0.355551 2.37772 -0.196357 4.30997 1.0772 5.27609Z" transform="translate(76.7656 68.7459)" fill="url(#paint1_linear)"/>
<path d="M0.686147 1.04308C-0.348618 2.25074 -0.189428 4.10247 1.00453 5.1491L15.8892 18.6748C17.0832 19.802 18.9935 19.6409 20.0283 18.3528C21.063 17.1451 20.9038 15.2934 19.7099 14.2468L4.8252 0.721037C3.63124 -0.325596 1.80051 -0.245079 0.686147 1.04308Z" transform="translate(101.115 73.462)" fill="url(#paint2_linear)"/>
<path d="M0.835771 0.905739C-0.27859 2.03288 -0.27859 3.80411 0.835771 4.93125L44.9327 52.5933C46.047 53.801 48.0369 53.8815 49.1513 52.5933C50.2657 51.4662 50.2657 49.6949 49.1513 48.5678L5.05443 0.905739C3.94007 -0.301915 1.95013 -0.301915 0.835771 0.905739Z" transform="translate(78.6786 31.9755)" fill="url(#paint3_linear)"/>
<path d="M1.17501 0.590412C-0.0985462 1.55654 -0.416933 3.40827 0.617832 4.69644L24.8154 37.4641C25.7706 38.7523 27.6013 39.0743 28.8749 38.0277C30.1484 37.0615 30.4668 35.2098 29.432 33.9217L5.23448 1.15399C4.27931 -0.134176 2.44857 -0.375711 1.17501 0.590412Z" transform="translate(105.323 39.6173)" fill="url(#paint4_linear)"/>
<path d="M0.0854182 9.72293C0.483404 11.3331 1.99576 12.2993 3.58771 11.9772L30.1732 5.85844C31.7651 5.45589 32.7203 3.9262 32.4019 2.316C32.0835 0.705795 30.4916 -0.260342 28.8996 0.0616987L2.31414 6.18048C0.722199 6.58303 -0.312568 8.11272 0.0854182 9.72293Z" transform="translate(44.7245 210.184)" fill="url(#paint5_linear)"/>
<path d="M0.057556 12.3798C0.375945 13.99 1.96789 14.9561 3.55984 14.6341L44.5524 5.85843C46.1444 5.53639 47.0995 3.92619 46.7812 2.31598C46.4628 0.70578 44.8708 -0.260332 43.2789 0.0617085L2.36588 8.83732C0.773933 9.23987 -0.260833 10.7696 0.057556 12.3798Z" transform="translate(27.639 198.268)" fill="url(#paint6_linear)"/>
<path d="M22.1825 0.0368139L2.44237 3.41825C0.850426 3.65978 -0.263935 5.26998 0.0544538 6.88018C0.372843 8.40988 1.88519 9.45651 3.39754 9.21498L23.1377 5.83356C24.7296 5.59203 25.844 3.98181 25.5256 2.37161C25.2072 0.761401 23.6948 -0.204717 22.1825 0.0368139Z" transform="translate(46.427 187.344)" fill="url(#paint7_linear)"/>
<path d="M0.0142289 8.45764C0.253021 9.98733 1.60618 11.1145 3.11852 11.034L67.4331 5.8813C69.1047 5.72028 70.2986 4.27109 70.0598 2.58038C69.821 1.05068 68.4679 -0.0764446 66.9555 0.00406567L2.72054 5.15671C1.04899 5.31774 -0.144966 6.84743 0.0142289 8.45764Z" transform="translate(0.380432 177.474)" fill="url(#paint8_linear)"/>
<path d="M43.4636 1.29174L3.02823 0.00356707C1.43629 -0.0769432 0.083136 1.21123 0.00353876 2.90194C-0.0760585 4.51214 1.1975 5.88083 2.86904 5.96134L43.3044 7.24949C44.8964 7.33 46.2495 6.04185 46.3291 4.35114C46.3291 2.66042 45.0556 1.37225 43.4636 1.29174Z" transform="translate(22.8376 166.283)" fill="url(#paint9_linear)"/>
<path d="M1.66286 30.4905C3.09562 31.215 4.84675 30.571 5.56313 29.1218L17.4231 4.24412C18.1395 2.79494 17.5027 1.02372 16.07 0.299125C14.6372 -0.425467 12.8861 0.2186 12.1697 1.66778L0.309701 26.5455C-0.406674 28.0752 0.150517 29.8464 1.66286 30.4905Z" transform="translate(121.71 299.473)" fill="url(#paint10_linear)"/>
<path d="M1.6203 43.3883C3.05305 44.1129 4.8042 43.5493 5.52058 42.1001L24.2259 4.2603C24.9423 2.81111 24.3851 1.03989 22.9524 0.315301C21.5196 -0.409291 19.7685 0.154261 19.0521 1.60345L0.346755 39.4433C-0.449218 40.8924 0.187553 42.6637 1.6203 43.3883Z" transform="translate(103.922 294.305)" fill="url(#paint11_linear)"/>
<path d="M1.55833 23.2783C2.99108 24.0029 4.66263 23.5198 5.4586 22.0707L15.1695 4.35842C15.9654 2.90923 15.4083 1.0575 13.9755 0.332905C12.5428 -0.391687 10.8712 0.0913744 10.0752 1.54056L0.364369 19.2528C-0.431604 20.702 0.125577 22.4732 1.55833 23.2783Z" transform="translate(102.95 289.376)" fill="url(#paint12_linear)"/>
<path d="M1.3962 59.5099C2.74935 60.315 4.42089 59.9124 5.29646 58.6242L41.4336 4.60189C42.3888 3.23322 41.9908 1.30097 40.558 0.415353C39.2049 -0.38975 37.5334 0.0128064 36.6578 1.30097L0.520624 55.3233C-0.434543 56.7725 -0.0365516 58.7048 1.3962 59.5099Z" transform="translate(68.0093 284.382)" fill="url(#paint13_linear)"/>
<path d="M26.8736 1.04308L0.686144 32.2006C-0.34862 33.4082 -0.189418 35.3404 1.00454 36.3871C2.1985 37.4337 4.10883 37.2727 5.1436 36.065L31.3311 4.90756C32.3659 3.69991 32.2067 1.76768 31.0127 0.721046C29.7391 -0.325587 27.9084 -0.245081 26.8736 1.04308Z" transform="translate(69.4357 279.327)" fill="url(#paint14_linear)"/>
<path d="M16.056 30.41C17.4887 29.6854 18.1255 27.9141 17.4091 26.4649L5.54914 1.66779C4.83276 0.21861 3.08163 -0.425482 1.64888 0.29911C0.216126 1.0237 -0.420637 2.79495 0.295738 4.24413L12.1557 29.1218C12.8721 30.571 14.6232 31.1345 16.056 30.41Z" transform="translate(241.358 306.075)" fill="url(#paint15_linear)"/>
<path d="M21.7381 44.0472C23.1708 43.3226 23.8076 41.6319 23.1708 40.1022L5.57986 1.69885C4.86349 0.24967 3.19192 -0.394426 1.67958 0.249655C0.246824 0.974247 -0.389944 2.66498 0.246834 4.19468L17.8378 42.5981C18.5542 44.1278 20.3053 44.7718 21.7381 44.0472Z" transform="translate(230.502 311.358)" fill="url(#paint16_linear)"/>
<path d="M1.74616 0.282727C0.313405 0.926809 -0.402966 2.61754 0.233812 4.14723L7.87515 22.8256C8.51193 24.3553 10.2631 25.0799 11.7754 24.3553C13.2082 23.7112 13.9245 22.0205 13.2878 20.4908L5.64644 1.81242C5.00966 0.282722 3.2585 -0.441865 1.74616 0.282727Z" transform="translate(220.486 316.236)" fill="url(#paint17_linear)"/>
<path d="M23.222 68.0012C24.6548 67.4376 25.4508 65.8274 24.9732 64.3783L5.71064 2.06335C5.23306 0.453146 3.48193 -0.432481 1.88998 0.211601C0.457233 0.775172 -0.338749 2.38538 0.138834 3.83456L19.4014 66.1495C19.879 67.7597 21.6301 68.5648 23.222 68.0012Z" transform="translate(211.348 319.85)" fill="url(#paint18_linear)"/>
<path d="M7.85808 43.6948C8.17647 45.305 9.68883 46.3516 11.2808 46.0295C12.8727 45.7075 13.9075 44.1778 13.5891 42.5676L5.78857 2.39301C5.47018 0.782802 3.95782 -0.263826 2.36587 0.0582149C0.773925 0.380256 -0.260834 1.90994 0.0575548 3.52014L7.85808 43.6948Z" transform="translate(202.037 323.385)" fill="url(#paint19_linear)"/>
<path d="M30.1732 6.20519L3.58771 0.0864077C1.99577 -0.316143 0.4834 0.73048 0.0854133 2.34068C-0.312573 3.95089 0.722206 5.48058 2.31415 5.88313L28.8996 12.0019C30.4916 12.4045 32.0039 11.3578 32.4019 9.74764C32.7203 8.13743 31.6855 6.60774 30.1732 6.20519Z" transform="translate(313.684 224.812)" fill="url(#paint20_linear)"/>
<path d="M46.4158 13.6975C46.8138 12.0873 45.8587 10.4771 44.2667 10.155L3.59248 0.0912437C2.00054 -0.311307 0.408598 0.654825 0.090209 2.26503C-0.307777 3.87523 0.6474 5.48543 2.23934 5.80747L42.9136 15.8713C44.5055 16.2738 46.0974 15.3077 46.4158 13.6975Z" transform="translate(310.973 236.722)" fill="url(#paint21_linear)"/>
<path d="M3.75733 0.124778C2.16539 -0.358283 0.493838 0.607845 0.095852 2.21805C-0.302134 3.74774 0.573436 5.35794 2.08578 5.76049L21.2687 11.3962C22.8607 11.8793 24.5322 10.9131 24.9302 9.30294C25.3282 7.77324 24.4526 6.16305 22.9403 5.76049L3.75733 0.124778Z" transform="translate(308.499 247.638)" fill="url(#paint22_linear)"/>
<path d="M65.894 27.5046C66.3715 25.9749 65.6552 24.3647 64.1428 23.8011L3.9673 0.211605C2.37535 -0.432476 0.70382 0.453151 0.146639 2.06336C-0.330944 3.59305 0.385417 5.20323 1.89776 5.76681L62.0733 29.3563C63.5857 29.9199 65.3368 29.1148 65.894 27.5046Z" transform="translate(305.583 257.132)" fill="url(#paint23_linear)"/>
<path d="M41.3839 23.0997C42.1003 21.6505 41.5431 19.8793 40.1104 19.1547L4.21199 0.315296C2.77924 -0.409296 1.0281 0.154281 0.311726 1.60346C-0.40465 3.05265 0.152512 4.82387 1.58526 5.54846L37.4836 24.3878C38.9164 25.1124 40.6675 24.5489 41.3839 23.0997Z" transform="translate(302.632 266.851)" fill="url(#paint24_linear)"/>
<path d="M22.4237 0.621079L1.09161 17.8503C-0.181946 18.8969 -0.341121 20.7486 0.614046 22.0368C1.64881 23.325 3.47953 23.486 4.75309 22.5199L26.0852 5.29067C27.3587 4.24404 27.5179 2.39231 26.5627 1.10415C25.6076 -0.184018 23.6972 -0.345044 22.4237 0.621079Z" transform="translate(295.962 99.8082)" fill="url(#paint25_linear)"/>
<path d="M34.2534 0.590415L1.14089 26.5147C-0.132666 27.4808 -0.371443 29.3326 0.583724 30.6207C1.53889 31.9089 3.36963 32.1504 4.64319 31.1843L37.7556 5.26001C39.0292 4.29389 39.268 2.44215 38.3128 1.15398C37.3577 -0.13418 35.5269 -0.375708 34.2534 0.590415Z" transform="translate(303.475 100.644)" fill="url(#paint26_linear)"/>
<path d="M4.67204 17.0315L20.9895 5.35748C22.3426 4.39136 22.661 2.53962 21.6263 1.17095C20.6711 -0.117213 18.92 -0.358746 17.5668 0.526866L1.24937 12.2008C-0.103784 13.167 -0.422187 15.0187 0.612577 16.3874C1.56774 17.6755 3.31889 17.9976 4.67204 17.0315Z" transform="translate(310.371 123.653)" fill="url(#paint27_linear)"/>
<path d="M57.1702 0.411979L1.4521 33.2602C0.0193461 34.1458 -0.458223 35.9975 0.496944 37.4467C1.37251 38.7348 3.04405 39.1374 4.39721 38.4128L60.1153 5.56463C61.548 4.67902 62.0256 2.82728 61.0704 1.3781C60.1949 0.00942519 58.5234 -0.393123 57.1702 0.411979Z" transform="translate(315.979 110.725)" fill="url(#paint28_linear)"/>
<path d="M38.6909 0.248226L1.75776 16.8333C0.245416 17.4774 -0.391382 19.2486 0.245396 20.6978C0.882175 22.2275 2.63333 22.8716 4.06608 22.2275L40.9992 5.64241C42.5116 4.99833 43.1484 3.2271 42.5116 1.77792C41.8748 0.248221 40.1236 -0.395856 38.6909 0.248226Z" transform="translate(321.483 135.284)" fill="url(#paint29_linear)"/>
<path d="M5.89021 30.5939V2.97888C5.89021 1.36867 4.61664 -2.45698e-06 2.9451 -2.45698e-06C1.27356 -2.45698e-06 -9.71646e-06 1.28816 -9.71646e-06 2.97888V30.5939C-9.71646e-06 32.2041 1.27356 33.5728 2.9451 33.5728C4.61664 33.5728 5.89021 32.2041 5.89021 30.5939Z" transform="translate(201.537 36.1822)" fill="url(#paint30_linear)"/>
<path d="M5.81059 45.3273L6.44738 2.97888C6.44738 1.36867 5.17382 1.22849e-06 3.58188 1.22849e-06C1.98993 1.22849e-06 0.636768 1.28816 0.636768 2.89837L0 45.2467C0 46.857 1.27356 48.2256 2.86551 48.2256C4.45745 48.3061 5.81059 47.018 5.81059 45.3273Z" transform="translate(213.636 21.4488)" fill="url(#paint31_linear)"/>
<path d="M5.89372 23.3515L7.00811 3.14348C7.0877 1.45277 5.81414 0.0840843 4.1426 0.0035741C2.55065 -0.0769361 1.19749 1.21123 1.11789 2.82143L0.00353147 23.0295C-0.0760658 24.7202 1.1975 26.0889 2.86904 26.1694C4.46098 26.1694 5.81413 24.9617 5.89372 23.3515Z" transform="translate(224.696 43.5855)" fill="url(#paint32_linear)"/>
<path d="M12.6068 0.0153216C11.0944 -0.145699 9.6617 0.981443 9.4229 2.51114L0.0304359 67.0803C-0.208356 68.7711 0.985593 70.3008 2.65714 70.4618C4.16948 70.6228 5.60223 69.4956 5.84103 67.966L15.2335 3.39675C15.4723 1.70603 14.2783 0.176342 12.6068 0.0153216Z" transform="translate(234.46 0.0178833)" fill="url(#paint33_linear)"/>
<path d="M13.8608 0.0915419C12.2689 -0.311009 10.6769 0.655112 10.279 2.18481L0.0904929 41.7958C-0.307493 43.406 0.647679 45.0162 2.16003 45.4188C3.75197 45.8213 5.34392 44.8552 5.7419 43.3255L15.9304 3.7145C16.3284 2.1043 15.4528 0.494093 13.8608 0.0915419Z" transform="translate(244.429 25.7853)" fill="url(#paint34_linear)"/>
<path d="M26.5627 1.10414C25.528 -0.184023 23.6972 -0.345049 22.4237 0.621074L1.09162 17.8503C-0.181932 18.8969 -0.341131 20.7486 0.614036 22.0368C1.5692 23.325 3.47955 23.486 4.7531 22.5199L26.0852 5.29067C27.3587 4.24404 27.5975 2.3923 26.5627 1.10414Z" transform="translate(286.649 88.0537)" fill="url(#paint35_linear)"/>
<path d="M33.3937 0.687014L1.07721 27.5774C-0.196342 28.6241 -0.355536 30.4758 0.679228 31.764C1.71399 33.0521 3.54471 33.2131 4.81827 32.1665L37.1348 5.27609C38.4083 4.22946 38.5675 2.37773 37.5328 1.08956C36.498 -0.198599 34.6672 -0.359619 33.3937 0.687014Z" transform="translate(279.181 68.8264)" fill="url(#paint36_linear)"/>
<path d="M19.9958 1.04308C18.961 -0.245079 17.0507 -0.325596 15.8567 0.721036L0.972029 14.2468C-0.22193 15.2934 -0.301522 17.1451 0.653645 18.3528C1.68841 19.6409 3.59875 19.7215 4.79271 18.6748L19.6774 5.1491C20.9509 4.10247 21.0305 2.25074 19.9958 1.04308Z" transform="translate(272.282 73.462)" fill="url(#paint37_linear)"/>
<path d="M44.873 0.96612L0.776083 48.6282C-0.258681 49.7553 -0.258681 51.5265 0.776083 52.6537C1.97004 53.8613 3.88037 53.8613 4.99473 52.6537L49.0916 4.99163C50.1264 3.86449 50.1264 2.09326 49.0916 0.96612C47.8977 -0.322043 45.9873 -0.322043 44.873 0.96612Z" transform="translate(265.553 31.9957)" fill="url(#paint38_linear)"/>
<path d="M28.8408 0.590412C27.5672 -0.375711 25.7365 -0.134176 24.7813 1.15399L0.58372 33.9216C-0.371448 35.2098 -0.132646 37.0615 1.14091 38.0277C2.41447 38.9938 4.24518 38.7523 5.20035 37.4641L29.3979 4.69644C30.4327 3.40827 30.1143 1.55653 28.8408 0.590412Z" transform="translate(258.82 39.6173)" fill="url(#paint39_linear)"/>
<path d="M0.0854182 2.3407C-0.312568 3.9509 0.722211 5.48059 2.31416 5.88314L28.8996 12.0019C30.4916 12.4045 32.0039 11.3578 32.4019 9.74763C32.7999 8.13742 31.7651 6.60773 30.1732 6.20518L3.58769 0.0863979C1.99575 -0.316153 0.483404 0.730494 0.0854182 2.3407Z" transform="translate(316.947 210.159)" fill="url(#paint40_linear)"/>
<path d="M0.0609942 2.34069C-0.257395 3.95089 0.697787 5.48058 2.28973 5.88313L43.2823 14.6587C44.8742 14.9808 46.3866 14.0147 46.7846 12.4045C47.103 10.7943 46.1478 9.26457 44.5559 8.86202L3.56329 0.0864127C1.97135 -0.316138 0.379383 0.730485 0.0609942 2.34069Z" transform="translate(319.678 198.324)" fill="url(#paint41_linear)"/>
<path d="M2.44532 5.83141L22.1855 9.21282C23.7774 9.45435 25.2101 8.40772 25.5285 6.87803C25.8469 5.26782 24.8122 3.65763 23.1406 3.4161L3.4005 0.0346596C1.80856 -0.206871 0.375795 0.839757 0.0574061 2.36945C-0.260983 3.97966 0.773782 5.58987 2.44532 5.83141Z" transform="translate(322.149 187.346)" fill="url(#paint42_linear)"/>
<path d="M70.0745 8.46888C70.3133 6.77817 69.0397 5.24847 67.4478 5.16796L3.13319 0.015308C1.62085 -0.145712 0.188099 0.981416 0.0289045 2.59162C-0.209887 4.28233 1.06366 5.81203 2.6556 5.89254L66.9702 11.0452C68.5621 11.2062 69.9153 10.0791 70.0745 8.46888Z" transform="translate(323.61 177.462)" fill="url(#paint43_linear)"/>
<path d="M0.00353147 4.34756C0.0831288 5.95777 1.4363 7.24591 3.02824 7.24591L43.4636 5.95777C45.0556 5.87726 46.3291 4.50857 46.3291 2.89836C46.2495 1.28816 44.8964 -9.82791e-06 43.3044 -9.82791e-06L2.86904 1.28816C1.1975 1.36867 -0.0760658 2.65685 0.00353147 4.34756Z" transform="translate(324.989 166.287)" fill="url(#paint44_linear)"/>
<path d="M16.056 30.4905C17.4887 29.7659 18.1255 27.9946 17.4091 26.5455L5.54915 1.66778C4.83278 0.2186 3.08164 -0.425467 1.64889 0.299125C0.216141 1.02372 -0.420647 2.79494 0.295728 4.24412L12.1557 29.1218C12.8721 30.6515 14.6232 31.2151 16.056 30.4905Z" transform="translate(254.731 299.473)" fill="url(#paint45_linear)"/>
<path d="M22.9174 43.3883C24.3501 42.6637 24.9073 40.8924 24.1909 39.4433L5.48553 1.60345C4.76915 0.154261 3.01802 -0.409291 1.58527 0.315301C0.152517 1.03989 -0.404669 2.81111 0.311706 4.2603L19.0171 42.1001C19.7334 43.5493 21.4846 44.1129 22.9174 43.3883Z" transform="translate(265.699 294.305)" fill="url(#paint46_linear)"/>
<path d="M15.1695 19.2373L5.45861 1.52504C4.66264 0.156371 2.99107 -0.4072 1.55832 0.317392C0.125572 1.04198 -0.431609 2.89372 0.364364 4.3429L10.0752 22.0552C10.8712 23.4238 12.5428 23.9874 13.9755 23.2628C15.4879 22.4577 15.9654 20.6865 15.1695 19.2373Z" transform="translate(275.596 289.391)" fill="url(#paint47_linear)"/>
<path d="M40.558 59.5099C41.9908 58.6242 42.3888 56.692 41.4336 55.3233L5.29647 1.30097C4.4209 0.0128064 2.66974 -0.38975 1.39619 0.415353C-0.0365637 1.30097 -0.434531 3.23322 0.520637 4.60189L36.6578 58.6242C37.5334 59.9929 39.2845 60.315 40.558 59.5099Z" transform="translate(284.116 284.382)" fill="url(#paint48_linear)"/>
<path d="M0.686156 4.80005L26.8736 35.9575C27.9084 37.1651 29.7391 37.3262 31.0127 36.2795C32.2067 35.2329 32.3659 33.3812 31.3311 32.093L5.14358 1.01606C4.10882 -0.191596 2.2781 -0.352611 1.00454 0.694022C-0.189418 1.74065 -0.348608 3.59239 0.686156 4.80005Z" transform="translate(292.706 279.354)" fill="url(#paint49_linear)"/>
<path d="M1.64888 30.4905C3.08163 31.2151 4.83277 30.571 5.54915 29.1218L17.4091 4.24413C18.1255 2.79494 17.4887 1.02372 16.056 0.29913C14.6232 -0.425462 12.8721 0.218605 12.1557 1.66779L0.295726 26.5454C-0.42065 28.0751 0.216126 29.8464 1.64888 30.4905Z" transform="translate(135.096 305.995)" fill="url(#paint50_linear)"/>
<path d="M5.62701 42.6458L23.218 4.24237C23.9344 2.79319 23.2976 1.02194 21.7852 0.297349C20.3525 -0.427243 18.6014 0.216854 17.885 1.74655L0.293987 40.1499C-0.422388 41.5991 0.214392 43.3703 1.72674 44.0949C3.23909 44.8195 4.99024 44.1755 5.62701 42.6458Z" transform="translate(140.112 311.31)" fill="url(#paint51_linear)"/>
<path d="M7.87516 1.81242L0.233822 20.4908C-0.402956 21.94 0.313414 23.6307 1.74616 24.3553C3.25851 24.9994 5.00965 24.3553 5.64643 22.8256L13.2878 4.14723C13.9245 2.69805 13.2082 1.00732 11.7754 0.282727C10.2631 -0.441865 8.51194 0.282722 7.87516 1.81242Z" transform="translate(160.151 316.236)" fill="url(#paint52_linear)"/>
<path d="M1.88999 67.9689C3.48193 68.5325 5.15347 67.7274 5.71065 66.1172L24.9732 3.80225C25.4508 2.27256 24.6548 0.662356 23.222 0.179295C21.6301 -0.384277 19.9586 0.42084 19.4014 2.03104L0.138839 64.3459C-0.338744 65.7951 0.457238 67.4053 1.88999 67.9689Z" transform="translate(157.699 319.882)" fill="url(#paint53_linear)"/>
<path d="M2.36589 46.0295C3.95783 46.3516 5.47017 45.305 5.78856 43.6948L13.5891 3.52014C13.9075 1.90994 12.8727 0.380256 11.2808 0.0582149C9.68882 -0.263826 8.17648 0.782802 7.85809 2.39301L0.057545 42.5676C-0.260844 44.1778 0.77394 45.788 2.36589 46.0295Z" transform="translate(178.396 323.385)" fill="url(#paint54_linear)"/>
<path d="M3.56328 11.9772L30.1488 5.85843C31.7407 5.45588 32.6959 3.92619 32.3775 2.31598C31.9795 0.705781 30.4672 -0.260332 28.8752 0.0617085L2.28973 6.18049C0.697784 6.58304 -0.257385 8.11273 0.0610039 9.72294C0.45899 11.3331 2.05093 12.2993 3.56328 11.9772Z" transform="translate(48.0124 224.836)" fill="url(#paint55_linear)"/>
<path d="M0.0902114 13.6975C0.488198 15.3077 2.08014 16.2738 3.59249 15.8713L44.2667 5.80747C45.8586 5.40492 46.8138 3.79472 46.4158 2.26503C46.0178 0.654825 44.4259 -0.311307 42.9135 0.0912437L2.23934 10.155C0.647396 10.5576 -0.307775 12.0873 0.0902114 13.6975Z" transform="translate(36.6008 236.722)" fill="url(#paint56_linear)"/>
<path d="M3.75733 11.3962L22.9403 5.76049C24.4526 5.27743 25.3282 3.74774 24.9302 2.21805C24.5322 0.607845 22.8607 -0.358283 21.2687 0.124778L2.0858 5.76049C0.573448 6.24356 -0.302122 7.77324 0.0958642 9.30294C0.493851 10.9131 2.16539 11.8793 3.75733 11.3962Z" transform="translate(60.5539 247.638)" fill="url(#paint57_linear)"/>
<path d="M3.95951 29.324L64.135 5.7345C65.5678 5.17093 66.3638 3.56074 65.8862 2.03105C65.329 0.420845 63.5779 -0.384272 62.0655 0.1793L1.88999 23.7688C0.457236 24.3324 -0.338741 25.9426 0.138843 27.4723C0.696024 29.0825 2.44717 29.8876 3.95951 29.324Z" transform="translate(22.5431 257.164)" fill="url(#paint58_linear)"/>
<path d="M4.21198 24.3878L40.1104 5.54846C41.5431 4.82386 42.1003 2.97213 41.3839 1.60346C40.6675 0.154276 38.8368 -0.409301 37.4836 0.315291L1.58527 19.1547C0.152519 19.8793 -0.404655 21.731 0.311721 23.0997C1.0281 24.6294 2.77923 25.1929 4.21198 24.3878Z" transform="translate(49.8313 266.77)" fill="url(#paint59_linear)"/>
<path d="M0.647566 1.10415C-0.387199 2.39231 -0.148414 4.24404 1.12514 5.29067L22.4572 22.5199C23.7308 23.5665 25.5615 23.325 26.5963 22.0368C27.631 20.7486 27.3922 18.8969 26.1187 17.8503L4.78662 0.621079C3.51307 -0.345044 1.68233 -0.184018 0.647566 1.10415Z" transform="translate(70.9867 99.8082)" fill="url(#paint60_linear)"/>
<path d="M0.583722 1.15398C-0.371445 2.44215 -0.132656 4.29389 1.1409 5.26001L34.2534 31.1843C35.5269 32.1504 37.3577 31.9089 38.3128 30.6207C39.268 29.3326 39.0292 27.4808 37.7556 26.5147L4.64318 0.590415C3.36962 -0.375708 1.53889 -0.13418 0.583722 1.15398Z" transform="translate(51.7084 100.644)" fill="url(#paint61_linear)"/>
<path d="M21.6716 16.3874C22.6267 15.0187 22.388 13.167 21.0348 12.2008L4.63776 0.526866C3.3642 -0.358746 1.53347 -0.117213 0.578304 1.17095C-0.376863 2.53962 -0.138081 4.39136 1.21507 5.35748L17.5325 17.0315C18.8857 17.9976 20.7164 17.6755 21.6716 16.3874Z" transform="translate(61.5042 123.653)" fill="url(#paint62_linear)"/>
<path d="M0.461666 1.32394C-0.413904 2.77313 -0.0159143 4.62487 1.41684 5.51048L57.1349 38.3586C58.4881 39.1637 60.1596 38.7612 61.0352 37.3925C61.9108 35.9434 61.5128 34.0916 60.08 33.206L4.36193 0.357821C3.00878 -0.366771 1.33724 0.0357774 0.461666 1.32394Z" transform="translate(16.6485 110.699)" fill="url(#paint63_linear)"/>
<path d="M42.5116 20.6978C43.1483 19.1681 42.5116 17.4774 40.9992 16.8333L4.06608 0.248218C2.55373 -0.395864 0.882184 0.248226 0.245406 1.77792C-0.391372 3.30761 0.245407 4.99832 1.75776 5.6424L38.6909 22.2275C40.1236 22.8716 41.8748 22.147 42.5116 20.6978Z" transform="translate(29.9187 135.364)" fill="url(#paint64_linear)"/>
<path d="M5.8902 30.5939V2.97888C5.8902 1.36867 4.61663 -2.45698e-06 2.94509 -2.45698e-06C1.35314 -2.45698e-06 4.85823e-06 1.28816 4.85823e-06 2.97888V30.5939C4.85823e-06 32.2041 1.27355 33.5728 2.94509 33.5728C4.61663 33.4922 5.8902 32.2041 5.8902 30.5939Z" transform="translate(186.652 36.1822)" fill="url(#paint65_linear)"/>
<path d="M3.58187 48.2256C5.17381 48.2256 6.44737 46.857 6.44737 45.2467L5.81061 2.89837C5.81061 1.28816 4.45744 1.22849e-06 2.8655 1.22849e-06C1.27355 1.22849e-06 -9.71646e-06 1.36867 -9.71646e-06 2.97888L0.636783 45.3273C0.636783 47.018 1.91032 48.3061 3.58187 48.2256Z" transform="translate(174.076 21.4488)" fill="url(#paint66_linear)"/>
<path d="M4.14258 26.1658C5.81413 26.0853 7.08769 24.7166 7.00809 23.0259L5.89373 2.81786C5.81414 1.20766 4.46099 2.45698e-06 2.86905 2.45698e-06C1.19751 0.0805127 -0.0760561 1.44918 0.00354119 3.1399L1.1179 23.348C1.27709 25.0387 2.63024 26.2463 4.14258 26.1658Z" transform="translate(162.372 43.5086)" fill="url(#paint67_linear)"/>
<path d="M12.6068 70.4618C14.2783 70.3008 15.4723 68.7711 15.2335 67.0803L5.84102 2.51114C5.60223 0.981443 4.24907 -0.145699 2.65713 0.0153216C0.985584 0.176342 -0.208366 1.70603 0.0304261 3.39675L9.42289 67.966C9.66169 69.4956 11.0148 70.6228 12.6068 70.4618Z" transform="translate(144.356 0.0178833)" fill="url(#paint68_linear)"/>
<path d="M2.16505 0.0915419C0.573107 0.494093 -0.302468 2.1043 0.0955182 3.7145L10.284 43.3255C10.682 44.9357 12.2739 45.8213 13.8658 45.4188C15.4578 45.0162 16.3334 43.406 15.9354 41.7958L5.74693 2.18481C5.26935 0.655112 3.6774 -0.311009 2.16505 0.0915419Z" transform="translate(133.704 25.7853)" fill="url(#paint69_linear)"/>
<defs>
<linearGradient id="paint0_linear" x2="1" gradientUnits="userSpaceOnUse" gradientTransform="translate(27.2438) scale(27.2438 23.2088) rotate(90)">
<stop stop-color="#D900FF"/>
<stop offset="1" stop-color="#00F0FF"/>
</linearGradient>
<linearGradient id="paint1_linear" x2="1" gradientUnits="userSpaceOnUse" gradientTransform="translate(38.212) scale(38.212 32.8535) rotate(90)">
<stop stop-color="#D900FF"/>
<stop offset="1" stop-color="#00F0FF"/>
</linearGradient>
<linearGradient id="paint2_linear" x2="1" gradientUnits="userSpaceOnUse" gradientTransform="translate(20.7144) scale(20.7144 19.4286) rotate(90)">
<stop stop-color="#D900FF"/>
<stop offset="1" stop-color="#00F0FF"/>
</linearGradient>
<linearGradient id="paint3_linear" x2="1" gradientUnits="userSpaceOnUse" gradientTransform="translate(49.9871) scale(49.9871 53.5295) rotate(90)">
<stop stop-color="#D900FF"/>
<stop offset="1" stop-color="#00F0FF"/>
</linearGradient>
<linearGradient id="paint4_linear" x2="1" gradientUnits="userSpaceOnUse" gradientTransform="translate(30.0499) scale(30.0499 38.6526) rotate(90)">
<stop stop-color="#D900FF"/>
<stop offset="1" stop-color="#00F0FF"/>
</linearGradient>
<linearGradient id="paint5_linear" x2="1" gradientUnits="userSpaceOnUse" gradientTransform="translate(32.4629) scale(32.4629 12.0389) rotate(90)">
<stop stop-color="#00F0FF"/>
<stop offset="1" stop-color="#D900FF"/>
</linearGradient>
<linearGradient id="paint6_linear" x2="1" gradientUnits="userSpaceOnUse" gradientTransform="translate(46.8422) scale(46.8422 14.6958) rotate(90)">
<stop stop-color="#00F0FF"/>
<stop offset="1" stop-color="#D900FF"/>
</linearGradient>
<linearGradient id="paint7_linear" x2="1" gradientUnits="userSpaceOnUse" gradientTransform="matrix(-39.9564 4.70042 -12.9991 -113.099 32.0924 56.3945)">
<stop stop-color="#00F0FF"/>
<stop offset="1" stop-color="#D900FF"/>
</linearGradient>
<linearGradient id="paint8_linear" x2="1" gradientUnits="userSpaceOnUse" gradientTransform="matrix(-65.0454 5.64051 -35.8166 -422.746 87.6893 211.687)">
<stop stop-color="#00F0FF"/>
<stop offset="1" stop-color="#D900FF"/>
</linearGradient>
<linearGradient id="paint9_linear" x2="1" gradientUnits="userSpaceOnUse" gradientTransform="translate(-0.0663039 -129.884) scale(41.8149 273.376)">
<stop stop-color="#D900FF"/>
<stop offset="1" stop-color="#00F0FF"/>
</linearGradient>
<linearGradient id="paint10_linear" x2="1" gradientUnits="userSpaceOnUse" gradientTransform="translate(17.7188) scale(17.7188 30.7896) rotate(90)">
<stop stop-color="#00F0FF"/>
<stop offset="1" stop-color="#D900FF"/>
</linearGradient>
<linearGradient id="paint11_linear" x2="1" gradientUnits="userSpaceOnUse" gradientTransform="translate(24.5376) scale(24.5376 43.7036) rotate(90)">
<stop stop-color="#00F0FF"/>
<stop offset="1" stop-color="#D900FF"/>
</linearGradient>
<linearGradient id="paint12_linear" x2="1" gradientUnits="userSpaceOnUse" gradientTransform="translate(15.5338) scale(15.5338 23.6112) rotate(90)">
<stop stop-color="#00F0FF"/>
<stop offset="1" stop-color="#D900FF"/>
</linearGradient>
<linearGradient id="paint13_linear" x2="1" gradientUnits="userSpaceOnUse" gradientTransform="translate(41.9542) scale(41.9542 59.9252) rotate(90)">
<stop stop-color="#00F0FF"/>
<stop offset="1" stop-color="#D900FF"/>
</linearGradient>
<linearGradient id="paint14_linear" x2="1" gradientUnits="userSpaceOnUse" gradientTransform="translate(32.0172) scale(32.0172 37.0811) rotate(90)">
<stop stop-color="#00F0FF"/>
<stop offset="1" stop-color="#D900FF"/>
</linearGradient>
<linearGradient id="paint15_linear" x2="1" gradientUnits="userSpaceOnUse" gradientTransform="translate(17.7049) scale(17.7049 30.7252) rotate(90)">
<stop stop-color="#00F0FF"/>
<stop offset="1" stop-color="#D900FF"/>
</linearGradient>
<linearGradient id="paint16_linear" x2="1" gradientUnits="userSpaceOnUse" gradientTransform="translate(23.4177) scale(23.4177 44.3446) rotate(90)">
<stop stop-color="#00F0FF"/>
<stop offset="1" stop-color="#D900FF"/>
</linearGradient>
<linearGradient id="paint17_linear" x2="1" gradientUnits="userSpaceOnUse" gradientTransform="translate(13.5216) scale(13.5216 24.638) rotate(90)">
<stop stop-color="#00F0FF"/>
<stop offset="1" stop-color="#D900FF"/>
</linearGradient>
<linearGradient id="paint18_linear" x2="1" gradientUnits="userSpaceOnUse" gradientTransform="translate(25.112) scale(25.112 68.1805) rotate(90)">
<stop stop-color="#00F0FF"/>
<stop offset="1" stop-color="#D900FF"/>
</linearGradient>
<linearGradient id="paint19_linear" x2="1" gradientUnits="userSpaceOnUse" gradientTransform="translate(13.6466) scale(13.6466 46.0878) rotate(90)">
<stop stop-color="#00F0FF"/>
<stop offset="1" stop-color="#D900FF"/>
</linearGradient>
<linearGradient id="paint20_linear" x2="1" gradientUnits="userSpaceOnUse" gradientTransform="translate(32.4596) scale(32.4596 12.0883) rotate(90)">
<stop stop-color="#00F0FF"/>
<stop offset="1" stop-color="#D900FF"/>
</linearGradient>
<linearGradient id="paint21_linear" x2="1" gradientUnits="userSpaceOnUse" gradientTransform="translate(46.506) scale(46.506 15.9625) rotate(90)">
<stop stop-color="#00F0FF"/>
<stop offset="1" stop-color="#D900FF"/>
</linearGradient>
<linearGradient id="paint22_linear" x2="1" gradientUnits="userSpaceOnUse" gradientTransform="translate(25.0261) scale(25.0261 11.521) rotate(90)">
<stop stop-color="#00F0FF"/>
<stop offset="1" stop-color="#D900FF"/>
</linearGradient>
<linearGradient id="paint23_linear" x2="1" gradientUnits="userSpaceOnUse" gradientTransform="translate(66.0406) scale(66.0406 29.5356) rotate(90)">
<stop stop-color="#00F0FF"/>
<stop offset="1" stop-color="#D900FF"/>
</linearGradient>
<linearGradient id="paint24_linear" x2="1" gradientUnits="userSpaceOnUse" gradientTransform="translate(41.6956) scale(41.6956 24.7031) rotate(90)">
<stop stop-color="#00F0FF"/>
<stop offset="1" stop-color="#D900FF"/>
</linearGradient>
<linearGradient id="paint25_linear" x2="1" gradientUnits="userSpaceOnUse" gradientTransform="translate(27.1768) scale(27.1768 23.1409) rotate(90)">
<stop stop-color="#D900FF"/>
<stop offset="1" stop-color="#00F0FF"/>
</linearGradient>
<linearGradient id="paint26_linear" x2="1" gradientUnits="userSpaceOnUse" gradientTransform="translate(38.8965) scale(38.8965 31.7747) rotate(90)">
<stop stop-color="#D900FF"/>
<stop offset="1" stop-color="#00F0FF"/>
</linearGradient>
<linearGradient id="paint27_linear" x2="1" gradientUnits="userSpaceOnUse" gradientTransform="translate(22.2389) scale(22.2389 17.5932) rotate(90)">
<stop stop-color="#D900FF"/>
<stop offset="1" stop-color="#00F0FF"/>
</linearGradient>
<linearGradient id="paint28_linear" x2="1" gradientUnits="userSpaceOnUse" gradientTransform="translate(61.5674) scale(61.5674 38.7706) rotate(90)">
<stop stop-color="#D900FF"/>
<stop offset="1" stop-color="#00F0FF"/>
</linearGradient>
<linearGradient id="paint29_linear" x2="1" gradientUnits="userSpaceOnUse" gradientTransform="translate(42.757) scale(42.757 22.4757) rotate(90)">
<stop stop-color="#D900FF"/>
<stop offset="1" stop-color="#00F0FF"/>
</linearGradient>
<linearGradient id="paint30_linear" x2="1" gradientUnits="userSpaceOnUse" gradientTransform="translate(5.8902) scale(5.8902 33.5728) rotate(90)">
<stop stop-color="#D900FF"/>
<stop offset="1" stop-color="#00F0FF"/>
</linearGradient>
<linearGradient id="paint31_linear" x2="1" gradientUnits="userSpaceOnUse" gradientTransform="translate(6.44738) scale(6.44738 48.2292) rotate(90)">
<stop stop-color="#D900FF"/>
<stop offset="1" stop-color="#00F0FF"/>
</linearGradient>
<linearGradient id="paint32_linear" x2="1" gradientUnits="userSpaceOnUse" gradientTransform="translate(7.01163) scale(7.01163 26.1694) rotate(90)">
<stop stop-color="#D900FF"/>
<stop offset="1" stop-color="#00F0FF"/>
</linearGradient>
<linearGradient id="paint33_linear" x2="1" gradientUnits="userSpaceOnUse" gradientTransform="translate(15.2639) scale(15.2639 70.4771) rotate(90)">
<stop stop-color="#D900FF"/>
<stop offset="1" stop-color="#00F0FF"/>
</linearGradient>
<linearGradient id="paint34_linear" x2="1" gradientUnits="userSpaceOnUse" gradientTransform="translate(16.0259) scale(16.0259 45.5103) rotate(90)">
<stop stop-color="#D900FF"/>
<stop offset="1" stop-color="#00F0FF"/>
</linearGradient>
<linearGradient id="paint35_linear" x2="1" gradientUnits="userSpaceOnUse" gradientTransform="translate(27.2103) scale(27.2103 23.1409) rotate(90)">
<stop stop-color="#D900FF"/>
<stop offset="1" stop-color="#00F0FF"/>
</linearGradient>
<linearGradient id="paint36_linear" x2="1" gradientUnits="userSpaceOnUse" gradientTransform="translate(38.212) scale(38.212 32.8535) rotate(90)">
<stop stop-color="#D900FF"/>
<stop offset="1" stop-color="#00F0FF"/>
</linearGradient>
<linearGradient id="paint37_linear" x2="1" gradientUnits="userSpaceOnUse" gradientTransform="translate(20.7086) scale(20.7086 19.3959) rotate(90)">
<stop stop-color="#D900FF"/>
<stop offset="1" stop-color="#00F0FF"/>
</linearGradient>
<linearGradient id="paint38_linear" x2="1" gradientUnits="userSpaceOnUse" gradientTransform="translate(49.8677) scale(49.8677 53.5594) rotate(90)">
<stop stop-color="#D900FF"/>
<stop offset="1" stop-color="#00F0FF"/>
</linearGradient>
<linearGradient id="paint39_linear" x2="1" gradientUnits="userSpaceOnUse" gradientTransform="translate(30.0158) scale(30.0158 38.6181) rotate(90)">
<stop stop-color="#D900FF"/>
<stop offset="1" stop-color="#00F0FF"/>
</linearGradient>
<linearGradient id="paint40_linear" x2="1" gradientUnits="userSpaceOnUse" gradientTransform="translate(32.4873) scale(32.4873 12.0883) rotate(90)">
<stop stop-color="#00F0FF"/>
<stop offset="1" stop-color="#D900FF"/>
</linearGradient>
<linearGradient id="paint41_linear" x2="1" gradientUnits="userSpaceOnUse" gradientTransform="translate(46.8456) scale(46.8456 14.7205) rotate(90)">
<stop stop-color="#00F0FF"/>
<stop offset="1" stop-color="#D900FF"/>
</linearGradient>
<linearGradient id="paint42_linear" x2="1" gradientUnits="userSpaceOnUse" gradientTransform="matrix(37.1688 4.70042 -13.0051 105.257 6.33345 -52.7859)">
<stop stop-color="#00F0FF"/>
<stop offset="1" stop-color="#D900FF"/>
</linearGradient>
<linearGradient id="paint43_linear" x2="1" gradientUnits="userSpaceOnUse" gradientTransform="matrix(81.7713 10.3409 -65.5426 530.471 2.33519 -264.91)">
<stop offset="0.491613" stop-color="#00F0FF"/>
<stop offset="1" stop-color="#D900FF"/>
</linearGradient>
<linearGradient id="paint44_linear" x2="1" gradientUnits="userSpaceOnUse" gradientTransform="matrix(-64.1162 3.76034 -24.0429 -419.59 75.9164 210.015)">
<stop stop-color="#D900FF"/>
<stop offset="1" stop-color="#00F0FF"/>
</linearGradient>
<linearGradient id="paint45_linear" x2="1" gradientUnits="userSpaceOnUse" gradientTransform="translate(17.7049) scale(17.7049 30.8037) rotate(90)">
<stop stop-color="#00F0FF"/>
<stop offset="1" stop-color="#D900FF"/>
</linearGradient>
<linearGradient id="paint46_linear" x2="1" gradientUnits="userSpaceOnUse" gradientTransform="translate(24.5026) scale(24.5026 43.7036) rotate(90)">
<stop stop-color="#00F0FF"/>
<stop offset="1" stop-color="#D900FF"/>
</linearGradient>
<linearGradient id="paint47_linear" x2="1" gradientUnits="userSpaceOnUse" gradientTransform="translate(15.5502) scale(15.5502 23.5802) rotate(90)">
<stop stop-color="#00F0FF"/>
<stop offset="1" stop-color="#D900FF"/>
</linearGradient>
<linearGradient id="paint48_linear" x2="1" gradientUnits="userSpaceOnUse" gradientTransform="translate(41.9542) scale(41.9542 59.9449) rotate(90)">
<stop stop-color="#00F0FF"/>
<stop offset="1" stop-color="#D900FF"/>
</linearGradient>
<linearGradient id="paint49_linear" x2="1" gradientUnits="userSpaceOnUse" gradientTransform="translate(32.0172) scale(32.0172 36.9736) rotate(90)">
<stop stop-color="#00F0FF"/>
<stop offset="1" stop-color="#D900FF"/>
</linearGradient>
<linearGradient id="paint50_linear" x2="1" gradientUnits="userSpaceOnUse" gradientTransform="translate(17.7049) scale(17.7049 30.7896) rotate(90)">
<stop stop-color="#00F0FF"/>
<stop offset="1" stop-color="#D900FF"/>
</linearGradient>
<linearGradient id="paint51_linear" x2="1" gradientUnits="userSpaceOnUse" gradientTransform="translate(23.512) scale(23.512 44.3923) rotate(90)">
<stop stop-color="#00F0FF"/>
<stop offset="1" stop-color="#D900FF"/>
</linearGradient>
<linearGradient id="paint52_linear" x2="1" gradientUnits="userSpaceOnUse" gradientTransform="translate(13.5216) scale(13.5216 24.6035) rotate(90)">
<stop stop-color="#00F0FF"/>
<stop offset="1" stop-color="#D900FF"/>
</linearGradient>
<linearGradient id="paint53_linear" x2="1" gradientUnits="userSpaceOnUse" gradientTransform="translate(25.112) scale(25.112 68.1482) rotate(90)">
<stop stop-color="#00F0FF"/>
<stop offset="1" stop-color="#D900FF"/>
</linearGradient>
<linearGradient id="paint54_linear" x2="1" gradientUnits="userSpaceOnUse" gradientTransform="translate(13.6466) scale(13.6466 46.0878) rotate(90)">
<stop stop-color="#00F0FF"/>
<stop offset="1" stop-color="#D900FF"/>
</linearGradient>
<linearGradient id="paint55_linear" x2="1" gradientUnits="userSpaceOnUse" gradientTransform="translate(32.4385) scale(32.4385 12.0389) rotate(90)">
<stop stop-color="#00F0FF"/>
<stop offset="1" stop-color="#D900FF"/>
</linearGradient>
<linearGradient id="paint56_linear" x2="1" gradientUnits="userSpaceOnUse" gradientTransform="translate(46.506) scale(46.506 15.9625) rotate(90)">
<stop stop-color="#00F0FF"/>
<stop offset="1" stop-color="#D900FF"/>
</linearGradient>
<linearGradient id="paint57_linear" x2="1" gradientUnits="userSpaceOnUse" gradientTransform="translate(25.0261) scale(25.0261 11.521) rotate(90)">
<stop stop-color="#00F0FF"/>
<stop offset="1" stop-color="#D900FF"/>
</linearGradient>
<linearGradient id="paint58_linear" x2="1" gradientUnits="userSpaceOnUse" gradientTransform="translate(66.025) scale(66.025 29.5033) rotate(90)">
<stop stop-color="#00F0FF"/>
<stop offset="1" stop-color="#D900FF"/>
</linearGradient>
<linearGradient id="paint59_linear" x2="1" gradientUnits="userSpaceOnUse" gradientTransform="translate(41.6956) scale(41.6956 24.754) rotate(90)">
<stop stop-color="#00F0FF"/>
<stop offset="1" stop-color="#D900FF"/>
</linearGradient>
<linearGradient id="paint60_linear" x2="1" gradientUnits="userSpaceOnUse" gradientTransform="translate(27.2438) scale(27.2438 23.1748) rotate(90)">
<stop stop-color="#D900FF"/>
<stop offset="1" stop-color="#00F0FF"/>
</linearGradient>
<linearGradient id="paint61_linear" x2="1" gradientUnits="userSpaceOnUse" gradientTransform="translate(38.8965) scale(38.8965 31.7747) rotate(90)">
<stop stop-color="#D900FF"/>
<stop offset="1" stop-color="#00F0FF"/>
</linearGradient>
<linearGradient id="paint62_linear" x2="1" gradientUnits="userSpaceOnUse" gradientTransform="translate(22.2499) scale(22.2499 17.5932) rotate(90)">
<stop stop-color="#D900FF"/>
<stop offset="1" stop-color="#00F0FF"/>
</linearGradient>
<linearGradient id="paint63_linear" x2="1" gradientUnits="userSpaceOnUse" gradientTransform="translate(61.4969) scale(61.4969 38.7706) rotate(90)">
<stop stop-color="#D900FF"/>
<stop offset="1" stop-color="#00F0FF"/>
</linearGradient>
<linearGradient id="paint64_linear" x2="1" gradientUnits="userSpaceOnUse" gradientTransform="translate(42.757) scale(42.757 22.464) rotate(90)">
<stop stop-color="#D900FF"/>
<stop offset="1" stop-color="#00F0FF"/>
</linearGradient>
<linearGradient id="paint65_linear" x2="1" gradientUnits="userSpaceOnUse" gradientTransform="translate(5.8902) scale(5.8902 33.5728) rotate(90)">
<stop stop-color="#D900FF"/>
<stop offset="1" stop-color="#00F0FF"/>
</linearGradient>
<linearGradient id="paint66_linear" x2="1" gradientUnits="userSpaceOnUse" gradientTransform="translate(6.44738) scale(6.44738 48.2292) rotate(90)">
<stop stop-color="#D900FF"/>
<stop offset="1" stop-color="#00F0FF"/>
</linearGradient>
<linearGradient id="paint67_linear" x2="1" gradientUnits="userSpaceOnUse" gradientTransform="translate(7.01163) scale(7.01163 26.1696) rotate(90)">
<stop stop-color="#D900FF"/>
<stop offset="1" stop-color="#00F0FF"/>
</linearGradient>
<linearGradient id="paint68_linear" x2="1" gradientUnits="userSpaceOnUse" gradientTransform="translate(15.2639) scale(15.2639 70.4771) rotate(90)">
<stop stop-color="#D900FF"/>
<stop offset="1" stop-color="#00F0FF"/>
</linearGradient>
<linearGradient id="paint69_linear" x2="1" gradientUnits="userSpaceOnUse" gradientTransform="translate(16.0309) scale(16.0309 45.5154) rotate(90)">
<stop stop-color="#D900FF"/>
<stop offset="1" stop-color="#00F0FF"/>
</linearGradient>
</defs>
</svg>
