<svg width="512" height="506" viewBox="0 0 512 506" fill="none" xmlns="http://www.w3.org/2000/svg">
<path d="M5.91365 77.3703C8.69955 79.6246 12.1222 80.8323 15.6245 80.8323C16.1817 80.8323 16.8185 80.8323 17.3757 80.7518C21.5147 80.2687 25.2558 78.1754 27.8825 74.8745C29.6336 72.6202 30.748 70.0439 31.146 67.226L47.6226 69.5608C47.2246 73.1033 48.4982 76.8873 51.5229 79.3026C53.5128 80.9128 55.8211 81.6374 58.1294 81.6374C61.2337 81.6374 64.338 80.2687 66.4076 77.6119C68.1587 75.3576 68.9547 72.5397 68.6363 69.7219C68.4771 68.4337 68.1587 67.3065 67.6015 66.1794L76.1184 62.1539L76.4368 61.9929L76.7552 61.8319L85.1129 57.5648C86.7845 61.1878 90.4459 63.7641 94.7442 63.7641C100.634 63.7641 105.331 58.9335 105.331 53.0562C105.331 49.1918 103.261 45.8103 100.236 43.9586L108.674 29.4667C110.982 30.8354 113.688 31.6405 116.554 31.6405C125.15 31.6405 132.234 24.5556 132.234 15.78C132.234 7.00439 125.23 0 116.633 0C107.957 0 100.953 7.0849 100.953 15.8605C100.953 21.4157 103.739 26.2463 108.037 29.0642L99.5996 43.6365C98.1669 42.912 96.4953 42.4289 94.7442 42.4289C88.854 42.4289 84.1578 47.2595 84.1578 53.1368C84.1578 54.5054 84.3965 55.7936 84.8741 56.9207L76.1184 61.3488L67.2831 65.5353C66.6464 64.4082 65.7708 63.4421 64.736 62.5564C62.5073 60.7852 59.7214 59.9801 56.9355 60.3022C54.1496 60.6242 51.6025 62.0734 49.8513 64.2472C48.737 65.6158 48.1002 67.226 47.7818 68.8363L31.3052 66.5014C31.3848 65.4548 31.3848 64.3277 31.3052 63.281C30.8276 59.0945 28.7581 55.3105 25.4946 52.6537C22.2311 49.9969 18.1716 48.7892 13.953 49.2723C9.81391 49.7553 6.07284 51.8486 3.44613 55.1495C0.819422 58.4504 -0.374535 62.5564 0.103049 66.8235C0.580632 71.01 2.57056 74.794 5.91365 77.3703ZM101.749 15.8605C101.749 7.56796 108.435 0.805102 116.633 0.805102C124.832 0.805102 131.518 7.56796 131.518 15.8605C131.518 24.1531 124.832 30.9159 116.633 30.9159C108.435 30.8354 101.749 24.1531 101.749 15.8605ZM94.7442 43.234C100.157 43.234 104.535 47.6621 104.535 53.1368C104.535 58.6114 100.157 63.0395 94.7442 63.0395C89.3316 63.0395 84.9537 58.6114 84.9537 53.1368C84.8741 47.6621 89.3316 43.234 94.7442 43.234ZM50.4085 64.8107C52.0801 62.7175 54.3884 61.4293 57.0151 61.1073C59.6418 60.7852 62.1889 61.5903 64.2584 63.2005C68.4771 66.582 69.1935 72.8618 65.8504 77.1288C62.5073 81.3958 56.2987 82.1204 52.0801 78.739C47.7818 75.3576 47.0654 69.0778 50.4085 64.8107ZM4.00331 55.6326C6.47082 52.4927 9.9731 50.4799 13.953 50.0774C14.5101 49.9969 15.0673 49.9969 15.6245 49.9969C18.9676 49.9969 22.2311 51.124 24.8578 53.2978C27.9621 55.7936 29.952 59.336 30.35 63.3615C30.8276 67.3871 29.7132 71.2516 27.1661 74.3915C24.6986 77.5314 21.1963 79.5441 17.2165 79.9467C13.2366 80.4297 9.41593 79.3026 6.31163 76.7262C-0.0561494 71.5736 -1.09092 62.1539 4.00331 55.6326Z" transform="translate(88.5039 0.00634766)" fill="#8000FF"/>
<path d="M15.6958 142.124C16.8102 142.124 18.0041 141.963 19.1981 141.722C27.6354 139.789 32.8888 131.255 30.9785 122.802C30.3417 119.984 28.9886 117.488 27.0782 115.475L39.177 103.882C41.167 105.895 43.8733 107.102 46.7388 107.102C47.5347 107.102 48.3307 107.022 49.1267 106.861C51.9126 106.217 54.2209 104.526 55.7333 102.111C57.2456 99.6954 57.7232 96.797 57.0864 93.9791C56.1312 89.7926 52.8677 86.7332 48.9675 85.9281L51.1962 76.75L51.2758 76.4279L51.3554 76.1059L53.2657 66.8472C54.0617 67.0082 54.8577 67.1692 55.7333 67.1692C58.8375 67.1692 61.9418 65.8006 64.0114 63.1437C67.6728 58.5546 66.8769 51.7113 62.3398 48.0883C59.3151 45.673 55.4945 45.1899 52.1514 46.3976L46.1816 30.6981C48.7287 29.732 50.9574 28.1218 52.7882 25.787C55.4149 22.4861 56.6088 18.3801 56.1312 14.113C55.6537 9.92648 53.5841 6.1425 50.3206 3.48566C47.0571 0.828825 42.9977 -0.378838 38.779 0.104223C34.64 0.587285 30.8989 2.68055 28.2722 5.98147C22.8596 12.8248 23.9739 22.8081 30.7397 28.2023C33.6052 30.5371 37.0279 31.6642 40.4506 31.6642C42.1221 31.6642 43.7937 31.4227 45.306 30.8591L51.2758 46.6391C49.7635 47.2832 48.4103 48.3298 47.2959 49.6985C43.6345 54.2876 44.4304 61.131 48.9675 64.7539C50.0022 65.559 51.1962 66.2031 52.3902 66.6057L50.4002 76.2669L48.0919 85.8476C46.8184 85.6866 45.5448 85.6866 44.2712 86.0086C38.5402 87.2968 34.9584 93.0935 36.3115 98.8903C36.7095 100.581 37.5055 102.111 38.5402 103.399L26.5211 114.912C22.8596 111.369 17.5266 109.679 12.1935 110.886C8.13408 111.852 4.6318 114.348 2.40308 117.891C0.174356 121.433 -0.542019 125.7 0.413148 129.806C2.08469 137.133 8.53207 142.124 15.6958 142.124ZM31.3765 27.4777C25.0087 22.325 23.8943 12.8248 28.9886 6.38402C31.4561 3.24412 34.9584 1.23137 38.9382 0.828823C39.4954 0.748313 40.0526 0.748308 40.6098 0.748308C43.9529 0.748308 47.2163 1.87546 49.8431 4.04923C52.9473 6.54505 54.9373 10.0875 55.3353 14.113C55.8129 18.1385 54.6985 22.003 52.1514 25.1429C47.1367 31.5837 37.7443 32.6304 31.3765 27.4777ZM48.0919 50.1011C50.0023 47.6858 52.8678 46.3976 55.8129 46.3976C57.962 46.3976 60.1111 47.1222 61.9418 48.5714C66.1605 51.9528 66.8769 58.2326 63.5338 62.4996C60.1907 66.7667 53.9821 67.4913 49.7635 64.1099C45.4652 60.6479 44.7488 54.4486 48.0919 50.1011ZM44.5896 86.7332C45.306 86.5722 46.0224 86.4917 46.8184 86.4917C48.6491 86.4917 50.4002 86.9748 51.9922 88.0214C54.2209 89.4706 55.7333 91.6443 56.37 94.2207C56.9272 96.797 56.5292 99.4538 55.0965 101.708C53.6637 103.962 51.5146 105.492 48.9675 106.136C43.7141 107.344 38.381 104.043 37.1871 98.6487C35.9931 93.2545 39.3362 87.9409 44.5896 86.7332ZM3.11946 118.293C5.26858 114.912 8.53207 112.496 12.4323 111.611C13.5467 111.369 14.6611 111.208 15.7754 111.208C22.5412 111.208 28.6702 115.958 30.2621 122.882C32.0929 130.933 27.0782 139.065 19.1185 140.917C15.2182 141.802 11.2384 141.158 7.89529 138.984C4.55221 136.811 2.16429 133.51 1.28872 129.565C0.333551 125.7 0.970329 121.675 3.11946 118.293Z" transform="translate(-3.05176e-05 129.846)" fill="#8000FF"/>
<path d="M21.4913 8.93663C19.8197 9.33918 18.387 10.2248 17.3522 11.4325L0.477584 -9.82791e-06L-1.21456e-06 0.644087L16.795 11.996C15.4419 13.8478 14.8847 16.1825 15.4419 18.5173C15.9195 20.6106 17.193 22.3818 18.9442 23.5895C20.2177 24.3946 21.7301 24.7972 23.1628 24.7972C23.6404 24.7972 24.118 24.7166 24.5956 24.6361L26.7447 34.1363L28.7346 42.8314C26.8243 43.395 25.2323 44.6027 24.118 46.2934C23.0036 48.1451 22.6056 50.3189 23.0832 52.4121C23.6404 54.7469 25.1527 56.6792 27.0631 57.7258L16.795 75.3576L17.5114 75.7601L27.859 58.0479C28.8142 58.4504 29.849 58.692 30.8837 58.692C31.4409 58.692 32.0777 58.6114 32.6349 58.4504C34.7044 57.9674 36.4556 56.6792 37.6495 54.908C38.7639 53.0562 39.1619 50.8825 38.6843 48.7892C38.2067 46.6959 36.9331 44.9247 35.182 43.7171C33.5105 42.6704 31.5205 42.2679 29.5306 42.5899L27.3815 33.0897L25.3915 24.3946C27.3019 23.831 28.8938 22.6234 30.0082 20.9326C31.1225 19.0809 31.5205 16.9072 31.0429 14.8139C30.0878 10.6274 25.7895 7.89 21.4913 8.93663ZM30.9633 43.395C32.3165 43.395 33.59 43.7976 34.784 44.5222C36.376 45.5688 37.5699 47.179 37.9679 49.0307C38.3659 50.8825 38.0475 52.8952 37.0127 54.5054C35.978 56.1156 34.386 57.3233 32.5553 57.7258C28.655 58.6114 24.8343 56.1961 23.9588 52.2511C23.5608 50.3189 23.8792 48.3866 24.9139 46.7764C25.9487 45.1662 27.5407 43.9586 29.3714 43.556C29.849 43.4755 30.4062 43.395 30.9633 43.395ZM30.3266 15.1359C30.7245 17.0682 30.4062 19.0004 29.3714 20.6106C28.3366 22.2208 26.7447 23.4285 24.9139 23.831C23.0036 24.2336 21.0933 23.9115 19.5013 22.8649C17.9094 21.8183 16.7154 20.2081 16.3174 18.3563C15.4419 14.4113 17.8298 10.5468 21.7301 9.66122C22.2872 9.5002 22.7648 9.50021 23.322 9.50021C26.5855 9.50021 29.5306 11.835 30.3266 15.1359Z" transform="translate(27.1578 266.334)" fill="#8000FF"/>
<path d="M92.2473 90.2673C89.6206 88.9791 86.9143 88.5766 84.208 88.7376L82.8548 71.9914C83.6508 71.9109 84.5264 71.7499 85.3224 71.4279C88.0287 70.4618 90.1778 68.5295 91.3717 65.9532C92.5657 63.3769 92.7249 60.4785 91.8493 57.7412C90.8942 55.0038 88.9838 52.83 86.4367 51.6224C83.8896 50.4147 81.0241 50.2537 78.3178 51.1393C77.1238 51.5419 76.0891 52.186 75.1339 52.9105L69.4029 45.4231L69.1641 45.1816L68.9253 44.94L62.9555 37.6136C66.0598 35.1178 67.7314 30.9313 66.7762 26.7447C66.1394 23.9269 64.4679 21.5921 62.08 20.0624C59.692 18.5327 56.8265 18.0496 54.0406 18.6937C50.2996 19.5793 47.5137 22.3167 46.3993 25.6981L30.5594 20.6259C31.3554 17.9691 31.5146 15.1513 30.8778 12.3334C29.9227 8.22738 27.4551 4.68494 23.9529 2.43065C20.4506 0.176366 16.2319 -0.548226 12.1725 0.417897C3.73515 2.35014 -1.51827 10.8842 0.392068 19.3378C2.06361 26.6642 8.51099 31.6559 15.6747 31.6559C16.7891 31.6559 17.9831 31.4948 19.177 31.2533C23.2365 30.2872 26.7388 27.7914 28.9675 24.2489C29.5247 23.2828 30.0023 22.3167 30.4002 21.3506L46.3197 26.4227C45.9217 28.0329 45.8421 29.7236 46.2401 31.4948C47.3545 36.4865 51.7323 39.8679 56.5877 39.8679C57.3837 39.8679 58.1797 39.7874 58.9757 39.6264C60.2492 39.3043 61.4432 38.8213 62.4779 38.0967L68.6865 45.7451L74.6563 53.5546C73.7012 54.4403 72.9848 55.4869 72.348 56.6945C71.154 59.2709 70.9949 62.1692 71.8704 64.9066C72.8256 67.6439 74.7359 69.8177 77.283 71.0253C78.7158 71.7499 80.3077 72.072 81.8997 72.072C81.9793 72.072 82.0589 72.072 82.2181 72.072L83.5712 88.8986C78.5566 89.6232 73.8604 92.7631 71.552 97.6742C67.811 105.564 71.0744 114.984 78.875 118.848C81.0241 119.895 83.3324 120.459 85.6407 120.459C87.3919 120.459 89.143 120.137 90.8146 119.573C94.7944 118.204 97.8987 115.306 99.7295 111.522C101.56 107.738 101.799 103.39 100.366 99.4455C98.8539 95.2589 95.9884 92.119 92.2473 90.2673ZM28.1715 23.8464C26.0224 27.2278 22.7589 29.6431 18.8586 30.5287C10.8989 32.3805 2.85958 27.3083 1.02885 19.2573C-0.801892 11.2063 4.21274 3.07473 12.1725 1.223C13.2868 0.981468 14.4012 0.820448 15.5155 0.820448C18.3015 0.820448 21.0078 1.62555 23.3957 3.15524C26.7388 5.32902 29.1267 8.62992 30.0023 12.5749C30.9574 16.4394 30.241 20.4649 28.1715 23.8464ZM58.5777 38.8213C53.3242 40.0289 47.9912 36.728 46.7973 31.3338C45.6033 26.0201 48.8668 20.6259 54.1998 19.4183C56.7469 18.8547 59.3736 19.2573 61.6024 20.7065C63.8311 22.1556 65.3434 24.3294 65.9802 26.9058C67.1742 32.2999 63.8311 37.6136 58.5777 38.8213ZM77.4422 70.2202C75.0543 69.0931 73.3032 67.0803 72.4276 64.5845C71.552 62.0887 71.7112 59.3514 72.8256 57.0166C73.9399 54.6013 75.9299 52.83 78.3974 51.9444C79.4322 51.5419 80.5465 51.3809 81.6609 51.3809C83.0936 51.3809 84.5264 51.7029 85.8795 52.347C88.2675 53.4741 90.0186 55.4869 90.8942 57.9827C91.7697 60.4785 91.6105 63.2159 90.4962 65.5507C88.1879 70.5423 82.3773 72.6356 77.4422 70.2202ZM98.8539 111.039C97.1028 114.662 94.1577 117.399 90.337 118.687C86.5959 119.976 82.5365 119.815 78.9546 118.043C71.552 114.42 68.4477 105.484 72.0296 97.9963C74.5767 92.6021 79.9097 89.4622 85.4019 89.4622C87.5511 89.4622 89.7798 89.9452 91.8493 90.9114C95.4312 92.6826 98.1375 95.6615 99.4111 99.526C100.764 103.31 100.525 107.416 98.8539 111.039Z" transform="translate(22.7859 340.71)" fill="#8000FF"/>
<path d="M132.9 19.863C128.92 18.4944 124.701 18.7359 120.96 20.5071C118.413 21.7148 116.343 23.647 114.752 25.9013L100.902 16.5621C101.379 15.8375 101.698 15.1129 102.016 14.3078C102.971 11.5705 102.812 8.67212 101.538 6.09579C100.344 3.51947 98.1953 1.58718 95.489 0.621059C92.7827 -0.345064 89.9172 -0.184014 87.37 1.10415C84.8229 2.3118 82.9126 4.48556 81.9574 7.22291C81.5595 8.43056 81.3207 9.63822 81.4003 10.8459L72.0078 10.6848H71.6894H71.371L61.9785 10.8459C61.9785 9.63822 61.8193 8.43056 61.4213 7.22291C60.4662 4.48556 58.5558 2.3118 56.0087 1.10415C53.4616 -0.103504 50.5961 -0.345064 47.8898 0.621059C45.1835 1.58718 43.0344 3.51947 41.8404 6.09579C40.6465 8.67212 40.4873 11.5705 41.3628 14.3078C41.6812 15.1129 41.9996 15.8375 42.4772 16.5621L28.6273 25.9013C27.1149 23.5665 24.9658 21.7148 22.4187 20.5071C18.6776 18.6554 14.3794 18.4138 10.4791 19.863C6.49923 21.2317 3.39494 24.1301 1.5642 27.914C-0.266536 31.698 -0.505331 36.0456 0.92742 39.9906C2.36017 43.9356 5.14608 47.156 8.88715 49.0077C11.0363 50.0544 13.3446 50.6179 15.6529 50.6179C17.4041 50.6179 19.1552 50.2959 20.8267 49.7323C24.8066 48.3636 27.9109 45.4653 29.7416 41.6813C31.5724 37.8973 31.8111 33.5497 30.3784 29.6047C30.06 28.5581 29.5824 27.592 29.0253 26.7064L42.8752 17.3672C43.9099 18.7359 45.1835 19.7825 46.7754 20.5876C48.2082 21.3122 49.8002 21.6343 51.3921 21.6343C52.5861 21.6343 53.78 21.3927 54.8944 20.9902C57.6007 20.0241 59.7498 18.0918 60.9438 15.5155C61.5009 14.3078 61.8193 13.0197 61.9785 11.7315L71.6894 11.5705L81.4003 11.7315C81.4799 13.0197 81.8779 14.3078 82.435 15.5155C83.629 18.0918 85.7781 20.0241 88.4844 20.9902C89.5988 21.3927 90.7927 21.6343 91.9867 21.6343C93.5787 21.6343 95.091 21.3122 96.6033 20.5876C98.1157 19.863 99.4688 18.7359 100.504 17.3672L114.354 26.7064C113.796 27.592 113.319 28.6386 113 29.6047C111.647 33.6303 111.886 37.8973 113.637 41.6813C115.468 45.4653 118.652 48.3636 122.552 49.7323C124.224 50.2959 125.975 50.6179 127.726 50.6179C130.034 50.6179 132.343 50.0544 134.492 49.0077C142.292 45.2238 145.556 35.7236 141.815 27.8336C139.984 24.1301 136.8 21.2317 132.9 19.863ZM29.0253 41.2787C25.4434 48.7662 16.6081 51.9061 9.20553 48.2831C5.62365 46.5119 2.91735 43.533 1.64379 39.6685C0.370234 35.8845 0.529431 31.7785 2.28057 28.1556C4.03171 24.5326 6.97681 21.7953 10.7975 20.5071C12.3894 19.9435 14.061 19.6215 15.7325 19.6215C17.9612 19.6215 20.1104 20.1045 22.1799 21.1512C29.4232 24.8546 32.6071 33.8718 29.0253 41.2787ZM60.2274 15.1129C57.8395 20.024 52.0289 22.1173 47.0938 19.7825C44.7059 18.6554 42.9548 16.6426 42.0792 14.1468C41.2036 11.651 41.3628 8.91363 42.4772 6.57884C44.1487 3.03639 47.651 0.943119 51.3125 0.943119C52.7452 0.943119 54.178 1.26517 55.5311 1.90925C57.9191 3.0364 59.6702 5.04915 60.5458 7.54497C61.5009 10.0408 61.3417 12.6976 60.2274 15.1129ZM96.285 19.702C93.897 20.8291 91.2703 20.9902 88.8028 20.1045C86.3353 19.2189 84.3454 17.4477 83.231 15.0324C82.1166 12.6171 81.9575 9.96025 82.833 7.46443C83.7086 4.96861 85.4597 2.95586 87.8476 1.82871C89.2008 1.18463 90.6335 0.862629 92.0663 0.862629C93.1806 0.862629 94.295 1.02361 95.3298 1.42616C97.7973 2.31177 99.7872 4.08304 100.902 6.49834C102.016 8.91365 102.175 11.5705 101.3 14.0663C100.424 16.5621 98.5933 18.5749 96.285 19.702ZM134.173 48.3637C126.771 51.9866 117.856 48.8467 114.354 41.3593C110.772 33.8718 113.876 24.8547 121.278 21.3122C123.348 20.3461 125.497 19.7825 127.726 19.7825C129.397 19.7825 131.069 20.1046 132.661 20.6681C136.402 21.9563 139.427 24.6936 141.178 28.3166C144.68 35.7235 141.576 44.7407 134.173 48.3637Z" transform="translate(184.39 455.154)" fill="#8000FF"/>
<path d="M88.9034 0.417897C84.8439 -0.548226 80.6253 0.176366 77.123 2.43065C73.6207 4.68494 71.1532 8.22738 70.1981 12.3334C69.5613 15.1513 69.7205 17.9691 70.5165 20.6259L54.6766 25.6981C53.5622 22.3167 50.6967 19.4988 47.0353 18.6937C41.3043 17.4055 35.6529 21.0285 34.2997 26.7447C33.3445 30.9313 35.0161 35.1178 38.1204 37.6136L32.1506 44.94L31.9118 45.1816L31.673 45.4231L25.942 52.9105C22.8377 50.4147 18.4598 49.6902 14.6392 51.5419C12.092 52.7495 10.1817 54.9233 9.22656 57.6606C8.27139 60.398 8.43059 63.2964 9.70415 65.8727C10.8981 68.449 13.0472 70.3813 15.7535 71.3474C16.5495 71.6694 17.3455 71.8305 18.221 71.911L16.8679 88.6571C14.1616 88.4156 11.3757 88.8986 8.82857 90.1868C5.0875 92.0385 2.222 95.2589 0.868845 99.2039C-0.484308 103.229 -0.245526 107.497 1.50561 111.28C3.33635 115.064 6.52025 117.963 10.4205 119.332C12.0921 119.895 13.8432 120.217 15.5943 120.217C17.9027 120.217 20.211 119.654 22.3601 118.607C30.1606 114.823 33.4241 105.323 29.6831 97.4327C27.8523 93.6487 24.6684 90.7504 20.7682 89.3817C19.7334 89.0597 18.6986 88.7376 17.6639 88.6571L19.017 71.8305C19.0966 71.8305 19.1762 71.8305 19.3354 71.8305C20.9274 71.8305 22.4397 71.5084 23.9521 70.7838C26.4992 69.5762 28.4095 67.4024 29.3647 64.665C30.3198 61.9277 30.1607 59.0293 28.8871 56.453C28.3299 55.2453 27.5339 54.1987 26.5788 53.3131L32.5485 45.5036L38.7571 37.8552C39.7919 38.5797 40.9859 39.0628 42.2594 39.3848C43.0554 39.5459 43.8514 39.6264 44.6473 39.6264C49.5028 39.6264 53.8806 36.2449 54.995 31.2533C55.393 29.5626 55.3134 27.7914 54.9154 26.1812L70.8349 21.109C71.2328 22.0751 71.7104 23.1218 72.2676 24.0074C74.4963 27.5498 77.9986 30.0457 82.0581 31.0118C83.252 31.2533 84.3664 31.4143 85.5604 31.4143C92.7241 31.4143 99.1715 26.4227 100.843 19.0963C102.594 10.8842 97.3407 2.35014 88.9034 0.417897ZM28.8871 97.9963C32.469 105.484 29.3647 114.501 21.9621 118.043C18.3802 119.815 14.3208 119.976 10.5797 118.687C6.83865 117.399 3.81394 114.662 2.0628 111.039C-1.51907 103.551 1.58523 94.5343 8.98778 90.9919C11.0573 89.9453 13.286 89.5427 15.4351 89.5427C21.0069 89.4622 26.34 92.6021 28.8871 97.9963ZM28.0911 57.0166C29.2055 59.4319 29.3647 62.0887 28.4891 64.5845C27.6135 67.0803 25.8624 69.0931 23.4745 70.2202C21.0866 71.3474 18.4598 71.5084 15.9923 70.6228C13.5248 69.7372 11.5349 67.966 10.4205 65.5507C9.30616 63.1354 9.14696 60.4785 10.0225 57.9827C10.8981 55.4869 12.6492 53.4741 15.0371 52.347C16.3903 51.7029 17.823 51.3809 19.2558 51.3809C22.9173 51.3809 26.4196 53.4741 28.0911 57.0166ZM54.1194 31.4143C52.9255 36.728 47.672 40.1094 42.339 38.9018C39.7919 38.3382 37.6428 36.728 36.2101 34.4737C34.7773 32.2194 34.3793 29.5626 34.9365 26.9863C35.4936 24.4099 37.0856 22.2362 39.3143 20.787C40.9063 19.8209 42.6574 19.2573 44.4881 19.2573C45.2045 19.2573 45.9209 19.3378 46.7169 19.4988C52.0499 20.7065 55.393 26.0201 54.1194 31.4143ZM99.8879 19.2573C98.0571 27.3083 90.0974 32.3805 82.0581 30.5287C78.1578 29.6431 74.8943 27.3083 72.7452 23.8464C70.596 20.4649 69.9593 16.4394 70.8349 12.4944C71.7104 8.54943 74.0187 5.2485 77.4414 3.07472C79.8293 1.54503 82.5356 0.739933 85.3215 0.739933C86.4359 0.739933 87.5503 0.900953 88.6646 1.14248C92.5649 2.0281 95.8284 4.36288 97.9775 7.82482C100.127 11.2868 100.763 15.3123 99.8879 19.2573Z" transform="translate(388.377 340.71)" fill="#8000FF"/>
<path d="M13.5312 25.6917C15.2823 27.946 17.5907 29.5562 20.1378 30.6029L14.168 46.3024C13.372 45.9803 12.576 45.8193 11.7801 45.7388C8.99416 45.4167 6.20826 46.2218 3.97954 47.9931C-0.557507 51.6965 -1.35346 58.4594 2.30801 63.0485C4.05915 65.3028 6.60624 66.6714 9.39214 66.9935C9.79013 67.074 10.1881 67.074 10.5861 67.074C11.3821 67.074 12.2577 66.9935 13.0536 66.752L14.964 76.0106L15.0436 76.3327L15.1232 76.7352L17.3519 85.9134C13.4516 86.799 10.1881 89.8584 9.23294 93.9644C8.59616 96.7823 9.07375 99.6001 10.5861 102.096C12.0984 104.511 14.4864 106.202 17.1927 106.846C17.9886 107.007 18.7846 107.088 19.5806 107.088C22.4461 107.088 25.1524 105.88 27.1423 103.867L39.2411 115.461C37.4104 117.473 35.9777 119.889 35.3409 122.787C33.4305 131.321 38.684 139.775 47.1213 141.707C48.3152 141.949 49.4296 142.11 50.6235 142.11C53.5686 142.11 56.4341 141.304 58.9016 139.694C62.4039 137.44 64.8715 133.897 65.8266 129.791C66.7818 125.685 66.0654 121.418 63.8367 117.876C61.608 114.333 58.1057 111.838 54.0462 110.872C48.7132 109.664 43.3802 111.355 39.7187 114.897L27.6199 103.304C28.6547 102.015 29.4507 100.486 29.8486 98.795C31.1222 92.9983 27.5403 87.2821 21.8889 85.9134C20.6154 85.5913 19.2622 85.5914 18.0683 85.7524L15.7599 76.1717L13.77 66.5104C14.964 66.1079 16.1579 65.5443 17.1927 64.6587C21.7297 60.9552 22.5257 54.1924 18.8642 49.6033C17.8295 48.2346 16.4763 47.188 14.8844 46.5439L20.8542 30.8444C21.8889 31.1664 22.9237 31.408 23.9584 31.569C24.5156 31.6495 25.1524 31.6495 25.7096 31.6495C29.2119 31.6495 32.6346 30.4418 35.4205 28.1876C42.1862 22.7129 43.3006 12.7296 37.888 5.96674C32.4753 -0.876633 22.6053 -2.00378 15.9191 3.47091C9.23296 8.8651 8.1186 18.8484 13.5312 25.6917ZM42.823 113.609C45.2109 112.079 47.9172 111.274 50.7031 111.274C51.8175 111.274 52.9319 111.435 54.0462 111.677C57.9465 112.562 61.21 114.897 63.3591 118.359C65.5082 121.74 66.145 125.766 65.2694 129.711C64.3939 133.656 62.0856 136.957 58.6629 139.131C55.3198 141.304 51.3399 141.949 47.4396 141.063C39.4799 139.211 34.4653 131.16 36.296 123.029C37.092 119.084 39.4003 115.783 42.823 113.609ZM21.8093 86.799C24.3565 87.3626 26.5055 88.9728 27.9383 91.2271C29.371 93.4813 29.7691 96.1382 29.2119 98.7145C28.0179 104.028 22.7645 107.41 17.4315 106.202C14.8844 105.638 12.7352 104.028 11.3025 101.774C9.86975 99.5196 9.47173 96.8628 10.0289 94.2864C10.5861 91.7101 12.178 89.5364 14.4068 88.0872C15.9987 87.0405 17.7498 86.5575 19.5806 86.5575C20.297 86.5575 21.093 86.638 21.8093 86.799ZM18.2275 50.1668C21.5706 54.4339 20.9338 60.7137 16.6355 64.0951C14.566 65.7858 12.0189 66.5104 9.39214 66.1884C6.76543 65.8663 4.45712 64.5782 2.78558 62.4849C-0.557507 58.2179 0.0792706 51.9381 4.37752 48.5566C6.44705 46.8659 8.99415 46.1413 11.6209 46.4634C14.2476 46.7854 16.6355 48.1541 18.2275 50.1668ZM16.4763 4.03448C19.1826 1.86071 22.4461 0.733571 25.7096 0.733571C30.0874 0.733571 34.3857 2.66582 37.3308 6.36929C42.425 12.8101 41.3903 22.3103 34.9429 27.463C31.8386 29.9588 27.9383 31.0859 24.0381 30.6834C20.0582 30.2003 16.5559 28.2681 14.0884 25.1282C8.99417 18.6873 10.1085 9.26765 16.4763 4.03448Z" transform="translate(445.76 129.78)" fill="#8000FF"/>
<path d="M18.7548 41.5433L13.2626 34.5389C16.4465 31.721 16.9241 26.8099 14.2178 23.4285C12.8646 21.7378 10.9543 20.6911 8.88477 20.4496C8.72558 20.4496 8.48678 20.4496 8.32758 20.4496L10.0787 0.0805102L9.28276 1.22849e-06L7.53161 20.4496C5.86007 20.5301 4.34771 21.1742 2.99456 22.2208C1.32301 23.5895 0.288264 25.5217 0.0494717 27.615C-0.18932 29.7083 0.447463 31.8821 1.72102 33.5728C3.07417 35.2635 4.98449 36.3101 7.05402 36.5516C7.37241 36.5516 7.69081 36.6321 7.9296 36.6321C9.60114 36.6321 11.1931 36.0686 12.5462 35.1025L18.516 42.6704L24.0083 49.6748C22.4959 50.963 21.5408 52.8147 21.3816 54.8275C21.1428 57.0012 21.7795 59.0945 23.0531 60.7852C24.4062 62.4759 26.3166 63.5226 28.3861 63.7641C28.7045 63.7641 29.0229 63.8446 29.2617 63.8446C31.0924 63.8446 32.7639 63.2005 34.1967 62.0734C35.4703 61.0267 36.4254 59.5776 36.903 57.9674L57.0411 60.7852L57.1207 59.9801L37.0622 57.1623C37.0622 57.0012 37.1418 56.7597 37.1418 56.5987C37.3806 54.4249 36.7438 52.3316 35.4702 50.6409C34.1171 48.9502 32.2068 47.9036 30.1373 47.6621C28.1473 47.4205 26.237 47.9841 24.5654 49.1112L18.7548 41.5433ZM7.13362 35.7465C5.22329 35.505 3.55175 34.5389 2.35779 33.0897C1.16383 31.6405 0.606653 29.7083 0.845444 27.776C1.08424 25.8438 2.03939 24.1531 3.47214 22.9454C4.7457 21.8988 6.33765 21.3352 7.9296 21.3352C8.16839 21.3352 8.48678 21.3352 8.72557 21.4157C10.6359 21.6573 12.3074 22.6234 13.5014 24.0726C15.9689 27.2125 15.4913 31.8015 12.387 34.2974C10.9543 35.4245 9.04396 35.9881 7.13362 35.7465ZM30.1373 48.4672C32.0476 48.7087 33.7191 49.6748 34.9131 51.124C36.1071 52.6537 36.6642 54.5054 36.4254 56.4377C36.1866 58.3699 35.2315 60.0606 33.7987 61.2683C32.2864 62.4759 30.4556 63.0395 28.5453 62.798C26.635 62.5564 24.9634 61.5903 23.7695 60.1411C22.5755 58.6115 22.0183 56.7597 22.2571 54.8275C22.4959 52.8952 23.4511 51.2045 24.8838 49.9968C26.1574 48.9502 27.7493 48.3866 29.3413 48.3866C29.5801 48.4672 29.8985 48.4672 30.1373 48.4672Z" transform="translate(399.226 80.8386)" fill="#8000FF"/>
<path d="M15.6807 31.6405C18.5462 31.6405 21.2525 30.8354 23.5608 29.4667L31.9981 43.9586C28.9734 45.8103 26.9039 49.2723 26.9039 53.0562C26.9039 59.014 31.6797 63.7641 37.4903 63.7641C41.709 63.7641 45.3704 61.2683 47.1216 57.5648L55.4793 61.8319L55.7977 61.9929L56.1161 62.1539L64.633 66.1794C62.8818 69.8024 63.2002 74.2304 65.8269 77.6119C67.5781 79.8661 70.1252 81.2348 72.9111 81.5569C73.3091 81.6374 73.7071 81.6374 74.1051 81.6374C76.493 81.6374 78.8013 80.8323 80.7116 79.3026C83.7363 76.8873 85.0099 73.1838 84.6119 69.5608L101.089 67.226C101.487 69.9634 102.521 72.5397 104.352 74.8745C106.979 78.1754 110.72 80.2687 114.859 80.7518C115.416 80.8323 116.053 80.8323 116.61 80.8323C120.112 80.8323 123.535 79.6246 126.321 77.3703C129.584 74.7135 131.654 70.9295 132.131 66.743C132.609 62.5564 131.415 58.3699 128.788 55.069C126.162 51.7681 122.421 49.6748 118.282 49.1917C114.142 48.7087 110.003 49.9163 106.74 52.5732C102.442 56.0351 100.452 61.2683 100.929 66.4209L84.4527 68.7557C84.1343 67.1455 83.4179 65.5353 82.3832 64.1666C78.7217 59.5776 72.0355 58.7725 67.4985 62.4759C66.4637 63.281 65.5882 64.3277 64.9514 65.4548L56.1161 61.3488L47.3604 56.9207C47.838 55.7131 48.0767 54.4249 48.0767 53.1368C48.0767 47.179 43.3009 42.4289 37.4903 42.4289C35.7392 42.4289 34.0676 42.8314 32.6349 43.6365L24.1976 29.0642C28.4162 26.2463 31.2817 21.3352 31.2817 15.8605C31.2817 7.16541 24.2772 0 15.6011 0C7.00456 0 0 7.0849 0 15.8605C0 24.6361 7.00457 31.6405 15.6807 31.6405ZM107.377 53.2978C110.003 51.124 113.267 49.9969 116.61 49.9969C117.167 49.9969 117.724 49.9969 118.282 50.0774C122.261 50.5604 125.764 52.4927 128.231 55.6326C130.699 58.7725 131.813 62.7175 131.415 66.6625C131.017 70.6075 129.027 74.2304 125.923 76.7262C122.819 79.2221 118.918 80.3492 115.018 79.9467C111.038 79.4636 107.536 77.5314 105.068 74.3915C99.8946 67.9506 101.009 58.4504 107.377 53.2978ZM68.0557 63.2005C69.8864 61.7513 72.0355 61.0268 74.1847 61.0268C77.0502 61.0268 79.9156 62.3149 81.9056 64.7302C85.2487 68.9973 84.6119 75.2771 80.3136 78.6585C78.2441 80.3492 75.697 81.0738 73.0703 80.7518C70.4436 80.4297 68.1353 79.1416 66.4637 77.0483C63.1206 72.8618 63.837 66.582 68.0557 63.2005ZM47.3604 53.1368C47.3604 58.6114 42.9825 63.0395 37.5699 63.0395C32.1573 63.0395 27.7794 58.6114 27.7794 53.1368C27.7794 47.6621 32.1573 43.234 37.5699 43.234C42.9825 43.234 47.3604 47.6621 47.3604 53.1368ZM15.6807 0.805102C23.8792 0.805102 30.5653 7.56796 30.5653 15.8605C30.5653 24.1531 23.8792 30.9159 15.6807 30.9159C7.48215 30.9159 0.795973 24.1531 0.795973 15.8605C0.795973 7.56796 7.48215 0.805102 15.6807 0.805102Z" transform="translate(291.341 0.00634766)" fill="#8000FF"/>
<path d="M38.883 0.644087L38.4054 -9.82791e-06L21.5308 11.4325C20.4961 10.2248 19.0633 9.33918 17.3918 8.93663C15.3222 8.45357 13.1731 8.85613 11.3423 9.98328C9.51159 11.1104 8.31766 12.8816 7.84008 15.0554C7.36249 17.1487 7.76047 19.3225 8.87483 21.1742C9.9096 22.8649 11.5811 24.0726 13.4915 24.6361L11.5015 33.3312L9.3524 42.8314C5.21334 42.1068 1.15388 44.7637 0.198711 48.9502C-0.278872 51.0435 0.119153 53.2173 1.23351 55.069C2.34788 56.9207 4.09901 58.1284 6.24813 58.6114C6.80531 58.7725 7.4421 58.853 7.99928 58.853C9.03405 58.853 10.0688 58.6114 11.024 58.2089L21.3716 75.9211L22.088 75.5186L11.8199 57.8869C13.8099 56.8402 15.3222 54.908 15.7998 52.5732C16.2774 50.4799 15.8794 48.3061 14.765 46.4544C13.7303 44.7637 12.0587 43.556 10.1484 42.9925L12.1383 34.2974L14.2874 24.7972C14.765 24.8777 15.2426 24.9582 15.6406 24.9582C19.3021 24.9582 22.5656 22.3818 23.4411 18.6784C23.9983 16.3436 23.4411 13.9283 22.088 12.157L38.883 0.644087ZM14.0487 46.7764C15.0834 48.3866 15.4018 50.3994 15.0038 52.2511C14.1283 56.1961 10.228 58.6114 6.40734 57.7258C4.497 57.3233 2.90503 56.1156 1.94986 54.5054C0.994694 52.8952 0.596698 50.8825 0.994684 49.0307C1.79066 45.6493 4.73579 43.395 7.99928 43.395C8.55646 43.395 9.03405 43.4755 9.59123 43.556C11.422 44.0391 13.0139 45.1662 14.0487 46.7764ZM22.6451 18.4369C21.7696 22.3819 17.8693 24.7971 14.0487 23.9115C12.1383 23.509 10.5464 22.3013 9.59123 20.6911C8.63606 19.0809 8.23806 17.0682 8.63605 15.2164C9.03404 13.2842 10.228 11.674 11.8199 10.7079C13.0139 9.98327 14.2874 9.58073 15.6406 9.58073C16.1978 9.58073 16.755 9.66122 17.2325 9.74173C21.0532 10.6273 23.5207 14.4919 22.6451 18.4369Z" transform="translate(446.039 266.334)" fill="#8000FF"/>
<path d="M69.0904 16.4987L69.3292 15.6936L49.9871 9.41383C50.2259 7.80363 50.0667 6.11291 49.3503 4.58322C47.44 0.557708 42.6641 -1.13302 38.6843 0.799228C36.7739 1.76535 35.3412 3.37557 34.6248 5.38832C33.988 7.32057 34.0676 9.33333 34.784 11.1851L26.8243 15.0495L18.1482 19.2361C17.193 17.4649 15.6807 16.1767 13.7703 15.4521C11.7804 14.7275 9.63127 14.8885 7.64134 15.7742C5.65141 16.6598 4.29825 18.3505 3.58188 20.3633C2.8655 22.376 3.02469 24.5497 3.90026 26.5625C4.61664 28.0922 5.81061 29.2999 7.24336 30.105L0 49.3469L0.716371 49.6689L7.88012 30.5075C8.83529 30.9101 9.94965 31.1516 11.064 31.1516C12.258 31.1516 13.3723 30.9101 14.4867 30.3465C18.3074 28.4948 19.9789 23.9057 18.387 19.9607L26.3467 16.0962L35.0228 11.9097C36.4555 14.5665 39.1618 16.0962 42.0273 16.0962C43.2213 16.0962 44.3357 15.8546 45.45 15.2911C47.5992 14.2444 49.1115 12.3122 49.6687 10.1384L69.0904 16.4987ZM14.3275 29.7829C10.7456 31.5541 6.44737 30.0245 4.69623 26.4015C3.90026 24.6303 3.74107 22.698 4.37785 20.8463C5.01463 18.9946 6.28819 17.5454 8.03933 16.6598C8.9945 16.1767 10.1089 15.9352 11.1436 15.9352C11.9396 15.9352 12.7356 16.0962 13.5315 16.3377C15.3623 16.9818 16.795 18.27 17.6706 20.0412C19.4217 23.6642 17.9094 28.0117 14.3275 29.7829ZM45.2908 14.7275C41.709 16.4988 37.4107 14.9691 35.6596 11.3461C34.8636 9.57487 34.7044 7.64261 35.3412 5.79087C35.978 3.93914 37.2515 2.48994 39.0027 1.60433C40.0374 1.12127 41.0722 0.879768 42.1069 0.879768C44.8133 0.879768 47.3604 2.40944 48.6339 4.98577C50.3055 8.60873 48.7931 12.9563 45.2908 14.7275Z" transform="translate(319.2 426.394)" fill="#8000FF"/>
<path d="M68.6128 49.669L69.3292 49.3469L62.0859 30.1049C63.5186 29.2998 64.633 28.0922 65.429 26.5625C66.3841 24.6303 66.4637 22.4565 65.7473 20.3632C65.031 18.3505 63.5982 16.6598 61.6879 15.7741C59.7775 14.808 57.6284 14.7275 55.5589 15.4521C53.6486 16.0962 52.1362 17.4648 51.181 19.2361L42.5049 15.0496L34.5452 11.185C35.3412 9.33331 35.4208 7.3206 34.7044 5.38835C33.988 3.3756 32.5553 1.68487 30.645 0.799258C26.6651 -1.13299 21.8892 0.557737 19.9789 4.58325C19.2625 6.11294 19.0237 7.80366 19.3421 9.41386L4.85823e-06 15.6936L0.238787 16.4988L19.5013 10.2995C20.0585 12.4732 21.5709 14.4055 23.72 15.4521C24.8343 16.0157 26.0283 16.2572 27.1427 16.2572C28.0182 16.2572 28.8938 16.0962 29.7694 15.7741C31.6797 15.1301 33.1921 13.7614 34.1472 11.9901L42.8233 16.1767L50.7831 20.0412C49.1115 23.9862 50.7831 28.5753 54.6833 30.427C55.7977 30.9906 56.9916 31.2321 58.106 31.2321C59.2204 31.2321 60.2551 30.9906 61.2899 30.588L68.6128 49.669ZM29.6898 14.969C27.859 15.6131 25.9487 15.5326 24.1976 14.647C20.6157 12.8758 19.1033 8.52822 20.8545 4.90526C22.128 2.32893 24.6751 0.799258 27.3019 0.799258C28.3366 0.799258 29.3714 1.04076 30.4062 1.52382C32.1573 2.32892 33.4308 3.85863 34.0676 5.71036C34.7044 7.5621 34.6248 9.49436 33.7492 11.2656C32.9533 12.9563 31.5205 14.325 29.6898 14.969ZM55.1609 29.7024C51.579 27.9312 50.0667 23.5836 51.8178 19.9607C52.6138 18.1895 54.1261 16.9013 55.9569 16.2572C56.7528 16.0157 57.5488 15.8547 58.3448 15.8547C59.3796 15.8547 60.4939 16.0962 61.4491 16.5792C63.2002 17.3843 64.4738 18.914 65.1106 20.7658C65.7473 22.6175 65.6677 24.5498 64.7922 26.321C63.041 29.944 58.7428 31.4736 55.1609 29.7024Z" transform="translate(123.47 426.475)" fill="#8000FF"/>
<path d="M0.0795973 60.7852L20.2177 57.9674C20.6953 59.4971 21.5709 60.9462 22.924 62.0734C24.3568 63.281 26.1875 63.8446 27.859 63.8446C30.1674 63.8446 32.5553 62.798 34.1472 60.7852C36.7739 57.4038 36.376 52.4927 33.1921 49.6748L38.6843 42.6704L44.6541 35.1025C46.0868 36.1491 47.6788 36.6321 49.2707 36.6321C51.579 36.6321 53.9669 35.5855 55.5589 33.5728C58.2652 30.1108 57.708 25.0387 54.2853 22.2208C53.0118 21.1742 51.4198 20.6106 49.7483 20.4496L47.9972 1.22849e-06L47.2012 0.0805102L48.9523 20.4496C48.7931 20.4496 48.5543 20.4496 48.3951 20.4496C46.246 20.6911 44.4153 21.7378 43.0621 23.4285C41.709 25.1192 41.1518 27.2125 41.3906 29.3862C41.6294 31.399 42.5845 33.1702 44.0173 34.5389L38.5251 41.5433L32.5553 49.1112C29.1326 46.6154 24.3568 47.2595 21.6505 50.6409C20.1381 52.5732 19.6605 54.908 20.0585 57.1623L1.21456e-06 59.9801L0.0795973 60.7852ZM43.6989 23.992C46.1664 20.8521 50.7035 20.3691 53.8078 22.8649C56.9121 25.3607 57.3896 29.9498 54.9221 33.0897C52.4546 36.2296 47.9176 36.7127 44.8133 34.2168C41.709 31.721 41.2314 27.1319 43.6989 23.992ZM22.2872 51.2045C23.72 49.4333 25.7895 48.4672 27.9386 48.4672C29.5306 48.4672 31.1225 48.9502 32.3961 50.0774C35.5004 52.5732 35.978 57.1623 33.5105 60.3022C31.0429 63.4421 26.5059 63.9251 23.4016 61.4293C20.2973 58.853 19.8197 54.2639 22.2872 51.2045Z" transform="translate(55.6536 80.8386)" fill="#8000FF"/>
<path d="M0.557186 -6.14244e-07L-4.85823e-06 0.563572L14.7255 14.6529C13.7703 15.941 13.2131 17.5512 13.2131 19.3225C13.2131 23.7505 16.795 27.3735 21.1729 27.3735C25.4711 27.3735 28.8938 23.992 29.1326 19.725H37.9679H38.7639H47.5992C47.838 23.992 51.2606 27.3735 55.5589 27.3735C59.9367 27.3735 63.5186 23.7505 63.5186 19.3225C63.5186 17.5512 62.9614 16.0215 62.0063 14.6529L76.891 0.563572L76.3338 -6.14244e-07L61.6083 14.0893C60.1755 12.3986 58.0264 11.2714 55.5589 11.2714C51.2606 11.2714 47.838 14.6529 47.5992 18.9199H38.7639H37.9679H29.1326C28.8938 14.6529 25.4711 11.2714 21.1729 11.2714C18.785 11.2714 16.6358 12.3181 15.1235 14.0893L0.557186 -6.14244e-07ZM55.6385 12.0765C59.6183 12.0765 62.8022 15.3775 62.8022 19.3225C62.8022 23.2675 59.5387 26.5684 55.6385 26.5684C51.6586 26.5684 48.4747 23.2675 48.4747 19.3225C48.4747 15.3775 51.6586 12.0765 55.6385 12.0765ZM21.2525 12.0765C25.2323 12.0765 28.4162 15.3775 28.4162 19.3225C28.4162 23.2675 25.1527 26.5684 21.2525 26.5684C17.3522 26.5684 14.0887 23.2675 14.0887 19.3225C14.0887 15.3775 17.2726 12.0765 21.2525 12.0765Z" transform="translate(217.634 24.8035)" fill="#8000FF"/>
</svg>
