<svg width="308" height="307" fill="none" xmlns="http://www.w3.org/2000/svg"><path opacity=".09" d="M154.1 293.05c77.11 0 139.62-62.48 139.62-139.55 0-77.07-62.5-139.55-139.62-139.55C77 13.95 14.48 76.43 14.48 153.5c0 77.07 62.5 139.55 139.62 139.55z" stroke="#fff" stroke-miterlimit="10"/><path opacity=".18" d="M154.1 279.4c69.57 0 125.96-56.37 125.96-125.9S223.66 27.6 154.1 27.6 28.14 83.97 28.14 153.5s56.4 125.9 125.96 125.9z" stroke="#fff" stroke-miterlimit="10"/><path opacity=".27" d="M154.1 266.1c62.22 0 112.66-50.41 112.66-112.6S216.32 40.9 154.1 40.9 41.44 91.3 41.44 153.5 91.88 266.1 154.1 266.1z" stroke="#fff" stroke-miterlimit="10"/><path opacity=".36" d="M154.1 253.16c55.07 0 99.72-44.62 99.72-99.66 0-55.05-44.65-99.67-99.72-99.67S54.38 98.45 54.38 153.5c0 55.04 44.65 99.66 99.72 99.66z" stroke="#fff" stroke-miterlimit="10"/><path opacity=".45" d="M154.1 240.86c48.28 0 87.41-39.11 87.41-87.36s-39.13-87.37-87.4-87.37c-48.29 0-87.42 39.12-87.42 87.37 0 48.25 39.13 87.36 87.41 87.36z" stroke="#fff" stroke-miterlimit="10"/><path opacity=".55" d="M154.1 229.56a76.08 76.08 0 0 0 76.1-76.06c0-42-34.07-76.06-76.1-76.06A76.08 76.08 0 0 0 78 153.5c0 42 34.07 76.06 76.1 76.06z" stroke="#fff" stroke-miterlimit="10"/><path opacity=".64" d="M154.1 219.61a66.13 66.13 0 0 0 66.15-66.11 66.13 66.13 0 0 0-66.15-66.11 66.13 66.13 0 0 0-66.15 66.1 66.13 66.13 0 0 0 66.15 66.12z" stroke="#fff" stroke-miterlimit="10"/><path opacity=".73" d="M154.1 211.74a58.26 58.26 0 0 0 58.28-58.24 58.26 58.26 0 0 0-58.28-58.25 58.26 58.26 0 0 0-58.27 58.25 58.26 58.26 0 0 0 58.27 58.24z" stroke="#fff" stroke-miterlimit="10"/><path opacity=".82" d="M154.1 206.86a53.37 53.37 0 0 0 53.39-53.36 53.37 53.37 0 0 0-53.39-53.36 53.37 53.37 0 0 0-53.39 53.36 53.37 53.37 0 0 0 53.4 53.36z" stroke="#fff" stroke-miterlimit="10"/><path opacity=".91" d="M154.1 205.96a52.47 52.47 0 0 0 52.48-52.46 52.47 52.47 0 0 0-52.48-52.46 52.47 52.47 0 0 0-52.48 52.46 52.47 52.47 0 0 0 52.48 52.45z" stroke="#fff" stroke-miterlimit="10"/><path d="M154.1 209.12a55.64 55.64 0 0 0 55.65-55.62 55.64 55.64 0 0 0-55.65-55.62 55.64 55.64 0 0 0-55.65 55.62 55.64 55.64 0 0 0 55.65 55.62z" stroke="#fff" stroke-miterlimit="10"/></svg>