<svg width="308" height="307" viewBox="0 0 308 307" fill="none" xmlns="http://www.w3.org/2000/svg">
<path opacity="0.0909091" d="M139.624 279.101C216.736 279.101 279.247 216.622 279.247 139.551C279.247 62.479 216.736 0 139.624 0C62.5116 0 0 62.479 0 139.551C0 216.622 62.5116 279.101 139.624 279.101Z" transform="translate(14.4771 13.9476)" stroke="white" stroke-miterlimit="10"/>
<path opacity="0.1818" d="M125.96 251.788C195.526 251.788 251.92 195.423 251.92 125.894C251.92 56.3647 195.526 0 125.96 0C56.3942 0 0 56.3647 0 125.894C0 195.423 56.3942 251.788 125.96 251.788Z" transform="translate(28.1408 27.6042)" stroke="white" stroke-miterlimit="10"/>
<path opacity="0.2727" d="M112.658 225.198C174.877 225.198 225.316 174.786 225.316 112.599C225.316 50.4124 174.877 0 112.658 0C50.4387 0 0 50.4124 0 112.599C0 174.786 50.4387 225.198 112.658 225.198Z" transform="translate(41.4426 40.8993)" stroke="white" stroke-miterlimit="10"/>
<path opacity="0.3636" d="M99.7182 199.332C154.791 199.332 199.436 154.71 199.436 99.6662C199.436 44.6221 154.791 0 99.7182 0C44.6454 0 0 44.6221 0 99.6662C0 154.71 44.6454 199.332 99.7182 199.332Z" transform="translate(54.3825 53.8323)" stroke="white" stroke-miterlimit="10"/>
<path opacity="0.4545" d="M87.4118 174.732C135.688 174.732 174.824 135.617 174.824 87.3662C174.824 39.1152 135.688 0 87.4118 0C39.1356 0 0 39.1152 0 87.3662C0 135.617 39.1356 174.732 87.4118 174.732Z" transform="translate(66.6889 66.1323)" stroke="white" stroke-miterlimit="10"/>
<path opacity="0.5455" d="M76.1007 152.122C118.13 152.122 152.201 118.068 152.201 76.061C152.201 34.0537 118.13 0 76.1007 0C34.0715 0 0 34.0537 0 76.061C0 118.068 34.0715 152.122 76.1007 152.122Z" transform="translate(77.9999 77.4375)" stroke="white" stroke-miterlimit="10"/>
<path opacity="0.6364" d="M66.147 132.225C102.679 132.225 132.294 102.625 132.294 66.1125C132.294 29.5996 102.679 0 66.147 0C29.615 0 0 29.5996 0 66.1125C0 102.625 29.615 132.225 66.147 132.225Z" transform="translate(87.9536 87.386)" stroke="white" stroke-miterlimit="10"/>
<path opacity="0.7273" d="M58.2745 116.488C90.4587 116.488 116.549 90.4114 116.549 58.2441C116.549 26.0768 90.4587 -2.76005e-06 58.2745 -2.76005e-06C26.0904 -2.76005e-06 -2.76149e-06 26.0768 -2.76149e-06 58.2441C-2.76149e-06 90.4114 26.0904 116.488 58.2745 116.488Z" transform="translate(95.8261 95.2542)" stroke="white" stroke-miterlimit="10"/>
<path opacity="0.8182" d="M53.3882 106.721C82.8736 106.721 106.776 82.8304 106.776 53.3603C106.776 23.8902 82.8736 0 53.3882 0C23.9027 0 0 23.8902 0 53.3603C0 82.8304 23.9027 106.721 53.3882 106.721Z" transform="translate(100.713 100.138)" stroke="white" stroke-miterlimit="10"/>
<path opacity="0.9091" d="M52.4833 104.912C81.469 104.912 104.967 81.4265 104.967 52.4559C104.967 23.4853 81.469 0 52.4833 0C23.4976 0 0 23.4853 0 52.4559C0 81.4265 23.4976 104.912 52.4833 104.912Z" transform="translate(101.617 101.043)" stroke="white" stroke-miterlimit="10"/>
<path d="M55.6504 111.243C86.3852 111.243 111.301 86.3401 111.301 55.6213C111.301 24.9025 86.3852 0 55.6504 0C24.9155 0 0 24.9025 0 55.6213C0 86.3401 24.9155 111.243 55.6504 111.243Z" transform="translate(98.4503 97.8772)" stroke="white" stroke-miterlimit="10"/>
</svg>
