<svg width="378" height="369" fill="none" xmlns="http://www.w3.org/2000/svg"><path d="M127.16 114.21a1.36 1.36 0 1 0 0-2.71 1.36 1.36 0 0 0 0 2.71zM117.93 98.65a1.54 1.54 0 1 0 0-3.07 1.54 1.54 0 0 0 0 3.07zM130.23 83.64a.72.72 0 1 0 0-1.45.72.72 0 0 0 0 1.45zM113.67 86.99a.9.9 0 1 0 0-1.81.9.9 0 0 0 0 1.8zM97.84 95.13a.9.9 0 1 0 0-1.81.9.9 0 0 0 0 1.8zM109.87 106.7a.72.72 0 1 0 0-1.44.72.72 0 0 0 0 1.44zM132.4 99.1a1.18 1.18 0 1 0 0-2.35 1.18 1.18 0 0 0 0 2.36zM121 76.32a.72.72 0 1 0 0-1.45.72.72 0 0 0 0 1.45zM100.01 84.36a1.54 1.54 0 1 0 0-3.07 1.54 1.54 0 0 0 0 3.07zM108.6 73.6a1.54 1.54 0 1 0 0-3.07 1.54 1.54 0 0 0 0 3.07zM106.7 56.78a2.8 2.8 0 1 0 0-5.6 2.8 2.8 0 0 0 0 5.6zM70.6 66.28a5.43 5.43 0 1 0 0-10.86 5.43 5.43 0 0 0 0 10.86zM85.53 41.5a7.96 7.96 0 1 0 0-15.93 7.96 7.96 0 0 0 0 15.93zM122.54 62.93a.45.45 0 1 0 0-.9.45.45 0 0 0 0 .9zM147.43 104.62a.72.72 0 1 0 0-1.44.72.72 0 0 0 0 1.44zM139.82 128.6a.9.9 0 1 0 0-1.82.9.9 0 0 0 0 1.81zM127.52 127.14a.81.81 0 1 0 0-1.62.81.81 0 0 0 0 1.62zM115.03 117.2a.81.81 0 1 0 0-1.63.81.81 0 0 0 0 1.62zM89.88 88.98a.45.45 0 1 0 0-.9.45.45 0 0 0 0 .9zM82.18 83.55a1.27 1.27 0 1 0 0-2.53 1.27 1.27 0 0 0 0 2.53zM143.17 113.49a1.18 1.18 0 1 0 0-2.36 1.18 1.18 0 0 0 0 2.36zM152.86 122.71a1.18 1.18 0 1 0 0-2.35 1.18 1.18 0 0 0 0 2.35zM96.57 188.64a1.36 1.36 0 1 0 0-2.71 1.36 1.36 0 0 0 0 2.71zM78.56 186.3a1.54 1.54 0 1 0 0-3.08 1.54 1.54 0 0 0 0 3.07zM75.13 166.94a.72.72 0 1 0 0-1.45.72.72 0 0 0 0 1.45zM67.25 182.13a.9.9 0 1 0 0-1.8.9.9 0 0 0 0 1.8zM63.81 199.59a.9.9 0 1 0 0-1.81.9.9 0 0 0 0 1.8zM80.46 197.33a.72.72 0 1 0 0-1.45.72.72 0 0 0 0 1.45zM88.16 175.08a1.18 1.18 0 1 0 0-2.35 1.18 1.18 0 0 0 0 2.35zM63.63 169.56a.72.72 0 1 0 0-1.45.72.72 0 0 0 0 1.45zM56.21 191.45a1.54 1.54 0 1 0 0-3.08 1.54 1.54 0 0 0 0 3.08zM53.14 177.88a1.54 1.54 0 1 0 0-3.07 1.54 1.54 0 0 0 0 3.07zM37.84 169.47a2.8 2.8 0 1 0 0-5.6 2.8 2.8 0 0 0 0 5.6zM20.65 204.56a5.43 5.43 0 1 0 0-10.85 5.43 5.43 0 0 0 0 10.85zM8.62 178.42a7.96 7.96 0 1 0 0-15.92 7.96 7.96 0 0 0 0 15.92zM54.4 159.97a.45.45 0 1 0 0-.9.45.45 0 0 0 0 .9zM102.27 166.67a.72.72 0 1 0 0-1.45.72.72 0 0 0 0 1.45zM116.12 187.65a.9.9 0 1 0 0-1.81.9.9 0 0 0 0 1.8zM107.34 196.24a.81.81 0 1 0 0-1.63.81.81 0 0 0 0 1.63zM91.78 199.86a.81.81 0 1 0 0-1.63.81.81 0 0 0 0 1.63zM54.31 201.76a.45.45 0 1 0 0-.9.45.45 0 0 0 0 .9zM44.72 204.65a1.27 1.27 0 1 0 0-2.53 1.27 1.27 0 0 0 0 2.53zM106.25 175.62a1.18 1.18 0 1 0 0-2.35 1.18 1.18 0 0 0 0 2.35zM119.37 173.81a1.18 1.18 0 1 0 0-2.35 1.18 1.18 0 0 0 0 2.35zM135.84 259a1.36 1.36 0 1 0 0-2.7 1.36 1.36 0 0 0 0 2.7zM122.54 271.67a1.54 1.54 0 1 0 0-3.08 1.54 1.54 0 0 0 0 3.08zM105.9 262a.72.72 0 1 0 0-1.46.72.72 0 0 0 0 1.45zM112.68 277.64a.9.9 0 1 0 0-1.81.9.9 0 0 0 0 1.8zM124.26 291.3a.9.9 0 1 0 0-1.82.9.9 0 0 0 0 1.81zM132.95 276.73a.72.72 0 1 0 0-1.44.72.72 0 0 0 0 1.44zM120.1 257.1a1.18 1.18 0 1 0 0-2.34 1.18 1.18 0 0 0 0 2.35zM100.82 272.66a.72.72 0 1 0 0-1.44.72.72 0 0 0 0 1.44zM112.59 292.38a1.54 1.54 0 1 0 0-3.08 1.54 1.54 0 0 0 0 3.08zM100.1 286.32a1.54 1.54 0 1 0 0-3.08 1.54 1.54 0 0 0 0 3.08zM83 293.46a2.8 2.8 0 1 0 0-5.6 2.8 2.8 0 0 0 0 5.6zM97.66 329.73a5.43 5.43 0 1 0 0-10.85 5.43 5.43 0 0 0 0 10.85zM67.7 323.85a7.96 7.96 0 1 0 .01-15.92 7.96 7.96 0 0 0 0 15.92zM87.7 273.75a.45.45 0 1 0 0-.9.45.45 0 0 0 0 .9zM122.63 240.65a.72.72 0 1 0 0-1.45.72.72 0 0 0 0 1.45zM147.52 242.9a.9.9 0 1 0 0-1.8.9.9 0 0 0 0 1.8zM148.87 255.12a.81.81 0 1 0 0-1.63.81.81 0 0 0 0 1.63zM141.9 269.5a.81.81 0 1 0 0-1.63.81.81 0 0 0 0 1.63zM120.37 299.8a.45.45 0 1 0 0-.9.45.45 0 0 0 0 .9zM116.03 309.47a1.27 1.27 0 1 0 0-2.53 1.27 1.27 0 0 0 0 2.53zM131.77 243.27a1.18 1.18 0 1 0 0-2.35 1.18 1.18 0 0 0 0 2.35zM138.56 231.87a1.18 1.18 0 1 0 0-2.35 1.18 1.18 0 0 0 0 2.35zM215.3 272.21a1.36 1.36 0 1 0 0-2.71 1.36 1.36 0 0 0 0 2.71zM216.83 290.57a1.54 1.54 0 1 0 0-3.08 1.54 1.54 0 0 0 0 3.08zM199.46 297.17a.72.72 0 1 0 0-1.44.72.72 0 0 0 0 1.44zM215.84 301.78a.9.9 0 1 0 0-1.8.9.9 0 0 0 0 1.8zM233.66 301.24a.9.9 0 1 0 0-1.8.9.9 0 0 0 0 1.8zM227.87 285.24a.72.72 0 1 0 0-1.45.72.72 0 0 0 0 1.45zM204.07 283.24a1.18 1.18 0 1 0 0-2.35 1.18 1.18 0 0 0 0 2.35zM204.61 307.85a.72.72 0 1 0 0-1.45.72.72 0 0 0 0 1.45zM226.78 311.2a1.54 1.54 0 1 0 0-3.08 1.54 1.54 0 0 0 0 3.07zM214.2 317.16a1.54 1.54 0 1 0 0-3.08 1.54 1.54 0 0 0 0 3.08zM208.14 335.52a2.8 2.8 0 1 0 0-5.6 2.8 2.8 0 0 0 0 5.6zM243.62 347.64a5.43 5.43 0 1 0 0-10.86 5.43 5.43 0 0 0 0 10.86zM218.37 368.26a7.96 7.96 0 1 0 0-15.92 7.96 7.96 0 0 0 0 15.92zM197.56 318.6a.45.45 0 1 0 0-.9.45.45 0 0 0 0 .9zM193.12 270.85a.72.72 0 1 0 0-1.44.72.72 0 0 0 0 1.44zM210.32 252.86a.9.9 0 1 0 0-1.81.9.9 0 0 0 0 1.8zM220.81 259.37a.81.81 0 1 0 0-1.63.81.81 0 0 0 0 1.63zM227.69 273.75a.81.81 0 1 0 0-1.63.81.81 0 0 0 0 1.63zM238.28 309.38a.45.45 0 1 0 0-.9.45.45 0 0 0 0 .9zM242.53 319.15a1.27 1.27 0 1 0 0-2.53 1.27 1.27 0 0 0 0 2.53zM200.54 265.52a1.18 1.18 0 1 0 0-2.35 1.18 1.18 0 0 0 0 2.35zM195.93 253.04a1.18 1.18 0 1 0 0-2.35 1.18 1.18 0 0 0 0 2.35zM275.1 218.3a1.36 1.36 0 1 0 0-2.7 1.36 1.36 0 0 0 0 2.7zM290.3 228.62a1.54 1.54 0 1 0 0-3.08 1.54 1.54 0 0 0 0 3.08zM285.33 246.07a.72.72 0 1 0 0-1.44.72.72 0 0 0 0 1.44zM298.9 236.12a.9.9 0 1 0 0-1.8.9.9 0 0 0 0 1.8zM309.58 221.93a.9.9 0 1 0 0-1.81.9.9 0 0 0 0 1.8zM293.66 216.4a.72.72 0 1 0 0-1.44.72.72 0 0 0 0 1.45zM276.92 233.86a1.18 1.18 0 1 0 0-2.35 1.18 1.18 0 0 0 0 2.35zM296.82 248.6a.72.72 0 1 0 0-1.44.72.72 0 0 0 0 1.45zM312.66 233.77a1.54 1.54 0 1 0 0-3.07 1.54 1.54 0 0 0 0 3.07zM309.58 247.25a1.54 1.54 0 1 0 0-3.08 1.54 1.54 0 0 0 0 3.08zM319.08 263.89a2.8 2.8 0 1 0 0-5.6 2.8 2.8 0 0 0 0 5.6zM348.67 244.72a5.43 5.43 0 1 0 0-10.86 5.43 5.43 0 0 0 0 10.86zM347.04 278.36a7.96 7.96 0 1 0 0-15.92 7.96 7.96 0 0 0 0 15.92zM301.08 260.82a.45.45 0 1 0 0-.9.45.45 0 0 0 0 .9zM260.72 234.59a.72.72 0 1 0 0-1.45.72.72 0 0 0 0 1.45zM257.28 209.99a.9.9 0 1 0 0-1.81.9.9 0 0 0 0 1.8zM268.95 205.83a.81.81 0 1 0 0-1.63.81.81 0 0 0 0 1.63zM284.52 209.35a.81.81 0 1 0 0-1.62.81.81 0 0 0 0 1.62zM319.26 223.2a.45.45 0 1 0 0-.91.45.45 0 0 0 0 .9zM328.86 226.27a1.27 1.27 0 1 0 0-2.54 1.27 1.27 0 0 0 0 2.54zM260.9 225.63a1.18 1.18 0 1 0 0-2.35 1.18 1.18 0 0 0 0 2.35zM248.23 221.47a1.18 1.18 0 1 0 0-2.35 1.18 1.18 0 0 0 0 2.35zM270.3 138a1.36 1.36 0 1 0 .01-2.72 1.36 1.36 0 0 0 0 2.72zM287.68 132.66a1.54 1.54 0 1 0 0-3.08 1.54 1.54 0 0 0 0 3.08zM298.81 147.04a.72.72 0 1 0 0-1.45.72.72 0 0 0 0 1.45zM299.45 130.3a.9.9 0 1 0 0-1.8.9.9 0 0 0 0 1.8zM295.01 113.12a.9.9 0 1 0 0-1.8.9.9 0 0 0 0 1.8zM280.8 122.08a.72.72 0 1 0 0-1.45.72.72 0 0 0 0 1.45zM283.8 146.23a1.18 1.18 0 1 0 0-2.36 1.18 1.18 0 0 0 0 2.36zM308.04 139.72a.72.72 0 1 0 0-1.45.72.72 0 0 0 0 1.45zM305.6 118.37a1.54 1.54 0 1 0 0-3.07 1.54 1.54 0 0 0 0 3.07zM314.29 129.22a1.54 1.54 0 1 0 0-3.07 1.54 1.54 0 0 0 0 3.07zM332.3 132.57a2.8 2.8 0 1 0 0-5.6 2.8 2.8 0 0 0 0 5.6zM333.65 98.56a5.43 5.43 0 1 0 0-10.85 5.43 5.43 0 0 0 0 10.85zM356.9 121.63a7.96 7.96 0 1 0 .01-15.93 7.96 7.96 0 0 0 0 15.93zM320.44 143.78a.45.45 0 1 0 0-.9.45.45 0 0 0 0 .9zM274.56 159.07a.72.72 0 1 0 0-1.45.72.72 0 0 0 0 1.45zM253.03 146.5a.9.9 0 1 0 0-1.81.9.9 0 0 0 0 1.8zM257.1 134.83a.81.81 0 1 0 0-1.63.81.81 0 0 0 0 1.63zM269.59 124.8a.81.81 0 1 0 0-1.64.81.81 0 0 0 0 1.63zM302.34 106.16a.45.45 0 1 0 0-.9.45.45 0 0 0 0 .9zM310.12 100.92a1.27 1.27 0 1 0 0-2.54 1.27 1.27 0 0 0 0 2.54zM267.23 153.55a1.18 1.18 0 1 0 0-2.35 1.18 1.18 0 0 0 0 2.35zM256.1 160.88a1.18 1.18 0 1 0 0-2.35 1.18 1.18 0 0 0 0 2.35zM204.52 91.7a1.36 1.36 0 1 0 0-2.72 1.36 1.36 0 0 0 0 2.71zM210.95 74.78a1.54 1.54 0 1 0 0-3.08 1.54 1.54 0 0 0 0 3.08zM229.86 74.78a.72.72 0 1 0 0-1.45.72.72 0 0 0 0 1.45zM217.01 63.93a.9.9 0 1 0 0-1.81.9.9 0 0 0 0 1.8zM200.72 56.69a.9.9 0 1 0 0-1.8.9.9 0 0 0 0 1.8zM199.1 73.24a.72.72 0 1 0 0-1.45.72.72 0 0 0 0 1.45zM219.46 86.17a1.18 1.18 0 1 0 0-2.35 1.18 1.18 0 0 0 0 2.35zM229.86 63.02a.72.72 0 1 0 0-1.45.72.72 0 0 0 0 1.45zM210.95 51.9a1.54 1.54 0 1 0 0-3.08 1.54 1.54 0 0 0 0 3.08zM224.88 51.9a1.54 1.54 0 1 0 0-3.08 1.54 1.54 0 0 0 0 3.08zM237.73 40.41a2.8 2.8 0 1 0 0-5.6 2.8 2.8 0 0 0 0 5.6zM209.86 19.16a5.43 5.43 0 1 0 0-10.86 5.43 5.43 0 0 0 0 10.86zM240.54 16.26a7.96 7.96 0 1 0 0-15.92 7.96 7.96 0 0 0 0 15.92zM241 55.79a.45.45 0 1 0 0-.9.45.45 0 0 0 0 .9zM224.07 101.28a.72.72 0 1 0 0-1.45.72.72 0 0 0 0 1.45zM200.72 110.32a.9.9 0 1 0 0-1.8.9.9 0 0 0 0 1.8zM194.12 99.74a.81.81 0 1 0 0-1.63.81.81 0 0 0 0 1.63zM194.12 83.82a.81.81 0 1 0 0-1.63.81.81 0 0 0 0 1.63zM200.27 46.47a.45.45 0 1 0 0-.9.45.45 0 0 0 0 .9zM200.36 37.34a1.27 1.27 0 1 0 0-2.54 1.27 1.27 0 0 0 0 2.54zM214.93 103.72a1.18 1.18 0 1 0 0-2.35 1.18 1.18 0 0 0 0 2.35zM213.66 116.92a1.18 1.18 0 1 0 0-2.35 1.18 1.18 0 0 0 0 2.35zM251.3 114.21a1.36 1.36 0 1 0 0-2.71 1.36 1.36 0 0 0 0 2.71zM260.63 98.65a1.54 1.54 0 1 0 0-3.07 1.54 1.54 0 0 0 0 3.07zM248.23 83.64a.72.72 0 1 0 0-1.45.72.72 0 0 0 0 1.45zM264.88 86.99a.9.9 0 1 0 0-1.81.9.9 0 0 0 0 1.8zM280.72 95.13a.9.9 0 1 0 0-1.81.9.9 0 0 0 0 1.8zM268.59 106.7a.72.72 0 1 0 0-1.44.72.72 0 0 0 0 1.44zM246.15 99.1a1.18 1.18 0 1 0 0-2.35 1.18 1.18 0 0 0 0 2.36zM257.46 76.32a.72.72 0 1 0 0-1.45.72.72 0 0 0 0 1.45zM278.54 84.36a1.54 1.54 0 1 0 0-3.07 1.54 1.54 0 0 0 0 3.07zM269.86 73.6a1.54 1.54 0 1 0 0-3.07 1.54 1.54 0 0 0 0 3.07zM271.76 56.78a2.8 2.8 0 1 0 0-5.6 2.8 2.8 0 0 0 0 5.6zM307.86 66.28a5.43 5.43 0 1 0 0-10.86 5.43 5.43 0 0 0 0 10.86zM293.02 41.5a7.96 7.96 0 1 0 0-15.93 7.96 7.96 0 0 0 0 15.93zM255.92 62.93a.45.45 0 1 0 0-.9.45.45 0 0 0 0 .9zM231.13 104.62a.72.72 0 1 0 0-1.44.72.72 0 0 0 0 1.44zM238.73 128.6a.9.9 0 1 0 0-1.82.9.9 0 0 0 0 1.81zM250.95 127.14a.81.81 0 1 0 0-1.62.81.81 0 0 0 0 1.62zM263.52 117.2a.81.81 0 1 0 0-1.63.81.81 0 0 0 0 1.62zM288.59 88.98a.45.45 0 1 0 0-.9.45.45 0 0 0 0 .9zM296.28 83.55a1.27 1.27 0 1 0 0-2.53 1.27 1.27 0 0 0 0 2.53zM235.29 113.49a1.18 1.18 0 1 0 0-2.36 1.18 1.18 0 0 0 0 2.36zM225.7 122.71a1.18 1.18 0 1 0 0-2.35 1.18 1.18 0 0 0 0 2.35zM281.9 188.64a1.36 1.36 0 1 0 0-2.71 1.36 1.36 0 0 0 0 2.71zM299.99 186.3a1.54 1.54 0 1 0 0-3.08 1.54 1.54 0 0 0 0 3.07zM303.43 166.94a.72.72 0 1 0 0-1.45.72.72 0 0 0 0 1.45zM311.3 182.13a.9.9 0 1 0 0-1.8.9.9 0 0 0 0 1.8zM314.74 199.59a.9.9 0 1 0 0-1.81.9.9 0 0 0 0 1.8zM298 197.33a.72.72 0 1 0 0-1.45.72.72 0 0 0 0 1.45zM290.4 175.08a1.18 1.18 0 1 0 0-2.35 1.18 1.18 0 0 0 0 2.35zM314.92 169.56a.72.72 0 1 0 0-1.45.72.72 0 0 0 0 1.45zM322.34 191.45a1.54 1.54 0 1 0 0-3.08 1.54 1.54 0 0 0 0 3.08zM325.42 177.88a1.54 1.54 0 1 0 0-3.07 1.54 1.54 0 0 0 0 3.07zM340.7 169.47a2.8 2.8 0 1 0 .01-5.6 2.8 2.8 0 0 0 0 5.6zM357.81 204.56a5.43 5.43 0 1 0 0-10.85 5.43 5.43 0 0 0 0 10.85zM369.94 178.42a7.96 7.96 0 1 0 0-15.92 7.96 7.96 0 0 0 0 15.92zM324.15 159.97a.45.45 0 1 0 0-.9.45.45 0 0 0 0 .9zM276.28 166.67a.72.72 0 1 0 0-1.45.72.72 0 0 0 0 1.45zM262.35 187.65a.9.9 0 1 0 0-1.81.9.9 0 0 0 0 1.8zM271.12 196.24a.81.81 0 1 0 0-1.63.81.81 0 0 0 0 1.63zM286.69 199.86a.81.81 0 1 0 0-1.63.81.81 0 0 0 0 1.63zM324.15 201.76a.45.45 0 1 0 0-.9.45.45 0 0 0 0 .9zM333.83 204.65a1.27 1.27 0 1 0 0-2.53 1.27 1.27 0 0 0 0 2.53zM272.3 175.62a1.18 1.18 0 1 0 0-2.35 1.18 1.18 0 0 0 0 2.35zM259.09 173.81a1.18 1.18 0 1 0 0-2.35 1.18 1.18 0 0 0 0 2.35zM242.71 259a1.36 1.36 0 1 0 0-2.7 1.36 1.36 0 0 0 0 2.7zM255.92 271.67a1.54 1.54 0 1 0 0-3.08 1.54 1.54 0 0 0 0 3.08zM272.57 262a.72.72 0 1 0 0-1.46.72.72 0 0 0 0 1.45zM265.78 277.64a.9.9 0 1 0 0-1.81.9.9 0 0 0 0 1.8zM254.3 291.3a.9.9 0 1 0 0-1.82.9.9 0 0 0 0 1.81zM245.52 276.73a.72.72 0 1 0 0-1.44.72.72 0 0 0 0 1.44zM257.46 257.1a1.18 1.18 0 1 0 0-2.34 1.18 1.18 0 0 0 0 2.35zM277.73 272.66a.72.72 0 1 0 0-1.44.72.72 0 0 0 0 1.44zM265.88 292.38a1.54 1.54 0 1 0 0-3.08 1.54 1.54 0 0 0 0 3.08zM278.36 286.32a1.54 1.54 0 1 0 0-3.08 1.54 1.54 0 0 0 0 3.08zM295.56 293.46a2.8 2.8 0 1 0 0-5.6 2.8 2.8 0 0 0 0 5.6zM280.8 329.73a5.43 5.43 0 1 0 0-10.85 5.43 5.43 0 0 0 0 10.85zM310.76 323.85a7.96 7.96 0 1 0 0-15.92 7.96 7.96 0 0 0 0 15.92zM290.76 273.75a.45.45 0 1 0 0-.9.45.45 0 0 0 0 .9zM255.92 240.65a.72.72 0 1 0 0-1.45.72.72 0 0 0 0 1.45zM230.95 242.9a.9.9 0 1 0 0-1.8.9.9 0 0 0 0 1.8zM229.59 255.12a.81.81 0 1 0 0-1.63.81.81 0 0 0 0 1.63zM236.56 269.5a.81.81 0 1 0 0-1.63.81.81 0 0 0 0 1.63zM258.1 299.8a.45.45 0 1 0 0-.9.45.45 0 0 0 0 .9zM262.53 309.47a1.27 1.27 0 1 0 0-2.53 1.27 1.27 0 0 0 0 2.53zM246.78 243.27a1.18 1.18 0 1 0 0-2.35 1.18 1.18 0 0 0 0 2.35zM239.9 231.87a1.18 1.18 0 1 0 0-2.35 1.18 1.18 0 0 0 0 2.35zM163.26 272.21a1.36 1.36 0 1 0 0-2.71 1.36 1.36 0 0 0 0 2.71zM161.72 290.57a1.54 1.54 0 1 0 0-3.08 1.54 1.54 0 0 0 0 3.08zM179 297.17a.72.72 0 1 0 0-1.44.72.72 0 0 0 0 1.44zM162.72 301.78a.9.9 0 1 0 0-1.8.9.9 0 0 0 0 1.8zM144.9 301.24a.9.9 0 1 0 0-1.8.9.9 0 0 0 0 1.8zM150.68 285.24a.72.72 0 1 0 0-1.45.72.72 0 0 0 0 1.45zM174.4 283.24a1.18 1.18 0 1 0 0-2.35 1.18 1.18 0 0 0 0 2.35zM173.94 307.85a.72.72 0 1 0 0-1.45.72.72 0 0 0 0 1.45zM151.77 311.2a1.54 1.54 0 1 0 0-3.08 1.54 1.54 0 0 0 0 3.07zM164.26 317.16a1.54 1.54 0 1 0 0-3.08 1.54 1.54 0 0 0 0 3.08zM170.32 335.52a2.8 2.8 0 1 0 0-5.6 2.8 2.8 0 0 0 0 5.6zM134.85 347.64a5.43 5.43 0 1 0 0-10.86 5.43 5.43 0 0 0 0 10.86zM160.1 368.26a7.96 7.96 0 1 0 0-15.92 7.96 7.96 0 0 0 0 15.92zM181 318.6a.45.45 0 1 0 0-.9.45.45 0 0 0 0 .9zM185.34 270.85a.72.72 0 1 0 0-1.44.72.72 0 0 0 0 1.44zM168.15 252.86a.9.9 0 1 0 0-1.81.9.9 0 0 0 0 1.8zM157.74 259.37a.81.81 0 1 0 0-1.63.81.81 0 0 0 0 1.63zM150.77 273.75a.81.81 0 1 0 0-1.63.81.81 0 0 0 0 1.63zM140.19 309.38a.45.45 0 1 0 0-.9.45.45 0 0 0 0 .9zM136.02 319.15a1.27 1.27 0 1 0 0-2.53 1.27 1.27 0 0 0 0 2.53zM177.92 265.52a1.18 1.18 0 1 0 0-2.35 1.18 1.18 0 0 0 0 2.35zM182.63 253.04a1.18 1.18 0 1 0 0-2.35 1.18 1.18 0 0 0 0 2.35zM103.36 218.3a1.36 1.36 0 1 0 0-2.7 1.36 1.36 0 0 0 0 2.7zM88.25 228.62a1.54 1.54 0 1 0 0-3.08 1.54 1.54 0 0 0 0 3.08zM93.13 246.07a.72.72 0 1 0 0-1.44.72.72 0 0 0 0 1.44zM79.56 236.12a.9.9 0 1 0 0-1.8.9.9 0 0 0 0 1.8zM68.88 221.93a.9.9 0 1 0 0-1.81.9.9 0 0 0 0 1.8zM84.8 216.4a.72.72 0 1 0 0-1.44.72.72 0 0 0 0 1.45zM101.55 233.86a1.18 1.18 0 1 0 0-2.35 1.18 1.18 0 0 0 0 2.35zM81.64 248.6a.72.72 0 1 0 0-1.44.72.72 0 0 0 0 1.45zM65.9 233.77a1.54 1.54 0 1 0 0-3.07 1.54 1.54 0 0 0 0 3.07zM68.97 247.25a1.54 1.54 0 1 0 0-3.08 1.54 1.54 0 0 0 0 3.08zM59.38 263.89a2.8 2.8 0 1 0 0-5.6 2.8 2.8 0 0 0 0 5.6zM29.88 244.72a5.43 5.43 0 1 0 0-10.86 5.43 5.43 0 0 0 0 10.86zM31.42 278.36a7.96 7.96 0 1 0 0-15.92 7.96 7.96 0 0 0 0 15.92zM77.39 260.82a.45.45 0 1 0 0-.9.45.45 0 0 0 0 .9zM117.75 234.59a.72.72 0 1 0 0-1.45.72.72 0 0 0 0 1.45zM121.18 209.99a.9.9 0 1 0 0-1.81.9.9 0 0 0 0 1.8zM109.51 205.83a.81.81 0 1 0 0-1.63.81.81 0 0 0 0 1.63zM93.95 209.35a.81.81 0 1 0 0-1.62.81.81 0 0 0 0 1.62zM59.2 223.2a.45.45 0 1 0 0-.91.45.45 0 0 0 0 .9zM49.6 226.27a1.27 1.27 0 1 0 0-2.54 1.27 1.27 0 0 0 0 2.54zM117.66 225.63a1.18 1.18 0 1 0 0-2.35 1.18 1.18 0 0 0 0 2.35zM130.32 221.47a1.18 1.18 0 1 0 0-2.35 1.18 1.18 0 0 0 0 2.35zM108.15 138a1.36 1.36 0 1 0 0-2.72 1.36 1.36 0 0 0 0 2.72zM90.78 132.66a1.54 1.54 0 1 0 0-3.08 1.54 1.54 0 0 0 0 3.08zM79.65 147.04a.72.72 0 1 0 0-1.45.72.72 0 0 0 0 1.45zM79.02 130.3a.9.9 0 1 0 0-1.8.9.9 0 0 0 0 1.8zM83.54 113.12a.9.9 0 1 0 0-1.8.9.9 0 0 0 0 1.8zM97.66 122.08a.72.72 0 1 0 0-1.45.72.72 0 0 0 0 1.45zM94.76 146.23a1.18 1.18 0 1 0 0-2.36 1.18 1.18 0 0 0 0 2.36zM70.42 139.72a.72.72 0 1 0 0-1.45.72.72 0 0 0 0 1.45zM72.86 118.37a1.54 1.54 0 1 0 0-3.07 1.54 1.54 0 0 0 0 3.07zM64.27 129.22a1.54 1.54 0 1 0 0-3.07 1.54 1.54 0 0 0 0 3.07zM46.26 132.57a2.8 2.8 0 1 0 0-5.6 2.8 2.8 0 0 0 0 5.6zM44.9 98.56a5.43 5.43 0 1 0 0-10.85 5.43 5.43 0 0 0 0 10.85zM21.56 121.63a7.96 7.96 0 1 0 0-15.93 7.96 7.96 0 0 0 0 15.93zM58.11 143.78a.45.45 0 1 0 0-.9.45.45 0 0 0 0 .9zM104 159.07a.72.72 0 1 0 0-1.45.72.72 0 0 0 0 1.45zM125.53 146.5a.9.9 0 1 0 0-1.81.9.9 0 0 0 0 1.8zM121.37 134.83a.81.81 0 1 0 0-1.63.81.81 0 0 0 0 1.63zM108.88 124.8a.81.81 0 1 0 0-1.64.81.81 0 0 0 0 1.63zM76.12 106.16a.45.45 0 1 0 0-.9.45.45 0 0 0 0 .9zM68.34 100.92a1.27 1.27 0 1 0 0-2.54 1.27 1.27 0 0 0 0 2.54zM111.23 153.55a1.18 1.18 0 1 0 0-2.35 1.18 1.18 0 0 0 0 2.35zM122.36 160.88a1.18 1.18 0 1 0 0-2.35 1.18 1.18 0 0 0 0 2.35zM174.03 91.7a1.36 1.36 0 1 0 0-2.72 1.36 1.36 0 0 0 0 2.71zM167.51 74.78a1.54 1.54 0 1 0 0-3.08 1.54 1.54 0 0 0 0 3.08zM148.7 74.78a.72.72 0 1 0 0-1.45.72.72 0 0 0 0 1.45zM161.54 63.93a.9.9 0 1 0 0-1.81.9.9 0 0 0 0 1.8zM177.83 56.69a.9.9 0 1 0 0-1.8.9.9 0 0 0 0 1.8zM179.46 73.24a.72.72 0 1 0 0-1.45.72.72 0 0 0 0 1.45zM159.1 86.17a1.18 1.18 0 1 0 0-2.35 1.18 1.18 0 0 0 0 2.35zM148.7 63.02a.72.72 0 1 0 0-1.45.72.72 0 0 0 0 1.45zM167.51 51.9a1.54 1.54 0 1 0 0-3.08 1.54 1.54 0 0 0 0 3.08zM153.67 51.9a1.54 1.54 0 1 0 0-3.08 1.54 1.54 0 0 0 0 3.08zM140.73 40.41a2.8 2.8 0 1 0 0-5.6 2.8 2.8 0 0 0 0 5.6zM168.6 19.16a5.43 5.43 0 1 0 0-10.86 5.43 5.43 0 0 0 0 10.86zM138.01 16.26a7.96 7.96 0 1 0 0-15.92 7.96 7.96 0 0 0 0 15.92zM137.56 55.79a.45.45 0 1 0 0-.9.45.45 0 0 0 0 .9zM154.4 101.28a.72.72 0 1 0 0-1.45.72.72 0 0 0 0 1.45zM177.83 110.32a.9.9 0 1 0 0-1.8.9.9 0 0 0 0 1.8zM184.35 99.74a.81.81 0 1 0 0-1.63.81.81 0 0 0 0 1.63zM184.35 83.82a.81.81 0 1 0 0-1.63.81.81 0 0 0 0 1.63zM178.28 46.47a.45.45 0 1 0 0-.9.45.45 0 0 0 0 .9zM178.2 37.34a1.27 1.27 0 1 0 0-2.54 1.27 1.27 0 0 0 0 2.54zM163.62 103.72a1.18 1.18 0 1 0 0-2.35 1.18 1.18 0 0 0 0 2.35zM164.8 116.92a1.18 1.18 0 1 0 0-2.35 1.18 1.18 0 0 0 0 2.35z" fill="#E3FFFF"/></svg>