<svg width="1346" height="702" viewBox="0 0 1346 702" fill="none" xmlns="http://www.w3.org/2000/svg">
<g opacity="0.3">
<path d="M58.967 28.9924C58.7353 12.9886 45.6444 8.84778e-07 29.5414 8.84778e-07C13.2068 8.84778e-07 0 13.2205 0 29.4563C0 45.692 13.2068 58.9125 29.4256 58.9125C45.4127 58.9125 58.5036 46.0399 58.8512 30.1521H288V28.9924H58.967ZM57.8085 30.1521C57.461 45.4601 44.9493 57.7528 29.5414 57.7528C13.9018 57.8688 1.15849 45.1122 1.15849 29.4563C1.15849 13.8004 13.9018 1.1597 29.4256 1.1597C44.8335 1.1597 57.461 13.5684 57.6927 28.9924H34.1754V30.1521H57.8085Z" transform="translate(1054 51.3746)" fill="url(#paint0_linear)"/>
<path d="M29.4256 3.53911e-06C13.2068 3.53911e-06 -8.83856e-07 13.2205 -8.83856e-07 29.4563C-8.83856e-07 45.692 13.2068 58.9126 29.4256 58.9126C45.5286 58.9126 58.6195 46.0399 58.8512 30.0361H196.479C196.016 47.6635 181.535 61.9277 163.81 61.9277H109.361C109.014 53.9258 102.41 47.4316 94.4167 47.4316C86.0756 47.4316 79.3564 54.1578 79.3564 62.5076C79.3564 70.8574 86.0756 77.5836 94.4167 77.5836C102.526 77.5836 109.13 71.0893 109.361 63.0874H163.81C182.23 63.0874 197.175 48.3593 197.638 30.0361H245.368V28.8764H58.8512C58.6195 12.8726 45.5286 3.53911e-06 29.4256 3.53911e-06ZM57.6927 30.0361C57.3451 45.3441 44.8335 57.7529 29.4256 57.7529C13.786 57.7529 1.15849 44.9962 1.15849 29.4563C1.15849 13.9163 13.9019 1.1597 29.4256 1.1597C44.8335 1.1597 57.461 13.5684 57.6927 28.8764H29.4256V30.0361H57.6927ZM108.203 63.0874C107.855 70.5095 101.831 76.4239 94.4167 76.4239C86.7707 76.4239 80.5149 70.1616 80.5149 62.5076C80.5149 54.8536 86.7707 48.5913 94.4167 48.5913C101.831 48.5913 107.971 54.5057 108.203 61.9277H94.4167V63.0874H108.203Z" transform="translate(1096.63 105.416)" fill="url(#paint1_linear)"/>
<path d="M14.9445 63.5513C23.0539 63.5513 29.6573 57.057 29.889 49.0551H84.4537C102.99 49.0551 118.05 34.0951 118.282 15.6559H179.913V14.4962H87.0024C86.6549 6.4943 80.0515 -1.72808e-09 72.0579 -1.72808e-09C63.7168 -1.72808e-09 56.9976 6.72624 56.9976 15.076C56.9976 23.4259 63.7168 30.1521 72.0579 30.1521C80.1673 30.1521 86.7707 23.6578 87.0024 15.6559H117.239C116.891 33.5152 102.41 47.8954 84.5696 47.8954H30.0048C29.6573 39.8935 23.0539 33.3992 15.0603 33.3992C6.71923 33.3992 1.76771e-06 40.1255 1.76771e-06 48.4753C1.76771e-06 56.8251 6.71923 63.5513 14.9445 63.5513ZM85.8439 15.7719C85.4964 23.1939 79.4723 29.1084 72.0579 29.1084C64.4119 29.1084 58.1561 22.846 58.1561 15.192C58.1561 7.53802 64.4119 1.27567 72.0579 1.27567C79.4723 1.27567 85.6122 7.19011 85.8439 14.6122H72.0579V15.7719H85.8439ZM14.9445 34.6749C22.3588 34.6749 28.4988 40.5894 28.7305 48.0114H14.9445V49.1711H28.7305C28.3829 56.5932 22.3588 62.5076 14.9445 62.5076C7.29848 62.5076 1.04264 56.2452 1.04264 48.5913C1.04264 40.9373 7.29848 34.6749 14.9445 34.6749Z" transform="translate(1161.62)" fill="url(#paint2_linear)"/>
</g>
<g opacity="0.5" filter="url(#filter0_d)">
<path d="M58.967 28.9924C58.7353 12.9886 45.6444 8.84778e-07 29.5414 8.84778e-07C13.2068 8.84778e-07 0 13.2205 0 29.4563C0 45.692 13.2068 58.9125 29.4256 58.9125C45.4127 58.9125 58.5036 46.0399 58.8512 30.1521H288V28.9924H58.967ZM57.8085 30.1521C57.461 45.4601 44.9493 57.7528 29.5414 57.7528C13.9018 57.8688 1.15849 45.1122 1.15849 29.4563C1.15849 13.8004 13.9018 1.1597 29.4256 1.1597C44.8335 1.1597 57.461 13.5684 57.6927 28.9924H34.1754V30.1521H57.8085Z" transform="translate(1054 642.625) scale(1 -1)" fill="url(#paint3_linear)"/>
<path d="M29.4256 3.53911e-06C13.2068 3.53911e-06 -8.83856e-07 13.2205 -8.83856e-07 29.4563C-8.83856e-07 45.692 13.2068 58.9126 29.4256 58.9126C45.5286 58.9126 58.6195 46.0399 58.8512 30.0361H196.479C196.016 47.6635 181.535 61.9277 163.81 61.9277H109.361C109.014 53.9258 102.41 47.4316 94.4167 47.4316C86.0756 47.4316 79.3564 54.1578 79.3564 62.5076C79.3564 70.8574 86.0756 77.5836 94.4167 77.5836C102.526 77.5836 109.13 71.0893 109.361 63.0874H163.81C182.23 63.0874 197.175 48.3593 197.638 30.0361H245.368V28.8764H58.8512C58.6195 12.8726 45.5286 3.53911e-06 29.4256 3.53911e-06ZM57.6927 30.0361C57.3451 45.3441 44.8335 57.7529 29.4256 57.7529C13.786 57.7529 1.15849 44.9962 1.15849 29.4563C1.15849 13.9163 13.9019 1.1597 29.4256 1.1597C44.8335 1.1597 57.461 13.5684 57.6927 28.8764H29.4256V30.0361H57.6927ZM108.203 63.0874C107.855 70.5095 101.831 76.4239 94.4167 76.4239C86.7707 76.4239 80.5149 70.1616 80.5149 62.5076C80.5149 54.8536 86.7707 48.5913 94.4167 48.5913C101.831 48.5913 107.971 54.5057 108.203 61.9277H94.4167V63.0874H108.203Z" transform="translate(1096.63 588.584) scale(1 -1)" fill="url(#paint4_linear)"/>
<path d="M14.9445 63.5513C23.0539 63.5513 29.6573 57.057 29.889 49.0551H84.4537C102.99 49.0551 118.05 34.0951 118.282 15.6559H179.913V14.4962H87.0024C86.6549 6.4943 80.0515 -1.72808e-09 72.0579 -1.72808e-09C63.7168 -1.72808e-09 56.9976 6.72624 56.9976 15.076C56.9976 23.4259 63.7168 30.1521 72.0579 30.1521C80.1673 30.1521 86.7707 23.6578 87.0024 15.6559H117.239C116.891 33.5152 102.41 47.8954 84.5696 47.8954H30.0048C29.6573 39.8935 23.0539 33.3992 15.0603 33.3992C6.71923 33.3992 1.76771e-06 40.1255 1.76771e-06 48.4753C1.76771e-06 56.8251 6.71923 63.5513 14.9445 63.5513ZM85.8439 15.7719C85.4964 23.1939 79.4723 29.1084 72.0579 29.1084C64.4119 29.1084 58.1561 22.846 58.1561 15.192C58.1561 7.53802 64.4119 1.27567 72.0579 1.27567C79.4723 1.27567 85.6122 7.19011 85.8439 14.6122H72.0579V15.7719H85.8439ZM14.9445 34.6749C22.3588 34.6749 28.4988 40.5894 28.7305 48.0114H14.9445V49.1711H28.7305C28.3829 56.5932 22.3588 62.5076 14.9445 62.5076C7.29848 62.5076 1.04264 56.2452 1.04264 48.5913C1.04264 40.9373 7.29848 34.6749 14.9445 34.6749Z" transform="translate(1161.62 694) scale(1 -1)" fill="url(#paint5_linear)"/>
</g>
<g opacity="0.3">
<path d="M58.967 28.9924C58.7353 12.9886 45.6444 8.84778e-07 29.5414 8.84778e-07C13.2068 8.84778e-07 0 13.2205 0 29.4563C0 45.692 13.2068 58.9125 29.4256 58.9125C45.4127 58.9125 58.5036 46.0399 58.8512 30.1521H288V28.9924H58.967ZM57.8085 30.1521C57.461 45.4601 44.9493 57.7528 29.5414 57.7528C13.9018 57.8688 1.15849 45.1122 1.15849 29.4563C1.15849 13.8004 13.9018 1.1597 29.4256 1.1597C44.8335 1.1597 57.461 13.5684 57.6927 28.9924H34.1754V30.1521H57.8085Z" transform="translate(288 51.3746) scale(-1 1)" fill="url(#paint6_linear)"/>
<path d="M29.4256 3.53911e-06C13.2068 3.53911e-06 -8.83856e-07 13.2205 -8.83856e-07 29.4563C-8.83856e-07 45.692 13.2068 58.9126 29.4256 58.9126C45.5286 58.9126 58.6195 46.0399 58.8512 30.0361H196.479C196.016 47.6635 181.535 61.9277 163.81 61.9277H109.361C109.014 53.9258 102.41 47.4316 94.4167 47.4316C86.0756 47.4316 79.3564 54.1578 79.3564 62.5076C79.3564 70.8574 86.0756 77.5836 94.4167 77.5836C102.526 77.5836 109.13 71.0893 109.361 63.0874H163.81C182.23 63.0874 197.175 48.3593 197.638 30.0361H245.368V28.8764H58.8512C58.6195 12.8726 45.5286 3.53911e-06 29.4256 3.53911e-06ZM57.6927 30.0361C57.3451 45.3441 44.8335 57.7529 29.4256 57.7529C13.786 57.7529 1.15849 44.9962 1.15849 29.4563C1.15849 13.9163 13.9019 1.1597 29.4256 1.1597C44.8335 1.1597 57.461 13.5684 57.6927 28.8764H29.4256V30.0361H57.6927ZM108.203 63.0874C107.855 70.5095 101.831 76.4239 94.4167 76.4239C86.7707 76.4239 80.5149 70.1616 80.5149 62.5076C80.5149 54.8536 86.7707 48.5913 94.4167 48.5913C101.831 48.5913 107.971 54.5057 108.203 61.9277H94.4167V63.0874H108.203Z" transform="translate(245.368 105.416) scale(-1 1)" fill="url(#paint7_linear)"/>
<path d="M14.9445 63.5513C23.0539 63.5513 29.6573 57.057 29.889 49.0551H84.4537C102.99 49.0551 118.05 34.0951 118.282 15.6559H179.913V14.4962H87.0024C86.6549 6.4943 80.0515 -1.72808e-09 72.0579 -1.72808e-09C63.7168 -1.72808e-09 56.9976 6.72624 56.9976 15.076C56.9976 23.4259 63.7168 30.1521 72.0579 30.1521C80.1673 30.1521 86.7707 23.6578 87.0024 15.6559H117.239C116.891 33.5152 102.41 47.8954 84.5696 47.8954H30.0048C29.6573 39.8935 23.0539 33.3992 15.0603 33.3992C6.71923 33.3992 1.76771e-06 40.1255 1.76771e-06 48.4753C1.76771e-06 56.8251 6.71923 63.5513 14.9445 63.5513ZM85.8439 15.7719C85.4964 23.1939 79.4723 29.1084 72.0579 29.1084C64.4119 29.1084 58.1561 22.846 58.1561 15.192C58.1561 7.53802 64.4119 1.27567 72.0579 1.27567C79.4723 1.27567 85.6122 7.19011 85.8439 14.6122H72.0579V15.7719H85.8439ZM14.9445 34.6749C22.3588 34.6749 28.4988 40.5894 28.7305 48.0114H14.9445V49.1711H28.7305C28.3829 56.5932 22.3588 62.5076 14.9445 62.5076C7.29848 62.5076 1.04264 56.2452 1.04264 48.5913C1.04264 40.9373 7.29848 34.6749 14.9445 34.6749Z" transform="translate(180.377) scale(-1 1)" fill="url(#paint8_linear)"/>
</g>
<g opacity="0.5">
<path d="M58.967 28.9924C58.7353 12.9886 45.6444 8.84778e-07 29.5414 8.84778e-07C13.2068 8.84778e-07 0 13.2205 0 29.4563C0 45.692 13.2068 58.9125 29.4256 58.9125C45.4127 58.9125 58.5036 46.0399 58.8512 30.1521H288V28.9924H58.967ZM57.8085 30.1521C57.461 45.4601 44.9493 57.7528 29.5414 57.7528C13.9018 57.8688 1.15849 45.1122 1.15849 29.4563C1.15849 13.8004 13.9018 1.1597 29.4256 1.1597C44.8335 1.1597 57.461 13.5684 57.6927 28.9924H34.1754V30.1521H57.8085Z" transform="translate(288 642.625) rotate(-180)" fill="url(#paint9_linear)"/>
<path d="M29.4256 3.53911e-06C13.2068 3.53911e-06 -8.83856e-07 13.2205 -8.83856e-07 29.4563C-8.83856e-07 45.692 13.2068 58.9126 29.4256 58.9126C45.5286 58.9126 58.6195 46.0399 58.8512 30.0361H196.479C196.016 47.6635 181.535 61.9277 163.81 61.9277H109.361C109.014 53.9258 102.41 47.4316 94.4167 47.4316C86.0756 47.4316 79.3564 54.1578 79.3564 62.5076C79.3564 70.8574 86.0756 77.5836 94.4167 77.5836C102.526 77.5836 109.13 71.0893 109.361 63.0874H163.81C182.23 63.0874 197.175 48.3593 197.638 30.0361H245.368V28.8764H58.8512C58.6195 12.8726 45.5286 3.53911e-06 29.4256 3.53911e-06ZM57.6927 30.0361C57.3451 45.3441 44.8335 57.7529 29.4256 57.7529C13.786 57.7529 1.15849 44.9962 1.15849 29.4563C1.15849 13.9163 13.9019 1.1597 29.4256 1.1597C44.8335 1.1597 57.461 13.5684 57.6927 28.8764H29.4256V30.0361H57.6927ZM108.203 63.0874C107.855 70.5095 101.831 76.4239 94.4167 76.4239C86.7707 76.4239 80.5149 70.1616 80.5149 62.5076C80.5149 54.8536 86.7707 48.5913 94.4167 48.5913C101.831 48.5913 107.971 54.5057 108.203 61.9277H94.4167V63.0874H108.203Z" transform="translate(245.368 588.584) rotate(-180)" fill="url(#paint10_linear)"/>
<path d="M14.9445 63.5513C23.0539 63.5513 29.6573 57.057 29.889 49.0551H84.4537C102.99 49.0551 118.05 34.0951 118.282 15.6559H179.913V14.4962H87.0024C86.6549 6.4943 80.0515 -1.72808e-09 72.0579 -1.72808e-09C63.7168 -1.72808e-09 56.9976 6.72624 56.9976 15.076C56.9976 23.4259 63.7168 30.1521 72.0579 30.1521C80.1673 30.1521 86.7707 23.6578 87.0024 15.6559H117.239C116.891 33.5152 102.41 47.8954 84.5696 47.8954H30.0048C29.6573 39.8935 23.0539 33.3992 15.0603 33.3992C6.71923 33.3992 1.76771e-06 40.1255 1.76771e-06 48.4753C1.76771e-06 56.8251 6.71923 63.5513 14.9445 63.5513ZM85.8439 15.7719C85.4964 23.1939 79.4723 29.1084 72.0579 29.1084C64.4119 29.1084 58.1561 22.846 58.1561 15.192C58.1561 7.53802 64.4119 1.27567 72.0579 1.27567C79.4723 1.27567 85.6122 7.19011 85.8439 14.6122H72.0579V15.7719H85.8439ZM14.9445 34.6749C22.3588 34.6749 28.4988 40.5894 28.7305 48.0114H14.9445V49.1711H28.7305C28.3829 56.5932 22.3588 62.5076 14.9445 62.5076C7.29848 62.5076 1.04264 56.2452 1.04264 48.5913C1.04264 40.9373 7.29848 34.6749 14.9445 34.6749Z" transform="translate(180.377 694) rotate(-180)" fill="url(#paint11_linear)"/>
</g>
<defs>
<filter id="filter0_d" x="1050" y="511" width="296" height="191" filterUnits="userSpaceOnUse" color-interpolation-filters="sRGB">
<feFlood flood-opacity="0" result="BackgroundImageFix"/>
<feColorMatrix in="SourceAlpha" type="matrix" values="0 0 0 0 0 0 0 0 0 0 0 0 0 0 0 0 0 0 255 0"/>
<feOffset dy="4"/>
<feGaussianBlur stdDeviation="2"/>
<feColorMatrix type="matrix" values="0 0 0 0 0 0 0 0 0 0 0 0 0 0 0 0 0 0 0.25 0"/>
<feBlend mode="normal" in2="BackgroundImageFix" result="effect1_dropShadow"/>
<feBlend mode="normal" in="SourceGraphic" in2="effect1_dropShadow" result="shape"/>
</filter>
<linearGradient id="paint0_linear" x2="1" gradientUnits="userSpaceOnUse" gradientTransform="translate(66.0338 -316.383) scale(141.335 692.375)">
<stop stop-color="#54C3E9"/>
<stop offset="1" stop-color="#54C3E9" stop-opacity="0"/>
</linearGradient>
<linearGradient id="paint1_linear" x2="1" gradientUnits="userSpaceOnUse" gradientTransform="translate(31.5109 -246.156) scale(179.566 569.083)">
<stop stop-color="#00F0FF"/>
<stop offset="1" stop-color="#54C3E9" stop-opacity="0"/>
</linearGradient>
<linearGradient id="paint2_linear" x2="1" gradientUnits="userSpaceOnUse" gradientTransform="translate(0.115856 -218.553) scale(154.079 437.106)">
<stop stop-color="#00F0FF"/>
<stop offset="0.909774" stop-color="#54C3E9" stop-opacity="0"/>
</linearGradient>
<linearGradient id="paint3_linear" x2="1" gradientUnits="userSpaceOnUse" gradientTransform="translate(66.0338 -316.383) scale(141.335 692.375)">
<stop stop-color="#54C3E9"/>
<stop offset="1" stop-color="#54C3E9" stop-opacity="0"/>
</linearGradient>
<linearGradient id="paint4_linear" x2="1" gradientUnits="userSpaceOnUse" gradientTransform="translate(31.5109 -246.156) scale(179.566 569.083)">
<stop stop-color="#00F0FF"/>
<stop offset="1" stop-color="#54C3E9" stop-opacity="0"/>
</linearGradient>
<linearGradient id="paint5_linear" x2="1" gradientUnits="userSpaceOnUse" gradientTransform="translate(0.115856 -218.553) scale(154.079 437.106)">
<stop stop-color="#00F0FF"/>
<stop offset="0.909774" stop-color="#54C3E9" stop-opacity="0"/>
</linearGradient>
<linearGradient id="paint6_linear" x2="1" gradientUnits="userSpaceOnUse" gradientTransform="translate(66.0338 -316.383) scale(141.335 692.375)">
<stop stop-color="#54C3E9"/>
<stop offset="1" stop-color="#54C3E9" stop-opacity="0"/>
</linearGradient>
<linearGradient id="paint7_linear" x2="1" gradientUnits="userSpaceOnUse" gradientTransform="translate(31.5109 -246.156) scale(179.566 569.083)">
<stop stop-color="#00F0FF"/>
<stop offset="1" stop-color="#54C3E9" stop-opacity="0"/>
</linearGradient>
<linearGradient id="paint8_linear" x2="1" gradientUnits="userSpaceOnUse" gradientTransform="translate(0.115856 -218.553) scale(154.079 437.106)">
<stop stop-color="#00F0FF"/>
<stop offset="0.909774" stop-color="#54C3E9" stop-opacity="0"/>
</linearGradient>
<linearGradient id="paint9_linear" x2="1" gradientUnits="userSpaceOnUse" gradientTransform="translate(66.0338 -316.383) scale(141.335 692.375)">
<stop stop-color="#54C3E9"/>
<stop offset="1" stop-color="#54C3E9" stop-opacity="0"/>
</linearGradient>
<linearGradient id="paint10_linear" x2="1" gradientUnits="userSpaceOnUse" gradientTransform="translate(31.5109 -246.156) scale(179.566 569.083)">
<stop stop-color="#00F0FF"/>
<stop offset="1" stop-color="#54C3E9" stop-opacity="0"/>
</linearGradient>
<linearGradient id="paint11_linear" x2="1" gradientUnits="userSpaceOnUse" gradientTransform="translate(0.115856 -218.553) scale(154.079 437.106)">
<stop stop-color="#00F0FF"/>
<stop offset="0.909774" stop-color="#54C3E9" stop-opacity="0"/>
</linearGradient>
</defs>
</svg>
