<svg width="872" height="240" viewBox="0 0 872 240" version="1.1" xmlns="http://www.w3.org/2000/svg" xmlns:xlink="http://www.w3.org/1999/xlink">
<g id="Canvas" fill="none">
<g id="logo-strip" clip-path="url(#clip0)">
<rect width="872" height="240" fill="white"/>
<g id="Group">
<g id="_31878048">
<path fill-rule="evenodd" clip-rule="evenodd" d="M 140.188 110.25C 162.972 124.526 175.991 117.337 185.373 111.908C 165.287 122.932 149.292 112.422 141.939 106.84L 135.785 102.084L 134.812 106.588L 140.188 110.25L 140.188 110.25ZM 74.3158 6.75809C 71.7712 5.00368 69.0477 3.51529 66.1474 2.38008C 61.4805 0.554575 56.7309 -0.206818 52.0204 0.0477439C 48.9641 0.212865 45.9446 0.799963 42.9893 1.79757L 42.987 1.79757C 13.3929 15.5921 11.8579 60.7161 0 86.3374L 1.60613 83.0396C 2.55375 81.0604 3.46466 79.1248 4.34803 77.2282C 11.438 63.0048 18.3191 51.5129 25.058 42.7568C 49.1316 11.4755 71.4041 15.1128 94.8972 53.9186C 95.051 54.1777 95.2139 54.4392 95.3653 54.696C 100.09 62.7136 104.887 70.5546 110.011 77.9392L 110.011 77.9392C 111.707 80.7027 113.448 83.3239 115.231 85.8031L 121.671 95.2677L 124.136 86.8718C 106.503 63.5644 94.8903 23.6005 74.3158 6.75809L 74.3158 6.75809L 74.3158 6.75809Z" transform="translate(190.124 50.8044)" fill="url(#paint0_linear)"/>
</g>
<g id="_31877928">
<path fill-rule="evenodd" clip-rule="evenodd" d="M 66.7392 80.2902C 72.7209 91.6904 80.8295 101.435 92.8893 107.06C 91.5516 106.749 90.2139 106.354 88.8786 105.87C 87.0361 105.198 85.1936 104.366 83.3603 103.357C 79.8636 101.439 76.3828 98.8847 72.971 95.6648C 70.0639 92.9219 67.1981 89.6929 64.4057 85.9593C 64.0248 85.4571 63.6554 84.948 63.2951 84.4365L 58.6741 76.4029L 61.9712 70.6581L 66.7392 80.2902L 66.7392 80.2902L 66.7392 80.2902ZM 17.5158 94.6855L 17.5135 94.6878C -5.16512 78.8018 -5.90853 14.7255 15.8087 2.40334C 18.3234 0.979165 21.0217 0.178786 23.8095 0.0274244C 26.5698 -0.123937 29.3622 0.350787 32.088 1.46306C 46.0591 8.78803 50.0744 34.9552 58.3207 59.8472L 54.1563 67.2364L 52.1578 61.1636C 50.827 57.3498 49.604 53.474 48.3834 49.6028C 46.8277 44.6767 45.2766 39.7529 43.5305 35.0584C 31.1174 6.29974 17.5617 19.4315 10.9536 39.0924C 7.60135 49.0593 6.03193 60.6958 7.30077 69.4197C 9.04228 81.3956 12.7593 90.0323 17.5158 94.6855L 17.5158 94.6855L 17.5158 94.6855Z" transform="translate(41.5729 76.6295)" fill="url(#paint1_linear)"/>
</g>
<g id="_31877688">
<path fill-rule="evenodd" clip-rule="evenodd" d="M 24.3742 31.5611C 22.0476 27.5386 19.7141 23.5046 16.4101 17.9547C 16.3321 17.8079 16.2495 17.6565 16.1577 17.512C 14.3818 14.705 12.5232 12.1548 10.6074 9.84995L 10.6028 9.84995C 9.44636 8.46247 8.267 7.16214 7.06928 5.95584C 4.88953 3.7588 2.5331 1.74983 0 0C 20.5769 16.8401 32.1869 56.8086 49.8223 80.1137L 53.0414 74.4147C 41.1813 61.8884 32.9785 46.4083 24.3742 31.5611L 24.3742 31.5611L 24.3742 31.5611ZM 79.3063 107.044L 79.1709 106.987C 75.4401 105.308 71.9685 103.258 68.7173 100.898L 68.6691 100.857L 68.341 100.621L 68.318 100.6L 67.9784 100.348L 67.9715 100.341L 67.6274 100.082L 61.4736 95.3255L 61.4736 95.33L 60.6705 94.7085L 66.2415 86.3263L 72.4618 90.6768C 73.0125 90.9681 73.5655 91.2433 74.1184 91.5162C 95.8219 102.121 118.365 95.3025 132.185 60.6247C 134.507 54.7927 138.109 54.9991 134.83 66.592C 129.817 85.4365 121.348 98.2105 111.064 105.148L 111.032 105.169C 108.554 106.84 105.968 108.171 103.302 109.164C 106.163 107.962 108.71 106.515 111.032 105.169L 111.06 105.152C 98.5064 112.037 87.5549 110.517 79.3063 107.044L 79.3063 107.044L 79.3063 107.044Z" transform="translate(264.44 57.5625)" fill="url(#paint2_linear)"/>
</g>
<g id="_31877568">
<path fill-rule="evenodd" clip-rule="evenodd" d="M 26.2304 83.8771L 29.5047 78.6712L 27.7586 72.9309L 27.1895 71.1375L 26.9165 70.2752C 23.5276 59.54 20.1409 48.8232 14.6043 39.5145L 14.602 39.5214C 11.4265 33.9623 7.63143 29.9214 3.61609 27.3689L 3.61609 27.3666L 3.6138 27.3666C 2.42526 26.6144 1.21607 25.986 0 25.4929C 13.9688 32.8179 17.9864 58.985 26.2304 83.8771L 26.2304 83.8771L 26.2304 83.8771ZM 159.452 0C 129.856 13.7968 128.321 58.9185 116.463 84.5421L 115.369 86.7827L 106.168 77.8822L 109.029 72.7474C 111.234 68.6997 113.473 64.3767 115.699 59.7441C 116.709 57.4783 117.679 55.279 118.613 53.1553C 123.243 42.6541 127.109 33.8751 131.393 26.6488L 131.451 26.557C 136.228 17.5373 142.099 10.5334 148.581 5.74943C 149.428 5.12564 150.286 4.53854 151.153 3.98814C 153.838 2.29106 156.612 0.956328 159.452 0L 159.452 0L 159.452 0ZM 91.6276 98.7999C 76.9659 114.477 60.7853 116.578 46.5687 103.907C 44.4784 102.043 42.4318 99.8617 40.4356 97.3574L 35.647 89.4912L 30.7873 96.2291L 34.6512 104.322C 40.6329 115.72 48.7416 125.465 60.8013 131.093C 64.2109 131.884 67.6182 132.118 70.9888 131.815C 77.4638 131.235 83.675 128.703 89.4066 124.407C 94.6265 120.502 99.4518 115.138 103.708 108.482L 107.095 102.701L 96.6548 92.8097L 91.6276 98.7999L 91.6276 98.7999L 91.6276 98.7999Z" transform="translate(73.6632 52.6021)" fill="url(#paint3_linear)"/>
</g>
<g id="_31877448">
<path fill-rule="evenodd" clip-rule="evenodd" d="M 33.6585 108.443C 49.6189 101.616 55.2518 79.0175 64.1406 59.3749C 66.3135 54.5726 68.686 49.9492 71.4463 45.773C 74.6516 40.9295 78.3825 36.6913 82.9553 33.4898C 80.4957 34.9048 78.1415 36.5859 75.9251 38.5306C 74.0757 40.1474 72.3526 41.9775 70.7258 43.9475C 67.8118 47.4862 65.2236 51.4812 62.8236 55.5312C 60.6485 59.2029 58.6247 62.9227 56.6652 66.388C 52.8794 73.0616 49.1577 79.616 45.2984 85.0696C 37.1714 95.6259 28.5969 96.8093 22.0164 90.3718L 22.0141 90.3741C 7.3776 76.6025 3.9749 55.2446 5.99633 35.524C 7.13439 24.3898 10.2205 8.61842 17.5811 0C 11.7119 4.81604 7.44873 15.4618 5.41812 22.4129C 1.28807 36.5583 0.0261039 52.41 0.00086468 58.9139C -0.0542027 72.6167 2.5179 85.8631 8.59597 97.018L 8.59597 97.018L 8.59597 97.018C 8.97685 97.7152 9.36462 98.4032 9.77074 99.0797L 9.77304 99.0774C 9.86941 99.2425 9.97954 99.4008 10.0966 99.559C 14.2679 105.132 19.1781 108.294 24.7812 109.111C 27.6493 109.531 30.6092 109.303 33.6585 108.443L 33.6585 108.443L 33.6585 108.443Z" transform="translate(37.07 80.9432)" fill="url(#paint4_linear)"/>
</g>
<g id="_31877328">
<path fill-rule="evenodd" clip-rule="evenodd" d="M 86.6807 3.55303C 114.602 18.9162 121.428 85.7353 172.607 99.4794C 168.947 98.757 165.54 97.7433 162.341 96.4751C 153.989 93.1681 147.062 88.1273 140.828 81.9811L 140.83 81.9926L 140.817 81.9765C 134.984 76.2248 129.757 69.5053 124.535 62.3225C 119.439 56.401 114.618 51.085 110.027 46.3883L 99.5871 36.497C 77.1655 17.1457 59.8285 15.7261 40.073 36.5383L 31.0672 47.3079C 30.5877 47.9409 30.1104 48.5922 29.6263 49.255L 29.6263 49.2504C 25.8381 55.8323 22.0178 62.1115 17.8258 67.377C 16.0131 69.6543 14.134 71.739 12.1515 73.5805L 12.1515 73.5851L 12.1515 73.5851C 11.0479 74.6126 9.91672 75.5574 8.75343 76.4197C 8.5584 76.5619 8.36107 76.6926 8.15686 76.8096C 5.36907 78.5067 2.65012 79.7313 0 80.4789C 24.388 70.0465 24.6656 22.769 49.2968 5.52531C 51.8322 4.06445 54.4846 2.89713 57.2036 2.01419L 57.2059 2.01419L 57.2059 2.01419C 60.5329 0.929436 63.9539 0.285004 67.4209 0.074016C 73.8959 -0.315854 80.4742 0.833116 86.6807 3.55303L 86.6807 3.55303L 86.6807 3.55303Z" transform="translate(70.7308 108.912)" fill="url(#paint5_linear)"/>
</g>
<g id="_31877160">
<path fill-rule="evenodd" clip-rule="evenodd" d="M 180.24 0C 173.648 23.0574 173.825 46.3762 168.885 67.7135C 162.343 95.9401 148.191 120.63 111.004 135.856C 107.088 136.558 103.157 136.883 99.2613 136.856C 94.4636 136.821 90.0352 136.376 85.9258 135.562C 34.7475 121.821 27.9215 54.9992 0 39.636C 2.42756 40.7001 4.79545 42.0027 7.07846 43.5485C 10.0934 45.5873 12.9523 48.0434 15.5795 50.9216C 17.8304 53.1393 20.1134 55.389 22.4193 57.6549L 31.6271 66.5485L 31.6202 66.5554C 36.1655 70.8783 40.7935 75.1371 45.4673 79.1734C 64.1604 95.314 83.6749 107.932 102.345 107.159C 115.309 106.629 127.708 100.373 138.784 89.3651C 143.978 84.2004 148.889 77.9923 153.425 70.8325L 159.714 59.8359C 164.174 51.1991 168.169 41.5326 171.599 30.9419C 172.129 28.9513 172.65 26.9905 173.162 25.0732C 175.794 15.1797 178.118 6.45349 180.24 0L 180.24 0L 180.24 0Z" transform="translate(157.412 72.8317)" fill="url(#paint6_linear)"/>
</g>
<g id="_31877136">
<path fill-rule="evenodd" clip-rule="evenodd" d="M 63.2174 115.459C 69.1349 100.488 73.5884 84.3013 77.1334 68.6056C 80.6256 57.7902 85.008 50.6693 89.8058 46.1491C 89.8173 52.8297 93.2429 58.9827 99.7684 63.5442C 90.1431 49.6901 96.6319 39.5856 106.778 39.2117C 108.26 39.1911 109.731 39.2805 111.183 39.4663C 112.918 39.4113 114.515 39.1567 116.064 38.5902C 121.249 36.8198 124.081 33.0954 125.797 28.4536C 121.733 28.1761 117.679 26.7795 113.616 24.3439C 113.432 24.2293 113.248 24.1169 113.06 24.0045L 113.056 24.0022C 112.819 23.8646 112.59 23.7247 112.356 23.594C 110.38 22.2845 108.609 20.8053 107.299 19.3261L 103.201 18.9431L 94.0643 18.028C 84.5239 15.7989 77.9479 13.5514 66.0763 0C 65.684 7.32726 68.0496 14.4091 75.9196 20.9842C 71.2504 20.365 66.4778 18.606 61.0812 14.5651C 63.2541 21.1378 67.8614 26.4997 77.4546 29.3595C 74.2125 32.8248 71.4637 37.2211 69.4492 42.5073C 69.3597 42.7366 69.2932 42.9614 69.2381 43.193C 53.9248 96.7497 65.3008 152.315 0 179.049C 3.80424 178.368 7.5993 177.333 11.337 175.925L 11.3416 175.925L 11.3462 175.923C 15.4097 174.391 19.4182 172.419 23.3073 169.979L 23.3073 169.979L 23.4014 169.921C 38.0149 160.911 49.0352 146.002 57.5409 128.444L 63.2174 115.459L 63.2174 115.459L 63.2174 115.459Z" transform="translate(268.416 29.6387)" fill="url(#paint7_linear)"/>
</g>
</g>
<g id="rockstat">
<path fill-rule="evenodd" clip-rule="evenodd" d="M 26.4988 54.4883C 23.9385 54.4883 21.485 54.8933 19.138 55.7034C 16.7911 56.5135 14.7216 57.6433 12.9294 59.093C 11.1372 60.5426 9.7077 62.3119 8.64092 64.4011C 7.57413 66.4903 7.04075 68.8139 7.04075 71.372L 7.04075 97.9767L 0 97.9767L 0 46.8139L 6.01664 46.8139L 6.65671 59.9883C 7.68082 57.7712 9.00361 55.7887 10.6251 54.0406C 12.2466 52.2926 14.0175 50.8003 15.9377 49.5639C 17.8579 48.3274 19.8634 47.3681 21.9543 46.686C 24.0452 46.0038 26.0294 45.6627 27.907 45.6627L 26.4988 54.4883ZM 32.0034 72.3953C 32.0034 68.7286 32.7075 65.2538 34.1156 61.9708C 35.5238 58.6879 37.444 55.8313 39.8762 53.4011C 42.3085 50.9708 45.1674 49.0522 48.4531 47.6453C 51.7388 46.2383 55.2592 45.5348 59.0143 45.5348C 62.7693 45.5348 66.2897 46.2383 69.5754 47.6453C 72.8611 49.0522 75.6987 50.9708 78.0883 53.4011C 80.4779 55.8313 82.3554 58.6879 83.7209 61.9708C 85.0864 65.2538 85.7691 68.7286 85.7691 72.3953C 85.7691 76.0619 85.0864 79.5154 83.7209 82.7557C 82.3554 85.996 80.4565 88.81 78.0243 91.1976C 75.592 93.5852 72.7544 95.4825 69.5114 96.8894C 66.2683 98.2964 62.7267 98.9999 58.8862 98.9999C 55.1312 98.9999 51.6322 98.3391 48.3891 97.0173C 45.1461 95.6956 42.3085 93.841 39.8762 91.4534C 37.444 89.0658 35.5238 86.2519 34.1156 83.0115C 32.7075 79.7712 32.0034 76.2325 32.0034 72.3953ZM 39.0441 72.3953C 39.0441 75.124 39.5562 77.6821 40.5803 80.0697C 41.6044 82.4573 43.0126 84.5464 44.8048 86.3371C 46.597 88.1278 48.6878 89.5348 51.0774 90.5581C 53.467 91.5813 56.0273 92.093 58.7582 92.093C 61.4892 92.093 64.0708 91.5813 66.5031 90.5581C 68.9353 89.5348 71.0475 88.1278 72.8397 86.3371C 74.6319 84.5464 76.0401 82.4573 77.0642 80.0697C 78.0883 77.6821 78.6003 75.124 78.6003 72.3953C 78.6003 69.6666 78.0883 67.0872 77.0642 64.6569C 76.0401 62.2267 74.6319 60.1162 72.8397 58.3255C 71.0475 56.5348 68.9353 55.1278 66.5031 54.1046C 64.0708 53.0813 61.4892 52.5697 58.7582 52.5697C 56.0273 52.5697 53.467 53.0813 51.0774 54.1046C 48.6878 55.1278 46.597 56.5348 44.8048 58.3255C 43.0126 60.1162 41.6044 62.2267 40.5803 64.6569C 39.5562 67.0872 39.0441 69.6666 39.0441 72.3953ZM 135.31 87.872L 139.663 93.1162C 137.359 94.9922 134.777 96.4418 131.918 97.465C 129.059 98.4883 126.008 98.9999 122.765 98.9999C 119.01 98.9999 115.49 98.2964 112.204 96.8895C 108.918 95.4825 106.059 93.5852 103.627 91.1976C 101.195 88.81 99.2745 85.9961 97.8664 82.7557C 96.4582 79.5154 95.7542 76.062 95.7542 72.3953C 95.7542 68.7286 96.4582 65.2538 97.8664 61.9709C 99.2745 58.6879 101.195 55.8527 103.627 53.465C 106.059 51.0774 108.918 49.1802 112.204 47.7732C 115.49 46.3662 119.01 45.6627 122.765 45.6627C 126.008 45.6627 129.08 46.1743 131.982 47.1976C 134.884 48.2209 137.487 49.6705 139.791 51.5464C 139.108 52.4844 138.383 53.3585 137.615 54.1685C 136.847 54.9786 136.078 55.8526 135.31 56.7906C 131.811 53.9767 127.63 52.5697 122.765 52.5697C 119.949 52.5697 117.324 53.0813 114.892 54.1046C 112.46 55.1278 110.348 56.5135 108.556 58.2616C 106.763 60.0096 105.355 62.0988 104.331 64.529C 103.307 66.9592 102.795 69.5813 102.795 72.3953C 102.795 75.124 103.307 77.6821 104.331 80.0697C 105.355 82.4573 106.763 84.5464 108.556 86.3371C 110.348 88.1278 112.46 89.5348 114.892 90.5581C 117.324 91.5813 119.949 92.093 122.765 92.093C 127.63 92.093 131.811 90.686 135.31 87.872ZM 187.156 45.5349L 191.38 49.8837C 188.137 52.8682 185.044 55.7887 182.099 58.6453C 179.155 61.502 176.061 64.4225 172.818 67.407L 195.093 97.9767L 186.9 97.9767L 167.826 72.1395L 159.505 79.814L 159.505 97.9767L 152.464 97.9767L 152.464 0L 159.505 0L 159.505 71.3721C 164.284 66.938 168.893 62.6531 173.33 58.5174C 177.768 54.3818 182.377 50.0543 187.156 45.5349ZM 232.345 51.6744L 228.504 56.6628C 227.822 55.7248 226.477 54.8508 224.472 54.0407C 222.466 53.2306 220.439 52.8256 218.391 52.8256C 217.538 52.8256 216.62 52.9535 215.639 53.2093C 214.657 53.4651 213.761 53.8701 212.951 54.4244C 212.14 54.9787 211.457 55.7035 210.902 56.5988C 210.348 57.4942 210.07 58.5814 210.07 59.8604C 210.07 61.8217 210.668 63.3779 211.862 64.529C 213.057 65.6802 214.551 66.6821 216.343 67.5349C 218.135 68.3876 220.077 69.1976 222.168 69.9651C 224.258 70.7325 226.2 71.6705 227.992 72.779C 229.784 73.8876 231.278 75.3159 232.473 77.0639C 233.667 78.812 234.265 81.0503 234.265 83.779C 234.265 88.0426 232.814 91.6453 229.912 94.5872C 227.011 97.5291 222.872 99 217.495 99C 214.593 99 211.628 98.4884 208.598 97.4651C 205.568 96.4418 203.115 94.8217 201.237 92.6046C 201.579 92.2635 202.005 91.7945 202.518 91.1976C 203.03 90.6007 203.499 90.0465 203.926 89.5349C 204.352 89.0232 204.715 88.5756 205.014 88.1918C 205.312 87.8081 205.504 87.6163 205.59 87.6163C 205.846 88.0426 206.401 88.5116 207.254 89.0232C 208.107 89.5349 209.089 90.0252 210.198 90.4942C 211.308 90.9632 212.503 91.3682 213.783 91.7093C 215.063 92.0504 216.3 92.2209 217.495 92.2209C 218.519 92.2209 219.607 92.0717 220.759 91.7732C 221.912 91.4748 222.978 90.9845 223.96 90.3023C 224.941 89.6201 225.731 88.7674 226.328 87.7442C 226.925 86.7209 227.224 85.4845 227.224 84.0349C 227.224 82.0736 226.627 80.5174 225.432 79.3663C 224.237 78.2151 222.744 77.2132 220.951 76.3604C 219.159 75.5077 217.196 74.719 215.063 73.9942C 212.929 73.2693 210.966 72.3527 209.174 71.2442C 207.382 70.1356 205.889 68.686 204.694 66.8953C 203.499 65.1046 202.902 62.8023 202.902 59.9883C 202.902 57.4302 203.371 55.2771 204.31 53.529C 205.248 51.781 206.443 50.3314 207.894 49.1802C 209.345 48.029 210.988 47.1977 212.823 46.686C 214.657 46.1744 216.428 45.9186 218.135 45.9186C 220.354 45.9186 222.786 46.3876 225.432 47.3256C 228.078 48.2635 230.382 49.7131 232.345 51.6744ZM 251.803 24.4302L 258.843 24.4302L 258.843 47.3255L 274.077 47.3255L 274.077 53.7209L 258.843 53.7209L 258.843 97.9767L 251.803 97.9767L 251.803 53.7209L 241.562 53.7209L 241.562 47.3255L 251.803 47.3255L 251.803 24.4302ZM 279.198 72.6511C 279.198 68.9844 279.902 65.5096 281.31 62.2267C 282.718 58.9437 284.638 56.0658 287.07 53.593C 289.503 51.1201 292.34 49.1802 295.583 47.7732C 298.826 46.3662 302.283 45.6627 305.952 45.6627C 308.513 45.6627 310.902 46.0038 313.121 46.686C 315.34 47.3681 317.324 48.2848 319.074 49.436C 320.823 50.5871 322.296 51.8662 323.49 53.2732C 324.685 54.6802 325.581 56.0658 326.179 57.4302L 326.691 46.8139L 333.219 46.8139L 333.219 97.9767L 326.179 97.9767L 326.179 92.7325C 326.179 91.7945 326.2 90.8992 326.243 90.0464C 326.285 89.1937 326.307 88.3837 326.307 87.6162C 325.709 89.0658 324.813 90.4515 323.618 91.7732C 322.424 93.0949 320.951 94.31 319.202 95.4185C 317.452 96.5271 315.468 97.4011 313.249 98.0406C 311.03 98.6802 308.598 98.9999 305.952 98.9999C 302.112 98.9999 298.549 98.2964 295.263 96.8895C 291.978 95.4825 289.161 93.5852 286.814 91.1976C 284.468 88.81 282.611 86.0174 281.246 82.8197C 279.88 79.622 279.198 76.2325 279.198 72.6511ZM 286.238 72.2674C 286.238 75.0813 286.75 77.6821 287.775 80.0697C 288.799 82.4573 290.207 84.5464 291.999 86.3371C 293.791 88.1278 295.903 89.5348 298.336 90.5581C 300.768 91.5813 303.392 92.093 306.208 92.093C 309.025 92.093 311.649 91.5813 314.081 90.5581C 316.514 89.5348 318.626 88.1278 320.418 86.3371C 322.21 84.5464 323.618 82.4573 324.642 80.0697C 325.667 77.6821 326.179 75.0813 326.179 72.2674C 326.179 69.5387 325.667 66.9806 324.642 64.593C 323.618 62.2053 322.21 60.1162 320.418 58.3255C 318.626 56.5348 316.514 55.1278 314.081 54.1046C 311.649 53.0813 309.025 52.5697 306.208 52.5697C 303.392 52.5697 300.768 53.0813 298.336 54.1046C 295.903 55.1278 293.791 56.5135 291.999 58.2616C 290.207 60.0096 288.799 62.0774 287.775 64.4651C 286.75 66.8527 286.238 69.4534 286.238 72.2674ZM 354.726 24.4302L 361.766 24.4302L 361.766 47.3255L 377 47.3255L 377 53.7209L 361.766 53.7209L 361.766 97.9767L 354.726 97.9767L 354.726 53.7209L 344.485 53.7209L 344.485 47.3255L 354.726 47.3255L 354.726 24.4302Z" transform="translate(457 73)" fill="black"/>
</g>
</g>
</g>
<defs>

<linearGradient id="paint0_linear" x2="1" gradientUnits="userSpaceOnUse" gradientTransform="matrix(-61.3066 -17.2882 27.0201 -39.2257 123.579 69.8141)">
<stop stopColor="#FFF212"/>
<stop offset="1" stopColor="#D4AB3B"/>
</linearGradient>
<linearGradient id="paint1_linear" x2="1" gradientUnits="userSpaceOnUse" gradientTransform="translate(63.2809 53.665) scale(-39.5164 -45.545)">
<stop stopColor="#8CC64B"/>
<stop offset="1" stopColor="#00A859"/>
</linearGradient>
<linearGradient id="paint2_linear" x2="1" gradientUnits="userSpaceOnUse" gradientTransform="matrix(-120.829 -61.6563 76.3228 -97.6099 126.858 91.9191)">
<stop stopColor="#FFF688"/>
<stop offset="0.3804" stopColor="#F8AD65"/>
<stop offset="1" stopColor="#F16442"/>
</linearGradient>
<linearGradient id="paint3_linear" x2="1" gradientUnits="userSpaceOnUse" gradientTransform="matrix(-73.2176 23.6454 -28.5754 -60.5857 115.89 53.1721)">
<stop stopColor="#8CC64B"/>
<stop offset="1" stopColor="#00A65D"/>
</linearGradient>
<linearGradient id="paint4_linear" x2="1" gradientUnits="userSpaceOnUse" gradientTransform="matrix(-58.8946 -9.51099 7.21752 -77.6092 70.5262 62.4124)">
<stop stopColor="#3566A3"/>
<stop offset="0.3098" stopColor="#378E9D"/>
<stop offset="1" stopColor="#39B697"/>
</linearGradient>
<linearGradient id="paint5_linear" x2="1" gradientUnits="userSpaceOnUse" gradientTransform="matrix(-70.3431 2.46031 -4.26888 -40.5413 121.565 49.7501)">
<stop stopColor="#3566A3"/>
<stop offset="1" stopColor="#00AC8F"/>
</linearGradient>
<linearGradient id="paint6_linear" x2="1" gradientUnits="userSpaceOnUse" gradientTransform="matrix(-88.9449 -37.466 49.3425 -67.5363 141.125 71.812)">
<stop stopColor="#9A4272"/>
<stop offset="0.3804" stopColor="#517595"/>
<stop offset="1" stopColor="#08A8B8"/>
</linearGradient>
<linearGradient id="paint7_linear" x2="1" gradientUnits="userSpaceOnUse" gradientTransform="matrix(74.308 -51.4518 36.1492 105.764 17.8464 103.711)">
<stop stopColor="#F37335"/>
<stop offset="0.4118" stopColor="#F05336"/>
<stop offset="1" stopColor="#ED3237"/>
</linearGradient>

<clipPath id="clip0">
<rect width="872" height="240" fill="white"/>
</clipPath>

</defs>
</svg>

