<svg width="250" height="135" viewBox="0 0 250 135" version="1.1" xmlns="http://www.w3.org/2000/svg" xmlns:xlink="http://www.w3.org/1999/xlink">
<g id="Canvas" fill="none">
<g id="rs-logo-square" clip-path="url(#clip0)">
<rect width="500" height="270" fill="white" transform="scale(0.5)"/>
<g id="Group">
<g id="_31878048">
<path fill-rule="evenodd" clip-rule="evenodd" d="M 96.4112 75.9289C 112.08 85.7608 121.034 80.8093 127.486 77.0708C 113.673 84.6631 102.673 77.4246 97.6152 73.5803L 93.3831 70.3046L 92.714 73.4065L 96.4112 75.9289L 96.4112 75.9289ZM 51.1091 4.65427C 49.3591 3.44601 47.486 2.42097 45.4915 1.63915C 42.2819 0.381933 39.0155 -0.142435 35.7759 0.032881C 33.674 0.146599 31.5974 0.550932 29.565 1.23798L 29.5634 1.23798C 9.21065 10.7382 8.15498 41.8149 0 59.4602L 1.10458 57.189C 1.75629 55.826 2.38274 54.4929 2.99027 53.1868C 7.86621 43.3912 12.5986 35.4767 17.2331 29.4465C 33.7892 7.90314 49.1066 10.4081 65.2635 37.1335C 65.3693 37.312 65.4813 37.492 65.5854 37.6689C 68.8345 43.1906 72.134 48.5906 75.6577 53.6764L 75.6577 53.6764C 76.8238 55.5796 78.0215 57.3849 79.2476 59.0922L 83.6769 65.6105L 85.3717 59.8282C 73.2449 43.7766 65.2588 16.2535 51.1091 4.65427L 51.1091 4.65427L 51.1091 4.65427Z" transform="translate(115.13 10.7884) scale(0.5)" fill="url(#paint0_linear)"/>
</g>
<g id="_31877928">
<path fill-rule="evenodd" clip-rule="evenodd" d="M 45.8984 55.2955C 50.0122 63.1468 55.5888 69.8578 63.8826 73.7321C 62.9627 73.5173 62.0427 73.2457 61.1243 72.9124C 59.8572 72.4496 58.5901 71.8763 57.3293 71.1814C 54.9245 69.861 52.5307 68.1015 50.1842 65.884C 48.1849 63.995 46.214 61.7712 44.2936 59.1999C 44.0317 58.854 43.7776 58.5033 43.5299 58.1511L 40.3519 52.6184L 42.6194 48.6619L 45.8984 55.2955L 45.8984 55.2955L 45.8984 55.2955ZM 12.0461 65.2096L 12.0445 65.2111C -3.5522 54.2705 -4.06346 10.1414 10.8721 1.65517C 12.6015 0.674347 14.4572 0.123129 16.3745 0.0188871C 18.2728 -0.0853548 20.1932 0.241586 22.0678 1.00761C 31.6761 6.05228 34.4376 24.0735 40.1088 41.2165L 37.2448 46.3054L 35.8704 42.1231C 34.9552 39.4966 34.1141 36.8273 33.2746 34.1613C 32.2047 30.7687 31.138 27.3776 29.9372 24.1446C 21.4003 4.33861 12.0777 13.3824 7.53309 26.9228C 5.22766 33.7869 4.14833 41.8009 5.02095 47.8091C 6.21863 56.0568 8.77495 62.0049 12.0461 65.2096L 12.0461 65.2096L 12.0461 65.2096Z" transform="translate(64.0484 19.6812) scale(0.5)" fill="url(#paint1_linear)"/>
</g>
<g id="_31877688">
<path fill-rule="evenodd" clip-rule="evenodd" d="M 16.7628 21.736C 15.1628 18.9657 13.558 16.1875 11.2857 12.3653C 11.232 12.2642 11.1752 12.16 11.1121 12.0605C 9.89076 10.1273 8.61259 8.37094 7.29498 6.78362L 7.29183 6.78362C 6.49653 5.82807 5.68545 4.93254 4.86175 4.10176C 3.36267 2.58867 1.74209 1.2051 0 0C 14.1513 11.5977 22.1359 39.1239 34.2642 55.174L 36.4781 51.2491C 28.3215 42.6223 22.6803 31.9612 16.7628 21.736L 16.7628 21.736L 16.7628 21.736ZM 54.5412 73.7211L 54.4481 73.6816C 51.8823 72.5255 49.4948 71.1135 47.2588 69.4883L 47.2257 69.4598L 47 69.2972L 46.9842 69.283L 46.7507 69.1092L 46.746 69.1045L 46.5093 68.926L 42.2771 65.6503L 42.2771 65.6534L 41.7248 65.2254L 45.5562 59.4526L 49.8341 62.4488C 50.2128 62.6494 50.5931 62.8389 50.9734 63.0269C 65.8994 70.3301 81.4031 65.6345 90.9072 41.752C 92.5041 37.7356 94.9816 37.8777 92.7266 45.8617C 89.2787 58.8398 83.4544 67.6372 76.3819 72.4149L 76.3598 72.4292C 74.6556 73.5806 72.8773 74.4966 71.0436 75.1805C 73.0114 74.3529 74.7629 73.3563 76.3598 72.4292L 76.3788 72.4181C 67.7457 77.1595 60.214 76.1124 54.5412 73.7211L 54.5412 73.7211L 54.5412 73.7211Z" transform="translate(140.684 13.1155) scale(0.5)" fill="url(#paint2_linear)"/>
</g>
<g id="_31877568">
<path fill-rule="evenodd" clip-rule="evenodd" d="M 18.0394 57.7658L 20.2912 54.1805L 19.0904 50.2272L 18.699 48.9921L 18.5112 48.3982C 16.1806 41.005 13.8515 33.6243 10.0438 27.2135L 10.0422 27.2182C 7.85832 23.3897 5.24835 20.6067 2.48689 18.8488L 2.48689 18.8473L 2.48531 18.8473C 1.66792 18.3292 0.836327 17.8964 0 17.5569C 9.60672 22.6015 12.3698 40.6228 18.0394 57.7658L 18.0394 57.7658L 18.0394 57.7658ZM 109.66 0C 89.3055 9.50181 88.2499 40.5769 80.0949 58.2238L 79.3422 59.7669L 73.0145 53.6372L 74.9822 50.1009C 76.4987 47.3132 78.0388 44.336 79.5694 41.1455C 80.2637 39.5851 80.9312 38.0704 81.5735 36.6079C 84.7578 29.3757 87.4167 23.3297 90.3628 18.3529L 90.4022 18.2897C 93.6876 12.0778 97.7256 7.25429 102.183 3.95961C 102.766 3.53001 103.356 3.12568 103.952 2.74662C 105.799 1.57784 107.706 0.658619 109.66 0L 109.66 0L 109.66 0ZM 63.0149 68.0431C 52.9316 78.84 41.8038 80.2868 32.0266 71.5605C 30.5891 70.2764 29.1815 68.7744 27.8087 67.0497L 24.5154 61.6322L 21.1733 66.2726L 23.8306 71.8464C 27.9444 79.6961 33.521 86.4071 41.8148 90.283C 44.1597 90.8279 46.503 90.989 48.821 90.7805C 53.2741 90.3809 57.5456 88.6372 61.4874 85.6789C 65.0773 82.9892 68.3958 79.2949 71.323 74.7114L 73.6521 70.7297L 66.4723 63.9177L 63.0149 68.0431L 63.0149 68.0431L 63.0149 68.0431Z" transform="translate(75.0831 11.4074) scale(0.5)" fill="url(#paint3_linear)"/>
</g>
<g id="_31877448">
<path fill-rule="evenodd" clip-rule="evenodd" d="M 23.1479 74.6846C 34.1243 69.9826 37.9983 54.419 44.1113 40.8913C 45.6057 37.5839 47.2373 34.3998 49.1356 31.5237C 51.3401 28.188 53.9058 25.2692 57.0508 23.0643C 55.3592 24.0388 53.7402 25.1965 52.2158 26.5359C 50.944 27.6494 49.7589 28.9098 48.6401 30.2665C 46.6361 32.7035 44.8562 35.4549 43.2056 38.2441C 41.7097 40.7728 40.3179 43.3346 38.9703 45.7211C 36.3666 50.3172 33.8072 54.8312 31.153 58.5871C 25.5638 65.8572 19.6669 66.6722 15.1413 62.2387L 15.1397 62.2403C 5.07379 52.7559 2.73365 38.0467 4.12385 24.4653C 4.90652 16.7972 7.0289 5.93547 12.091 0C 8.05459 3.31679 5.12271 10.6485 3.7262 15.4357C 0.885839 25.1776 0.0179524 36.0945 0.000594665 40.5738C -0.0372768 50.0108 1.73163 59.1336 5.91169 66.8159L 5.91169 66.8159L 5.91169 66.8159C 6.17364 67.296 6.44032 67.7699 6.71962 68.2358L 6.7212 68.2342C 6.78747 68.3479 6.86321 68.4569 6.94369 68.5659C 9.81245 72.4039 13.1893 74.5819 17.0427 75.1442C 19.0152 75.4332 21.0508 75.2769 23.1479 74.6846L 23.1479 74.6846L 23.1479 74.6846Z" transform="translate(62.5 21.1666) scale(0.5)" fill="url(#paint4_linear)"/>
</g>
<g id="_31877328">
<path fill-rule="evenodd" clip-rule="evenodd" d="M 59.6128 2.44696C 78.8152 13.0275 83.5097 59.0456 118.706 68.5111C 116.19 68.0135 113.846 67.3154 111.647 66.442C 105.903 64.1645 101.139 60.6929 96.8515 56.4601L 96.853 56.468L 96.8436 56.4569C 92.8324 52.4957 89.2377 47.868 85.6462 42.9212C 82.1416 38.8432 78.8262 35.1821 75.6687 31.9474L 68.4889 25.1354C 53.0689 11.8082 41.1457 10.8305 27.5594 25.1638L 21.3658 32.5808C 21.036 33.0167 20.7078 33.4652 20.3748 33.9217L 20.3748 33.9185C 17.7696 38.4515 15.1423 42.7759 12.2593 46.4023C 11.0127 47.9707 9.72033 49.4064 8.35696 50.6746L 8.35696 50.6778L 8.35696 50.6778C 7.59796 51.3854 6.82001 52.0361 6.01998 52.63C 5.88585 52.7279 5.75015 52.8179 5.60971 52.8985C 3.69247 54.0672 1.82256 54.9106 0 55.4255C 16.7723 48.2407 16.9632 15.6809 33.9028 3.80526C 35.6465 2.79917 37.4706 1.99524 39.3405 1.38717L 39.3421 1.38717L 39.3421 1.38717C 41.6302 0.640099 43.9829 0.196281 46.3673 0.0509745C 50.8203 -0.217527 55.3444 0.573763 59.6128 2.44696L 59.6128 2.44696L 59.6128 2.44696Z" transform="translate(74.0748 30.7977) scale(0.5)" fill="url(#paint5_linear)"/>
</g>
<g id="_31877160">
<path fill-rule="evenodd" clip-rule="evenodd" d="M 123.956 0C 119.423 15.8795 119.544 31.9391 116.147 46.634C 111.648 66.0736 101.915 83.0776 76.3409 93.5634C 73.6473 94.0467 70.9442 94.271 68.2648 94.252C 64.9653 94.2284 61.9198 93.9219 59.0936 93.3612C 23.8969 83.8973 19.2024 37.8777 0 27.2972C 1.6695 28.03 3.29797 28.9271 4.86806 29.9917C 6.94152 31.3958 8.90768 33.0873 10.7145 35.0695C 12.2625 36.5968 13.8325 38.1462 15.4184 39.7067L 21.7508 45.8317L 21.7461 45.8364C 24.8721 48.8136 28.0548 51.7466 31.2692 54.5264C 44.125 65.6424 57.5456 74.3324 70.3856 73.8001C 79.3012 73.4353 87.8286 69.1266 95.4455 61.5454C 99.018 57.9885 102.395 53.713 105.515 48.782L 109.84 41.2087C 112.907 35.2606 115.655 28.6033 118.014 21.3096C 118.378 19.9386 118.736 18.5882 119.088 17.2678C 120.898 10.4542 122.497 4.4445 123.956 0L 123.956 0L 123.956 0Z" transform="translate(103.881 18.3734) scale(0.5)" fill="url(#paint6_linear)"/>
</g>
<g id="_31877136">
<path fill-rule="evenodd" clip-rule="evenodd" d="M 43.4764 79.516C 47.546 69.2056 50.6089 58.058 53.0468 47.2484C 55.4485 39.7999 58.4624 34.8958 61.762 31.7827C 61.7699 36.3836 64.1258 40.6212 68.6136 43.7626C 61.994 34.2213 66.4565 27.2624 73.4343 27.005C 74.4537 26.9908 75.4651 27.0524 76.464 27.1803C 77.657 27.1424 78.7552 26.9671 79.8204 26.5769C 83.3866 25.3576 85.3338 22.7926 86.5141 19.5959C 83.7195 19.4048 80.9313 18.4429 78.1367 16.7656C 78.0104 16.6866 77.8842 16.6092 77.7548 16.5318L 77.7516 16.5302C 77.5891 16.4355 77.4313 16.3391 77.2704 16.2491C 75.9117 15.3472 74.6935 14.3285 73.7925 13.3098L 70.9742 13.046L 64.6907 12.4158C 58.1295 10.8806 53.607 9.33281 45.4426 0C 45.1727 5.04626 46.7996 9.92351 52.2121 14.4517C 49.0009 14.0253 45.7187 12.8139 42.0073 10.0309C 43.5017 14.5575 46.6702 18.2502 53.2677 20.2198C 51.0381 22.6063 49.1477 25.634 47.7622 29.2746C 47.7006 29.4325 47.6549 29.5873 47.617 29.7468C 37.0856 66.6311 44.9092 104.899 0 123.31C 2.61629 122.841 5.22626 122.129 7.79678 121.159L 7.79994 121.159L 7.80309 121.158C 10.5977 120.102 13.3544 118.744 16.0291 117.064L 16.0291 117.064L 16.0938 117.024C 26.1439 110.819 33.7229 100.551 39.5725 88.4587L 43.4764 79.516L 43.4764 79.516L 43.4764 79.516Z" transform="translate(142.052 3.5) scale(0.5)" fill="url(#paint7_linear)"/>
</g>
</g>
<g id="rockstat">
<path d="M 25.9285 50.22C 27.4685 46.7733 29.9985 44.0233 33.5185 41.97C 37.0385 39.9167 40.5585 38.8533 44.0785 38.78L 43.8585 43.84C 40.6318 43.84 37.6618 44.5733 34.9485 46.04C 32.2351 47.4333 30.0718 49.4133 28.4585 51.98C 26.9185 54.4733 26.1485 57.2233 26.1485 60.23L 26.1485 83L 20.9785 83L 20.9785 39.99L 25.4885 39.99L 25.9285 50.22ZM 52.6774 61.22C 52.6774 57.1133 53.6674 53.3367 55.6474 49.89C 57.7007 46.37 60.4874 43.62 64.0074 41.64C 67.5274 39.5867 71.414 38.56 75.6674 38.56C 79.9207 38.56 83.8074 39.5867 87.3274 41.64C 90.8474 43.62 93.5974 46.37 95.5774 49.89C 97.5574 53.3367 98.5474 57.1133 98.5474 61.22C 98.5474 65.4 97.5207 69.2133 95.4674 72.66C 93.4874 76.1067 90.7374 78.8567 87.2174 80.91C 83.7707 82.89 79.884 83.88 75.5574 83.88C 71.2307 83.88 67.3074 82.9267 63.7874 81.02C 60.3407 79.04 57.6274 76.3267 55.6474 72.88C 53.6674 69.4333 52.6774 65.5467 52.6774 61.22ZM 57.8474 61.33C 57.8474 64.63 58.6174 67.6733 60.1574 70.46C 61.7707 73.2467 63.934 75.4467 66.6474 77.06C 69.3607 78.6733 72.3307 79.48 75.5574 79.48C 78.784 79.48 81.754 78.6733 84.4674 77.06C 87.1807 75.4467 89.3074 73.2467 90.8474 70.46C 92.4607 67.6733 93.2674 64.63 93.2674 61.33C 93.2674 58.03 92.4607 54.9867 90.8474 52.2C 89.3074 49.34 87.1807 47.1033 84.4674 45.49C 81.754 43.8767 78.784 43.07 75.5574 43.07C 72.2574 43.07 69.2507 43.95 66.5374 45.71C 63.824 47.3967 61.6974 49.6333 60.1574 52.42C 58.6174 55.2067 57.8474 58.1767 57.8474 61.33ZM 147.118 78.82C 145.138 80.4333 142.865 81.68 140.298 82.56C 137.805 83.44 135.238 83.88 132.598 83.88C 128.272 83.88 124.348 82.9267 120.828 81.02C 117.382 79.04 114.668 76.3633 112.688 72.99C 110.708 69.5433 109.718 65.6933 109.718 61.44C 109.718 57.1867 110.708 53.3733 112.688 50C 114.742 46.5533 117.492 43.8767 120.938 41.97C 124.385 39.99 128.125 39 132.158 39C 138.098 39 143.122 40.6867 147.228 44.06L 144.478 47.58C 140.812 44.72 136.815 43.29 132.488 43.29C 129.262 43.29 126.292 44.0967 123.578 45.71C 120.938 47.3233 118.812 49.5233 117.198 52.31C 115.658 55.0967 114.888 58.14 114.888 61.44C 114.888 64.74 115.658 67.7833 117.198 70.57C 118.812 73.2833 120.975 75.4467 123.688 77.06C 126.475 78.6733 129.555 79.48 132.928 79.48C 137.035 79.48 140.812 78.1967 144.258 75.63L 147.118 78.82ZM 173.916 59.46L 166.656 65.84L 166.656 83L 161.486 83L 161.486 -0.599999L 166.656 -0.599999L 166.656 60.23L 190.746 39.11L 193.936 41.86L 177.436 56.38L 196.576 83L 190.526 83L 173.916 59.46ZM 221.235 83.88C 218.449 83.88 215.735 83.4033 213.095 82.45C 210.529 81.4967 208.439 80.03 206.825 78.05L 209.245 74.64C 210.712 76.18 212.472 77.4267 214.525 78.38C 216.579 79.26 218.705 79.7 220.905 79.7C 223.692 79.7 226.039 79.0767 227.945 77.83C 229.852 76.51 230.805 74.4933 230.805 71.78C 230.805 69.8733 230.292 68.37 229.265 67.27C 228.239 66.0967 227.065 65.2533 225.745 64.74C 224.425 64.1533 222.299 63.3833 219.365 62.43C 215.919 61.2567 213.242 59.79 211.335 58.03C 209.502 56.1967 208.585 53.7767 208.585 50.77C 208.585 47.25 209.795 44.4267 212.215 42.3C 214.709 40.1 217.862 39 221.675 39C 226.955 39 231.245 40.6133 234.545 43.84L 232.235 47.47C 231.135 46.0033 229.669 44.94 227.835 44.28C 226.075 43.62 224.279 43.2533 222.445 43.18C 220.245 43.18 218.229 43.8033 216.395 45.05C 214.635 46.2233 213.755 47.91 213.755 50.11C 213.755 52.3833 214.562 54.1067 216.175 55.28C 217.789 56.38 220.245 57.5167 223.545 58.69C 227.579 60.01 230.659 61.5133 232.785 63.2C 234.912 64.8133 235.975 67.3067 235.975 70.68C 235.975 74.64 234.692 77.83 232.125 80.25C 229.632 82.67 226.002 83.88 221.235 83.88ZM 261.183 21.07L 261.183 40.54L 274.493 40.54L 274.493 44.72L 261.183 44.72L 261.183 83L 255.903 83L 255.903 44.72L 246.773 44.72L 246.773 40.54L 255.903 40.54L 255.903 21.07L 261.183 21.07ZM 329.295 39.99L 329.295 83L 324.125 83L 324.125 73.87C 322.438 76.6567 319.871 79.04 316.425 81.02C 312.978 82.9267 309.238 83.88 305.205 83.88C 301.098 83.88 297.358 82.9633 293.985 81.13C 290.685 79.2233 288.045 76.5833 286.065 73.21C 284.158 69.7633 283.205 65.84 283.205 61.44C 283.205 56.7467 284.195 52.7133 286.175 49.34C 288.228 45.8933 291.015 43.2533 294.535 41.42C 298.128 39.5867 302.161 38.67 306.635 38.67C 310.155 38.67 313.528 39.66 316.755 41.64C 319.981 43.62 322.438 46.1867 324.125 49.34L 324.675 39.99L 329.295 39.99ZM 306.305 79.48C 311.145 79.48 315.251 77.9767 318.625 74.97C 321.998 71.9633 323.831 68.1133 324.125 63.42L 324.125 57.26C 323.245 53.2267 321.118 49.8533 317.745 47.14C 314.371 44.4267 310.521 43.07 306.195 43.07C 302.895 43.07 299.888 43.84 297.175 45.38C 294.461 46.8467 292.298 48.9733 290.685 51.76C 289.145 54.4733 288.375 57.6267 288.375 61.22C 288.375 64.52 289.181 67.5633 290.795 70.35C 292.408 73.1367 294.571 75.3733 297.285 77.06C 300.071 78.6733 303.078 79.48 306.305 79.48ZM 358.4 21.07L 358.4 40.54L 371.71 40.54L 371.71 44.72L 358.4 44.72L 358.4 83L 353.12 83L 353.12 44.72L 343.99 44.72L 343.99 40.54L 353.12 40.54L 353.12 21.07L 358.4 21.07Z" transform="translate(28.5 83) scale(0.5)" fill="black"/>
</g>
</g>
</g>
<defs>

<linearGradient id="paint0_linear" x2="1" gradientUnits="userSpaceOnUse" gradientTransform="matrix(-42.1623 -11.9063 18.5825 -27.0146 84.9885 48.0807)">
<stop stopColor="#FFF212"/>
<stop offset="1" stopColor="#D4AB3B"/>
</linearGradient>
<linearGradient id="paint1_linear" x2="1" gradientUnits="userSpaceOnUse" gradientTransform="translate(43.5201 36.9589) scale(-27.1765 -31.3667)">
<stop stopColor="#8CC64B"/>
<stop offset="1" stopColor="#00A859"/>
</linearGradient>
<linearGradient id="paint2_linear" x2="1" gradientUnits="userSpaceOnUse" gradientTransform="matrix(-83.0975 -42.4625 52.4894 -67.2236 87.2441 63.3044)">
<stop stopColor="#FFF688"/>
<stop offset="0.3804" stopColor="#F8AD65"/>
<stop offset="1" stopColor="#F16442"/>
</linearGradient>
<linearGradient id="paint3_linear" x2="1" gradientUnits="userSpaceOnUse" gradientTransform="matrix(-50.3538 16.2845 -19.6521 -41.7251 79.7007 36.6194)">
<stop stopColor="#8CC64B"/>
<stop offset="1" stopColor="#00A65D"/>
</linearGradient>
<linearGradient id="paint4_linear" x2="1" gradientUnits="userSpaceOnUse" gradientTransform="matrix(-40.5035 -6.55018 4.9637 -53.4491 48.5029 42.9832)">
<stop stopColor="#3566A3"/>
<stop offset="0.3098" stopColor="#378E9D"/>
<stop offset="1" stopColor="#39B697"/>
</linearGradient>
<linearGradient id="paint5_linear" x2="1" gradientUnits="userSpaceOnUse" gradientTransform="matrix(-48.377 1.6944 -2.93583 -27.9206 83.6034 34.2627)">
<stop stopColor="#3566A3"/>
<stop offset="1" stopColor="#00AC8F"/>
</linearGradient>
<linearGradient id="paint6_linear" x2="1" gradientUnits="userSpaceOnUse" gradientTransform="matrix(-61.1699 -25.8027 33.9343 -46.512 97.056 49.4566)">
<stop stopColor="#9A4272"/>
<stop offset="0.3804" stopColor="#517595"/>
<stop offset="1" stopColor="#08A8B8"/>
</linearGradient>
<linearGradient id="paint7_linear" x2="1" gradientUnits="userSpaceOnUse" gradientTransform="matrix(51.1037 -35.4347 24.8609 72.8391 12.2735 71.4251)">
<stop stopColor="#F37335"/>
<stop offset="0.4118" stopColor="#F05336"/>
<stop offset="1" stopColor="#ED3237"/>
</linearGradient>

<clipPath id="clip0">
<rect width="500" height="270" fill="white" transform="scale(0.5)"/>
</clipPath>

</defs>
</svg>

