<svg id="deb96ea7-4481-489d-a79f-95481b74a8ce" data-name="Слой 1" xmlns="http://www.w3.org/2000/svg" xmlns:xlink="http://www.w3.org/1999/xlink" viewBox="0 0 379.3 307"><defs><linearGradient id="80a29584-b6e1-4918-9bd3-482c563dc9a6" x1="-493.19" y1="540.23" x2="-492.19" y2="540.23" gradientTransform="matrix(0, 307, 1064, 0, -574806.08, 151409.31)" gradientUnits="userSpaceOnUse"><stop offset="0" stop-color="#087d85"/><stop offset="1" stop-color="#03464b" stop-opacity="0"/></linearGradient><linearGradient id="2b117201-567a-48d4-b504-38e4187768ce" x1="-493.19" y1="540.41" x2="-492.19" y2="540.41" xlink:href="#80a29584-b6e1-4918-9bd3-482c563dc9a6"/><linearGradient id="7d6bd96c-422c-41c7-b903-b79f544d2af5" x1="-492.9" y1="540.41" x2="-491.9" y2="540.41" gradientTransform="matrix(0, 221.6, 1064, 0, -574806.08, 109312.43)" gradientUnits="userSpaceOnUse"><stop offset="0" stop-color="#00f0ff"/><stop offset="1" stop-color="#004b50" stop-opacity="0"/></linearGradient><linearGradient id="c28766eb-c4a5-46ae-9b75-222be6f8ed4d" x1="-491.82" y1="540.51" x2="-490.82" y2="540.51" gradientTransform="matrix(0, 107.86, 728.62, 0, -393636.96, 53247.77)" gradientUnits="userSpaceOnUse"><stop offset="0" stop-color="#8c00ff"/><stop offset="1" stop-color="#510094" stop-opacity="0"/></linearGradient><linearGradient id="a16e808b-1295-42db-9a70-802e49dc8d82" x1="-485.74" y1="541.11" x2="-484.74" y2="541.11" gradientTransform="matrix(0, 27.79, 299.66, 0, -161936.7, 13778.95)" gradientUnits="userSpaceOnUse"><stop offset="0" stop-color="#d900ff" stop-opacity="0.25"/><stop offset="1" stop-color="#9d06b8" stop-opacity="0"/></linearGradient></defs><title>todo_res</title><path d="M1.07,193l-.74-5.23A39.86,39.86,0,0,1,0,192.1,4.48,4.48,0,0,1,1.07,193Z" fill="url(#80a29584-b6e1-4918-9bd3-482c563dc9a6)"/><path d="M368.51,141.63l-12.17,24.58L348.22,162,335.34,210.1l-12.86-32.53-8.77,4.74-12.17,40-10.15-56.08-12.17,64.22-10.15-53.56-10.84,12.88-12.17-105-12.17,95.57-7.44-84.71L215,69.16,200.72,204l-8.08-16.24-12.17,10.81L168.94,27.79,156.77,158.56,145.29,162l-10.84-28.43L125,65.06,112.81,98.93l-11.48-6.07-10.84,42L80.34,0,74.28,96.26,69.5,85.4,57.33,218.88,45.84,162.31l-3.4,11.16L35.69,155.2,24.21,178.26l-11.53,8.1L2.53,203.28l-.46-3.22c-.09,17.42-.62,34.83-.84,52.25-.12,9.56-.09,19-.93,28.56l-.06.68c.65,8.46.25,17,.05,25.45h379V115.4Z" fill="url(#2b117201-567a-48d4-b504-38e4187768ce)"/><path d="M4.35,261.39l21.19-48.57,10.84,2.72,10.79-54.89,11.53,77.21L68.86,185,74.92,96.9l12.17,24.39,6.11,44.92,8.13-80.81,12.81,112.5H127l8.13,40.63L148,249.39l12.86-61,8.77-22.16,11.48,33h10.15L201.41,206,213,172.83,221,183l14.88,3.36L246.06,206l10.84-15.55,4,7.45h8.82l9.46,45.37,11.48-51.49,8.82,27.79,4,19.65,8.77-23.05,12.86-34.56L336,252.11l10.8-44.72,10.84,23.69h10.84l10.79,19.18V307H2.77" fill="url(#7d6bd96c-422c-41c7-b903-b79f544d2af5)"/><path d="M354.86,304.14l-8.13-7.45-21.63,2L317,304.14H293.32l-13.5-7.45L269,304.14,235.91,287.2l-11.48,10.86s-12.81-28.48-13.5-30.51S192,304.14,192,304.14l-23.65-64.37-18.92,55.58-13.5.69-10.79,8.15H104.19L81.87,293.33,69,278.42,58.21,296.73l-12.86,7.45L25.74,293.33,19,304.19H2.78l-2.41-.36q0,1.56-.08,3.12H378.52v-2.81Z" fill="url(#c28766eb-c4a5-46ae-9b75-222be6f8ed4d)"/><path d="M60,307l8.13-6.81h25L114.14,307l13.55-6.81,10.15-3.36L156.08,307l12.86-27.79L191.26,307l22.32-27.79,12.86,21.67,8.77-7.8L271.78,307l7.44-9.53L292.08,307h22.32l10.1-7.45,22.32-1.38L359.69,307Z" fill="url(#a16e808b-1295-42db-9a70-802e49dc8d82)"/></svg>