<svg id="262d443d-76ae-4bff-80c5-a91ef8b4f893" data-name="Слой 1" xmlns="http://www.w3.org/2000/svg" viewBox="0 0 332 288"><title>todo_fix</title><path d="M229.39,287.5h0a101.57,101.57,0,0,1-68.87-27,100.28,100.28,0,0,1-23.21-31.68l13.84-6.58a86.95,86.95,0,0,0,78.35,49.88h.11a85.82,85.82,0,0,0,38.69-9.1,86.92,86.92,0,0,0,36.51-34.53A87.2,87.2,0,0,0,229.72,98V82.61a101.52,101.52,0,0,1,77.7,36.29A103.17,103.17,0,0,1,318,236.2a106.53,106.53,0,0,1-18.42,23.46,102.66,102.66,0,0,1-24.41,17.21A103.86,103.86,0,0,1,229.39,287.5Z" fill="#fe2bf5" stroke="#131313" stroke-linejoin="bevel"/><path d="M137.31,228.85a103,103,0,0,1,9.26-103.6A101.81,101.81,0,0,1,191.14,90a100.63,100.63,0,0,1,38.14-7.45h.11V97.85h-.11a84.47,84.47,0,0,0-32.47,6.36,87.32,87.32,0,0,0-37.92,30A86.84,86.84,0,0,0,142.65,185a88.25,88.25,0,0,0,8.28,37.38Z" fill="#8c57b8" stroke="#131313" stroke-linejoin="bevel"/><path d="M218.62,173.4v0h-4.55v-.94h5.6v1l-3.76,7.48h-1.11Zm2.2,1.48a2.41,2.41,0,0,1,.8-1.85,3.07,3.07,0,0,1,3.91-.06,2.09,2.09,0,0,1,.79,1.65,2.61,2.61,0,0,1-.39,1.36,10.59,10.59,0,0,1-1.45,1.75l-2.14,2.21v0h4.12v.94h-5.58v-.73l3-3.13a9.44,9.44,0,0,0,1.13-1.36,1.9,1.9,0,0,0,.28-1,1.33,1.33,0,0,0-.49-1,1.75,1.75,0,0,0-1.19-.43,1.73,1.73,0,0,0-1.24.47,1.57,1.57,0,0,0-.5,1.18h-1ZM228.5,181a.66.66,0,0,1-.67-.67.63.63,0,0,1,.19-.47.65.65,0,0,1,.47-.19.66.66,0,0,1,.67.67.65.65,0,0,1-.19.47A.63.63,0,0,1,228.5,181Zm3.43-7.39h0l-2.24,1.61v-1.11l2.25-1.62h1v8.46h-1Zm3.28,7.34,6.19-8.46h1l-6.18,8.46Zm7.74-2a2.32,2.32,0,0,1-.48,1.54,1.73,1.73,0,0,1-2.58,0,2.31,2.31,0,0,1-.49-1.54,2.29,2.29,0,0,1,.49-1.53,1.73,1.73,0,0,1,2.58,0A2.31,2.31,0,0,1,242.95,178.88Zm-1.77,1.39a.68.68,0,0,0,.61-.37,2,2,0,0,0,.22-1,2,2,0,0,0-.22-1,.69.69,0,0,0-.62-.36.68.68,0,0,0-.61.38,1.91,1.91,0,0,0-.23,1,2,2,0,0,0,.23,1A.68.68,0,0,0,241.18,180.28Zm-2.94-5.84a2.32,2.32,0,0,1-.48,1.54,1.73,1.73,0,0,1-2.58,0,2.31,2.31,0,0,1-.49-1.54,2.29,2.29,0,0,1,.49-1.53,1.73,1.73,0,0,1,2.58,0A2.31,2.31,0,0,1,238.24,174.44Zm-1.77,1.39a.68.68,0,0,0,.61-.37,2,2,0,0,0,.22-1,2,2,0,0,0-.22-1,.69.69,0,0,0-.62-.36.68.68,0,0,0-.61.38,1.91,1.91,0,0,0-.23,1,2,2,0,0,0,.23,1A.68.68,0,0,0,236.47,175.84Zm-22.22,42A2.41,2.41,0,0,1,215,216,3.07,3.07,0,0,1,219,216a2.09,2.09,0,0,1,.79,1.65,2.61,2.61,0,0,1-.39,1.36,10.59,10.59,0,0,1-1.45,1.75l-2.14,2.21v0h4.12v.94H214.3v-.73l3-3.13a9.44,9.44,0,0,0,1.13-1.36,1.9,1.9,0,0,0,.28-1,1.33,1.33,0,0,0-.49-1,1.75,1.75,0,0,0-1.19-.43,1.73,1.73,0,0,0-1.24.47,1.57,1.57,0,0,0-.5,1.18h-1Zm11.16-1.48v0h-4.55v-.94h5.6v1l-3.76,7.48h-1.11Zm1.8,7.55a.66.66,0,0,1-.67-.67.63.63,0,0,1,.19-.47.65.65,0,0,1,.47-.19.66.66,0,0,1,.67.67.65.65,0,0,1-.19.47A.63.63,0,0,1,227.21,224Zm4.9.08a2.91,2.91,0,0,1-1.85-.6,2.57,2.57,0,0,1-1-1.59h1.07a1.73,1.73,0,0,0,.64.93,1.82,1.82,0,0,0,1.1.35,1.84,1.84,0,0,0,1.64-.92,5,5,0,0,0,.6-2.6h0a2.15,2.15,0,0,1-.91,1A2.84,2.84,0,0,1,232,221a2.84,2.84,0,0,1-2-4.86,3.17,3.17,0,0,1,3.83-.33A3.15,3.15,0,0,1,235,217.2a5.86,5.86,0,0,1,.42,2.33,5.57,5.57,0,0,1-.86,3.32A2.81,2.81,0,0,1,232.11,224Zm.06-4a1.94,1.94,0,0,0,1.39-.53,1.78,1.78,0,0,0,.56-1.34,1.91,1.91,0,0,0-1.93-1.93,1.88,1.88,0,0,0-1.38.56,1.81,1.81,0,0,0-.56,1.35,1.84,1.84,0,0,0,.55,1.37A1.88,1.88,0,0,0,232.17,220.06Zm4.55,3.84,6.19-8.46h1l-6.18,8.46Zm7.74-2a2.32,2.32,0,0,1-.48,1.54,1.73,1.73,0,0,1-2.58,0,2.31,2.31,0,0,1-.49-1.54,2.29,2.29,0,0,1,.49-1.53,1.73,1.73,0,0,1,2.58,0A2.31,2.31,0,0,1,244.46,221.88Zm-1.77,1.39a.68.68,0,0,0,.61-.37,2,2,0,0,0,.22-1,2,2,0,0,0-.22-1,.69.69,0,0,0-.62-.36.68.68,0,0,0-.61.38,1.91,1.91,0,0,0-.23,1,2,2,0,0,0,.23,1A.68.68,0,0,0,242.69,223.28Zm-2.94-5.84a2.31,2.31,0,0,1-.48,1.54,1.73,1.73,0,0,1-2.58,0,2.31,2.31,0,0,1-.49-1.54,2.29,2.29,0,0,1,.49-1.53,1.73,1.73,0,0,1,2.58,0A2.31,2.31,0,0,1,239.76,217.44ZM238,218.84a.68.68,0,0,0,.61-.37,2,2,0,0,0,.22-1,2,2,0,0,0-.22-1,.69.69,0,0,0-.62-.36.68.68,0,0,0-.61.38,1.91,1.91,0,0,0-.23,1,2,2,0,0,0,.23,1A.68.68,0,0,0,238,218.84Z" fill="#fff"/><line x1="184.91" y1="160.41" x2="203.44" y2="160.41" fill="none" stroke="#8c57b8" stroke-width="2"/><line x1="184.91" y1="201.31" x2="203.44" y2="201.31" fill="none" stroke="#fe2bf5" stroke-width="2"/><path d="M75.58,150.5A74.35,74.35,0,0,1,31.22,136a76.13,76.13,0,0,1-23.5-28.4A75,75,0,0,1,28.09,17.35,74.4,74.4,0,0,1,70.77.58l.72,11.23A62.88,62.88,0,0,0,35.23,26.09,63.83,63.83,0,0,0,75.58,139.35Z" fill="#80ff81" stroke="#131313" stroke-linejoin="bevel"/><path d="M75.58,150.5V139.27A63.74,63.74,0,0,0,139.35,75.5c0-1.2,0-2.49-.08-3.69A63.74,63.74,0,0,0,75.58,11.73c-1.36,0-2.73.08-4.09.16L70.77.66C72.37.58,74,.5,75.5.5a74.64,74.64,0,0,1,57.19,26.55,74.06,74.06,0,0,1,17.65,44.2c.08,1.44.16,2.89.16,4.33A74.54,74.54,0,0,1,109,142.64,73.82,73.82,0,0,1,75.58,150.5Z" fill="#fe2bf5" stroke="#131313" stroke-linejoin="bevel"/><line x1="47.09" y1="55.88" x2="60.73" y2="55.88" fill="none" stroke="#8c57b8" stroke-width="2"/><line x1="47.09" y1="85.81" x2="60.73" y2="85.81" fill="none" stroke="#fe2bf5" stroke-width="2"/></svg>