<svg id="c5e2545b-7f04-4ee4-bf81-e09c2a72fefc" data-name="Слой 1" xmlns="http://www.w3.org/2000/svg" viewBox="0 0 221.05 221.52"><title>todo_res</title><path d="M110.53,221a110.66,110.66,0,0,1-99.44-63A110.47,110.47,0,0,1,41,25.38a110.13,110.13,0,1,1,118.74,184A107.54,107.54,0,0,1,110.53,221Zm0-204a93.75,93.75,0,0,0,0,187.5,92,92,0,0,0,41.89-9.91A93.76,93.76,0,0,0,110.53,17Z" fill="#161616" stroke="#131313" stroke-linejoin="bevel" opacity="0.7" style="isolation:isolate"/><path d="M220.55,110.76H204.08A94.18,94.18,0,0,0,182,50.15l12.59-10.73A111.33,111.33,0,0,1,220.55,110.76Z" fill="#fe2bf5" stroke="#131313" stroke-linejoin="bevel"/><path d="M17,110.76H.5A109.63,109.63,0,0,1,41,25.38L51.45,38.12A93.52,93.52,0,0,0,17,110.76Z" fill="#03f4e8" stroke="#131313" stroke-linejoin="bevel"/><path d="M159.72,209.35l-7.41-14.74A93.28,93.28,0,0,0,204,110.76h16.47A109.3,109.3,0,0,1,159.72,209.35Z" fill="#8c57b7" stroke="#131313" stroke-linejoin="bevel"/><path d="M11.09,158.05A108.94,108.94,0,0,1,.5,110.76H17A94.63,94.63,0,0,0,25.92,151Z" fill="#80ff81" stroke="#131313" stroke-linejoin="bevel"/><line x1="66.03" y1="39.5" x2="86.03" y2="39.5" fill="none" stroke="#3fffc0" stroke-width="2"/><line x1="66.03" y1="82.5" x2="86.03" y2="82.5" fill="none" stroke="#80ff81" stroke-width="2"/><line x1="66.03" y1="125.5" x2="86.03" y2="125.5" fill="none" stroke="#d900ff" stroke-width="2"/><line x1="66.03" y1="169.5" x2="86.03" y2="169.5" fill="none" stroke="#8c57b8" stroke-width="2"/></svg>